G04 #@! TF.GenerationSoftware,KiCad,Pcbnew,7.0.10*
G04 #@! TF.CreationDate,2024-11-08T17:18:00-05:00*
G04 #@! TF.ProjectId,Novel Mechanism 1 Board,4e6f7665-6c20-44d6-9563-68616e69736d,rev?*
G04 #@! TF.SameCoordinates,Original*
G04 #@! TF.FileFunction,Paste,Top*
G04 #@! TF.FilePolarity,Positive*
%FSLAX46Y46*%
G04 Gerber Fmt 4.6, Leading zero omitted, Abs format (unit mm)*
G04 Created by KiCad (PCBNEW 7.0.10) date 2024-11-08 17:18:00*
%MOMM*%
%LPD*%
G01*
G04 APERTURE LIST*
G04 Aperture macros list*
%AMRoundRect*
0 Rectangle with rounded corners*
0 $1 Rounding radius*
0 $2 $3 $4 $5 $6 $7 $8 $9 X,Y pos of 4 corners*
0 Add a 4 corners polygon primitive as box body*
4,1,4,$2,$3,$4,$5,$6,$7,$8,$9,$2,$3,0*
0 Add four circle primitives for the rounded corners*
1,1,$1+$1,$2,$3*
1,1,$1+$1,$4,$5*
1,1,$1+$1,$6,$7*
1,1,$1+$1,$8,$9*
0 Add four rect primitives between the rounded corners*
20,1,$1+$1,$2,$3,$4,$5,0*
20,1,$1+$1,$4,$5,$6,$7,0*
20,1,$1+$1,$6,$7,$8,$9,0*
20,1,$1+$1,$8,$9,$2,$3,0*%
G04 Aperture macros list end*
%ADD10RoundRect,0.140000X0.170000X-0.140000X0.170000X0.140000X-0.170000X0.140000X-0.170000X-0.140000X0*%
%ADD11RoundRect,0.135000X-0.135000X-0.185000X0.135000X-0.185000X0.135000X0.185000X-0.135000X0.185000X0*%
%ADD12R,1.600000X0.800000*%
%ADD13R,3.000000X2.100000*%
%ADD14R,1.371600X0.457200*%
%ADD15RoundRect,0.135000X0.185000X-0.135000X0.185000X0.135000X-0.185000X0.135000X-0.185000X-0.135000X0*%
%ADD16RoundRect,0.140000X-0.170000X0.140000X-0.170000X-0.140000X0.170000X-0.140000X0.170000X0.140000X0*%
%ADD17RoundRect,0.135000X-0.185000X0.135000X-0.185000X-0.135000X0.185000X-0.135000X0.185000X0.135000X0*%
G04 APERTURE END LIST*
D10*
X46228000Y-61694000D03*
X46228000Y-60734000D03*
D11*
X26583100Y-46817399D03*
X27603100Y-46817399D03*
X26668000Y-44663598D03*
X27688000Y-44663598D03*
X26583100Y-48087399D03*
X27603100Y-48087399D03*
D12*
X48408000Y-51249399D03*
X48408000Y-49999399D03*
X48408000Y-48749399D03*
X48408000Y-47499399D03*
X48408000Y-46249399D03*
X48408000Y-44999399D03*
X48408000Y-43749399D03*
X48408000Y-42499399D03*
X48408000Y-41249399D03*
X48408000Y-39999399D03*
X48408000Y-38749399D03*
X48408000Y-37499399D03*
D13*
X51308000Y-53799399D03*
X51308000Y-34949399D03*
D11*
X31240000Y-59944000D03*
X32260000Y-59944000D03*
D10*
X42672000Y-48486000D03*
X42672000Y-47526000D03*
D14*
X29386221Y-34585001D03*
X29386221Y-35234999D03*
X29386221Y-35885001D03*
X29386221Y-36534999D03*
X33780421Y-36534999D03*
X33780421Y-35885001D03*
X33780421Y-35234999D03*
X33780421Y-34585001D03*
D10*
X37338000Y-40698598D03*
X37338000Y-39738598D03*
D11*
X24977321Y-38100000D03*
X25997321Y-38100000D03*
D10*
X36068000Y-40698598D03*
X36068000Y-39738598D03*
D15*
X45212000Y-39880000D03*
X45212000Y-38860000D03*
D16*
X29210000Y-42446000D03*
X29210000Y-43406000D03*
D17*
X42164000Y-64006000D03*
X42164000Y-65026000D03*
D11*
X26583100Y-53167399D03*
X27603100Y-53167399D03*
D17*
X34798000Y-41613598D03*
X34798000Y-42633598D03*
D16*
X29210000Y-50828000D03*
X29210000Y-51788000D03*
D10*
X40640000Y-48486000D03*
X40640000Y-47526000D03*
D14*
X33870900Y-47539001D03*
X33870900Y-48188999D03*
X33870900Y-48839001D03*
X33870900Y-49488999D03*
X38265100Y-49488999D03*
X38265100Y-48839001D03*
X38265100Y-48188999D03*
X38265100Y-47539001D03*
D10*
X43434000Y-61694000D03*
X43434000Y-60734000D03*
D17*
X27940000Y-31494000D03*
X27940000Y-32514000D03*
D14*
X35991800Y-59548002D03*
X35991800Y-60198000D03*
X35991800Y-60848002D03*
X35991800Y-61498000D03*
X40386000Y-61498000D03*
X40386000Y-60848002D03*
X40386000Y-60198000D03*
X40386000Y-59548002D03*
D16*
X29020100Y-61496000D03*
X29020100Y-62456000D03*
D11*
X26668000Y-64262000D03*
X27688000Y-64262000D03*
D17*
X36576000Y-51052000D03*
X36576000Y-52072000D03*
D11*
X28954000Y-58420000D03*
X29974000Y-58420000D03*
M02*
