M48
; DRILL file {KiCad 7.0.10} date Friday, November 08, 2024 at 05:18:04 PM
; FORMAT={-:-/ absolute / metric / decimal}
; #@! TF.CreationDate,2024-11-08T17:18:04-05:00
; #@! TF.GenerationSoftware,Kicad,Pcbnew,7.0.10
; #@! TF.FileFunction,Plated,1,2,PTH
FMAT,2
METRIC
; #@! TA.AperFunction,Plated,PTH,ViaDrill
T1C0.400
; #@! TA.AperFunction,Plated,PTH,ComponentDrill
T2C1.000
%
G90
G05
T1
X20.955Y-34.925
X20.955Y-37.465
X20.955Y-64.135
X21.59Y-32.385
X23.495Y-30.48
X24.13Y-52.705
X25.544Y-48.087
X26.035Y-29.21
X27.305Y-38.1
X27.686Y-58.42
X27.94Y-43.18
X27.94Y-61.595
X28.32Y-52.45
X28.956Y-64.262
X29.21Y-29.21
X29.21Y-44.45
X29.21Y-53.975
X29.845Y-52.705
X29.845Y-59.69
X29.845Y-64.77
X30.226Y-33.02
X31.115Y-44.45
X31.115Y-46.355
X31.115Y-56.515
X31.242Y-60.96
X32.258Y-35.306
X32.385Y-29.21
X32.385Y-62.23
X33.02Y-45.085
X33.745Y-40.589
X33.892Y-42.688
X34.29Y-53.34
X34.29Y-57.785
X34.835Y-38.735
X35.052Y-45.974
X35.56Y-29.21
X35.56Y-35.052
X35.56Y-53.975
X35.611Y-51.283
X36.068Y-55.626
X36.83Y-56.515
X36.83Y-57.785
X37.128Y-44.905
X37.338Y-38.771
X38.1Y-55.245
X38.1Y-56.515
X38.1Y-57.785
X38.735Y-29.21
X38.735Y-33.02
X38.735Y-36.83
X39.37Y-45.085
X39.741Y-41.372
X40.466Y-42.591
X40.767Y-54.483
X41.91Y-29.21
X41.91Y-33.02
X41.91Y-36.195
X41.91Y-40.005
X41.91Y-45.085
X42.164Y-61.214
X42.164Y-62.664
X42.164Y-66.294
X42.418Y-46.482
X42.824Y-58.572
X43.775Y-41.372
X43.815Y-38.735
X43.815Y-40.005
X44.45Y-54.61
X45.085Y-30.48
X45.085Y-36.195
X45.72Y-51.435
X46.228Y-59.182
X46.482Y-39.88
X48.26Y-31.75
X51.308Y-33.02
X51.308Y-55.88
T2
X23.363Y-40.894
X23.368Y-50.546
X23.368Y-61.722
X25.903Y-40.894
X25.908Y-50.546
X25.908Y-61.722
M30
