G04 #@! TF.GenerationSoftware,KiCad,Pcbnew,7.0.10*
G04 #@! TF.CreationDate,2024-11-08T18:26:31-05:00*
G04 #@! TF.ProjectId,Novel Mechanism 1 Board,4e6f7665-6c20-44d6-9563-68616e69736d,rev?*
G04 #@! TF.SameCoordinates,Original*
G04 #@! TF.FileFunction,Copper,L1,Top*
G04 #@! TF.FilePolarity,Positive*
%FSLAX46Y46*%
G04 Gerber Fmt 4.6, Leading zero omitted, Abs format (unit mm)*
G04 Created by KiCad (PCBNEW 7.0.10) date 2024-11-08 18:26:31*
%MOMM*%
%LPD*%
G01*
G04 APERTURE LIST*
G04 Aperture macros list*
%AMRoundRect*
0 Rectangle with rounded corners*
0 $1 Rounding radius*
0 $2 $3 $4 $5 $6 $7 $8 $9 X,Y pos of 4 corners*
0 Add a 4 corners polygon primitive as box body*
4,1,4,$2,$3,$4,$5,$6,$7,$8,$9,$2,$3,0*
0 Add four circle primitives for the rounded corners*
1,1,$1+$1,$2,$3*
1,1,$1+$1,$4,$5*
1,1,$1+$1,$6,$7*
1,1,$1+$1,$8,$9*
0 Add four rect primitives between the rounded corners*
20,1,$1+$1,$2,$3,$4,$5,0*
20,1,$1+$1,$4,$5,$6,$7,0*
20,1,$1+$1,$6,$7,$8,$9,0*
20,1,$1+$1,$8,$9,$2,$3,0*%
G04 Aperture macros list end*
G04 #@! TA.AperFunction,ComponentPad*
%ADD10R,1.700000X1.700000*%
G04 #@! TD*
G04 #@! TA.AperFunction,ComponentPad*
%ADD11O,1.700000X1.700000*%
G04 #@! TD*
G04 #@! TA.AperFunction,SMDPad,CuDef*
%ADD12RoundRect,0.140000X0.170000X-0.140000X0.170000X0.140000X-0.170000X0.140000X-0.170000X-0.140000X0*%
G04 #@! TD*
G04 #@! TA.AperFunction,SMDPad,CuDef*
%ADD13RoundRect,0.135000X-0.135000X-0.185000X0.135000X-0.185000X0.135000X0.185000X-0.135000X0.185000X0*%
G04 #@! TD*
G04 #@! TA.AperFunction,SMDPad,CuDef*
%ADD14C,2.000000*%
G04 #@! TD*
G04 #@! TA.AperFunction,SMDPad,CuDef*
%ADD15R,1.600000X0.800000*%
G04 #@! TD*
G04 #@! TA.AperFunction,SMDPad,CuDef*
%ADD16R,3.000000X2.100000*%
G04 #@! TD*
G04 #@! TA.AperFunction,SMDPad,CuDef*
%ADD17R,1.371600X0.457200*%
G04 #@! TD*
G04 #@! TA.AperFunction,SMDPad,CuDef*
%ADD18RoundRect,0.135000X0.185000X-0.135000X0.185000X0.135000X-0.185000X0.135000X-0.185000X-0.135000X0*%
G04 #@! TD*
G04 #@! TA.AperFunction,SMDPad,CuDef*
%ADD19RoundRect,0.140000X-0.170000X0.140000X-0.170000X-0.140000X0.170000X-0.140000X0.170000X0.140000X0*%
G04 #@! TD*
G04 #@! TA.AperFunction,SMDPad,CuDef*
%ADD20RoundRect,0.135000X-0.185000X0.135000X-0.185000X-0.135000X0.185000X-0.135000X0.185000X0.135000X0*%
G04 #@! TD*
G04 #@! TA.AperFunction,ViaPad*
%ADD21C,0.800000*%
G04 #@! TD*
G04 #@! TA.AperFunction,Conductor*
%ADD22C,0.500000*%
G04 #@! TD*
G04 #@! TA.AperFunction,Conductor*
%ADD23C,0.250000*%
G04 #@! TD*
G04 APERTURE END LIST*
D10*
X23368000Y-50546000D03*
D11*
X25908000Y-50546000D03*
D12*
X46228000Y-61694000D03*
X46228000Y-60734000D03*
D13*
X26583100Y-46817399D03*
X27603100Y-46817399D03*
D14*
X24384000Y-56134000D03*
D13*
X26668000Y-44663598D03*
X27688000Y-44663598D03*
X26583100Y-48087399D03*
X27603100Y-48087399D03*
D15*
X48408000Y-51249399D03*
X48408000Y-49999399D03*
X48408000Y-48749399D03*
X48408000Y-47499399D03*
X48408000Y-46249399D03*
X48408000Y-44999399D03*
X48408000Y-43749399D03*
X48408000Y-42499399D03*
X48408000Y-41249399D03*
X48408000Y-39999399D03*
X48408000Y-38749399D03*
X48408000Y-37499399D03*
D16*
X51308000Y-53799399D03*
X51308000Y-34949399D03*
D14*
X32004000Y-64262000D03*
D13*
X31240000Y-59944000D03*
X32260000Y-59944000D03*
D12*
X42672000Y-48486000D03*
X42672000Y-47526000D03*
D17*
X29386221Y-34585001D03*
X29386221Y-35234999D03*
X29386221Y-35885001D03*
X29386221Y-36534999D03*
X33780421Y-36534999D03*
X33780421Y-35885001D03*
X33780421Y-35234999D03*
X33780421Y-34585001D03*
D12*
X37338000Y-40698598D03*
X37338000Y-39738598D03*
D13*
X24977321Y-38100000D03*
X25997321Y-38100000D03*
D12*
X36068000Y-40698598D03*
X36068000Y-39738598D03*
D18*
X45212000Y-39880000D03*
X45212000Y-38860000D03*
D19*
X29210000Y-42446000D03*
X29210000Y-43406000D03*
D20*
X42164000Y-64006000D03*
X42164000Y-65026000D03*
D13*
X26583100Y-53167399D03*
X27603100Y-53167399D03*
D20*
X34798000Y-41613598D03*
X34798000Y-42633598D03*
D14*
X30988000Y-40386000D03*
X25908000Y-34544000D03*
X24119300Y-45628798D03*
D10*
X23368000Y-61722000D03*
D11*
X25908000Y-61722000D03*
D19*
X29210000Y-50828000D03*
X29210000Y-51788000D03*
D14*
X32258000Y-52832000D03*
D12*
X40640000Y-48486000D03*
X40640000Y-47526000D03*
D17*
X33870900Y-47539001D03*
X33870900Y-48188999D03*
X33870900Y-48839001D03*
X33870900Y-49488999D03*
X38265100Y-49488999D03*
X38265100Y-48839001D03*
X38265100Y-48188999D03*
X38265100Y-47539001D03*
D12*
X43434000Y-61694000D03*
X43434000Y-60734000D03*
D20*
X27940000Y-31494000D03*
X27940000Y-32514000D03*
D17*
X35991800Y-59548002D03*
X35991800Y-60198000D03*
X35991800Y-60848002D03*
X35991800Y-61498000D03*
X40386000Y-61498000D03*
X40386000Y-60848002D03*
X40386000Y-60198000D03*
X40386000Y-59548002D03*
D19*
X29020100Y-61496000D03*
X29020100Y-62456000D03*
D10*
X23363000Y-40894000D03*
D11*
X25903000Y-40894000D03*
D13*
X26668000Y-64262000D03*
X27688000Y-64262000D03*
D20*
X36576000Y-51052000D03*
X36576000Y-52072000D03*
D13*
X28954000Y-58420000D03*
X29974000Y-58420000D03*
D21*
X27686000Y-58420000D03*
X35610800Y-51282600D03*
X27940000Y-43180000D03*
X31242000Y-60960000D03*
X23495000Y-30480000D03*
X33020000Y-45085000D03*
X28956000Y-64262000D03*
X32385000Y-62230000D03*
X31115000Y-56515000D03*
X51308000Y-55880000D03*
X26035000Y-29210000D03*
X44450000Y-54610000D03*
X29210000Y-53975000D03*
X41910000Y-33020000D03*
X43815000Y-40005000D03*
X46482000Y-39880000D03*
X36830000Y-57785000D03*
X29845000Y-59690000D03*
X48260000Y-31750000D03*
X34290000Y-57785000D03*
X31115000Y-46355000D03*
X45085000Y-30480000D03*
X32258000Y-35306000D03*
X29210000Y-29210000D03*
X38735000Y-36830000D03*
X29845000Y-64770000D03*
X38735000Y-29210000D03*
X29845000Y-52705000D03*
X42164000Y-66294000D03*
X41910000Y-45085000D03*
X36830000Y-56515000D03*
X43815000Y-38735000D03*
X45720000Y-51435000D03*
X38100000Y-56515000D03*
X33892300Y-42687597D03*
X35560000Y-53975000D03*
X34290000Y-53340000D03*
X35560000Y-29210000D03*
X45085000Y-36195000D03*
X29210000Y-44450000D03*
X39370000Y-45085000D03*
X20955000Y-37465000D03*
X38735000Y-33020000D03*
X27305000Y-38100000D03*
X24130000Y-52705000D03*
X20955000Y-64135000D03*
X28320250Y-52450250D03*
X32385000Y-29210000D03*
X25543700Y-48087399D03*
X41910000Y-40005000D03*
X31115000Y-44450000D03*
X38100000Y-57785000D03*
X42824400Y-58572400D03*
X41910000Y-36195000D03*
X38100000Y-55245000D03*
X46228000Y-59182000D03*
X41910000Y-29210000D03*
X51308000Y-33020000D03*
X37338000Y-38771178D03*
X27940000Y-61595000D03*
X42418000Y-46482000D03*
X20955000Y-34925000D03*
X21590000Y-32385000D03*
X35052000Y-45974000D03*
X36068000Y-55626000D03*
X40466200Y-42591200D03*
X30226000Y-33020000D03*
X40767000Y-54483000D03*
X39741200Y-41372000D03*
X43775321Y-41372000D03*
X35560000Y-35052000D03*
X37127558Y-44904536D03*
X42164000Y-61214000D03*
X42164000Y-62664000D03*
X34835000Y-38735000D03*
X33745000Y-40589200D03*
D22*
X23363000Y-32771000D02*
X24640000Y-31494000D01*
X23363000Y-40894000D02*
X22098000Y-42159000D01*
X22098000Y-50546000D02*
X22098000Y-60960000D01*
D23*
X40356000Y-61498000D02*
X40386000Y-61498000D01*
D22*
X37338000Y-40698598D02*
X38346202Y-40698598D01*
D23*
X24977321Y-38100000D02*
X23368000Y-38100000D01*
D22*
X38265100Y-50382900D02*
X38265100Y-49488999D01*
X26583100Y-46817399D02*
X25467500Y-46817399D01*
X36068000Y-40698598D02*
X37338000Y-40698598D01*
X25467500Y-46817399D02*
X23368000Y-48916899D01*
X27432000Y-66294000D02*
X23368000Y-62230000D01*
X35593198Y-40698598D02*
X36068000Y-40698598D01*
X39637001Y-49488999D02*
X40640000Y-48486000D01*
D23*
X40386000Y-61498000D02*
X40827000Y-61939000D01*
X42672000Y-48514000D02*
X42672000Y-48486000D01*
D22*
X22098000Y-60960000D02*
X22860000Y-61722000D01*
X23368000Y-62230000D02*
X23368000Y-61722000D01*
X36576000Y-52072000D02*
X38265100Y-50382900D01*
X42402601Y-31494000D02*
X27940000Y-31494000D01*
X36400200Y-52072000D02*
X36576000Y-52072000D01*
X27686000Y-58420000D02*
X28954000Y-58420000D01*
X22098000Y-42159000D02*
X22098000Y-48888499D01*
X38346202Y-40698598D02*
X41545401Y-37499399D01*
D23*
X43189000Y-61939000D02*
X43434000Y-61694000D01*
D22*
X23363000Y-40894000D02*
X23363000Y-38105000D01*
X23368000Y-50546000D02*
X22098000Y-50546000D01*
X35560000Y-66294000D02*
X27432000Y-66294000D01*
X23368000Y-38100000D02*
X23363000Y-38095000D01*
X23368000Y-48916899D02*
X23368000Y-50546000D01*
X23363000Y-38095000D02*
X23363000Y-32771000D01*
D23*
X40827000Y-61939000D02*
X43189000Y-61939000D01*
D22*
X24640000Y-31494000D02*
X27940000Y-31494000D01*
X23876000Y-59436000D02*
X23876000Y-61214000D01*
X48408000Y-37499399D02*
X42402601Y-31494000D01*
X22098000Y-48888499D02*
X22098000Y-50546000D01*
X27686000Y-58420000D02*
X24892000Y-58420000D01*
X22860000Y-61722000D02*
X23368000Y-61722000D01*
X33780421Y-38885821D02*
X35593198Y-40698598D01*
D23*
X40132000Y-61722000D02*
X40356000Y-61498000D01*
D22*
X40640000Y-48486000D02*
X42672000Y-48486000D01*
D23*
X43434000Y-61694000D02*
X46228000Y-61694000D01*
D22*
X41545401Y-37499399D02*
X48408000Y-37499399D01*
X40132000Y-61722000D02*
X35560000Y-66294000D01*
X23876000Y-61214000D02*
X23368000Y-61722000D01*
X35610800Y-51282600D02*
X36400200Y-52072000D01*
X38265100Y-49488999D02*
X39637001Y-49488999D01*
X33780421Y-36534999D02*
X33780421Y-38885821D01*
X24892000Y-58420000D02*
X23876000Y-59436000D01*
X23363000Y-38105000D02*
X23368000Y-38100000D01*
D23*
X40640000Y-47526000D02*
X40668000Y-47498000D01*
X39667002Y-48188999D02*
X38265100Y-48188999D01*
X42418000Y-47272000D02*
X42672000Y-47526000D01*
X46482000Y-39880000D02*
X45212000Y-39880000D01*
X34694819Y-35234999D02*
X33780421Y-35234999D01*
X28982499Y-51788000D02*
X27603100Y-53167399D01*
X36068000Y-39738598D02*
X37338000Y-39738598D01*
X32258000Y-35306000D02*
X32329001Y-35234999D01*
X42164000Y-66294000D02*
X42164000Y-65026000D01*
X26583100Y-48087399D02*
X25543700Y-48087399D01*
X29210000Y-44450000D02*
X29210000Y-43406000D01*
X33892300Y-42687597D02*
X33946299Y-42633598D01*
X33780421Y-35234999D02*
X32329001Y-35234999D01*
X36068000Y-39738598D02*
X36068000Y-36608180D01*
X43434000Y-60734000D02*
X46228000Y-60734000D01*
X28956000Y-64262000D02*
X27688000Y-64262000D01*
X36068000Y-36608180D02*
X34694819Y-35234999D01*
X41198800Y-60198000D02*
X42824400Y-58572400D01*
X29210000Y-51788000D02*
X28982499Y-51788000D01*
X33946299Y-42633598D02*
X34798000Y-42633598D01*
X29210000Y-44450000D02*
X28996402Y-44663598D01*
X37338000Y-39738598D02*
X37338000Y-38771178D01*
X31242000Y-60960000D02*
X31240000Y-60958000D01*
X40668000Y-47498000D02*
X42644000Y-47498000D01*
X51308000Y-55880000D02*
X51308000Y-53799399D01*
X28956000Y-64262000D02*
X29020100Y-64197900D01*
X46228000Y-59182000D02*
X46228000Y-60734000D01*
X42418000Y-46482000D02*
X42418000Y-47272000D01*
X40640000Y-47526000D02*
X40330001Y-47526000D01*
X51308000Y-33020000D02*
X51308000Y-34949399D01*
X40386000Y-60198000D02*
X41198800Y-60198000D01*
X28996402Y-44663598D02*
X27520900Y-44663598D01*
X40330001Y-47526000D02*
X39667002Y-48188999D01*
X29020100Y-64197900D02*
X29020100Y-62456000D01*
X42644000Y-47498000D02*
X42672000Y-47526000D01*
X31240000Y-60958000D02*
X31240000Y-59944000D01*
X29238000Y-61496000D02*
X29020100Y-61496000D01*
X29020100Y-60008100D02*
X28702000Y-59690000D01*
X32004000Y-64262000D02*
X34768000Y-61498000D01*
X32004000Y-64262000D02*
X29238000Y-61496000D01*
X25908000Y-61722000D02*
X25908000Y-63502000D01*
X25908000Y-63502000D02*
X26668000Y-64262000D01*
X29020100Y-61496000D02*
X29020100Y-60008100D01*
X28702000Y-59690000D02*
X27940000Y-59690000D01*
X27940000Y-59690000D02*
X25908000Y-61722000D01*
X34768000Y-61498000D02*
X35991800Y-61498000D01*
X29210000Y-50828000D02*
X26190000Y-50828000D01*
X25908000Y-50546000D02*
X25908000Y-52492299D01*
X30291500Y-50865500D02*
X30291500Y-49488999D01*
X26190000Y-50828000D02*
X25908000Y-50546000D01*
X30291500Y-49488999D02*
X33870900Y-49488999D01*
X29210000Y-50828000D02*
X29210000Y-50570499D01*
X25908000Y-52492299D02*
X26583100Y-53167399D01*
X32258000Y-52832000D02*
X30291500Y-50865500D01*
X29210000Y-50570499D02*
X30291500Y-49488999D01*
X28448000Y-41684000D02*
X28448000Y-40386000D01*
X25903000Y-43898598D02*
X26668000Y-44663598D01*
X30988000Y-40386000D02*
X28448000Y-40386000D01*
X28448000Y-40386000D02*
X28448000Y-37473220D01*
X28448000Y-37473220D02*
X29386221Y-36534999D01*
X28448000Y-40386000D02*
X27940000Y-40894000D01*
X25903000Y-40894000D02*
X25903000Y-43898598D01*
X29210000Y-42446000D02*
X28448000Y-41684000D01*
X27940000Y-40894000D02*
X25903000Y-40894000D01*
X35991800Y-60198000D02*
X35077398Y-60198000D01*
X39116000Y-57988202D02*
X36906202Y-60198000D01*
X33299398Y-58420000D02*
X29974000Y-58420000D01*
X44976601Y-48749399D02*
X39116000Y-54610000D01*
X29974000Y-58420000D02*
X27688000Y-56134000D01*
X35077398Y-60198000D02*
X33299398Y-58420000D01*
X27688000Y-56134000D02*
X24384000Y-56134000D01*
X39116000Y-54610000D02*
X39116000Y-57988202D01*
X36906202Y-60198000D02*
X35991800Y-60198000D01*
X48408000Y-48749399D02*
X44976601Y-48749399D01*
X27603100Y-46817399D02*
X26414499Y-45628798D01*
X34881700Y-48263999D02*
X34806700Y-48188999D01*
X44630091Y-47499399D02*
X44479090Y-47650400D01*
X48408000Y-47499399D02*
X44630091Y-47499399D01*
X26414499Y-45628798D02*
X24119300Y-45628798D01*
X34881700Y-51645700D02*
X34881700Y-48263999D01*
X28974700Y-48188999D02*
X33870900Y-48188999D01*
X39462490Y-52667000D02*
X35903000Y-52667000D01*
X44479090Y-47650400D02*
X39462490Y-52667000D01*
X34806700Y-48188999D02*
X33870900Y-48188999D01*
X27603100Y-46817399D02*
X28974700Y-48188999D01*
X35903000Y-52667000D02*
X34881700Y-51645700D01*
X48386601Y-46228000D02*
X45212000Y-46228000D01*
X33412121Y-43738800D02*
X32867600Y-43194279D01*
X32867600Y-43194279D02*
X32867600Y-37693600D01*
X27940000Y-34798000D02*
X28376999Y-35234999D01*
X32867600Y-37693600D02*
X30408999Y-35234999D01*
X45212000Y-46228000D02*
X42722800Y-43738800D01*
X42722800Y-43738800D02*
X33412121Y-43738800D01*
X26162000Y-34798000D02*
X27940000Y-34798000D01*
X25908000Y-34544000D02*
X26162000Y-34798000D01*
X30408999Y-35234999D02*
X29386221Y-35234999D01*
X48408000Y-46249399D02*
X48386601Y-46228000D01*
X28376999Y-35234999D02*
X29386221Y-35234999D01*
X27940000Y-32514000D02*
X27940000Y-34798000D01*
X33870900Y-47155100D02*
X33870900Y-47539001D01*
X35991800Y-55702200D02*
X35991800Y-59548002D01*
X29386221Y-33859779D02*
X29386221Y-34585001D01*
X35052000Y-45974000D02*
X33870900Y-47155100D01*
X48408000Y-42499399D02*
X48316199Y-42591200D01*
X30226000Y-33020000D02*
X29386221Y-33859779D01*
X36068000Y-55626000D02*
X35991800Y-55702200D01*
X48316199Y-42591200D02*
X40466200Y-42591200D01*
X35093001Y-34585001D02*
X33780421Y-34585001D01*
X37127558Y-44904536D02*
X38265100Y-46042078D01*
X38265100Y-46042078D02*
X38265100Y-47539001D01*
X39741200Y-41372000D02*
X48285399Y-41372000D01*
X35560000Y-35052000D02*
X35093001Y-34585001D01*
X40386000Y-54864000D02*
X40386000Y-59548002D01*
X40767000Y-54483000D02*
X40386000Y-54864000D01*
X48285399Y-41372000D02*
X48408000Y-41249399D01*
X48266601Y-38608000D02*
X46484000Y-38608000D01*
X46484000Y-38608000D02*
X46232000Y-38860000D01*
X46232000Y-38860000D02*
X45212000Y-38860000D01*
X48408000Y-38749399D02*
X48266601Y-38608000D01*
X32260000Y-59944000D02*
X33164002Y-60848002D01*
X33164002Y-60848002D02*
X35991800Y-60848002D01*
X27603100Y-48087399D02*
X28354702Y-48839001D01*
X28354702Y-48839001D02*
X33870900Y-48839001D01*
X48288601Y-39880000D02*
X48408000Y-39999399D01*
X28212320Y-35885001D02*
X29386221Y-35885001D01*
X25997321Y-38100000D02*
X28212320Y-35885001D01*
X42164000Y-61214000D02*
X41798002Y-60848002D01*
X42164000Y-62664000D02*
X42164000Y-64006000D01*
X41798002Y-60848002D02*
X40386000Y-60848002D01*
X33745000Y-40589200D02*
X33773602Y-40589200D01*
X34835000Y-36025178D02*
X34835000Y-38735000D01*
X33780421Y-35885001D02*
X34694823Y-35885001D01*
X34694823Y-35885001D02*
X34835000Y-36025178D01*
X33773602Y-40589200D02*
X34798000Y-41613598D01*
X37329300Y-48839001D02*
X38265100Y-48839001D01*
X36576000Y-51052000D02*
X36576000Y-49592301D01*
X36576000Y-49592301D02*
X37329300Y-48839001D01*
G04 #@! TA.AperFunction,Conductor*
G36*
X28337639Y-60335185D02*
G01*
X28383394Y-60387989D01*
X28394600Y-60439500D01*
X28394600Y-60854333D01*
X28374915Y-60921372D01*
X28358281Y-60942014D01*
X28339987Y-60960307D01*
X28339981Y-60960315D01*
X28257605Y-61099606D01*
X28257604Y-61099609D01*
X28212457Y-61255002D01*
X28212456Y-61255008D01*
X28209600Y-61291302D01*
X28209600Y-61700697D01*
X28212456Y-61736991D01*
X28212457Y-61736997D01*
X28257604Y-61892390D01*
X28257607Y-61892397D01*
X28270010Y-61913370D01*
X28287193Y-61981094D01*
X28270012Y-62039608D01*
X28258068Y-62059804D01*
X28215596Y-62206000D01*
X28521748Y-62206000D01*
X28584866Y-62223267D01*
X28593705Y-62228494D01*
X28593708Y-62228494D01*
X28593710Y-62228496D01*
X28749102Y-62273642D01*
X28749105Y-62273642D01*
X28749107Y-62273643D01*
X28785410Y-62276500D01*
X29082548Y-62276500D01*
X29149587Y-62296185D01*
X29170229Y-62312819D01*
X29233781Y-62376371D01*
X29267266Y-62437694D01*
X29270100Y-62464052D01*
X29270100Y-63234789D01*
X29291010Y-63233145D01*
X29446295Y-63188031D01*
X29585474Y-63105721D01*
X29585483Y-63105714D01*
X29686623Y-63004575D01*
X29747946Y-62971090D01*
X29817638Y-62976074D01*
X29861985Y-63004575D01*
X30540338Y-63682928D01*
X30573823Y-63744251D01*
X30572863Y-63801049D01*
X30518892Y-64014174D01*
X30518890Y-64014187D01*
X30498357Y-64261994D01*
X30498357Y-64262005D01*
X30518890Y-64509812D01*
X30518892Y-64509824D01*
X30579936Y-64750881D01*
X30679826Y-64978606D01*
X30815833Y-65186782D01*
X30815836Y-65186785D01*
X30952754Y-65335518D01*
X30983676Y-65398171D01*
X30975816Y-65467598D01*
X30931669Y-65521753D01*
X30865251Y-65543444D01*
X30861524Y-65543500D01*
X27794229Y-65543500D01*
X27727190Y-65523815D01*
X27706548Y-65507181D01*
X27445494Y-65246127D01*
X27412009Y-65184804D01*
X27416993Y-65115112D01*
X27438000Y-65087008D01*
X27438000Y-64522408D01*
X27438382Y-64512679D01*
X27438435Y-64512000D01*
X27938000Y-64512000D01*
X27938000Y-65074843D01*
X28077194Y-65034404D01*
X28215285Y-64952738D01*
X28215294Y-64952731D01*
X28328731Y-64839294D01*
X28328738Y-64839285D01*
X28410406Y-64701191D01*
X28410407Y-64701188D01*
X28455166Y-64547128D01*
X28455167Y-64547122D01*
X28457931Y-64512000D01*
X27938000Y-64512000D01*
X27438435Y-64512000D01*
X27438500Y-64511181D01*
X27438499Y-64012820D01*
X27438434Y-64012000D01*
X27938000Y-64012000D01*
X28457931Y-64012000D01*
X28455167Y-63976877D01*
X28455166Y-63976871D01*
X28410407Y-63822811D01*
X28410406Y-63822808D01*
X28328738Y-63684714D01*
X28328731Y-63684705D01*
X28215294Y-63571268D01*
X28215285Y-63571261D01*
X28077191Y-63489593D01*
X28077188Y-63489591D01*
X27938001Y-63449153D01*
X27938000Y-63449154D01*
X27938000Y-64012000D01*
X27438434Y-64012000D01*
X27438382Y-64011332D01*
X27438000Y-64001607D01*
X27438000Y-63449154D01*
X27437998Y-63449153D01*
X27298811Y-63489591D01*
X27298810Y-63489592D01*
X27241611Y-63523419D01*
X27173886Y-63540600D01*
X27115371Y-63523419D01*
X27058174Y-63489593D01*
X27057393Y-63489131D01*
X27057392Y-63489130D01*
X27057391Y-63489130D01*
X27057388Y-63489129D01*
X26903208Y-63444335D01*
X26903202Y-63444334D01*
X26867188Y-63441500D01*
X26867181Y-63441500D01*
X26783453Y-63441500D01*
X26716414Y-63421815D01*
X26695772Y-63405181D01*
X26569819Y-63279228D01*
X26536334Y-63217905D01*
X26533500Y-63191547D01*
X26533500Y-62997226D01*
X26553185Y-62930187D01*
X26586374Y-62895654D01*
X26779401Y-62760495D01*
X26833896Y-62706000D01*
X28215596Y-62706000D01*
X28258068Y-62852195D01*
X28340378Y-62991374D01*
X28340385Y-62991383D01*
X28454716Y-63105714D01*
X28454725Y-63105721D01*
X28593904Y-63188031D01*
X28749189Y-63233145D01*
X28770100Y-63234789D01*
X28770100Y-62706000D01*
X28215596Y-62706000D01*
X26833896Y-62706000D01*
X26946495Y-62593401D01*
X27082035Y-62399830D01*
X27181903Y-62185663D01*
X27243063Y-61957408D01*
X27263659Y-61722000D01*
X27243063Y-61486592D01*
X27216143Y-61386125D01*
X27217806Y-61316276D01*
X27248235Y-61266353D01*
X28162772Y-60351819D01*
X28224095Y-60318334D01*
X28250453Y-60315500D01*
X28270600Y-60315500D01*
X28337639Y-60335185D01*
G37*
G04 #@! TD.AperFunction*
G04 #@! TA.AperFunction,Conductor*
G36*
X30688151Y-59065185D02*
G01*
X30733906Y-59117989D01*
X30743850Y-59187147D01*
X30714825Y-59250703D01*
X30708793Y-59257181D01*
X30599268Y-59366705D01*
X30599261Y-59366714D01*
X30517593Y-59504808D01*
X30517592Y-59504811D01*
X30472833Y-59658871D01*
X30472832Y-59658877D01*
X30470069Y-59694000D01*
X31365500Y-59694000D01*
X31432539Y-59713685D01*
X31478294Y-59766489D01*
X31489500Y-59818000D01*
X31489500Y-60193170D01*
X31489501Y-60193182D01*
X31489618Y-60194663D01*
X31490000Y-60204393D01*
X31490000Y-60756844D01*
X31629194Y-60716405D01*
X31629196Y-60716404D01*
X31686386Y-60682582D01*
X31754109Y-60665398D01*
X31812629Y-60682581D01*
X31870607Y-60716869D01*
X31886124Y-60721377D01*
X32024791Y-60761664D01*
X32024794Y-60761664D01*
X32024796Y-60761665D01*
X32060819Y-60764500D01*
X32144547Y-60764499D01*
X32211585Y-60784183D01*
X32232227Y-60800817D01*
X32450362Y-61018953D01*
X32663199Y-61231790D01*
X32673024Y-61244053D01*
X32673245Y-61243871D01*
X32678213Y-61249876D01*
X32678215Y-61249878D01*
X32678216Y-61249879D01*
X32727224Y-61295901D01*
X32730023Y-61298614D01*
X32749524Y-61318116D01*
X32749528Y-61318119D01*
X32749531Y-61318122D01*
X32752704Y-61320583D01*
X32761576Y-61328161D01*
X32793420Y-61358064D01*
X32810978Y-61367716D01*
X32827235Y-61378395D01*
X32843066Y-61390675D01*
X32872805Y-61403544D01*
X32883154Y-61408023D01*
X32893643Y-61413162D01*
X32917459Y-61426254D01*
X32931910Y-61434199D01*
X32940752Y-61436469D01*
X32951307Y-61439179D01*
X32969721Y-61445483D01*
X32988106Y-61453440D01*
X33031263Y-61460275D01*
X33042658Y-61462634D01*
X33084983Y-61473502D01*
X33105018Y-61473502D01*
X33124415Y-61475028D01*
X33144198Y-61478162D01*
X33187677Y-61474052D01*
X33199346Y-61473502D01*
X33608545Y-61473502D01*
X33675584Y-61493187D01*
X33721339Y-61545991D01*
X33731283Y-61615149D01*
X33702258Y-61678705D01*
X33696226Y-61685183D01*
X32581228Y-62800179D01*
X32519905Y-62833664D01*
X32453284Y-62829779D01*
X32373616Y-62802429D01*
X32128335Y-62761500D01*
X31879665Y-62761500D01*
X31634386Y-62802428D01*
X31554711Y-62829780D01*
X31484912Y-62832929D01*
X31426769Y-62800179D01*
X29828201Y-61201610D01*
X29796806Y-61148524D01*
X29782594Y-61099605D01*
X29700217Y-60960313D01*
X29700215Y-60960311D01*
X29700212Y-60960307D01*
X29681919Y-60942014D01*
X29648434Y-60880691D01*
X29645600Y-60854333D01*
X29645600Y-60194000D01*
X30470069Y-60194000D01*
X30472832Y-60229122D01*
X30472833Y-60229128D01*
X30517592Y-60383188D01*
X30517593Y-60383191D01*
X30599261Y-60521285D01*
X30599268Y-60521294D01*
X30712705Y-60634731D01*
X30712714Y-60634738D01*
X30850805Y-60716404D01*
X30990000Y-60756844D01*
X30990000Y-60194000D01*
X30470069Y-60194000D01*
X29645600Y-60194000D01*
X29645600Y-60090837D01*
X29647324Y-60075223D01*
X29647038Y-60075196D01*
X29647772Y-60067433D01*
X29645661Y-60000244D01*
X29645600Y-59996350D01*
X29645600Y-59968751D01*
X29645600Y-59968750D01*
X29645097Y-59964770D01*
X29644180Y-59953121D01*
X29643189Y-59921580D01*
X29642809Y-59909473D01*
X29637221Y-59890239D01*
X29633274Y-59871181D01*
X29630764Y-59851308D01*
X29622291Y-59829908D01*
X29614683Y-59810692D01*
X29610899Y-59799639D01*
X29598718Y-59757715D01*
X29598717Y-59757710D01*
X29588520Y-59740468D01*
X29579963Y-59723002D01*
X29572586Y-59704368D01*
X29546909Y-59669026D01*
X29540512Y-59659290D01*
X29518270Y-59621679D01*
X29518267Y-59621676D01*
X29518265Y-59621673D01*
X29504105Y-59607513D01*
X29491470Y-59592720D01*
X29479693Y-59576512D01*
X29446045Y-59548676D01*
X29437404Y-59540813D01*
X29294887Y-59398296D01*
X29261402Y-59336973D01*
X29266386Y-59267281D01*
X29308258Y-59211348D01*
X29336737Y-59197142D01*
X29336230Y-59195969D01*
X29343387Y-59192871D01*
X29343387Y-59192870D01*
X29343393Y-59192869D01*
X29400882Y-59158869D01*
X29468602Y-59141688D01*
X29527117Y-59158869D01*
X29584607Y-59192869D01*
X29584610Y-59192869D01*
X29584612Y-59192871D01*
X29738791Y-59237664D01*
X29738794Y-59237664D01*
X29738796Y-59237665D01*
X29774819Y-59240500D01*
X30173180Y-59240499D01*
X30209204Y-59237665D01*
X30363393Y-59192869D01*
X30501598Y-59111135D01*
X30509559Y-59103174D01*
X30530915Y-59081819D01*
X30592238Y-59048334D01*
X30618596Y-59045500D01*
X30621112Y-59045500D01*
X30688151Y-59065185D01*
G37*
G04 #@! TD.AperFunction*
G04 #@! TA.AperFunction,Conductor*
G36*
X32905891Y-50134184D02*
G01*
X32913163Y-50139232D01*
X32942768Y-50161394D01*
X32942771Y-50161396D01*
X33077617Y-50211690D01*
X33077616Y-50211690D01*
X33084544Y-50212434D01*
X33137227Y-50218099D01*
X34132200Y-50218098D01*
X34199239Y-50237782D01*
X34244994Y-50290586D01*
X34256200Y-50342098D01*
X34256200Y-51562955D01*
X34254475Y-51578572D01*
X34254761Y-51578599D01*
X34254026Y-51586365D01*
X34256139Y-51653572D01*
X34256200Y-51657467D01*
X34256200Y-51685057D01*
X34256703Y-51689035D01*
X34257618Y-51700667D01*
X34258990Y-51744324D01*
X34258991Y-51744327D01*
X34264580Y-51763567D01*
X34268524Y-51782611D01*
X34271036Y-51802492D01*
X34287114Y-51843103D01*
X34290897Y-51854152D01*
X34303082Y-51896090D01*
X34309662Y-51907217D01*
X34313280Y-51913334D01*
X34321838Y-51930803D01*
X34329214Y-51949432D01*
X34354881Y-51984760D01*
X34361293Y-51994521D01*
X34383528Y-52032117D01*
X34383533Y-52032124D01*
X34397690Y-52046280D01*
X34410328Y-52061076D01*
X34422105Y-52077286D01*
X34422106Y-52077287D01*
X34455757Y-52105125D01*
X34464398Y-52112988D01*
X35402197Y-53050788D01*
X35412022Y-53063051D01*
X35412243Y-53062869D01*
X35417211Y-53068874D01*
X35417213Y-53068876D01*
X35417214Y-53068877D01*
X35428868Y-53079821D01*
X35466222Y-53114899D01*
X35469021Y-53117612D01*
X35488522Y-53137114D01*
X35488526Y-53137117D01*
X35488529Y-53137120D01*
X35491702Y-53139581D01*
X35500574Y-53147159D01*
X35532418Y-53177062D01*
X35549976Y-53186714D01*
X35566235Y-53197395D01*
X35582064Y-53209673D01*
X35622155Y-53227021D01*
X35632626Y-53232151D01*
X35655180Y-53244550D01*
X35670902Y-53253194D01*
X35670904Y-53253195D01*
X35670908Y-53253197D01*
X35690316Y-53258180D01*
X35708719Y-53264481D01*
X35727101Y-53272436D01*
X35727102Y-53272436D01*
X35727104Y-53272437D01*
X35770250Y-53279270D01*
X35781672Y-53281636D01*
X35823981Y-53292500D01*
X35844016Y-53292500D01*
X35863414Y-53294026D01*
X35883194Y-53297159D01*
X35883195Y-53297160D01*
X35883195Y-53297159D01*
X35883196Y-53297160D01*
X35926675Y-53293050D01*
X35938344Y-53292500D01*
X39249546Y-53292500D01*
X39316585Y-53312185D01*
X39362340Y-53364989D01*
X39372284Y-53434147D01*
X39343259Y-53497703D01*
X39337227Y-53504181D01*
X38732208Y-54109199D01*
X38719951Y-54119020D01*
X38720134Y-54119241D01*
X38714122Y-54124214D01*
X38668098Y-54173223D01*
X38665391Y-54176016D01*
X38645889Y-54195517D01*
X38645875Y-54195534D01*
X38643407Y-54198715D01*
X38635843Y-54207570D01*
X38605937Y-54239418D01*
X38605936Y-54239420D01*
X38596284Y-54256976D01*
X38585610Y-54273226D01*
X38573329Y-54289061D01*
X38573324Y-54289068D01*
X38555975Y-54329158D01*
X38550838Y-54339644D01*
X38529803Y-54377906D01*
X38524822Y-54397307D01*
X38518521Y-54415710D01*
X38510562Y-54434102D01*
X38510561Y-54434105D01*
X38503728Y-54477243D01*
X38501360Y-54488674D01*
X38490501Y-54530971D01*
X38490500Y-54530982D01*
X38490500Y-54551016D01*
X38488973Y-54570415D01*
X38485840Y-54590194D01*
X38485840Y-54590195D01*
X38489950Y-54633674D01*
X38490500Y-54645343D01*
X38490500Y-57677748D01*
X38470815Y-57744787D01*
X38454181Y-57765429D01*
X36946061Y-59273548D01*
X36884738Y-59307033D01*
X36815046Y-59302049D01*
X36759113Y-59260177D01*
X36755277Y-59254757D01*
X36750057Y-59246944D01*
X36716814Y-59224734D01*
X36716815Y-59224734D01*
X36716813Y-59224733D01*
X36716810Y-59224732D01*
X36705528Y-59220059D01*
X36705979Y-59218970D01*
X36655196Y-59192404D01*
X36620623Y-59131688D01*
X36617300Y-59103174D01*
X36617300Y-56403170D01*
X36636985Y-56336131D01*
X36668422Y-56302847D01*
X36673867Y-56298891D01*
X36673867Y-56298890D01*
X36673871Y-56298888D01*
X36800533Y-56158216D01*
X36895179Y-55994284D01*
X36953674Y-55814256D01*
X36973460Y-55626000D01*
X36953674Y-55437744D01*
X36895179Y-55257716D01*
X36800533Y-55093784D01*
X36673871Y-54953112D01*
X36596974Y-54897243D01*
X36520734Y-54841851D01*
X36520729Y-54841848D01*
X36347807Y-54764857D01*
X36347802Y-54764855D01*
X36202001Y-54733865D01*
X36162646Y-54725500D01*
X35973354Y-54725500D01*
X35940897Y-54732398D01*
X35788197Y-54764855D01*
X35788192Y-54764857D01*
X35615270Y-54841848D01*
X35615265Y-54841851D01*
X35462129Y-54953111D01*
X35335466Y-55093785D01*
X35240821Y-55257715D01*
X35240818Y-55257722D01*
X35188922Y-55417443D01*
X35182326Y-55437744D01*
X35162540Y-55626000D01*
X35182326Y-55814256D01*
X35182327Y-55814259D01*
X35240818Y-55994277D01*
X35240821Y-55994284D01*
X35335466Y-56158215D01*
X35339285Y-56163471D01*
X35337970Y-56164425D01*
X35364678Y-56220070D01*
X35366300Y-56240058D01*
X35366300Y-59103174D01*
X35346615Y-59170213D01*
X35293811Y-59215968D01*
X35267188Y-59224566D01*
X35266788Y-59224732D01*
X35233543Y-59246944D01*
X35231032Y-59250703D01*
X35228324Y-59254757D01*
X35228323Y-59254758D01*
X35174711Y-59299564D01*
X35105386Y-59308273D01*
X35042358Y-59278119D01*
X35037538Y-59273550D01*
X34459877Y-58695889D01*
X33800201Y-58036212D01*
X33790378Y-58023950D01*
X33790157Y-58024134D01*
X33785184Y-58018122D01*
X33736174Y-57972099D01*
X33733375Y-57969386D01*
X33713875Y-57949885D01*
X33713869Y-57949880D01*
X33710684Y-57947409D01*
X33701832Y-57939848D01*
X33669980Y-57909938D01*
X33669978Y-57909936D01*
X33669975Y-57909935D01*
X33652427Y-57900288D01*
X33636161Y-57889604D01*
X33620330Y-57877324D01*
X33580247Y-57859978D01*
X33569761Y-57854841D01*
X33531492Y-57833803D01*
X33531490Y-57833802D01*
X33512091Y-57828822D01*
X33493679Y-57822518D01*
X33475296Y-57814562D01*
X33475290Y-57814560D01*
X33432158Y-57807729D01*
X33420720Y-57805361D01*
X33378418Y-57794500D01*
X33378417Y-57794500D01*
X33358382Y-57794500D01*
X33338984Y-57792973D01*
X33331560Y-57791797D01*
X33319203Y-57789840D01*
X33319202Y-57789840D01*
X33275723Y-57793950D01*
X33264054Y-57794500D01*
X30618596Y-57794500D01*
X30551557Y-57774815D01*
X30530915Y-57758181D01*
X30501603Y-57728869D01*
X30501595Y-57728863D01*
X30363393Y-57647131D01*
X30363388Y-57647129D01*
X30209208Y-57602335D01*
X30209202Y-57602334D01*
X30173188Y-57599500D01*
X30173181Y-57599500D01*
X30089453Y-57599500D01*
X30022414Y-57579815D01*
X30001772Y-57563181D01*
X28188803Y-55750212D01*
X28178980Y-55737950D01*
X28178759Y-55738134D01*
X28173786Y-55732122D01*
X28124776Y-55686099D01*
X28121977Y-55683386D01*
X28102477Y-55663885D01*
X28102471Y-55663880D01*
X28099286Y-55661409D01*
X28090434Y-55653848D01*
X28058582Y-55623938D01*
X28058580Y-55623936D01*
X28058577Y-55623935D01*
X28041029Y-55614288D01*
X28024763Y-55603604D01*
X28008932Y-55591324D01*
X27968849Y-55573978D01*
X27958363Y-55568841D01*
X27920094Y-55547803D01*
X27920092Y-55547802D01*
X27900693Y-55542822D01*
X27882281Y-55536518D01*
X27863898Y-55528562D01*
X27863892Y-55528560D01*
X27820760Y-55521729D01*
X27809322Y-55519361D01*
X27767020Y-55508500D01*
X27767019Y-55508500D01*
X27746984Y-55508500D01*
X27727586Y-55506973D01*
X27720162Y-55505797D01*
X27707805Y-55503840D01*
X27707804Y-55503840D01*
X27664325Y-55507950D01*
X27652656Y-55508500D01*
X25829150Y-55508500D01*
X25762111Y-55488815D01*
X25716356Y-55436011D01*
X25715595Y-55434311D01*
X25708175Y-55417396D01*
X25572166Y-55209217D01*
X25463792Y-55091492D01*
X25403744Y-55026262D01*
X25207509Y-54873526D01*
X25207507Y-54873525D01*
X25207506Y-54873524D01*
X24988811Y-54755172D01*
X24988802Y-54755169D01*
X24753616Y-54674429D01*
X24508335Y-54633500D01*
X24259665Y-54633500D01*
X24014383Y-54674429D01*
X23779197Y-54755169D01*
X23779188Y-54755172D01*
X23560493Y-54873524D01*
X23364257Y-55026261D01*
X23195836Y-55209215D01*
X23076309Y-55392165D01*
X23023162Y-55437521D01*
X22953931Y-55446945D01*
X22890595Y-55417443D01*
X22853264Y-55358383D01*
X22848500Y-55324343D01*
X22848500Y-52020499D01*
X22868185Y-51953460D01*
X22920989Y-51907705D01*
X22972500Y-51896499D01*
X24265871Y-51896499D01*
X24265872Y-51896499D01*
X24325483Y-51890091D01*
X24460331Y-51839796D01*
X24575546Y-51753546D01*
X24661796Y-51638331D01*
X24710810Y-51506916D01*
X24752681Y-51450984D01*
X24818145Y-51426566D01*
X24886418Y-51441417D01*
X24914673Y-51462569D01*
X25036597Y-51584493D01*
X25036603Y-51584498D01*
X25039272Y-51586367D01*
X25229624Y-51719653D01*
X25273248Y-51774228D01*
X25282500Y-51821226D01*
X25282500Y-52409554D01*
X25280775Y-52425171D01*
X25281061Y-52425198D01*
X25280326Y-52432964D01*
X25282439Y-52500171D01*
X25282500Y-52504066D01*
X25282500Y-52531656D01*
X25283003Y-52535634D01*
X25283918Y-52547266D01*
X25285290Y-52590923D01*
X25285291Y-52590926D01*
X25290880Y-52610166D01*
X25294824Y-52629210D01*
X25296443Y-52642019D01*
X25297336Y-52649091D01*
X25313414Y-52689702D01*
X25317197Y-52700751D01*
X25329381Y-52742687D01*
X25339580Y-52759933D01*
X25348138Y-52777402D01*
X25355514Y-52796031D01*
X25381181Y-52831359D01*
X25387593Y-52841120D01*
X25409828Y-52878716D01*
X25409833Y-52878723D01*
X25423990Y-52892879D01*
X25436628Y-52907675D01*
X25448405Y-52923885D01*
X25448406Y-52923886D01*
X25482057Y-52951724D01*
X25490698Y-52959587D01*
X25776281Y-53245170D01*
X25809766Y-53306493D01*
X25812600Y-53332850D01*
X25812600Y-53416567D01*
X25812601Y-53416591D01*
X25815435Y-53452604D01*
X25860229Y-53606787D01*
X25860231Y-53606792D01*
X25941963Y-53744994D01*
X25941969Y-53745002D01*
X26055496Y-53858529D01*
X26055500Y-53858532D01*
X26055502Y-53858534D01*
X26193707Y-53940268D01*
X26229903Y-53950784D01*
X26347891Y-53985063D01*
X26347894Y-53985063D01*
X26347896Y-53985064D01*
X26383919Y-53987899D01*
X26782280Y-53987898D01*
X26818304Y-53985064D01*
X26972493Y-53940268D01*
X27030469Y-53905980D01*
X27098193Y-53888797D01*
X27156712Y-53905980D01*
X27213905Y-53939803D01*
X27353100Y-53980243D01*
X27353100Y-53427807D01*
X27353482Y-53418078D01*
X27353535Y-53417399D01*
X27853100Y-53417399D01*
X27853100Y-53980242D01*
X27992294Y-53939803D01*
X28130385Y-53858137D01*
X28130394Y-53858130D01*
X28243831Y-53744693D01*
X28243838Y-53744684D01*
X28325506Y-53606590D01*
X28325507Y-53606587D01*
X28370266Y-53452527D01*
X28370267Y-53452521D01*
X28373031Y-53417399D01*
X27853100Y-53417399D01*
X27353535Y-53417399D01*
X27353600Y-53416580D01*
X27353599Y-52918219D01*
X27353534Y-52917399D01*
X27853100Y-52917399D01*
X28373031Y-52917399D01*
X28370267Y-52882276D01*
X28370266Y-52882270D01*
X28325507Y-52728210D01*
X28325506Y-52728207D01*
X28243838Y-52590113D01*
X28243831Y-52590104D01*
X28130394Y-52476667D01*
X28130385Y-52476660D01*
X27992291Y-52394992D01*
X27992288Y-52394990D01*
X27853101Y-52354552D01*
X27853100Y-52354553D01*
X27853100Y-52917399D01*
X27353534Y-52917399D01*
X27353482Y-52916731D01*
X27353100Y-52907006D01*
X27353100Y-52354553D01*
X27353098Y-52354552D01*
X27213911Y-52394990D01*
X27213910Y-52394991D01*
X27156711Y-52428818D01*
X27088986Y-52445999D01*
X27030471Y-52428818D01*
X26973274Y-52394992D01*
X26972493Y-52394530D01*
X26972492Y-52394529D01*
X26972491Y-52394529D01*
X26972488Y-52394528D01*
X26818308Y-52349734D01*
X26818302Y-52349733D01*
X26782288Y-52346899D01*
X26782281Y-52346899D01*
X26698553Y-52346899D01*
X26631514Y-52327214D01*
X26610871Y-52310579D01*
X26569818Y-52269525D01*
X26536333Y-52208202D01*
X26533500Y-52181845D01*
X26533500Y-52038000D01*
X28405496Y-52038000D01*
X28447968Y-52184195D01*
X28530278Y-52323374D01*
X28530285Y-52323383D01*
X28644616Y-52437714D01*
X28644625Y-52437721D01*
X28783804Y-52520031D01*
X28939089Y-52565145D01*
X28960000Y-52566789D01*
X28960000Y-52038000D01*
X29460000Y-52038000D01*
X29460000Y-52566789D01*
X29480910Y-52565145D01*
X29636195Y-52520031D01*
X29775374Y-52437721D01*
X29775383Y-52437714D01*
X29889714Y-52323383D01*
X29889721Y-52323374D01*
X29972031Y-52184195D01*
X30014504Y-52038000D01*
X29460000Y-52038000D01*
X28960000Y-52038000D01*
X28405496Y-52038000D01*
X26533500Y-52038000D01*
X26533500Y-51821226D01*
X26553185Y-51754187D01*
X26586374Y-51719654D01*
X26779401Y-51584495D01*
X26874077Y-51489819D01*
X26935400Y-51456334D01*
X26961758Y-51453500D01*
X28280091Y-51453500D01*
X28347130Y-51473185D01*
X28379252Y-51503047D01*
X28405496Y-51538000D01*
X28711648Y-51538000D01*
X28774766Y-51555267D01*
X28783605Y-51560494D01*
X28783608Y-51560494D01*
X28783610Y-51560496D01*
X28939002Y-51605642D01*
X28939005Y-51605642D01*
X28939007Y-51605643D01*
X28975310Y-51608500D01*
X28975318Y-51608500D01*
X29444682Y-51608500D01*
X29444690Y-51608500D01*
X29480993Y-51605643D01*
X29480995Y-51605642D01*
X29480997Y-51605642D01*
X29636389Y-51560496D01*
X29636389Y-51560495D01*
X29636395Y-51560494D01*
X29645233Y-51555267D01*
X29708352Y-51538000D01*
X30028048Y-51538000D01*
X30095087Y-51557685D01*
X30115729Y-51574319D01*
X30794338Y-52252928D01*
X30827823Y-52314251D01*
X30826863Y-52371049D01*
X30772892Y-52584174D01*
X30772890Y-52584187D01*
X30752357Y-52831994D01*
X30752357Y-52832005D01*
X30772890Y-53079812D01*
X30772892Y-53079824D01*
X30833936Y-53320881D01*
X30933826Y-53548606D01*
X31069833Y-53756782D01*
X31069836Y-53756785D01*
X31238256Y-53939738D01*
X31434491Y-54092474D01*
X31434493Y-54092475D01*
X31639314Y-54203319D01*
X31653190Y-54210828D01*
X31888386Y-54291571D01*
X32133665Y-54332500D01*
X32382335Y-54332500D01*
X32627614Y-54291571D01*
X32862810Y-54210828D01*
X33081509Y-54092474D01*
X33277744Y-53939738D01*
X33446164Y-53756785D01*
X33582173Y-53548607D01*
X33682063Y-53320881D01*
X33743108Y-53079821D01*
X33753414Y-52955451D01*
X33763643Y-52832005D01*
X33763643Y-52831994D01*
X33743109Y-52584187D01*
X33743107Y-52584175D01*
X33682063Y-52343118D01*
X33582173Y-52115393D01*
X33446166Y-51907217D01*
X33384100Y-51839796D01*
X33277744Y-51724262D01*
X33081509Y-51571526D01*
X33081507Y-51571525D01*
X33081506Y-51571524D01*
X32862811Y-51453172D01*
X32862802Y-51453169D01*
X32627616Y-51372429D01*
X32382335Y-51331500D01*
X32133665Y-51331500D01*
X31888386Y-51372428D01*
X31808713Y-51399780D01*
X31738914Y-51402929D01*
X31680770Y-51370179D01*
X30953319Y-50642728D01*
X30919834Y-50581405D01*
X30917000Y-50555047D01*
X30917000Y-50238499D01*
X30936685Y-50171460D01*
X30989489Y-50125705D01*
X31041000Y-50114499D01*
X32838852Y-50114499D01*
X32905891Y-50134184D01*
G37*
G04 #@! TD.AperFunction*
G04 #@! TA.AperFunction,Conductor*
G36*
X29609889Y-41031185D02*
G01*
X29655644Y-41083989D01*
X29656405Y-41085689D01*
X29663824Y-41102603D01*
X29799833Y-41310782D01*
X29799836Y-41310785D01*
X29968256Y-41493738D01*
X30164491Y-41646474D01*
X30188049Y-41659223D01*
X30355398Y-41749788D01*
X30383190Y-41764828D01*
X30618386Y-41845571D01*
X30863665Y-41886500D01*
X31112335Y-41886500D01*
X31357614Y-41845571D01*
X31592810Y-41764828D01*
X31811509Y-41646474D01*
X32007744Y-41493738D01*
X32026870Y-41472961D01*
X32086755Y-41436970D01*
X32156593Y-41439069D01*
X32214210Y-41478592D01*
X32241313Y-41542991D01*
X32242100Y-41556943D01*
X32242100Y-43111534D01*
X32240375Y-43127151D01*
X32240661Y-43127178D01*
X32239926Y-43134944D01*
X32242039Y-43202151D01*
X32242100Y-43206046D01*
X32242100Y-43233636D01*
X32242603Y-43237614D01*
X32243518Y-43249246D01*
X32244890Y-43292903D01*
X32244891Y-43292906D01*
X32250480Y-43312146D01*
X32254424Y-43331190D01*
X32255149Y-43336923D01*
X32256936Y-43351071D01*
X32273014Y-43391682D01*
X32276797Y-43402731D01*
X32288981Y-43444667D01*
X32299180Y-43461913D01*
X32307738Y-43479382D01*
X32315114Y-43498011D01*
X32340781Y-43533339D01*
X32347193Y-43543100D01*
X32369428Y-43580696D01*
X32369433Y-43580703D01*
X32383590Y-43594859D01*
X32396228Y-43609655D01*
X32408005Y-43625865D01*
X32408006Y-43625866D01*
X32441657Y-43653704D01*
X32450298Y-43661567D01*
X32911318Y-44122588D01*
X32921143Y-44134851D01*
X32921364Y-44134669D01*
X32926332Y-44140674D01*
X32975343Y-44186699D01*
X32978142Y-44189412D01*
X32997643Y-44208914D01*
X32997647Y-44208917D01*
X32997650Y-44208920D01*
X33000823Y-44211381D01*
X33009695Y-44218959D01*
X33041539Y-44248862D01*
X33059097Y-44258514D01*
X33075354Y-44269193D01*
X33091185Y-44281473D01*
X33120924Y-44294342D01*
X33131273Y-44298821D01*
X33141762Y-44303960D01*
X33159978Y-44313974D01*
X33180029Y-44324997D01*
X33192644Y-44328235D01*
X33199426Y-44329977D01*
X33217840Y-44336281D01*
X33236225Y-44344238D01*
X33279382Y-44351073D01*
X33290777Y-44353432D01*
X33333102Y-44364300D01*
X33353137Y-44364300D01*
X33372534Y-44365826D01*
X33392317Y-44368960D01*
X33435796Y-44364850D01*
X33447465Y-44364300D01*
X36185994Y-44364300D01*
X36253033Y-44383985D01*
X36298788Y-44436789D01*
X36308732Y-44505947D01*
X36301823Y-44529887D01*
X36302387Y-44530071D01*
X36245870Y-44704013D01*
X36241884Y-44716280D01*
X36222098Y-44904536D01*
X36241884Y-45092792D01*
X36241885Y-45092795D01*
X36300376Y-45272813D01*
X36300379Y-45272820D01*
X36395025Y-45436752D01*
X36456724Y-45505275D01*
X36521687Y-45577424D01*
X36674823Y-45688684D01*
X36674828Y-45688687D01*
X36847750Y-45765678D01*
X36847755Y-45765680D01*
X37032912Y-45805036D01*
X37092106Y-45805036D01*
X37159145Y-45824721D01*
X37179787Y-45841355D01*
X37603281Y-46264849D01*
X37636766Y-46326172D01*
X37639600Y-46352530D01*
X37639600Y-46686888D01*
X37619915Y-46753927D01*
X37567111Y-46799682D01*
X37528855Y-46810178D01*
X37471816Y-46816310D01*
X37336971Y-46866603D01*
X37336964Y-46866607D01*
X37221755Y-46952853D01*
X37221752Y-46952856D01*
X37135506Y-47068065D01*
X37135502Y-47068072D01*
X37100764Y-47161212D01*
X37085209Y-47202918D01*
X37078800Y-47262528D01*
X37078800Y-47262535D01*
X37078800Y-47262536D01*
X37078800Y-47815470D01*
X37078801Y-47815481D01*
X37082844Y-47853093D01*
X37082844Y-47879596D01*
X37079300Y-47912564D01*
X37079300Y-47960399D01*
X37097152Y-47978251D01*
X37103393Y-47980084D01*
X37135620Y-48010087D01*
X37169654Y-48055551D01*
X37172033Y-48058728D01*
X37196450Y-48124192D01*
X37181599Y-48192465D01*
X37132194Y-48241871D01*
X37107366Y-48252114D01*
X37078913Y-48260381D01*
X37078910Y-48260382D01*
X37061666Y-48270580D01*
X37044205Y-48279134D01*
X37025574Y-48286511D01*
X37025562Y-48286518D01*
X36990233Y-48312186D01*
X36980473Y-48318597D01*
X36942880Y-48340830D01*
X36928714Y-48354996D01*
X36913924Y-48367628D01*
X36897714Y-48379405D01*
X36897711Y-48379408D01*
X36869873Y-48413059D01*
X36862011Y-48421698D01*
X36192208Y-49091500D01*
X36179951Y-49101321D01*
X36180134Y-49101542D01*
X36174122Y-49106515D01*
X36128098Y-49155524D01*
X36125391Y-49158317D01*
X36105889Y-49177818D01*
X36105875Y-49177835D01*
X36103407Y-49181016D01*
X36095843Y-49189871D01*
X36065937Y-49221719D01*
X36065936Y-49221721D01*
X36056284Y-49239277D01*
X36045610Y-49255527D01*
X36033329Y-49271362D01*
X36033324Y-49271369D01*
X36015975Y-49311459D01*
X36010838Y-49321945D01*
X35989803Y-49360207D01*
X35984822Y-49379608D01*
X35978521Y-49398011D01*
X35970562Y-49416403D01*
X35970561Y-49416406D01*
X35963728Y-49459544D01*
X35961360Y-49470975D01*
X35950501Y-49513272D01*
X35950500Y-49513283D01*
X35950500Y-49533317D01*
X35948973Y-49552716D01*
X35945840Y-49572495D01*
X35945840Y-49572496D01*
X35949950Y-49615975D01*
X35950500Y-49627644D01*
X35950500Y-50281060D01*
X35930815Y-50348099D01*
X35878011Y-50393854D01*
X35808853Y-50403798D01*
X35800720Y-50402351D01*
X35705446Y-50382100D01*
X35631200Y-50382100D01*
X35564161Y-50362415D01*
X35518406Y-50309611D01*
X35507200Y-50258100D01*
X35507200Y-48346741D01*
X35508924Y-48331121D01*
X35508639Y-48331095D01*
X35509371Y-48323339D01*
X35509373Y-48323332D01*
X35507261Y-48256125D01*
X35507200Y-48252230D01*
X35507200Y-48224653D01*
X35507200Y-48224649D01*
X35506696Y-48220664D01*
X35505780Y-48209020D01*
X35505397Y-48196834D01*
X35504409Y-48165372D01*
X35498822Y-48146143D01*
X35494874Y-48127083D01*
X35494786Y-48126384D01*
X35492364Y-48107207D01*
X35492363Y-48107205D01*
X35492363Y-48107203D01*
X35476288Y-48066603D01*
X35472504Y-48055551D01*
X35460318Y-48013608D01*
X35460316Y-48013605D01*
X35450123Y-47996370D01*
X35441561Y-47978893D01*
X35434187Y-47960268D01*
X35408515Y-47924934D01*
X35402101Y-47915170D01*
X35400569Y-47912579D01*
X35379870Y-47877579D01*
X35365702Y-47863410D01*
X35353077Y-47848629D01*
X35341294Y-47832412D01*
X35341291Y-47832409D01*
X35341290Y-47832408D01*
X35314183Y-47809984D01*
X35298543Y-47792237D01*
X35297460Y-47793134D01*
X35292488Y-47787124D01*
X35277624Y-47773166D01*
X35243473Y-47741095D01*
X35240676Y-47738384D01*
X35221177Y-47718884D01*
X35221171Y-47718879D01*
X35217986Y-47716408D01*
X35209134Y-47708847D01*
X35177282Y-47678937D01*
X35177280Y-47678935D01*
X35177277Y-47678934D01*
X35159729Y-47669287D01*
X35143463Y-47658603D01*
X35127632Y-47646323D01*
X35087549Y-47628977D01*
X35077063Y-47623840D01*
X35038794Y-47602802D01*
X35038792Y-47602801D01*
X35019393Y-47597821D01*
X35000981Y-47591517D01*
X34982598Y-47583561D01*
X34982592Y-47583559D01*
X34939460Y-47576728D01*
X34928022Y-47574360D01*
X34885720Y-47563499D01*
X34885719Y-47563499D01*
X34865684Y-47563499D01*
X34846286Y-47561972D01*
X34838862Y-47560796D01*
X34826505Y-47558839D01*
X34826503Y-47558838D01*
X34792867Y-47562018D01*
X34724272Y-47548729D01*
X34673752Y-47500464D01*
X34657199Y-47438569D01*
X34657199Y-47304751D01*
X34676884Y-47237713D01*
X34693518Y-47217071D01*
X34842518Y-47068072D01*
X34999771Y-46910819D01*
X35061094Y-46877334D01*
X35087452Y-46874500D01*
X35146644Y-46874500D01*
X35146646Y-46874500D01*
X35331803Y-46835144D01*
X35504730Y-46758151D01*
X35657871Y-46646888D01*
X35784533Y-46506216D01*
X35879179Y-46342284D01*
X35937674Y-46162256D01*
X35957460Y-45974000D01*
X35937674Y-45785744D01*
X35879179Y-45605716D01*
X35784533Y-45441784D01*
X35657871Y-45301112D01*
X35657870Y-45301111D01*
X35504734Y-45189851D01*
X35504729Y-45189848D01*
X35331807Y-45112857D01*
X35331802Y-45112855D01*
X35186001Y-45081865D01*
X35146646Y-45073500D01*
X34957354Y-45073500D01*
X34924897Y-45080398D01*
X34772197Y-45112855D01*
X34772192Y-45112857D01*
X34599270Y-45189848D01*
X34599265Y-45189851D01*
X34446129Y-45301111D01*
X34319466Y-45441785D01*
X34224821Y-45605715D01*
X34224818Y-45605722D01*
X34172845Y-45765680D01*
X34166326Y-45785744D01*
X34152757Y-45914845D01*
X34148679Y-45953649D01*
X34122094Y-46018263D01*
X34113039Y-46028368D01*
X33487108Y-46654299D01*
X33474851Y-46664120D01*
X33475034Y-46664341D01*
X33469022Y-46669314D01*
X33422998Y-46718323D01*
X33420291Y-46721116D01*
X33400789Y-46740617D01*
X33400775Y-46740634D01*
X33398307Y-46743815D01*
X33390743Y-46752670D01*
X33360837Y-46784518D01*
X33360836Y-46784520D01*
X33351184Y-46802076D01*
X33340510Y-46818326D01*
X33328229Y-46834161D01*
X33328224Y-46834168D01*
X33310875Y-46874258D01*
X33305738Y-46884744D01*
X33284703Y-46923006D01*
X33279722Y-46942407D01*
X33273421Y-46960810D01*
X33265462Y-46979202D01*
X33265461Y-46979205D01*
X33258628Y-47022343D01*
X33256260Y-47033774D01*
X33245401Y-47076071D01*
X33245400Y-47076082D01*
X33245400Y-47094173D01*
X33225715Y-47161212D01*
X33172911Y-47206967D01*
X33146288Y-47215565D01*
X33145888Y-47215731D01*
X33112642Y-47237943D01*
X33090432Y-47271186D01*
X33090429Y-47271192D01*
X33084600Y-47300499D01*
X33084601Y-47439498D01*
X33064917Y-47506538D01*
X33012113Y-47552293D01*
X32960601Y-47563499D01*
X29285153Y-47563499D01*
X29218114Y-47543814D01*
X29197472Y-47527180D01*
X28409918Y-46739626D01*
X28376433Y-46678303D01*
X28373599Y-46651945D01*
X28373599Y-46568230D01*
X28373598Y-46568205D01*
X28373317Y-46564635D01*
X28370765Y-46532195D01*
X28325969Y-46378006D01*
X28244235Y-46239801D01*
X28244233Y-46239799D01*
X28244230Y-46239795D01*
X28130703Y-46126268D01*
X28130695Y-46126262D01*
X27992493Y-46044530D01*
X27992488Y-46044528D01*
X27838308Y-45999734D01*
X27838302Y-45999733D01*
X27802288Y-45996899D01*
X27802281Y-45996899D01*
X27718552Y-45996899D01*
X27651513Y-45977214D01*
X27630871Y-45960580D01*
X27368957Y-45698665D01*
X27335472Y-45637342D01*
X27340456Y-45567650D01*
X27382328Y-45511717D01*
X27399597Y-45505275D01*
X27438000Y-45476442D01*
X27438000Y-44924006D01*
X27438382Y-44914277D01*
X27438435Y-44913598D01*
X27938000Y-44913598D01*
X27938000Y-45476441D01*
X28077194Y-45436002D01*
X28215285Y-45354336D01*
X28215294Y-45354329D01*
X28328731Y-45240892D01*
X28328738Y-45240883D01*
X28410406Y-45102789D01*
X28410407Y-45102786D01*
X28455166Y-44948726D01*
X28455167Y-44948720D01*
X28457931Y-44913598D01*
X27938000Y-44913598D01*
X27438435Y-44913598D01*
X27438500Y-44912779D01*
X27438499Y-44414418D01*
X27438434Y-44413598D01*
X27938000Y-44413598D01*
X28457931Y-44413598D01*
X28455167Y-44378475D01*
X28455166Y-44378469D01*
X28410407Y-44224409D01*
X28410406Y-44224406D01*
X28328738Y-44086312D01*
X28328731Y-44086303D01*
X28215294Y-43972866D01*
X28215285Y-43972859D01*
X28077191Y-43891191D01*
X28077188Y-43891189D01*
X27938001Y-43850751D01*
X27938000Y-43850752D01*
X27938000Y-44413598D01*
X27438434Y-44413598D01*
X27438382Y-44412930D01*
X27438000Y-44403205D01*
X27438000Y-43850752D01*
X27437998Y-43850751D01*
X27298811Y-43891189D01*
X27298810Y-43891190D01*
X27241611Y-43925017D01*
X27173886Y-43942198D01*
X27115371Y-43925017D01*
X27087293Y-43908412D01*
X27057393Y-43890729D01*
X27057392Y-43890728D01*
X27057391Y-43890728D01*
X27057388Y-43890727D01*
X26903208Y-43845933D01*
X26903202Y-43845932D01*
X26867188Y-43843098D01*
X26867181Y-43843098D01*
X26783453Y-43843098D01*
X26716414Y-43823413D01*
X26695772Y-43806779D01*
X26564819Y-43675826D01*
X26553993Y-43656000D01*
X28405496Y-43656000D01*
X28447968Y-43802195D01*
X28530278Y-43941374D01*
X28530285Y-43941383D01*
X28644616Y-44055714D01*
X28644625Y-44055721D01*
X28783804Y-44138031D01*
X28939089Y-44183145D01*
X28960000Y-44184789D01*
X28960000Y-43656000D01*
X29460000Y-43656000D01*
X29460000Y-44184789D01*
X29480910Y-44183145D01*
X29636195Y-44138031D01*
X29775374Y-44055721D01*
X29775383Y-44055714D01*
X29889714Y-43941383D01*
X29889721Y-43941374D01*
X29972031Y-43802195D01*
X30014504Y-43656000D01*
X29460000Y-43656000D01*
X28960000Y-43656000D01*
X28405496Y-43656000D01*
X26553993Y-43656000D01*
X26531334Y-43614503D01*
X26528500Y-43588145D01*
X26528500Y-42169226D01*
X26548185Y-42102187D01*
X26581374Y-42067654D01*
X26774401Y-41932495D01*
X26941495Y-41765401D01*
X27076652Y-41572377D01*
X27131229Y-41528752D01*
X27178227Y-41519500D01*
X27696857Y-41519500D01*
X27763896Y-41539185D01*
X27809651Y-41591989D01*
X27820796Y-41639604D01*
X27822439Y-41691871D01*
X27822500Y-41695767D01*
X27822500Y-41723357D01*
X27823003Y-41727335D01*
X27823918Y-41738967D01*
X27825290Y-41782624D01*
X27825291Y-41782627D01*
X27830880Y-41801867D01*
X27834824Y-41820911D01*
X27837336Y-41840792D01*
X27853414Y-41881403D01*
X27857197Y-41892452D01*
X27869381Y-41934388D01*
X27879580Y-41951634D01*
X27888138Y-41969103D01*
X27895514Y-41987732D01*
X27921181Y-42023060D01*
X27927593Y-42032821D01*
X27949828Y-42070417D01*
X27949833Y-42070424D01*
X27963990Y-42084580D01*
X27976627Y-42099375D01*
X27988406Y-42115587D01*
X28019362Y-42141196D01*
X28022057Y-42143425D01*
X28030698Y-42151288D01*
X28363181Y-42483771D01*
X28396666Y-42545094D01*
X28399500Y-42571452D01*
X28399500Y-42650697D01*
X28402356Y-42686991D01*
X28402357Y-42686997D01*
X28447504Y-42842390D01*
X28447507Y-42842397D01*
X28459910Y-42863370D01*
X28477093Y-42931094D01*
X28459912Y-42989608D01*
X28447968Y-43009804D01*
X28405496Y-43156000D01*
X28711648Y-43156000D01*
X28774766Y-43173267D01*
X28783605Y-43178494D01*
X28783608Y-43178494D01*
X28783610Y-43178496D01*
X28939002Y-43223642D01*
X28939005Y-43223642D01*
X28939007Y-43223643D01*
X28975310Y-43226500D01*
X28975318Y-43226500D01*
X29444682Y-43226500D01*
X29444690Y-43226500D01*
X29480993Y-43223643D01*
X29480995Y-43223642D01*
X29480997Y-43223642D01*
X29636389Y-43178496D01*
X29636389Y-43178495D01*
X29636395Y-43178494D01*
X29645233Y-43173267D01*
X29708352Y-43156000D01*
X30014504Y-43156000D01*
X29972031Y-43009803D01*
X29960090Y-42989613D01*
X29942906Y-42921889D01*
X29960089Y-42863369D01*
X29972494Y-42842395D01*
X30017643Y-42686993D01*
X30020500Y-42650690D01*
X30020500Y-42241310D01*
X30017643Y-42205007D01*
X30012472Y-42187210D01*
X29982000Y-42082324D01*
X29972494Y-42049605D01*
X29890117Y-41910313D01*
X29890115Y-41910311D01*
X29890112Y-41910307D01*
X29775692Y-41795887D01*
X29775684Y-41795881D01*
X29662677Y-41729049D01*
X29636395Y-41713506D01*
X29636394Y-41713505D01*
X29636393Y-41713505D01*
X29636390Y-41713504D01*
X29480997Y-41668357D01*
X29480991Y-41668356D01*
X29444697Y-41665500D01*
X29444690Y-41665500D01*
X29365452Y-41665500D01*
X29298413Y-41645815D01*
X29277775Y-41629185D01*
X29109816Y-41461226D01*
X29076334Y-41399905D01*
X29073500Y-41373547D01*
X29073500Y-41135500D01*
X29093185Y-41068461D01*
X29145989Y-41022706D01*
X29197500Y-41011500D01*
X29542850Y-41011500D01*
X29609889Y-41031185D01*
G37*
G04 #@! TD.AperFunction*
G04 #@! TA.AperFunction,Conductor*
G36*
X25732508Y-47716271D02*
G01*
X25788441Y-47758143D01*
X25812858Y-47823607D01*
X25812810Y-47837011D01*
X25813168Y-47837399D01*
X26708600Y-47837399D01*
X26775639Y-47857084D01*
X26821394Y-47909888D01*
X26832600Y-47961399D01*
X26832600Y-48336569D01*
X26832601Y-48336581D01*
X26832718Y-48338062D01*
X26833100Y-48347792D01*
X26833100Y-48900243D01*
X26972294Y-48859804D01*
X26972296Y-48859803D01*
X27029486Y-48825981D01*
X27097209Y-48808797D01*
X27155729Y-48825980D01*
X27213707Y-48860268D01*
X27254368Y-48872081D01*
X27367891Y-48905063D01*
X27367894Y-48905063D01*
X27367896Y-48905064D01*
X27403919Y-48907899D01*
X27487647Y-48907898D01*
X27554685Y-48927582D01*
X27575328Y-48944217D01*
X27853896Y-49222785D01*
X27863721Y-49235049D01*
X27863942Y-49234867D01*
X27868912Y-49240875D01*
X27917941Y-49286916D01*
X27920738Y-49289627D01*
X27940232Y-49309121D01*
X27943397Y-49311576D01*
X27952273Y-49319157D01*
X27984120Y-49349063D01*
X27984124Y-49349065D01*
X28001675Y-49358714D01*
X28017933Y-49369393D01*
X28033766Y-49381675D01*
X28050833Y-49389060D01*
X28073857Y-49399023D01*
X28084337Y-49404156D01*
X28122610Y-49425198D01*
X28142014Y-49430180D01*
X28160412Y-49436479D01*
X28178807Y-49444439D01*
X28221956Y-49451272D01*
X28233382Y-49453639D01*
X28275683Y-49464501D01*
X28295718Y-49464501D01*
X28315115Y-49466027D01*
X28334898Y-49469161D01*
X28378377Y-49465051D01*
X28390046Y-49464501D01*
X29132045Y-49464501D01*
X29199084Y-49484186D01*
X29244839Y-49536990D01*
X29254783Y-49606148D01*
X29225758Y-49669704D01*
X29219726Y-49676182D01*
X28829790Y-50066116D01*
X28789657Y-50089868D01*
X28790758Y-50092411D01*
X28783602Y-50095507D01*
X28637598Y-50181854D01*
X28636624Y-50180208D01*
X28581085Y-50202014D01*
X28570122Y-50202500D01*
X27309249Y-50202500D01*
X27242210Y-50182815D01*
X27196455Y-50130011D01*
X27189474Y-50110592D01*
X27181906Y-50082346D01*
X27181904Y-50082342D01*
X27181903Y-50082337D01*
X27082035Y-49868171D01*
X26947604Y-49676182D01*
X26946494Y-49674597D01*
X26779402Y-49507506D01*
X26779395Y-49507501D01*
X26757137Y-49491916D01*
X26719153Y-49465319D01*
X26585834Y-49371967D01*
X26585830Y-49371965D01*
X26536721Y-49349065D01*
X26371663Y-49272097D01*
X26371659Y-49272096D01*
X26371655Y-49272094D01*
X26143413Y-49210938D01*
X26143403Y-49210936D01*
X25908001Y-49190341D01*
X25907999Y-49190341D01*
X25672596Y-49210936D01*
X25672586Y-49210938D01*
X25444344Y-49272094D01*
X25444335Y-49272098D01*
X25230171Y-49371964D01*
X25230169Y-49371965D01*
X25036600Y-49507503D01*
X24914673Y-49629430D01*
X24853350Y-49662914D01*
X24783658Y-49657930D01*
X24727725Y-49616058D01*
X24710810Y-49585081D01*
X24661797Y-49453671D01*
X24661793Y-49453664D01*
X24575547Y-49338455D01*
X24575544Y-49338452D01*
X24460335Y-49252206D01*
X24460330Y-49252203D01*
X24374343Y-49220132D01*
X24318410Y-49178260D01*
X24293993Y-49112796D01*
X24308845Y-49044523D01*
X24329993Y-49016272D01*
X25008866Y-48337399D01*
X25813169Y-48337399D01*
X25815932Y-48372521D01*
X25815933Y-48372527D01*
X25860692Y-48526587D01*
X25860693Y-48526590D01*
X25942361Y-48664684D01*
X25942368Y-48664693D01*
X26055805Y-48778130D01*
X26055814Y-48778137D01*
X26193905Y-48859803D01*
X26333100Y-48900243D01*
X26333100Y-48337399D01*
X25813169Y-48337399D01*
X25008866Y-48337399D01*
X25601495Y-47744770D01*
X25662816Y-47711287D01*
X25732508Y-47716271D01*
G37*
G04 #@! TD.AperFunction*
G04 #@! TA.AperFunction,Conductor*
G36*
X42479387Y-44383985D02*
G01*
X42500028Y-44400618D01*
X43606289Y-45506880D01*
X44711197Y-46611788D01*
X44721022Y-46624051D01*
X44721243Y-46623869D01*
X44726210Y-46629874D01*
X44744329Y-46646888D01*
X44752220Y-46654299D01*
X44755998Y-46657846D01*
X44791393Y-46718087D01*
X44788601Y-46787901D01*
X44748507Y-46845122D01*
X44683842Y-46871584D01*
X44675011Y-46872178D01*
X44625032Y-46873749D01*
X44622202Y-46873838D01*
X44618310Y-46873899D01*
X44590741Y-46873899D01*
X44586764Y-46874401D01*
X44575133Y-46875316D01*
X44531465Y-46876688D01*
X44531459Y-46876689D01*
X44512217Y-46882279D01*
X44493178Y-46886222D01*
X44473308Y-46888733D01*
X44473294Y-46888736D01*
X44432689Y-46904812D01*
X44421645Y-46908593D01*
X44379705Y-46920778D01*
X44379701Y-46920780D01*
X44362457Y-46930978D01*
X44344996Y-46939532D01*
X44326365Y-46946909D01*
X44326353Y-46946916D01*
X44291024Y-46972584D01*
X44281264Y-46978995D01*
X44243671Y-47001228D01*
X44229505Y-47015394D01*
X44214715Y-47028026D01*
X44198505Y-47039803D01*
X44198499Y-47039809D01*
X44170665Y-47073455D01*
X44162804Y-47082095D01*
X44008970Y-47235929D01*
X44008966Y-47235933D01*
X43505217Y-47739681D01*
X43443894Y-47773166D01*
X43417536Y-47776000D01*
X43170352Y-47776000D01*
X43107233Y-47758732D01*
X43098395Y-47753506D01*
X43098393Y-47753505D01*
X43098389Y-47753503D01*
X42942997Y-47708357D01*
X42942991Y-47708356D01*
X42906697Y-47705500D01*
X42906690Y-47705500D01*
X42437310Y-47705500D01*
X42437302Y-47705500D01*
X42401008Y-47708356D01*
X42401005Y-47708357D01*
X42342835Y-47725257D01*
X42324528Y-47730576D01*
X42289934Y-47735500D01*
X41022066Y-47735500D01*
X40987471Y-47730576D01*
X40938233Y-47716271D01*
X40910994Y-47708357D01*
X40910991Y-47708356D01*
X40874697Y-47705500D01*
X40874690Y-47705500D01*
X40405310Y-47705500D01*
X40405302Y-47705500D01*
X40369008Y-47708356D01*
X40369002Y-47708357D01*
X40213610Y-47753503D01*
X40213605Y-47753506D01*
X40204766Y-47758732D01*
X40141648Y-47776000D01*
X39835496Y-47776000D01*
X39877968Y-47922194D01*
X39889911Y-47942389D01*
X39907092Y-48010113D01*
X39889911Y-48068628D01*
X39877506Y-48089604D01*
X39877504Y-48089607D01*
X39846452Y-48196489D01*
X39815057Y-48249574D01*
X39636647Y-48427984D01*
X39575324Y-48461469D01*
X39505632Y-48456485D01*
X39461285Y-48427984D01*
X39450900Y-48417599D01*
X39290338Y-48417599D01*
X39223299Y-48397914D01*
X39177544Y-48345110D01*
X39167600Y-48275952D01*
X39196625Y-48212396D01*
X39216026Y-48194333D01*
X39236093Y-48179309D01*
X39308446Y-48125147D01*
X39356346Y-48061161D01*
X39394580Y-48010088D01*
X39420955Y-47990343D01*
X39450900Y-47960399D01*
X39450900Y-47912579D01*
X39450899Y-47912565D01*
X39447355Y-47879603D01*
X39447355Y-47853093D01*
X39451400Y-47815474D01*
X39451399Y-47276000D01*
X39835496Y-47276000D01*
X40390000Y-47276000D01*
X40390000Y-46747210D01*
X40389999Y-46747209D01*
X40890000Y-46747209D01*
X40890000Y-47276000D01*
X41444504Y-47276000D01*
X41867496Y-47276000D01*
X42422000Y-47276000D01*
X42422000Y-46747210D01*
X42421999Y-46747209D01*
X42922000Y-46747209D01*
X42922000Y-47276000D01*
X43476504Y-47276000D01*
X43434031Y-47129804D01*
X43351721Y-46990625D01*
X43351714Y-46990616D01*
X43237383Y-46876285D01*
X43237374Y-46876278D01*
X43098195Y-46793968D01*
X43098190Y-46793966D01*
X42942918Y-46748855D01*
X42942912Y-46748854D01*
X42922000Y-46747209D01*
X42421999Y-46747209D01*
X42401087Y-46748854D01*
X42401081Y-46748855D01*
X42245809Y-46793966D01*
X42245804Y-46793968D01*
X42106625Y-46876278D01*
X42106616Y-46876285D01*
X41992285Y-46990616D01*
X41992278Y-46990625D01*
X41909968Y-47129804D01*
X41867496Y-47276000D01*
X41444504Y-47276000D01*
X41402031Y-47129804D01*
X41319721Y-46990625D01*
X41319714Y-46990616D01*
X41205383Y-46876285D01*
X41205374Y-46876278D01*
X41066195Y-46793968D01*
X41066190Y-46793966D01*
X40910918Y-46748855D01*
X40910912Y-46748854D01*
X40890000Y-46747209D01*
X40389999Y-46747209D01*
X40369087Y-46748854D01*
X40369081Y-46748855D01*
X40213809Y-46793966D01*
X40213804Y-46793968D01*
X40074625Y-46876278D01*
X40074616Y-46876285D01*
X39960285Y-46990616D01*
X39960278Y-46990625D01*
X39877968Y-47129804D01*
X39835496Y-47276000D01*
X39451399Y-47276000D01*
X39451399Y-47262529D01*
X39444991Y-47202918D01*
X39417721Y-47129804D01*
X39394697Y-47068072D01*
X39394693Y-47068065D01*
X39308447Y-46952856D01*
X39308444Y-46952853D01*
X39193235Y-46866607D01*
X39193228Y-46866603D01*
X39058382Y-46816309D01*
X39058384Y-46816309D01*
X39001344Y-46810177D01*
X38936793Y-46783439D01*
X38896945Y-46726046D01*
X38890600Y-46686888D01*
X38890600Y-46124815D01*
X38892324Y-46109201D01*
X38892038Y-46109174D01*
X38892772Y-46101411D01*
X38890661Y-46034222D01*
X38890600Y-46030328D01*
X38890600Y-46002729D01*
X38890600Y-46002728D01*
X38890097Y-45998748D01*
X38889180Y-45987099D01*
X38887809Y-45943451D01*
X38882221Y-45924217D01*
X38878274Y-45905159D01*
X38875764Y-45885286D01*
X38875763Y-45885283D01*
X38859683Y-45844670D01*
X38855899Y-45833617D01*
X38843718Y-45791693D01*
X38843717Y-45791688D01*
X38833520Y-45774446D01*
X38824963Y-45756980D01*
X38817586Y-45738346D01*
X38791909Y-45703004D01*
X38785512Y-45693268D01*
X38763270Y-45655657D01*
X38763267Y-45655654D01*
X38763265Y-45655651D01*
X38749105Y-45641491D01*
X38736470Y-45626698D01*
X38724693Y-45610490D01*
X38691045Y-45582654D01*
X38682404Y-45574791D01*
X38066518Y-44958905D01*
X38033033Y-44897582D01*
X38030881Y-44884204D01*
X38013232Y-44716280D01*
X37962446Y-44559978D01*
X37952729Y-44530071D01*
X37954603Y-44529462D01*
X37946555Y-44469504D01*
X37976174Y-44406223D01*
X38035303Y-44369001D01*
X38069122Y-44364300D01*
X42412348Y-44364300D01*
X42479387Y-44383985D01*
G37*
G04 #@! TD.AperFunction*
G04 #@! TA.AperFunction,Conductor*
G36*
X38804236Y-41398714D02*
G01*
X38842476Y-41457190D01*
X38847102Y-41480107D01*
X38848110Y-41489700D01*
X38855526Y-41560256D01*
X38855527Y-41560259D01*
X38914018Y-41740277D01*
X38914021Y-41740284D01*
X39008667Y-41904216D01*
X39115675Y-42023060D01*
X39135329Y-42044888D01*
X39288465Y-42156148D01*
X39288470Y-42156151D01*
X39461392Y-42233142D01*
X39461393Y-42233142D01*
X39461397Y-42233144D01*
X39489730Y-42239166D01*
X39551210Y-42272357D01*
X39584988Y-42333519D01*
X39581884Y-42398761D01*
X39580529Y-42402932D01*
X39580526Y-42402943D01*
X39575140Y-42454189D01*
X39560740Y-42591200D01*
X39580526Y-42779456D01*
X39580527Y-42779459D01*
X39636258Y-42950982D01*
X39638253Y-43020823D01*
X39602173Y-43080656D01*
X39539472Y-43111484D01*
X39518327Y-43113300D01*
X35709263Y-43113300D01*
X35642224Y-43093615D01*
X35596469Y-43040811D01*
X35586525Y-42971653D01*
X35590186Y-42954706D01*
X35610844Y-42883598D01*
X33985156Y-42883598D01*
X34005814Y-42954706D01*
X34005614Y-43024575D01*
X33967671Y-43083245D01*
X33904033Y-43112088D01*
X33886737Y-43113300D01*
X33722573Y-43113300D01*
X33655534Y-43093615D01*
X33634897Y-43076985D01*
X33529417Y-42971505D01*
X33495934Y-42910184D01*
X33493100Y-42883826D01*
X33493100Y-41609401D01*
X33512785Y-41542362D01*
X33565589Y-41496607D01*
X33634747Y-41486663D01*
X33642868Y-41488108D01*
X33650354Y-41489700D01*
X33738150Y-41489700D01*
X33805189Y-41509385D01*
X33825831Y-41526019D01*
X33941181Y-41641369D01*
X33974666Y-41702692D01*
X33977500Y-41729049D01*
X33977500Y-41812766D01*
X33977501Y-41812790D01*
X33980335Y-41848803D01*
X34025129Y-42002986D01*
X34025130Y-42002989D01*
X34059419Y-42060969D01*
X34076601Y-42128693D01*
X34059419Y-42187209D01*
X34025594Y-42244404D01*
X33985156Y-42383598D01*
X34537591Y-42383598D01*
X34547318Y-42383980D01*
X34547516Y-42383995D01*
X34548819Y-42384098D01*
X35047180Y-42384097D01*
X35047193Y-42384096D01*
X35048668Y-42383980D01*
X35058393Y-42383598D01*
X35610844Y-42383598D01*
X35570404Y-42244403D01*
X35536581Y-42187210D01*
X35519398Y-42119486D01*
X35536582Y-42060967D01*
X35543301Y-42049606D01*
X35570869Y-42002991D01*
X35596593Y-41914450D01*
X35615664Y-41848806D01*
X35615664Y-41848804D01*
X35615665Y-41848802D01*
X35618500Y-41812779D01*
X35618499Y-41589531D01*
X35638183Y-41522493D01*
X35690987Y-41476738D01*
X35760145Y-41466794D01*
X35777095Y-41470456D01*
X35797007Y-41476241D01*
X35833310Y-41479098D01*
X35833318Y-41479098D01*
X36302682Y-41479098D01*
X36302690Y-41479098D01*
X36338993Y-41476241D01*
X36415471Y-41454021D01*
X36450066Y-41449098D01*
X36955934Y-41449098D01*
X36990528Y-41454021D01*
X37067007Y-41476241D01*
X37103310Y-41479098D01*
X37103318Y-41479098D01*
X37572682Y-41479098D01*
X37572690Y-41479098D01*
X37608993Y-41476241D01*
X37685471Y-41454021D01*
X37720066Y-41449098D01*
X38282497Y-41449098D01*
X38300467Y-41450407D01*
X38324225Y-41453887D01*
X38373571Y-41449569D01*
X38384378Y-41449098D01*
X38389906Y-41449098D01*
X38389911Y-41449098D01*
X38420758Y-41445491D01*
X38424232Y-41445137D01*
X38498999Y-41438597D01*
X38499007Y-41438594D01*
X38506068Y-41437137D01*
X38506080Y-41437196D01*
X38513445Y-41435563D01*
X38513431Y-41435504D01*
X38520451Y-41433839D01*
X38520457Y-41433839D01*
X38590981Y-41408170D01*
X38594319Y-41407010D01*
X38665536Y-41383412D01*
X38665545Y-41383406D01*
X38671374Y-41380689D01*
X38740451Y-41370196D01*
X38804236Y-41398714D01*
G37*
G04 #@! TD.AperFunction*
G04 #@! TA.AperFunction,Conductor*
G36*
X44419301Y-38269584D02*
G01*
X44465056Y-38322388D01*
X44475000Y-38391546D01*
X44458995Y-38437019D01*
X44439130Y-38470608D01*
X44439129Y-38470611D01*
X44394335Y-38624791D01*
X44394334Y-38624797D01*
X44391500Y-38660811D01*
X44391500Y-39059169D01*
X44391501Y-39059191D01*
X44394335Y-39095205D01*
X44439129Y-39249388D01*
X44439130Y-39249391D01*
X44439131Y-39249393D01*
X44472351Y-39305565D01*
X44473419Y-39307371D01*
X44490601Y-39375095D01*
X44473419Y-39433611D01*
X44439594Y-39490806D01*
X44399156Y-39630000D01*
X44951591Y-39630000D01*
X44961318Y-39630382D01*
X44961516Y-39630397D01*
X44962819Y-39630500D01*
X45461180Y-39630499D01*
X45461193Y-39630498D01*
X45462668Y-39630382D01*
X45472393Y-39630000D01*
X46024845Y-39630000D01*
X46028995Y-39624470D01*
X46029139Y-39574225D01*
X46067081Y-39515555D01*
X46130720Y-39486712D01*
X46148016Y-39485500D01*
X46149257Y-39485500D01*
X46164877Y-39487224D01*
X46164904Y-39486939D01*
X46172660Y-39487671D01*
X46172667Y-39487673D01*
X46239873Y-39485561D01*
X46243768Y-39485500D01*
X46271346Y-39485500D01*
X46271350Y-39485500D01*
X46275324Y-39484997D01*
X46286963Y-39484080D01*
X46330627Y-39482709D01*
X46349869Y-39477117D01*
X46368912Y-39473174D01*
X46388792Y-39470664D01*
X46429401Y-39454585D01*
X46440444Y-39450803D01*
X46482390Y-39438618D01*
X46499629Y-39428422D01*
X46517103Y-39419862D01*
X46535727Y-39412488D01*
X46535727Y-39412487D01*
X46535732Y-39412486D01*
X46571083Y-39386800D01*
X46580814Y-39380408D01*
X46618420Y-39358170D01*
X46632589Y-39343999D01*
X46647379Y-39331368D01*
X46663587Y-39319594D01*
X46691437Y-39285927D01*
X46699284Y-39277305D01*
X46706776Y-39269812D01*
X46768101Y-39236332D01*
X46794451Y-39233500D01*
X47019093Y-39233500D01*
X47086132Y-39253185D01*
X47131887Y-39305989D01*
X47135276Y-39314170D01*
X47141578Y-39331068D01*
X47146560Y-39400760D01*
X47141577Y-39417730D01*
X47113909Y-39491913D01*
X47113908Y-39491915D01*
X47107674Y-39549908D01*
X47107501Y-39551522D01*
X47107500Y-39551534D01*
X47107500Y-40447269D01*
X47107501Y-40447275D01*
X47113908Y-40506882D01*
X47140869Y-40579168D01*
X47145853Y-40648860D01*
X47112367Y-40710182D01*
X47051044Y-40743667D01*
X47024687Y-40746500D01*
X45860410Y-40746500D01*
X45793371Y-40726815D01*
X45747616Y-40674011D01*
X45737672Y-40604853D01*
X45766697Y-40541297D01*
X45784413Y-40524518D01*
X45789293Y-40520732D01*
X45902731Y-40407294D01*
X45902738Y-40407285D01*
X45984404Y-40269194D01*
X46024844Y-40130000D01*
X44399156Y-40130000D01*
X44439595Y-40269194D01*
X44521261Y-40407285D01*
X44521268Y-40407294D01*
X44634706Y-40520732D01*
X44639587Y-40524518D01*
X44680496Y-40581160D01*
X44684288Y-40650926D01*
X44649759Y-40711668D01*
X44587872Y-40744099D01*
X44563590Y-40746500D01*
X44479069Y-40746500D01*
X44412030Y-40726815D01*
X44386921Y-40705474D01*
X44381194Y-40699114D01*
X44381190Y-40699110D01*
X44228055Y-40587851D01*
X44228050Y-40587848D01*
X44055128Y-40510857D01*
X44055123Y-40510855D01*
X43909322Y-40479865D01*
X43869967Y-40471500D01*
X43680675Y-40471500D01*
X43648218Y-40478398D01*
X43495518Y-40510855D01*
X43495513Y-40510857D01*
X43322591Y-40587848D01*
X43322586Y-40587851D01*
X43169451Y-40699110D01*
X43169447Y-40699114D01*
X43163721Y-40705474D01*
X43104234Y-40742121D01*
X43071573Y-40746500D01*
X40444948Y-40746500D01*
X40377909Y-40726815D01*
X40352800Y-40705474D01*
X40347073Y-40699114D01*
X40347069Y-40699110D01*
X40193934Y-40587851D01*
X40193929Y-40587848D01*
X40021007Y-40510857D01*
X40021002Y-40510855D01*
X39893321Y-40483716D01*
X39831839Y-40450524D01*
X39798063Y-40389360D01*
X39802715Y-40319646D01*
X39831419Y-40274747D01*
X41819949Y-38286218D01*
X41881272Y-38252733D01*
X41907630Y-38249899D01*
X44352262Y-38249899D01*
X44419301Y-38269584D01*
G37*
G04 #@! TD.AperFunction*
G04 #@! TA.AperFunction,Conductor*
G36*
X27737533Y-37346890D02*
G01*
X27793466Y-37388762D01*
X27817648Y-37451400D01*
X27821949Y-37496891D01*
X27822500Y-37508563D01*
X27822500Y-40075547D01*
X27802815Y-40142586D01*
X27786181Y-40163228D01*
X27717228Y-40232181D01*
X27655905Y-40265666D01*
X27629547Y-40268500D01*
X27178227Y-40268500D01*
X27111188Y-40248815D01*
X27076652Y-40215623D01*
X26941494Y-40022597D01*
X26774402Y-39855506D01*
X26774395Y-39855501D01*
X26580834Y-39719967D01*
X26580830Y-39719965D01*
X26562057Y-39711211D01*
X26366663Y-39620097D01*
X26366659Y-39620096D01*
X26366655Y-39620094D01*
X26138413Y-39558938D01*
X26138403Y-39558936D01*
X25903001Y-39538341D01*
X25902999Y-39538341D01*
X25667596Y-39558936D01*
X25667586Y-39558938D01*
X25439344Y-39620094D01*
X25439335Y-39620098D01*
X25225171Y-39719964D01*
X25225169Y-39719965D01*
X25031600Y-39855503D01*
X24909673Y-39977430D01*
X24848350Y-40010914D01*
X24778658Y-40005930D01*
X24722725Y-39964058D01*
X24705810Y-39933081D01*
X24656797Y-39801671D01*
X24656793Y-39801664D01*
X24570547Y-39686455D01*
X24570544Y-39686452D01*
X24455335Y-39600206D01*
X24455328Y-39600202D01*
X24320482Y-39549908D01*
X24320483Y-39549908D01*
X24260883Y-39543501D01*
X24260881Y-39543500D01*
X24260873Y-39543500D01*
X24260865Y-39543500D01*
X24237500Y-39543500D01*
X24170461Y-39523815D01*
X24124706Y-39471011D01*
X24113500Y-39419500D01*
X24113500Y-38849500D01*
X24133185Y-38782461D01*
X24185989Y-38736706D01*
X24237500Y-38725500D01*
X24332725Y-38725500D01*
X24399764Y-38745185D01*
X24420406Y-38761819D01*
X24449717Y-38791130D01*
X24449721Y-38791133D01*
X24449723Y-38791135D01*
X24587928Y-38872869D01*
X24587935Y-38872871D01*
X24742112Y-38917664D01*
X24742115Y-38917664D01*
X24742117Y-38917665D01*
X24778140Y-38920500D01*
X25176501Y-38920499D01*
X25212525Y-38917665D01*
X25366714Y-38872869D01*
X25424203Y-38838869D01*
X25491923Y-38821688D01*
X25550438Y-38838869D01*
X25607928Y-38872869D01*
X25607931Y-38872869D01*
X25607933Y-38872871D01*
X25762112Y-38917664D01*
X25762115Y-38917664D01*
X25762117Y-38917665D01*
X25798140Y-38920500D01*
X26196501Y-38920499D01*
X26232525Y-38917665D01*
X26386714Y-38872869D01*
X26524919Y-38791135D01*
X26638456Y-38677598D01*
X26720190Y-38539393D01*
X26753172Y-38425865D01*
X26764985Y-38385208D01*
X26764986Y-38385202D01*
X26767821Y-38349181D01*
X26767820Y-38265450D01*
X26787504Y-38198413D01*
X26804134Y-38177775D01*
X27606520Y-37375389D01*
X27667841Y-37341906D01*
X27737533Y-37346890D01*
G37*
G04 #@! TD.AperFunction*
G04 #@! TA.AperFunction,Conductor*
G36*
X42107410Y-32264185D02*
G01*
X42128052Y-32280819D01*
X46384451Y-36537218D01*
X46417936Y-36598541D01*
X46412952Y-36668233D01*
X46371080Y-36724166D01*
X46305616Y-36748583D01*
X46296770Y-36748899D01*
X41609106Y-36748899D01*
X41591136Y-36747590D01*
X41567373Y-36744109D01*
X41520244Y-36748233D01*
X41518031Y-36748427D01*
X41507225Y-36748899D01*
X41501685Y-36748899D01*
X41470902Y-36752497D01*
X41467317Y-36752863D01*
X41392600Y-36759400D01*
X41385533Y-36760859D01*
X41385521Y-36760803D01*
X41378164Y-36762434D01*
X41378178Y-36762491D01*
X41371141Y-36764159D01*
X41300632Y-36789820D01*
X41297255Y-36790994D01*
X41261594Y-36802812D01*
X41226069Y-36814584D01*
X41219527Y-36817635D01*
X41219502Y-36817582D01*
X41212709Y-36820870D01*
X41212735Y-36820922D01*
X41206281Y-36824163D01*
X41143622Y-36865374D01*
X41140582Y-36867311D01*
X41076749Y-36906684D01*
X41071084Y-36911164D01*
X41071048Y-36911118D01*
X41065199Y-36915883D01*
X41065236Y-36915927D01*
X41059711Y-36920563D01*
X41008233Y-36975125D01*
X41005721Y-36977710D01*
X38359680Y-39623751D01*
X38298357Y-39657236D01*
X38228665Y-39652252D01*
X38172732Y-39610380D01*
X38148315Y-39544916D01*
X38147999Y-39536070D01*
X38147999Y-39533973D01*
X38147998Y-39533948D01*
X38145145Y-39497687D01*
X38100030Y-39342401D01*
X38017721Y-39203223D01*
X38017714Y-39203214D01*
X37903383Y-39088883D01*
X37903374Y-39088876D01*
X37764195Y-39006566D01*
X37764190Y-39006564D01*
X37608918Y-38961453D01*
X37608912Y-38961452D01*
X37588000Y-38959807D01*
X37588000Y-39794098D01*
X37568315Y-39861137D01*
X37515511Y-39906892D01*
X37464000Y-39918098D01*
X37103302Y-39918098D01*
X37067008Y-39920954D01*
X37067005Y-39920955D01*
X37025269Y-39933081D01*
X36990528Y-39943174D01*
X36955934Y-39948098D01*
X36450066Y-39948098D01*
X36415471Y-39943174D01*
X36380731Y-39933081D01*
X36338994Y-39920955D01*
X36338991Y-39920954D01*
X36302697Y-39918098D01*
X36302690Y-39918098D01*
X35942000Y-39918098D01*
X35874961Y-39898413D01*
X35829206Y-39845609D01*
X35818000Y-39794098D01*
X35818000Y-39488598D01*
X36318000Y-39488598D01*
X37088000Y-39488598D01*
X37088000Y-38959808D01*
X37087999Y-38959807D01*
X37067087Y-38961452D01*
X37067081Y-38961453D01*
X36911809Y-39006564D01*
X36911804Y-39006566D01*
X36766121Y-39092723D01*
X36698397Y-39109906D01*
X36639879Y-39092723D01*
X36494195Y-39006566D01*
X36494190Y-39006564D01*
X36338918Y-38961453D01*
X36338912Y-38961452D01*
X36318000Y-38959807D01*
X36318000Y-39488598D01*
X35818000Y-39488598D01*
X35818000Y-38959808D01*
X35799149Y-38942383D01*
X35796241Y-38941772D01*
X35746486Y-38892719D01*
X35731149Y-38824553D01*
X35731568Y-38819598D01*
X35740460Y-38735000D01*
X35720674Y-38546744D01*
X35662179Y-38366716D01*
X35567533Y-38202784D01*
X35563597Y-38198413D01*
X35492350Y-38119284D01*
X35462120Y-38056292D01*
X35460500Y-38036312D01*
X35460500Y-36107915D01*
X35462224Y-36092301D01*
X35461938Y-36092274D01*
X35462672Y-36084509D01*
X35462543Y-36080391D01*
X35463358Y-36077252D01*
X35463407Y-36076740D01*
X35463489Y-36076747D01*
X35480114Y-36012767D01*
X35531457Y-35965377D01*
X35586482Y-35952500D01*
X35654644Y-35952500D01*
X35654646Y-35952500D01*
X35839803Y-35913144D01*
X36012730Y-35836151D01*
X36165871Y-35724888D01*
X36292533Y-35584216D01*
X36387179Y-35420284D01*
X36445674Y-35240256D01*
X36465460Y-35052000D01*
X36445674Y-34863744D01*
X36387179Y-34683716D01*
X36292533Y-34519784D01*
X36165871Y-34379112D01*
X36120993Y-34346506D01*
X36012734Y-34267851D01*
X36012729Y-34267848D01*
X35839807Y-34190857D01*
X35839802Y-34190855D01*
X35694001Y-34159865D01*
X35654646Y-34151500D01*
X35654645Y-34151500D01*
X35595454Y-34151500D01*
X35528415Y-34131815D01*
X35510482Y-34117364D01*
X35510398Y-34117460D01*
X35508237Y-34115555D01*
X35507773Y-34115181D01*
X35507478Y-34114886D01*
X35506429Y-34114072D01*
X35504287Y-34112410D01*
X35495435Y-34104849D01*
X35463583Y-34074939D01*
X35463581Y-34074937D01*
X35463578Y-34074936D01*
X35446030Y-34065289D01*
X35429764Y-34054605D01*
X35413933Y-34042325D01*
X35373850Y-34024979D01*
X35363364Y-34019842D01*
X35325095Y-33998804D01*
X35325093Y-33998803D01*
X35305694Y-33993823D01*
X35287282Y-33987519D01*
X35268899Y-33979563D01*
X35268893Y-33979561D01*
X35225761Y-33972730D01*
X35214323Y-33970362D01*
X35172021Y-33959501D01*
X35172020Y-33959501D01*
X35151985Y-33959501D01*
X35132587Y-33957974D01*
X35125163Y-33956798D01*
X35112806Y-33954841D01*
X35112805Y-33954841D01*
X35069326Y-33958951D01*
X35057657Y-33959501D01*
X34812469Y-33959501D01*
X34745430Y-33939816D01*
X34738158Y-33934768D01*
X34708552Y-33912605D01*
X34708549Y-33912603D01*
X34573703Y-33862309D01*
X34573704Y-33862309D01*
X34514104Y-33855902D01*
X34514102Y-33855901D01*
X34514094Y-33855901D01*
X34514085Y-33855901D01*
X33046750Y-33855901D01*
X33046744Y-33855902D01*
X32987137Y-33862309D01*
X32852292Y-33912603D01*
X32852285Y-33912607D01*
X32737076Y-33998853D01*
X32737073Y-33998856D01*
X32650827Y-34114065D01*
X32650823Y-34114072D01*
X32600531Y-34248914D01*
X32600530Y-34248918D01*
X32594121Y-34308528D01*
X32594121Y-34308535D01*
X32594121Y-34308536D01*
X32594121Y-34861470D01*
X32594122Y-34861481D01*
X32598165Y-34899093D01*
X32598165Y-34925596D01*
X32594621Y-34958564D01*
X32594621Y-35006399D01*
X32612473Y-35024251D01*
X32618714Y-35026084D01*
X32650941Y-35056088D01*
X32737073Y-35171145D01*
X32737074Y-35171145D01*
X32737075Y-35171147D01*
X32774815Y-35199399D01*
X32829495Y-35240333D01*
X32871365Y-35296267D01*
X32876349Y-35365958D01*
X32842863Y-35427281D01*
X32781540Y-35460766D01*
X32755183Y-35463599D01*
X32594621Y-35463599D01*
X32594621Y-35511443D01*
X32601022Y-35570971D01*
X32601024Y-35570978D01*
X32651266Y-35705685D01*
X32651270Y-35705692D01*
X32737430Y-35820786D01*
X32737433Y-35820789D01*
X32852527Y-35906949D01*
X32852536Y-35906954D01*
X32913453Y-35929674D01*
X32969387Y-35971544D01*
X32993805Y-36037008D01*
X32994121Y-36045855D01*
X32994121Y-36123495D01*
X32994122Y-36123503D01*
X32999951Y-36152811D01*
X33003985Y-36162551D01*
X33011451Y-36232020D01*
X33003984Y-36257450D01*
X32999951Y-36267185D01*
X32994121Y-36296497D01*
X32994121Y-36636168D01*
X32974436Y-36703207D01*
X32921632Y-36748962D01*
X32852474Y-36758906D01*
X32788918Y-36729881D01*
X32782440Y-36723849D01*
X30909802Y-34851211D01*
X30899979Y-34838949D01*
X30899758Y-34839133D01*
X30894785Y-34833121D01*
X30845775Y-34787098D01*
X30842976Y-34784385D01*
X30823476Y-34764884D01*
X30823470Y-34764879D01*
X30820285Y-34762408D01*
X30811433Y-34754847D01*
X30779581Y-34724937D01*
X30779579Y-34724935D01*
X30779576Y-34724934D01*
X30762028Y-34715287D01*
X30745762Y-34704603D01*
X30729931Y-34692323D01*
X30689848Y-34674977D01*
X30679362Y-34669840D01*
X30641093Y-34648802D01*
X30641091Y-34648801D01*
X30621692Y-34643821D01*
X30603280Y-34637517D01*
X30584897Y-34629561D01*
X30584891Y-34629559D01*
X30541759Y-34622728D01*
X30530321Y-34620360D01*
X30488019Y-34609499D01*
X30488018Y-34609499D01*
X30467983Y-34609499D01*
X30448585Y-34607972D01*
X30441161Y-34606796D01*
X30428804Y-34604839D01*
X30428803Y-34604839D01*
X30385324Y-34608949D01*
X30373655Y-34609499D01*
X30296521Y-34609499D01*
X30229482Y-34589814D01*
X30183727Y-34537010D01*
X30172521Y-34485500D01*
X30172520Y-34346506D01*
X30172519Y-34346498D01*
X30166690Y-34317188D01*
X30144478Y-34283943D01*
X30101080Y-34254948D01*
X30101698Y-34254022D01*
X30056894Y-34217913D01*
X30034832Y-34151618D01*
X30052114Y-34083920D01*
X30071065Y-34059524D01*
X30173773Y-33956816D01*
X30235094Y-33923334D01*
X30261452Y-33920500D01*
X30320644Y-33920500D01*
X30320646Y-33920500D01*
X30505803Y-33881144D01*
X30678730Y-33804151D01*
X30831871Y-33692888D01*
X30958533Y-33552216D01*
X31053179Y-33388284D01*
X31111674Y-33208256D01*
X31131460Y-33020000D01*
X31111674Y-32831744D01*
X31053179Y-32651716D01*
X30958533Y-32487784D01*
X30925837Y-32451472D01*
X30895607Y-32388481D01*
X30904232Y-32319146D01*
X30948973Y-32265480D01*
X31015625Y-32244522D01*
X31017987Y-32244500D01*
X42040371Y-32244500D01*
X42107410Y-32264185D01*
G37*
G04 #@! TD.AperFunction*
G04 #@! TA.AperFunction,Conductor*
G36*
X51664043Y-20066669D02*
G01*
X51794179Y-20073490D01*
X51974708Y-20083628D01*
X51987109Y-20084955D01*
X52135790Y-20108504D01*
X52137045Y-20108709D01*
X52296124Y-20135738D01*
X52307406Y-20138202D01*
X52456435Y-20178134D01*
X52458561Y-20178725D01*
X52609974Y-20222347D01*
X52620060Y-20225729D01*
X52765510Y-20281562D01*
X52768399Y-20282714D01*
X52912568Y-20342430D01*
X52921394Y-20346500D01*
X53060864Y-20417565D01*
X53064548Y-20419521D01*
X53154648Y-20469316D01*
X53200348Y-20494574D01*
X53207861Y-20499081D01*
X53339554Y-20584604D01*
X53343747Y-20587452D01*
X53469947Y-20676996D01*
X53476228Y-20681759D01*
X53598367Y-20780665D01*
X53602958Y-20784571D01*
X53718224Y-20887579D01*
X53723278Y-20892358D01*
X53834440Y-21003520D01*
X53839219Y-21008574D01*
X53942227Y-21123840D01*
X53946133Y-21128431D01*
X54045039Y-21250570D01*
X54049802Y-21256851D01*
X54139346Y-21383051D01*
X54142209Y-21387266D01*
X54227707Y-21518921D01*
X54232230Y-21526460D01*
X54307277Y-21662250D01*
X54309233Y-21665934D01*
X54380298Y-21805404D01*
X54384375Y-21814247D01*
X54444059Y-21958337D01*
X54445262Y-21961353D01*
X54501065Y-22106727D01*
X54504455Y-22116836D01*
X54548058Y-22268185D01*
X54548679Y-22270419D01*
X54588591Y-22419371D01*
X54591064Y-22430693D01*
X54608248Y-22531826D01*
X54610000Y-22552598D01*
X54610000Y-72672000D01*
X54608248Y-72692772D01*
X54591064Y-72793906D01*
X54588591Y-72805228D01*
X54548679Y-72954179D01*
X54548058Y-72956413D01*
X54504455Y-73107762D01*
X54501065Y-73117871D01*
X54445262Y-73263245D01*
X54444059Y-73266261D01*
X54384375Y-73410351D01*
X54380298Y-73419194D01*
X54309233Y-73558664D01*
X54307277Y-73562348D01*
X54232230Y-73698138D01*
X54227697Y-73705694D01*
X54142212Y-73837328D01*
X54139346Y-73841547D01*
X54049802Y-73967747D01*
X54045039Y-73974028D01*
X53946133Y-74096167D01*
X53942227Y-74100758D01*
X53839219Y-74216024D01*
X53834440Y-74221078D01*
X53723278Y-74332240D01*
X53718224Y-74337019D01*
X53602958Y-74440027D01*
X53598367Y-74443933D01*
X53476228Y-74542839D01*
X53469947Y-74547602D01*
X53343747Y-74637146D01*
X53339528Y-74640012D01*
X53207894Y-74725497D01*
X53200338Y-74730030D01*
X53064548Y-74805077D01*
X53060864Y-74807033D01*
X52921394Y-74878098D01*
X52912551Y-74882175D01*
X52768461Y-74941859D01*
X52765445Y-74943062D01*
X52620071Y-74998865D01*
X52609962Y-75002255D01*
X52458613Y-75045858D01*
X52456379Y-75046479D01*
X52307428Y-75086391D01*
X52296104Y-75088864D01*
X52137083Y-75115882D01*
X52135711Y-75116107D01*
X51987132Y-75139640D01*
X51974687Y-75140972D01*
X51794377Y-75151098D01*
X51793914Y-75151123D01*
X51664043Y-75157930D01*
X51657553Y-75158100D01*
X22561247Y-75158100D01*
X22554757Y-75157930D01*
X22424884Y-75151123D01*
X22424421Y-75151098D01*
X22244111Y-75140972D01*
X22231666Y-75139640D01*
X22083087Y-75116107D01*
X22081715Y-75115882D01*
X21922694Y-75088864D01*
X21911370Y-75086391D01*
X21762419Y-75046479D01*
X21760185Y-75045858D01*
X21608836Y-75002255D01*
X21598727Y-74998865D01*
X21453353Y-74943062D01*
X21450337Y-74941859D01*
X21306247Y-74882175D01*
X21297404Y-74878098D01*
X21157934Y-74807033D01*
X21154250Y-74805077D01*
X21018460Y-74730030D01*
X21010921Y-74725507D01*
X20879266Y-74640009D01*
X20875051Y-74637146D01*
X20748851Y-74547602D01*
X20742570Y-74542839D01*
X20620431Y-74443933D01*
X20615840Y-74440027D01*
X20500574Y-74337019D01*
X20495520Y-74332240D01*
X20384358Y-74221078D01*
X20379579Y-74216024D01*
X20276571Y-74100758D01*
X20272665Y-74096167D01*
X20173759Y-73974028D01*
X20168996Y-73967747D01*
X20079452Y-73841547D01*
X20076604Y-73837354D01*
X19991081Y-73705661D01*
X19986568Y-73698138D01*
X19911521Y-73562348D01*
X19909565Y-73558664D01*
X19838500Y-73419194D01*
X19834430Y-73410368D01*
X19774714Y-73266199D01*
X19773562Y-73263310D01*
X19717729Y-73117860D01*
X19714345Y-73107768D01*
X19689846Y-73022728D01*
X19685000Y-72988401D01*
X19685000Y-71692763D01*
X21255787Y-71692763D01*
X21285413Y-71962013D01*
X21285415Y-71962024D01*
X21336676Y-72158100D01*
X21353928Y-72224088D01*
X21459870Y-72473390D01*
X21581080Y-72672000D01*
X21600979Y-72704605D01*
X21600986Y-72704615D01*
X21774253Y-72912819D01*
X21774259Y-72912824D01*
X21879240Y-73006887D01*
X21975998Y-73093582D01*
X22201910Y-73243044D01*
X22447176Y-73358020D01*
X22447183Y-73358022D01*
X22447185Y-73358023D01*
X22706557Y-73436057D01*
X22706564Y-73436058D01*
X22706569Y-73436060D01*
X22974561Y-73475500D01*
X22974566Y-73475500D01*
X23177629Y-73475500D01*
X23177631Y-73475500D01*
X23177636Y-73475499D01*
X23177648Y-73475499D01*
X23215191Y-73472750D01*
X23380156Y-73460677D01*
X23492758Y-73435593D01*
X23644546Y-73401782D01*
X23644548Y-73401781D01*
X23644553Y-73401780D01*
X23897558Y-73305014D01*
X24133777Y-73172441D01*
X24348177Y-73006888D01*
X24536186Y-72811881D01*
X24693799Y-72591579D01*
X24767787Y-72447669D01*
X24817649Y-72350690D01*
X24817651Y-72350684D01*
X24817656Y-72350675D01*
X24905118Y-72094305D01*
X24954319Y-71827933D01*
X24959259Y-71692763D01*
X49225787Y-71692763D01*
X49255413Y-71962013D01*
X49255415Y-71962024D01*
X49306676Y-72158100D01*
X49323928Y-72224088D01*
X49429870Y-72473390D01*
X49551080Y-72672000D01*
X49570979Y-72704605D01*
X49570986Y-72704615D01*
X49744253Y-72912819D01*
X49744259Y-72912824D01*
X49849240Y-73006887D01*
X49945998Y-73093582D01*
X50171910Y-73243044D01*
X50417176Y-73358020D01*
X50417183Y-73358022D01*
X50417185Y-73358023D01*
X50676557Y-73436057D01*
X50676564Y-73436058D01*
X50676569Y-73436060D01*
X50944561Y-73475500D01*
X50944566Y-73475500D01*
X51147629Y-73475500D01*
X51147631Y-73475500D01*
X51147636Y-73475499D01*
X51147648Y-73475499D01*
X51185191Y-73472750D01*
X51350156Y-73460677D01*
X51462758Y-73435593D01*
X51614546Y-73401782D01*
X51614548Y-73401781D01*
X51614553Y-73401780D01*
X51867558Y-73305014D01*
X52103777Y-73172441D01*
X52318177Y-73006888D01*
X52506186Y-72811881D01*
X52663799Y-72591579D01*
X52737787Y-72447669D01*
X52787649Y-72350690D01*
X52787651Y-72350684D01*
X52787656Y-72350675D01*
X52875118Y-72094305D01*
X52924319Y-71827933D01*
X52934212Y-71557235D01*
X52904586Y-71287982D01*
X52836072Y-71025912D01*
X52730130Y-70776610D01*
X52589018Y-70545390D01*
X52499747Y-70438119D01*
X52415746Y-70337180D01*
X52415740Y-70337175D01*
X52214002Y-70156418D01*
X51988092Y-70006957D01*
X51988090Y-70006956D01*
X51742824Y-69891980D01*
X51742819Y-69891978D01*
X51742814Y-69891976D01*
X51483442Y-69813942D01*
X51483428Y-69813939D01*
X51367791Y-69796921D01*
X51215439Y-69774500D01*
X51012369Y-69774500D01*
X51012351Y-69774500D01*
X50809844Y-69789323D01*
X50809831Y-69789325D01*
X50545453Y-69848217D01*
X50545446Y-69848220D01*
X50292439Y-69944987D01*
X50056226Y-70077557D01*
X49841822Y-70243112D01*
X49653822Y-70438109D01*
X49653816Y-70438116D01*
X49496202Y-70658419D01*
X49496199Y-70658424D01*
X49372350Y-70899309D01*
X49372343Y-70899327D01*
X49284884Y-71155685D01*
X49284881Y-71155699D01*
X49235681Y-71422068D01*
X49235680Y-71422075D01*
X49225787Y-71692763D01*
X24959259Y-71692763D01*
X24964212Y-71557235D01*
X24934586Y-71287982D01*
X24866072Y-71025912D01*
X24760130Y-70776610D01*
X24619018Y-70545390D01*
X24529747Y-70438119D01*
X24445746Y-70337180D01*
X24445740Y-70337175D01*
X24244002Y-70156418D01*
X24018092Y-70006957D01*
X24018090Y-70006956D01*
X23772824Y-69891980D01*
X23772819Y-69891978D01*
X23772814Y-69891976D01*
X23513442Y-69813942D01*
X23513428Y-69813939D01*
X23397791Y-69796921D01*
X23245439Y-69774500D01*
X23042369Y-69774500D01*
X23042351Y-69774500D01*
X22839844Y-69789323D01*
X22839831Y-69789325D01*
X22575453Y-69848217D01*
X22575446Y-69848220D01*
X22322439Y-69944987D01*
X22086226Y-70077557D01*
X21871822Y-70243112D01*
X21683822Y-70438109D01*
X21683816Y-70438116D01*
X21526202Y-70658419D01*
X21526199Y-70658424D01*
X21402350Y-70899309D01*
X21402343Y-70899327D01*
X21314884Y-71155685D01*
X21314881Y-71155699D01*
X21265681Y-71422068D01*
X21265680Y-71422075D01*
X21255787Y-71692763D01*
X19685000Y-71692763D01*
X19685000Y-60938025D01*
X21342710Y-60938025D01*
X21347028Y-60987368D01*
X21347500Y-60998176D01*
X21347500Y-61003711D01*
X21351098Y-61034495D01*
X21351464Y-61038083D01*
X21358000Y-61112791D01*
X21359461Y-61119867D01*
X21359403Y-61119878D01*
X21361034Y-61127237D01*
X21361092Y-61127224D01*
X21362757Y-61134249D01*
X21362758Y-61134254D01*
X21362759Y-61134255D01*
X21387273Y-61201610D01*
X21388400Y-61204705D01*
X21389582Y-61208107D01*
X21413182Y-61279326D01*
X21416236Y-61285874D01*
X21416182Y-61285898D01*
X21419470Y-61292688D01*
X21419521Y-61292663D01*
X21422761Y-61299114D01*
X21463979Y-61361784D01*
X21465889Y-61364782D01*
X21481861Y-61390675D01*
X21505289Y-61428658D01*
X21509766Y-61434319D01*
X21509719Y-61434356D01*
X21514482Y-61440202D01*
X21514528Y-61440164D01*
X21519173Y-61445699D01*
X21548643Y-61473502D01*
X21569507Y-61493187D01*
X21573707Y-61497149D01*
X21576295Y-61499663D01*
X21981181Y-61904549D01*
X22014666Y-61965872D01*
X22017500Y-61992230D01*
X22017500Y-62619870D01*
X22017501Y-62619876D01*
X22023908Y-62679483D01*
X22074202Y-62814328D01*
X22074206Y-62814335D01*
X22160452Y-62929544D01*
X22160455Y-62929547D01*
X22275664Y-63015793D01*
X22275671Y-63015797D01*
X22319857Y-63032277D01*
X22410517Y-63066091D01*
X22470127Y-63072500D01*
X23097769Y-63072499D01*
X23164808Y-63092183D01*
X23185450Y-63108818D01*
X26856270Y-66779638D01*
X26868051Y-66793270D01*
X26882388Y-66812528D01*
X26882389Y-66812529D01*
X26882390Y-66812530D01*
X26889253Y-66818289D01*
X26920337Y-66844372D01*
X26928310Y-66851679D01*
X26932217Y-66855586D01*
X26932223Y-66855591D01*
X26956537Y-66874816D01*
X26959318Y-66877080D01*
X26986956Y-66900271D01*
X27016789Y-66925305D01*
X27022818Y-66929270D01*
X27022785Y-66929319D01*
X27029147Y-66933372D01*
X27029179Y-66933321D01*
X27035319Y-66937108D01*
X27035323Y-66937111D01*
X27073977Y-66955135D01*
X27103320Y-66968819D01*
X27106566Y-66970391D01*
X27173562Y-67004038D01*
X27180357Y-67006511D01*
X27180336Y-67006567D01*
X27187457Y-67009043D01*
X27187476Y-67008986D01*
X27194319Y-67011253D01*
X27194327Y-67011257D01*
X27267895Y-67026447D01*
X27271228Y-67027186D01*
X27344279Y-67044500D01*
X27344281Y-67044500D01*
X27344285Y-67044501D01*
X27351453Y-67045339D01*
X27351446Y-67045398D01*
X27358944Y-67046164D01*
X27358950Y-67046105D01*
X27366139Y-67046734D01*
X27366143Y-67046733D01*
X27366144Y-67046734D01*
X27441130Y-67044552D01*
X27444737Y-67044500D01*
X35496295Y-67044500D01*
X35514265Y-67045809D01*
X35538023Y-67049289D01*
X35587369Y-67044971D01*
X35598176Y-67044500D01*
X35603704Y-67044500D01*
X35603709Y-67044500D01*
X35634556Y-67040893D01*
X35638030Y-67040539D01*
X35712797Y-67033999D01*
X35712805Y-67033996D01*
X35719866Y-67032539D01*
X35719878Y-67032598D01*
X35727243Y-67030965D01*
X35727229Y-67030906D01*
X35734249Y-67029241D01*
X35734255Y-67029241D01*
X35804779Y-67003572D01*
X35808117Y-67002412D01*
X35879334Y-66978814D01*
X35879342Y-66978808D01*
X35885882Y-66975760D01*
X35885908Y-66975816D01*
X35892690Y-66972532D01*
X35892663Y-66972478D01*
X35899113Y-66969238D01*
X35899117Y-66969237D01*
X35961837Y-66927984D01*
X35964732Y-66926140D01*
X36028656Y-66886712D01*
X36028662Y-66886705D01*
X36034325Y-66882229D01*
X36034362Y-66882277D01*
X36040204Y-66877518D01*
X36040164Y-66877471D01*
X36045686Y-66872835D01*
X36045696Y-66872830D01*
X36097185Y-66818253D01*
X36099632Y-66815734D01*
X37639366Y-65276000D01*
X41351156Y-65276000D01*
X41391595Y-65415194D01*
X41473261Y-65553285D01*
X41473268Y-65553294D01*
X41586705Y-65666731D01*
X41586714Y-65666738D01*
X41724808Y-65748406D01*
X41724811Y-65748407D01*
X41878871Y-65793166D01*
X41878877Y-65793167D01*
X41914000Y-65795931D01*
X41914000Y-65276000D01*
X42414000Y-65276000D01*
X42414000Y-65795930D01*
X42449122Y-65793167D01*
X42449128Y-65793166D01*
X42603188Y-65748407D01*
X42603191Y-65748406D01*
X42741285Y-65666738D01*
X42741294Y-65666731D01*
X42854731Y-65553294D01*
X42854738Y-65553285D01*
X42936404Y-65415194D01*
X42976844Y-65276000D01*
X42414000Y-65276000D01*
X41914000Y-65276000D01*
X41351156Y-65276000D01*
X37639366Y-65276000D01*
X40395965Y-62519400D01*
X40457286Y-62485917D01*
X40526978Y-62490901D01*
X40532882Y-62493278D01*
X40546147Y-62499017D01*
X40556626Y-62504151D01*
X40579180Y-62516550D01*
X40594902Y-62525194D01*
X40594904Y-62525195D01*
X40594908Y-62525197D01*
X40614316Y-62530180D01*
X40632719Y-62536481D01*
X40651101Y-62544436D01*
X40651102Y-62544436D01*
X40651104Y-62544437D01*
X40694250Y-62551270D01*
X40705672Y-62553636D01*
X40747981Y-62564500D01*
X40768016Y-62564500D01*
X40787414Y-62566026D01*
X40807194Y-62569159D01*
X40807195Y-62569160D01*
X40807195Y-62569159D01*
X40807196Y-62569160D01*
X40850675Y-62565050D01*
X40862344Y-62564500D01*
X41136432Y-62564500D01*
X41203471Y-62584185D01*
X41249226Y-62636989D01*
X41259752Y-62675535D01*
X41278326Y-62852256D01*
X41278327Y-62852259D01*
X41336818Y-63032277D01*
X41336821Y-63032284D01*
X41431467Y-63196216D01*
X41450996Y-63217905D01*
X41506042Y-63279040D01*
X41536272Y-63342031D01*
X41527647Y-63411367D01*
X41501573Y-63449693D01*
X41472869Y-63478396D01*
X41472863Y-63478404D01*
X41391131Y-63616606D01*
X41391129Y-63616611D01*
X41346335Y-63770791D01*
X41346334Y-63770797D01*
X41343500Y-63806811D01*
X41343500Y-64205169D01*
X41343501Y-64205191D01*
X41346335Y-64241205D01*
X41391129Y-64395388D01*
X41391130Y-64395391D01*
X41425419Y-64453371D01*
X41442601Y-64521095D01*
X41425419Y-64579611D01*
X41391594Y-64636806D01*
X41351156Y-64776000D01*
X41903591Y-64776000D01*
X41913318Y-64776382D01*
X41913516Y-64776397D01*
X41914819Y-64776500D01*
X42413180Y-64776499D01*
X42413193Y-64776498D01*
X42414668Y-64776382D01*
X42424393Y-64776000D01*
X42976844Y-64776000D01*
X42936404Y-64636805D01*
X42902581Y-64579612D01*
X42885398Y-64511888D01*
X42902582Y-64453369D01*
X42936867Y-64395396D01*
X42936869Y-64395393D01*
X42981665Y-64241204D01*
X42984500Y-64205181D01*
X42984499Y-63806820D01*
X42981665Y-63770796D01*
X42936869Y-63616607D01*
X42855135Y-63478402D01*
X42826425Y-63449692D01*
X42792941Y-63388372D01*
X42797925Y-63318680D01*
X42821958Y-63279039D01*
X42861801Y-63234789D01*
X42896533Y-63196216D01*
X42991179Y-63032284D01*
X43049674Y-62852256D01*
X43068217Y-62675826D01*
X43094800Y-62611214D01*
X43152098Y-62571229D01*
X43187642Y-62564851D01*
X43193453Y-62564668D01*
X43196874Y-62564561D01*
X43200768Y-62564500D01*
X43228346Y-62564500D01*
X43228350Y-62564500D01*
X43232324Y-62563997D01*
X43243963Y-62563080D01*
X43287627Y-62561709D01*
X43306869Y-62556117D01*
X43325912Y-62552174D01*
X43345792Y-62549664D01*
X43386401Y-62533585D01*
X43397444Y-62529803D01*
X43439390Y-62517618D01*
X43456629Y-62507422D01*
X43474103Y-62498862D01*
X43483412Y-62495175D01*
X43492732Y-62491486D01*
X43492735Y-62491483D01*
X43495729Y-62489839D01*
X43499043Y-62488987D01*
X43499988Y-62488614D01*
X43500035Y-62488733D01*
X43555468Y-62474500D01*
X43668682Y-62474500D01*
X43668690Y-62474500D01*
X43704993Y-62471643D01*
X43704995Y-62471642D01*
X43704997Y-62471642D01*
X43770645Y-62452569D01*
X43860395Y-62426494D01*
X43982022Y-62354563D01*
X44006402Y-62340146D01*
X44007375Y-62341791D01*
X44062915Y-62319986D01*
X44073878Y-62319500D01*
X45588122Y-62319500D01*
X45655161Y-62339185D01*
X45661236Y-62343480D01*
X45662312Y-62344116D01*
X45662313Y-62344117D01*
X45801605Y-62426494D01*
X45840155Y-62437694D01*
X45957002Y-62471642D01*
X45957005Y-62471642D01*
X45957007Y-62471643D01*
X45993310Y-62474500D01*
X45993318Y-62474500D01*
X46462682Y-62474500D01*
X46462690Y-62474500D01*
X46498993Y-62471643D01*
X46498995Y-62471642D01*
X46498997Y-62471642D01*
X46564645Y-62452569D01*
X46654395Y-62426494D01*
X46793687Y-62344117D01*
X46908117Y-62229687D01*
X46990494Y-62090395D01*
X47035643Y-61934993D01*
X47038500Y-61898690D01*
X47038500Y-61489310D01*
X47035643Y-61453007D01*
X47033457Y-61445484D01*
X46996453Y-61318116D01*
X46990494Y-61297605D01*
X46978089Y-61276630D01*
X46960906Y-61208909D01*
X46978091Y-61150384D01*
X46990032Y-61130194D01*
X47032504Y-60984000D01*
X46726352Y-60984000D01*
X46663233Y-60966732D01*
X46654395Y-60961506D01*
X46654393Y-60961505D01*
X46654389Y-60961503D01*
X46498997Y-60916357D01*
X46498991Y-60916356D01*
X46462697Y-60913500D01*
X46462690Y-60913500D01*
X45993310Y-60913500D01*
X45993302Y-60913500D01*
X45957008Y-60916356D01*
X45957002Y-60916357D01*
X45801610Y-60961503D01*
X45801605Y-60961506D01*
X45792766Y-60966732D01*
X45729648Y-60984000D01*
X45423496Y-60984000D01*
X45397252Y-61018953D01*
X45341258Y-61060744D01*
X45298091Y-61068500D01*
X44363909Y-61068500D01*
X44296870Y-61048815D01*
X44264748Y-61018953D01*
X44238504Y-60984000D01*
X43932352Y-60984000D01*
X43869233Y-60966732D01*
X43860395Y-60961506D01*
X43860393Y-60961505D01*
X43860389Y-60961503D01*
X43704997Y-60916357D01*
X43704991Y-60916356D01*
X43668697Y-60913500D01*
X43668690Y-60913500D01*
X43308000Y-60913500D01*
X43240961Y-60893815D01*
X43195206Y-60841011D01*
X43184000Y-60789500D01*
X43184000Y-59955210D01*
X43183999Y-59955209D01*
X43684000Y-59955209D01*
X43684000Y-60484000D01*
X44238504Y-60484000D01*
X45423496Y-60484000D01*
X45978000Y-60484000D01*
X45978000Y-59955210D01*
X45977999Y-59955209D01*
X46478000Y-59955209D01*
X46478000Y-60484000D01*
X47032504Y-60484000D01*
X46990031Y-60337804D01*
X46907721Y-60198625D01*
X46907714Y-60198616D01*
X46793383Y-60084285D01*
X46793374Y-60084278D01*
X46654195Y-60001968D01*
X46654190Y-60001966D01*
X46498918Y-59956855D01*
X46498912Y-59956854D01*
X46478000Y-59955209D01*
X45977999Y-59955209D01*
X45957087Y-59956854D01*
X45957081Y-59956855D01*
X45801809Y-60001966D01*
X45801804Y-60001968D01*
X45662625Y-60084278D01*
X45662616Y-60084285D01*
X45548285Y-60198616D01*
X45548278Y-60198625D01*
X45465968Y-60337804D01*
X45423496Y-60484000D01*
X44238504Y-60484000D01*
X44196031Y-60337804D01*
X44113721Y-60198625D01*
X44113714Y-60198616D01*
X43999383Y-60084285D01*
X43999374Y-60084278D01*
X43860195Y-60001968D01*
X43860190Y-60001966D01*
X43704918Y-59956855D01*
X43704912Y-59956854D01*
X43684000Y-59955209D01*
X43183999Y-59955209D01*
X43163087Y-59956854D01*
X43163081Y-59956855D01*
X43007809Y-60001966D01*
X43007804Y-60001968D01*
X42868625Y-60084278D01*
X42868616Y-60084285D01*
X42754285Y-60198616D01*
X42754281Y-60198622D01*
X42673605Y-60335037D01*
X42622535Y-60382720D01*
X42553794Y-60395223D01*
X42516438Y-60385195D01*
X42443802Y-60352855D01*
X42268055Y-60315500D01*
X42258646Y-60313500D01*
X42258645Y-60313500D01*
X42163500Y-60313500D01*
X42114251Y-60303300D01*
X42078851Y-60287980D01*
X42068365Y-60282843D01*
X42030096Y-60261805D01*
X42030094Y-60261804D01*
X42010695Y-60256824D01*
X41992283Y-60250520D01*
X41973900Y-60242564D01*
X41973894Y-60242562D01*
X41930762Y-60235731D01*
X41919324Y-60233363D01*
X41877022Y-60222502D01*
X41877021Y-60222502D01*
X41856986Y-60222502D01*
X41837588Y-60220975D01*
X41830164Y-60219799D01*
X41817807Y-60217842D01*
X41817806Y-60217842D01*
X41774327Y-60221952D01*
X41762658Y-60222502D01*
X41695800Y-60222502D01*
X41628761Y-60202817D01*
X41583006Y-60150013D01*
X41571800Y-60098502D01*
X41571800Y-59921580D01*
X41571799Y-59921566D01*
X41568255Y-59888604D01*
X41568255Y-59862094D01*
X41572300Y-59824475D01*
X41572299Y-59271530D01*
X41565891Y-59211919D01*
X41558786Y-59192870D01*
X41515597Y-59077073D01*
X41515593Y-59077066D01*
X41429347Y-58961857D01*
X41429344Y-58961854D01*
X41314135Y-58875608D01*
X41314128Y-58875604D01*
X41179282Y-58825310D01*
X41179284Y-58825310D01*
X41122244Y-58819178D01*
X41057693Y-58792440D01*
X41017845Y-58735047D01*
X41011500Y-58695889D01*
X41011500Y-55440388D01*
X41031185Y-55373349D01*
X41083989Y-55327594D01*
X41085064Y-55327109D01*
X41110267Y-55315887D01*
X41219730Y-55267151D01*
X41372871Y-55155888D01*
X41499533Y-55015216D01*
X41594179Y-54851284D01*
X41652674Y-54671256D01*
X41672460Y-54483000D01*
X41652674Y-54294744D01*
X41594179Y-54114716D01*
X41556468Y-54049399D01*
X49308000Y-54049399D01*
X49308000Y-54897243D01*
X49314401Y-54956771D01*
X49314403Y-54956778D01*
X49364645Y-55091485D01*
X49364649Y-55091492D01*
X49450809Y-55206586D01*
X49450812Y-55206589D01*
X49565906Y-55292749D01*
X49565913Y-55292753D01*
X49700620Y-55342995D01*
X49700627Y-55342997D01*
X49760155Y-55349398D01*
X49760172Y-55349399D01*
X51058000Y-55349399D01*
X51058000Y-54049399D01*
X51558000Y-54049399D01*
X51558000Y-55349399D01*
X52855828Y-55349399D01*
X52855844Y-55349398D01*
X52915372Y-55342997D01*
X52915379Y-55342995D01*
X53050086Y-55292753D01*
X53050093Y-55292749D01*
X53165187Y-55206589D01*
X53165190Y-55206586D01*
X53251350Y-55091492D01*
X53251354Y-55091485D01*
X53301596Y-54956778D01*
X53301598Y-54956771D01*
X53307999Y-54897243D01*
X53308000Y-54897226D01*
X53308000Y-54049399D01*
X51558000Y-54049399D01*
X51058000Y-54049399D01*
X49308000Y-54049399D01*
X41556468Y-54049399D01*
X41499533Y-53950784D01*
X41372871Y-53810112D01*
X41372870Y-53810111D01*
X41219734Y-53698851D01*
X41219729Y-53698848D01*
X41171443Y-53677350D01*
X41118206Y-53632100D01*
X41097885Y-53565251D01*
X41102376Y-53549399D01*
X49308000Y-53549399D01*
X51058000Y-53549399D01*
X51058000Y-52249399D01*
X51558000Y-52249399D01*
X51558000Y-53549399D01*
X53308000Y-53549399D01*
X53308000Y-52701571D01*
X53307999Y-52701554D01*
X53301598Y-52642026D01*
X53301596Y-52642019D01*
X53251354Y-52507312D01*
X53251350Y-52507305D01*
X53165190Y-52392211D01*
X53165187Y-52392208D01*
X53050093Y-52306048D01*
X53050086Y-52306044D01*
X52915379Y-52255802D01*
X52915372Y-52255800D01*
X52855844Y-52249399D01*
X51558000Y-52249399D01*
X51058000Y-52249399D01*
X49760155Y-52249399D01*
X49700627Y-52255800D01*
X49700619Y-52255802D01*
X49576941Y-52301931D01*
X49564376Y-52302829D01*
X49556945Y-52312757D01*
X49450809Y-52392211D01*
X49364649Y-52507305D01*
X49364645Y-52507312D01*
X49314403Y-52642019D01*
X49314401Y-52642026D01*
X49308000Y-52701554D01*
X49308000Y-53549399D01*
X41102376Y-53549399D01*
X41116930Y-53498027D01*
X41134193Y-53476395D01*
X45199373Y-49411218D01*
X45260696Y-49377733D01*
X45287054Y-49374899D01*
X46988444Y-49374899D01*
X47055483Y-49394584D01*
X47101238Y-49447388D01*
X47111733Y-49512155D01*
X47107500Y-49551517D01*
X47107500Y-50447269D01*
X47107501Y-50447275D01*
X47113908Y-50506882D01*
X47141577Y-50581066D01*
X47146561Y-50650757D01*
X47141577Y-50667730D01*
X47113909Y-50741913D01*
X47113908Y-50741915D01*
X47108512Y-50792112D01*
X47107501Y-50801522D01*
X47107500Y-50801534D01*
X47107500Y-51697269D01*
X47107501Y-51697275D01*
X47113908Y-51756882D01*
X47164202Y-51891727D01*
X47164206Y-51891734D01*
X47250452Y-52006943D01*
X47250455Y-52006946D01*
X47365664Y-52093192D01*
X47365671Y-52093196D01*
X47500517Y-52143490D01*
X47500516Y-52143490D01*
X47507444Y-52144234D01*
X47560127Y-52149899D01*
X49255872Y-52149898D01*
X49315483Y-52143490D01*
X49439300Y-52097308D01*
X49451864Y-52096410D01*
X49459295Y-52086484D01*
X49565546Y-52006945D01*
X49651796Y-51891730D01*
X49702091Y-51756882D01*
X49708500Y-51697272D01*
X49708499Y-50801527D01*
X49702091Y-50741916D01*
X49674421Y-50667731D01*
X49669438Y-50598041D01*
X49674422Y-50581066D01*
X49702091Y-50506882D01*
X49708500Y-50447272D01*
X49708499Y-49551527D01*
X49702091Y-49491916D01*
X49674421Y-49417731D01*
X49669438Y-49348041D01*
X49674420Y-49331071D01*
X49702091Y-49256882D01*
X49708500Y-49197272D01*
X49708499Y-48301527D01*
X49702091Y-48241916D01*
X49674421Y-48167731D01*
X49669438Y-48098041D01*
X49674420Y-48081071D01*
X49702091Y-48006882D01*
X49708500Y-47947272D01*
X49708499Y-47051527D01*
X49702091Y-46991916D01*
X49674421Y-46917731D01*
X49669438Y-46848041D01*
X49674420Y-46831071D01*
X49702091Y-46756882D01*
X49708500Y-46697272D01*
X49708499Y-45801527D01*
X49702091Y-45741916D01*
X49674421Y-45667731D01*
X49669438Y-45598041D01*
X49674420Y-45581071D01*
X49702091Y-45506882D01*
X49708500Y-45447272D01*
X49708499Y-44551527D01*
X49702091Y-44491916D01*
X49674421Y-44417731D01*
X49669438Y-44348041D01*
X49674422Y-44331066D01*
X49702091Y-44256882D01*
X49708500Y-44197272D01*
X49708499Y-43301527D01*
X49702091Y-43241916D01*
X49674421Y-43167731D01*
X49669438Y-43098041D01*
X49674420Y-43081071D01*
X49702091Y-43006882D01*
X49708500Y-42947272D01*
X49708499Y-42051527D01*
X49702091Y-41991916D01*
X49674421Y-41917731D01*
X49669438Y-41848041D01*
X49674420Y-41831071D01*
X49702091Y-41756882D01*
X49708500Y-41697272D01*
X49708499Y-40801527D01*
X49702091Y-40741916D01*
X49674421Y-40667731D01*
X49669438Y-40598041D01*
X49674420Y-40581071D01*
X49702091Y-40506882D01*
X49708500Y-40447272D01*
X49708499Y-39551527D01*
X49702091Y-39491916D01*
X49674421Y-39417731D01*
X49669438Y-39348041D01*
X49674421Y-39331068D01*
X49702091Y-39256882D01*
X49708500Y-39197272D01*
X49708499Y-38301527D01*
X49702091Y-38241916D01*
X49674421Y-38167731D01*
X49669438Y-38098041D01*
X49674420Y-38081071D01*
X49702091Y-38006882D01*
X49708500Y-37947272D01*
X49708499Y-37051527D01*
X49702091Y-36991916D01*
X49700419Y-36987434D01*
X49651797Y-36857070D01*
X49651793Y-36857063D01*
X49565547Y-36741854D01*
X49565544Y-36741851D01*
X49459297Y-36662314D01*
X49451865Y-36652386D01*
X49439300Y-36651488D01*
X49315482Y-36605307D01*
X49315483Y-36605307D01*
X49255883Y-36598900D01*
X49255881Y-36598899D01*
X49255873Y-36598899D01*
X49255865Y-36598899D01*
X48620229Y-36598899D01*
X48553190Y-36579214D01*
X48532548Y-36562580D01*
X47169367Y-35199399D01*
X49308000Y-35199399D01*
X49308000Y-36047243D01*
X49314401Y-36106771D01*
X49314403Y-36106778D01*
X49364645Y-36241485D01*
X49364649Y-36241492D01*
X49450809Y-36356586D01*
X49450812Y-36356589D01*
X49556944Y-36436040D01*
X49564375Y-36445967D01*
X49576941Y-36446866D01*
X49700620Y-36492995D01*
X49700627Y-36492997D01*
X49760155Y-36499398D01*
X49760172Y-36499399D01*
X51058000Y-36499399D01*
X51058000Y-35199399D01*
X51558000Y-35199399D01*
X51558000Y-36499399D01*
X52855828Y-36499399D01*
X52855844Y-36499398D01*
X52915372Y-36492997D01*
X52915379Y-36492995D01*
X53050086Y-36442753D01*
X53050093Y-36442749D01*
X53165187Y-36356589D01*
X53165190Y-36356586D01*
X53251350Y-36241492D01*
X53251354Y-36241485D01*
X53301596Y-36106778D01*
X53301598Y-36106771D01*
X53307999Y-36047243D01*
X53308000Y-36047226D01*
X53308000Y-35199399D01*
X51558000Y-35199399D01*
X51058000Y-35199399D01*
X49308000Y-35199399D01*
X47169367Y-35199399D01*
X46669367Y-34699399D01*
X49308000Y-34699399D01*
X51058000Y-34699399D01*
X51058000Y-33399399D01*
X51558000Y-33399399D01*
X51558000Y-34699399D01*
X53308000Y-34699399D01*
X53308000Y-33851571D01*
X53307999Y-33851554D01*
X53301598Y-33792026D01*
X53301596Y-33792019D01*
X53251354Y-33657312D01*
X53251350Y-33657305D01*
X53165190Y-33542211D01*
X53165187Y-33542208D01*
X53050093Y-33456048D01*
X53050086Y-33456044D01*
X52915379Y-33405802D01*
X52915372Y-33405800D01*
X52855844Y-33399399D01*
X51558000Y-33399399D01*
X51058000Y-33399399D01*
X49760155Y-33399399D01*
X49700627Y-33405800D01*
X49700620Y-33405802D01*
X49565913Y-33456044D01*
X49565906Y-33456048D01*
X49450812Y-33542208D01*
X49450809Y-33542211D01*
X49364649Y-33657305D01*
X49364645Y-33657312D01*
X49314403Y-33792019D01*
X49314401Y-33792026D01*
X49308000Y-33851554D01*
X49308000Y-34699399D01*
X46669367Y-34699399D01*
X45761994Y-33792026D01*
X42978330Y-31008361D01*
X42966550Y-30994730D01*
X42952211Y-30975470D01*
X42914252Y-30943619D01*
X42906287Y-30936318D01*
X42902381Y-30932411D01*
X42878044Y-30913168D01*
X42875248Y-30910890D01*
X42817815Y-30862698D01*
X42811781Y-30858729D01*
X42811813Y-30858680D01*
X42805454Y-30854628D01*
X42805423Y-30854679D01*
X42799281Y-30850891D01*
X42799279Y-30850890D01*
X42799278Y-30850889D01*
X42731289Y-30819184D01*
X42728048Y-30817615D01*
X42664307Y-30785604D01*
X42661034Y-30783960D01*
X42661032Y-30783959D01*
X42661031Y-30783959D01*
X42654246Y-30781489D01*
X42654266Y-30781433D01*
X42647150Y-30778959D01*
X42647132Y-30779015D01*
X42640275Y-30776743D01*
X42566811Y-30761573D01*
X42563294Y-30760793D01*
X42490319Y-30743499D01*
X42483148Y-30742661D01*
X42483154Y-30742601D01*
X42475656Y-30741835D01*
X42475651Y-30741895D01*
X42468461Y-30741265D01*
X42393471Y-30743448D01*
X42389864Y-30743500D01*
X28301933Y-30743500D01*
X28267338Y-30738576D01*
X28252007Y-30734122D01*
X28225205Y-30726335D01*
X28225202Y-30726334D01*
X28189181Y-30723500D01*
X27690830Y-30723500D01*
X27690808Y-30723501D01*
X27654794Y-30726335D01*
X27612662Y-30738576D01*
X27578067Y-30743500D01*
X24703705Y-30743500D01*
X24685735Y-30742191D01*
X24661972Y-30738710D01*
X24616826Y-30742661D01*
X24612630Y-30743028D01*
X24601824Y-30743500D01*
X24596284Y-30743500D01*
X24565501Y-30747098D01*
X24561916Y-30747464D01*
X24487199Y-30754001D01*
X24480132Y-30755460D01*
X24480120Y-30755404D01*
X24472763Y-30757035D01*
X24472777Y-30757092D01*
X24465740Y-30758760D01*
X24395231Y-30784421D01*
X24391854Y-30785595D01*
X24352848Y-30798521D01*
X24320668Y-30809185D01*
X24314126Y-30812236D01*
X24314101Y-30812183D01*
X24307308Y-30815471D01*
X24307334Y-30815523D01*
X24300880Y-30818764D01*
X24238221Y-30859975D01*
X24235181Y-30861912D01*
X24171348Y-30901285D01*
X24165683Y-30905765D01*
X24165647Y-30905719D01*
X24159798Y-30910484D01*
X24159835Y-30910528D01*
X24154310Y-30915164D01*
X24154304Y-30915169D01*
X24154304Y-30915170D01*
X24130733Y-30940153D01*
X24102832Y-30969726D01*
X24100320Y-30972311D01*
X22877358Y-32195272D01*
X22863729Y-32207051D01*
X22844469Y-32221390D01*
X22812632Y-32259331D01*
X22805346Y-32267284D01*
X22801407Y-32271224D01*
X22782176Y-32295545D01*
X22779902Y-32298337D01*
X22731694Y-32355790D01*
X22727729Y-32361819D01*
X22727682Y-32361788D01*
X22723630Y-32368147D01*
X22723679Y-32368177D01*
X22719889Y-32374321D01*
X22688192Y-32442294D01*
X22686623Y-32445536D01*
X22652957Y-32512572D01*
X22650488Y-32519357D01*
X22650432Y-32519336D01*
X22647960Y-32526450D01*
X22648015Y-32526469D01*
X22645743Y-32533325D01*
X22630573Y-32606788D01*
X22629793Y-32610304D01*
X22612499Y-32683279D01*
X22611661Y-32690454D01*
X22611601Y-32690447D01*
X22610835Y-32697945D01*
X22610895Y-32697951D01*
X22610265Y-32705140D01*
X22612448Y-32780128D01*
X22612500Y-32783735D01*
X22612500Y-38015655D01*
X22610835Y-38031945D01*
X22610895Y-38031951D01*
X22610265Y-38039145D01*
X22610349Y-38042021D01*
X22609093Y-38063585D01*
X22607710Y-38073025D01*
X22612028Y-38122368D01*
X22612500Y-38133176D01*
X22612500Y-39419500D01*
X22592815Y-39486539D01*
X22540011Y-39532294D01*
X22488505Y-39543500D01*
X22465132Y-39543500D01*
X22465123Y-39543501D01*
X22405516Y-39549908D01*
X22270671Y-39600202D01*
X22270664Y-39600206D01*
X22155455Y-39686452D01*
X22155452Y-39686455D01*
X22069206Y-39801664D01*
X22069202Y-39801671D01*
X22018908Y-39936517D01*
X22012501Y-39996116D01*
X22012500Y-39996135D01*
X22012500Y-41131769D01*
X21992815Y-41198808D01*
X21976181Y-41219450D01*
X21612358Y-41583272D01*
X21598729Y-41595051D01*
X21579469Y-41609390D01*
X21547632Y-41647331D01*
X21540346Y-41655284D01*
X21536407Y-41659224D01*
X21517176Y-41683545D01*
X21514902Y-41686337D01*
X21466694Y-41743790D01*
X21462729Y-41749819D01*
X21462682Y-41749788D01*
X21458630Y-41756147D01*
X21458679Y-41756177D01*
X21454889Y-41762321D01*
X21423192Y-41830294D01*
X21421623Y-41833536D01*
X21387957Y-41900572D01*
X21385488Y-41907357D01*
X21385432Y-41907336D01*
X21382960Y-41914450D01*
X21383015Y-41914469D01*
X21380743Y-41921325D01*
X21365573Y-41994788D01*
X21364793Y-41998304D01*
X21347499Y-42071279D01*
X21346661Y-42078454D01*
X21346601Y-42078447D01*
X21345835Y-42085945D01*
X21345895Y-42085951D01*
X21345265Y-42093140D01*
X21347448Y-42168128D01*
X21347500Y-42171735D01*
X21347500Y-50520554D01*
X21347290Y-50527764D01*
X21343668Y-50589933D01*
X21343669Y-50589935D01*
X21345616Y-50600977D01*
X21347500Y-50622509D01*
X21347500Y-60896294D01*
X21346191Y-60914263D01*
X21342710Y-60938025D01*
X19685000Y-60938025D01*
X19685000Y-23692763D01*
X21255787Y-23692763D01*
X21285413Y-23962013D01*
X21285415Y-23962024D01*
X21353926Y-24224082D01*
X21353928Y-24224088D01*
X21459870Y-24473390D01*
X21531998Y-24591575D01*
X21600979Y-24704605D01*
X21600986Y-24704615D01*
X21774253Y-24912819D01*
X21774259Y-24912824D01*
X21975998Y-25093582D01*
X22201910Y-25243044D01*
X22447176Y-25358020D01*
X22447183Y-25358022D01*
X22447185Y-25358023D01*
X22706557Y-25436057D01*
X22706564Y-25436058D01*
X22706569Y-25436060D01*
X22974561Y-25475500D01*
X22974566Y-25475500D01*
X23177629Y-25475500D01*
X23177631Y-25475500D01*
X23177636Y-25475499D01*
X23177648Y-25475499D01*
X23215191Y-25472750D01*
X23380156Y-25460677D01*
X23492758Y-25435593D01*
X23644546Y-25401782D01*
X23644548Y-25401781D01*
X23644553Y-25401780D01*
X23897558Y-25305014D01*
X24133777Y-25172441D01*
X24348177Y-25006888D01*
X24536186Y-24811881D01*
X24693799Y-24591579D01*
X24767787Y-24447669D01*
X24817649Y-24350690D01*
X24817651Y-24350684D01*
X24817656Y-24350675D01*
X24905118Y-24094305D01*
X24954319Y-23827933D01*
X24959259Y-23692763D01*
X49255787Y-23692763D01*
X49285413Y-23962013D01*
X49285415Y-23962024D01*
X49353926Y-24224082D01*
X49353928Y-24224088D01*
X49459870Y-24473390D01*
X49531998Y-24591575D01*
X49600979Y-24704605D01*
X49600986Y-24704615D01*
X49774253Y-24912819D01*
X49774259Y-24912824D01*
X49975998Y-25093582D01*
X50201910Y-25243044D01*
X50447176Y-25358020D01*
X50447183Y-25358022D01*
X50447185Y-25358023D01*
X50706557Y-25436057D01*
X50706564Y-25436058D01*
X50706569Y-25436060D01*
X50974561Y-25475500D01*
X50974566Y-25475500D01*
X51177629Y-25475500D01*
X51177631Y-25475500D01*
X51177636Y-25475499D01*
X51177648Y-25475499D01*
X51215191Y-25472750D01*
X51380156Y-25460677D01*
X51492758Y-25435593D01*
X51644546Y-25401782D01*
X51644548Y-25401781D01*
X51644553Y-25401780D01*
X51897558Y-25305014D01*
X52133777Y-25172441D01*
X52348177Y-25006888D01*
X52536186Y-24811881D01*
X52693799Y-24591579D01*
X52767787Y-24447669D01*
X52817649Y-24350690D01*
X52817651Y-24350684D01*
X52817656Y-24350675D01*
X52905118Y-24094305D01*
X52954319Y-23827933D01*
X52964212Y-23557235D01*
X52934586Y-23287982D01*
X52866072Y-23025912D01*
X52760130Y-22776610D01*
X52619018Y-22545390D01*
X52529747Y-22438119D01*
X52445746Y-22337180D01*
X52445740Y-22337175D01*
X52244002Y-22156418D01*
X52018092Y-22006957D01*
X51980300Y-21989241D01*
X51772824Y-21891980D01*
X51772819Y-21891978D01*
X51772814Y-21891976D01*
X51513442Y-21813942D01*
X51513428Y-21813939D01*
X51397791Y-21796921D01*
X51245439Y-21774500D01*
X51042369Y-21774500D01*
X51042351Y-21774500D01*
X50839844Y-21789323D01*
X50839831Y-21789325D01*
X50575453Y-21848217D01*
X50575446Y-21848220D01*
X50322439Y-21944987D01*
X50086226Y-22077557D01*
X49871822Y-22243112D01*
X49683822Y-22438109D01*
X49683816Y-22438116D01*
X49526202Y-22658419D01*
X49526199Y-22658424D01*
X49402350Y-22899309D01*
X49402343Y-22899327D01*
X49314884Y-23155685D01*
X49314881Y-23155699D01*
X49265681Y-23422068D01*
X49265680Y-23422075D01*
X49255787Y-23692763D01*
X24959259Y-23692763D01*
X24964212Y-23557235D01*
X24934586Y-23287982D01*
X24866072Y-23025912D01*
X24760130Y-22776610D01*
X24619018Y-22545390D01*
X24529747Y-22438119D01*
X24445746Y-22337180D01*
X24445740Y-22337175D01*
X24244002Y-22156418D01*
X24018092Y-22006957D01*
X23980300Y-21989241D01*
X23772824Y-21891980D01*
X23772819Y-21891978D01*
X23772814Y-21891976D01*
X23513442Y-21813942D01*
X23513428Y-21813939D01*
X23397791Y-21796921D01*
X23245439Y-21774500D01*
X23042369Y-21774500D01*
X23042351Y-21774500D01*
X22839844Y-21789323D01*
X22839831Y-21789325D01*
X22575453Y-21848217D01*
X22575446Y-21848220D01*
X22322439Y-21944987D01*
X22086226Y-22077557D01*
X21871822Y-22243112D01*
X21683822Y-22438109D01*
X21683816Y-22438116D01*
X21526202Y-22658419D01*
X21526199Y-22658424D01*
X21402350Y-22899309D01*
X21402343Y-22899327D01*
X21314884Y-23155685D01*
X21314881Y-23155699D01*
X21265681Y-23422068D01*
X21265680Y-23422075D01*
X21255787Y-23692763D01*
X19685000Y-23692763D01*
X19685000Y-22236198D01*
X19689846Y-22201871D01*
X19696509Y-22178739D01*
X19714346Y-22116826D01*
X19717726Y-22106746D01*
X19773583Y-21961233D01*
X19774692Y-21958452D01*
X19834439Y-21814212D01*
X19838488Y-21805429D01*
X19909569Y-21665925D01*
X19911521Y-21662250D01*
X19986588Y-21526426D01*
X19991065Y-21518962D01*
X20076633Y-21387199D01*
X20079434Y-21383077D01*
X20169010Y-21256832D01*
X20173733Y-21250603D01*
X20272702Y-21128386D01*
X20276532Y-21123885D01*
X20379613Y-21008537D01*
X20384323Y-21003556D01*
X20495556Y-20892323D01*
X20500537Y-20887613D01*
X20615885Y-20784532D01*
X20620386Y-20780702D01*
X20742603Y-20681733D01*
X20748832Y-20677010D01*
X20875077Y-20587434D01*
X20879199Y-20584633D01*
X21010962Y-20499065D01*
X21018426Y-20494588D01*
X21154255Y-20419517D01*
X21157934Y-20417565D01*
X21297429Y-20346488D01*
X21306212Y-20342439D01*
X21450452Y-20282692D01*
X21453233Y-20281583D01*
X21598753Y-20225724D01*
X21608811Y-20222351D01*
X21760293Y-20178709D01*
X21762305Y-20178150D01*
X21911402Y-20138199D01*
X21922666Y-20135739D01*
X22081809Y-20108700D01*
X22082947Y-20108513D01*
X22231694Y-20084954D01*
X22244087Y-20083628D01*
X22424554Y-20073493D01*
X22554756Y-20066669D01*
X22561245Y-20066500D01*
X51657555Y-20066500D01*
X51664043Y-20066669D01*
G37*
G04 #@! TD.AperFunction*
M02*
