%TF.GenerationSoftware,KiCad,Pcbnew,7.0.10*%
%TF.CreationDate,2024-11-08T18:26:38-05:00*%
%TF.ProjectId,Novel Mechanism 1 Board,4e6f7665-6c20-44d6-9563-68616e69736d,rev?*%
%TF.SameCoordinates,Original*%
%TF.FileFunction,Drillmap*%
%TF.FilePolarity,Positive*%
%FSLAX45Y45*%
G04 Gerber Fmt 4.5, Leading zero omitted, Abs format (unit mm)*
G04 Created by KiCad (PCBNEW 7.0.10) date 2024-11-08 18:26:38*
%MOMM*%
%LPD*%
G01*
G04 APERTURE LIST*
%ADD10C,0.100000*%
%ADD11C,0.200000*%
G04 APERTURE END LIST*
D10*
X5166080Y-7515860D02*
G75*
G03*
X5466080Y-7215860I0J300000D01*
G01*
X1955800Y-7215860D02*
X1955800Y-2306600D01*
X5466080Y-2306600D02*
X5466080Y-7215860D01*
X1955800Y-7215860D02*
G75*
G03*
X2255800Y-7515860I300000J0D01*
G01*
X5166080Y-7515860D02*
X2255800Y-7515860D01*
X5466080Y-2306600D02*
G75*
G03*
X5166080Y-2006600I-300000J0D01*
G01*
X2255800Y-2006600D02*
G75*
G03*
X1955800Y-2306600I0J-300000D01*
G01*
X2255800Y-2006600D02*
X5166080Y-2006600D01*
D11*
D10*
X2075500Y-3472500D02*
X2115500Y-3512500D01*
X2115500Y-3472500D02*
X2075500Y-3512500D01*
X2075500Y-3726500D02*
X2115500Y-3766500D01*
X2115500Y-3726500D02*
X2075500Y-3766500D01*
X2075500Y-6393500D02*
X2115500Y-6433500D01*
X2115500Y-6393500D02*
X2075500Y-6433500D01*
X2139000Y-3218500D02*
X2179000Y-3258500D01*
X2179000Y-3218500D02*
X2139000Y-3258500D01*
X2329500Y-3028000D02*
X2369500Y-3068000D01*
X2369500Y-3028000D02*
X2329500Y-3068000D01*
X2393000Y-5250500D02*
X2433000Y-5290500D01*
X2433000Y-5250500D02*
X2393000Y-5290500D01*
X2534370Y-4788740D02*
X2574370Y-4828740D01*
X2574370Y-4788740D02*
X2534370Y-4828740D01*
X2583500Y-2901000D02*
X2623500Y-2941000D01*
X2623500Y-2901000D02*
X2583500Y-2941000D01*
X2710500Y-3790000D02*
X2750500Y-3830000D01*
X2750500Y-3790000D02*
X2710500Y-3830000D01*
X2748600Y-5822000D02*
X2788600Y-5862000D01*
X2788600Y-5822000D02*
X2748600Y-5862000D01*
X2774000Y-4298000D02*
X2814000Y-4338000D01*
X2814000Y-4298000D02*
X2774000Y-4338000D01*
X2774000Y-6139500D02*
X2814000Y-6179500D01*
X2814000Y-6139500D02*
X2774000Y-6179500D01*
X2812025Y-5225025D02*
X2852025Y-5265025D01*
X2852025Y-5225025D02*
X2812025Y-5265025D01*
X2875600Y-6406200D02*
X2915600Y-6446200D01*
X2915600Y-6406200D02*
X2875600Y-6446200D01*
X2901000Y-2901000D02*
X2941000Y-2941000D01*
X2941000Y-2901000D02*
X2901000Y-2941000D01*
X2901000Y-4425000D02*
X2941000Y-4465000D01*
X2941000Y-4425000D02*
X2901000Y-4465000D01*
X2901000Y-5377500D02*
X2941000Y-5417500D01*
X2941000Y-5377500D02*
X2901000Y-5417500D01*
X2964500Y-5250500D02*
X3004500Y-5290500D01*
X3004500Y-5250500D02*
X2964500Y-5290500D01*
X2964500Y-5949000D02*
X3004500Y-5989000D01*
X3004500Y-5949000D02*
X2964500Y-5989000D01*
X2964500Y-6457000D02*
X3004500Y-6497000D01*
X3004500Y-6457000D02*
X2964500Y-6497000D01*
X3002600Y-3282000D02*
X3042600Y-3322000D01*
X3042600Y-3282000D02*
X3002600Y-3322000D01*
X3091500Y-4425000D02*
X3131500Y-4465000D01*
X3131500Y-4425000D02*
X3091500Y-4465000D01*
X3091500Y-4615500D02*
X3131500Y-4655500D01*
X3131500Y-4615500D02*
X3091500Y-4655500D01*
X3091500Y-5631500D02*
X3131500Y-5671500D01*
X3131500Y-5631500D02*
X3091500Y-5671500D01*
X3104200Y-6076000D02*
X3144200Y-6116000D01*
X3144200Y-6076000D02*
X3104200Y-6116000D01*
X3205800Y-3510600D02*
X3245800Y-3550600D01*
X3245800Y-3510600D02*
X3205800Y-3550600D01*
X3218500Y-2901000D02*
X3258500Y-2941000D01*
X3258500Y-2901000D02*
X3218500Y-2941000D01*
X3218500Y-6203000D02*
X3258500Y-6243000D01*
X3258500Y-6203000D02*
X3218500Y-6243000D01*
X3282000Y-4488500D02*
X3322000Y-4528500D01*
X3322000Y-4488500D02*
X3282000Y-4528500D01*
X3354500Y-4038920D02*
X3394500Y-4078920D01*
X3394500Y-4038920D02*
X3354500Y-4078920D01*
X3369230Y-4248760D02*
X3409230Y-4288760D01*
X3409230Y-4248760D02*
X3369230Y-4288760D01*
X3409000Y-5314000D02*
X3449000Y-5354000D01*
X3449000Y-5314000D02*
X3409000Y-5354000D01*
X3409000Y-5758500D02*
X3449000Y-5798500D01*
X3449000Y-5758500D02*
X3409000Y-5798500D01*
X3463500Y-3853500D02*
X3503500Y-3893500D01*
X3503500Y-3853500D02*
X3463500Y-3893500D01*
X3485200Y-4577400D02*
X3525200Y-4617400D01*
X3525200Y-4577400D02*
X3485200Y-4617400D01*
X3536000Y-2901000D02*
X3576000Y-2941000D01*
X3576000Y-2901000D02*
X3536000Y-2941000D01*
X3536000Y-3485200D02*
X3576000Y-3525200D01*
X3576000Y-3485200D02*
X3536000Y-3525200D01*
X3536000Y-5377500D02*
X3576000Y-5417500D01*
X3576000Y-5377500D02*
X3536000Y-5417500D01*
X3541080Y-5108260D02*
X3581080Y-5148260D01*
X3581080Y-5108260D02*
X3541080Y-5148260D01*
X3586800Y-5542600D02*
X3626800Y-5582600D01*
X3626800Y-5542600D02*
X3586800Y-5582600D01*
X3663000Y-5631500D02*
X3703000Y-5671500D01*
X3703000Y-5631500D02*
X3663000Y-5671500D01*
X3663000Y-5758500D02*
X3703000Y-5798500D01*
X3703000Y-5758500D02*
X3663000Y-5798500D01*
X3692756Y-4470454D02*
X3732756Y-4510454D01*
X3732756Y-4470454D02*
X3692756Y-4510454D01*
X3713800Y-3857118D02*
X3753800Y-3897118D01*
X3753800Y-3857118D02*
X3713800Y-3897118D01*
X3790000Y-5504500D02*
X3830000Y-5544500D01*
X3830000Y-5504500D02*
X3790000Y-5544500D01*
X3790000Y-5631500D02*
X3830000Y-5671500D01*
X3830000Y-5631500D02*
X3790000Y-5671500D01*
X3790000Y-5758500D02*
X3830000Y-5798500D01*
X3830000Y-5758500D02*
X3790000Y-5798500D01*
X3853500Y-2901000D02*
X3893500Y-2941000D01*
X3893500Y-2901000D02*
X3853500Y-2941000D01*
X3853500Y-3282000D02*
X3893500Y-3322000D01*
X3893500Y-3282000D02*
X3853500Y-3322000D01*
X3853500Y-3663000D02*
X3893500Y-3703000D01*
X3893500Y-3663000D02*
X3853500Y-3703000D01*
X3917000Y-4488500D02*
X3957000Y-4528500D01*
X3957000Y-4488500D02*
X3917000Y-4528500D01*
X3954120Y-4117200D02*
X3994120Y-4157200D01*
X3994120Y-4117200D02*
X3954120Y-4157200D01*
X4026620Y-4239120D02*
X4066620Y-4279120D01*
X4066620Y-4239120D02*
X4026620Y-4279120D01*
X4056700Y-5428300D02*
X4096700Y-5468300D01*
X4096700Y-5428300D02*
X4056700Y-5468300D01*
X4171000Y-2901000D02*
X4211000Y-2941000D01*
X4211000Y-2901000D02*
X4171000Y-2941000D01*
X4171000Y-3282000D02*
X4211000Y-3322000D01*
X4211000Y-3282000D02*
X4171000Y-3322000D01*
X4171000Y-3599500D02*
X4211000Y-3639500D01*
X4211000Y-3599500D02*
X4171000Y-3639500D01*
X4171000Y-3980500D02*
X4211000Y-4020500D01*
X4211000Y-3980500D02*
X4171000Y-4020500D01*
X4171000Y-4488500D02*
X4211000Y-4528500D01*
X4211000Y-4488500D02*
X4171000Y-4528500D01*
X4196400Y-6101400D02*
X4236400Y-6141400D01*
X4236400Y-6101400D02*
X4196400Y-6141400D01*
X4196400Y-6246400D02*
X4236400Y-6286400D01*
X4236400Y-6246400D02*
X4196400Y-6286400D01*
X4196400Y-6609400D02*
X4236400Y-6649400D01*
X4236400Y-6609400D02*
X4196400Y-6649400D01*
X4221800Y-4628200D02*
X4261800Y-4668200D01*
X4261800Y-4628200D02*
X4221800Y-4668200D01*
X4262440Y-5837240D02*
X4302440Y-5877240D01*
X4302440Y-5837240D02*
X4262440Y-5877240D01*
X4357532Y-4117200D02*
X4397532Y-4157200D01*
X4397532Y-4117200D02*
X4357532Y-4157200D01*
X4361500Y-3853500D02*
X4401500Y-3893500D01*
X4401500Y-3853500D02*
X4361500Y-3893500D01*
X4361500Y-3980500D02*
X4401500Y-4020500D01*
X4401500Y-3980500D02*
X4361500Y-4020500D01*
X4425000Y-5441000D02*
X4465000Y-5481000D01*
X4465000Y-5441000D02*
X4425000Y-5481000D01*
X4488500Y-3028000D02*
X4528500Y-3068000D01*
X4528500Y-3028000D02*
X4488500Y-3068000D01*
X4488500Y-3599500D02*
X4528500Y-3639500D01*
X4528500Y-3599500D02*
X4488500Y-3639500D01*
X4552000Y-5123500D02*
X4592000Y-5163500D01*
X4592000Y-5123500D02*
X4552000Y-5163500D01*
X4602800Y-5898200D02*
X4642800Y-5938200D01*
X4642800Y-5898200D02*
X4602800Y-5938200D01*
X4628200Y-3968000D02*
X4668200Y-4008000D01*
X4668200Y-3968000D02*
X4628200Y-4008000D01*
X4806000Y-3155000D02*
X4846000Y-3195000D01*
X4846000Y-3155000D02*
X4806000Y-3195000D01*
X5110800Y-3282000D02*
X5150800Y-3322000D01*
X5150800Y-3282000D02*
X5110800Y-3322000D01*
X5110800Y-5568000D02*
X5150800Y-5608000D01*
X5150800Y-5568000D02*
X5110800Y-5608000D01*
X2386300Y-4089400D02*
G75*
G03*
X2286300Y-4089400I-50000J0D01*
G01*
X2286300Y-4089400D02*
G75*
G03*
X2386300Y-4089400I50000J0D01*
G01*
X2386800Y-5054600D02*
G75*
G03*
X2286800Y-5054600I-50000J0D01*
G01*
X2286800Y-5054600D02*
G75*
G03*
X2386800Y-5054600I50000J0D01*
G01*
X2386800Y-6172200D02*
G75*
G03*
X2286800Y-6172200I-50000J0D01*
G01*
X2286800Y-6172200D02*
G75*
G03*
X2386800Y-6172200I50000J0D01*
G01*
X2640300Y-4089400D02*
G75*
G03*
X2540300Y-4089400I-50000J0D01*
G01*
X2540300Y-4089400D02*
G75*
G03*
X2640300Y-4089400I50000J0D01*
G01*
X2640800Y-5054600D02*
G75*
G03*
X2540800Y-5054600I-50000J0D01*
G01*
X2540800Y-5054600D02*
G75*
G03*
X2640800Y-5054600I50000J0D01*
G01*
X2640800Y-6172200D02*
G75*
G03*
X2540800Y-6172200I-50000J0D01*
G01*
X2540800Y-6172200D02*
G75*
G03*
X2640800Y-6172200I50000J0D01*
G01*
D11*
X2211577Y-7832344D02*
X2211577Y-7632344D01*
X2211577Y-7632344D02*
X2259196Y-7632344D01*
X2259196Y-7632344D02*
X2287767Y-7641868D01*
X2287767Y-7641868D02*
X2306815Y-7660915D01*
X2306815Y-7660915D02*
X2316339Y-7679963D01*
X2316339Y-7679963D02*
X2325863Y-7718058D01*
X2325863Y-7718058D02*
X2325863Y-7746629D01*
X2325863Y-7746629D02*
X2316339Y-7784725D01*
X2316339Y-7784725D02*
X2306815Y-7803772D01*
X2306815Y-7803772D02*
X2287767Y-7822820D01*
X2287767Y-7822820D02*
X2259196Y-7832344D01*
X2259196Y-7832344D02*
X2211577Y-7832344D01*
X2411577Y-7832344D02*
X2411577Y-7699010D01*
X2411577Y-7737106D02*
X2421101Y-7718058D01*
X2421101Y-7718058D02*
X2430624Y-7708534D01*
X2430624Y-7708534D02*
X2449672Y-7699010D01*
X2449672Y-7699010D02*
X2468720Y-7699010D01*
X2535386Y-7832344D02*
X2535386Y-7699010D01*
X2535386Y-7632344D02*
X2525863Y-7641868D01*
X2525863Y-7641868D02*
X2535386Y-7651391D01*
X2535386Y-7651391D02*
X2544910Y-7641868D01*
X2544910Y-7641868D02*
X2535386Y-7632344D01*
X2535386Y-7632344D02*
X2535386Y-7651391D01*
X2659196Y-7832344D02*
X2640148Y-7822820D01*
X2640148Y-7822820D02*
X2630624Y-7803772D01*
X2630624Y-7803772D02*
X2630624Y-7632344D01*
X2763958Y-7832344D02*
X2744910Y-7822820D01*
X2744910Y-7822820D02*
X2735386Y-7803772D01*
X2735386Y-7803772D02*
X2735386Y-7632344D01*
X2992529Y-7832344D02*
X2992529Y-7632344D01*
X2992529Y-7632344D02*
X3059196Y-7775201D01*
X3059196Y-7775201D02*
X3125862Y-7632344D01*
X3125862Y-7632344D02*
X3125862Y-7832344D01*
X3306815Y-7832344D02*
X3306815Y-7727582D01*
X3306815Y-7727582D02*
X3297291Y-7708534D01*
X3297291Y-7708534D02*
X3278243Y-7699010D01*
X3278243Y-7699010D02*
X3240148Y-7699010D01*
X3240148Y-7699010D02*
X3221101Y-7708534D01*
X3306815Y-7822820D02*
X3287767Y-7832344D01*
X3287767Y-7832344D02*
X3240148Y-7832344D01*
X3240148Y-7832344D02*
X3221101Y-7822820D01*
X3221101Y-7822820D02*
X3211577Y-7803772D01*
X3211577Y-7803772D02*
X3211577Y-7784725D01*
X3211577Y-7784725D02*
X3221101Y-7765677D01*
X3221101Y-7765677D02*
X3240148Y-7756153D01*
X3240148Y-7756153D02*
X3287767Y-7756153D01*
X3287767Y-7756153D02*
X3306815Y-7746629D01*
X3402053Y-7699010D02*
X3402053Y-7899010D01*
X3402053Y-7708534D02*
X3421101Y-7699010D01*
X3421101Y-7699010D02*
X3459196Y-7699010D01*
X3459196Y-7699010D02*
X3478243Y-7708534D01*
X3478243Y-7708534D02*
X3487767Y-7718058D01*
X3487767Y-7718058D02*
X3497291Y-7737106D01*
X3497291Y-7737106D02*
X3497291Y-7794248D01*
X3497291Y-7794248D02*
X3487767Y-7813296D01*
X3487767Y-7813296D02*
X3478243Y-7822820D01*
X3478243Y-7822820D02*
X3459196Y-7832344D01*
X3459196Y-7832344D02*
X3421101Y-7832344D01*
X3421101Y-7832344D02*
X3402053Y-7822820D01*
X3583005Y-7813296D02*
X3592529Y-7822820D01*
X3592529Y-7822820D02*
X3583005Y-7832344D01*
X3583005Y-7832344D02*
X3573482Y-7822820D01*
X3573482Y-7822820D02*
X3583005Y-7813296D01*
X3583005Y-7813296D02*
X3583005Y-7832344D01*
X3583005Y-7708534D02*
X3592529Y-7718058D01*
X3592529Y-7718058D02*
X3583005Y-7727582D01*
X3583005Y-7727582D02*
X3573482Y-7718058D01*
X3573482Y-7718058D02*
X3583005Y-7708534D01*
X3583005Y-7708534D02*
X3583005Y-7727582D01*
D10*
X1910800Y-8140860D02*
X1950800Y-8180860D01*
X1950800Y-8140860D02*
X1910800Y-8180860D01*
D11*
X2249672Y-8052344D02*
X2268720Y-8052344D01*
X2268720Y-8052344D02*
X2287767Y-8061868D01*
X2287767Y-8061868D02*
X2297291Y-8071391D01*
X2297291Y-8071391D02*
X2306815Y-8090439D01*
X2306815Y-8090439D02*
X2316339Y-8128534D01*
X2316339Y-8128534D02*
X2316339Y-8176153D01*
X2316339Y-8176153D02*
X2306815Y-8214248D01*
X2306815Y-8214248D02*
X2297291Y-8233296D01*
X2297291Y-8233296D02*
X2287767Y-8242820D01*
X2287767Y-8242820D02*
X2268720Y-8252344D01*
X2268720Y-8252344D02*
X2249672Y-8252344D01*
X2249672Y-8252344D02*
X2230624Y-8242820D01*
X2230624Y-8242820D02*
X2221101Y-8233296D01*
X2221101Y-8233296D02*
X2211577Y-8214248D01*
X2211577Y-8214248D02*
X2202053Y-8176153D01*
X2202053Y-8176153D02*
X2202053Y-8128534D01*
X2202053Y-8128534D02*
X2211577Y-8090439D01*
X2211577Y-8090439D02*
X2221101Y-8071391D01*
X2221101Y-8071391D02*
X2230624Y-8061868D01*
X2230624Y-8061868D02*
X2249672Y-8052344D01*
X2402053Y-8233296D02*
X2411577Y-8242820D01*
X2411577Y-8242820D02*
X2402053Y-8252344D01*
X2402053Y-8252344D02*
X2392529Y-8242820D01*
X2392529Y-8242820D02*
X2402053Y-8233296D01*
X2402053Y-8233296D02*
X2402053Y-8252344D01*
X2583005Y-8119010D02*
X2583005Y-8252344D01*
X2535386Y-8042820D02*
X2487767Y-8185677D01*
X2487767Y-8185677D02*
X2611577Y-8185677D01*
X2725863Y-8052344D02*
X2744910Y-8052344D01*
X2744910Y-8052344D02*
X2763958Y-8061868D01*
X2763958Y-8061868D02*
X2773482Y-8071391D01*
X2773482Y-8071391D02*
X2783005Y-8090439D01*
X2783005Y-8090439D02*
X2792529Y-8128534D01*
X2792529Y-8128534D02*
X2792529Y-8176153D01*
X2792529Y-8176153D02*
X2783005Y-8214248D01*
X2783005Y-8214248D02*
X2773482Y-8233296D01*
X2773482Y-8233296D02*
X2763958Y-8242820D01*
X2763958Y-8242820D02*
X2744910Y-8252344D01*
X2744910Y-8252344D02*
X2725863Y-8252344D01*
X2725863Y-8252344D02*
X2706815Y-8242820D01*
X2706815Y-8242820D02*
X2697291Y-8233296D01*
X2697291Y-8233296D02*
X2687767Y-8214248D01*
X2687767Y-8214248D02*
X2678244Y-8176153D01*
X2678244Y-8176153D02*
X2678244Y-8128534D01*
X2678244Y-8128534D02*
X2687767Y-8090439D01*
X2687767Y-8090439D02*
X2697291Y-8071391D01*
X2697291Y-8071391D02*
X2706815Y-8061868D01*
X2706815Y-8061868D02*
X2725863Y-8052344D01*
X2916339Y-8052344D02*
X2935386Y-8052344D01*
X2935386Y-8052344D02*
X2954434Y-8061868D01*
X2954434Y-8061868D02*
X2963958Y-8071391D01*
X2963958Y-8071391D02*
X2973482Y-8090439D01*
X2973482Y-8090439D02*
X2983005Y-8128534D01*
X2983005Y-8128534D02*
X2983005Y-8176153D01*
X2983005Y-8176153D02*
X2973482Y-8214248D01*
X2973482Y-8214248D02*
X2963958Y-8233296D01*
X2963958Y-8233296D02*
X2954434Y-8242820D01*
X2954434Y-8242820D02*
X2935386Y-8252344D01*
X2935386Y-8252344D02*
X2916339Y-8252344D01*
X2916339Y-8252344D02*
X2897291Y-8242820D01*
X2897291Y-8242820D02*
X2887767Y-8233296D01*
X2887767Y-8233296D02*
X2878243Y-8214248D01*
X2878243Y-8214248D02*
X2868720Y-8176153D01*
X2868720Y-8176153D02*
X2868720Y-8128534D01*
X2868720Y-8128534D02*
X2878243Y-8090439D01*
X2878243Y-8090439D02*
X2887767Y-8071391D01*
X2887767Y-8071391D02*
X2897291Y-8061868D01*
X2897291Y-8061868D02*
X2916339Y-8052344D01*
X3068720Y-8252344D02*
X3068720Y-8119010D01*
X3068720Y-8138058D02*
X3078243Y-8128534D01*
X3078243Y-8128534D02*
X3097291Y-8119010D01*
X3097291Y-8119010D02*
X3125863Y-8119010D01*
X3125863Y-8119010D02*
X3144910Y-8128534D01*
X3144910Y-8128534D02*
X3154434Y-8147582D01*
X3154434Y-8147582D02*
X3154434Y-8252344D01*
X3154434Y-8147582D02*
X3163958Y-8128534D01*
X3163958Y-8128534D02*
X3183005Y-8119010D01*
X3183005Y-8119010D02*
X3211577Y-8119010D01*
X3211577Y-8119010D02*
X3230624Y-8128534D01*
X3230624Y-8128534D02*
X3240148Y-8147582D01*
X3240148Y-8147582D02*
X3240148Y-8252344D01*
X3335386Y-8252344D02*
X3335386Y-8119010D01*
X3335386Y-8138058D02*
X3344910Y-8128534D01*
X3344910Y-8128534D02*
X3363958Y-8119010D01*
X3363958Y-8119010D02*
X3392529Y-8119010D01*
X3392529Y-8119010D02*
X3411577Y-8128534D01*
X3411577Y-8128534D02*
X3421101Y-8147582D01*
X3421101Y-8147582D02*
X3421101Y-8252344D01*
X3421101Y-8147582D02*
X3430624Y-8128534D01*
X3430624Y-8128534D02*
X3449672Y-8119010D01*
X3449672Y-8119010D02*
X3478243Y-8119010D01*
X3478243Y-8119010D02*
X3497291Y-8128534D01*
X3497291Y-8128534D02*
X3506815Y-8147582D01*
X3506815Y-8147582D02*
X3506815Y-8252344D01*
X3897291Y-8042820D02*
X3725863Y-8299963D01*
X4154434Y-8052344D02*
X4173482Y-8052344D01*
X4173482Y-8052344D02*
X4192529Y-8061868D01*
X4192529Y-8061868D02*
X4202053Y-8071391D01*
X4202053Y-8071391D02*
X4211577Y-8090439D01*
X4211577Y-8090439D02*
X4221101Y-8128534D01*
X4221101Y-8128534D02*
X4221101Y-8176153D01*
X4221101Y-8176153D02*
X4211577Y-8214248D01*
X4211577Y-8214248D02*
X4202053Y-8233296D01*
X4202053Y-8233296D02*
X4192529Y-8242820D01*
X4192529Y-8242820D02*
X4173482Y-8252344D01*
X4173482Y-8252344D02*
X4154434Y-8252344D01*
X4154434Y-8252344D02*
X4135386Y-8242820D01*
X4135386Y-8242820D02*
X4125863Y-8233296D01*
X4125863Y-8233296D02*
X4116339Y-8214248D01*
X4116339Y-8214248D02*
X4106815Y-8176153D01*
X4106815Y-8176153D02*
X4106815Y-8128534D01*
X4106815Y-8128534D02*
X4116339Y-8090439D01*
X4116339Y-8090439D02*
X4125863Y-8071391D01*
X4125863Y-8071391D02*
X4135386Y-8061868D01*
X4135386Y-8061868D02*
X4154434Y-8052344D01*
X4306815Y-8233296D02*
X4316339Y-8242820D01*
X4316339Y-8242820D02*
X4306815Y-8252344D01*
X4306815Y-8252344D02*
X4297291Y-8242820D01*
X4297291Y-8242820D02*
X4306815Y-8233296D01*
X4306815Y-8233296D02*
X4306815Y-8252344D01*
X4440148Y-8052344D02*
X4459196Y-8052344D01*
X4459196Y-8052344D02*
X4478244Y-8061868D01*
X4478244Y-8061868D02*
X4487768Y-8071391D01*
X4487768Y-8071391D02*
X4497291Y-8090439D01*
X4497291Y-8090439D02*
X4506815Y-8128534D01*
X4506815Y-8128534D02*
X4506815Y-8176153D01*
X4506815Y-8176153D02*
X4497291Y-8214248D01*
X4497291Y-8214248D02*
X4487768Y-8233296D01*
X4487768Y-8233296D02*
X4478244Y-8242820D01*
X4478244Y-8242820D02*
X4459196Y-8252344D01*
X4459196Y-8252344D02*
X4440148Y-8252344D01*
X4440148Y-8252344D02*
X4421101Y-8242820D01*
X4421101Y-8242820D02*
X4411577Y-8233296D01*
X4411577Y-8233296D02*
X4402053Y-8214248D01*
X4402053Y-8214248D02*
X4392529Y-8176153D01*
X4392529Y-8176153D02*
X4392529Y-8128534D01*
X4392529Y-8128534D02*
X4402053Y-8090439D01*
X4402053Y-8090439D02*
X4411577Y-8071391D01*
X4411577Y-8071391D02*
X4421101Y-8061868D01*
X4421101Y-8061868D02*
X4440148Y-8052344D01*
X4697291Y-8252344D02*
X4583006Y-8252344D01*
X4640148Y-8252344D02*
X4640148Y-8052344D01*
X4640148Y-8052344D02*
X4621101Y-8080915D01*
X4621101Y-8080915D02*
X4602053Y-8099963D01*
X4602053Y-8099963D02*
X4583006Y-8109487D01*
X4878244Y-8052344D02*
X4783006Y-8052344D01*
X4783006Y-8052344D02*
X4773482Y-8147582D01*
X4773482Y-8147582D02*
X4783006Y-8138058D01*
X4783006Y-8138058D02*
X4802053Y-8128534D01*
X4802053Y-8128534D02*
X4849672Y-8128534D01*
X4849672Y-8128534D02*
X4868720Y-8138058D01*
X4868720Y-8138058D02*
X4878244Y-8147582D01*
X4878244Y-8147582D02*
X4887768Y-8166629D01*
X4887768Y-8166629D02*
X4887768Y-8214248D01*
X4887768Y-8214248D02*
X4878244Y-8233296D01*
X4878244Y-8233296D02*
X4868720Y-8242820D01*
X4868720Y-8242820D02*
X4849672Y-8252344D01*
X4849672Y-8252344D02*
X4802053Y-8252344D01*
X4802053Y-8252344D02*
X4783006Y-8242820D01*
X4783006Y-8242820D02*
X4773482Y-8233296D01*
X4954434Y-8052344D02*
X5087768Y-8052344D01*
X5087768Y-8052344D02*
X5002053Y-8252344D01*
X5154434Y-8052344D02*
X5154434Y-8090439D01*
X5230625Y-8052344D02*
X5230625Y-8090439D01*
X5525863Y-8328534D02*
X5516339Y-8319010D01*
X5516339Y-8319010D02*
X5497291Y-8290439D01*
X5497291Y-8290439D02*
X5487768Y-8271391D01*
X5487768Y-8271391D02*
X5478244Y-8242820D01*
X5478244Y-8242820D02*
X5468720Y-8195201D01*
X5468720Y-8195201D02*
X5468720Y-8157106D01*
X5468720Y-8157106D02*
X5478244Y-8109487D01*
X5478244Y-8109487D02*
X5487768Y-8080915D01*
X5487768Y-8080915D02*
X5497291Y-8061868D01*
X5497291Y-8061868D02*
X5516339Y-8033296D01*
X5516339Y-8033296D02*
X5525863Y-8023772D01*
X5583006Y-8052344D02*
X5716339Y-8052344D01*
X5716339Y-8052344D02*
X5630625Y-8252344D01*
X5878244Y-8052344D02*
X5840148Y-8052344D01*
X5840148Y-8052344D02*
X5821101Y-8061868D01*
X5821101Y-8061868D02*
X5811577Y-8071391D01*
X5811577Y-8071391D02*
X5792529Y-8099963D01*
X5792529Y-8099963D02*
X5783006Y-8138058D01*
X5783006Y-8138058D02*
X5783006Y-8214248D01*
X5783006Y-8214248D02*
X5792529Y-8233296D01*
X5792529Y-8233296D02*
X5802053Y-8242820D01*
X5802053Y-8242820D02*
X5821101Y-8252344D01*
X5821101Y-8252344D02*
X5859196Y-8252344D01*
X5859196Y-8252344D02*
X5878244Y-8242820D01*
X5878244Y-8242820D02*
X5887768Y-8233296D01*
X5887768Y-8233296D02*
X5897291Y-8214248D01*
X5897291Y-8214248D02*
X5897291Y-8166629D01*
X5897291Y-8166629D02*
X5887768Y-8147582D01*
X5887768Y-8147582D02*
X5878244Y-8138058D01*
X5878244Y-8138058D02*
X5859196Y-8128534D01*
X5859196Y-8128534D02*
X5821101Y-8128534D01*
X5821101Y-8128534D02*
X5802053Y-8138058D01*
X5802053Y-8138058D02*
X5792529Y-8147582D01*
X5792529Y-8147582D02*
X5783006Y-8166629D01*
X6135387Y-8252344D02*
X6135387Y-8052344D01*
X6221101Y-8252344D02*
X6221101Y-8147582D01*
X6221101Y-8147582D02*
X6211577Y-8128534D01*
X6211577Y-8128534D02*
X6192530Y-8119010D01*
X6192530Y-8119010D02*
X6163958Y-8119010D01*
X6163958Y-8119010D02*
X6144910Y-8128534D01*
X6144910Y-8128534D02*
X6135387Y-8138058D01*
X6344910Y-8252344D02*
X6325863Y-8242820D01*
X6325863Y-8242820D02*
X6316339Y-8233296D01*
X6316339Y-8233296D02*
X6306815Y-8214248D01*
X6306815Y-8214248D02*
X6306815Y-8157106D01*
X6306815Y-8157106D02*
X6316339Y-8138058D01*
X6316339Y-8138058D02*
X6325863Y-8128534D01*
X6325863Y-8128534D02*
X6344910Y-8119010D01*
X6344910Y-8119010D02*
X6373482Y-8119010D01*
X6373482Y-8119010D02*
X6392530Y-8128534D01*
X6392530Y-8128534D02*
X6402053Y-8138058D01*
X6402053Y-8138058D02*
X6411577Y-8157106D01*
X6411577Y-8157106D02*
X6411577Y-8214248D01*
X6411577Y-8214248D02*
X6402053Y-8233296D01*
X6402053Y-8233296D02*
X6392530Y-8242820D01*
X6392530Y-8242820D02*
X6373482Y-8252344D01*
X6373482Y-8252344D02*
X6344910Y-8252344D01*
X6525863Y-8252344D02*
X6506815Y-8242820D01*
X6506815Y-8242820D02*
X6497291Y-8223772D01*
X6497291Y-8223772D02*
X6497291Y-8052344D01*
X6678244Y-8242820D02*
X6659196Y-8252344D01*
X6659196Y-8252344D02*
X6621101Y-8252344D01*
X6621101Y-8252344D02*
X6602053Y-8242820D01*
X6602053Y-8242820D02*
X6592530Y-8223772D01*
X6592530Y-8223772D02*
X6592530Y-8147582D01*
X6592530Y-8147582D02*
X6602053Y-8128534D01*
X6602053Y-8128534D02*
X6621101Y-8119010D01*
X6621101Y-8119010D02*
X6659196Y-8119010D01*
X6659196Y-8119010D02*
X6678244Y-8128534D01*
X6678244Y-8128534D02*
X6687768Y-8147582D01*
X6687768Y-8147582D02*
X6687768Y-8166629D01*
X6687768Y-8166629D02*
X6592530Y-8185677D01*
X6763958Y-8242820D02*
X6783006Y-8252344D01*
X6783006Y-8252344D02*
X6821101Y-8252344D01*
X6821101Y-8252344D02*
X6840149Y-8242820D01*
X6840149Y-8242820D02*
X6849672Y-8223772D01*
X6849672Y-8223772D02*
X6849672Y-8214248D01*
X6849672Y-8214248D02*
X6840149Y-8195201D01*
X6840149Y-8195201D02*
X6821101Y-8185677D01*
X6821101Y-8185677D02*
X6792530Y-8185677D01*
X6792530Y-8185677D02*
X6773482Y-8176153D01*
X6773482Y-8176153D02*
X6763958Y-8157106D01*
X6763958Y-8157106D02*
X6763958Y-8147582D01*
X6763958Y-8147582D02*
X6773482Y-8128534D01*
X6773482Y-8128534D02*
X6792530Y-8119010D01*
X6792530Y-8119010D02*
X6821101Y-8119010D01*
X6821101Y-8119010D02*
X6840149Y-8128534D01*
X6916339Y-8328534D02*
X6925863Y-8319010D01*
X6925863Y-8319010D02*
X6944911Y-8290439D01*
X6944911Y-8290439D02*
X6954434Y-8271391D01*
X6954434Y-8271391D02*
X6963958Y-8242820D01*
X6963958Y-8242820D02*
X6973482Y-8195201D01*
X6973482Y-8195201D02*
X6973482Y-8157106D01*
X6973482Y-8157106D02*
X6963958Y-8109487D01*
X6963958Y-8109487D02*
X6954434Y-8080915D01*
X6954434Y-8080915D02*
X6944911Y-8061868D01*
X6944911Y-8061868D02*
X6925863Y-8033296D01*
X6925863Y-8033296D02*
X6916339Y-8023772D01*
D10*
X1950800Y-8424860D02*
G75*
G03*
X1850800Y-8424860I-50000J0D01*
G01*
X1850800Y-8424860D02*
G75*
G03*
X1950800Y-8424860I50000J0D01*
G01*
D11*
X2316339Y-8516344D02*
X2202053Y-8516344D01*
X2259196Y-8516344D02*
X2259196Y-8316344D01*
X2259196Y-8316344D02*
X2240148Y-8344915D01*
X2240148Y-8344915D02*
X2221101Y-8363963D01*
X2221101Y-8363963D02*
X2202053Y-8373487D01*
X2402053Y-8497296D02*
X2411577Y-8506820D01*
X2411577Y-8506820D02*
X2402053Y-8516344D01*
X2402053Y-8516344D02*
X2392529Y-8506820D01*
X2392529Y-8506820D02*
X2402053Y-8497296D01*
X2402053Y-8497296D02*
X2402053Y-8516344D01*
X2535386Y-8316344D02*
X2554434Y-8316344D01*
X2554434Y-8316344D02*
X2573482Y-8325868D01*
X2573482Y-8325868D02*
X2583005Y-8335391D01*
X2583005Y-8335391D02*
X2592529Y-8354439D01*
X2592529Y-8354439D02*
X2602053Y-8392534D01*
X2602053Y-8392534D02*
X2602053Y-8440153D01*
X2602053Y-8440153D02*
X2592529Y-8478249D01*
X2592529Y-8478249D02*
X2583005Y-8497296D01*
X2583005Y-8497296D02*
X2573482Y-8506820D01*
X2573482Y-8506820D02*
X2554434Y-8516344D01*
X2554434Y-8516344D02*
X2535386Y-8516344D01*
X2535386Y-8516344D02*
X2516339Y-8506820D01*
X2516339Y-8506820D02*
X2506815Y-8497296D01*
X2506815Y-8497296D02*
X2497291Y-8478249D01*
X2497291Y-8478249D02*
X2487767Y-8440153D01*
X2487767Y-8440153D02*
X2487767Y-8392534D01*
X2487767Y-8392534D02*
X2497291Y-8354439D01*
X2497291Y-8354439D02*
X2506815Y-8335391D01*
X2506815Y-8335391D02*
X2516339Y-8325868D01*
X2516339Y-8325868D02*
X2535386Y-8316344D01*
X2725863Y-8316344D02*
X2744910Y-8316344D01*
X2744910Y-8316344D02*
X2763958Y-8325868D01*
X2763958Y-8325868D02*
X2773482Y-8335391D01*
X2773482Y-8335391D02*
X2783005Y-8354439D01*
X2783005Y-8354439D02*
X2792529Y-8392534D01*
X2792529Y-8392534D02*
X2792529Y-8440153D01*
X2792529Y-8440153D02*
X2783005Y-8478249D01*
X2783005Y-8478249D02*
X2773482Y-8497296D01*
X2773482Y-8497296D02*
X2763958Y-8506820D01*
X2763958Y-8506820D02*
X2744910Y-8516344D01*
X2744910Y-8516344D02*
X2725863Y-8516344D01*
X2725863Y-8516344D02*
X2706815Y-8506820D01*
X2706815Y-8506820D02*
X2697291Y-8497296D01*
X2697291Y-8497296D02*
X2687767Y-8478249D01*
X2687767Y-8478249D02*
X2678244Y-8440153D01*
X2678244Y-8440153D02*
X2678244Y-8392534D01*
X2678244Y-8392534D02*
X2687767Y-8354439D01*
X2687767Y-8354439D02*
X2697291Y-8335391D01*
X2697291Y-8335391D02*
X2706815Y-8325868D01*
X2706815Y-8325868D02*
X2725863Y-8316344D01*
X2916339Y-8316344D02*
X2935386Y-8316344D01*
X2935386Y-8316344D02*
X2954434Y-8325868D01*
X2954434Y-8325868D02*
X2963958Y-8335391D01*
X2963958Y-8335391D02*
X2973482Y-8354439D01*
X2973482Y-8354439D02*
X2983005Y-8392534D01*
X2983005Y-8392534D02*
X2983005Y-8440153D01*
X2983005Y-8440153D02*
X2973482Y-8478249D01*
X2973482Y-8478249D02*
X2963958Y-8497296D01*
X2963958Y-8497296D02*
X2954434Y-8506820D01*
X2954434Y-8506820D02*
X2935386Y-8516344D01*
X2935386Y-8516344D02*
X2916339Y-8516344D01*
X2916339Y-8516344D02*
X2897291Y-8506820D01*
X2897291Y-8506820D02*
X2887767Y-8497296D01*
X2887767Y-8497296D02*
X2878243Y-8478249D01*
X2878243Y-8478249D02*
X2868720Y-8440153D01*
X2868720Y-8440153D02*
X2868720Y-8392534D01*
X2868720Y-8392534D02*
X2878243Y-8354439D01*
X2878243Y-8354439D02*
X2887767Y-8335391D01*
X2887767Y-8335391D02*
X2897291Y-8325868D01*
X2897291Y-8325868D02*
X2916339Y-8316344D01*
X3068720Y-8516344D02*
X3068720Y-8383010D01*
X3068720Y-8402058D02*
X3078243Y-8392534D01*
X3078243Y-8392534D02*
X3097291Y-8383010D01*
X3097291Y-8383010D02*
X3125863Y-8383010D01*
X3125863Y-8383010D02*
X3144910Y-8392534D01*
X3144910Y-8392534D02*
X3154434Y-8411582D01*
X3154434Y-8411582D02*
X3154434Y-8516344D01*
X3154434Y-8411582D02*
X3163958Y-8392534D01*
X3163958Y-8392534D02*
X3183005Y-8383010D01*
X3183005Y-8383010D02*
X3211577Y-8383010D01*
X3211577Y-8383010D02*
X3230624Y-8392534D01*
X3230624Y-8392534D02*
X3240148Y-8411582D01*
X3240148Y-8411582D02*
X3240148Y-8516344D01*
X3335386Y-8516344D02*
X3335386Y-8383010D01*
X3335386Y-8402058D02*
X3344910Y-8392534D01*
X3344910Y-8392534D02*
X3363958Y-8383010D01*
X3363958Y-8383010D02*
X3392529Y-8383010D01*
X3392529Y-8383010D02*
X3411577Y-8392534D01*
X3411577Y-8392534D02*
X3421101Y-8411582D01*
X3421101Y-8411582D02*
X3421101Y-8516344D01*
X3421101Y-8411582D02*
X3430624Y-8392534D01*
X3430624Y-8392534D02*
X3449672Y-8383010D01*
X3449672Y-8383010D02*
X3478243Y-8383010D01*
X3478243Y-8383010D02*
X3497291Y-8392534D01*
X3497291Y-8392534D02*
X3506815Y-8411582D01*
X3506815Y-8411582D02*
X3506815Y-8516344D01*
X3897291Y-8306820D02*
X3725863Y-8563963D01*
X4154434Y-8316344D02*
X4173482Y-8316344D01*
X4173482Y-8316344D02*
X4192529Y-8325868D01*
X4192529Y-8325868D02*
X4202053Y-8335391D01*
X4202053Y-8335391D02*
X4211577Y-8354439D01*
X4211577Y-8354439D02*
X4221101Y-8392534D01*
X4221101Y-8392534D02*
X4221101Y-8440153D01*
X4221101Y-8440153D02*
X4211577Y-8478249D01*
X4211577Y-8478249D02*
X4202053Y-8497296D01*
X4202053Y-8497296D02*
X4192529Y-8506820D01*
X4192529Y-8506820D02*
X4173482Y-8516344D01*
X4173482Y-8516344D02*
X4154434Y-8516344D01*
X4154434Y-8516344D02*
X4135386Y-8506820D01*
X4135386Y-8506820D02*
X4125863Y-8497296D01*
X4125863Y-8497296D02*
X4116339Y-8478249D01*
X4116339Y-8478249D02*
X4106815Y-8440153D01*
X4106815Y-8440153D02*
X4106815Y-8392534D01*
X4106815Y-8392534D02*
X4116339Y-8354439D01*
X4116339Y-8354439D02*
X4125863Y-8335391D01*
X4125863Y-8335391D02*
X4135386Y-8325868D01*
X4135386Y-8325868D02*
X4154434Y-8316344D01*
X4306815Y-8497296D02*
X4316339Y-8506820D01*
X4316339Y-8506820D02*
X4306815Y-8516344D01*
X4306815Y-8516344D02*
X4297291Y-8506820D01*
X4297291Y-8506820D02*
X4306815Y-8497296D01*
X4306815Y-8497296D02*
X4306815Y-8516344D01*
X4440148Y-8316344D02*
X4459196Y-8316344D01*
X4459196Y-8316344D02*
X4478244Y-8325868D01*
X4478244Y-8325868D02*
X4487768Y-8335391D01*
X4487768Y-8335391D02*
X4497291Y-8354439D01*
X4497291Y-8354439D02*
X4506815Y-8392534D01*
X4506815Y-8392534D02*
X4506815Y-8440153D01*
X4506815Y-8440153D02*
X4497291Y-8478249D01*
X4497291Y-8478249D02*
X4487768Y-8497296D01*
X4487768Y-8497296D02*
X4478244Y-8506820D01*
X4478244Y-8506820D02*
X4459196Y-8516344D01*
X4459196Y-8516344D02*
X4440148Y-8516344D01*
X4440148Y-8516344D02*
X4421101Y-8506820D01*
X4421101Y-8506820D02*
X4411577Y-8497296D01*
X4411577Y-8497296D02*
X4402053Y-8478249D01*
X4402053Y-8478249D02*
X4392529Y-8440153D01*
X4392529Y-8440153D02*
X4392529Y-8392534D01*
X4392529Y-8392534D02*
X4402053Y-8354439D01*
X4402053Y-8354439D02*
X4411577Y-8335391D01*
X4411577Y-8335391D02*
X4421101Y-8325868D01*
X4421101Y-8325868D02*
X4440148Y-8316344D01*
X4573482Y-8316344D02*
X4697291Y-8316344D01*
X4697291Y-8316344D02*
X4630625Y-8392534D01*
X4630625Y-8392534D02*
X4659196Y-8392534D01*
X4659196Y-8392534D02*
X4678244Y-8402058D01*
X4678244Y-8402058D02*
X4687768Y-8411582D01*
X4687768Y-8411582D02*
X4697291Y-8430630D01*
X4697291Y-8430630D02*
X4697291Y-8478249D01*
X4697291Y-8478249D02*
X4687768Y-8497296D01*
X4687768Y-8497296D02*
X4678244Y-8506820D01*
X4678244Y-8506820D02*
X4659196Y-8516344D01*
X4659196Y-8516344D02*
X4602053Y-8516344D01*
X4602053Y-8516344D02*
X4583006Y-8506820D01*
X4583006Y-8506820D02*
X4573482Y-8497296D01*
X4792529Y-8516344D02*
X4830625Y-8516344D01*
X4830625Y-8516344D02*
X4849672Y-8506820D01*
X4849672Y-8506820D02*
X4859196Y-8497296D01*
X4859196Y-8497296D02*
X4878244Y-8468725D01*
X4878244Y-8468725D02*
X4887768Y-8430630D01*
X4887768Y-8430630D02*
X4887768Y-8354439D01*
X4887768Y-8354439D02*
X4878244Y-8335391D01*
X4878244Y-8335391D02*
X4868720Y-8325868D01*
X4868720Y-8325868D02*
X4849672Y-8316344D01*
X4849672Y-8316344D02*
X4811577Y-8316344D01*
X4811577Y-8316344D02*
X4792529Y-8325868D01*
X4792529Y-8325868D02*
X4783006Y-8335391D01*
X4783006Y-8335391D02*
X4773482Y-8354439D01*
X4773482Y-8354439D02*
X4773482Y-8402058D01*
X4773482Y-8402058D02*
X4783006Y-8421106D01*
X4783006Y-8421106D02*
X4792529Y-8430630D01*
X4792529Y-8430630D02*
X4811577Y-8440153D01*
X4811577Y-8440153D02*
X4849672Y-8440153D01*
X4849672Y-8440153D02*
X4868720Y-8430630D01*
X4868720Y-8430630D02*
X4878244Y-8421106D01*
X4878244Y-8421106D02*
X4887768Y-8402058D01*
X5059196Y-8383010D02*
X5059196Y-8516344D01*
X5011577Y-8306820D02*
X4963958Y-8449677D01*
X4963958Y-8449677D02*
X5087768Y-8449677D01*
X5154434Y-8316344D02*
X5154434Y-8354439D01*
X5230625Y-8316344D02*
X5230625Y-8354439D01*
X5525863Y-8592534D02*
X5516339Y-8583010D01*
X5516339Y-8583010D02*
X5497291Y-8554439D01*
X5497291Y-8554439D02*
X5487768Y-8535391D01*
X5487768Y-8535391D02*
X5478244Y-8506820D01*
X5478244Y-8506820D02*
X5468720Y-8459201D01*
X5468720Y-8459201D02*
X5468720Y-8421106D01*
X5468720Y-8421106D02*
X5478244Y-8373487D01*
X5478244Y-8373487D02*
X5487768Y-8344915D01*
X5487768Y-8344915D02*
X5497291Y-8325868D01*
X5497291Y-8325868D02*
X5516339Y-8297296D01*
X5516339Y-8297296D02*
X5525863Y-8287772D01*
X5687768Y-8316344D02*
X5649672Y-8316344D01*
X5649672Y-8316344D02*
X5630625Y-8325868D01*
X5630625Y-8325868D02*
X5621101Y-8335391D01*
X5621101Y-8335391D02*
X5602053Y-8363963D01*
X5602053Y-8363963D02*
X5592529Y-8402058D01*
X5592529Y-8402058D02*
X5592529Y-8478249D01*
X5592529Y-8478249D02*
X5602053Y-8497296D01*
X5602053Y-8497296D02*
X5611577Y-8506820D01*
X5611577Y-8506820D02*
X5630625Y-8516344D01*
X5630625Y-8516344D02*
X5668720Y-8516344D01*
X5668720Y-8516344D02*
X5687768Y-8506820D01*
X5687768Y-8506820D02*
X5697291Y-8497296D01*
X5697291Y-8497296D02*
X5706815Y-8478249D01*
X5706815Y-8478249D02*
X5706815Y-8430630D01*
X5706815Y-8430630D02*
X5697291Y-8411582D01*
X5697291Y-8411582D02*
X5687768Y-8402058D01*
X5687768Y-8402058D02*
X5668720Y-8392534D01*
X5668720Y-8392534D02*
X5630625Y-8392534D01*
X5630625Y-8392534D02*
X5611577Y-8402058D01*
X5611577Y-8402058D02*
X5602053Y-8411582D01*
X5602053Y-8411582D02*
X5592529Y-8430630D01*
X5944910Y-8516344D02*
X5944910Y-8316344D01*
X6030625Y-8516344D02*
X6030625Y-8411582D01*
X6030625Y-8411582D02*
X6021101Y-8392534D01*
X6021101Y-8392534D02*
X6002053Y-8383010D01*
X6002053Y-8383010D02*
X5973482Y-8383010D01*
X5973482Y-8383010D02*
X5954434Y-8392534D01*
X5954434Y-8392534D02*
X5944910Y-8402058D01*
X6154434Y-8516344D02*
X6135387Y-8506820D01*
X6135387Y-8506820D02*
X6125863Y-8497296D01*
X6125863Y-8497296D02*
X6116339Y-8478249D01*
X6116339Y-8478249D02*
X6116339Y-8421106D01*
X6116339Y-8421106D02*
X6125863Y-8402058D01*
X6125863Y-8402058D02*
X6135387Y-8392534D01*
X6135387Y-8392534D02*
X6154434Y-8383010D01*
X6154434Y-8383010D02*
X6183006Y-8383010D01*
X6183006Y-8383010D02*
X6202053Y-8392534D01*
X6202053Y-8392534D02*
X6211577Y-8402058D01*
X6211577Y-8402058D02*
X6221101Y-8421106D01*
X6221101Y-8421106D02*
X6221101Y-8478249D01*
X6221101Y-8478249D02*
X6211577Y-8497296D01*
X6211577Y-8497296D02*
X6202053Y-8506820D01*
X6202053Y-8506820D02*
X6183006Y-8516344D01*
X6183006Y-8516344D02*
X6154434Y-8516344D01*
X6335387Y-8516344D02*
X6316339Y-8506820D01*
X6316339Y-8506820D02*
X6306815Y-8487772D01*
X6306815Y-8487772D02*
X6306815Y-8316344D01*
X6487768Y-8506820D02*
X6468720Y-8516344D01*
X6468720Y-8516344D02*
X6430625Y-8516344D01*
X6430625Y-8516344D02*
X6411577Y-8506820D01*
X6411577Y-8506820D02*
X6402053Y-8487772D01*
X6402053Y-8487772D02*
X6402053Y-8411582D01*
X6402053Y-8411582D02*
X6411577Y-8392534D01*
X6411577Y-8392534D02*
X6430625Y-8383010D01*
X6430625Y-8383010D02*
X6468720Y-8383010D01*
X6468720Y-8383010D02*
X6487768Y-8392534D01*
X6487768Y-8392534D02*
X6497291Y-8411582D01*
X6497291Y-8411582D02*
X6497291Y-8430630D01*
X6497291Y-8430630D02*
X6402053Y-8449677D01*
X6573482Y-8506820D02*
X6592530Y-8516344D01*
X6592530Y-8516344D02*
X6630625Y-8516344D01*
X6630625Y-8516344D02*
X6649672Y-8506820D01*
X6649672Y-8506820D02*
X6659196Y-8487772D01*
X6659196Y-8487772D02*
X6659196Y-8478249D01*
X6659196Y-8478249D02*
X6649672Y-8459201D01*
X6649672Y-8459201D02*
X6630625Y-8449677D01*
X6630625Y-8449677D02*
X6602053Y-8449677D01*
X6602053Y-8449677D02*
X6583006Y-8440153D01*
X6583006Y-8440153D02*
X6573482Y-8421106D01*
X6573482Y-8421106D02*
X6573482Y-8411582D01*
X6573482Y-8411582D02*
X6583006Y-8392534D01*
X6583006Y-8392534D02*
X6602053Y-8383010D01*
X6602053Y-8383010D02*
X6630625Y-8383010D01*
X6630625Y-8383010D02*
X6649672Y-8392534D01*
X6725863Y-8592534D02*
X6735387Y-8583010D01*
X6735387Y-8583010D02*
X6754434Y-8554439D01*
X6754434Y-8554439D02*
X6763958Y-8535391D01*
X6763958Y-8535391D02*
X6773482Y-8506820D01*
X6773482Y-8506820D02*
X6783006Y-8459201D01*
X6783006Y-8459201D02*
X6783006Y-8421106D01*
X6783006Y-8421106D02*
X6773482Y-8373487D01*
X6773482Y-8373487D02*
X6763958Y-8344915D01*
X6763958Y-8344915D02*
X6754434Y-8325868D01*
X6754434Y-8325868D02*
X6735387Y-8297296D01*
X6735387Y-8297296D02*
X6725863Y-8287772D01*
M02*
