G04 #@! TF.GenerationSoftware,KiCad,Pcbnew,7.0.10*
G04 #@! TF.CreationDate,2024-11-08T18:26:31-05:00*
G04 #@! TF.ProjectId,Novel Mechanism 1 Board,4e6f7665-6c20-44d6-9563-68616e69736d,rev?*
G04 #@! TF.SameCoordinates,Original*
G04 #@! TF.FileFunction,Copper,L2,Bot*
G04 #@! TF.FilePolarity,Positive*
%FSLAX46Y46*%
G04 Gerber Fmt 4.6, Leading zero omitted, Abs format (unit mm)*
G04 Created by KiCad (PCBNEW 7.0.10) date 2024-11-08 18:26:31*
%MOMM*%
%LPD*%
G01*
G04 APERTURE LIST*
G04 #@! TA.AperFunction,ComponentPad*
%ADD10R,1.700000X1.700000*%
G04 #@! TD*
G04 #@! TA.AperFunction,ComponentPad*
%ADD11O,1.700000X1.700000*%
G04 #@! TD*
G04 #@! TA.AperFunction,ViaPad*
%ADD12C,0.800000*%
G04 #@! TD*
G04 #@! TA.AperFunction,Conductor*
%ADD13C,0.500000*%
G04 #@! TD*
G04 #@! TA.AperFunction,Conductor*
%ADD14C,0.250000*%
G04 #@! TD*
G04 APERTURE END LIST*
D10*
X23368000Y-50546000D03*
D11*
X25908000Y-50546000D03*
D10*
X23368000Y-61722000D03*
D11*
X25908000Y-61722000D03*
D10*
X23363000Y-40894000D03*
D11*
X25903000Y-40894000D03*
D12*
X27686000Y-58420000D03*
X35610800Y-51282600D03*
X27940000Y-43180000D03*
X31242000Y-60960000D03*
X23495000Y-30480000D03*
X33020000Y-45085000D03*
X28956000Y-64262000D03*
X32385000Y-62230000D03*
X31115000Y-56515000D03*
X51308000Y-55880000D03*
X26035000Y-29210000D03*
X44450000Y-54610000D03*
X29210000Y-53975000D03*
X41910000Y-33020000D03*
X43815000Y-40005000D03*
X46482000Y-39880000D03*
X36830000Y-57785000D03*
X29845000Y-59690000D03*
X48260000Y-31750000D03*
X34290000Y-57785000D03*
X31115000Y-46355000D03*
X45085000Y-30480000D03*
X32258000Y-35306000D03*
X29210000Y-29210000D03*
X38735000Y-36830000D03*
X29845000Y-64770000D03*
X38735000Y-29210000D03*
X29845000Y-52705000D03*
X42164000Y-66294000D03*
X41910000Y-45085000D03*
X36830000Y-56515000D03*
X43815000Y-38735000D03*
X45720000Y-51435000D03*
X38100000Y-56515000D03*
X33892300Y-42687597D03*
X35560000Y-53975000D03*
X34290000Y-53340000D03*
X35560000Y-29210000D03*
X45085000Y-36195000D03*
X29210000Y-44450000D03*
X39370000Y-45085000D03*
X20955000Y-37465000D03*
X38735000Y-33020000D03*
X27305000Y-38100000D03*
X24130000Y-52705000D03*
X20955000Y-64135000D03*
X28320250Y-52450250D03*
X32385000Y-29210000D03*
X25543700Y-48087399D03*
X41910000Y-40005000D03*
X31115000Y-44450000D03*
X38100000Y-57785000D03*
X42824400Y-58572400D03*
X41910000Y-36195000D03*
X38100000Y-55245000D03*
X46228000Y-59182000D03*
X41910000Y-29210000D03*
X51308000Y-33020000D03*
X37338000Y-38771178D03*
X27940000Y-61595000D03*
X42418000Y-46482000D03*
X20955000Y-34925000D03*
X21590000Y-32385000D03*
X35052000Y-45974000D03*
X36068000Y-55626000D03*
X40466200Y-42591200D03*
X30226000Y-33020000D03*
X40767000Y-54483000D03*
X39741200Y-41372000D03*
X43775321Y-41372000D03*
X35560000Y-35052000D03*
X37127558Y-44904536D03*
X42164000Y-61214000D03*
X42164000Y-62664000D03*
X34835000Y-38735000D03*
X33745000Y-40589200D03*
D13*
X34159499Y-51282600D02*
X27686000Y-57756099D01*
X35610800Y-51282600D02*
X34159499Y-51282600D01*
X27686000Y-57756099D02*
X27686000Y-58420000D01*
D14*
X35052000Y-32766000D02*
X36544527Y-34258527D01*
X37215000Y-45842400D02*
X40466200Y-42591200D01*
X40466200Y-40874073D02*
X40466200Y-42591200D01*
X36544527Y-34258527D02*
X36544527Y-36952400D01*
X35183600Y-45842400D02*
X37215000Y-45842400D01*
X36068000Y-55626000D02*
X40440800Y-51253200D01*
X40440800Y-51253200D02*
X40440800Y-42616600D01*
X36544527Y-36952400D02*
X40466200Y-40874073D01*
X35052000Y-45974000D02*
X35183600Y-45842400D01*
X40440800Y-42616600D02*
X40466200Y-42591200D01*
X30226000Y-33020000D02*
X30480000Y-32766000D01*
X30480000Y-32766000D02*
X35052000Y-32766000D01*
X37127558Y-44101642D02*
X37127558Y-44904536D01*
X35560000Y-39319200D02*
X35560000Y-35052000D01*
X39741200Y-41372000D02*
X39741200Y-41488000D01*
X39741200Y-41372000D02*
X37612800Y-41372000D01*
X39741200Y-41488000D02*
X37127558Y-44101642D01*
X40767000Y-54483000D02*
X43775321Y-51474679D01*
X37612800Y-41372000D02*
X35560000Y-39319200D01*
X43775321Y-51474679D02*
X43775321Y-41372000D01*
X42164000Y-62664000D02*
X42164000Y-61214000D01*
X33745000Y-39825000D02*
X34835000Y-38735000D01*
X33745000Y-40589200D02*
X33745000Y-39825000D01*
G04 #@! TA.AperFunction,Conductor*
G36*
X36390703Y-37683612D02*
G01*
X36397180Y-37689643D01*
X37803964Y-39096428D01*
X39189813Y-40482277D01*
X39223298Y-40543600D01*
X39218314Y-40613292D01*
X39176442Y-40669225D01*
X39175019Y-40670275D01*
X39135328Y-40699112D01*
X39135326Y-40699114D01*
X39129600Y-40705474D01*
X39070113Y-40742121D01*
X39037452Y-40746500D01*
X37923252Y-40746500D01*
X37856213Y-40726815D01*
X37835571Y-40710181D01*
X36221819Y-39096428D01*
X36188334Y-39035105D01*
X36185500Y-39008747D01*
X36185500Y-37777325D01*
X36205185Y-37710286D01*
X36257989Y-37664531D01*
X36327147Y-37654587D01*
X36390703Y-37683612D01*
G37*
G04 #@! TD.AperFunction*
G04 #@! TA.AperFunction,Conductor*
G36*
X51664043Y-20066669D02*
G01*
X51794179Y-20073490D01*
X51974708Y-20083628D01*
X51987109Y-20084955D01*
X52135790Y-20108504D01*
X52137045Y-20108709D01*
X52296124Y-20135738D01*
X52307406Y-20138202D01*
X52456435Y-20178134D01*
X52458561Y-20178725D01*
X52609974Y-20222347D01*
X52620060Y-20225729D01*
X52765510Y-20281562D01*
X52768399Y-20282714D01*
X52912568Y-20342430D01*
X52921394Y-20346500D01*
X53060864Y-20417565D01*
X53064548Y-20419521D01*
X53154648Y-20469316D01*
X53200348Y-20494574D01*
X53207861Y-20499081D01*
X53339554Y-20584604D01*
X53343747Y-20587452D01*
X53469947Y-20676996D01*
X53476228Y-20681759D01*
X53598367Y-20780665D01*
X53602958Y-20784571D01*
X53718224Y-20887579D01*
X53723278Y-20892358D01*
X53834440Y-21003520D01*
X53839219Y-21008574D01*
X53942227Y-21123840D01*
X53946133Y-21128431D01*
X54045039Y-21250570D01*
X54049802Y-21256851D01*
X54139346Y-21383051D01*
X54142209Y-21387266D01*
X54227707Y-21518921D01*
X54232230Y-21526460D01*
X54307277Y-21662250D01*
X54309233Y-21665934D01*
X54380298Y-21805404D01*
X54384375Y-21814247D01*
X54444059Y-21958337D01*
X54445262Y-21961353D01*
X54501065Y-22106727D01*
X54504455Y-22116836D01*
X54548058Y-22268185D01*
X54548679Y-22270419D01*
X54588591Y-22419371D01*
X54591064Y-22430693D01*
X54608248Y-22531826D01*
X54610000Y-22552598D01*
X54610000Y-72672000D01*
X54608248Y-72692772D01*
X54591064Y-72793906D01*
X54588591Y-72805228D01*
X54548679Y-72954179D01*
X54548058Y-72956413D01*
X54504455Y-73107762D01*
X54501065Y-73117871D01*
X54445262Y-73263245D01*
X54444059Y-73266261D01*
X54384375Y-73410351D01*
X54380298Y-73419194D01*
X54309233Y-73558664D01*
X54307277Y-73562348D01*
X54232230Y-73698138D01*
X54227697Y-73705694D01*
X54142212Y-73837328D01*
X54139346Y-73841547D01*
X54049802Y-73967747D01*
X54045039Y-73974028D01*
X53946133Y-74096167D01*
X53942227Y-74100758D01*
X53839219Y-74216024D01*
X53834440Y-74221078D01*
X53723278Y-74332240D01*
X53718224Y-74337019D01*
X53602958Y-74440027D01*
X53598367Y-74443933D01*
X53476228Y-74542839D01*
X53469947Y-74547602D01*
X53343747Y-74637146D01*
X53339528Y-74640012D01*
X53207894Y-74725497D01*
X53200338Y-74730030D01*
X53064548Y-74805077D01*
X53060864Y-74807033D01*
X52921394Y-74878098D01*
X52912551Y-74882175D01*
X52768461Y-74941859D01*
X52765445Y-74943062D01*
X52620071Y-74998865D01*
X52609962Y-75002255D01*
X52458613Y-75045858D01*
X52456379Y-75046479D01*
X52307428Y-75086391D01*
X52296104Y-75088864D01*
X52137083Y-75115882D01*
X52135711Y-75116107D01*
X51987132Y-75139640D01*
X51974687Y-75140972D01*
X51794377Y-75151098D01*
X51793914Y-75151123D01*
X51664043Y-75157930D01*
X51657553Y-75158100D01*
X22561247Y-75158100D01*
X22554757Y-75157930D01*
X22424884Y-75151123D01*
X22424421Y-75151098D01*
X22244111Y-75140972D01*
X22231666Y-75139640D01*
X22083087Y-75116107D01*
X22081715Y-75115882D01*
X21922694Y-75088864D01*
X21911370Y-75086391D01*
X21762419Y-75046479D01*
X21760185Y-75045858D01*
X21608836Y-75002255D01*
X21598727Y-74998865D01*
X21453353Y-74943062D01*
X21450337Y-74941859D01*
X21306247Y-74882175D01*
X21297404Y-74878098D01*
X21157934Y-74807033D01*
X21154250Y-74805077D01*
X21018460Y-74730030D01*
X21010921Y-74725507D01*
X20879266Y-74640009D01*
X20875051Y-74637146D01*
X20748851Y-74547602D01*
X20742570Y-74542839D01*
X20620431Y-74443933D01*
X20615840Y-74440027D01*
X20500574Y-74337019D01*
X20495520Y-74332240D01*
X20384358Y-74221078D01*
X20379579Y-74216024D01*
X20276571Y-74100758D01*
X20272665Y-74096167D01*
X20173759Y-73974028D01*
X20168996Y-73967747D01*
X20079452Y-73841547D01*
X20076604Y-73837354D01*
X19991081Y-73705661D01*
X19986568Y-73698138D01*
X19911521Y-73562348D01*
X19909565Y-73558664D01*
X19838500Y-73419194D01*
X19834430Y-73410368D01*
X19774714Y-73266199D01*
X19773562Y-73263310D01*
X19717729Y-73117860D01*
X19714345Y-73107768D01*
X19689846Y-73022728D01*
X19685000Y-72988401D01*
X19685000Y-71692763D01*
X21255787Y-71692763D01*
X21285413Y-71962013D01*
X21285415Y-71962024D01*
X21336676Y-72158100D01*
X21353928Y-72224088D01*
X21459870Y-72473390D01*
X21581080Y-72672000D01*
X21600979Y-72704605D01*
X21600986Y-72704615D01*
X21774253Y-72912819D01*
X21774259Y-72912824D01*
X21879240Y-73006887D01*
X21975998Y-73093582D01*
X22201910Y-73243044D01*
X22447176Y-73358020D01*
X22447183Y-73358022D01*
X22447185Y-73358023D01*
X22706557Y-73436057D01*
X22706564Y-73436058D01*
X22706569Y-73436060D01*
X22974561Y-73475500D01*
X22974566Y-73475500D01*
X23177629Y-73475500D01*
X23177631Y-73475500D01*
X23177636Y-73475499D01*
X23177648Y-73475499D01*
X23215191Y-73472750D01*
X23380156Y-73460677D01*
X23492758Y-73435593D01*
X23644546Y-73401782D01*
X23644548Y-73401781D01*
X23644553Y-73401780D01*
X23897558Y-73305014D01*
X24133777Y-73172441D01*
X24348177Y-73006888D01*
X24536186Y-72811881D01*
X24693799Y-72591579D01*
X24767787Y-72447669D01*
X24817649Y-72350690D01*
X24817651Y-72350684D01*
X24817656Y-72350675D01*
X24905118Y-72094305D01*
X24954319Y-71827933D01*
X24959259Y-71692763D01*
X49225787Y-71692763D01*
X49255413Y-71962013D01*
X49255415Y-71962024D01*
X49306676Y-72158100D01*
X49323928Y-72224088D01*
X49429870Y-72473390D01*
X49551080Y-72672000D01*
X49570979Y-72704605D01*
X49570986Y-72704615D01*
X49744253Y-72912819D01*
X49744259Y-72912824D01*
X49849240Y-73006887D01*
X49945998Y-73093582D01*
X50171910Y-73243044D01*
X50417176Y-73358020D01*
X50417183Y-73358022D01*
X50417185Y-73358023D01*
X50676557Y-73436057D01*
X50676564Y-73436058D01*
X50676569Y-73436060D01*
X50944561Y-73475500D01*
X50944566Y-73475500D01*
X51147629Y-73475500D01*
X51147631Y-73475500D01*
X51147636Y-73475499D01*
X51147648Y-73475499D01*
X51185191Y-73472750D01*
X51350156Y-73460677D01*
X51462758Y-73435593D01*
X51614546Y-73401782D01*
X51614548Y-73401781D01*
X51614553Y-73401780D01*
X51867558Y-73305014D01*
X52103777Y-73172441D01*
X52318177Y-73006888D01*
X52506186Y-72811881D01*
X52663799Y-72591579D01*
X52737787Y-72447669D01*
X52787649Y-72350690D01*
X52787651Y-72350684D01*
X52787656Y-72350675D01*
X52875118Y-72094305D01*
X52924319Y-71827933D01*
X52934212Y-71557235D01*
X52904586Y-71287982D01*
X52836072Y-71025912D01*
X52730130Y-70776610D01*
X52589018Y-70545390D01*
X52499747Y-70438119D01*
X52415746Y-70337180D01*
X52415740Y-70337175D01*
X52214002Y-70156418D01*
X51988092Y-70006957D01*
X51988090Y-70006956D01*
X51742824Y-69891980D01*
X51742819Y-69891978D01*
X51742814Y-69891976D01*
X51483442Y-69813942D01*
X51483428Y-69813939D01*
X51367791Y-69796921D01*
X51215439Y-69774500D01*
X51012369Y-69774500D01*
X51012351Y-69774500D01*
X50809844Y-69789323D01*
X50809831Y-69789325D01*
X50545453Y-69848217D01*
X50545446Y-69848220D01*
X50292439Y-69944987D01*
X50056226Y-70077557D01*
X49841822Y-70243112D01*
X49653822Y-70438109D01*
X49653816Y-70438116D01*
X49496202Y-70658419D01*
X49496199Y-70658424D01*
X49372350Y-70899309D01*
X49372343Y-70899327D01*
X49284884Y-71155685D01*
X49284881Y-71155699D01*
X49235681Y-71422068D01*
X49235680Y-71422075D01*
X49225787Y-71692763D01*
X24959259Y-71692763D01*
X24964212Y-71557235D01*
X24934586Y-71287982D01*
X24866072Y-71025912D01*
X24760130Y-70776610D01*
X24619018Y-70545390D01*
X24529747Y-70438119D01*
X24445746Y-70337180D01*
X24445740Y-70337175D01*
X24244002Y-70156418D01*
X24018092Y-70006957D01*
X24018090Y-70006956D01*
X23772824Y-69891980D01*
X23772819Y-69891978D01*
X23772814Y-69891976D01*
X23513442Y-69813942D01*
X23513428Y-69813939D01*
X23397791Y-69796921D01*
X23245439Y-69774500D01*
X23042369Y-69774500D01*
X23042351Y-69774500D01*
X22839844Y-69789323D01*
X22839831Y-69789325D01*
X22575453Y-69848217D01*
X22575446Y-69848220D01*
X22322439Y-69944987D01*
X22086226Y-70077557D01*
X21871822Y-70243112D01*
X21683822Y-70438109D01*
X21683816Y-70438116D01*
X21526202Y-70658419D01*
X21526199Y-70658424D01*
X21402350Y-70899309D01*
X21402343Y-70899327D01*
X21314884Y-71155685D01*
X21314881Y-71155699D01*
X21265681Y-71422068D01*
X21265680Y-71422075D01*
X21255787Y-71692763D01*
X19685000Y-71692763D01*
X19685000Y-62619870D01*
X22017500Y-62619870D01*
X22017501Y-62619876D01*
X22023908Y-62679483D01*
X22074202Y-62814328D01*
X22074206Y-62814335D01*
X22160452Y-62929544D01*
X22160455Y-62929547D01*
X22275664Y-63015793D01*
X22275671Y-63015797D01*
X22410517Y-63066091D01*
X22410516Y-63066091D01*
X22417444Y-63066835D01*
X22470127Y-63072500D01*
X24265872Y-63072499D01*
X24325483Y-63066091D01*
X24460331Y-63015796D01*
X24575546Y-62929546D01*
X24661796Y-62814331D01*
X24710810Y-62682916D01*
X24752681Y-62626984D01*
X24818145Y-62602566D01*
X24886418Y-62617417D01*
X24914673Y-62638569D01*
X25036599Y-62760495D01*
X25133384Y-62828265D01*
X25230165Y-62896032D01*
X25230167Y-62896033D01*
X25230170Y-62896035D01*
X25444337Y-62995903D01*
X25672592Y-63057063D01*
X25849034Y-63072500D01*
X25907999Y-63077659D01*
X25908000Y-63077659D01*
X25908001Y-63077659D01*
X25966966Y-63072500D01*
X26143408Y-63057063D01*
X26371663Y-62995903D01*
X26585830Y-62896035D01*
X26779401Y-62760495D01*
X26875896Y-62664000D01*
X41258540Y-62664000D01*
X41278326Y-62852256D01*
X41278327Y-62852259D01*
X41336818Y-63032277D01*
X41336821Y-63032284D01*
X41431467Y-63196216D01*
X41558129Y-63336888D01*
X41711265Y-63448148D01*
X41711270Y-63448151D01*
X41884192Y-63525142D01*
X41884197Y-63525144D01*
X42069354Y-63564500D01*
X42069355Y-63564500D01*
X42258644Y-63564500D01*
X42258646Y-63564500D01*
X42443803Y-63525144D01*
X42616730Y-63448151D01*
X42769871Y-63336888D01*
X42896533Y-63196216D01*
X42991179Y-63032284D01*
X43049674Y-62852256D01*
X43069460Y-62664000D01*
X43049674Y-62475744D01*
X42991179Y-62295716D01*
X42896533Y-62131784D01*
X42821350Y-62048284D01*
X42791120Y-61985292D01*
X42789500Y-61965312D01*
X42789500Y-61912687D01*
X42809185Y-61845648D01*
X42821350Y-61829715D01*
X42839891Y-61809122D01*
X42896533Y-61746216D01*
X42991179Y-61582284D01*
X43049674Y-61402256D01*
X43069460Y-61214000D01*
X43049674Y-61025744D01*
X42991179Y-60845716D01*
X42896533Y-60681784D01*
X42769871Y-60541112D01*
X42733181Y-60514455D01*
X42616734Y-60429851D01*
X42616729Y-60429848D01*
X42443807Y-60352857D01*
X42443802Y-60352855D01*
X42298001Y-60321865D01*
X42258646Y-60313500D01*
X42069354Y-60313500D01*
X42036897Y-60320398D01*
X41884197Y-60352855D01*
X41884192Y-60352857D01*
X41711270Y-60429848D01*
X41711265Y-60429851D01*
X41558129Y-60541111D01*
X41431466Y-60681785D01*
X41336821Y-60845715D01*
X41336818Y-60845722D01*
X41278327Y-61025740D01*
X41278326Y-61025744D01*
X41258540Y-61214000D01*
X41278326Y-61402256D01*
X41278327Y-61402259D01*
X41336818Y-61582277D01*
X41336821Y-61582284D01*
X41431467Y-61746216D01*
X41474772Y-61794310D01*
X41506650Y-61829715D01*
X41536880Y-61892706D01*
X41538500Y-61912687D01*
X41538500Y-61965312D01*
X41518815Y-62032351D01*
X41506650Y-62048284D01*
X41431466Y-62131784D01*
X41336821Y-62295715D01*
X41336818Y-62295722D01*
X41278327Y-62475740D01*
X41278326Y-62475744D01*
X41258540Y-62664000D01*
X26875896Y-62664000D01*
X26946495Y-62593401D01*
X27082035Y-62399830D01*
X27181903Y-62185663D01*
X27243063Y-61957408D01*
X27263659Y-61722000D01*
X27243063Y-61486592D01*
X27181903Y-61258337D01*
X27082035Y-61044171D01*
X27069133Y-61025744D01*
X26946494Y-60850597D01*
X26779402Y-60683506D01*
X26779395Y-60683501D01*
X26776944Y-60681785D01*
X26702518Y-60629671D01*
X26585834Y-60547967D01*
X26585830Y-60547965D01*
X26571132Y-60541111D01*
X26371663Y-60448097D01*
X26371659Y-60448096D01*
X26371655Y-60448094D01*
X26143413Y-60386938D01*
X26143403Y-60386936D01*
X25908001Y-60366341D01*
X25907999Y-60366341D01*
X25672596Y-60386936D01*
X25672586Y-60386938D01*
X25444344Y-60448094D01*
X25444335Y-60448098D01*
X25230171Y-60547964D01*
X25230169Y-60547965D01*
X25036600Y-60683503D01*
X24914673Y-60805430D01*
X24853350Y-60838914D01*
X24783658Y-60833930D01*
X24727725Y-60792058D01*
X24710810Y-60761081D01*
X24661797Y-60629671D01*
X24661793Y-60629664D01*
X24575547Y-60514455D01*
X24575544Y-60514452D01*
X24460335Y-60428206D01*
X24460328Y-60428202D01*
X24325482Y-60377908D01*
X24325483Y-60377908D01*
X24265883Y-60371501D01*
X24265881Y-60371500D01*
X24265873Y-60371500D01*
X24265864Y-60371500D01*
X22470129Y-60371500D01*
X22470123Y-60371501D01*
X22410516Y-60377908D01*
X22275671Y-60428202D01*
X22275664Y-60428206D01*
X22160455Y-60514452D01*
X22160452Y-60514455D01*
X22074206Y-60629664D01*
X22074202Y-60629671D01*
X22023908Y-60764517D01*
X22017501Y-60824116D01*
X22017500Y-60824135D01*
X22017500Y-62619870D01*
X19685000Y-62619870D01*
X19685000Y-58420000D01*
X26780540Y-58420000D01*
X26800326Y-58608256D01*
X26800327Y-58608259D01*
X26858818Y-58788277D01*
X26858821Y-58788284D01*
X26953467Y-58952216D01*
X27080129Y-59092888D01*
X27233265Y-59204148D01*
X27233270Y-59204151D01*
X27406192Y-59281142D01*
X27406197Y-59281144D01*
X27591354Y-59320500D01*
X27591355Y-59320500D01*
X27780644Y-59320500D01*
X27780646Y-59320500D01*
X27965803Y-59281144D01*
X28138730Y-59204151D01*
X28291871Y-59092888D01*
X28418533Y-58952216D01*
X28513179Y-58788284D01*
X28571674Y-58608256D01*
X28591460Y-58420000D01*
X28571674Y-58231744D01*
X28521594Y-58077617D01*
X28519600Y-58007778D01*
X28551843Y-57951622D01*
X34434048Y-52069419D01*
X34495371Y-52035934D01*
X34521729Y-52033100D01*
X35071463Y-52033100D01*
X35138502Y-52052785D01*
X35144348Y-52056782D01*
X35158065Y-52066748D01*
X35158070Y-52066751D01*
X35330992Y-52143742D01*
X35330997Y-52143744D01*
X35516154Y-52183100D01*
X35516155Y-52183100D01*
X35705444Y-52183100D01*
X35705446Y-52183100D01*
X35890603Y-52143744D01*
X36063530Y-52066751D01*
X36216671Y-51955488D01*
X36343333Y-51814816D01*
X36437979Y-51650884D01*
X36496474Y-51470856D01*
X36516260Y-51282600D01*
X36496474Y-51094344D01*
X36437979Y-50914316D01*
X36343333Y-50750384D01*
X36216671Y-50609712D01*
X36208907Y-50604071D01*
X36063534Y-50498451D01*
X36063529Y-50498448D01*
X35890607Y-50421457D01*
X35890602Y-50421455D01*
X35744801Y-50390465D01*
X35705446Y-50382100D01*
X35516154Y-50382100D01*
X35483697Y-50388998D01*
X35330997Y-50421455D01*
X35330992Y-50421457D01*
X35158070Y-50498448D01*
X35158065Y-50498451D01*
X35144348Y-50508418D01*
X35078542Y-50531898D01*
X35071463Y-50532100D01*
X34223204Y-50532100D01*
X34205234Y-50530791D01*
X34181471Y-50527310D01*
X34134342Y-50531434D01*
X34132129Y-50531628D01*
X34121323Y-50532100D01*
X34115783Y-50532100D01*
X34085000Y-50535698D01*
X34081415Y-50536064D01*
X34006698Y-50542601D01*
X33999631Y-50544060D01*
X33999619Y-50544004D01*
X33992262Y-50545635D01*
X33992276Y-50545692D01*
X33985239Y-50547360D01*
X33914730Y-50573021D01*
X33911329Y-50574203D01*
X33840167Y-50597784D01*
X33833625Y-50600835D01*
X33833600Y-50600783D01*
X33826807Y-50604071D01*
X33826833Y-50604122D01*
X33820385Y-50607360D01*
X33757727Y-50648570D01*
X33754690Y-50650505D01*
X33690843Y-50689888D01*
X33685176Y-50694369D01*
X33685140Y-50694323D01*
X33679297Y-50699084D01*
X33679334Y-50699128D01*
X33673809Y-50703764D01*
X33622347Y-50758309D01*
X33619835Y-50760894D01*
X27200358Y-57180371D01*
X27186729Y-57192150D01*
X27167469Y-57206489D01*
X27135632Y-57244430D01*
X27128346Y-57252383D01*
X27124407Y-57256323D01*
X27105176Y-57280644D01*
X27102902Y-57283436D01*
X27054694Y-57340889D01*
X27050729Y-57346918D01*
X27050682Y-57346887D01*
X27046630Y-57353246D01*
X27046679Y-57353276D01*
X27042889Y-57359420D01*
X27011192Y-57427393D01*
X27009623Y-57430635D01*
X26975957Y-57497671D01*
X26973488Y-57504456D01*
X26973432Y-57504435D01*
X26970960Y-57511549D01*
X26971015Y-57511568D01*
X26968743Y-57518424D01*
X26953573Y-57591887D01*
X26952793Y-57595403D01*
X26935499Y-57668378D01*
X26934661Y-57675553D01*
X26934601Y-57675546D01*
X26933835Y-57683044D01*
X26933895Y-57683050D01*
X26933265Y-57690239D01*
X26935448Y-57765227D01*
X26935500Y-57768834D01*
X26935500Y-57885677D01*
X26918887Y-57947677D01*
X26858821Y-58051714D01*
X26850404Y-58077620D01*
X26800326Y-58231744D01*
X26780540Y-58420000D01*
X19685000Y-58420000D01*
X19685000Y-51443870D01*
X22017500Y-51443870D01*
X22017501Y-51443876D01*
X22023908Y-51503483D01*
X22074202Y-51638328D01*
X22074206Y-51638335D01*
X22160452Y-51753544D01*
X22160455Y-51753547D01*
X22275664Y-51839793D01*
X22275671Y-51839797D01*
X22410517Y-51890091D01*
X22410516Y-51890091D01*
X22417444Y-51890835D01*
X22470127Y-51896500D01*
X24265872Y-51896499D01*
X24325483Y-51890091D01*
X24460331Y-51839796D01*
X24575546Y-51753546D01*
X24661796Y-51638331D01*
X24710810Y-51506916D01*
X24752681Y-51450984D01*
X24818145Y-51426566D01*
X24886418Y-51441417D01*
X24914673Y-51462569D01*
X25036599Y-51584495D01*
X25130971Y-51650575D01*
X25230165Y-51720032D01*
X25230167Y-51720033D01*
X25230170Y-51720035D01*
X25444337Y-51819903D01*
X25672592Y-51881063D01*
X25849034Y-51896500D01*
X25907999Y-51901659D01*
X25908000Y-51901659D01*
X25908001Y-51901659D01*
X25966966Y-51896500D01*
X26143408Y-51881063D01*
X26371663Y-51819903D01*
X26585830Y-51720035D01*
X26779401Y-51584495D01*
X26946495Y-51417401D01*
X27082035Y-51223830D01*
X27181903Y-51009663D01*
X27243063Y-50781408D01*
X27263659Y-50546000D01*
X27243063Y-50310592D01*
X27181903Y-50082337D01*
X27082035Y-49868171D01*
X26946495Y-49674599D01*
X26946494Y-49674597D01*
X26779402Y-49507506D01*
X26779395Y-49507501D01*
X26585834Y-49371967D01*
X26585830Y-49371965D01*
X26585828Y-49371964D01*
X26371663Y-49272097D01*
X26371659Y-49272096D01*
X26371655Y-49272094D01*
X26143413Y-49210938D01*
X26143403Y-49210936D01*
X25908001Y-49190341D01*
X25907999Y-49190341D01*
X25672596Y-49210936D01*
X25672586Y-49210938D01*
X25444344Y-49272094D01*
X25444335Y-49272098D01*
X25230171Y-49371964D01*
X25230169Y-49371965D01*
X25036600Y-49507503D01*
X24914673Y-49629430D01*
X24853350Y-49662914D01*
X24783658Y-49657930D01*
X24727725Y-49616058D01*
X24710810Y-49585081D01*
X24661797Y-49453671D01*
X24661793Y-49453664D01*
X24575547Y-49338455D01*
X24575544Y-49338452D01*
X24460335Y-49252206D01*
X24460328Y-49252202D01*
X24325482Y-49201908D01*
X24325483Y-49201908D01*
X24265883Y-49195501D01*
X24265881Y-49195500D01*
X24265873Y-49195500D01*
X24265864Y-49195500D01*
X22470129Y-49195500D01*
X22470123Y-49195501D01*
X22410516Y-49201908D01*
X22275671Y-49252202D01*
X22275664Y-49252206D01*
X22160455Y-49338452D01*
X22160452Y-49338455D01*
X22074206Y-49453664D01*
X22074202Y-49453671D01*
X22023908Y-49588517D01*
X22017501Y-49648116D01*
X22017500Y-49648135D01*
X22017500Y-51443870D01*
X19685000Y-51443870D01*
X19685000Y-41791870D01*
X22012500Y-41791870D01*
X22012501Y-41791876D01*
X22018908Y-41851483D01*
X22069202Y-41986328D01*
X22069206Y-41986335D01*
X22155452Y-42101544D01*
X22155455Y-42101547D01*
X22270664Y-42187793D01*
X22270671Y-42187797D01*
X22405517Y-42238091D01*
X22405516Y-42238091D01*
X22412444Y-42238835D01*
X22465127Y-42244500D01*
X24260872Y-42244499D01*
X24320483Y-42238091D01*
X24455331Y-42187796D01*
X24570546Y-42101546D01*
X24656796Y-41986331D01*
X24705810Y-41854916D01*
X24747681Y-41798984D01*
X24813145Y-41774566D01*
X24881418Y-41789417D01*
X24909673Y-41810569D01*
X25031599Y-41932495D01*
X25108925Y-41986639D01*
X25225165Y-42068032D01*
X25225167Y-42068033D01*
X25225170Y-42068035D01*
X25439337Y-42167903D01*
X25667592Y-42229063D01*
X25844034Y-42244500D01*
X25902999Y-42249659D01*
X25903000Y-42249659D01*
X25903001Y-42249659D01*
X25961966Y-42244500D01*
X26138408Y-42229063D01*
X26366663Y-42167903D01*
X26580830Y-42068035D01*
X26774401Y-41932495D01*
X26941495Y-41765401D01*
X27077035Y-41571830D01*
X27176903Y-41357663D01*
X27238063Y-41129408D01*
X27258659Y-40894000D01*
X27238063Y-40658592D01*
X27176903Y-40430337D01*
X27077035Y-40216171D01*
X26941495Y-40022599D01*
X26941494Y-40022597D01*
X26774402Y-39855506D01*
X26774395Y-39855501D01*
X26580834Y-39719967D01*
X26580830Y-39719965D01*
X26545894Y-39703674D01*
X26366663Y-39620097D01*
X26366659Y-39620096D01*
X26366655Y-39620094D01*
X26138413Y-39558938D01*
X26138403Y-39558936D01*
X25903001Y-39538341D01*
X25902999Y-39538341D01*
X25667596Y-39558936D01*
X25667586Y-39558938D01*
X25439344Y-39620094D01*
X25439335Y-39620098D01*
X25225171Y-39719964D01*
X25225169Y-39719965D01*
X25031600Y-39855503D01*
X24909673Y-39977430D01*
X24848350Y-40010914D01*
X24778658Y-40005930D01*
X24722725Y-39964058D01*
X24705810Y-39933081D01*
X24656797Y-39801671D01*
X24656793Y-39801664D01*
X24570547Y-39686455D01*
X24570544Y-39686452D01*
X24455335Y-39600206D01*
X24455328Y-39600202D01*
X24320482Y-39549908D01*
X24320483Y-39549908D01*
X24260883Y-39543501D01*
X24260881Y-39543500D01*
X24260873Y-39543500D01*
X24260864Y-39543500D01*
X22465129Y-39543500D01*
X22465123Y-39543501D01*
X22405516Y-39549908D01*
X22270671Y-39600202D01*
X22270664Y-39600206D01*
X22155455Y-39686452D01*
X22155452Y-39686455D01*
X22069206Y-39801664D01*
X22069202Y-39801671D01*
X22018908Y-39936517D01*
X22012501Y-39996116D01*
X22012500Y-39996135D01*
X22012500Y-41791870D01*
X19685000Y-41791870D01*
X19685000Y-33020000D01*
X29320540Y-33020000D01*
X29340326Y-33208256D01*
X29340327Y-33208259D01*
X29398818Y-33388277D01*
X29398821Y-33388284D01*
X29493467Y-33552216D01*
X29620129Y-33692888D01*
X29773265Y-33804148D01*
X29773270Y-33804151D01*
X29946192Y-33881142D01*
X29946197Y-33881144D01*
X30131354Y-33920500D01*
X30131355Y-33920500D01*
X30320644Y-33920500D01*
X30320646Y-33920500D01*
X30505803Y-33881144D01*
X30678730Y-33804151D01*
X30831871Y-33692888D01*
X30958533Y-33552216D01*
X30971002Y-33530617D01*
X31015527Y-33453500D01*
X31066094Y-33405284D01*
X31122914Y-33391500D01*
X34741548Y-33391500D01*
X34808587Y-33411185D01*
X34829229Y-33427819D01*
X35376072Y-33974663D01*
X35409557Y-34035986D01*
X35404573Y-34105678D01*
X35362701Y-34161611D01*
X35314173Y-34183634D01*
X35280196Y-34190856D01*
X35280192Y-34190857D01*
X35107270Y-34267848D01*
X35107265Y-34267851D01*
X34954129Y-34379111D01*
X34827466Y-34519785D01*
X34732821Y-34683715D01*
X34732818Y-34683722D01*
X34674327Y-34863740D01*
X34674326Y-34863744D01*
X34654540Y-35052000D01*
X34674326Y-35240256D01*
X34674327Y-35240259D01*
X34732818Y-35420277D01*
X34732821Y-35420284D01*
X34827467Y-35584216D01*
X34870772Y-35632310D01*
X34902650Y-35667715D01*
X34932880Y-35730706D01*
X34934500Y-35750687D01*
X34934500Y-37710500D01*
X34914815Y-37777539D01*
X34862011Y-37823294D01*
X34810500Y-37834500D01*
X34740354Y-37834500D01*
X34707897Y-37841398D01*
X34555197Y-37873855D01*
X34555192Y-37873857D01*
X34382270Y-37950848D01*
X34382265Y-37950851D01*
X34229129Y-38062111D01*
X34102466Y-38202785D01*
X34007821Y-38366715D01*
X34007818Y-38366722D01*
X33949327Y-38546740D01*
X33949326Y-38546744D01*
X33931679Y-38714649D01*
X33905094Y-38779263D01*
X33896039Y-38789368D01*
X33361208Y-39324199D01*
X33348951Y-39334020D01*
X33349134Y-39334241D01*
X33343122Y-39339214D01*
X33297098Y-39388223D01*
X33294391Y-39391016D01*
X33274889Y-39410517D01*
X33274875Y-39410534D01*
X33272407Y-39413715D01*
X33264843Y-39422570D01*
X33234937Y-39454418D01*
X33234936Y-39454420D01*
X33225284Y-39471976D01*
X33214610Y-39488226D01*
X33202329Y-39504061D01*
X33202324Y-39504068D01*
X33184975Y-39544158D01*
X33179838Y-39554644D01*
X33158803Y-39592906D01*
X33153822Y-39612307D01*
X33147521Y-39630710D01*
X33139562Y-39649102D01*
X33139561Y-39649105D01*
X33132728Y-39692243D01*
X33130360Y-39703674D01*
X33119501Y-39745971D01*
X33119500Y-39745982D01*
X33119500Y-39766016D01*
X33117973Y-39785415D01*
X33114840Y-39805194D01*
X33114840Y-39805195D01*
X33118950Y-39848674D01*
X33119500Y-39860343D01*
X33119500Y-39890512D01*
X33099815Y-39957551D01*
X33087650Y-39973484D01*
X33012466Y-40056984D01*
X32917821Y-40220915D01*
X32917818Y-40220922D01*
X32859327Y-40400940D01*
X32859326Y-40400944D01*
X32839540Y-40589200D01*
X32859326Y-40777456D01*
X32859327Y-40777459D01*
X32917818Y-40957477D01*
X32917821Y-40957484D01*
X33012467Y-41121416D01*
X33019668Y-41129413D01*
X33139129Y-41262088D01*
X33292265Y-41373348D01*
X33292270Y-41373351D01*
X33465192Y-41450342D01*
X33465197Y-41450344D01*
X33650354Y-41489700D01*
X33650355Y-41489700D01*
X33839644Y-41489700D01*
X33839646Y-41489700D01*
X34024803Y-41450344D01*
X34197730Y-41373351D01*
X34350871Y-41262088D01*
X34477533Y-41121416D01*
X34572179Y-40957484D01*
X34630674Y-40777456D01*
X34650460Y-40589200D01*
X34630674Y-40400944D01*
X34572179Y-40220916D01*
X34495850Y-40088711D01*
X34479378Y-40020812D01*
X34502231Y-39954785D01*
X34515544Y-39939044D01*
X34782772Y-39671816D01*
X34844094Y-39638334D01*
X34870452Y-39635500D01*
X34929646Y-39635500D01*
X34935876Y-39634845D01*
X35004606Y-39647411D01*
X35055571Y-39695039D01*
X35061825Y-39705614D01*
X35061833Y-39705624D01*
X35075990Y-39719780D01*
X35088628Y-39734576D01*
X35100405Y-39750786D01*
X35100406Y-39750787D01*
X35134057Y-39778625D01*
X35142698Y-39786488D01*
X37111994Y-41755784D01*
X37121819Y-41768048D01*
X37122040Y-41767866D01*
X37127010Y-41773874D01*
X37176039Y-41819915D01*
X37178836Y-41822626D01*
X37198330Y-41842120D01*
X37201495Y-41844575D01*
X37210371Y-41852156D01*
X37242218Y-41882062D01*
X37242222Y-41882064D01*
X37259773Y-41891713D01*
X37276031Y-41902392D01*
X37291864Y-41914674D01*
X37327210Y-41929968D01*
X37331955Y-41932022D01*
X37342435Y-41937155D01*
X37380708Y-41958197D01*
X37400112Y-41963179D01*
X37418510Y-41969478D01*
X37436905Y-41977438D01*
X37480054Y-41984271D01*
X37491480Y-41986638D01*
X37533781Y-41997500D01*
X37553816Y-41997500D01*
X37573213Y-41999026D01*
X37592996Y-42002160D01*
X37636475Y-41998050D01*
X37648144Y-41997500D01*
X38047748Y-41997500D01*
X38114787Y-42017185D01*
X38160542Y-42069989D01*
X38170486Y-42139147D01*
X38141461Y-42202703D01*
X38135432Y-42209177D01*
X37848827Y-42495781D01*
X36743766Y-43600841D01*
X36731509Y-43610662D01*
X36731692Y-43610883D01*
X36725680Y-43615856D01*
X36679656Y-43664865D01*
X36676949Y-43667658D01*
X36657447Y-43687159D01*
X36657433Y-43687176D01*
X36654965Y-43690357D01*
X36647401Y-43699212D01*
X36617495Y-43731060D01*
X36617494Y-43731062D01*
X36607842Y-43748618D01*
X36597168Y-43764868D01*
X36584887Y-43780703D01*
X36584882Y-43780710D01*
X36567533Y-43820800D01*
X36562396Y-43831286D01*
X36541361Y-43869548D01*
X36536380Y-43888949D01*
X36530079Y-43907352D01*
X36522120Y-43925744D01*
X36522119Y-43925747D01*
X36515286Y-43968885D01*
X36512918Y-43980316D01*
X36502059Y-44022613D01*
X36502058Y-44022624D01*
X36502058Y-44042658D01*
X36500531Y-44062057D01*
X36497398Y-44081836D01*
X36497398Y-44081837D01*
X36501508Y-44125316D01*
X36502058Y-44136985D01*
X36502058Y-44205848D01*
X36482373Y-44272887D01*
X36470208Y-44288820D01*
X36395024Y-44372320D01*
X36300379Y-44536251D01*
X36300376Y-44536258D01*
X36241885Y-44716276D01*
X36241884Y-44716280D01*
X36222098Y-44904536D01*
X36240533Y-45079941D01*
X36227965Y-45148668D01*
X36180233Y-45199692D01*
X36117213Y-45216900D01*
X35582253Y-45216900D01*
X35515214Y-45197215D01*
X35509369Y-45193219D01*
X35504733Y-45189850D01*
X35504729Y-45189848D01*
X35331807Y-45112857D01*
X35331802Y-45112855D01*
X35186001Y-45081865D01*
X35146646Y-45073500D01*
X34957354Y-45073500D01*
X34927065Y-45079938D01*
X34772197Y-45112855D01*
X34772192Y-45112857D01*
X34599270Y-45189848D01*
X34599265Y-45189851D01*
X34446129Y-45301111D01*
X34319466Y-45441785D01*
X34224821Y-45605715D01*
X34224818Y-45605722D01*
X34166327Y-45785740D01*
X34166326Y-45785744D01*
X34146540Y-45974000D01*
X34166326Y-46162256D01*
X34166327Y-46162259D01*
X34224818Y-46342277D01*
X34224821Y-46342284D01*
X34319467Y-46506216D01*
X34446129Y-46646888D01*
X34599265Y-46758148D01*
X34599270Y-46758151D01*
X34772192Y-46835142D01*
X34772197Y-46835144D01*
X34957354Y-46874500D01*
X34957355Y-46874500D01*
X35146644Y-46874500D01*
X35146646Y-46874500D01*
X35331803Y-46835144D01*
X35504730Y-46758151D01*
X35657871Y-46646888D01*
X35782091Y-46508927D01*
X35841578Y-46472279D01*
X35874241Y-46467900D01*
X37132257Y-46467900D01*
X37147877Y-46469624D01*
X37147904Y-46469339D01*
X37155660Y-46470071D01*
X37155667Y-46470073D01*
X37222873Y-46467961D01*
X37226768Y-46467900D01*
X37254346Y-46467900D01*
X37254350Y-46467900D01*
X37258324Y-46467397D01*
X37269963Y-46466480D01*
X37313627Y-46465109D01*
X37332869Y-46459517D01*
X37351912Y-46455574D01*
X37371792Y-46453064D01*
X37412401Y-46436985D01*
X37423444Y-46433203D01*
X37465390Y-46421018D01*
X37482629Y-46410822D01*
X37500103Y-46402262D01*
X37518727Y-46394888D01*
X37518727Y-46394887D01*
X37518732Y-46394886D01*
X37554083Y-46369200D01*
X37563814Y-46362808D01*
X37601420Y-46340570D01*
X37615589Y-46326399D01*
X37630379Y-46313768D01*
X37646587Y-46301994D01*
X37674438Y-46268326D01*
X37682279Y-46259709D01*
X39603620Y-44338368D01*
X39664942Y-44304885D01*
X39734634Y-44309869D01*
X39790567Y-44351741D01*
X39814984Y-44417205D01*
X39815300Y-44426051D01*
X39815300Y-50942747D01*
X39795615Y-51009786D01*
X39778981Y-51030428D01*
X36120228Y-54689181D01*
X36058905Y-54722666D01*
X36032547Y-54725500D01*
X35973354Y-54725500D01*
X35940897Y-54732398D01*
X35788197Y-54764855D01*
X35788192Y-54764857D01*
X35615270Y-54841848D01*
X35615265Y-54841851D01*
X35462129Y-54953111D01*
X35335466Y-55093785D01*
X35240821Y-55257715D01*
X35240818Y-55257722D01*
X35199951Y-55383500D01*
X35182326Y-55437744D01*
X35162540Y-55626000D01*
X35182326Y-55814256D01*
X35182327Y-55814259D01*
X35240818Y-55994277D01*
X35240821Y-55994284D01*
X35335467Y-56158216D01*
X35462129Y-56298888D01*
X35615265Y-56410148D01*
X35615270Y-56410151D01*
X35788192Y-56487142D01*
X35788197Y-56487144D01*
X35973354Y-56526500D01*
X35973355Y-56526500D01*
X36162644Y-56526500D01*
X36162646Y-56526500D01*
X36347803Y-56487144D01*
X36520730Y-56410151D01*
X36673871Y-56298888D01*
X36800533Y-56158216D01*
X36895179Y-55994284D01*
X36953674Y-55814256D01*
X36971321Y-55646345D01*
X36997905Y-55581732D01*
X37006952Y-55571636D01*
X38095588Y-54483000D01*
X39861540Y-54483000D01*
X39881326Y-54671256D01*
X39881327Y-54671259D01*
X39939818Y-54851277D01*
X39939821Y-54851284D01*
X40034467Y-55015216D01*
X40105211Y-55093785D01*
X40161129Y-55155888D01*
X40314265Y-55267148D01*
X40314270Y-55267151D01*
X40487192Y-55344142D01*
X40487197Y-55344144D01*
X40672354Y-55383500D01*
X40672355Y-55383500D01*
X40861644Y-55383500D01*
X40861646Y-55383500D01*
X41046803Y-55344144D01*
X41219730Y-55267151D01*
X41372871Y-55155888D01*
X41499533Y-55015216D01*
X41594179Y-54851284D01*
X41652674Y-54671256D01*
X41670321Y-54503344D01*
X41696904Y-54438734D01*
X41705951Y-54428638D01*
X44159109Y-51975480D01*
X44171363Y-51965665D01*
X44171180Y-51965443D01*
X44177189Y-51960470D01*
X44177198Y-51960465D01*
X44223270Y-51911401D01*
X44225887Y-51908702D01*
X44245441Y-51889150D01*
X44247897Y-51885982D01*
X44255477Y-51877106D01*
X44285383Y-51845261D01*
X44295034Y-51827703D01*
X44305717Y-51811440D01*
X44317994Y-51795615D01*
X44335342Y-51755523D01*
X44340472Y-51745050D01*
X44361518Y-51706771D01*
X44366501Y-51687359D01*
X44372802Y-51668959D01*
X44380758Y-51650575D01*
X44387591Y-51607427D01*
X44389954Y-51596017D01*
X44400821Y-51553698D01*
X44400821Y-51533662D01*
X44402348Y-51514261D01*
X44405481Y-51494483D01*
X44401371Y-51451003D01*
X44400821Y-51439334D01*
X44400821Y-42070687D01*
X44420506Y-42003648D01*
X44432671Y-41987715D01*
X44451212Y-41967122D01*
X44507854Y-41904216D01*
X44602500Y-41740284D01*
X44660995Y-41560256D01*
X44680781Y-41372000D01*
X44660995Y-41183744D01*
X44602500Y-41003716D01*
X44507854Y-40839784D01*
X44381192Y-40699112D01*
X44381191Y-40699111D01*
X44228055Y-40587851D01*
X44228050Y-40587848D01*
X44055128Y-40510857D01*
X44055123Y-40510855D01*
X43879310Y-40473486D01*
X43869967Y-40471500D01*
X43680675Y-40471500D01*
X43671332Y-40473486D01*
X43495518Y-40510855D01*
X43495513Y-40510857D01*
X43322591Y-40587848D01*
X43322586Y-40587851D01*
X43169450Y-40699111D01*
X43042787Y-40839785D01*
X42948142Y-41003715D01*
X42948139Y-41003722D01*
X42907300Y-41129413D01*
X42889647Y-41183744D01*
X42869861Y-41372000D01*
X42889647Y-41560256D01*
X42889648Y-41560259D01*
X42948139Y-41740277D01*
X42948142Y-41740284D01*
X43042788Y-41904216D01*
X43069915Y-41934343D01*
X43117971Y-41987715D01*
X43148201Y-42050706D01*
X43149821Y-42070687D01*
X43149821Y-51164226D01*
X43130136Y-51231265D01*
X43113502Y-51251907D01*
X40819228Y-53546181D01*
X40757905Y-53579666D01*
X40731547Y-53582500D01*
X40672354Y-53582500D01*
X40639897Y-53589398D01*
X40487197Y-53621855D01*
X40487192Y-53621857D01*
X40314270Y-53698848D01*
X40314265Y-53698851D01*
X40161129Y-53810111D01*
X40034466Y-53950785D01*
X39939821Y-54114715D01*
X39939818Y-54114722D01*
X39881327Y-54294740D01*
X39881326Y-54294744D01*
X39861540Y-54483000D01*
X38095588Y-54483000D01*
X40824588Y-51754001D01*
X40836842Y-51744186D01*
X40836659Y-51743964D01*
X40842668Y-51738991D01*
X40842677Y-51738986D01*
X40888749Y-51689922D01*
X40891366Y-51687223D01*
X40910920Y-51667671D01*
X40913376Y-51664503D01*
X40920956Y-51655627D01*
X40950862Y-51623782D01*
X40960515Y-51606220D01*
X40971189Y-51589970D01*
X40983473Y-51574136D01*
X41000819Y-51534050D01*
X41005957Y-51523562D01*
X41011071Y-51514261D01*
X41026997Y-51485292D01*
X41031977Y-51465891D01*
X41038278Y-51447488D01*
X41046238Y-51429096D01*
X41053072Y-51385941D01*
X41055435Y-51374531D01*
X41066300Y-51332219D01*
X41066300Y-51312183D01*
X41067827Y-51292782D01*
X41070960Y-51273004D01*
X41067304Y-51234332D01*
X41066850Y-51229524D01*
X41066300Y-51217855D01*
X41066300Y-43318096D01*
X41085985Y-43251057D01*
X41098150Y-43235124D01*
X41198733Y-43123416D01*
X41293379Y-42959484D01*
X41351874Y-42779456D01*
X41371660Y-42591200D01*
X41351874Y-42402944D01*
X41293379Y-42222916D01*
X41198733Y-42058984D01*
X41123550Y-41975484D01*
X41093320Y-41912492D01*
X41091700Y-41892512D01*
X41091700Y-40956811D01*
X41093424Y-40941197D01*
X41093138Y-40941170D01*
X41093872Y-40933407D01*
X41091761Y-40866217D01*
X41091700Y-40862323D01*
X41091700Y-40834724D01*
X41091700Y-40834723D01*
X41091197Y-40830743D01*
X41090280Y-40819094D01*
X41088909Y-40775446D01*
X41083322Y-40756217D01*
X41079374Y-40737157D01*
X41078068Y-40726815D01*
X41076864Y-40717281D01*
X41060785Y-40676670D01*
X41057004Y-40665625D01*
X41044819Y-40623685D01*
X41034618Y-40606436D01*
X41026060Y-40588967D01*
X41018686Y-40570341D01*
X41018683Y-40570337D01*
X41018683Y-40570336D01*
X40993016Y-40535008D01*
X40986603Y-40525245D01*
X40964372Y-40487656D01*
X40964370Y-40487652D01*
X40964366Y-40487648D01*
X40964363Y-40487644D01*
X40950205Y-40473486D01*
X40937570Y-40458693D01*
X40925793Y-40442485D01*
X40892145Y-40414649D01*
X40883504Y-40406786D01*
X37206346Y-36729628D01*
X37172861Y-36668305D01*
X37170027Y-36641947D01*
X37170027Y-34341269D01*
X37171751Y-34325649D01*
X37171466Y-34325623D01*
X37172198Y-34317867D01*
X37172200Y-34317860D01*
X37170088Y-34250653D01*
X37170027Y-34246758D01*
X37170027Y-34219181D01*
X37170027Y-34219177D01*
X37169523Y-34215192D01*
X37168607Y-34203548D01*
X37167236Y-34159900D01*
X37161649Y-34140671D01*
X37157701Y-34121611D01*
X37155190Y-34101731D01*
X37139115Y-34061131D01*
X37135331Y-34050079D01*
X37123145Y-34008136D01*
X37123143Y-34008133D01*
X37112950Y-33990898D01*
X37104388Y-33973421D01*
X37097014Y-33954796D01*
X37071343Y-33919464D01*
X37064932Y-33909704D01*
X37042697Y-33872107D01*
X37042695Y-33872105D01*
X37042692Y-33872101D01*
X37028533Y-33857942D01*
X37015895Y-33843146D01*
X37004121Y-33826940D01*
X36970467Y-33799099D01*
X36961826Y-33791236D01*
X35552803Y-32382212D01*
X35542980Y-32369950D01*
X35542759Y-32370134D01*
X35537786Y-32364122D01*
X35488776Y-32318099D01*
X35485977Y-32315386D01*
X35466477Y-32295885D01*
X35466471Y-32295880D01*
X35463286Y-32293409D01*
X35454434Y-32285848D01*
X35422582Y-32255938D01*
X35422580Y-32255936D01*
X35422577Y-32255935D01*
X35405029Y-32246288D01*
X35388763Y-32235604D01*
X35372932Y-32223324D01*
X35332849Y-32205978D01*
X35322363Y-32200841D01*
X35284094Y-32179803D01*
X35284092Y-32179802D01*
X35264693Y-32174822D01*
X35246281Y-32168518D01*
X35227898Y-32160562D01*
X35227892Y-32160560D01*
X35184760Y-32153729D01*
X35173322Y-32151361D01*
X35131020Y-32140500D01*
X35131019Y-32140500D01*
X35110984Y-32140500D01*
X35091586Y-32138973D01*
X35084162Y-32137797D01*
X35071805Y-32135840D01*
X35071804Y-32135840D01*
X35028325Y-32139950D01*
X35016656Y-32140500D01*
X30562737Y-32140500D01*
X30547120Y-32138776D01*
X30547093Y-32139062D01*
X30539331Y-32138327D01*
X30472144Y-32140439D01*
X30468250Y-32140500D01*
X30436756Y-32140500D01*
X30436756Y-32140136D01*
X30407674Y-32137998D01*
X30320646Y-32119500D01*
X30131354Y-32119500D01*
X30098897Y-32126398D01*
X29946197Y-32158855D01*
X29946192Y-32158857D01*
X29773270Y-32235848D01*
X29773265Y-32235851D01*
X29620129Y-32347111D01*
X29493466Y-32487785D01*
X29398821Y-32651715D01*
X29398818Y-32651722D01*
X29340327Y-32831740D01*
X29340326Y-32831744D01*
X29320540Y-33020000D01*
X19685000Y-33020000D01*
X19685000Y-23692763D01*
X21255787Y-23692763D01*
X21285413Y-23962013D01*
X21285415Y-23962024D01*
X21353926Y-24224082D01*
X21353928Y-24224088D01*
X21459870Y-24473390D01*
X21531998Y-24591575D01*
X21600979Y-24704605D01*
X21600986Y-24704615D01*
X21774253Y-24912819D01*
X21774259Y-24912824D01*
X21975998Y-25093582D01*
X22201910Y-25243044D01*
X22447176Y-25358020D01*
X22447183Y-25358022D01*
X22447185Y-25358023D01*
X22706557Y-25436057D01*
X22706564Y-25436058D01*
X22706569Y-25436060D01*
X22974561Y-25475500D01*
X22974566Y-25475500D01*
X23177629Y-25475500D01*
X23177631Y-25475500D01*
X23177636Y-25475499D01*
X23177648Y-25475499D01*
X23215191Y-25472750D01*
X23380156Y-25460677D01*
X23492758Y-25435593D01*
X23644546Y-25401782D01*
X23644548Y-25401781D01*
X23644553Y-25401780D01*
X23897558Y-25305014D01*
X24133777Y-25172441D01*
X24348177Y-25006888D01*
X24536186Y-24811881D01*
X24693799Y-24591579D01*
X24767787Y-24447669D01*
X24817649Y-24350690D01*
X24817651Y-24350684D01*
X24817656Y-24350675D01*
X24905118Y-24094305D01*
X24954319Y-23827933D01*
X24959259Y-23692763D01*
X49255787Y-23692763D01*
X49285413Y-23962013D01*
X49285415Y-23962024D01*
X49353926Y-24224082D01*
X49353928Y-24224088D01*
X49459870Y-24473390D01*
X49531998Y-24591575D01*
X49600979Y-24704605D01*
X49600986Y-24704615D01*
X49774253Y-24912819D01*
X49774259Y-24912824D01*
X49975998Y-25093582D01*
X50201910Y-25243044D01*
X50447176Y-25358020D01*
X50447183Y-25358022D01*
X50447185Y-25358023D01*
X50706557Y-25436057D01*
X50706564Y-25436058D01*
X50706569Y-25436060D01*
X50974561Y-25475500D01*
X50974566Y-25475500D01*
X51177629Y-25475500D01*
X51177631Y-25475500D01*
X51177636Y-25475499D01*
X51177648Y-25475499D01*
X51215191Y-25472750D01*
X51380156Y-25460677D01*
X51492758Y-25435593D01*
X51644546Y-25401782D01*
X51644548Y-25401781D01*
X51644553Y-25401780D01*
X51897558Y-25305014D01*
X52133777Y-25172441D01*
X52348177Y-25006888D01*
X52536186Y-24811881D01*
X52693799Y-24591579D01*
X52767787Y-24447669D01*
X52817649Y-24350690D01*
X52817651Y-24350684D01*
X52817656Y-24350675D01*
X52905118Y-24094305D01*
X52954319Y-23827933D01*
X52964212Y-23557235D01*
X52934586Y-23287982D01*
X52866072Y-23025912D01*
X52760130Y-22776610D01*
X52619018Y-22545390D01*
X52529747Y-22438119D01*
X52445746Y-22337180D01*
X52445740Y-22337175D01*
X52244002Y-22156418D01*
X52018092Y-22006957D01*
X51980300Y-21989241D01*
X51772824Y-21891980D01*
X51772819Y-21891978D01*
X51772814Y-21891976D01*
X51513442Y-21813942D01*
X51513428Y-21813939D01*
X51397791Y-21796921D01*
X51245439Y-21774500D01*
X51042369Y-21774500D01*
X51042351Y-21774500D01*
X50839844Y-21789323D01*
X50839831Y-21789325D01*
X50575453Y-21848217D01*
X50575446Y-21848220D01*
X50322439Y-21944987D01*
X50086226Y-22077557D01*
X49871822Y-22243112D01*
X49683822Y-22438109D01*
X49683816Y-22438116D01*
X49526202Y-22658419D01*
X49526199Y-22658424D01*
X49402350Y-22899309D01*
X49402343Y-22899327D01*
X49314884Y-23155685D01*
X49314881Y-23155699D01*
X49265681Y-23422068D01*
X49265680Y-23422075D01*
X49255787Y-23692763D01*
X24959259Y-23692763D01*
X24964212Y-23557235D01*
X24934586Y-23287982D01*
X24866072Y-23025912D01*
X24760130Y-22776610D01*
X24619018Y-22545390D01*
X24529747Y-22438119D01*
X24445746Y-22337180D01*
X24445740Y-22337175D01*
X24244002Y-22156418D01*
X24018092Y-22006957D01*
X23980300Y-21989241D01*
X23772824Y-21891980D01*
X23772819Y-21891978D01*
X23772814Y-21891976D01*
X23513442Y-21813942D01*
X23513428Y-21813939D01*
X23397791Y-21796921D01*
X23245439Y-21774500D01*
X23042369Y-21774500D01*
X23042351Y-21774500D01*
X22839844Y-21789323D01*
X22839831Y-21789325D01*
X22575453Y-21848217D01*
X22575446Y-21848220D01*
X22322439Y-21944987D01*
X22086226Y-22077557D01*
X21871822Y-22243112D01*
X21683822Y-22438109D01*
X21683816Y-22438116D01*
X21526202Y-22658419D01*
X21526199Y-22658424D01*
X21402350Y-22899309D01*
X21402343Y-22899327D01*
X21314884Y-23155685D01*
X21314881Y-23155699D01*
X21265681Y-23422068D01*
X21265680Y-23422075D01*
X21255787Y-23692763D01*
X19685000Y-23692763D01*
X19685000Y-22236198D01*
X19689846Y-22201871D01*
X19696509Y-22178739D01*
X19714346Y-22116826D01*
X19717726Y-22106746D01*
X19773583Y-21961233D01*
X19774692Y-21958452D01*
X19834439Y-21814212D01*
X19838488Y-21805429D01*
X19909569Y-21665925D01*
X19911521Y-21662250D01*
X19986588Y-21526426D01*
X19991065Y-21518962D01*
X20076633Y-21387199D01*
X20079434Y-21383077D01*
X20169010Y-21256832D01*
X20173733Y-21250603D01*
X20272702Y-21128386D01*
X20276532Y-21123885D01*
X20379613Y-21008537D01*
X20384323Y-21003556D01*
X20495556Y-20892323D01*
X20500537Y-20887613D01*
X20615885Y-20784532D01*
X20620386Y-20780702D01*
X20742603Y-20681733D01*
X20748832Y-20677010D01*
X20875077Y-20587434D01*
X20879199Y-20584633D01*
X21010962Y-20499065D01*
X21018426Y-20494588D01*
X21154255Y-20419517D01*
X21157934Y-20417565D01*
X21297429Y-20346488D01*
X21306212Y-20342439D01*
X21450452Y-20282692D01*
X21453233Y-20281583D01*
X21598753Y-20225724D01*
X21608811Y-20222351D01*
X21760293Y-20178709D01*
X21762305Y-20178150D01*
X21911402Y-20138199D01*
X21922666Y-20135739D01*
X22081809Y-20108700D01*
X22082947Y-20108513D01*
X22231694Y-20084954D01*
X22244087Y-20083628D01*
X22424554Y-20073493D01*
X22554756Y-20066669D01*
X22561245Y-20066500D01*
X51657555Y-20066500D01*
X51664043Y-20066669D01*
G37*
G04 #@! TD.AperFunction*
M02*
