G04 #@! TF.GenerationSoftware,KiCad,Pcbnew,7.0.10*
G04 #@! TF.CreationDate,2024-11-08T16:21:34-05:00*
G04 #@! TF.ProjectId,Sensify Main Board,53656e73-6966-4792-904d-61696e20426f,rev?*
G04 #@! TF.SameCoordinates,Original*
G04 #@! TF.FileFunction,Paste,Bot*
G04 #@! TF.FilePolarity,Positive*
%FSLAX46Y46*%
G04 Gerber Fmt 4.6, Leading zero omitted, Abs format (unit mm)*
G04 Created by KiCad (PCBNEW 7.0.10) date 2024-11-08 16:21:34*
%MOMM*%
%LPD*%
G01*
G04 APERTURE LIST*
G04 Aperture macros list*
%AMRoundRect*
0 Rectangle with rounded corners*
0 $1 Rounding radius*
0 $2 $3 $4 $5 $6 $7 $8 $9 X,Y pos of 4 corners*
0 Add a 4 corners polygon primitive as box body*
4,1,4,$2,$3,$4,$5,$6,$7,$8,$9,$2,$3,0*
0 Add four circle primitives for the rounded corners*
1,1,$1+$1,$2,$3*
1,1,$1+$1,$4,$5*
1,1,$1+$1,$6,$7*
1,1,$1+$1,$8,$9*
0 Add four rect primitives between the rounded corners*
20,1,$1+$1,$2,$3,$4,$5,0*
20,1,$1+$1,$4,$5,$6,$7,0*
20,1,$1+$1,$6,$7,$8,$9,0*
20,1,$1+$1,$8,$9,$2,$3,0*%
G04 Aperture macros list end*
%ADD10RoundRect,0.075000X-0.225000X0.540000X-0.225000X-0.540000X0.225000X-0.540000X0.225000X0.540000X0*%
%ADD11R,1.498600X0.889000*%
%ADD12R,0.889000X1.498600*%
%ADD13R,0.889000X0.889000*%
%ADD14RoundRect,0.160000X0.197500X0.160000X-0.197500X0.160000X-0.197500X-0.160000X0.197500X-0.160000X0*%
%ADD15RoundRect,0.155000X0.212500X0.155000X-0.212500X0.155000X-0.212500X-0.155000X0.212500X-0.155000X0*%
G04 APERTURE END LIST*
D10*
X134305000Y-162091000D03*
X136205000Y-162091000D03*
X135255000Y-164211000D03*
D11*
X152031400Y-70530400D03*
X152031400Y-71800400D03*
X152031400Y-73070400D03*
X152031400Y-74340400D03*
X152031400Y-75610400D03*
X152031400Y-76880400D03*
X152031400Y-78150400D03*
X152031400Y-79420400D03*
X152031400Y-80690400D03*
X152031400Y-81960400D03*
X152031400Y-83230400D03*
X152031400Y-84500400D03*
X152031400Y-85770400D03*
X152031400Y-87040400D03*
D12*
X148996400Y-88290400D03*
X147726400Y-88290400D03*
X146456400Y-88290400D03*
X145186400Y-88290400D03*
X143916400Y-88290400D03*
X142646400Y-88290400D03*
X141376400Y-88290400D03*
X140106400Y-88290400D03*
X138836400Y-88290400D03*
X137566400Y-88290400D03*
D11*
X134531400Y-87040400D03*
X134531400Y-85770400D03*
X134531400Y-84500400D03*
X134531400Y-83230400D03*
X134531400Y-81960400D03*
X134531400Y-80690400D03*
X134531400Y-79420400D03*
X134531400Y-78150400D03*
X134531400Y-76880400D03*
X134531400Y-75610400D03*
X134531400Y-74340400D03*
X134531400Y-73070400D03*
X134531400Y-71800400D03*
X134531400Y-70530400D03*
D13*
X144781400Y-78250400D03*
X146181400Y-76850400D03*
X146181400Y-78250400D03*
X146181400Y-79650400D03*
X144781400Y-79650400D03*
X143381400Y-79650400D03*
X143381400Y-78250400D03*
X143381400Y-76850400D03*
X144781400Y-76850400D03*
D14*
X143256000Y-150533000D03*
X142061000Y-150533000D03*
D15*
X138773000Y-153200000D03*
X137638000Y-153200000D03*
M02*
