G04 #@! TF.GenerationSoftware,KiCad,Pcbnew,7.0.10*
G04 #@! TF.CreationDate,2024-11-08T17:23:18-05:00*
G04 #@! TF.ProjectId,Novel Mechanism 2 Board,4e6f7665-6c20-44d6-9563-68616e69736d,rev?*
G04 #@! TF.SameCoordinates,Original*
G04 #@! TF.FileFunction,Legend,Bot*
G04 #@! TF.FilePolarity,Positive*
%FSLAX46Y46*%
G04 Gerber Fmt 4.6, Leading zero omitted, Abs format (unit mm)*
G04 Created by KiCad (PCBNEW 7.0.10) date 2024-11-08 17:23:18*
%MOMM*%
%LPD*%
G01*
G04 APERTURE LIST*
G04 Aperture macros list*
%AMRoundRect*
0 Rectangle with rounded corners*
0 $1 Rounding radius*
0 $2 $3 $4 $5 $6 $7 $8 $9 X,Y pos of 4 corners*
0 Add a 4 corners polygon primitive as box body*
4,1,4,$2,$3,$4,$5,$6,$7,$8,$9,$2,$3,0*
0 Add four circle primitives for the rounded corners*
1,1,$1+$1,$2,$3*
1,1,$1+$1,$4,$5*
1,1,$1+$1,$6,$7*
1,1,$1+$1,$8,$9*
0 Add four rect primitives between the rounded corners*
20,1,$1+$1,$2,$3,$4,$5,0*
20,1,$1+$1,$4,$5,$6,$7,0*
20,1,$1+$1,$6,$7,$8,$9,0*
20,1,$1+$1,$8,$9,$2,$3,0*%
G04 Aperture macros list end*
%ADD10C,0.150000*%
%ADD11RoundRect,0.102000X-1.050000X-1.050000X1.050000X-1.050000X1.050000X1.050000X-1.050000X1.050000X0*%
%ADD12C,2.304000*%
%ADD13C,3.200000*%
%ADD14R,2.057400X2.057400*%
%ADD15C,2.057400*%
%ADD16RoundRect,0.102000X-1.050000X1.050000X-1.050000X-1.050000X1.050000X-1.050000X1.050000X1.050000X0*%
G04 APERTURE END LIST*
D10*
X155060839Y-89422200D02*
X154917982Y-89469819D01*
X154917982Y-89469819D02*
X154679887Y-89469819D01*
X154679887Y-89469819D02*
X154584649Y-89422200D01*
X154584649Y-89422200D02*
X154537030Y-89374580D01*
X154537030Y-89374580D02*
X154489411Y-89279342D01*
X154489411Y-89279342D02*
X154489411Y-89184104D01*
X154489411Y-89184104D02*
X154537030Y-89088866D01*
X154537030Y-89088866D02*
X154584649Y-89041247D01*
X154584649Y-89041247D02*
X154679887Y-88993628D01*
X154679887Y-88993628D02*
X154870363Y-88946009D01*
X154870363Y-88946009D02*
X154965601Y-88898390D01*
X154965601Y-88898390D02*
X155013220Y-88850771D01*
X155013220Y-88850771D02*
X155060839Y-88755533D01*
X155060839Y-88755533D02*
X155060839Y-88660295D01*
X155060839Y-88660295D02*
X155013220Y-88565057D01*
X155013220Y-88565057D02*
X154965601Y-88517438D01*
X154965601Y-88517438D02*
X154870363Y-88469819D01*
X154870363Y-88469819D02*
X154632268Y-88469819D01*
X154632268Y-88469819D02*
X154489411Y-88517438D01*
X153679887Y-89422200D02*
X153775125Y-89469819D01*
X153775125Y-89469819D02*
X153965601Y-89469819D01*
X153965601Y-89469819D02*
X154060839Y-89422200D01*
X154060839Y-89422200D02*
X154108458Y-89326961D01*
X154108458Y-89326961D02*
X154108458Y-88946009D01*
X154108458Y-88946009D02*
X154060839Y-88850771D01*
X154060839Y-88850771D02*
X153965601Y-88803152D01*
X153965601Y-88803152D02*
X153775125Y-88803152D01*
X153775125Y-88803152D02*
X153679887Y-88850771D01*
X153679887Y-88850771D02*
X153632268Y-88946009D01*
X153632268Y-88946009D02*
X153632268Y-89041247D01*
X153632268Y-89041247D02*
X154108458Y-89136485D01*
X153203696Y-88803152D02*
X153203696Y-89469819D01*
X153203696Y-88898390D02*
X153156077Y-88850771D01*
X153156077Y-88850771D02*
X153060839Y-88803152D01*
X153060839Y-88803152D02*
X152917982Y-88803152D01*
X152917982Y-88803152D02*
X152822744Y-88850771D01*
X152822744Y-88850771D02*
X152775125Y-88946009D01*
X152775125Y-88946009D02*
X152775125Y-89469819D01*
X152346553Y-89422200D02*
X152251315Y-89469819D01*
X152251315Y-89469819D02*
X152060839Y-89469819D01*
X152060839Y-89469819D02*
X151965601Y-89422200D01*
X151965601Y-89422200D02*
X151917982Y-89326961D01*
X151917982Y-89326961D02*
X151917982Y-89279342D01*
X151917982Y-89279342D02*
X151965601Y-89184104D01*
X151965601Y-89184104D02*
X152060839Y-89136485D01*
X152060839Y-89136485D02*
X152203696Y-89136485D01*
X152203696Y-89136485D02*
X152298934Y-89088866D01*
X152298934Y-89088866D02*
X152346553Y-88993628D01*
X152346553Y-88993628D02*
X152346553Y-88946009D01*
X152346553Y-88946009D02*
X152298934Y-88850771D01*
X152298934Y-88850771D02*
X152203696Y-88803152D01*
X152203696Y-88803152D02*
X152060839Y-88803152D01*
X152060839Y-88803152D02*
X151965601Y-88850771D01*
X151489410Y-89469819D02*
X151489410Y-88803152D01*
X151489410Y-88469819D02*
X151537029Y-88517438D01*
X151537029Y-88517438D02*
X151489410Y-88565057D01*
X151489410Y-88565057D02*
X151441791Y-88517438D01*
X151441791Y-88517438D02*
X151489410Y-88469819D01*
X151489410Y-88469819D02*
X151489410Y-88565057D01*
X151156077Y-88803152D02*
X150775125Y-88803152D01*
X151013220Y-89469819D02*
X151013220Y-88612676D01*
X151013220Y-88612676D02*
X150965601Y-88517438D01*
X150965601Y-88517438D02*
X150870363Y-88469819D01*
X150870363Y-88469819D02*
X150775125Y-88469819D01*
X150537029Y-88803152D02*
X150298934Y-89469819D01*
X150060839Y-88803152D02*
X150298934Y-89469819D01*
X150298934Y-89469819D02*
X150394172Y-89707914D01*
X150394172Y-89707914D02*
X150441791Y-89755533D01*
X150441791Y-89755533D02*
X150537029Y-89803152D01*
X148917981Y-89469819D02*
X148917981Y-88469819D01*
X148917981Y-88469819D02*
X148679886Y-88469819D01*
X148679886Y-88469819D02*
X148537029Y-88517438D01*
X148537029Y-88517438D02*
X148441791Y-88612676D01*
X148441791Y-88612676D02*
X148394172Y-88707914D01*
X148394172Y-88707914D02*
X148346553Y-88898390D01*
X148346553Y-88898390D02*
X148346553Y-89041247D01*
X148346553Y-89041247D02*
X148394172Y-89231723D01*
X148394172Y-89231723D02*
X148441791Y-89326961D01*
X148441791Y-89326961D02*
X148537029Y-89422200D01*
X148537029Y-89422200D02*
X148679886Y-89469819D01*
X148679886Y-89469819D02*
X148917981Y-89469819D01*
X147917981Y-89469819D02*
X147917981Y-88803152D01*
X147917981Y-88993628D02*
X147870362Y-88898390D01*
X147870362Y-88898390D02*
X147822743Y-88850771D01*
X147822743Y-88850771D02*
X147727505Y-88803152D01*
X147727505Y-88803152D02*
X147632267Y-88803152D01*
X147298933Y-89469819D02*
X147298933Y-88803152D01*
X147298933Y-88469819D02*
X147346552Y-88517438D01*
X147346552Y-88517438D02*
X147298933Y-88565057D01*
X147298933Y-88565057D02*
X147251314Y-88517438D01*
X147251314Y-88517438D02*
X147298933Y-88469819D01*
X147298933Y-88469819D02*
X147298933Y-88565057D01*
X146679886Y-89469819D02*
X146775124Y-89422200D01*
X146775124Y-89422200D02*
X146822743Y-89326961D01*
X146822743Y-89326961D02*
X146822743Y-88469819D01*
X146156076Y-89469819D02*
X146251314Y-89422200D01*
X146251314Y-89422200D02*
X146298933Y-89326961D01*
X146298933Y-89326961D02*
X146298933Y-88469819D01*
X145013218Y-89469819D02*
X145013218Y-88469819D01*
X145013218Y-88469819D02*
X144679885Y-89184104D01*
X144679885Y-89184104D02*
X144346552Y-88469819D01*
X144346552Y-88469819D02*
X144346552Y-89469819D01*
X143727504Y-89469819D02*
X143822742Y-89422200D01*
X143822742Y-89422200D02*
X143870361Y-89374580D01*
X143870361Y-89374580D02*
X143917980Y-89279342D01*
X143917980Y-89279342D02*
X143917980Y-88993628D01*
X143917980Y-88993628D02*
X143870361Y-88898390D01*
X143870361Y-88898390D02*
X143822742Y-88850771D01*
X143822742Y-88850771D02*
X143727504Y-88803152D01*
X143727504Y-88803152D02*
X143584647Y-88803152D01*
X143584647Y-88803152D02*
X143489409Y-88850771D01*
X143489409Y-88850771D02*
X143441790Y-88898390D01*
X143441790Y-88898390D02*
X143394171Y-88993628D01*
X143394171Y-88993628D02*
X143394171Y-89279342D01*
X143394171Y-89279342D02*
X143441790Y-89374580D01*
X143441790Y-89374580D02*
X143489409Y-89422200D01*
X143489409Y-89422200D02*
X143584647Y-89469819D01*
X143584647Y-89469819D02*
X143727504Y-89469819D01*
X142537028Y-89469819D02*
X142537028Y-88469819D01*
X142537028Y-89422200D02*
X142632266Y-89469819D01*
X142632266Y-89469819D02*
X142822742Y-89469819D01*
X142822742Y-89469819D02*
X142917980Y-89422200D01*
X142917980Y-89422200D02*
X142965599Y-89374580D01*
X142965599Y-89374580D02*
X143013218Y-89279342D01*
X143013218Y-89279342D02*
X143013218Y-88993628D01*
X143013218Y-88993628D02*
X142965599Y-88898390D01*
X142965599Y-88898390D02*
X142917980Y-88850771D01*
X142917980Y-88850771D02*
X142822742Y-88803152D01*
X142822742Y-88803152D02*
X142632266Y-88803152D01*
X142632266Y-88803152D02*
X142537028Y-88850771D01*
X141632266Y-88803152D02*
X141632266Y-89469819D01*
X142060837Y-88803152D02*
X142060837Y-89326961D01*
X142060837Y-89326961D02*
X142013218Y-89422200D01*
X142013218Y-89422200D02*
X141917980Y-89469819D01*
X141917980Y-89469819D02*
X141775123Y-89469819D01*
X141775123Y-89469819D02*
X141679885Y-89422200D01*
X141679885Y-89422200D02*
X141632266Y-89374580D01*
X141013218Y-89469819D02*
X141108456Y-89422200D01*
X141108456Y-89422200D02*
X141156075Y-89326961D01*
X141156075Y-89326961D02*
X141156075Y-88469819D01*
X140251313Y-89422200D02*
X140346551Y-89469819D01*
X140346551Y-89469819D02*
X140537027Y-89469819D01*
X140537027Y-89469819D02*
X140632265Y-89422200D01*
X140632265Y-89422200D02*
X140679884Y-89326961D01*
X140679884Y-89326961D02*
X140679884Y-88946009D01*
X140679884Y-88946009D02*
X140632265Y-88850771D01*
X140632265Y-88850771D02*
X140537027Y-88803152D01*
X140537027Y-88803152D02*
X140346551Y-88803152D01*
X140346551Y-88803152D02*
X140251313Y-88850771D01*
X140251313Y-88850771D02*
X140203694Y-88946009D01*
X140203694Y-88946009D02*
X140203694Y-89041247D01*
X140203694Y-89041247D02*
X140679884Y-89136485D01*
X139013217Y-89469819D02*
X139013217Y-88469819D01*
X139013217Y-88850771D02*
X138917979Y-88803152D01*
X138917979Y-88803152D02*
X138727503Y-88803152D01*
X138727503Y-88803152D02*
X138632265Y-88850771D01*
X138632265Y-88850771D02*
X138584646Y-88898390D01*
X138584646Y-88898390D02*
X138537027Y-88993628D01*
X138537027Y-88993628D02*
X138537027Y-89279342D01*
X138537027Y-89279342D02*
X138584646Y-89374580D01*
X138584646Y-89374580D02*
X138632265Y-89422200D01*
X138632265Y-89422200D02*
X138727503Y-89469819D01*
X138727503Y-89469819D02*
X138917979Y-89469819D01*
X138917979Y-89469819D02*
X139013217Y-89422200D01*
X138203693Y-88803152D02*
X137965598Y-89469819D01*
X137727503Y-88803152D02*
X137965598Y-89469819D01*
X137965598Y-89469819D02*
X138060836Y-89707914D01*
X138060836Y-89707914D02*
X138108455Y-89755533D01*
X138108455Y-89755533D02*
X138203693Y-89803152D01*
X136584645Y-89469819D02*
X136584645Y-88469819D01*
X136584645Y-88946009D02*
X136013217Y-88946009D01*
X136013217Y-89469819D02*
X136013217Y-88469819D01*
X135108455Y-89469819D02*
X135108455Y-88946009D01*
X135108455Y-88946009D02*
X135156074Y-88850771D01*
X135156074Y-88850771D02*
X135251312Y-88803152D01*
X135251312Y-88803152D02*
X135441788Y-88803152D01*
X135441788Y-88803152D02*
X135537026Y-88850771D01*
X135108455Y-89422200D02*
X135203693Y-89469819D01*
X135203693Y-89469819D02*
X135441788Y-89469819D01*
X135441788Y-89469819D02*
X135537026Y-89422200D01*
X135537026Y-89422200D02*
X135584645Y-89326961D01*
X135584645Y-89326961D02*
X135584645Y-89231723D01*
X135584645Y-89231723D02*
X135537026Y-89136485D01*
X135537026Y-89136485D02*
X135441788Y-89088866D01*
X135441788Y-89088866D02*
X135203693Y-89088866D01*
X135203693Y-89088866D02*
X135108455Y-89041247D01*
X134632264Y-89469819D02*
X134632264Y-88803152D01*
X134632264Y-88993628D02*
X134584645Y-88898390D01*
X134584645Y-88898390D02*
X134537026Y-88850771D01*
X134537026Y-88850771D02*
X134441788Y-88803152D01*
X134441788Y-88803152D02*
X134346550Y-88803152D01*
X134013216Y-89469819D02*
X134013216Y-88803152D01*
X134013216Y-88469819D02*
X134060835Y-88517438D01*
X134060835Y-88517438D02*
X134013216Y-88565057D01*
X134013216Y-88565057D02*
X133965597Y-88517438D01*
X133965597Y-88517438D02*
X134013216Y-88469819D01*
X134013216Y-88469819D02*
X134013216Y-88565057D01*
X132775121Y-89469819D02*
X132775121Y-88469819D01*
X132775121Y-88469819D02*
X132203693Y-89469819D01*
X132203693Y-89469819D02*
X132203693Y-88469819D01*
X131727502Y-89374580D02*
X131679883Y-89422200D01*
X131679883Y-89422200D02*
X131727502Y-89469819D01*
X131727502Y-89469819D02*
X131775121Y-89422200D01*
X131775121Y-89422200D02*
X131727502Y-89374580D01*
X131727502Y-89374580D02*
X131727502Y-89469819D01*
%LPC*%
D11*
X123212500Y-53752500D03*
D12*
X128292500Y-53752500D03*
D13*
X153350000Y-48650000D03*
D14*
X124300000Y-60682150D03*
D15*
X124300000Y-82170550D03*
D16*
X149147500Y-63360000D03*
D12*
X149147500Y-68440000D03*
D13*
X123050000Y-86950000D03*
X135650000Y-48650000D03*
%LPD*%
M02*
