G04 #@! TF.GenerationSoftware,KiCad,Pcbnew,7.0.10*
G04 #@! TF.CreationDate,2024-11-08T09:50:35-05:00*
G04 #@! TF.ProjectId,Novel Mechanism 2 Board,4e6f7665-6c20-44d6-9563-68616e69736d,rev?*
G04 #@! TF.SameCoordinates,Original*
G04 #@! TF.FileFunction,Soldermask,Top*
G04 #@! TF.FilePolarity,Negative*
%FSLAX46Y46*%
G04 Gerber Fmt 4.6, Leading zero omitted, Abs format (unit mm)*
G04 Created by KiCad (PCBNEW 7.0.10) date 2024-11-08 09:50:35*
%MOMM*%
%LPD*%
G01*
G04 APERTURE LIST*
G04 APERTURE END LIST*
G36*
X135954160Y-85979600D02*
G01*
X135978882Y-85996118D01*
X135995400Y-86020840D01*
X136001200Y-86050000D01*
X136001200Y-89050000D01*
X135995400Y-89079160D01*
X135978882Y-89103882D01*
X135954160Y-89120400D01*
X135925000Y-89126200D01*
X133825000Y-89126200D01*
X133795840Y-89120400D01*
X133771118Y-89103882D01*
X133754600Y-89079160D01*
X133748800Y-89050000D01*
X133748800Y-86050000D01*
X133754600Y-86020840D01*
X133771118Y-85996118D01*
X133795840Y-85979600D01*
X133825000Y-85973800D01*
X135925000Y-85973800D01*
X135954160Y-85979600D01*
G37*
G36*
X154804160Y-85979600D02*
G01*
X154828882Y-85996118D01*
X154845400Y-86020840D01*
X154851200Y-86050000D01*
X154851200Y-89050000D01*
X154845400Y-89079160D01*
X154828882Y-89103882D01*
X154804160Y-89120400D01*
X154775000Y-89126200D01*
X152675000Y-89126200D01*
X152645840Y-89120400D01*
X152621118Y-89103882D01*
X152604600Y-89079160D01*
X152598800Y-89050000D01*
X152598800Y-86050000D01*
X152604600Y-86020840D01*
X152621118Y-85996118D01*
X152645840Y-85979600D01*
X152675000Y-85973800D01*
X154775000Y-85973800D01*
X154804160Y-85979600D01*
G37*
G36*
X123300295Y-85369699D02*
G01*
X123544427Y-85428310D01*
X123776385Y-85524390D01*
X123990456Y-85655573D01*
X124181371Y-85818629D01*
X124344427Y-86009544D01*
X124475610Y-86223615D01*
X124571690Y-86455573D01*
X124630301Y-86699705D01*
X124650000Y-86950000D01*
X124630301Y-87200295D01*
X124571690Y-87444427D01*
X124475610Y-87676385D01*
X124344427Y-87890456D01*
X124181371Y-88081371D01*
X123990456Y-88244427D01*
X123776385Y-88375610D01*
X123544427Y-88471690D01*
X123300295Y-88530301D01*
X123050000Y-88550000D01*
X122799705Y-88530301D01*
X122555573Y-88471690D01*
X122323615Y-88375610D01*
X122109544Y-88244427D01*
X121918629Y-88081371D01*
X121755573Y-87890456D01*
X121624390Y-87676385D01*
X121528310Y-87444427D01*
X121469699Y-87200295D01*
X121450000Y-86950000D01*
X121469699Y-86699705D01*
X121528310Y-86455573D01*
X121624390Y-86223615D01*
X121755573Y-86009544D01*
X121918629Y-85818629D01*
X122109544Y-85655573D01*
X122323615Y-85524390D01*
X122555573Y-85428310D01*
X122799705Y-85369699D01*
X123050000Y-85350000D01*
X123300295Y-85369699D01*
G37*
G36*
X130250645Y-82676858D02*
G01*
X130257318Y-82679347D01*
X130262156Y-82679928D01*
X130319410Y-82702506D01*
X130383187Y-82726294D01*
X130387034Y-82729173D01*
X130388353Y-82729694D01*
X130436365Y-82766102D01*
X130496432Y-82811068D01*
X130541416Y-82871159D01*
X130577805Y-82919146D01*
X130578324Y-82920464D01*
X130581206Y-82924313D01*
X130605007Y-82988127D01*
X130627571Y-83045344D01*
X130628151Y-83050177D01*
X130630642Y-83056855D01*
X130642000Y-83162500D01*
X130642000Y-85992500D01*
X130630642Y-86098145D01*
X130628151Y-86104822D01*
X130627571Y-86109656D01*
X130605011Y-86166863D01*
X130581206Y-86230687D01*
X130578324Y-86234536D01*
X130577805Y-86235853D01*
X130541474Y-86283762D01*
X130496432Y-86343932D01*
X130436262Y-86388974D01*
X130388353Y-86425305D01*
X130387036Y-86425823D01*
X130383187Y-86428706D01*
X130319353Y-86452514D01*
X130262155Y-86475071D01*
X130257322Y-86475651D01*
X130250645Y-86478142D01*
X130145000Y-86489500D01*
X129355000Y-86489500D01*
X129249355Y-86478142D01*
X129242678Y-86475651D01*
X129237843Y-86475071D01*
X129180617Y-86452504D01*
X129116813Y-86428706D01*
X129112964Y-86425824D01*
X129111646Y-86425305D01*
X129063659Y-86388916D01*
X129003568Y-86343932D01*
X128958602Y-86283865D01*
X128922194Y-86235853D01*
X128921673Y-86234534D01*
X128918794Y-86230687D01*
X128895002Y-86166900D01*
X128872428Y-86109655D01*
X128871847Y-86104818D01*
X128869358Y-86098145D01*
X128858000Y-85992500D01*
X128858000Y-83162500D01*
X128869358Y-83056855D01*
X128871846Y-83050182D01*
X128872428Y-83045343D01*
X128895013Y-82988071D01*
X128918794Y-82924313D01*
X128921673Y-82920467D01*
X128922194Y-82919146D01*
X128958660Y-82871057D01*
X129003568Y-82811068D01*
X129063557Y-82766160D01*
X129111646Y-82729694D01*
X129112967Y-82729173D01*
X129116813Y-82726294D01*
X129180581Y-82702509D01*
X129237844Y-82679928D01*
X129242681Y-82679347D01*
X129249355Y-82676858D01*
X129355000Y-82665500D01*
X130145000Y-82665500D01*
X130250645Y-82676858D01*
G37*
G36*
X137854160Y-83779600D02*
G01*
X137878882Y-83796118D01*
X137895400Y-83820840D01*
X137901200Y-83850000D01*
X137901200Y-85450000D01*
X137895400Y-85479160D01*
X137878882Y-85503882D01*
X137854160Y-85520400D01*
X137825000Y-85526200D01*
X137025000Y-85526200D01*
X136995840Y-85520400D01*
X136971118Y-85503882D01*
X136954600Y-85479160D01*
X136948800Y-85450000D01*
X136948800Y-83850000D01*
X136954600Y-83820840D01*
X136971118Y-83796118D01*
X136995840Y-83779600D01*
X137025000Y-83773800D01*
X137825000Y-83773800D01*
X137854160Y-83779600D01*
G37*
G36*
X139104160Y-83779600D02*
G01*
X139128882Y-83796118D01*
X139145400Y-83820840D01*
X139151200Y-83850000D01*
X139151200Y-85450000D01*
X139145400Y-85479160D01*
X139128882Y-85503882D01*
X139104160Y-85520400D01*
X139075000Y-85526200D01*
X138275000Y-85526200D01*
X138245840Y-85520400D01*
X138221118Y-85503882D01*
X138204600Y-85479160D01*
X138198800Y-85450000D01*
X138198800Y-83850000D01*
X138204600Y-83820840D01*
X138221118Y-83796118D01*
X138245840Y-83779600D01*
X138275000Y-83773800D01*
X139075000Y-83773800D01*
X139104160Y-83779600D01*
G37*
G36*
X140354160Y-83779600D02*
G01*
X140378882Y-83796118D01*
X140395400Y-83820840D01*
X140401200Y-83850000D01*
X140401200Y-85450000D01*
X140395400Y-85479160D01*
X140378882Y-85503882D01*
X140354160Y-85520400D01*
X140325000Y-85526200D01*
X139525000Y-85526200D01*
X139495840Y-85520400D01*
X139471118Y-85503882D01*
X139454600Y-85479160D01*
X139448800Y-85450000D01*
X139448800Y-83850000D01*
X139454600Y-83820840D01*
X139471118Y-83796118D01*
X139495840Y-83779600D01*
X139525000Y-83773800D01*
X140325000Y-83773800D01*
X140354160Y-83779600D01*
G37*
G36*
X141604160Y-83779600D02*
G01*
X141628882Y-83796118D01*
X141645400Y-83820840D01*
X141651200Y-83850000D01*
X141651200Y-85450000D01*
X141645400Y-85479160D01*
X141628882Y-85503882D01*
X141604160Y-85520400D01*
X141575000Y-85526200D01*
X140775000Y-85526200D01*
X140745840Y-85520400D01*
X140721118Y-85503882D01*
X140704600Y-85479160D01*
X140698800Y-85450000D01*
X140698800Y-83850000D01*
X140704600Y-83820840D01*
X140721118Y-83796118D01*
X140745840Y-83779600D01*
X140775000Y-83773800D01*
X141575000Y-83773800D01*
X141604160Y-83779600D01*
G37*
G36*
X142854160Y-83779600D02*
G01*
X142878882Y-83796118D01*
X142895400Y-83820840D01*
X142901200Y-83850000D01*
X142901200Y-85450000D01*
X142895400Y-85479160D01*
X142878882Y-85503882D01*
X142854160Y-85520400D01*
X142825000Y-85526200D01*
X142025000Y-85526200D01*
X141995840Y-85520400D01*
X141971118Y-85503882D01*
X141954600Y-85479160D01*
X141948800Y-85450000D01*
X141948800Y-83850000D01*
X141954600Y-83820840D01*
X141971118Y-83796118D01*
X141995840Y-83779600D01*
X142025000Y-83773800D01*
X142825000Y-83773800D01*
X142854160Y-83779600D01*
G37*
G36*
X144104160Y-83779600D02*
G01*
X144128882Y-83796118D01*
X144145400Y-83820840D01*
X144151200Y-83850000D01*
X144151200Y-85450000D01*
X144145400Y-85479160D01*
X144128882Y-85503882D01*
X144104160Y-85520400D01*
X144075000Y-85526200D01*
X143275000Y-85526200D01*
X143245840Y-85520400D01*
X143221118Y-85503882D01*
X143204600Y-85479160D01*
X143198800Y-85450000D01*
X143198800Y-83850000D01*
X143204600Y-83820840D01*
X143221118Y-83796118D01*
X143245840Y-83779600D01*
X143275000Y-83773800D01*
X144075000Y-83773800D01*
X144104160Y-83779600D01*
G37*
G36*
X145354160Y-83779600D02*
G01*
X145378882Y-83796118D01*
X145395400Y-83820840D01*
X145401200Y-83850000D01*
X145401200Y-85450000D01*
X145395400Y-85479160D01*
X145378882Y-85503882D01*
X145354160Y-85520400D01*
X145325000Y-85526200D01*
X144525000Y-85526200D01*
X144495840Y-85520400D01*
X144471118Y-85503882D01*
X144454600Y-85479160D01*
X144448800Y-85450000D01*
X144448800Y-83850000D01*
X144454600Y-83820840D01*
X144471118Y-83796118D01*
X144495840Y-83779600D01*
X144525000Y-83773800D01*
X145325000Y-83773800D01*
X145354160Y-83779600D01*
G37*
G36*
X146604160Y-83779600D02*
G01*
X146628882Y-83796118D01*
X146645400Y-83820840D01*
X146651200Y-83850000D01*
X146651200Y-85450000D01*
X146645400Y-85479160D01*
X146628882Y-85503882D01*
X146604160Y-85520400D01*
X146575000Y-85526200D01*
X145775000Y-85526200D01*
X145745840Y-85520400D01*
X145721118Y-85503882D01*
X145704600Y-85479160D01*
X145698800Y-85450000D01*
X145698800Y-83850000D01*
X145704600Y-83820840D01*
X145721118Y-83796118D01*
X145745840Y-83779600D01*
X145775000Y-83773800D01*
X146575000Y-83773800D01*
X146604160Y-83779600D01*
G37*
G36*
X147854160Y-83779600D02*
G01*
X147878882Y-83796118D01*
X147895400Y-83820840D01*
X147901200Y-83850000D01*
X147901200Y-85450000D01*
X147895400Y-85479160D01*
X147878882Y-85503882D01*
X147854160Y-85520400D01*
X147825000Y-85526200D01*
X147025000Y-85526200D01*
X146995840Y-85520400D01*
X146971118Y-85503882D01*
X146954600Y-85479160D01*
X146948800Y-85450000D01*
X146948800Y-83850000D01*
X146954600Y-83820840D01*
X146971118Y-83796118D01*
X146995840Y-83779600D01*
X147025000Y-83773800D01*
X147825000Y-83773800D01*
X147854160Y-83779600D01*
G37*
G36*
X149104160Y-83779600D02*
G01*
X149128882Y-83796118D01*
X149145400Y-83820840D01*
X149151200Y-83850000D01*
X149151200Y-85450000D01*
X149145400Y-85479160D01*
X149128882Y-85503882D01*
X149104160Y-85520400D01*
X149075000Y-85526200D01*
X148275000Y-85526200D01*
X148245840Y-85520400D01*
X148221118Y-85503882D01*
X148204600Y-85479160D01*
X148198800Y-85450000D01*
X148198800Y-83850000D01*
X148204600Y-83820840D01*
X148221118Y-83796118D01*
X148245840Y-83779600D01*
X148275000Y-83773800D01*
X149075000Y-83773800D01*
X149104160Y-83779600D01*
G37*
G36*
X150354160Y-83779600D02*
G01*
X150378882Y-83796118D01*
X150395400Y-83820840D01*
X150401200Y-83850000D01*
X150401200Y-85450000D01*
X150395400Y-85479160D01*
X150378882Y-85503882D01*
X150354160Y-85520400D01*
X150325000Y-85526200D01*
X149525000Y-85526200D01*
X149495840Y-85520400D01*
X149471118Y-85503882D01*
X149454600Y-85479160D01*
X149448800Y-85450000D01*
X149448800Y-83850000D01*
X149454600Y-83820840D01*
X149471118Y-83796118D01*
X149495840Y-83779600D01*
X149525000Y-83773800D01*
X150325000Y-83773800D01*
X150354160Y-83779600D01*
G37*
G36*
X151604160Y-83779600D02*
G01*
X151628882Y-83796118D01*
X151645400Y-83820840D01*
X151651200Y-83850000D01*
X151651200Y-85450000D01*
X151645400Y-85479160D01*
X151628882Y-85503882D01*
X151604160Y-85520400D01*
X151575000Y-85526200D01*
X150775000Y-85526200D01*
X150745840Y-85520400D01*
X150721118Y-85503882D01*
X150704600Y-85479160D01*
X150698800Y-85450000D01*
X150698800Y-83850000D01*
X150704600Y-83820840D01*
X150721118Y-83796118D01*
X150745840Y-83779600D01*
X150775000Y-83773800D01*
X151575000Y-83773800D01*
X151604160Y-83779600D01*
G37*
G36*
X124346725Y-81146452D02*
G01*
X124394895Y-81146452D01*
X124448539Y-81156479D01*
X124500689Y-81161616D01*
X124540305Y-81173633D01*
X124581457Y-81181326D01*
X124638455Y-81203406D01*
X124693666Y-81220155D01*
X124725209Y-81237015D01*
X124758438Y-81249888D01*
X124816168Y-81285633D01*
X124871515Y-81315217D01*
X124894773Y-81334304D01*
X124919799Y-81349800D01*
X124975253Y-81400352D01*
X125027401Y-81443149D01*
X125042851Y-81461976D01*
X125060061Y-81477664D01*
X125110018Y-81543818D01*
X125155333Y-81599035D01*
X125164096Y-81615430D01*
X125174435Y-81629121D01*
X125215573Y-81711736D01*
X125250395Y-81776884D01*
X125254108Y-81789124D01*
X125259035Y-81799019D01*
X125288137Y-81901304D01*
X125308934Y-81969861D01*
X125309617Y-81976797D01*
X125310973Y-81981563D01*
X125325066Y-82133660D01*
X125328700Y-82170550D01*
X125325066Y-82207442D01*
X125310973Y-82359536D01*
X125309617Y-82364300D01*
X125308934Y-82371239D01*
X125288133Y-82439810D01*
X125259035Y-82542080D01*
X125254108Y-82551972D01*
X125250395Y-82564216D01*
X125215565Y-82629376D01*
X125174435Y-82711978D01*
X125164098Y-82725665D01*
X125155333Y-82742065D01*
X125110008Y-82797292D01*
X125060061Y-82863435D01*
X125042855Y-82879119D01*
X125027401Y-82897951D01*
X124975242Y-82940756D01*
X124919799Y-82991299D01*
X124894778Y-83006791D01*
X124871515Y-83025883D01*
X124816156Y-83055472D01*
X124758438Y-83091211D01*
X124725216Y-83104080D01*
X124693666Y-83120945D01*
X124638443Y-83137696D01*
X124581457Y-83159773D01*
X124540312Y-83167464D01*
X124500689Y-83179484D01*
X124448536Y-83184620D01*
X124394895Y-83194648D01*
X124346725Y-83194648D01*
X124300000Y-83199250D01*
X124253275Y-83194648D01*
X124205105Y-83194648D01*
X124151463Y-83184620D01*
X124099311Y-83179484D01*
X124059688Y-83167464D01*
X124018542Y-83159773D01*
X123961552Y-83137695D01*
X123906334Y-83120945D01*
X123874785Y-83104082D01*
X123841561Y-83091211D01*
X123783835Y-83055468D01*
X123728485Y-83025883D01*
X123705224Y-83006794D01*
X123680200Y-82991299D01*
X123624747Y-82940748D01*
X123572599Y-82897951D01*
X123557147Y-82879123D01*
X123539938Y-82863435D01*
X123489978Y-82797277D01*
X123444667Y-82742065D01*
X123435903Y-82725670D01*
X123425564Y-82711978D01*
X123384419Y-82629349D01*
X123349605Y-82564216D01*
X123345892Y-82551977D01*
X123340964Y-82542080D01*
X123311850Y-82439757D01*
X123291066Y-82371239D01*
X123290383Y-82364305D01*
X123289026Y-82359536D01*
X123274916Y-82207270D01*
X123271300Y-82170550D01*
X123274916Y-82133832D01*
X123289026Y-81981563D01*
X123290383Y-81976792D01*
X123291066Y-81969861D01*
X123311846Y-81901357D01*
X123340964Y-81799019D01*
X123345893Y-81789119D01*
X123349605Y-81776884D01*
X123384412Y-81711764D01*
X123425564Y-81629121D01*
X123435905Y-81615426D01*
X123444667Y-81599035D01*
X123489969Y-81543833D01*
X123539938Y-81477664D01*
X123557151Y-81461972D01*
X123572599Y-81443149D01*
X123624736Y-81400360D01*
X123680200Y-81349800D01*
X123705229Y-81334301D01*
X123728485Y-81315217D01*
X123783824Y-81285637D01*
X123841561Y-81249888D01*
X123874792Y-81237014D01*
X123906334Y-81220155D01*
X123961540Y-81203408D01*
X124018542Y-81181326D01*
X124059695Y-81173633D01*
X124099311Y-81161616D01*
X124151459Y-81156479D01*
X124205105Y-81146452D01*
X124253275Y-81146452D01*
X124300000Y-81141850D01*
X124346725Y-81146452D01*
G37*
G36*
X140489034Y-82205764D02*
G01*
X140522125Y-82227875D01*
X140544236Y-82260966D01*
X140552000Y-82300000D01*
X140552000Y-82950000D01*
X140544236Y-82989034D01*
X140522125Y-83022125D01*
X140489034Y-83044236D01*
X140450000Y-83052000D01*
X139550000Y-83052000D01*
X139510966Y-83044236D01*
X139477875Y-83022125D01*
X139455764Y-82989034D01*
X139448000Y-82950000D01*
X139448000Y-82300000D01*
X139455764Y-82260966D01*
X139477875Y-82227875D01*
X139510966Y-82205764D01*
X139550000Y-82198000D01*
X140450000Y-82198000D01*
X140489034Y-82205764D01*
G37*
G36*
X150739034Y-81055764D02*
G01*
X150772125Y-81077875D01*
X150794236Y-81110966D01*
X150802000Y-81150000D01*
X150802000Y-82050000D01*
X150794236Y-82089034D01*
X150772125Y-82122125D01*
X150739034Y-82144236D01*
X150700000Y-82152000D01*
X150050000Y-82152000D01*
X150010966Y-82144236D01*
X149977875Y-82122125D01*
X149955764Y-82089034D01*
X149948000Y-82050000D01*
X149948000Y-81150000D01*
X149955764Y-81110966D01*
X149977875Y-81077875D01*
X150010966Y-81055764D01*
X150050000Y-81048000D01*
X150700000Y-81048000D01*
X150739034Y-81055764D01*
G37*
G36*
X152189034Y-81055764D02*
G01*
X152222125Y-81077875D01*
X152244236Y-81110966D01*
X152252000Y-81150000D01*
X152252000Y-82050000D01*
X152244236Y-82089034D01*
X152222125Y-82122125D01*
X152189034Y-82144236D01*
X152150000Y-82152000D01*
X151500000Y-82152000D01*
X151460966Y-82144236D01*
X151427875Y-82122125D01*
X151405764Y-82089034D01*
X151398000Y-82050000D01*
X151398000Y-81150000D01*
X151405764Y-81110966D01*
X151427875Y-81077875D01*
X151460966Y-81055764D01*
X151500000Y-81048000D01*
X152150000Y-81048000D01*
X152189034Y-81055764D01*
G37*
G36*
X140489034Y-80755764D02*
G01*
X140522125Y-80777875D01*
X140544236Y-80810966D01*
X140552000Y-80850000D01*
X140552000Y-81500000D01*
X140544236Y-81539034D01*
X140522125Y-81572125D01*
X140489034Y-81594236D01*
X140450000Y-81602000D01*
X139550000Y-81602000D01*
X139510966Y-81594236D01*
X139477875Y-81572125D01*
X139455764Y-81539034D01*
X139448000Y-81500000D01*
X139448000Y-80850000D01*
X139455764Y-80810966D01*
X139477875Y-80777875D01*
X139510966Y-80755764D01*
X139550000Y-80748000D01*
X140450000Y-80748000D01*
X140489034Y-80755764D01*
G37*
G36*
X147639034Y-80455764D02*
G01*
X147672125Y-80477875D01*
X147694236Y-80510966D01*
X147702000Y-80550000D01*
X147702000Y-81450000D01*
X147694236Y-81489034D01*
X147672125Y-81522125D01*
X147639034Y-81544236D01*
X147600000Y-81552000D01*
X146950000Y-81552000D01*
X146910966Y-81544236D01*
X146877875Y-81522125D01*
X146855764Y-81489034D01*
X146848000Y-81450000D01*
X146848000Y-80550000D01*
X146855764Y-80510966D01*
X146877875Y-80477875D01*
X146910966Y-80455764D01*
X146950000Y-80448000D01*
X147600000Y-80448000D01*
X147639034Y-80455764D01*
G37*
G36*
X149089034Y-80455764D02*
G01*
X149122125Y-80477875D01*
X149144236Y-80510966D01*
X149152000Y-80550000D01*
X149152000Y-81450000D01*
X149144236Y-81489034D01*
X149122125Y-81522125D01*
X149089034Y-81544236D01*
X149050000Y-81552000D01*
X148400000Y-81552000D01*
X148360966Y-81544236D01*
X148327875Y-81522125D01*
X148305764Y-81489034D01*
X148298000Y-81450000D01*
X148298000Y-80550000D01*
X148305764Y-80510966D01*
X148327875Y-80477875D01*
X148360966Y-80455764D01*
X148400000Y-80448000D01*
X149050000Y-80448000D01*
X149089034Y-80455764D01*
G37*
G36*
X142339034Y-80355764D02*
G01*
X142372125Y-80377875D01*
X142394236Y-80410966D01*
X142402000Y-80450000D01*
X142402000Y-81350000D01*
X142394236Y-81389034D01*
X142372125Y-81422125D01*
X142339034Y-81444236D01*
X142300000Y-81452000D01*
X141650000Y-81452000D01*
X141610966Y-81444236D01*
X141577875Y-81422125D01*
X141555764Y-81389034D01*
X141548000Y-81350000D01*
X141548000Y-80450000D01*
X141555764Y-80410966D01*
X141577875Y-80377875D01*
X141610966Y-80355764D01*
X141650000Y-80348000D01*
X142300000Y-80348000D01*
X142339034Y-80355764D01*
G37*
G36*
X143789034Y-80355764D02*
G01*
X143822125Y-80377875D01*
X143844236Y-80410966D01*
X143852000Y-80450000D01*
X143852000Y-81350000D01*
X143844236Y-81389034D01*
X143822125Y-81422125D01*
X143789034Y-81444236D01*
X143750000Y-81452000D01*
X143100000Y-81452000D01*
X143060966Y-81444236D01*
X143027875Y-81422125D01*
X143005764Y-81389034D01*
X142998000Y-81350000D01*
X142998000Y-80450000D01*
X143005764Y-80410966D01*
X143027875Y-80377875D01*
X143060966Y-80355764D01*
X143100000Y-80348000D01*
X143750000Y-80348000D01*
X143789034Y-80355764D01*
G37*
G36*
X130250645Y-77276858D02*
G01*
X130257318Y-77279347D01*
X130262156Y-77279928D01*
X130319410Y-77302506D01*
X130383187Y-77326294D01*
X130387034Y-77329173D01*
X130388353Y-77329694D01*
X130436365Y-77366102D01*
X130496432Y-77411068D01*
X130541416Y-77471159D01*
X130577805Y-77519146D01*
X130578324Y-77520464D01*
X130581206Y-77524313D01*
X130605007Y-77588127D01*
X130627571Y-77645344D01*
X130628151Y-77650177D01*
X130630642Y-77656855D01*
X130642000Y-77762500D01*
X130642000Y-80592500D01*
X130630642Y-80698145D01*
X130628151Y-80704822D01*
X130627571Y-80709656D01*
X130605011Y-80766863D01*
X130581206Y-80830687D01*
X130578324Y-80834536D01*
X130577805Y-80835853D01*
X130541474Y-80883762D01*
X130496432Y-80943932D01*
X130436262Y-80988974D01*
X130388353Y-81025305D01*
X130387036Y-81025823D01*
X130383187Y-81028706D01*
X130319353Y-81052514D01*
X130262155Y-81075071D01*
X130257322Y-81075651D01*
X130250645Y-81078142D01*
X130145000Y-81089500D01*
X129355000Y-81089500D01*
X129249355Y-81078142D01*
X129242678Y-81075651D01*
X129237843Y-81075071D01*
X129180617Y-81052504D01*
X129116813Y-81028706D01*
X129112964Y-81025824D01*
X129111646Y-81025305D01*
X129063659Y-80988916D01*
X129003568Y-80943932D01*
X128958602Y-80883865D01*
X128922194Y-80835853D01*
X128921673Y-80834534D01*
X128918794Y-80830687D01*
X128895002Y-80766900D01*
X128872428Y-80709655D01*
X128871847Y-80704818D01*
X128869358Y-80698145D01*
X128858000Y-80592500D01*
X128858000Y-77762500D01*
X128869358Y-77656855D01*
X128871846Y-77650182D01*
X128872428Y-77645343D01*
X128895013Y-77588071D01*
X128918794Y-77524313D01*
X128921673Y-77520467D01*
X128922194Y-77519146D01*
X128958660Y-77471057D01*
X129003568Y-77411068D01*
X129063557Y-77366160D01*
X129111646Y-77329694D01*
X129112967Y-77329173D01*
X129116813Y-77326294D01*
X129180581Y-77302509D01*
X129237844Y-77279928D01*
X129242681Y-77279347D01*
X129249355Y-77276858D01*
X129355000Y-77265500D01*
X130145000Y-77265500D01*
X130250645Y-77276858D01*
G37*
G36*
X149457735Y-76866473D02*
G01*
X149515158Y-76904842D01*
X149553527Y-76962265D01*
X149567000Y-77030000D01*
X149567000Y-77480000D01*
X149553527Y-77547735D01*
X149515158Y-77605158D01*
X149457735Y-77643527D01*
X149390000Y-77657000D01*
X147570000Y-77657000D01*
X147502265Y-77643527D01*
X147444842Y-77605158D01*
X147406473Y-77547735D01*
X147393000Y-77480000D01*
X147393000Y-77030000D01*
X147406473Y-76962265D01*
X147444842Y-76904842D01*
X147502265Y-76866473D01*
X147570000Y-76853000D01*
X149390000Y-76853000D01*
X149457735Y-76866473D01*
G37*
G36*
X154397735Y-76866473D02*
G01*
X154455158Y-76904842D01*
X154493527Y-76962265D01*
X154507000Y-77030000D01*
X154507000Y-77480000D01*
X154493527Y-77547735D01*
X154455158Y-77605158D01*
X154397735Y-77643527D01*
X154330000Y-77657000D01*
X152510000Y-77657000D01*
X152442265Y-77643527D01*
X152384842Y-77605158D01*
X152346473Y-77547735D01*
X152333000Y-77480000D01*
X152333000Y-77030000D01*
X152346473Y-76962265D01*
X152384842Y-76904842D01*
X152442265Y-76866473D01*
X152510000Y-76853000D01*
X154330000Y-76853000D01*
X154397735Y-76866473D01*
G37*
G36*
X134428803Y-75508984D02*
G01*
X134459249Y-75508984D01*
X134482706Y-75517521D01*
X134505241Y-75521091D01*
X134537067Y-75537307D01*
X134570600Y-75549512D01*
X134585408Y-75561938D01*
X134600185Y-75569467D01*
X134630453Y-75599735D01*
X134661374Y-75625681D01*
X134668170Y-75637452D01*
X134675532Y-75644814D01*
X134698904Y-75690686D01*
X134720623Y-75728303D01*
X134721973Y-75735960D01*
X134723908Y-75739758D01*
X134735078Y-75810283D01*
X134741200Y-75845000D01*
X134741200Y-77265000D01*
X134735076Y-77299725D01*
X134723908Y-77370241D01*
X134721973Y-77374037D01*
X134720623Y-77381697D01*
X134698900Y-77419321D01*
X134675532Y-77465185D01*
X134668171Y-77472545D01*
X134661374Y-77484319D01*
X134630446Y-77510270D01*
X134600185Y-77540532D01*
X134585412Y-77548059D01*
X134570600Y-77560488D01*
X134537060Y-77572695D01*
X134505241Y-77588908D01*
X134482711Y-77592476D01*
X134459249Y-77601016D01*
X134428796Y-77601016D01*
X134400000Y-77605577D01*
X134371204Y-77601016D01*
X134340751Y-77601016D01*
X134317288Y-77592476D01*
X134294758Y-77588908D01*
X134262935Y-77572693D01*
X134229400Y-77560488D01*
X134214589Y-77548060D01*
X134199814Y-77540532D01*
X134169546Y-77510264D01*
X134138626Y-77484319D01*
X134131829Y-77472547D01*
X134124467Y-77465185D01*
X134101090Y-77419306D01*
X134079377Y-77381697D01*
X134078026Y-77374040D01*
X134076091Y-77370241D01*
X134064919Y-77299705D01*
X134058800Y-77265000D01*
X134058800Y-75845000D01*
X134064918Y-75810302D01*
X134076091Y-75739758D01*
X134078027Y-75735957D01*
X134079377Y-75728303D01*
X134101086Y-75690700D01*
X134124467Y-75644814D01*
X134131831Y-75637449D01*
X134138626Y-75625681D01*
X134169540Y-75599740D01*
X134199814Y-75569467D01*
X134214592Y-75561937D01*
X134229400Y-75549512D01*
X134262928Y-75537308D01*
X134294758Y-75521091D01*
X134317293Y-75517521D01*
X134340751Y-75508984D01*
X134371197Y-75508984D01*
X134400000Y-75504422D01*
X134428803Y-75508984D01*
G37*
G36*
X135228803Y-75508984D02*
G01*
X135259249Y-75508984D01*
X135282706Y-75517521D01*
X135305241Y-75521091D01*
X135337067Y-75537307D01*
X135370600Y-75549512D01*
X135385408Y-75561938D01*
X135400185Y-75569467D01*
X135430453Y-75599735D01*
X135461374Y-75625681D01*
X135468170Y-75637452D01*
X135475532Y-75644814D01*
X135498904Y-75690686D01*
X135520623Y-75728303D01*
X135521973Y-75735960D01*
X135523908Y-75739758D01*
X135535078Y-75810283D01*
X135541200Y-75845000D01*
X135541200Y-77265000D01*
X135535076Y-77299725D01*
X135523908Y-77370241D01*
X135521973Y-77374037D01*
X135520623Y-77381697D01*
X135498900Y-77419321D01*
X135475532Y-77465185D01*
X135468171Y-77472545D01*
X135461374Y-77484319D01*
X135430446Y-77510270D01*
X135400185Y-77540532D01*
X135385412Y-77548059D01*
X135370600Y-77560488D01*
X135337060Y-77572695D01*
X135305241Y-77588908D01*
X135282711Y-77592476D01*
X135259249Y-77601016D01*
X135228796Y-77601016D01*
X135200000Y-77605577D01*
X135171204Y-77601016D01*
X135140751Y-77601016D01*
X135117288Y-77592476D01*
X135094758Y-77588908D01*
X135062935Y-77572693D01*
X135029400Y-77560488D01*
X135014589Y-77548060D01*
X134999814Y-77540532D01*
X134969546Y-77510264D01*
X134938626Y-77484319D01*
X134931829Y-77472547D01*
X134924467Y-77465185D01*
X134901090Y-77419306D01*
X134879377Y-77381697D01*
X134878026Y-77374040D01*
X134876091Y-77370241D01*
X134864919Y-77299705D01*
X134858800Y-77265000D01*
X134858800Y-75845000D01*
X134864918Y-75810302D01*
X134876091Y-75739758D01*
X134878027Y-75735957D01*
X134879377Y-75728303D01*
X134901086Y-75690700D01*
X134924467Y-75644814D01*
X134931831Y-75637449D01*
X134938626Y-75625681D01*
X134969540Y-75599740D01*
X134999814Y-75569467D01*
X135014592Y-75561937D01*
X135029400Y-75549512D01*
X135062928Y-75537308D01*
X135094758Y-75521091D01*
X135117293Y-75517521D01*
X135140751Y-75508984D01*
X135171197Y-75508984D01*
X135200000Y-75504422D01*
X135228803Y-75508984D01*
G37*
G36*
X136028803Y-75508984D02*
G01*
X136059249Y-75508984D01*
X136082706Y-75517521D01*
X136105241Y-75521091D01*
X136137067Y-75537307D01*
X136170600Y-75549512D01*
X136185408Y-75561938D01*
X136200185Y-75569467D01*
X136230453Y-75599735D01*
X136261374Y-75625681D01*
X136268170Y-75637452D01*
X136275532Y-75644814D01*
X136298904Y-75690686D01*
X136320623Y-75728303D01*
X136321973Y-75735960D01*
X136323908Y-75739758D01*
X136335078Y-75810283D01*
X136341200Y-75845000D01*
X136341200Y-77265000D01*
X136335076Y-77299725D01*
X136323908Y-77370241D01*
X136321973Y-77374037D01*
X136320623Y-77381697D01*
X136298900Y-77419321D01*
X136275532Y-77465185D01*
X136268171Y-77472545D01*
X136261374Y-77484319D01*
X136230446Y-77510270D01*
X136200185Y-77540532D01*
X136185412Y-77548059D01*
X136170600Y-77560488D01*
X136137060Y-77572695D01*
X136105241Y-77588908D01*
X136082711Y-77592476D01*
X136059249Y-77601016D01*
X136028796Y-77601016D01*
X136000000Y-77605577D01*
X135971204Y-77601016D01*
X135940751Y-77601016D01*
X135917288Y-77592476D01*
X135894758Y-77588908D01*
X135862935Y-77572693D01*
X135829400Y-77560488D01*
X135814589Y-77548060D01*
X135799814Y-77540532D01*
X135769546Y-77510264D01*
X135738626Y-77484319D01*
X135731829Y-77472547D01*
X135724467Y-77465185D01*
X135701090Y-77419306D01*
X135679377Y-77381697D01*
X135678026Y-77374040D01*
X135676091Y-77370241D01*
X135664919Y-77299705D01*
X135658800Y-77265000D01*
X135658800Y-75845000D01*
X135664918Y-75810302D01*
X135676091Y-75739758D01*
X135678027Y-75735957D01*
X135679377Y-75728303D01*
X135701086Y-75690700D01*
X135724467Y-75644814D01*
X135731831Y-75637449D01*
X135738626Y-75625681D01*
X135769540Y-75599740D01*
X135799814Y-75569467D01*
X135814592Y-75561937D01*
X135829400Y-75549512D01*
X135862928Y-75537308D01*
X135894758Y-75521091D01*
X135917293Y-75517521D01*
X135940751Y-75508984D01*
X135971197Y-75508984D01*
X136000000Y-75504422D01*
X136028803Y-75508984D01*
G37*
G36*
X136828803Y-75508984D02*
G01*
X136859249Y-75508984D01*
X136882706Y-75517521D01*
X136905241Y-75521091D01*
X136937067Y-75537307D01*
X136970600Y-75549512D01*
X136985408Y-75561938D01*
X137000185Y-75569467D01*
X137030453Y-75599735D01*
X137061374Y-75625681D01*
X137068170Y-75637452D01*
X137075532Y-75644814D01*
X137098904Y-75690686D01*
X137120623Y-75728303D01*
X137121973Y-75735960D01*
X137123908Y-75739758D01*
X137135078Y-75810283D01*
X137141200Y-75845000D01*
X137141200Y-77265000D01*
X137135076Y-77299725D01*
X137123908Y-77370241D01*
X137121973Y-77374037D01*
X137120623Y-77381697D01*
X137098900Y-77419321D01*
X137075532Y-77465185D01*
X137068171Y-77472545D01*
X137061374Y-77484319D01*
X137030446Y-77510270D01*
X137000185Y-77540532D01*
X136985412Y-77548059D01*
X136970600Y-77560488D01*
X136937060Y-77572695D01*
X136905241Y-77588908D01*
X136882711Y-77592476D01*
X136859249Y-77601016D01*
X136828796Y-77601016D01*
X136800000Y-77605577D01*
X136771204Y-77601016D01*
X136740751Y-77601016D01*
X136717288Y-77592476D01*
X136694758Y-77588908D01*
X136662935Y-77572693D01*
X136629400Y-77560488D01*
X136614589Y-77548060D01*
X136599814Y-77540532D01*
X136569546Y-77510264D01*
X136538626Y-77484319D01*
X136531829Y-77472547D01*
X136524467Y-77465185D01*
X136501090Y-77419306D01*
X136479377Y-77381697D01*
X136478026Y-77374040D01*
X136476091Y-77370241D01*
X136464919Y-77299705D01*
X136458800Y-77265000D01*
X136458800Y-75845000D01*
X136464918Y-75810302D01*
X136476091Y-75739758D01*
X136478027Y-75735957D01*
X136479377Y-75728303D01*
X136501086Y-75690700D01*
X136524467Y-75644814D01*
X136531831Y-75637449D01*
X136538626Y-75625681D01*
X136569540Y-75599740D01*
X136599814Y-75569467D01*
X136614592Y-75561937D01*
X136629400Y-75549512D01*
X136662928Y-75537308D01*
X136694758Y-75521091D01*
X136717293Y-75517521D01*
X136740751Y-75508984D01*
X136771197Y-75508984D01*
X136800000Y-75504422D01*
X136828803Y-75508984D01*
G37*
G36*
X137628803Y-75508984D02*
G01*
X137659249Y-75508984D01*
X137682706Y-75517521D01*
X137705241Y-75521091D01*
X137737067Y-75537307D01*
X137770600Y-75549512D01*
X137785408Y-75561938D01*
X137800185Y-75569467D01*
X137830453Y-75599735D01*
X137861374Y-75625681D01*
X137868170Y-75637452D01*
X137875532Y-75644814D01*
X137898904Y-75690686D01*
X137920623Y-75728303D01*
X137921973Y-75735960D01*
X137923908Y-75739758D01*
X137935078Y-75810283D01*
X137941200Y-75845000D01*
X137941200Y-77265000D01*
X137935076Y-77299725D01*
X137923908Y-77370241D01*
X137921973Y-77374037D01*
X137920623Y-77381697D01*
X137898900Y-77419321D01*
X137875532Y-77465185D01*
X137868171Y-77472545D01*
X137861374Y-77484319D01*
X137830446Y-77510270D01*
X137800185Y-77540532D01*
X137785412Y-77548059D01*
X137770600Y-77560488D01*
X137737060Y-77572695D01*
X137705241Y-77588908D01*
X137682711Y-77592476D01*
X137659249Y-77601016D01*
X137628796Y-77601016D01*
X137600000Y-77605577D01*
X137571204Y-77601016D01*
X137540751Y-77601016D01*
X137517288Y-77592476D01*
X137494758Y-77588908D01*
X137462935Y-77572693D01*
X137429400Y-77560488D01*
X137414589Y-77548060D01*
X137399814Y-77540532D01*
X137369546Y-77510264D01*
X137338626Y-77484319D01*
X137331829Y-77472547D01*
X137324467Y-77465185D01*
X137301090Y-77419306D01*
X137279377Y-77381697D01*
X137278026Y-77374040D01*
X137276091Y-77370241D01*
X137264919Y-77299705D01*
X137258800Y-77265000D01*
X137258800Y-75845000D01*
X137264918Y-75810302D01*
X137276091Y-75739758D01*
X137278027Y-75735957D01*
X137279377Y-75728303D01*
X137301086Y-75690700D01*
X137324467Y-75644814D01*
X137331831Y-75637449D01*
X137338626Y-75625681D01*
X137369540Y-75599740D01*
X137399814Y-75569467D01*
X137414592Y-75561937D01*
X137429400Y-75549512D01*
X137462928Y-75537308D01*
X137494758Y-75521091D01*
X137517293Y-75517521D01*
X137540751Y-75508984D01*
X137571197Y-75508984D01*
X137600000Y-75504422D01*
X137628803Y-75508984D01*
G37*
G36*
X138428803Y-75508984D02*
G01*
X138459249Y-75508984D01*
X138482706Y-75517521D01*
X138505241Y-75521091D01*
X138537067Y-75537307D01*
X138570600Y-75549512D01*
X138585408Y-75561938D01*
X138600185Y-75569467D01*
X138630453Y-75599735D01*
X138661374Y-75625681D01*
X138668170Y-75637452D01*
X138675532Y-75644814D01*
X138698904Y-75690686D01*
X138720623Y-75728303D01*
X138721973Y-75735960D01*
X138723908Y-75739758D01*
X138735078Y-75810283D01*
X138741200Y-75845000D01*
X138741200Y-77265000D01*
X138735076Y-77299725D01*
X138723908Y-77370241D01*
X138721973Y-77374037D01*
X138720623Y-77381697D01*
X138698900Y-77419321D01*
X138675532Y-77465185D01*
X138668171Y-77472545D01*
X138661374Y-77484319D01*
X138630446Y-77510270D01*
X138600185Y-77540532D01*
X138585412Y-77548059D01*
X138570600Y-77560488D01*
X138537060Y-77572695D01*
X138505241Y-77588908D01*
X138482711Y-77592476D01*
X138459249Y-77601016D01*
X138428796Y-77601016D01*
X138400000Y-77605577D01*
X138371204Y-77601016D01*
X138340751Y-77601016D01*
X138317288Y-77592476D01*
X138294758Y-77588908D01*
X138262935Y-77572693D01*
X138229400Y-77560488D01*
X138214589Y-77548060D01*
X138199814Y-77540532D01*
X138169546Y-77510264D01*
X138138626Y-77484319D01*
X138131829Y-77472547D01*
X138124467Y-77465185D01*
X138101090Y-77419306D01*
X138079377Y-77381697D01*
X138078026Y-77374040D01*
X138076091Y-77370241D01*
X138064919Y-77299705D01*
X138058800Y-77265000D01*
X138058800Y-75845000D01*
X138064918Y-75810302D01*
X138076091Y-75739758D01*
X138078027Y-75735957D01*
X138079377Y-75728303D01*
X138101086Y-75690700D01*
X138124467Y-75644814D01*
X138131831Y-75637449D01*
X138138626Y-75625681D01*
X138169540Y-75599740D01*
X138199814Y-75569467D01*
X138214592Y-75561937D01*
X138229400Y-75549512D01*
X138262928Y-75537308D01*
X138294758Y-75521091D01*
X138317293Y-75517521D01*
X138340751Y-75508984D01*
X138371197Y-75508984D01*
X138400000Y-75504422D01*
X138428803Y-75508984D01*
G37*
G36*
X139228803Y-75508984D02*
G01*
X139259249Y-75508984D01*
X139282706Y-75517521D01*
X139305241Y-75521091D01*
X139337067Y-75537307D01*
X139370600Y-75549512D01*
X139385408Y-75561938D01*
X139400185Y-75569467D01*
X139430453Y-75599735D01*
X139461374Y-75625681D01*
X139468170Y-75637452D01*
X139475532Y-75644814D01*
X139498904Y-75690686D01*
X139520623Y-75728303D01*
X139521973Y-75735960D01*
X139523908Y-75739758D01*
X139535078Y-75810283D01*
X139541200Y-75845000D01*
X139541200Y-77265000D01*
X139535076Y-77299725D01*
X139523908Y-77370241D01*
X139521973Y-77374037D01*
X139520623Y-77381697D01*
X139498900Y-77419321D01*
X139475532Y-77465185D01*
X139468171Y-77472545D01*
X139461374Y-77484319D01*
X139430446Y-77510270D01*
X139400185Y-77540532D01*
X139385412Y-77548059D01*
X139370600Y-77560488D01*
X139337060Y-77572695D01*
X139305241Y-77588908D01*
X139282711Y-77592476D01*
X139259249Y-77601016D01*
X139228796Y-77601016D01*
X139200000Y-77605577D01*
X139171204Y-77601016D01*
X139140751Y-77601016D01*
X139117288Y-77592476D01*
X139094758Y-77588908D01*
X139062935Y-77572693D01*
X139029400Y-77560488D01*
X139014589Y-77548060D01*
X138999814Y-77540532D01*
X138969546Y-77510264D01*
X138938626Y-77484319D01*
X138931829Y-77472547D01*
X138924467Y-77465185D01*
X138901090Y-77419306D01*
X138879377Y-77381697D01*
X138878026Y-77374040D01*
X138876091Y-77370241D01*
X138864919Y-77299705D01*
X138858800Y-77265000D01*
X138858800Y-75845000D01*
X138864918Y-75810302D01*
X138876091Y-75739758D01*
X138878027Y-75735957D01*
X138879377Y-75728303D01*
X138901086Y-75690700D01*
X138924467Y-75644814D01*
X138931831Y-75637449D01*
X138938626Y-75625681D01*
X138969540Y-75599740D01*
X138999814Y-75569467D01*
X139014592Y-75561937D01*
X139029400Y-75549512D01*
X139062928Y-75537308D01*
X139094758Y-75521091D01*
X139117293Y-75517521D01*
X139140751Y-75508984D01*
X139171197Y-75508984D01*
X139200000Y-75504422D01*
X139228803Y-75508984D01*
G37*
G36*
X140028803Y-75508984D02*
G01*
X140059249Y-75508984D01*
X140082706Y-75517521D01*
X140105241Y-75521091D01*
X140137067Y-75537307D01*
X140170600Y-75549512D01*
X140185408Y-75561938D01*
X140200185Y-75569467D01*
X140230453Y-75599735D01*
X140261374Y-75625681D01*
X140268170Y-75637452D01*
X140275532Y-75644814D01*
X140298904Y-75690686D01*
X140320623Y-75728303D01*
X140321973Y-75735960D01*
X140323908Y-75739758D01*
X140335078Y-75810283D01*
X140341200Y-75845000D01*
X140341200Y-77265000D01*
X140335076Y-77299725D01*
X140323908Y-77370241D01*
X140321973Y-77374037D01*
X140320623Y-77381697D01*
X140298900Y-77419321D01*
X140275532Y-77465185D01*
X140268171Y-77472545D01*
X140261374Y-77484319D01*
X140230446Y-77510270D01*
X140200185Y-77540532D01*
X140185412Y-77548059D01*
X140170600Y-77560488D01*
X140137060Y-77572695D01*
X140105241Y-77588908D01*
X140082711Y-77592476D01*
X140059249Y-77601016D01*
X140028796Y-77601016D01*
X140000000Y-77605577D01*
X139971204Y-77601016D01*
X139940751Y-77601016D01*
X139917288Y-77592476D01*
X139894758Y-77588908D01*
X139862935Y-77572693D01*
X139829400Y-77560488D01*
X139814589Y-77548060D01*
X139799814Y-77540532D01*
X139769546Y-77510264D01*
X139738626Y-77484319D01*
X139731829Y-77472547D01*
X139724467Y-77465185D01*
X139701090Y-77419306D01*
X139679377Y-77381697D01*
X139678026Y-77374040D01*
X139676091Y-77370241D01*
X139664919Y-77299705D01*
X139658800Y-77265000D01*
X139658800Y-75845000D01*
X139664918Y-75810302D01*
X139676091Y-75739758D01*
X139678027Y-75735957D01*
X139679377Y-75728303D01*
X139701086Y-75690700D01*
X139724467Y-75644814D01*
X139731831Y-75637449D01*
X139738626Y-75625681D01*
X139769540Y-75599740D01*
X139799814Y-75569467D01*
X139814592Y-75561937D01*
X139829400Y-75549512D01*
X139862928Y-75537308D01*
X139894758Y-75521091D01*
X139917293Y-75517521D01*
X139940751Y-75508984D01*
X139971197Y-75508984D01*
X140000000Y-75504422D01*
X140028803Y-75508984D01*
G37*
G36*
X144954034Y-75518764D02*
G01*
X144987125Y-75540875D01*
X145009236Y-75573966D01*
X145017000Y-75613000D01*
X145017000Y-76623000D01*
X145009236Y-76662034D01*
X144987125Y-76695125D01*
X144954034Y-76717236D01*
X144915000Y-76725000D01*
X143985000Y-76725000D01*
X143945966Y-76717236D01*
X143912875Y-76695125D01*
X143890764Y-76662034D01*
X143883000Y-76623000D01*
X143883000Y-75613000D01*
X143890764Y-75573966D01*
X143912875Y-75540875D01*
X143945966Y-75518764D01*
X143985000Y-75511000D01*
X144915000Y-75511000D01*
X144954034Y-75518764D01*
G37*
G36*
X149457735Y-75596473D02*
G01*
X149515158Y-75634842D01*
X149553527Y-75692265D01*
X149567000Y-75760000D01*
X149567000Y-76210000D01*
X149553527Y-76277735D01*
X149515158Y-76335158D01*
X149457735Y-76373527D01*
X149390000Y-76387000D01*
X147570000Y-76387000D01*
X147502265Y-76373527D01*
X147444842Y-76335158D01*
X147406473Y-76277735D01*
X147393000Y-76210000D01*
X147393000Y-75760000D01*
X147406473Y-75692265D01*
X147444842Y-75634842D01*
X147502265Y-75596473D01*
X147570000Y-75583000D01*
X149390000Y-75583000D01*
X149457735Y-75596473D01*
G37*
G36*
X154397735Y-75596473D02*
G01*
X154455158Y-75634842D01*
X154493527Y-75692265D01*
X154507000Y-75760000D01*
X154507000Y-76210000D01*
X154493527Y-76277735D01*
X154455158Y-76335158D01*
X154397735Y-76373527D01*
X154330000Y-76387000D01*
X152510000Y-76387000D01*
X152442265Y-76373527D01*
X152384842Y-76335158D01*
X152346473Y-76277735D01*
X152333000Y-76210000D01*
X152333000Y-75760000D01*
X152346473Y-75692265D01*
X152384842Y-75634842D01*
X152442265Y-75596473D01*
X152510000Y-75583000D01*
X154330000Y-75583000D01*
X154397735Y-75596473D01*
G37*
G36*
X131654034Y-74800764D02*
G01*
X131687125Y-74822875D01*
X131709236Y-74855966D01*
X131717000Y-74895000D01*
X131717000Y-75905000D01*
X131709236Y-75944034D01*
X131687125Y-75977125D01*
X131654034Y-75999236D01*
X131615000Y-76007000D01*
X130685000Y-76007000D01*
X130645966Y-75999236D01*
X130612875Y-75977125D01*
X130590764Y-75944034D01*
X130583000Y-75905000D01*
X130583000Y-74895000D01*
X130590764Y-74855966D01*
X130612875Y-74822875D01*
X130645966Y-74800764D01*
X130685000Y-74793000D01*
X131615000Y-74793000D01*
X131654034Y-74800764D01*
G37*
G36*
X144954034Y-74100764D02*
G01*
X144987125Y-74122875D01*
X145009236Y-74155966D01*
X145017000Y-74195000D01*
X145017000Y-75205000D01*
X145009236Y-75244034D01*
X144987125Y-75277125D01*
X144954034Y-75299236D01*
X144915000Y-75307000D01*
X143985000Y-75307000D01*
X143945966Y-75299236D01*
X143912875Y-75277125D01*
X143890764Y-75244034D01*
X143883000Y-75205000D01*
X143883000Y-74195000D01*
X143890764Y-74155966D01*
X143912875Y-74122875D01*
X143945966Y-74100764D01*
X143985000Y-74093000D01*
X144915000Y-74093000D01*
X144954034Y-74100764D01*
G37*
G36*
X149457735Y-74326473D02*
G01*
X149515158Y-74364842D01*
X149553527Y-74422265D01*
X149567000Y-74490000D01*
X149567000Y-74940000D01*
X149553527Y-75007735D01*
X149515158Y-75065158D01*
X149457735Y-75103527D01*
X149390000Y-75117000D01*
X147570000Y-75117000D01*
X147502265Y-75103527D01*
X147444842Y-75065158D01*
X147406473Y-75007735D01*
X147393000Y-74940000D01*
X147393000Y-74490000D01*
X147406473Y-74422265D01*
X147444842Y-74364842D01*
X147502265Y-74326473D01*
X147570000Y-74313000D01*
X149390000Y-74313000D01*
X149457735Y-74326473D01*
G37*
G36*
X154397735Y-74326473D02*
G01*
X154455158Y-74364842D01*
X154493527Y-74422265D01*
X154507000Y-74490000D01*
X154507000Y-74940000D01*
X154493527Y-75007735D01*
X154455158Y-75065158D01*
X154397735Y-75103527D01*
X154330000Y-75117000D01*
X152510000Y-75117000D01*
X152442265Y-75103527D01*
X152384842Y-75065158D01*
X152346473Y-75007735D01*
X152333000Y-74940000D01*
X152333000Y-74490000D01*
X152346473Y-74422265D01*
X152384842Y-74364842D01*
X152442265Y-74326473D01*
X152510000Y-74313000D01*
X154330000Y-74313000D01*
X154397735Y-74326473D01*
G37*
G36*
X131654034Y-73382764D02*
G01*
X131687125Y-73404875D01*
X131709236Y-73437966D01*
X131717000Y-73477000D01*
X131717000Y-74487000D01*
X131709236Y-74526034D01*
X131687125Y-74559125D01*
X131654034Y-74581236D01*
X131615000Y-74589000D01*
X130685000Y-74589000D01*
X130645966Y-74581236D01*
X130612875Y-74559125D01*
X130590764Y-74526034D01*
X130583000Y-74487000D01*
X130583000Y-73477000D01*
X130590764Y-73437966D01*
X130612875Y-73404875D01*
X130645966Y-73382764D01*
X130685000Y-73375000D01*
X131615000Y-73375000D01*
X131654034Y-73382764D01*
G37*
G36*
X149457735Y-73056473D02*
G01*
X149515158Y-73094842D01*
X149553527Y-73152265D01*
X149567000Y-73220000D01*
X149567000Y-73670000D01*
X149553527Y-73737735D01*
X149515158Y-73795158D01*
X149457735Y-73833527D01*
X149390000Y-73847000D01*
X147570000Y-73847000D01*
X147502265Y-73833527D01*
X147444842Y-73795158D01*
X147406473Y-73737735D01*
X147393000Y-73670000D01*
X147393000Y-73220000D01*
X147406473Y-73152265D01*
X147444842Y-73094842D01*
X147502265Y-73056473D01*
X147570000Y-73043000D01*
X149390000Y-73043000D01*
X149457735Y-73056473D01*
G37*
G36*
X154397735Y-73056473D02*
G01*
X154455158Y-73094842D01*
X154493527Y-73152265D01*
X154507000Y-73220000D01*
X154507000Y-73670000D01*
X154493527Y-73737735D01*
X154455158Y-73795158D01*
X154397735Y-73833527D01*
X154330000Y-73847000D01*
X152510000Y-73847000D01*
X152442265Y-73833527D01*
X152384842Y-73795158D01*
X152346473Y-73737735D01*
X152333000Y-73670000D01*
X152333000Y-73220000D01*
X152346473Y-73152265D01*
X152384842Y-73094842D01*
X152442265Y-73056473D01*
X152510000Y-73043000D01*
X154330000Y-73043000D01*
X154397735Y-73056473D01*
G37*
G36*
X141989034Y-66205764D02*
G01*
X142022125Y-66227875D01*
X142044236Y-66260966D01*
X142052000Y-66300000D01*
X142052000Y-73700000D01*
X142044236Y-73739034D01*
X142022125Y-73772125D01*
X141989034Y-73794236D01*
X141950000Y-73802000D01*
X132450000Y-73802000D01*
X132410966Y-73794236D01*
X132377875Y-73772125D01*
X132355764Y-73739034D01*
X132348000Y-73700000D01*
X132348000Y-66300000D01*
X132355764Y-66260966D01*
X132377875Y-66227875D01*
X132410966Y-66205764D01*
X132450000Y-66198000D01*
X141950000Y-66198000D01*
X141989034Y-66205764D01*
G37*
G36*
X149462760Y-67331977D02*
G01*
X149660991Y-67408772D01*
X149841735Y-67520684D01*
X149998838Y-67663903D01*
X150126950Y-67833550D01*
X150221708Y-68023850D01*
X150279885Y-68228321D01*
X150299500Y-68440000D01*
X150279885Y-68651679D01*
X150221708Y-68856150D01*
X150126950Y-69046450D01*
X149998838Y-69216097D01*
X149841735Y-69359316D01*
X149660991Y-69471228D01*
X149462760Y-69548023D01*
X149253793Y-69587086D01*
X149041207Y-69587086D01*
X148832240Y-69548023D01*
X148634009Y-69471228D01*
X148453265Y-69359316D01*
X148296162Y-69216097D01*
X148168050Y-69046450D01*
X148073292Y-68856150D01*
X148015115Y-68651679D01*
X147995500Y-68440000D01*
X148015115Y-68228321D01*
X148073292Y-68023850D01*
X148168050Y-67833550D01*
X148296162Y-67663903D01*
X148453265Y-67520684D01*
X148634009Y-67408772D01*
X148832240Y-67331977D01*
X149041207Y-67292914D01*
X149253793Y-67292914D01*
X149462760Y-67331977D01*
G37*
G36*
X144354034Y-65359764D02*
G01*
X144387125Y-65381875D01*
X144409236Y-65414966D01*
X144417000Y-65454000D01*
X144417000Y-66464000D01*
X144409236Y-66503034D01*
X144387125Y-66536125D01*
X144354034Y-66558236D01*
X144315000Y-66566000D01*
X143385000Y-66566000D01*
X143345966Y-66558236D01*
X143312875Y-66536125D01*
X143290764Y-66503034D01*
X143283000Y-66464000D01*
X143283000Y-65454000D01*
X143290764Y-65414966D01*
X143312875Y-65381875D01*
X143345966Y-65359764D01*
X143385000Y-65352000D01*
X144315000Y-65352000D01*
X144354034Y-65359764D01*
G37*
G36*
X144354034Y-63941764D02*
G01*
X144387125Y-63963875D01*
X144409236Y-63996966D01*
X144417000Y-64036000D01*
X144417000Y-65046000D01*
X144409236Y-65085034D01*
X144387125Y-65118125D01*
X144354034Y-65140236D01*
X144315000Y-65148000D01*
X143385000Y-65148000D01*
X143345966Y-65140236D01*
X143312875Y-65118125D01*
X143290764Y-65085034D01*
X143283000Y-65046000D01*
X143283000Y-64036000D01*
X143290764Y-63996966D01*
X143312875Y-63963875D01*
X143345966Y-63941764D01*
X143385000Y-63934000D01*
X144315000Y-63934000D01*
X144354034Y-63941764D01*
G37*
G36*
X150236534Y-62215764D02*
G01*
X150269625Y-62237875D01*
X150291736Y-62270966D01*
X150299500Y-62310000D01*
X150299500Y-64410000D01*
X150291736Y-64449034D01*
X150269625Y-64482125D01*
X150236534Y-64504236D01*
X150197500Y-64512000D01*
X148097500Y-64512000D01*
X148058466Y-64504236D01*
X148025375Y-64482125D01*
X148003264Y-64449034D01*
X147995500Y-64410000D01*
X147995500Y-62310000D01*
X148003264Y-62270966D01*
X148025375Y-62237875D01*
X148058466Y-62215764D01*
X148097500Y-62208000D01*
X150197500Y-62208000D01*
X150236534Y-62215764D01*
G37*
G36*
X134428803Y-62398984D02*
G01*
X134459249Y-62398984D01*
X134482706Y-62407521D01*
X134505241Y-62411091D01*
X134537067Y-62427307D01*
X134570600Y-62439512D01*
X134585408Y-62451938D01*
X134600185Y-62459467D01*
X134630453Y-62489735D01*
X134661374Y-62515681D01*
X134668170Y-62527452D01*
X134675532Y-62534814D01*
X134698904Y-62580686D01*
X134720623Y-62618303D01*
X134721973Y-62625960D01*
X134723908Y-62629758D01*
X134735078Y-62700283D01*
X134741200Y-62735000D01*
X134741200Y-64155000D01*
X134735076Y-64189725D01*
X134723908Y-64260241D01*
X134721973Y-64264037D01*
X134720623Y-64271697D01*
X134698900Y-64309321D01*
X134675532Y-64355185D01*
X134668171Y-64362545D01*
X134661374Y-64374319D01*
X134630446Y-64400270D01*
X134600185Y-64430532D01*
X134585412Y-64438059D01*
X134570600Y-64450488D01*
X134537060Y-64462695D01*
X134505241Y-64478908D01*
X134482711Y-64482476D01*
X134459249Y-64491016D01*
X134428796Y-64491016D01*
X134400000Y-64495577D01*
X134371204Y-64491016D01*
X134340751Y-64491016D01*
X134317288Y-64482476D01*
X134294758Y-64478908D01*
X134262935Y-64462693D01*
X134229400Y-64450488D01*
X134214589Y-64438060D01*
X134199814Y-64430532D01*
X134169546Y-64400264D01*
X134138626Y-64374319D01*
X134131829Y-64362547D01*
X134124467Y-64355185D01*
X134101090Y-64309306D01*
X134079377Y-64271697D01*
X134078026Y-64264040D01*
X134076091Y-64260241D01*
X134064919Y-64189705D01*
X134058800Y-64155000D01*
X134058800Y-62735000D01*
X134064918Y-62700302D01*
X134076091Y-62629758D01*
X134078027Y-62625957D01*
X134079377Y-62618303D01*
X134101086Y-62580700D01*
X134124467Y-62534814D01*
X134131831Y-62527449D01*
X134138626Y-62515681D01*
X134169540Y-62489740D01*
X134199814Y-62459467D01*
X134214592Y-62451937D01*
X134229400Y-62439512D01*
X134262928Y-62427308D01*
X134294758Y-62411091D01*
X134317293Y-62407521D01*
X134340751Y-62398984D01*
X134371197Y-62398984D01*
X134400000Y-62394422D01*
X134428803Y-62398984D01*
G37*
G36*
X135228803Y-62398984D02*
G01*
X135259249Y-62398984D01*
X135282706Y-62407521D01*
X135305241Y-62411091D01*
X135337067Y-62427307D01*
X135370600Y-62439512D01*
X135385408Y-62451938D01*
X135400185Y-62459467D01*
X135430453Y-62489735D01*
X135461374Y-62515681D01*
X135468170Y-62527452D01*
X135475532Y-62534814D01*
X135498904Y-62580686D01*
X135520623Y-62618303D01*
X135521973Y-62625960D01*
X135523908Y-62629758D01*
X135535078Y-62700283D01*
X135541200Y-62735000D01*
X135541200Y-64155000D01*
X135535076Y-64189725D01*
X135523908Y-64260241D01*
X135521973Y-64264037D01*
X135520623Y-64271697D01*
X135498900Y-64309321D01*
X135475532Y-64355185D01*
X135468171Y-64362545D01*
X135461374Y-64374319D01*
X135430446Y-64400270D01*
X135400185Y-64430532D01*
X135385412Y-64438059D01*
X135370600Y-64450488D01*
X135337060Y-64462695D01*
X135305241Y-64478908D01*
X135282711Y-64482476D01*
X135259249Y-64491016D01*
X135228796Y-64491016D01*
X135200000Y-64495577D01*
X135171204Y-64491016D01*
X135140751Y-64491016D01*
X135117288Y-64482476D01*
X135094758Y-64478908D01*
X135062935Y-64462693D01*
X135029400Y-64450488D01*
X135014589Y-64438060D01*
X134999814Y-64430532D01*
X134969546Y-64400264D01*
X134938626Y-64374319D01*
X134931829Y-64362547D01*
X134924467Y-64355185D01*
X134901090Y-64309306D01*
X134879377Y-64271697D01*
X134878026Y-64264040D01*
X134876091Y-64260241D01*
X134864919Y-64189705D01*
X134858800Y-64155000D01*
X134858800Y-62735000D01*
X134864918Y-62700302D01*
X134876091Y-62629758D01*
X134878027Y-62625957D01*
X134879377Y-62618303D01*
X134901086Y-62580700D01*
X134924467Y-62534814D01*
X134931831Y-62527449D01*
X134938626Y-62515681D01*
X134969540Y-62489740D01*
X134999814Y-62459467D01*
X135014592Y-62451937D01*
X135029400Y-62439512D01*
X135062928Y-62427308D01*
X135094758Y-62411091D01*
X135117293Y-62407521D01*
X135140751Y-62398984D01*
X135171197Y-62398984D01*
X135200000Y-62394422D01*
X135228803Y-62398984D01*
G37*
G36*
X136028803Y-62398984D02*
G01*
X136059249Y-62398984D01*
X136082706Y-62407521D01*
X136105241Y-62411091D01*
X136137067Y-62427307D01*
X136170600Y-62439512D01*
X136185408Y-62451938D01*
X136200185Y-62459467D01*
X136230453Y-62489735D01*
X136261374Y-62515681D01*
X136268170Y-62527452D01*
X136275532Y-62534814D01*
X136298904Y-62580686D01*
X136320623Y-62618303D01*
X136321973Y-62625960D01*
X136323908Y-62629758D01*
X136335078Y-62700283D01*
X136341200Y-62735000D01*
X136341200Y-64155000D01*
X136335076Y-64189725D01*
X136323908Y-64260241D01*
X136321973Y-64264037D01*
X136320623Y-64271697D01*
X136298900Y-64309321D01*
X136275532Y-64355185D01*
X136268171Y-64362545D01*
X136261374Y-64374319D01*
X136230446Y-64400270D01*
X136200185Y-64430532D01*
X136185412Y-64438059D01*
X136170600Y-64450488D01*
X136137060Y-64462695D01*
X136105241Y-64478908D01*
X136082711Y-64482476D01*
X136059249Y-64491016D01*
X136028796Y-64491016D01*
X136000000Y-64495577D01*
X135971204Y-64491016D01*
X135940751Y-64491016D01*
X135917288Y-64482476D01*
X135894758Y-64478908D01*
X135862935Y-64462693D01*
X135829400Y-64450488D01*
X135814589Y-64438060D01*
X135799814Y-64430532D01*
X135769546Y-64400264D01*
X135738626Y-64374319D01*
X135731829Y-64362547D01*
X135724467Y-64355185D01*
X135701090Y-64309306D01*
X135679377Y-64271697D01*
X135678026Y-64264040D01*
X135676091Y-64260241D01*
X135664919Y-64189705D01*
X135658800Y-64155000D01*
X135658800Y-62735000D01*
X135664918Y-62700302D01*
X135676091Y-62629758D01*
X135678027Y-62625957D01*
X135679377Y-62618303D01*
X135701086Y-62580700D01*
X135724467Y-62534814D01*
X135731831Y-62527449D01*
X135738626Y-62515681D01*
X135769540Y-62489740D01*
X135799814Y-62459467D01*
X135814592Y-62451937D01*
X135829400Y-62439512D01*
X135862928Y-62427308D01*
X135894758Y-62411091D01*
X135917293Y-62407521D01*
X135940751Y-62398984D01*
X135971197Y-62398984D01*
X136000000Y-62394422D01*
X136028803Y-62398984D01*
G37*
G36*
X136828803Y-62398984D02*
G01*
X136859249Y-62398984D01*
X136882706Y-62407521D01*
X136905241Y-62411091D01*
X136937067Y-62427307D01*
X136970600Y-62439512D01*
X136985408Y-62451938D01*
X137000185Y-62459467D01*
X137030453Y-62489735D01*
X137061374Y-62515681D01*
X137068170Y-62527452D01*
X137075532Y-62534814D01*
X137098904Y-62580686D01*
X137120623Y-62618303D01*
X137121973Y-62625960D01*
X137123908Y-62629758D01*
X137135078Y-62700283D01*
X137141200Y-62735000D01*
X137141200Y-64155000D01*
X137135076Y-64189725D01*
X137123908Y-64260241D01*
X137121973Y-64264037D01*
X137120623Y-64271697D01*
X137098900Y-64309321D01*
X137075532Y-64355185D01*
X137068171Y-64362545D01*
X137061374Y-64374319D01*
X137030446Y-64400270D01*
X137000185Y-64430532D01*
X136985412Y-64438059D01*
X136970600Y-64450488D01*
X136937060Y-64462695D01*
X136905241Y-64478908D01*
X136882711Y-64482476D01*
X136859249Y-64491016D01*
X136828796Y-64491016D01*
X136800000Y-64495577D01*
X136771204Y-64491016D01*
X136740751Y-64491016D01*
X136717288Y-64482476D01*
X136694758Y-64478908D01*
X136662935Y-64462693D01*
X136629400Y-64450488D01*
X136614589Y-64438060D01*
X136599814Y-64430532D01*
X136569546Y-64400264D01*
X136538626Y-64374319D01*
X136531829Y-64362547D01*
X136524467Y-64355185D01*
X136501090Y-64309306D01*
X136479377Y-64271697D01*
X136478026Y-64264040D01*
X136476091Y-64260241D01*
X136464919Y-64189705D01*
X136458800Y-64155000D01*
X136458800Y-62735000D01*
X136464918Y-62700302D01*
X136476091Y-62629758D01*
X136478027Y-62625957D01*
X136479377Y-62618303D01*
X136501086Y-62580700D01*
X136524467Y-62534814D01*
X136531831Y-62527449D01*
X136538626Y-62515681D01*
X136569540Y-62489740D01*
X136599814Y-62459467D01*
X136614592Y-62451937D01*
X136629400Y-62439512D01*
X136662928Y-62427308D01*
X136694758Y-62411091D01*
X136717293Y-62407521D01*
X136740751Y-62398984D01*
X136771197Y-62398984D01*
X136800000Y-62394422D01*
X136828803Y-62398984D01*
G37*
G36*
X137628803Y-62398984D02*
G01*
X137659249Y-62398984D01*
X137682706Y-62407521D01*
X137705241Y-62411091D01*
X137737067Y-62427307D01*
X137770600Y-62439512D01*
X137785408Y-62451938D01*
X137800185Y-62459467D01*
X137830453Y-62489735D01*
X137861374Y-62515681D01*
X137868170Y-62527452D01*
X137875532Y-62534814D01*
X137898904Y-62580686D01*
X137920623Y-62618303D01*
X137921973Y-62625960D01*
X137923908Y-62629758D01*
X137935078Y-62700283D01*
X137941200Y-62735000D01*
X137941200Y-64155000D01*
X137935076Y-64189725D01*
X137923908Y-64260241D01*
X137921973Y-64264037D01*
X137920623Y-64271697D01*
X137898900Y-64309321D01*
X137875532Y-64355185D01*
X137868171Y-64362545D01*
X137861374Y-64374319D01*
X137830446Y-64400270D01*
X137800185Y-64430532D01*
X137785412Y-64438059D01*
X137770600Y-64450488D01*
X137737060Y-64462695D01*
X137705241Y-64478908D01*
X137682711Y-64482476D01*
X137659249Y-64491016D01*
X137628796Y-64491016D01*
X137600000Y-64495577D01*
X137571204Y-64491016D01*
X137540751Y-64491016D01*
X137517288Y-64482476D01*
X137494758Y-64478908D01*
X137462935Y-64462693D01*
X137429400Y-64450488D01*
X137414589Y-64438060D01*
X137399814Y-64430532D01*
X137369546Y-64400264D01*
X137338626Y-64374319D01*
X137331829Y-64362547D01*
X137324467Y-64355185D01*
X137301090Y-64309306D01*
X137279377Y-64271697D01*
X137278026Y-64264040D01*
X137276091Y-64260241D01*
X137264919Y-64189705D01*
X137258800Y-64155000D01*
X137258800Y-62735000D01*
X137264918Y-62700302D01*
X137276091Y-62629758D01*
X137278027Y-62625957D01*
X137279377Y-62618303D01*
X137301086Y-62580700D01*
X137324467Y-62534814D01*
X137331831Y-62527449D01*
X137338626Y-62515681D01*
X137369540Y-62489740D01*
X137399814Y-62459467D01*
X137414592Y-62451937D01*
X137429400Y-62439512D01*
X137462928Y-62427308D01*
X137494758Y-62411091D01*
X137517293Y-62407521D01*
X137540751Y-62398984D01*
X137571197Y-62398984D01*
X137600000Y-62394422D01*
X137628803Y-62398984D01*
G37*
G36*
X138428803Y-62398984D02*
G01*
X138459249Y-62398984D01*
X138482706Y-62407521D01*
X138505241Y-62411091D01*
X138537067Y-62427307D01*
X138570600Y-62439512D01*
X138585408Y-62451938D01*
X138600185Y-62459467D01*
X138630453Y-62489735D01*
X138661374Y-62515681D01*
X138668170Y-62527452D01*
X138675532Y-62534814D01*
X138698904Y-62580686D01*
X138720623Y-62618303D01*
X138721973Y-62625960D01*
X138723908Y-62629758D01*
X138735078Y-62700283D01*
X138741200Y-62735000D01*
X138741200Y-64155000D01*
X138735076Y-64189725D01*
X138723908Y-64260241D01*
X138721973Y-64264037D01*
X138720623Y-64271697D01*
X138698900Y-64309321D01*
X138675532Y-64355185D01*
X138668171Y-64362545D01*
X138661374Y-64374319D01*
X138630446Y-64400270D01*
X138600185Y-64430532D01*
X138585412Y-64438059D01*
X138570600Y-64450488D01*
X138537060Y-64462695D01*
X138505241Y-64478908D01*
X138482711Y-64482476D01*
X138459249Y-64491016D01*
X138428796Y-64491016D01*
X138400000Y-64495577D01*
X138371204Y-64491016D01*
X138340751Y-64491016D01*
X138317288Y-64482476D01*
X138294758Y-64478908D01*
X138262935Y-64462693D01*
X138229400Y-64450488D01*
X138214589Y-64438060D01*
X138199814Y-64430532D01*
X138169546Y-64400264D01*
X138138626Y-64374319D01*
X138131829Y-64362547D01*
X138124467Y-64355185D01*
X138101090Y-64309306D01*
X138079377Y-64271697D01*
X138078026Y-64264040D01*
X138076091Y-64260241D01*
X138064919Y-64189705D01*
X138058800Y-64155000D01*
X138058800Y-62735000D01*
X138064918Y-62700302D01*
X138076091Y-62629758D01*
X138078027Y-62625957D01*
X138079377Y-62618303D01*
X138101086Y-62580700D01*
X138124467Y-62534814D01*
X138131831Y-62527449D01*
X138138626Y-62515681D01*
X138169540Y-62489740D01*
X138199814Y-62459467D01*
X138214592Y-62451937D01*
X138229400Y-62439512D01*
X138262928Y-62427308D01*
X138294758Y-62411091D01*
X138317293Y-62407521D01*
X138340751Y-62398984D01*
X138371197Y-62398984D01*
X138400000Y-62394422D01*
X138428803Y-62398984D01*
G37*
G36*
X139228803Y-62398984D02*
G01*
X139259249Y-62398984D01*
X139282706Y-62407521D01*
X139305241Y-62411091D01*
X139337067Y-62427307D01*
X139370600Y-62439512D01*
X139385408Y-62451938D01*
X139400185Y-62459467D01*
X139430453Y-62489735D01*
X139461374Y-62515681D01*
X139468170Y-62527452D01*
X139475532Y-62534814D01*
X139498904Y-62580686D01*
X139520623Y-62618303D01*
X139521973Y-62625960D01*
X139523908Y-62629758D01*
X139535078Y-62700283D01*
X139541200Y-62735000D01*
X139541200Y-64155000D01*
X139535076Y-64189725D01*
X139523908Y-64260241D01*
X139521973Y-64264037D01*
X139520623Y-64271697D01*
X139498900Y-64309321D01*
X139475532Y-64355185D01*
X139468171Y-64362545D01*
X139461374Y-64374319D01*
X139430446Y-64400270D01*
X139400185Y-64430532D01*
X139385412Y-64438059D01*
X139370600Y-64450488D01*
X139337060Y-64462695D01*
X139305241Y-64478908D01*
X139282711Y-64482476D01*
X139259249Y-64491016D01*
X139228796Y-64491016D01*
X139200000Y-64495577D01*
X139171204Y-64491016D01*
X139140751Y-64491016D01*
X139117288Y-64482476D01*
X139094758Y-64478908D01*
X139062935Y-64462693D01*
X139029400Y-64450488D01*
X139014589Y-64438060D01*
X138999814Y-64430532D01*
X138969546Y-64400264D01*
X138938626Y-64374319D01*
X138931829Y-64362547D01*
X138924467Y-64355185D01*
X138901090Y-64309306D01*
X138879377Y-64271697D01*
X138878026Y-64264040D01*
X138876091Y-64260241D01*
X138864919Y-64189705D01*
X138858800Y-64155000D01*
X138858800Y-62735000D01*
X138864918Y-62700302D01*
X138876091Y-62629758D01*
X138878027Y-62625957D01*
X138879377Y-62618303D01*
X138901086Y-62580700D01*
X138924467Y-62534814D01*
X138931831Y-62527449D01*
X138938626Y-62515681D01*
X138969540Y-62489740D01*
X138999814Y-62459467D01*
X139014592Y-62451937D01*
X139029400Y-62439512D01*
X139062928Y-62427308D01*
X139094758Y-62411091D01*
X139117293Y-62407521D01*
X139140751Y-62398984D01*
X139171197Y-62398984D01*
X139200000Y-62394422D01*
X139228803Y-62398984D01*
G37*
G36*
X140028803Y-62398984D02*
G01*
X140059249Y-62398984D01*
X140082706Y-62407521D01*
X140105241Y-62411091D01*
X140137067Y-62427307D01*
X140170600Y-62439512D01*
X140185408Y-62451938D01*
X140200185Y-62459467D01*
X140230453Y-62489735D01*
X140261374Y-62515681D01*
X140268170Y-62527452D01*
X140275532Y-62534814D01*
X140298904Y-62580686D01*
X140320623Y-62618303D01*
X140321973Y-62625960D01*
X140323908Y-62629758D01*
X140335078Y-62700283D01*
X140341200Y-62735000D01*
X140341200Y-64155000D01*
X140335076Y-64189725D01*
X140323908Y-64260241D01*
X140321973Y-64264037D01*
X140320623Y-64271697D01*
X140298900Y-64309321D01*
X140275532Y-64355185D01*
X140268171Y-64362545D01*
X140261374Y-64374319D01*
X140230446Y-64400270D01*
X140200185Y-64430532D01*
X140185412Y-64438059D01*
X140170600Y-64450488D01*
X140137060Y-64462695D01*
X140105241Y-64478908D01*
X140082711Y-64482476D01*
X140059249Y-64491016D01*
X140028796Y-64491016D01*
X140000000Y-64495577D01*
X139971204Y-64491016D01*
X139940751Y-64491016D01*
X139917288Y-64482476D01*
X139894758Y-64478908D01*
X139862935Y-64462693D01*
X139829400Y-64450488D01*
X139814589Y-64438060D01*
X139799814Y-64430532D01*
X139769546Y-64400264D01*
X139738626Y-64374319D01*
X139731829Y-64362547D01*
X139724467Y-64355185D01*
X139701090Y-64309306D01*
X139679377Y-64271697D01*
X139678026Y-64264040D01*
X139676091Y-64260241D01*
X139664919Y-64189705D01*
X139658800Y-64155000D01*
X139658800Y-62735000D01*
X139664918Y-62700302D01*
X139676091Y-62629758D01*
X139678027Y-62625957D01*
X139679377Y-62618303D01*
X139701086Y-62580700D01*
X139724467Y-62534814D01*
X139731831Y-62527449D01*
X139738626Y-62515681D01*
X139769540Y-62489740D01*
X139799814Y-62459467D01*
X139814592Y-62451937D01*
X139829400Y-62439512D01*
X139862928Y-62427308D01*
X139894758Y-62411091D01*
X139917293Y-62407521D01*
X139940751Y-62398984D01*
X139971197Y-62398984D01*
X140000000Y-62394422D01*
X140028803Y-62398984D01*
G37*
G36*
X131704034Y-63109764D02*
G01*
X131737125Y-63131875D01*
X131759236Y-63164966D01*
X131767000Y-63204000D01*
X131767000Y-64214000D01*
X131759236Y-64253034D01*
X131737125Y-64286125D01*
X131704034Y-64308236D01*
X131665000Y-64316000D01*
X130735000Y-64316000D01*
X130695966Y-64308236D01*
X130662875Y-64286125D01*
X130640764Y-64253034D01*
X130633000Y-64214000D01*
X130633000Y-63204000D01*
X130640764Y-63164966D01*
X130662875Y-63131875D01*
X130695966Y-63109764D01*
X130735000Y-63102000D01*
X131665000Y-63102000D01*
X131704034Y-63109764D01*
G37*
G36*
X128589034Y-63205764D02*
G01*
X128622125Y-63227875D01*
X128644236Y-63260966D01*
X128652000Y-63300000D01*
X128652000Y-63950000D01*
X128644236Y-63989034D01*
X128622125Y-64022125D01*
X128589034Y-64044236D01*
X128550000Y-64052000D01*
X127650000Y-64052000D01*
X127610966Y-64044236D01*
X127577875Y-64022125D01*
X127555764Y-63989034D01*
X127548000Y-63950000D01*
X127548000Y-63300000D01*
X127555764Y-63260966D01*
X127577875Y-63227875D01*
X127610966Y-63205764D01*
X127650000Y-63198000D01*
X128550000Y-63198000D01*
X128589034Y-63205764D01*
G37*
G36*
X130104034Y-61709764D02*
G01*
X130137125Y-61731875D01*
X130159236Y-61764966D01*
X130167000Y-61804000D01*
X130167000Y-62814000D01*
X130159236Y-62853034D01*
X130137125Y-62886125D01*
X130104034Y-62908236D01*
X130065000Y-62916000D01*
X129135000Y-62916000D01*
X129095966Y-62908236D01*
X129062875Y-62886125D01*
X129040764Y-62853034D01*
X129033000Y-62814000D01*
X129033000Y-61804000D01*
X129040764Y-61764966D01*
X129062875Y-61731875D01*
X129095966Y-61709764D01*
X129135000Y-61702000D01*
X130065000Y-61702000D01*
X130104034Y-61709764D01*
G37*
G36*
X131704034Y-61691764D02*
G01*
X131737125Y-61713875D01*
X131759236Y-61746966D01*
X131767000Y-61786000D01*
X131767000Y-62796000D01*
X131759236Y-62835034D01*
X131737125Y-62868125D01*
X131704034Y-62890236D01*
X131665000Y-62898000D01*
X130735000Y-62898000D01*
X130695966Y-62890236D01*
X130662875Y-62868125D01*
X130640764Y-62835034D01*
X130633000Y-62796000D01*
X130633000Y-61786000D01*
X130640764Y-61746966D01*
X130662875Y-61713875D01*
X130695966Y-61691764D01*
X130735000Y-61684000D01*
X131665000Y-61684000D01*
X131704034Y-61691764D01*
G37*
G36*
X128589034Y-61755764D02*
G01*
X128622125Y-61777875D01*
X128644236Y-61810966D01*
X128652000Y-61850000D01*
X128652000Y-62500000D01*
X128644236Y-62539034D01*
X128622125Y-62572125D01*
X128589034Y-62594236D01*
X128550000Y-62602000D01*
X127650000Y-62602000D01*
X127610966Y-62594236D01*
X127577875Y-62572125D01*
X127555764Y-62539034D01*
X127548000Y-62500000D01*
X127548000Y-61850000D01*
X127555764Y-61810966D01*
X127577875Y-61777875D01*
X127610966Y-61755764D01*
X127650000Y-61748000D01*
X128550000Y-61748000D01*
X128589034Y-61755764D01*
G37*
G36*
X125328700Y-61710850D02*
G01*
X123271300Y-61710850D01*
X123271300Y-59653450D01*
X125328700Y-59653450D01*
X125328700Y-61710850D01*
G37*
G36*
X130104034Y-60291764D02*
G01*
X130137125Y-60313875D01*
X130159236Y-60346966D01*
X130167000Y-60386000D01*
X130167000Y-61396000D01*
X130159236Y-61435034D01*
X130137125Y-61468125D01*
X130104034Y-61490236D01*
X130065000Y-61498000D01*
X129135000Y-61498000D01*
X129095966Y-61490236D01*
X129062875Y-61468125D01*
X129040764Y-61435034D01*
X129033000Y-61396000D01*
X129033000Y-60386000D01*
X129040764Y-60346966D01*
X129062875Y-60313875D01*
X129095966Y-60291764D01*
X129135000Y-60284000D01*
X130065000Y-60284000D01*
X130104034Y-60291764D01*
G37*
G36*
X135949034Y-58010764D02*
G01*
X135982125Y-58032875D01*
X136004236Y-58065966D01*
X136012000Y-58105000D01*
X136012000Y-60305000D01*
X136004236Y-60344034D01*
X135982125Y-60377125D01*
X135949034Y-60399236D01*
X135910000Y-60407000D01*
X133790000Y-60407000D01*
X133750966Y-60399236D01*
X133717875Y-60377125D01*
X133695764Y-60344034D01*
X133688000Y-60305000D01*
X133688000Y-58105000D01*
X133695764Y-58065966D01*
X133717875Y-58032875D01*
X133750966Y-58010764D01*
X133790000Y-58003000D01*
X135910000Y-58003000D01*
X135949034Y-58010764D01*
G37*
G36*
X135949034Y-53600764D02*
G01*
X135982125Y-53622875D01*
X136004236Y-53655966D01*
X136012000Y-53695000D01*
X136012000Y-55895000D01*
X136004236Y-55934034D01*
X135982125Y-55967125D01*
X135949034Y-55989236D01*
X135910000Y-55997000D01*
X133790000Y-55997000D01*
X133750966Y-55989236D01*
X133717875Y-55967125D01*
X133695764Y-55934034D01*
X133688000Y-55895000D01*
X133688000Y-53695000D01*
X133695764Y-53655966D01*
X133717875Y-53622875D01*
X133750966Y-53600764D01*
X133790000Y-53593000D01*
X135910000Y-53593000D01*
X135949034Y-53600764D01*
G37*
G36*
X142094718Y-53003257D02*
G01*
X142100621Y-53006143D01*
X142103216Y-53006554D01*
X142144735Y-53027709D01*
X142203255Y-53056318D01*
X142288682Y-53141745D01*
X142317295Y-53200273D01*
X142338444Y-53241780D01*
X142338854Y-53244374D01*
X142341743Y-53250282D01*
X142357000Y-53355000D01*
X142357000Y-54945000D01*
X142341743Y-55049718D01*
X142338855Y-55055624D01*
X142338445Y-55058216D01*
X142317314Y-55099686D01*
X142288682Y-55158255D01*
X142203255Y-55243682D01*
X142144701Y-55272307D01*
X142103219Y-55293444D01*
X142100626Y-55293854D01*
X142094718Y-55296743D01*
X141990000Y-55312000D01*
X137510000Y-55312000D01*
X137405282Y-55296743D01*
X137399375Y-55293855D01*
X137396783Y-55293445D01*
X137355288Y-55272302D01*
X137296745Y-55243682D01*
X137211318Y-55158255D01*
X137182716Y-55099750D01*
X137161555Y-55058219D01*
X137161143Y-55055623D01*
X137158257Y-55049718D01*
X137143000Y-54945000D01*
X137143000Y-53355000D01*
X137158257Y-53250282D01*
X137161142Y-53244378D01*
X137161554Y-53241783D01*
X137182721Y-53200240D01*
X137211318Y-53141745D01*
X137296745Y-53056318D01*
X137355225Y-53027728D01*
X137396780Y-53006555D01*
X137399377Y-53006143D01*
X137405282Y-53003257D01*
X137510000Y-52988000D01*
X141990000Y-52988000D01*
X142094718Y-53003257D01*
G37*
G36*
X151594718Y-53003257D02*
G01*
X151600621Y-53006143D01*
X151603216Y-53006554D01*
X151644735Y-53027709D01*
X151703255Y-53056318D01*
X151788682Y-53141745D01*
X151817295Y-53200273D01*
X151838444Y-53241780D01*
X151838854Y-53244374D01*
X151841743Y-53250282D01*
X151857000Y-53355000D01*
X151857000Y-54945000D01*
X151841743Y-55049718D01*
X151838855Y-55055624D01*
X151838445Y-55058216D01*
X151817314Y-55099686D01*
X151788682Y-55158255D01*
X151703255Y-55243682D01*
X151644701Y-55272307D01*
X151603219Y-55293444D01*
X151600626Y-55293854D01*
X151594718Y-55296743D01*
X151490000Y-55312000D01*
X147010000Y-55312000D01*
X146905282Y-55296743D01*
X146899375Y-55293855D01*
X146896783Y-55293445D01*
X146855288Y-55272302D01*
X146796745Y-55243682D01*
X146711318Y-55158255D01*
X146682716Y-55099750D01*
X146661555Y-55058219D01*
X146661143Y-55055623D01*
X146658257Y-55049718D01*
X146643000Y-54945000D01*
X146643000Y-53355000D01*
X146658257Y-53250282D01*
X146661142Y-53244378D01*
X146661554Y-53241783D01*
X146682721Y-53200240D01*
X146711318Y-53141745D01*
X146796745Y-53056318D01*
X146855225Y-53027728D01*
X146896780Y-53006555D01*
X146899377Y-53006143D01*
X146905282Y-53003257D01*
X147010000Y-52988000D01*
X151490000Y-52988000D01*
X151594718Y-53003257D01*
G37*
G36*
X124301534Y-52608264D02*
G01*
X124334625Y-52630375D01*
X124356736Y-52663466D01*
X124364500Y-52702500D01*
X124364500Y-54802500D01*
X124356736Y-54841534D01*
X124334625Y-54874625D01*
X124301534Y-54896736D01*
X124262500Y-54904500D01*
X122162500Y-54904500D01*
X122123466Y-54896736D01*
X122090375Y-54874625D01*
X122068264Y-54841534D01*
X122060500Y-54802500D01*
X122060500Y-52702500D01*
X122068264Y-52663466D01*
X122090375Y-52630375D01*
X122123466Y-52608264D01*
X122162500Y-52600500D01*
X124262500Y-52600500D01*
X124301534Y-52608264D01*
G37*
G36*
X128607760Y-52644477D02*
G01*
X128805991Y-52721272D01*
X128986735Y-52833184D01*
X129143838Y-52976403D01*
X129271950Y-53146050D01*
X129366708Y-53336350D01*
X129424885Y-53540821D01*
X129444500Y-53752500D01*
X129424885Y-53964179D01*
X129366708Y-54168650D01*
X129271950Y-54358950D01*
X129143838Y-54528597D01*
X128986735Y-54671816D01*
X128805991Y-54783728D01*
X128607760Y-54860523D01*
X128398793Y-54899586D01*
X128186207Y-54899586D01*
X127977240Y-54860523D01*
X127779009Y-54783728D01*
X127598265Y-54671816D01*
X127441162Y-54528597D01*
X127313050Y-54358950D01*
X127218292Y-54168650D01*
X127160115Y-53964179D01*
X127140500Y-53752500D01*
X127160115Y-53540821D01*
X127218292Y-53336350D01*
X127313050Y-53146050D01*
X127441162Y-52976403D01*
X127598265Y-52833184D01*
X127779009Y-52721272D01*
X127977240Y-52644477D01*
X128186207Y-52605414D01*
X128398793Y-52605414D01*
X128607760Y-52644477D01*
G37*
G36*
X135900295Y-47069699D02*
G01*
X136144427Y-47128310D01*
X136376385Y-47224390D01*
X136590456Y-47355573D01*
X136781371Y-47518629D01*
X136944427Y-47709544D01*
X137075610Y-47923615D01*
X137171690Y-48155573D01*
X137230301Y-48399705D01*
X137250000Y-48650000D01*
X137230301Y-48900295D01*
X137171690Y-49144427D01*
X137075610Y-49376385D01*
X136944427Y-49590456D01*
X136781371Y-49781371D01*
X136590456Y-49944427D01*
X136376385Y-50075610D01*
X136144427Y-50171690D01*
X135900295Y-50230301D01*
X135650000Y-50250000D01*
X135399705Y-50230301D01*
X135155573Y-50171690D01*
X134923615Y-50075610D01*
X134709544Y-49944427D01*
X134518629Y-49781371D01*
X134355573Y-49590456D01*
X134224390Y-49376385D01*
X134128310Y-49144427D01*
X134069699Y-48900295D01*
X134050000Y-48650000D01*
X134069699Y-48399705D01*
X134128310Y-48155573D01*
X134224390Y-47923615D01*
X134355573Y-47709544D01*
X134518629Y-47518629D01*
X134709544Y-47355573D01*
X134923615Y-47224390D01*
X135155573Y-47128310D01*
X135399705Y-47069699D01*
X135650000Y-47050000D01*
X135900295Y-47069699D01*
G37*
G36*
X153600295Y-47069699D02*
G01*
X153844427Y-47128310D01*
X154076385Y-47224390D01*
X154290456Y-47355573D01*
X154481371Y-47518629D01*
X154644427Y-47709544D01*
X154775610Y-47923615D01*
X154871690Y-48155573D01*
X154930301Y-48399705D01*
X154950000Y-48650000D01*
X154930301Y-48900295D01*
X154871690Y-49144427D01*
X154775610Y-49376385D01*
X154644427Y-49590456D01*
X154481371Y-49781371D01*
X154290456Y-49944427D01*
X154076385Y-50075610D01*
X153844427Y-50171690D01*
X153600295Y-50230301D01*
X153350000Y-50250000D01*
X153099705Y-50230301D01*
X152855573Y-50171690D01*
X152623615Y-50075610D01*
X152409544Y-49944427D01*
X152218629Y-49781371D01*
X152055573Y-49590456D01*
X151924390Y-49376385D01*
X151828310Y-49144427D01*
X151769699Y-48900295D01*
X151750000Y-48650000D01*
X151769699Y-48399705D01*
X151828310Y-48155573D01*
X151924390Y-47923615D01*
X152055573Y-47709544D01*
X152218629Y-47518629D01*
X152409544Y-47355573D01*
X152623615Y-47224390D01*
X152855573Y-47128310D01*
X153099705Y-47069699D01*
X153350000Y-47050000D01*
X153600295Y-47069699D01*
G37*
M02*
