M48
; DRILL file {KiCad 7.0.10} date Friday, November 08, 2024 at 06:31:07 PM
; FORMAT={-:-/ absolute / metric / decimal}
; #@! TF.CreationDate,2024-11-08T18:31:07-05:00
; #@! TF.GenerationSoftware,Kicad,Pcbnew,7.0.10
; #@! TF.FileFunction,Plated,1,2,PTH
FMAT,2
METRIC
; #@! TA.AperFunction,Plated,PTH,ViaDrill
T1C0.305
; #@! TA.AperFunction,Plated,PTH,ComponentDrill
T2C1.400
; #@! TA.AperFunction,Plated,PTH,ComponentDrill
T3C1.549
%
G90
G05
T1
X121.1Y-64.95
X121.15Y-66.55
X121.15Y-68.3
X121.15Y-70.3
X121.15Y-72.3
X121.15Y-74.3
X121.15Y-76.15
X121.15Y-78.15
X123.1Y-64.95
X123.15Y-66.55
X123.15Y-68.3
X123.15Y-70.3
X123.15Y-72.3
X123.15Y-74.3
X123.15Y-76.15
X123.15Y-78.15
X125.1Y-64.95
X125.15Y-66.55
X125.15Y-68.3
X125.15Y-70.3
X125.15Y-72.3
X125.15Y-74.3
X125.15Y-76.15
X125.15Y-78.15
X127.15Y-68.3
X127.15Y-70.3
X127.15Y-72.3
X127.15Y-74.3
X127.7Y-64.6
X129.8Y-76.4
X130.1Y-65.6
X131.0Y-65.2
X131.15Y-72.8
X133.85Y-78.65
X134.9Y-61.6
X135.222Y-84.65
X135.8Y-61.65
X136.09Y-78.36
X137.6Y-78.35
X138.6Y-82.886
X139.0Y-61.0
X139.7Y-78.291
X141.091Y-79.9
X141.315Y-83.115
X141.65Y-64.0
X142.65Y-83.05
X143.55Y-82.3
X146.95Y-82.95
X147.0Y-56.0
X147.0Y-58.0
X148.3Y-82.9
X149.0Y-56.0
X149.0Y-58.0
X149.6Y-82.85
X151.0Y-56.0
X151.0Y-58.0
X153.0Y-56.0
X153.0Y-58.0
X154.9Y-74.05
X155.1Y-56.0
X155.1Y-58.0
X155.45Y-61.35
X155.45Y-63.35
X155.45Y-65.35
X155.45Y-67.35
X155.45Y-69.25
X155.45Y-71.25
T2
X123.212Y-53.752
X128.292Y-53.752
X149.147Y-63.36
X149.147Y-68.44
T3
X124.3Y-60.682
X124.3Y-82.171
M30
