%TF.GenerationSoftware,KiCad,Pcbnew,7.0.10*%
%TF.CreationDate,2024-11-08T18:31:09-05:00*%
%TF.ProjectId,Novel Mechanism 2 Board,4e6f7665-6c20-44d6-9563-68616e69736d,rev?*%
%TF.SameCoordinates,Original*%
%TF.FileFunction,Drillmap*%
%TF.FilePolarity,Positive*%
%FSLAX45Y45*%
G04 Gerber Fmt 4.5, Leading zero omitted, Abs format (unit mm)*
G04 Created by KiCad (PCBNEW 7.0.10) date 2024-11-08 18:31:09*
%MOMM*%
%LPD*%
G01*
G04 APERTURE LIST*
%ADD10C,0.200000*%
%ADD11C,0.320000*%
G04 APERTURE END LIST*
D10*
X11895000Y-4490000D02*
X15685000Y-4490000D01*
X15685000Y-9065000D01*
X11895000Y-9065000D01*
X11895000Y-4490000D01*
D11*
X12145000Y-8535000D02*
X12465000Y-8855000D01*
X12465000Y-8535000D02*
X12145000Y-8855000D01*
X13405000Y-4705000D02*
X13725000Y-5025000D01*
X13725000Y-4705000D02*
X13405000Y-5025000D01*
X15175000Y-4705000D02*
X15495000Y-5025000D01*
X15495000Y-4705000D02*
X15175000Y-5025000D01*
D10*
X12145777Y-9386484D02*
X12145777Y-9186484D01*
X12145777Y-9186484D02*
X12193396Y-9186484D01*
X12193396Y-9186484D02*
X12221967Y-9196008D01*
X12221967Y-9196008D02*
X12241015Y-9215055D01*
X12241015Y-9215055D02*
X12250539Y-9234103D01*
X12250539Y-9234103D02*
X12260062Y-9272198D01*
X12260062Y-9272198D02*
X12260062Y-9300770D01*
X12260062Y-9300770D02*
X12250539Y-9338865D01*
X12250539Y-9338865D02*
X12241015Y-9357912D01*
X12241015Y-9357912D02*
X12221967Y-9376960D01*
X12221967Y-9376960D02*
X12193396Y-9386484D01*
X12193396Y-9386484D02*
X12145777Y-9386484D01*
X12345777Y-9386484D02*
X12345777Y-9253150D01*
X12345777Y-9291246D02*
X12355301Y-9272198D01*
X12355301Y-9272198D02*
X12364824Y-9262674D01*
X12364824Y-9262674D02*
X12383872Y-9253150D01*
X12383872Y-9253150D02*
X12402920Y-9253150D01*
X12469586Y-9386484D02*
X12469586Y-9253150D01*
X12469586Y-9186484D02*
X12460062Y-9196008D01*
X12460062Y-9196008D02*
X12469586Y-9205531D01*
X12469586Y-9205531D02*
X12479110Y-9196008D01*
X12479110Y-9196008D02*
X12469586Y-9186484D01*
X12469586Y-9186484D02*
X12469586Y-9205531D01*
X12593396Y-9386484D02*
X12574348Y-9376960D01*
X12574348Y-9376960D02*
X12564824Y-9357912D01*
X12564824Y-9357912D02*
X12564824Y-9186484D01*
X12698158Y-9386484D02*
X12679110Y-9376960D01*
X12679110Y-9376960D02*
X12669586Y-9357912D01*
X12669586Y-9357912D02*
X12669586Y-9186484D01*
X12926729Y-9386484D02*
X12926729Y-9186484D01*
X12926729Y-9186484D02*
X12993396Y-9329341D01*
X12993396Y-9329341D02*
X13060062Y-9186484D01*
X13060062Y-9186484D02*
X13060062Y-9386484D01*
X13241015Y-9386484D02*
X13241015Y-9281722D01*
X13241015Y-9281722D02*
X13231491Y-9262674D01*
X13231491Y-9262674D02*
X13212443Y-9253150D01*
X13212443Y-9253150D02*
X13174348Y-9253150D01*
X13174348Y-9253150D02*
X13155301Y-9262674D01*
X13241015Y-9376960D02*
X13221967Y-9386484D01*
X13221967Y-9386484D02*
X13174348Y-9386484D01*
X13174348Y-9386484D02*
X13155301Y-9376960D01*
X13155301Y-9376960D02*
X13145777Y-9357912D01*
X13145777Y-9357912D02*
X13145777Y-9338865D01*
X13145777Y-9338865D02*
X13155301Y-9319817D01*
X13155301Y-9319817D02*
X13174348Y-9310293D01*
X13174348Y-9310293D02*
X13221967Y-9310293D01*
X13221967Y-9310293D02*
X13241015Y-9300770D01*
X13336253Y-9253150D02*
X13336253Y-9453150D01*
X13336253Y-9262674D02*
X13355301Y-9253150D01*
X13355301Y-9253150D02*
X13393396Y-9253150D01*
X13393396Y-9253150D02*
X13412443Y-9262674D01*
X13412443Y-9262674D02*
X13421967Y-9272198D01*
X13421967Y-9272198D02*
X13431491Y-9291246D01*
X13431491Y-9291246D02*
X13431491Y-9348389D01*
X13431491Y-9348389D02*
X13421967Y-9367436D01*
X13421967Y-9367436D02*
X13412443Y-9376960D01*
X13412443Y-9376960D02*
X13393396Y-9386484D01*
X13393396Y-9386484D02*
X13355301Y-9386484D01*
X13355301Y-9386484D02*
X13336253Y-9376960D01*
X13517205Y-9367436D02*
X13526729Y-9376960D01*
X13526729Y-9376960D02*
X13517205Y-9386484D01*
X13517205Y-9386484D02*
X13507682Y-9376960D01*
X13507682Y-9376960D02*
X13517205Y-9367436D01*
X13517205Y-9367436D02*
X13517205Y-9386484D01*
X13517205Y-9262674D02*
X13526729Y-9272198D01*
X13526729Y-9272198D02*
X13517205Y-9281722D01*
X13517205Y-9281722D02*
X13507682Y-9272198D01*
X13507682Y-9272198D02*
X13517205Y-9262674D01*
X13517205Y-9262674D02*
X13517205Y-9281722D01*
X11685000Y-9615000D02*
X11885000Y-9815000D01*
X11885000Y-9615000D02*
X11685000Y-9815000D01*
X12126729Y-9606484D02*
X12250539Y-9606484D01*
X12250539Y-9606484D02*
X12183872Y-9682674D01*
X12183872Y-9682674D02*
X12212443Y-9682674D01*
X12212443Y-9682674D02*
X12231491Y-9692198D01*
X12231491Y-9692198D02*
X12241015Y-9701722D01*
X12241015Y-9701722D02*
X12250539Y-9720770D01*
X12250539Y-9720770D02*
X12250539Y-9768389D01*
X12250539Y-9768389D02*
X12241015Y-9787436D01*
X12241015Y-9787436D02*
X12231491Y-9796960D01*
X12231491Y-9796960D02*
X12212443Y-9806484D01*
X12212443Y-9806484D02*
X12155301Y-9806484D01*
X12155301Y-9806484D02*
X12136253Y-9796960D01*
X12136253Y-9796960D02*
X12126729Y-9787436D01*
X12336253Y-9787436D02*
X12345777Y-9796960D01*
X12345777Y-9796960D02*
X12336253Y-9806484D01*
X12336253Y-9806484D02*
X12326729Y-9796960D01*
X12326729Y-9796960D02*
X12336253Y-9787436D01*
X12336253Y-9787436D02*
X12336253Y-9806484D01*
X12421967Y-9625531D02*
X12431491Y-9616008D01*
X12431491Y-9616008D02*
X12450539Y-9606484D01*
X12450539Y-9606484D02*
X12498158Y-9606484D01*
X12498158Y-9606484D02*
X12517205Y-9616008D01*
X12517205Y-9616008D02*
X12526729Y-9625531D01*
X12526729Y-9625531D02*
X12536253Y-9644579D01*
X12536253Y-9644579D02*
X12536253Y-9663627D01*
X12536253Y-9663627D02*
X12526729Y-9692198D01*
X12526729Y-9692198D02*
X12412443Y-9806484D01*
X12412443Y-9806484D02*
X12536253Y-9806484D01*
X12660062Y-9606484D02*
X12679110Y-9606484D01*
X12679110Y-9606484D02*
X12698158Y-9616008D01*
X12698158Y-9616008D02*
X12707682Y-9625531D01*
X12707682Y-9625531D02*
X12717205Y-9644579D01*
X12717205Y-9644579D02*
X12726729Y-9682674D01*
X12726729Y-9682674D02*
X12726729Y-9730293D01*
X12726729Y-9730293D02*
X12717205Y-9768389D01*
X12717205Y-9768389D02*
X12707682Y-9787436D01*
X12707682Y-9787436D02*
X12698158Y-9796960D01*
X12698158Y-9796960D02*
X12679110Y-9806484D01*
X12679110Y-9806484D02*
X12660062Y-9806484D01*
X12660062Y-9806484D02*
X12641015Y-9796960D01*
X12641015Y-9796960D02*
X12631491Y-9787436D01*
X12631491Y-9787436D02*
X12621967Y-9768389D01*
X12621967Y-9768389D02*
X12612443Y-9730293D01*
X12612443Y-9730293D02*
X12612443Y-9682674D01*
X12612443Y-9682674D02*
X12621967Y-9644579D01*
X12621967Y-9644579D02*
X12631491Y-9625531D01*
X12631491Y-9625531D02*
X12641015Y-9616008D01*
X12641015Y-9616008D02*
X12660062Y-9606484D01*
X12850539Y-9606484D02*
X12869586Y-9606484D01*
X12869586Y-9606484D02*
X12888634Y-9616008D01*
X12888634Y-9616008D02*
X12898158Y-9625531D01*
X12898158Y-9625531D02*
X12907682Y-9644579D01*
X12907682Y-9644579D02*
X12917205Y-9682674D01*
X12917205Y-9682674D02*
X12917205Y-9730293D01*
X12917205Y-9730293D02*
X12907682Y-9768389D01*
X12907682Y-9768389D02*
X12898158Y-9787436D01*
X12898158Y-9787436D02*
X12888634Y-9796960D01*
X12888634Y-9796960D02*
X12869586Y-9806484D01*
X12869586Y-9806484D02*
X12850539Y-9806484D01*
X12850539Y-9806484D02*
X12831491Y-9796960D01*
X12831491Y-9796960D02*
X12821967Y-9787436D01*
X12821967Y-9787436D02*
X12812443Y-9768389D01*
X12812443Y-9768389D02*
X12802920Y-9730293D01*
X12802920Y-9730293D02*
X12802920Y-9682674D01*
X12802920Y-9682674D02*
X12812443Y-9644579D01*
X12812443Y-9644579D02*
X12821967Y-9625531D01*
X12821967Y-9625531D02*
X12831491Y-9616008D01*
X12831491Y-9616008D02*
X12850539Y-9606484D01*
X13002920Y-9806484D02*
X13002920Y-9673150D01*
X13002920Y-9692198D02*
X13012443Y-9682674D01*
X13012443Y-9682674D02*
X13031491Y-9673150D01*
X13031491Y-9673150D02*
X13060063Y-9673150D01*
X13060063Y-9673150D02*
X13079110Y-9682674D01*
X13079110Y-9682674D02*
X13088634Y-9701722D01*
X13088634Y-9701722D02*
X13088634Y-9806484D01*
X13088634Y-9701722D02*
X13098158Y-9682674D01*
X13098158Y-9682674D02*
X13117205Y-9673150D01*
X13117205Y-9673150D02*
X13145777Y-9673150D01*
X13145777Y-9673150D02*
X13164824Y-9682674D01*
X13164824Y-9682674D02*
X13174348Y-9701722D01*
X13174348Y-9701722D02*
X13174348Y-9806484D01*
X13269586Y-9806484D02*
X13269586Y-9673150D01*
X13269586Y-9692198D02*
X13279110Y-9682674D01*
X13279110Y-9682674D02*
X13298158Y-9673150D01*
X13298158Y-9673150D02*
X13326729Y-9673150D01*
X13326729Y-9673150D02*
X13345777Y-9682674D01*
X13345777Y-9682674D02*
X13355301Y-9701722D01*
X13355301Y-9701722D02*
X13355301Y-9806484D01*
X13355301Y-9701722D02*
X13364824Y-9682674D01*
X13364824Y-9682674D02*
X13383872Y-9673150D01*
X13383872Y-9673150D02*
X13412443Y-9673150D01*
X13412443Y-9673150D02*
X13431491Y-9682674D01*
X13431491Y-9682674D02*
X13441015Y-9701722D01*
X13441015Y-9701722D02*
X13441015Y-9806484D01*
X13831491Y-9596960D02*
X13660063Y-9854103D01*
X14088634Y-9606484D02*
X14107682Y-9606484D01*
X14107682Y-9606484D02*
X14126729Y-9616008D01*
X14126729Y-9616008D02*
X14136253Y-9625531D01*
X14136253Y-9625531D02*
X14145777Y-9644579D01*
X14145777Y-9644579D02*
X14155301Y-9682674D01*
X14155301Y-9682674D02*
X14155301Y-9730293D01*
X14155301Y-9730293D02*
X14145777Y-9768389D01*
X14145777Y-9768389D02*
X14136253Y-9787436D01*
X14136253Y-9787436D02*
X14126729Y-9796960D01*
X14126729Y-9796960D02*
X14107682Y-9806484D01*
X14107682Y-9806484D02*
X14088634Y-9806484D01*
X14088634Y-9806484D02*
X14069586Y-9796960D01*
X14069586Y-9796960D02*
X14060063Y-9787436D01*
X14060063Y-9787436D02*
X14050539Y-9768389D01*
X14050539Y-9768389D02*
X14041015Y-9730293D01*
X14041015Y-9730293D02*
X14041015Y-9682674D01*
X14041015Y-9682674D02*
X14050539Y-9644579D01*
X14050539Y-9644579D02*
X14060063Y-9625531D01*
X14060063Y-9625531D02*
X14069586Y-9616008D01*
X14069586Y-9616008D02*
X14088634Y-9606484D01*
X14241015Y-9787436D02*
X14250539Y-9796960D01*
X14250539Y-9796960D02*
X14241015Y-9806484D01*
X14241015Y-9806484D02*
X14231491Y-9796960D01*
X14231491Y-9796960D02*
X14241015Y-9787436D01*
X14241015Y-9787436D02*
X14241015Y-9806484D01*
X14441015Y-9806484D02*
X14326729Y-9806484D01*
X14383872Y-9806484D02*
X14383872Y-9606484D01*
X14383872Y-9606484D02*
X14364825Y-9635055D01*
X14364825Y-9635055D02*
X14345777Y-9654103D01*
X14345777Y-9654103D02*
X14326729Y-9663627D01*
X14517206Y-9625531D02*
X14526729Y-9616008D01*
X14526729Y-9616008D02*
X14545777Y-9606484D01*
X14545777Y-9606484D02*
X14593396Y-9606484D01*
X14593396Y-9606484D02*
X14612444Y-9616008D01*
X14612444Y-9616008D02*
X14621967Y-9625531D01*
X14621967Y-9625531D02*
X14631491Y-9644579D01*
X14631491Y-9644579D02*
X14631491Y-9663627D01*
X14631491Y-9663627D02*
X14621967Y-9692198D01*
X14621967Y-9692198D02*
X14507682Y-9806484D01*
X14507682Y-9806484D02*
X14631491Y-9806484D01*
X14802920Y-9606484D02*
X14764825Y-9606484D01*
X14764825Y-9606484D02*
X14745777Y-9616008D01*
X14745777Y-9616008D02*
X14736253Y-9625531D01*
X14736253Y-9625531D02*
X14717206Y-9654103D01*
X14717206Y-9654103D02*
X14707682Y-9692198D01*
X14707682Y-9692198D02*
X14707682Y-9768389D01*
X14707682Y-9768389D02*
X14717206Y-9787436D01*
X14717206Y-9787436D02*
X14726729Y-9796960D01*
X14726729Y-9796960D02*
X14745777Y-9806484D01*
X14745777Y-9806484D02*
X14783872Y-9806484D01*
X14783872Y-9806484D02*
X14802920Y-9796960D01*
X14802920Y-9796960D02*
X14812444Y-9787436D01*
X14812444Y-9787436D02*
X14821967Y-9768389D01*
X14821967Y-9768389D02*
X14821967Y-9720770D01*
X14821967Y-9720770D02*
X14812444Y-9701722D01*
X14812444Y-9701722D02*
X14802920Y-9692198D01*
X14802920Y-9692198D02*
X14783872Y-9682674D01*
X14783872Y-9682674D02*
X14745777Y-9682674D01*
X14745777Y-9682674D02*
X14726729Y-9692198D01*
X14726729Y-9692198D02*
X14717206Y-9701722D01*
X14717206Y-9701722D02*
X14707682Y-9720770D01*
X14945777Y-9606484D02*
X14964825Y-9606484D01*
X14964825Y-9606484D02*
X14983872Y-9616008D01*
X14983872Y-9616008D02*
X14993396Y-9625531D01*
X14993396Y-9625531D02*
X15002920Y-9644579D01*
X15002920Y-9644579D02*
X15012444Y-9682674D01*
X15012444Y-9682674D02*
X15012444Y-9730293D01*
X15012444Y-9730293D02*
X15002920Y-9768389D01*
X15002920Y-9768389D02*
X14993396Y-9787436D01*
X14993396Y-9787436D02*
X14983872Y-9796960D01*
X14983872Y-9796960D02*
X14964825Y-9806484D01*
X14964825Y-9806484D02*
X14945777Y-9806484D01*
X14945777Y-9806484D02*
X14926729Y-9796960D01*
X14926729Y-9796960D02*
X14917206Y-9787436D01*
X14917206Y-9787436D02*
X14907682Y-9768389D01*
X14907682Y-9768389D02*
X14898158Y-9730293D01*
X14898158Y-9730293D02*
X14898158Y-9682674D01*
X14898158Y-9682674D02*
X14907682Y-9644579D01*
X14907682Y-9644579D02*
X14917206Y-9625531D01*
X14917206Y-9625531D02*
X14926729Y-9616008D01*
X14926729Y-9616008D02*
X14945777Y-9606484D01*
X15088634Y-9606484D02*
X15088634Y-9644579D01*
X15164825Y-9606484D02*
X15164825Y-9644579D01*
X15460063Y-9882674D02*
X15450539Y-9873150D01*
X15450539Y-9873150D02*
X15431491Y-9844579D01*
X15431491Y-9844579D02*
X15421968Y-9825531D01*
X15421968Y-9825531D02*
X15412444Y-9796960D01*
X15412444Y-9796960D02*
X15402920Y-9749341D01*
X15402920Y-9749341D02*
X15402920Y-9711246D01*
X15402920Y-9711246D02*
X15412444Y-9663627D01*
X15412444Y-9663627D02*
X15421968Y-9635055D01*
X15421968Y-9635055D02*
X15431491Y-9616008D01*
X15431491Y-9616008D02*
X15450539Y-9587436D01*
X15450539Y-9587436D02*
X15460063Y-9577912D01*
X15517206Y-9606484D02*
X15641015Y-9606484D01*
X15641015Y-9606484D02*
X15574348Y-9682674D01*
X15574348Y-9682674D02*
X15602920Y-9682674D01*
X15602920Y-9682674D02*
X15621968Y-9692198D01*
X15621968Y-9692198D02*
X15631491Y-9701722D01*
X15631491Y-9701722D02*
X15641015Y-9720770D01*
X15641015Y-9720770D02*
X15641015Y-9768389D01*
X15641015Y-9768389D02*
X15631491Y-9787436D01*
X15631491Y-9787436D02*
X15621968Y-9796960D01*
X15621968Y-9796960D02*
X15602920Y-9806484D01*
X15602920Y-9806484D02*
X15545777Y-9806484D01*
X15545777Y-9806484D02*
X15526729Y-9796960D01*
X15526729Y-9796960D02*
X15517206Y-9787436D01*
X15879110Y-9806484D02*
X15879110Y-9606484D01*
X15964825Y-9806484D02*
X15964825Y-9701722D01*
X15964825Y-9701722D02*
X15955301Y-9682674D01*
X15955301Y-9682674D02*
X15936253Y-9673150D01*
X15936253Y-9673150D02*
X15907682Y-9673150D01*
X15907682Y-9673150D02*
X15888634Y-9682674D01*
X15888634Y-9682674D02*
X15879110Y-9692198D01*
X16088634Y-9806484D02*
X16069587Y-9796960D01*
X16069587Y-9796960D02*
X16060063Y-9787436D01*
X16060063Y-9787436D02*
X16050539Y-9768389D01*
X16050539Y-9768389D02*
X16050539Y-9711246D01*
X16050539Y-9711246D02*
X16060063Y-9692198D01*
X16060063Y-9692198D02*
X16069587Y-9682674D01*
X16069587Y-9682674D02*
X16088634Y-9673150D01*
X16088634Y-9673150D02*
X16117206Y-9673150D01*
X16117206Y-9673150D02*
X16136253Y-9682674D01*
X16136253Y-9682674D02*
X16145777Y-9692198D01*
X16145777Y-9692198D02*
X16155301Y-9711246D01*
X16155301Y-9711246D02*
X16155301Y-9768389D01*
X16155301Y-9768389D02*
X16145777Y-9787436D01*
X16145777Y-9787436D02*
X16136253Y-9796960D01*
X16136253Y-9796960D02*
X16117206Y-9806484D01*
X16117206Y-9806484D02*
X16088634Y-9806484D01*
X16269587Y-9806484D02*
X16250539Y-9796960D01*
X16250539Y-9796960D02*
X16241015Y-9777912D01*
X16241015Y-9777912D02*
X16241015Y-9606484D01*
X16421968Y-9796960D02*
X16402920Y-9806484D01*
X16402920Y-9806484D02*
X16364825Y-9806484D01*
X16364825Y-9806484D02*
X16345777Y-9796960D01*
X16345777Y-9796960D02*
X16336253Y-9777912D01*
X16336253Y-9777912D02*
X16336253Y-9701722D01*
X16336253Y-9701722D02*
X16345777Y-9682674D01*
X16345777Y-9682674D02*
X16364825Y-9673150D01*
X16364825Y-9673150D02*
X16402920Y-9673150D01*
X16402920Y-9673150D02*
X16421968Y-9682674D01*
X16421968Y-9682674D02*
X16431491Y-9701722D01*
X16431491Y-9701722D02*
X16431491Y-9720770D01*
X16431491Y-9720770D02*
X16336253Y-9739817D01*
X16507682Y-9796960D02*
X16526730Y-9806484D01*
X16526730Y-9806484D02*
X16564825Y-9806484D01*
X16564825Y-9806484D02*
X16583872Y-9796960D01*
X16583872Y-9796960D02*
X16593396Y-9777912D01*
X16593396Y-9777912D02*
X16593396Y-9768389D01*
X16593396Y-9768389D02*
X16583872Y-9749341D01*
X16583872Y-9749341D02*
X16564825Y-9739817D01*
X16564825Y-9739817D02*
X16536253Y-9739817D01*
X16536253Y-9739817D02*
X16517206Y-9730293D01*
X16517206Y-9730293D02*
X16507682Y-9711246D01*
X16507682Y-9711246D02*
X16507682Y-9701722D01*
X16507682Y-9701722D02*
X16517206Y-9682674D01*
X16517206Y-9682674D02*
X16536253Y-9673150D01*
X16536253Y-9673150D02*
X16564825Y-9673150D01*
X16564825Y-9673150D02*
X16583872Y-9682674D01*
X16660063Y-9882674D02*
X16669587Y-9873150D01*
X16669587Y-9873150D02*
X16688634Y-9844579D01*
X16688634Y-9844579D02*
X16698158Y-9825531D01*
X16698158Y-9825531D02*
X16707682Y-9796960D01*
X16707682Y-9796960D02*
X16717206Y-9749341D01*
X16717206Y-9749341D02*
X16717206Y-9711246D01*
X16717206Y-9711246D02*
X16707682Y-9663627D01*
X16707682Y-9663627D02*
X16698158Y-9635055D01*
X16698158Y-9635055D02*
X16688634Y-9616008D01*
X16688634Y-9616008D02*
X16669587Y-9587436D01*
X16669587Y-9587436D02*
X16660063Y-9577912D01*
X17021968Y-9882674D02*
X17012444Y-9873150D01*
X17012444Y-9873150D02*
X16993396Y-9844579D01*
X16993396Y-9844579D02*
X16983873Y-9825531D01*
X16983873Y-9825531D02*
X16974349Y-9796960D01*
X16974349Y-9796960D02*
X16964825Y-9749341D01*
X16964825Y-9749341D02*
X16964825Y-9711246D01*
X16964825Y-9711246D02*
X16974349Y-9663627D01*
X16974349Y-9663627D02*
X16983873Y-9635055D01*
X16983873Y-9635055D02*
X16993396Y-9616008D01*
X16993396Y-9616008D02*
X17012444Y-9587436D01*
X17012444Y-9587436D02*
X17021968Y-9577912D01*
X17098158Y-9673150D02*
X17098158Y-9806484D01*
X17098158Y-9692198D02*
X17107682Y-9682674D01*
X17107682Y-9682674D02*
X17126730Y-9673150D01*
X17126730Y-9673150D02*
X17155301Y-9673150D01*
X17155301Y-9673150D02*
X17174349Y-9682674D01*
X17174349Y-9682674D02*
X17183873Y-9701722D01*
X17183873Y-9701722D02*
X17183873Y-9806484D01*
X17307682Y-9806484D02*
X17288634Y-9796960D01*
X17288634Y-9796960D02*
X17279111Y-9787436D01*
X17279111Y-9787436D02*
X17269587Y-9768389D01*
X17269587Y-9768389D02*
X17269587Y-9711246D01*
X17269587Y-9711246D02*
X17279111Y-9692198D01*
X17279111Y-9692198D02*
X17288634Y-9682674D01*
X17288634Y-9682674D02*
X17307682Y-9673150D01*
X17307682Y-9673150D02*
X17336254Y-9673150D01*
X17336254Y-9673150D02*
X17355301Y-9682674D01*
X17355301Y-9682674D02*
X17364825Y-9692198D01*
X17364825Y-9692198D02*
X17374349Y-9711246D01*
X17374349Y-9711246D02*
X17374349Y-9768389D01*
X17374349Y-9768389D02*
X17364825Y-9787436D01*
X17364825Y-9787436D02*
X17355301Y-9796960D01*
X17355301Y-9796960D02*
X17336254Y-9806484D01*
X17336254Y-9806484D02*
X17307682Y-9806484D01*
X17431492Y-9673150D02*
X17507682Y-9673150D01*
X17460063Y-9606484D02*
X17460063Y-9777912D01*
X17460063Y-9777912D02*
X17469587Y-9796960D01*
X17469587Y-9796960D02*
X17488634Y-9806484D01*
X17488634Y-9806484D02*
X17507682Y-9806484D01*
X17726730Y-9673150D02*
X17726730Y-9873150D01*
X17726730Y-9682674D02*
X17745777Y-9673150D01*
X17745777Y-9673150D02*
X17783873Y-9673150D01*
X17783873Y-9673150D02*
X17802920Y-9682674D01*
X17802920Y-9682674D02*
X17812444Y-9692198D01*
X17812444Y-9692198D02*
X17821968Y-9711246D01*
X17821968Y-9711246D02*
X17821968Y-9768389D01*
X17821968Y-9768389D02*
X17812444Y-9787436D01*
X17812444Y-9787436D02*
X17802920Y-9796960D01*
X17802920Y-9796960D02*
X17783873Y-9806484D01*
X17783873Y-9806484D02*
X17745777Y-9806484D01*
X17745777Y-9806484D02*
X17726730Y-9796960D01*
X17936254Y-9806484D02*
X17917206Y-9796960D01*
X17917206Y-9796960D02*
X17907682Y-9777912D01*
X17907682Y-9777912D02*
X17907682Y-9606484D01*
X18098158Y-9806484D02*
X18098158Y-9701722D01*
X18098158Y-9701722D02*
X18088635Y-9682674D01*
X18088635Y-9682674D02*
X18069587Y-9673150D01*
X18069587Y-9673150D02*
X18031492Y-9673150D01*
X18031492Y-9673150D02*
X18012444Y-9682674D01*
X18098158Y-9796960D02*
X18079111Y-9806484D01*
X18079111Y-9806484D02*
X18031492Y-9806484D01*
X18031492Y-9806484D02*
X18012444Y-9796960D01*
X18012444Y-9796960D02*
X18002920Y-9777912D01*
X18002920Y-9777912D02*
X18002920Y-9758865D01*
X18002920Y-9758865D02*
X18012444Y-9739817D01*
X18012444Y-9739817D02*
X18031492Y-9730293D01*
X18031492Y-9730293D02*
X18079111Y-9730293D01*
X18079111Y-9730293D02*
X18098158Y-9720770D01*
X18164825Y-9673150D02*
X18241015Y-9673150D01*
X18193396Y-9606484D02*
X18193396Y-9777912D01*
X18193396Y-9777912D02*
X18202920Y-9796960D01*
X18202920Y-9796960D02*
X18221968Y-9806484D01*
X18221968Y-9806484D02*
X18241015Y-9806484D01*
X18383873Y-9796960D02*
X18364825Y-9806484D01*
X18364825Y-9806484D02*
X18326730Y-9806484D01*
X18326730Y-9806484D02*
X18307682Y-9796960D01*
X18307682Y-9796960D02*
X18298158Y-9777912D01*
X18298158Y-9777912D02*
X18298158Y-9701722D01*
X18298158Y-9701722D02*
X18307682Y-9682674D01*
X18307682Y-9682674D02*
X18326730Y-9673150D01*
X18326730Y-9673150D02*
X18364825Y-9673150D01*
X18364825Y-9673150D02*
X18383873Y-9682674D01*
X18383873Y-9682674D02*
X18393396Y-9701722D01*
X18393396Y-9701722D02*
X18393396Y-9720770D01*
X18393396Y-9720770D02*
X18298158Y-9739817D01*
X18564825Y-9806484D02*
X18564825Y-9606484D01*
X18564825Y-9796960D02*
X18545777Y-9806484D01*
X18545777Y-9806484D02*
X18507682Y-9806484D01*
X18507682Y-9806484D02*
X18488635Y-9796960D01*
X18488635Y-9796960D02*
X18479111Y-9787436D01*
X18479111Y-9787436D02*
X18469587Y-9768389D01*
X18469587Y-9768389D02*
X18469587Y-9711246D01*
X18469587Y-9711246D02*
X18479111Y-9692198D01*
X18479111Y-9692198D02*
X18488635Y-9682674D01*
X18488635Y-9682674D02*
X18507682Y-9673150D01*
X18507682Y-9673150D02*
X18545777Y-9673150D01*
X18545777Y-9673150D02*
X18564825Y-9682674D01*
X18641016Y-9882674D02*
X18650539Y-9873150D01*
X18650539Y-9873150D02*
X18669587Y-9844579D01*
X18669587Y-9844579D02*
X18679111Y-9825531D01*
X18679111Y-9825531D02*
X18688635Y-9796960D01*
X18688635Y-9796960D02*
X18698158Y-9749341D01*
X18698158Y-9749341D02*
X18698158Y-9711246D01*
X18698158Y-9711246D02*
X18688635Y-9663627D01*
X18688635Y-9663627D02*
X18679111Y-9635055D01*
X18679111Y-9635055D02*
X18669587Y-9616008D01*
X18669587Y-9616008D02*
X18650539Y-9587436D01*
X18650539Y-9587436D02*
X18641016Y-9577912D01*
M02*
