G04 #@! TF.GenerationSoftware,KiCad,Pcbnew,7.0.10*
G04 #@! TF.CreationDate,2024-11-08T14:21:27-05:00*
G04 #@! TF.ProjectId,Sensify Main Board,53656e73-6966-4792-904d-61696e20426f,rev?*
G04 #@! TF.SameCoordinates,Original*
G04 #@! TF.FileFunction,Soldermask,Bot*
G04 #@! TF.FilePolarity,Negative*
%FSLAX46Y46*%
G04 Gerber Fmt 4.6, Leading zero omitted, Abs format (unit mm)*
G04 Created by KiCad (PCBNEW 7.0.10) date 2024-11-08 14:21:27*
%MOMM*%
%LPD*%
G01*
G04 APERTURE LIST*
G04 Aperture macros list*
%AMRoundRect*
0 Rectangle with rounded corners*
0 $1 Rounding radius*
0 $2 $3 $4 $5 $6 $7 $8 $9 X,Y pos of 4 corners*
0 Add a 4 corners polygon primitive as box body*
4,1,4,$2,$3,$4,$5,$6,$7,$8,$9,$2,$3,0*
0 Add four circle primitives for the rounded corners*
1,1,$1+$1,$2,$3*
1,1,$1+$1,$4,$5*
1,1,$1+$1,$6,$7*
1,1,$1+$1,$8,$9*
0 Add four rect primitives between the rounded corners*
20,1,$1+$1,$2,$3,$4,$5,0*
20,1,$1+$1,$4,$5,$6,$7,0*
20,1,$1+$1,$6,$7,$8,$9,0*
20,1,$1+$1,$8,$9,$2,$3,0*%
G04 Aperture macros list end*
%ADD10C,3.200000*%
%ADD11C,0.813600*%
%ADD12C,2.025000*%
%ADD13RoundRect,0.102000X0.749000X-0.749000X0.749000X0.749000X-0.749000X0.749000X-0.749000X-0.749000X0*%
%ADD14C,1.702000*%
%ADD15RoundRect,0.250000X0.750000X-0.600000X0.750000X0.600000X-0.750000X0.600000X-0.750000X-0.600000X0*%
%ADD16O,2.000000X1.700000*%
%ADD17R,1.600200X1.600200*%
%ADD18C,1.600200*%
%ADD19C,1.950000*%
%ADD20C,0.700000*%
%ADD21O,2.354000X1.254000*%
%ADD22O,2.054000X1.254000*%
%ADD23RoundRect,0.100500X-0.301500X0.616500X-0.301500X-0.616500X0.301500X-0.616500X0.301500X0.616500X0*%
%ADD24R,1.498600X0.889000*%
%ADD25R,0.889000X1.498600*%
%ADD26R,0.889000X0.889000*%
%ADD27RoundRect,0.160000X0.197500X0.160000X-0.197500X0.160000X-0.197500X-0.160000X0.197500X-0.160000X0*%
%ADD28RoundRect,0.155000X0.212500X0.155000X-0.212500X0.155000X-0.212500X-0.155000X0.212500X-0.155000X0*%
G04 APERTURE END LIST*
D10*
X130962400Y-188417200D03*
D11*
X136741000Y-150457000D03*
X138341000Y-150457000D03*
X136741000Y-152057000D03*
X138341000Y-152057000D03*
X137541000Y-151257000D03*
D12*
X150170000Y-172092000D03*
X153670000Y-177292000D03*
D10*
X155803600Y-188417200D03*
D13*
X150617800Y-117345600D03*
D14*
X150617800Y-110845600D03*
X155117800Y-117345600D03*
X155117800Y-110845600D03*
D15*
X156441200Y-101326000D03*
D16*
X156441200Y-98826000D03*
D10*
X130911600Y-91897200D03*
X155905200Y-91897200D03*
D15*
X156413200Y-67625600D03*
D16*
X156413200Y-65125600D03*
D15*
X156413200Y-76222512D03*
D16*
X156413200Y-73722512D03*
D17*
X130556000Y-145923000D03*
D18*
X130556000Y-143383000D03*
X130556000Y-140843000D03*
D13*
X128814000Y-106908600D03*
D14*
X128814000Y-100408600D03*
X133314000Y-106908600D03*
X133314000Y-100408600D03*
D19*
X133660000Y-172092000D03*
X137160000Y-177292000D03*
X140660000Y-172092000D03*
D20*
X134213600Y-113420900D03*
X134213600Y-119200900D03*
D21*
X134713600Y-111990900D03*
X134713600Y-120630900D03*
D22*
X130563600Y-111990900D03*
X130563600Y-120630900D03*
D15*
X156438600Y-84847712D03*
D16*
X156438600Y-82347712D03*
D23*
X134305000Y-162091000D03*
X136205000Y-162091000D03*
X135255000Y-164211000D03*
D24*
X152031400Y-70530400D03*
X152031400Y-71800400D03*
X152031400Y-73070400D03*
X152031400Y-74340400D03*
X152031400Y-75610400D03*
X152031400Y-76880400D03*
X152031400Y-78150400D03*
X152031400Y-79420400D03*
X152031400Y-80690400D03*
X152031400Y-81960400D03*
X152031400Y-83230400D03*
X152031400Y-84500400D03*
X152031400Y-85770400D03*
X152031400Y-87040400D03*
D25*
X148996400Y-88290400D03*
X147726400Y-88290400D03*
X146456400Y-88290400D03*
X145186400Y-88290400D03*
X143916400Y-88290400D03*
X142646400Y-88290400D03*
X141376400Y-88290400D03*
X140106400Y-88290400D03*
X138836400Y-88290400D03*
X137566400Y-88290400D03*
D24*
X134531400Y-87040400D03*
X134531400Y-85770400D03*
X134531400Y-84500400D03*
X134531400Y-83230400D03*
X134531400Y-81960400D03*
X134531400Y-80690400D03*
X134531400Y-79420400D03*
X134531400Y-78150400D03*
X134531400Y-76880400D03*
X134531400Y-75610400D03*
X134531400Y-74340400D03*
X134531400Y-73070400D03*
X134531400Y-71800400D03*
X134531400Y-70530400D03*
D26*
X144781400Y-78250400D03*
X146181400Y-76850400D03*
X146181400Y-78250400D03*
X146181400Y-79650400D03*
X144781400Y-79650400D03*
X143381400Y-79650400D03*
X143381400Y-78250400D03*
X143381400Y-76850400D03*
X144781400Y-76850400D03*
D27*
X143256000Y-150533000D03*
X142061000Y-150533000D03*
D28*
X138773000Y-153200000D03*
X137638000Y-153200000D03*
M02*
