M48
; DRILL file {KiCad 7.0.10} date Friday, November 08, 2024 at 02:21:34 PM
; FORMAT={-:-/ absolute / metric / decimal}
; #@! TF.CreationDate,2024-11-08T14:21:34-05:00
; #@! TF.GenerationSoftware,Kicad,Pcbnew,7.0.10
; #@! TF.FileFunction,Plated,1,4,PTH
FMAT,2
METRIC
; #@! TA.AperFunction,Plated,PTH,ViaDrill
T1C0.200
; #@! TA.AperFunction,Plated,PTH,ComponentDrill
T2C0.300
; #@! TA.AperFunction,Plated,PTH,ViaDrill
T3C0.400
; #@! TA.AperFunction,Plated,PTH,ComponentDrill
T4C0.650
; #@! TA.AperFunction,Plated,PTH,ComponentDrill
T5C0.990
; #@! TA.AperFunction,Plated,PTH,ComponentDrill
T6C1.000
; #@! TA.AperFunction,Plated,PTH,ComponentDrill
T7C1.092
; #@! TA.AperFunction,Plated,PTH,ComponentDrill
T8C1.300
; #@! TA.AperFunction,Plated,PTH,ComponentDrill
T9C1.350
%
G90
G05
T1
X128.27Y-88.748
X128.549Y-77.191
X128.905Y-75.235
X128.981Y-80.0
X129.565Y-82.321
X129.845Y-66.269
X130.274Y-83.709
X130.404Y-110.846
X131.115Y-85.141
X132.893Y-69.291
X132.893Y-85.446
X134.595Y-89.433
X134.976Y-69.24
X134.976Y-101.346
X135.814Y-74.346
X135.814Y-75.616
X135.915Y-83.185
X135.992Y-80.67
X136.169Y-84.76
X136.474Y-113.919
X136.474Y-118.745
X136.5Y-120.625
X136.576Y-73.101
X136.677Y-86.716
X137.236Y-71.907
X137.262Y-81.94
X137.465Y-76.361
X137.566Y-101.727
X137.947Y-117.5
X138.227Y-91.999
X138.227Y-103.276
X138.887Y-83.134
X138.887Y-89.865
X138.938Y-71.933
X138.938Y-97.942
X138.963Y-119.736
X138.989Y-96.215
X139.04Y-81.915
X139.687Y-93.006
X140.437Y-109.855
X140.64Y-72.466
X140.995Y-90.043
X141.147Y-112.845
X141.169Y-122.047
X141.478Y-73.863
X141.503Y-110.973
X141.63Y-107.594
X142.328Y-99.457
X142.646Y-107.62
X142.657Y-82.575
X142.824Y-90.551
X143.366Y-92.964
X143.535Y-110.414
X144.043Y-76.098
X144.12Y-73.101
X144.501Y-120.879
X145.136Y-93.955
X145.186Y-115.468
X145.212Y-117.094
X145.415Y-111.379
X145.491Y-76.124
X145.618Y-95.631
X145.618Y-97.46
X145.821Y-122.072
X145.948Y-105.588
X146.166Y-73.838
X146.685Y-66.827
X146.685Y-84.252
X146.736Y-75.514
X146.837Y-100.559
X146.864Y-87.111
X146.99Y-80.62
X147.066Y-105.588
X147.879Y-71.933
X148.539Y-62.459
X148.539Y-80.721
X148.59Y-96.977
X148.768Y-86.131
X149.022Y-89.916
X149.214Y-82.321
X149.403Y-99.543
X149.733Y-65.0
X149.733Y-74.524
X149.733Y-83.287
X150.252Y-76.124
X150.252Y-83.769
X150.266Y-66.929
X150.368Y-101.041
X150.771Y-80.67
X150.771Y-81.966
X150.771Y-86.893
X150.785Y-71.806
X150.8Y-83.261
X150.876Y-70.536
X151.79Y-96.901
X152.044Y-62.459
X152.73Y-96.876
X153.187Y-69.266
X153.391Y-81.331
X153.467Y-71.907
X153.822Y-84.79
X153.848Y-67.564
X153.873Y-64.033
X153.873Y-76.057
X153.873Y-101.071
T2
X136.741Y-150.457
X136.741Y-152.057
X137.541Y-151.257
X138.341Y-150.457
X138.341Y-152.057
T3
X130.81Y-123.495
X131.521Y-149.454
X132.182Y-133.248
X132.334Y-162.179
X134.01Y-124.714
X135.001Y-156.845
X135.331Y-145.44
X138.481Y-164.592
X138.633Y-125.832
X138.684Y-127.102
X138.684Y-128.397
X138.938Y-158.496
X139.649Y-145.847
X140.043Y-153.962
X141.567Y-152.438
X142.24Y-155.194
X142.291Y-141.681
X142.566Y-152.399
X142.9Y-145.085
X143.129Y-148.899
X143.411Y-157.589
X143.55Y-158.727
X144.272Y-150.533
X144.78Y-161.239
X145.341Y-140.97
X145.796Y-125.171
X145.923Y-177.317
X147.828Y-139.192
X148.59Y-164.084
X148.946Y-117.297
X149.024Y-141.478
X149.377Y-120.142
X149.479Y-123.952
X149.504Y-121.996
X150.114Y-137.973
X151.028Y-120.167
X151.056Y-144.526
X151.13Y-123.977
X151.155Y-122.022
X152.679Y-120.167
X152.781Y-123.977
X152.806Y-122.022
X153.619Y-152.806
X153.975Y-107.95
X154.28Y-134.569
X154.686Y-140.868
X155.245Y-150.571
X155.55Y-132.029
X155.956Y-142.113
X156.21Y-146.253
X157.353Y-122.098
X157.785Y-151.282
T5
X128.814Y-100.409
X128.814Y-106.909
X133.314Y-100.409
X133.314Y-106.909
X150.618Y-110.846
X150.618Y-117.346
X155.118Y-110.846
X155.118Y-117.346
T6
X156.413Y-65.126
X156.413Y-67.626
X156.413Y-73.723
X156.413Y-76.223
X156.439Y-82.348
X156.439Y-84.848
X156.441Y-98.826
X156.441Y-101.326
T7
X130.556Y-140.843
X130.556Y-143.383
X130.556Y-145.923
T8
X133.66Y-172.092
X137.16Y-177.292
X140.66Y-172.092
T9
X150.17Y-172.092
X153.67Y-177.292
T4
X130.964Y-111.991G85X130.164Y-111.991
G05
X130.964Y-120.631G85X130.164Y-120.631
G05
X135.164Y-111.991G85X134.264Y-111.991
G05
X135.164Y-120.631G85X134.264Y-120.631
G05
M30
