%TF.GenerationSoftware,KiCad,Pcbnew,7.0.10*%
%TF.CreationDate,2024-11-08T14:21:35-05:00*%
%TF.ProjectId,Sensify Main Board,53656e73-6966-4792-904d-61696e20426f,rev?*%
%TF.SameCoordinates,Original*%
%TF.FileFunction,Drillmap*%
%TF.FilePolarity,Positive*%
%FSLAX45Y45*%
G04 Gerber Fmt 4.5, Leading zero omitted, Abs format (unit mm)*
G04 Created by KiCad (PCBNEW 7.0.10) date 2024-11-08 14:21:35*
%MOMM*%
%LPD*%
G01*
G04 APERTURE LIST*
%ADD10C,0.200000*%
%ADD11C,0.100000*%
%ADD12C,0.320000*%
G04 APERTURE END LIST*
D10*
X12750800Y-6187440D02*
X15925800Y-6187440D01*
X15925800Y-19187440D01*
X12750800Y-19187440D01*
X12750800Y-6187440D01*
D11*
X13386360Y-11307090D02*
X13456360Y-11377090D01*
X13456360Y-11307090D02*
X13386360Y-11377090D01*
X13386360Y-11885090D02*
X13456360Y-11955090D01*
X13456360Y-11885090D02*
X13386360Y-11955090D01*
D12*
X13251160Y-9189720D02*
G75*
G03*
X12931160Y-9189720I-160000J0D01*
G01*
X12931160Y-9189720D02*
G75*
G03*
X13251160Y-9189720I160000J0D01*
G01*
X13256240Y-18841720D02*
G75*
G03*
X12936240Y-18841720I-160000J0D01*
G01*
X12936240Y-18841720D02*
G75*
G03*
X13256240Y-18841720I160000J0D01*
G01*
X15740360Y-18841720D02*
G75*
G03*
X15420360Y-18841720I-160000J0D01*
G01*
X15420360Y-18841720D02*
G75*
G03*
X15740360Y-18841720I160000J0D01*
G01*
X15750520Y-9189720D02*
G75*
G03*
X15430520Y-9189720I-160000J0D01*
G01*
X15430520Y-9189720D02*
G75*
G03*
X15750520Y-9189720I160000J0D01*
G01*
D10*
X13001577Y-19508924D02*
X13001577Y-19308924D01*
X13001577Y-19308924D02*
X13049196Y-19308924D01*
X13049196Y-19308924D02*
X13077767Y-19318448D01*
X13077767Y-19318448D02*
X13096815Y-19337495D01*
X13096815Y-19337495D02*
X13106339Y-19356543D01*
X13106339Y-19356543D02*
X13115862Y-19394638D01*
X13115862Y-19394638D02*
X13115862Y-19423210D01*
X13115862Y-19423210D02*
X13106339Y-19461305D01*
X13106339Y-19461305D02*
X13096815Y-19480352D01*
X13096815Y-19480352D02*
X13077767Y-19499400D01*
X13077767Y-19499400D02*
X13049196Y-19508924D01*
X13049196Y-19508924D02*
X13001577Y-19508924D01*
X13201577Y-19508924D02*
X13201577Y-19375590D01*
X13201577Y-19413686D02*
X13211101Y-19394638D01*
X13211101Y-19394638D02*
X13220624Y-19385114D01*
X13220624Y-19385114D02*
X13239672Y-19375590D01*
X13239672Y-19375590D02*
X13258720Y-19375590D01*
X13325386Y-19508924D02*
X13325386Y-19375590D01*
X13325386Y-19308924D02*
X13315862Y-19318448D01*
X13315862Y-19318448D02*
X13325386Y-19327971D01*
X13325386Y-19327971D02*
X13334910Y-19318448D01*
X13334910Y-19318448D02*
X13325386Y-19308924D01*
X13325386Y-19308924D02*
X13325386Y-19327971D01*
X13449196Y-19508924D02*
X13430148Y-19499400D01*
X13430148Y-19499400D02*
X13420624Y-19480352D01*
X13420624Y-19480352D02*
X13420624Y-19308924D01*
X13553958Y-19508924D02*
X13534910Y-19499400D01*
X13534910Y-19499400D02*
X13525386Y-19480352D01*
X13525386Y-19480352D02*
X13525386Y-19308924D01*
X13782529Y-19508924D02*
X13782529Y-19308924D01*
X13782529Y-19308924D02*
X13849196Y-19451781D01*
X13849196Y-19451781D02*
X13915862Y-19308924D01*
X13915862Y-19308924D02*
X13915862Y-19508924D01*
X14096815Y-19508924D02*
X14096815Y-19404162D01*
X14096815Y-19404162D02*
X14087291Y-19385114D01*
X14087291Y-19385114D02*
X14068243Y-19375590D01*
X14068243Y-19375590D02*
X14030148Y-19375590D01*
X14030148Y-19375590D02*
X14011101Y-19385114D01*
X14096815Y-19499400D02*
X14077767Y-19508924D01*
X14077767Y-19508924D02*
X14030148Y-19508924D01*
X14030148Y-19508924D02*
X14011101Y-19499400D01*
X14011101Y-19499400D02*
X14001577Y-19480352D01*
X14001577Y-19480352D02*
X14001577Y-19461305D01*
X14001577Y-19461305D02*
X14011101Y-19442257D01*
X14011101Y-19442257D02*
X14030148Y-19432733D01*
X14030148Y-19432733D02*
X14077767Y-19432733D01*
X14077767Y-19432733D02*
X14096815Y-19423210D01*
X14192053Y-19375590D02*
X14192053Y-19575590D01*
X14192053Y-19385114D02*
X14211101Y-19375590D01*
X14211101Y-19375590D02*
X14249196Y-19375590D01*
X14249196Y-19375590D02*
X14268243Y-19385114D01*
X14268243Y-19385114D02*
X14277767Y-19394638D01*
X14277767Y-19394638D02*
X14287291Y-19413686D01*
X14287291Y-19413686D02*
X14287291Y-19470829D01*
X14287291Y-19470829D02*
X14277767Y-19489876D01*
X14277767Y-19489876D02*
X14268243Y-19499400D01*
X14268243Y-19499400D02*
X14249196Y-19508924D01*
X14249196Y-19508924D02*
X14211101Y-19508924D01*
X14211101Y-19508924D02*
X14192053Y-19499400D01*
X14373005Y-19489876D02*
X14382529Y-19499400D01*
X14382529Y-19499400D02*
X14373005Y-19508924D01*
X14373005Y-19508924D02*
X14363482Y-19499400D01*
X14363482Y-19499400D02*
X14373005Y-19489876D01*
X14373005Y-19489876D02*
X14373005Y-19508924D01*
X14373005Y-19385114D02*
X14382529Y-19394638D01*
X14382529Y-19394638D02*
X14373005Y-19404162D01*
X14373005Y-19404162D02*
X14363482Y-19394638D01*
X14363482Y-19394638D02*
X14373005Y-19385114D01*
X14373005Y-19385114D02*
X14373005Y-19404162D01*
D11*
X12670800Y-19802440D02*
X12740800Y-19872440D01*
X12740800Y-19802440D02*
X12670800Y-19872440D01*
D10*
X13039672Y-19728924D02*
X13058720Y-19728924D01*
X13058720Y-19728924D02*
X13077767Y-19738448D01*
X13077767Y-19738448D02*
X13087291Y-19747971D01*
X13087291Y-19747971D02*
X13096815Y-19767019D01*
X13096815Y-19767019D02*
X13106339Y-19805114D01*
X13106339Y-19805114D02*
X13106339Y-19852733D01*
X13106339Y-19852733D02*
X13096815Y-19890829D01*
X13096815Y-19890829D02*
X13087291Y-19909876D01*
X13087291Y-19909876D02*
X13077767Y-19919400D01*
X13077767Y-19919400D02*
X13058720Y-19928924D01*
X13058720Y-19928924D02*
X13039672Y-19928924D01*
X13039672Y-19928924D02*
X13020624Y-19919400D01*
X13020624Y-19919400D02*
X13011101Y-19909876D01*
X13011101Y-19909876D02*
X13001577Y-19890829D01*
X13001577Y-19890829D02*
X12992053Y-19852733D01*
X12992053Y-19852733D02*
X12992053Y-19805114D01*
X12992053Y-19805114D02*
X13001577Y-19767019D01*
X13001577Y-19767019D02*
X13011101Y-19747971D01*
X13011101Y-19747971D02*
X13020624Y-19738448D01*
X13020624Y-19738448D02*
X13039672Y-19728924D01*
X13192053Y-19909876D02*
X13201577Y-19919400D01*
X13201577Y-19919400D02*
X13192053Y-19928924D01*
X13192053Y-19928924D02*
X13182529Y-19919400D01*
X13182529Y-19919400D02*
X13192053Y-19909876D01*
X13192053Y-19909876D02*
X13192053Y-19928924D01*
X13268243Y-19728924D02*
X13401577Y-19728924D01*
X13401577Y-19728924D02*
X13315862Y-19928924D01*
X13515862Y-19728924D02*
X13534910Y-19728924D01*
X13534910Y-19728924D02*
X13553958Y-19738448D01*
X13553958Y-19738448D02*
X13563482Y-19747971D01*
X13563482Y-19747971D02*
X13573005Y-19767019D01*
X13573005Y-19767019D02*
X13582529Y-19805114D01*
X13582529Y-19805114D02*
X13582529Y-19852733D01*
X13582529Y-19852733D02*
X13573005Y-19890829D01*
X13573005Y-19890829D02*
X13563482Y-19909876D01*
X13563482Y-19909876D02*
X13553958Y-19919400D01*
X13553958Y-19919400D02*
X13534910Y-19928924D01*
X13534910Y-19928924D02*
X13515862Y-19928924D01*
X13515862Y-19928924D02*
X13496815Y-19919400D01*
X13496815Y-19919400D02*
X13487291Y-19909876D01*
X13487291Y-19909876D02*
X13477767Y-19890829D01*
X13477767Y-19890829D02*
X13468243Y-19852733D01*
X13468243Y-19852733D02*
X13468243Y-19805114D01*
X13468243Y-19805114D02*
X13477767Y-19767019D01*
X13477767Y-19767019D02*
X13487291Y-19747971D01*
X13487291Y-19747971D02*
X13496815Y-19738448D01*
X13496815Y-19738448D02*
X13515862Y-19728924D01*
X13706339Y-19728924D02*
X13725386Y-19728924D01*
X13725386Y-19728924D02*
X13744434Y-19738448D01*
X13744434Y-19738448D02*
X13753958Y-19747971D01*
X13753958Y-19747971D02*
X13763482Y-19767019D01*
X13763482Y-19767019D02*
X13773005Y-19805114D01*
X13773005Y-19805114D02*
X13773005Y-19852733D01*
X13773005Y-19852733D02*
X13763482Y-19890829D01*
X13763482Y-19890829D02*
X13753958Y-19909876D01*
X13753958Y-19909876D02*
X13744434Y-19919400D01*
X13744434Y-19919400D02*
X13725386Y-19928924D01*
X13725386Y-19928924D02*
X13706339Y-19928924D01*
X13706339Y-19928924D02*
X13687291Y-19919400D01*
X13687291Y-19919400D02*
X13677767Y-19909876D01*
X13677767Y-19909876D02*
X13668243Y-19890829D01*
X13668243Y-19890829D02*
X13658720Y-19852733D01*
X13658720Y-19852733D02*
X13658720Y-19805114D01*
X13658720Y-19805114D02*
X13668243Y-19767019D01*
X13668243Y-19767019D02*
X13677767Y-19747971D01*
X13677767Y-19747971D02*
X13687291Y-19738448D01*
X13687291Y-19738448D02*
X13706339Y-19728924D01*
X13858720Y-19928924D02*
X13858720Y-19795590D01*
X13858720Y-19814638D02*
X13868243Y-19805114D01*
X13868243Y-19805114D02*
X13887291Y-19795590D01*
X13887291Y-19795590D02*
X13915863Y-19795590D01*
X13915863Y-19795590D02*
X13934910Y-19805114D01*
X13934910Y-19805114D02*
X13944434Y-19824162D01*
X13944434Y-19824162D02*
X13944434Y-19928924D01*
X13944434Y-19824162D02*
X13953958Y-19805114D01*
X13953958Y-19805114D02*
X13973005Y-19795590D01*
X13973005Y-19795590D02*
X14001577Y-19795590D01*
X14001577Y-19795590D02*
X14020624Y-19805114D01*
X14020624Y-19805114D02*
X14030148Y-19824162D01*
X14030148Y-19824162D02*
X14030148Y-19928924D01*
X14125386Y-19928924D02*
X14125386Y-19795590D01*
X14125386Y-19814638D02*
X14134910Y-19805114D01*
X14134910Y-19805114D02*
X14153958Y-19795590D01*
X14153958Y-19795590D02*
X14182529Y-19795590D01*
X14182529Y-19795590D02*
X14201577Y-19805114D01*
X14201577Y-19805114D02*
X14211101Y-19824162D01*
X14211101Y-19824162D02*
X14211101Y-19928924D01*
X14211101Y-19824162D02*
X14220624Y-19805114D01*
X14220624Y-19805114D02*
X14239672Y-19795590D01*
X14239672Y-19795590D02*
X14268243Y-19795590D01*
X14268243Y-19795590D02*
X14287291Y-19805114D01*
X14287291Y-19805114D02*
X14296815Y-19824162D01*
X14296815Y-19824162D02*
X14296815Y-19928924D01*
X14687291Y-19719400D02*
X14515863Y-19976543D01*
X14944434Y-19728924D02*
X14963482Y-19728924D01*
X14963482Y-19728924D02*
X14982529Y-19738448D01*
X14982529Y-19738448D02*
X14992053Y-19747971D01*
X14992053Y-19747971D02*
X15001577Y-19767019D01*
X15001577Y-19767019D02*
X15011101Y-19805114D01*
X15011101Y-19805114D02*
X15011101Y-19852733D01*
X15011101Y-19852733D02*
X15001577Y-19890829D01*
X15001577Y-19890829D02*
X14992053Y-19909876D01*
X14992053Y-19909876D02*
X14982529Y-19919400D01*
X14982529Y-19919400D02*
X14963482Y-19928924D01*
X14963482Y-19928924D02*
X14944434Y-19928924D01*
X14944434Y-19928924D02*
X14925386Y-19919400D01*
X14925386Y-19919400D02*
X14915863Y-19909876D01*
X14915863Y-19909876D02*
X14906339Y-19890829D01*
X14906339Y-19890829D02*
X14896815Y-19852733D01*
X14896815Y-19852733D02*
X14896815Y-19805114D01*
X14896815Y-19805114D02*
X14906339Y-19767019D01*
X14906339Y-19767019D02*
X14915863Y-19747971D01*
X14915863Y-19747971D02*
X14925386Y-19738448D01*
X14925386Y-19738448D02*
X14944434Y-19728924D01*
X15096815Y-19909876D02*
X15106339Y-19919400D01*
X15106339Y-19919400D02*
X15096815Y-19928924D01*
X15096815Y-19928924D02*
X15087291Y-19919400D01*
X15087291Y-19919400D02*
X15096815Y-19909876D01*
X15096815Y-19909876D02*
X15096815Y-19928924D01*
X15230148Y-19728924D02*
X15249196Y-19728924D01*
X15249196Y-19728924D02*
X15268244Y-19738448D01*
X15268244Y-19738448D02*
X15277767Y-19747971D01*
X15277767Y-19747971D02*
X15287291Y-19767019D01*
X15287291Y-19767019D02*
X15296815Y-19805114D01*
X15296815Y-19805114D02*
X15296815Y-19852733D01*
X15296815Y-19852733D02*
X15287291Y-19890829D01*
X15287291Y-19890829D02*
X15277767Y-19909876D01*
X15277767Y-19909876D02*
X15268244Y-19919400D01*
X15268244Y-19919400D02*
X15249196Y-19928924D01*
X15249196Y-19928924D02*
X15230148Y-19928924D01*
X15230148Y-19928924D02*
X15211101Y-19919400D01*
X15211101Y-19919400D02*
X15201577Y-19909876D01*
X15201577Y-19909876D02*
X15192053Y-19890829D01*
X15192053Y-19890829D02*
X15182529Y-19852733D01*
X15182529Y-19852733D02*
X15182529Y-19805114D01*
X15182529Y-19805114D02*
X15192053Y-19767019D01*
X15192053Y-19767019D02*
X15201577Y-19747971D01*
X15201577Y-19747971D02*
X15211101Y-19738448D01*
X15211101Y-19738448D02*
X15230148Y-19728924D01*
X15373006Y-19747971D02*
X15382529Y-19738448D01*
X15382529Y-19738448D02*
X15401577Y-19728924D01*
X15401577Y-19728924D02*
X15449196Y-19728924D01*
X15449196Y-19728924D02*
X15468244Y-19738448D01*
X15468244Y-19738448D02*
X15477767Y-19747971D01*
X15477767Y-19747971D02*
X15487291Y-19767019D01*
X15487291Y-19767019D02*
X15487291Y-19786067D01*
X15487291Y-19786067D02*
X15477767Y-19814638D01*
X15477767Y-19814638D02*
X15363482Y-19928924D01*
X15363482Y-19928924D02*
X15487291Y-19928924D01*
X15553958Y-19728924D02*
X15687291Y-19728924D01*
X15687291Y-19728924D02*
X15601577Y-19928924D01*
X15849196Y-19728924D02*
X15811101Y-19728924D01*
X15811101Y-19728924D02*
X15792053Y-19738448D01*
X15792053Y-19738448D02*
X15782529Y-19747971D01*
X15782529Y-19747971D02*
X15763482Y-19776543D01*
X15763482Y-19776543D02*
X15753958Y-19814638D01*
X15753958Y-19814638D02*
X15753958Y-19890829D01*
X15753958Y-19890829D02*
X15763482Y-19909876D01*
X15763482Y-19909876D02*
X15773006Y-19919400D01*
X15773006Y-19919400D02*
X15792053Y-19928924D01*
X15792053Y-19928924D02*
X15830148Y-19928924D01*
X15830148Y-19928924D02*
X15849196Y-19919400D01*
X15849196Y-19919400D02*
X15858720Y-19909876D01*
X15858720Y-19909876D02*
X15868244Y-19890829D01*
X15868244Y-19890829D02*
X15868244Y-19843210D01*
X15868244Y-19843210D02*
X15858720Y-19824162D01*
X15858720Y-19824162D02*
X15849196Y-19814638D01*
X15849196Y-19814638D02*
X15830148Y-19805114D01*
X15830148Y-19805114D02*
X15792053Y-19805114D01*
X15792053Y-19805114D02*
X15773006Y-19814638D01*
X15773006Y-19814638D02*
X15763482Y-19824162D01*
X15763482Y-19824162D02*
X15753958Y-19843210D01*
X15944434Y-19728924D02*
X15944434Y-19767019D01*
X16020625Y-19728924D02*
X16020625Y-19767019D01*
X16315863Y-20005114D02*
X16306339Y-19995590D01*
X16306339Y-19995590D02*
X16287291Y-19967019D01*
X16287291Y-19967019D02*
X16277768Y-19947971D01*
X16277768Y-19947971D02*
X16268244Y-19919400D01*
X16268244Y-19919400D02*
X16258720Y-19871781D01*
X16258720Y-19871781D02*
X16258720Y-19833686D01*
X16258720Y-19833686D02*
X16268244Y-19786067D01*
X16268244Y-19786067D02*
X16277768Y-19757495D01*
X16277768Y-19757495D02*
X16287291Y-19738448D01*
X16287291Y-19738448D02*
X16306339Y-19709876D01*
X16306339Y-19709876D02*
X16315863Y-19700352D01*
X16382529Y-19747971D02*
X16392053Y-19738448D01*
X16392053Y-19738448D02*
X16411101Y-19728924D01*
X16411101Y-19728924D02*
X16458720Y-19728924D01*
X16458720Y-19728924D02*
X16477768Y-19738448D01*
X16477768Y-19738448D02*
X16487291Y-19747971D01*
X16487291Y-19747971D02*
X16496815Y-19767019D01*
X16496815Y-19767019D02*
X16496815Y-19786067D01*
X16496815Y-19786067D02*
X16487291Y-19814638D01*
X16487291Y-19814638D02*
X16373006Y-19928924D01*
X16373006Y-19928924D02*
X16496815Y-19928924D01*
X16734910Y-19928924D02*
X16734910Y-19728924D01*
X16820625Y-19928924D02*
X16820625Y-19824162D01*
X16820625Y-19824162D02*
X16811101Y-19805114D01*
X16811101Y-19805114D02*
X16792053Y-19795590D01*
X16792053Y-19795590D02*
X16763482Y-19795590D01*
X16763482Y-19795590D02*
X16744434Y-19805114D01*
X16744434Y-19805114D02*
X16734910Y-19814638D01*
X16944434Y-19928924D02*
X16925387Y-19919400D01*
X16925387Y-19919400D02*
X16915863Y-19909876D01*
X16915863Y-19909876D02*
X16906339Y-19890829D01*
X16906339Y-19890829D02*
X16906339Y-19833686D01*
X16906339Y-19833686D02*
X16915863Y-19814638D01*
X16915863Y-19814638D02*
X16925387Y-19805114D01*
X16925387Y-19805114D02*
X16944434Y-19795590D01*
X16944434Y-19795590D02*
X16973006Y-19795590D01*
X16973006Y-19795590D02*
X16992053Y-19805114D01*
X16992053Y-19805114D02*
X17001577Y-19814638D01*
X17001577Y-19814638D02*
X17011101Y-19833686D01*
X17011101Y-19833686D02*
X17011101Y-19890829D01*
X17011101Y-19890829D02*
X17001577Y-19909876D01*
X17001577Y-19909876D02*
X16992053Y-19919400D01*
X16992053Y-19919400D02*
X16973006Y-19928924D01*
X16973006Y-19928924D02*
X16944434Y-19928924D01*
X17125387Y-19928924D02*
X17106339Y-19919400D01*
X17106339Y-19919400D02*
X17096815Y-19900352D01*
X17096815Y-19900352D02*
X17096815Y-19728924D01*
X17277768Y-19919400D02*
X17258720Y-19928924D01*
X17258720Y-19928924D02*
X17220625Y-19928924D01*
X17220625Y-19928924D02*
X17201577Y-19919400D01*
X17201577Y-19919400D02*
X17192053Y-19900352D01*
X17192053Y-19900352D02*
X17192053Y-19824162D01*
X17192053Y-19824162D02*
X17201577Y-19805114D01*
X17201577Y-19805114D02*
X17220625Y-19795590D01*
X17220625Y-19795590D02*
X17258720Y-19795590D01*
X17258720Y-19795590D02*
X17277768Y-19805114D01*
X17277768Y-19805114D02*
X17287292Y-19824162D01*
X17287292Y-19824162D02*
X17287292Y-19843210D01*
X17287292Y-19843210D02*
X17192053Y-19862257D01*
X17363482Y-19919400D02*
X17382530Y-19928924D01*
X17382530Y-19928924D02*
X17420625Y-19928924D01*
X17420625Y-19928924D02*
X17439673Y-19919400D01*
X17439673Y-19919400D02*
X17449196Y-19900352D01*
X17449196Y-19900352D02*
X17449196Y-19890829D01*
X17449196Y-19890829D02*
X17439673Y-19871781D01*
X17439673Y-19871781D02*
X17420625Y-19862257D01*
X17420625Y-19862257D02*
X17392053Y-19862257D01*
X17392053Y-19862257D02*
X17373006Y-19852733D01*
X17373006Y-19852733D02*
X17363482Y-19833686D01*
X17363482Y-19833686D02*
X17363482Y-19824162D01*
X17363482Y-19824162D02*
X17373006Y-19805114D01*
X17373006Y-19805114D02*
X17392053Y-19795590D01*
X17392053Y-19795590D02*
X17420625Y-19795590D01*
X17420625Y-19795590D02*
X17439673Y-19805114D01*
X17515863Y-20005114D02*
X17525387Y-19995590D01*
X17525387Y-19995590D02*
X17544434Y-19967019D01*
X17544434Y-19967019D02*
X17553958Y-19947971D01*
X17553958Y-19947971D02*
X17563482Y-19919400D01*
X17563482Y-19919400D02*
X17573006Y-19871781D01*
X17573006Y-19871781D02*
X17573006Y-19833686D01*
X17573006Y-19833686D02*
X17563482Y-19786067D01*
X17563482Y-19786067D02*
X17553958Y-19757495D01*
X17553958Y-19757495D02*
X17544434Y-19738448D01*
X17544434Y-19738448D02*
X17525387Y-19709876D01*
X17525387Y-19709876D02*
X17515863Y-19700352D01*
X17877768Y-20005114D02*
X17868244Y-19995590D01*
X17868244Y-19995590D02*
X17849196Y-19967019D01*
X17849196Y-19967019D02*
X17839673Y-19947971D01*
X17839673Y-19947971D02*
X17830149Y-19919400D01*
X17830149Y-19919400D02*
X17820625Y-19871781D01*
X17820625Y-19871781D02*
X17820625Y-19833686D01*
X17820625Y-19833686D02*
X17830149Y-19786067D01*
X17830149Y-19786067D02*
X17839673Y-19757495D01*
X17839673Y-19757495D02*
X17849196Y-19738448D01*
X17849196Y-19738448D02*
X17868244Y-19709876D01*
X17868244Y-19709876D02*
X17877768Y-19700352D01*
X17953958Y-19795590D02*
X17953958Y-19928924D01*
X17953958Y-19814638D02*
X17963482Y-19805114D01*
X17963482Y-19805114D02*
X17982530Y-19795590D01*
X17982530Y-19795590D02*
X18011101Y-19795590D01*
X18011101Y-19795590D02*
X18030149Y-19805114D01*
X18030149Y-19805114D02*
X18039673Y-19824162D01*
X18039673Y-19824162D02*
X18039673Y-19928924D01*
X18163482Y-19928924D02*
X18144434Y-19919400D01*
X18144434Y-19919400D02*
X18134911Y-19909876D01*
X18134911Y-19909876D02*
X18125387Y-19890829D01*
X18125387Y-19890829D02*
X18125387Y-19833686D01*
X18125387Y-19833686D02*
X18134911Y-19814638D01*
X18134911Y-19814638D02*
X18144434Y-19805114D01*
X18144434Y-19805114D02*
X18163482Y-19795590D01*
X18163482Y-19795590D02*
X18192054Y-19795590D01*
X18192054Y-19795590D02*
X18211101Y-19805114D01*
X18211101Y-19805114D02*
X18220625Y-19814638D01*
X18220625Y-19814638D02*
X18230149Y-19833686D01*
X18230149Y-19833686D02*
X18230149Y-19890829D01*
X18230149Y-19890829D02*
X18220625Y-19909876D01*
X18220625Y-19909876D02*
X18211101Y-19919400D01*
X18211101Y-19919400D02*
X18192054Y-19928924D01*
X18192054Y-19928924D02*
X18163482Y-19928924D01*
X18287292Y-19795590D02*
X18363482Y-19795590D01*
X18315863Y-19728924D02*
X18315863Y-19900352D01*
X18315863Y-19900352D02*
X18325387Y-19919400D01*
X18325387Y-19919400D02*
X18344434Y-19928924D01*
X18344434Y-19928924D02*
X18363482Y-19928924D01*
X18582530Y-19795590D02*
X18582530Y-19995590D01*
X18582530Y-19805114D02*
X18601577Y-19795590D01*
X18601577Y-19795590D02*
X18639673Y-19795590D01*
X18639673Y-19795590D02*
X18658720Y-19805114D01*
X18658720Y-19805114D02*
X18668244Y-19814638D01*
X18668244Y-19814638D02*
X18677768Y-19833686D01*
X18677768Y-19833686D02*
X18677768Y-19890829D01*
X18677768Y-19890829D02*
X18668244Y-19909876D01*
X18668244Y-19909876D02*
X18658720Y-19919400D01*
X18658720Y-19919400D02*
X18639673Y-19928924D01*
X18639673Y-19928924D02*
X18601577Y-19928924D01*
X18601577Y-19928924D02*
X18582530Y-19919400D01*
X18792054Y-19928924D02*
X18773006Y-19919400D01*
X18773006Y-19919400D02*
X18763482Y-19900352D01*
X18763482Y-19900352D02*
X18763482Y-19728924D01*
X18953958Y-19928924D02*
X18953958Y-19824162D01*
X18953958Y-19824162D02*
X18944435Y-19805114D01*
X18944435Y-19805114D02*
X18925387Y-19795590D01*
X18925387Y-19795590D02*
X18887292Y-19795590D01*
X18887292Y-19795590D02*
X18868244Y-19805114D01*
X18953958Y-19919400D02*
X18934911Y-19928924D01*
X18934911Y-19928924D02*
X18887292Y-19928924D01*
X18887292Y-19928924D02*
X18868244Y-19919400D01*
X18868244Y-19919400D02*
X18858720Y-19900352D01*
X18858720Y-19900352D02*
X18858720Y-19881305D01*
X18858720Y-19881305D02*
X18868244Y-19862257D01*
X18868244Y-19862257D02*
X18887292Y-19852733D01*
X18887292Y-19852733D02*
X18934911Y-19852733D01*
X18934911Y-19852733D02*
X18953958Y-19843210D01*
X19020625Y-19795590D02*
X19096815Y-19795590D01*
X19049196Y-19728924D02*
X19049196Y-19900352D01*
X19049196Y-19900352D02*
X19058720Y-19919400D01*
X19058720Y-19919400D02*
X19077768Y-19928924D01*
X19077768Y-19928924D02*
X19096815Y-19928924D01*
X19239673Y-19919400D02*
X19220625Y-19928924D01*
X19220625Y-19928924D02*
X19182530Y-19928924D01*
X19182530Y-19928924D02*
X19163482Y-19919400D01*
X19163482Y-19919400D02*
X19153958Y-19900352D01*
X19153958Y-19900352D02*
X19153958Y-19824162D01*
X19153958Y-19824162D02*
X19163482Y-19805114D01*
X19163482Y-19805114D02*
X19182530Y-19795590D01*
X19182530Y-19795590D02*
X19220625Y-19795590D01*
X19220625Y-19795590D02*
X19239673Y-19805114D01*
X19239673Y-19805114D02*
X19249196Y-19824162D01*
X19249196Y-19824162D02*
X19249196Y-19843210D01*
X19249196Y-19843210D02*
X19153958Y-19862257D01*
X19420625Y-19928924D02*
X19420625Y-19728924D01*
X19420625Y-19919400D02*
X19401577Y-19928924D01*
X19401577Y-19928924D02*
X19363482Y-19928924D01*
X19363482Y-19928924D02*
X19344435Y-19919400D01*
X19344435Y-19919400D02*
X19334911Y-19909876D01*
X19334911Y-19909876D02*
X19325387Y-19890829D01*
X19325387Y-19890829D02*
X19325387Y-19833686D01*
X19325387Y-19833686D02*
X19334911Y-19814638D01*
X19334911Y-19814638D02*
X19344435Y-19805114D01*
X19344435Y-19805114D02*
X19363482Y-19795590D01*
X19363482Y-19795590D02*
X19401577Y-19795590D01*
X19401577Y-19795590D02*
X19420625Y-19805114D01*
X19496816Y-20005114D02*
X19506339Y-19995590D01*
X19506339Y-19995590D02*
X19525387Y-19967019D01*
X19525387Y-19967019D02*
X19534911Y-19947971D01*
X19534911Y-19947971D02*
X19544435Y-19919400D01*
X19544435Y-19919400D02*
X19553958Y-19871781D01*
X19553958Y-19871781D02*
X19553958Y-19833686D01*
X19553958Y-19833686D02*
X19544435Y-19786067D01*
X19544435Y-19786067D02*
X19534911Y-19757495D01*
X19534911Y-19757495D02*
X19525387Y-19738448D01*
X19525387Y-19738448D02*
X19506339Y-19709876D01*
X19506339Y-19709876D02*
X19496816Y-19700352D01*
X12740800Y-20101440D02*
G75*
G03*
X12540800Y-20101440I-100000J0D01*
G01*
X12540800Y-20101440D02*
G75*
G03*
X12740800Y-20101440I100000J0D01*
G01*
X12982529Y-19992924D02*
X13106339Y-19992924D01*
X13106339Y-19992924D02*
X13039672Y-20069114D01*
X13039672Y-20069114D02*
X13068243Y-20069114D01*
X13068243Y-20069114D02*
X13087291Y-20078638D01*
X13087291Y-20078638D02*
X13096815Y-20088162D01*
X13096815Y-20088162D02*
X13106339Y-20107210D01*
X13106339Y-20107210D02*
X13106339Y-20154829D01*
X13106339Y-20154829D02*
X13096815Y-20173876D01*
X13096815Y-20173876D02*
X13087291Y-20183400D01*
X13087291Y-20183400D02*
X13068243Y-20192924D01*
X13068243Y-20192924D02*
X13011101Y-20192924D01*
X13011101Y-20192924D02*
X12992053Y-20183400D01*
X12992053Y-20183400D02*
X12982529Y-20173876D01*
X13192053Y-20173876D02*
X13201577Y-20183400D01*
X13201577Y-20183400D02*
X13192053Y-20192924D01*
X13192053Y-20192924D02*
X13182529Y-20183400D01*
X13182529Y-20183400D02*
X13192053Y-20173876D01*
X13192053Y-20173876D02*
X13192053Y-20192924D01*
X13277767Y-20011971D02*
X13287291Y-20002448D01*
X13287291Y-20002448D02*
X13306339Y-19992924D01*
X13306339Y-19992924D02*
X13353958Y-19992924D01*
X13353958Y-19992924D02*
X13373005Y-20002448D01*
X13373005Y-20002448D02*
X13382529Y-20011971D01*
X13382529Y-20011971D02*
X13392053Y-20031019D01*
X13392053Y-20031019D02*
X13392053Y-20050067D01*
X13392053Y-20050067D02*
X13382529Y-20078638D01*
X13382529Y-20078638D02*
X13268243Y-20192924D01*
X13268243Y-20192924D02*
X13392053Y-20192924D01*
X13515862Y-19992924D02*
X13534910Y-19992924D01*
X13534910Y-19992924D02*
X13553958Y-20002448D01*
X13553958Y-20002448D02*
X13563482Y-20011971D01*
X13563482Y-20011971D02*
X13573005Y-20031019D01*
X13573005Y-20031019D02*
X13582529Y-20069114D01*
X13582529Y-20069114D02*
X13582529Y-20116733D01*
X13582529Y-20116733D02*
X13573005Y-20154829D01*
X13573005Y-20154829D02*
X13563482Y-20173876D01*
X13563482Y-20173876D02*
X13553958Y-20183400D01*
X13553958Y-20183400D02*
X13534910Y-20192924D01*
X13534910Y-20192924D02*
X13515862Y-20192924D01*
X13515862Y-20192924D02*
X13496815Y-20183400D01*
X13496815Y-20183400D02*
X13487291Y-20173876D01*
X13487291Y-20173876D02*
X13477767Y-20154829D01*
X13477767Y-20154829D02*
X13468243Y-20116733D01*
X13468243Y-20116733D02*
X13468243Y-20069114D01*
X13468243Y-20069114D02*
X13477767Y-20031019D01*
X13477767Y-20031019D02*
X13487291Y-20011971D01*
X13487291Y-20011971D02*
X13496815Y-20002448D01*
X13496815Y-20002448D02*
X13515862Y-19992924D01*
X13706339Y-19992924D02*
X13725386Y-19992924D01*
X13725386Y-19992924D02*
X13744434Y-20002448D01*
X13744434Y-20002448D02*
X13753958Y-20011971D01*
X13753958Y-20011971D02*
X13763482Y-20031019D01*
X13763482Y-20031019D02*
X13773005Y-20069114D01*
X13773005Y-20069114D02*
X13773005Y-20116733D01*
X13773005Y-20116733D02*
X13763482Y-20154829D01*
X13763482Y-20154829D02*
X13753958Y-20173876D01*
X13753958Y-20173876D02*
X13744434Y-20183400D01*
X13744434Y-20183400D02*
X13725386Y-20192924D01*
X13725386Y-20192924D02*
X13706339Y-20192924D01*
X13706339Y-20192924D02*
X13687291Y-20183400D01*
X13687291Y-20183400D02*
X13677767Y-20173876D01*
X13677767Y-20173876D02*
X13668243Y-20154829D01*
X13668243Y-20154829D02*
X13658720Y-20116733D01*
X13658720Y-20116733D02*
X13658720Y-20069114D01*
X13658720Y-20069114D02*
X13668243Y-20031019D01*
X13668243Y-20031019D02*
X13677767Y-20011971D01*
X13677767Y-20011971D02*
X13687291Y-20002448D01*
X13687291Y-20002448D02*
X13706339Y-19992924D01*
X13858720Y-20192924D02*
X13858720Y-20059590D01*
X13858720Y-20078638D02*
X13868243Y-20069114D01*
X13868243Y-20069114D02*
X13887291Y-20059590D01*
X13887291Y-20059590D02*
X13915863Y-20059590D01*
X13915863Y-20059590D02*
X13934910Y-20069114D01*
X13934910Y-20069114D02*
X13944434Y-20088162D01*
X13944434Y-20088162D02*
X13944434Y-20192924D01*
X13944434Y-20088162D02*
X13953958Y-20069114D01*
X13953958Y-20069114D02*
X13973005Y-20059590D01*
X13973005Y-20059590D02*
X14001577Y-20059590D01*
X14001577Y-20059590D02*
X14020624Y-20069114D01*
X14020624Y-20069114D02*
X14030148Y-20088162D01*
X14030148Y-20088162D02*
X14030148Y-20192924D01*
X14125386Y-20192924D02*
X14125386Y-20059590D01*
X14125386Y-20078638D02*
X14134910Y-20069114D01*
X14134910Y-20069114D02*
X14153958Y-20059590D01*
X14153958Y-20059590D02*
X14182529Y-20059590D01*
X14182529Y-20059590D02*
X14201577Y-20069114D01*
X14201577Y-20069114D02*
X14211101Y-20088162D01*
X14211101Y-20088162D02*
X14211101Y-20192924D01*
X14211101Y-20088162D02*
X14220624Y-20069114D01*
X14220624Y-20069114D02*
X14239672Y-20059590D01*
X14239672Y-20059590D02*
X14268243Y-20059590D01*
X14268243Y-20059590D02*
X14287291Y-20069114D01*
X14287291Y-20069114D02*
X14296815Y-20088162D01*
X14296815Y-20088162D02*
X14296815Y-20192924D01*
X14687291Y-19983400D02*
X14515863Y-20240543D01*
X14944434Y-19992924D02*
X14963482Y-19992924D01*
X14963482Y-19992924D02*
X14982529Y-20002448D01*
X14982529Y-20002448D02*
X14992053Y-20011971D01*
X14992053Y-20011971D02*
X15001577Y-20031019D01*
X15001577Y-20031019D02*
X15011101Y-20069114D01*
X15011101Y-20069114D02*
X15011101Y-20116733D01*
X15011101Y-20116733D02*
X15001577Y-20154829D01*
X15001577Y-20154829D02*
X14992053Y-20173876D01*
X14992053Y-20173876D02*
X14982529Y-20183400D01*
X14982529Y-20183400D02*
X14963482Y-20192924D01*
X14963482Y-20192924D02*
X14944434Y-20192924D01*
X14944434Y-20192924D02*
X14925386Y-20183400D01*
X14925386Y-20183400D02*
X14915863Y-20173876D01*
X14915863Y-20173876D02*
X14906339Y-20154829D01*
X14906339Y-20154829D02*
X14896815Y-20116733D01*
X14896815Y-20116733D02*
X14896815Y-20069114D01*
X14896815Y-20069114D02*
X14906339Y-20031019D01*
X14906339Y-20031019D02*
X14915863Y-20011971D01*
X14915863Y-20011971D02*
X14925386Y-20002448D01*
X14925386Y-20002448D02*
X14944434Y-19992924D01*
X15096815Y-20173876D02*
X15106339Y-20183400D01*
X15106339Y-20183400D02*
X15096815Y-20192924D01*
X15096815Y-20192924D02*
X15087291Y-20183400D01*
X15087291Y-20183400D02*
X15096815Y-20173876D01*
X15096815Y-20173876D02*
X15096815Y-20192924D01*
X15296815Y-20192924D02*
X15182529Y-20192924D01*
X15239672Y-20192924D02*
X15239672Y-19992924D01*
X15239672Y-19992924D02*
X15220625Y-20021495D01*
X15220625Y-20021495D02*
X15201577Y-20040543D01*
X15201577Y-20040543D02*
X15182529Y-20050067D01*
X15373006Y-20011971D02*
X15382529Y-20002448D01*
X15382529Y-20002448D02*
X15401577Y-19992924D01*
X15401577Y-19992924D02*
X15449196Y-19992924D01*
X15449196Y-19992924D02*
X15468244Y-20002448D01*
X15468244Y-20002448D02*
X15477767Y-20011971D01*
X15477767Y-20011971D02*
X15487291Y-20031019D01*
X15487291Y-20031019D02*
X15487291Y-20050067D01*
X15487291Y-20050067D02*
X15477767Y-20078638D01*
X15477767Y-20078638D02*
X15363482Y-20192924D01*
X15363482Y-20192924D02*
X15487291Y-20192924D01*
X15658720Y-19992924D02*
X15620625Y-19992924D01*
X15620625Y-19992924D02*
X15601577Y-20002448D01*
X15601577Y-20002448D02*
X15592053Y-20011971D01*
X15592053Y-20011971D02*
X15573006Y-20040543D01*
X15573006Y-20040543D02*
X15563482Y-20078638D01*
X15563482Y-20078638D02*
X15563482Y-20154829D01*
X15563482Y-20154829D02*
X15573006Y-20173876D01*
X15573006Y-20173876D02*
X15582529Y-20183400D01*
X15582529Y-20183400D02*
X15601577Y-20192924D01*
X15601577Y-20192924D02*
X15639672Y-20192924D01*
X15639672Y-20192924D02*
X15658720Y-20183400D01*
X15658720Y-20183400D02*
X15668244Y-20173876D01*
X15668244Y-20173876D02*
X15677767Y-20154829D01*
X15677767Y-20154829D02*
X15677767Y-20107210D01*
X15677767Y-20107210D02*
X15668244Y-20088162D01*
X15668244Y-20088162D02*
X15658720Y-20078638D01*
X15658720Y-20078638D02*
X15639672Y-20069114D01*
X15639672Y-20069114D02*
X15601577Y-20069114D01*
X15601577Y-20069114D02*
X15582529Y-20078638D01*
X15582529Y-20078638D02*
X15573006Y-20088162D01*
X15573006Y-20088162D02*
X15563482Y-20107210D01*
X15801577Y-19992924D02*
X15820625Y-19992924D01*
X15820625Y-19992924D02*
X15839672Y-20002448D01*
X15839672Y-20002448D02*
X15849196Y-20011971D01*
X15849196Y-20011971D02*
X15858720Y-20031019D01*
X15858720Y-20031019D02*
X15868244Y-20069114D01*
X15868244Y-20069114D02*
X15868244Y-20116733D01*
X15868244Y-20116733D02*
X15858720Y-20154829D01*
X15858720Y-20154829D02*
X15849196Y-20173876D01*
X15849196Y-20173876D02*
X15839672Y-20183400D01*
X15839672Y-20183400D02*
X15820625Y-20192924D01*
X15820625Y-20192924D02*
X15801577Y-20192924D01*
X15801577Y-20192924D02*
X15782529Y-20183400D01*
X15782529Y-20183400D02*
X15773006Y-20173876D01*
X15773006Y-20173876D02*
X15763482Y-20154829D01*
X15763482Y-20154829D02*
X15753958Y-20116733D01*
X15753958Y-20116733D02*
X15753958Y-20069114D01*
X15753958Y-20069114D02*
X15763482Y-20031019D01*
X15763482Y-20031019D02*
X15773006Y-20011971D01*
X15773006Y-20011971D02*
X15782529Y-20002448D01*
X15782529Y-20002448D02*
X15801577Y-19992924D01*
X15944434Y-19992924D02*
X15944434Y-20031019D01*
X16020625Y-19992924D02*
X16020625Y-20031019D01*
X16315863Y-20269114D02*
X16306339Y-20259590D01*
X16306339Y-20259590D02*
X16287291Y-20231019D01*
X16287291Y-20231019D02*
X16277768Y-20211971D01*
X16277768Y-20211971D02*
X16268244Y-20183400D01*
X16268244Y-20183400D02*
X16258720Y-20135781D01*
X16258720Y-20135781D02*
X16258720Y-20097686D01*
X16258720Y-20097686D02*
X16268244Y-20050067D01*
X16268244Y-20050067D02*
X16277768Y-20021495D01*
X16277768Y-20021495D02*
X16287291Y-20002448D01*
X16287291Y-20002448D02*
X16306339Y-19973876D01*
X16306339Y-19973876D02*
X16315863Y-19964352D01*
X16477768Y-20059590D02*
X16477768Y-20192924D01*
X16430148Y-19983400D02*
X16382529Y-20126257D01*
X16382529Y-20126257D02*
X16506339Y-20126257D01*
X16734910Y-20192924D02*
X16734910Y-19992924D01*
X16820625Y-20192924D02*
X16820625Y-20088162D01*
X16820625Y-20088162D02*
X16811101Y-20069114D01*
X16811101Y-20069114D02*
X16792053Y-20059590D01*
X16792053Y-20059590D02*
X16763482Y-20059590D01*
X16763482Y-20059590D02*
X16744434Y-20069114D01*
X16744434Y-20069114D02*
X16734910Y-20078638D01*
X16944434Y-20192924D02*
X16925387Y-20183400D01*
X16925387Y-20183400D02*
X16915863Y-20173876D01*
X16915863Y-20173876D02*
X16906339Y-20154829D01*
X16906339Y-20154829D02*
X16906339Y-20097686D01*
X16906339Y-20097686D02*
X16915863Y-20078638D01*
X16915863Y-20078638D02*
X16925387Y-20069114D01*
X16925387Y-20069114D02*
X16944434Y-20059590D01*
X16944434Y-20059590D02*
X16973006Y-20059590D01*
X16973006Y-20059590D02*
X16992053Y-20069114D01*
X16992053Y-20069114D02*
X17001577Y-20078638D01*
X17001577Y-20078638D02*
X17011101Y-20097686D01*
X17011101Y-20097686D02*
X17011101Y-20154829D01*
X17011101Y-20154829D02*
X17001577Y-20173876D01*
X17001577Y-20173876D02*
X16992053Y-20183400D01*
X16992053Y-20183400D02*
X16973006Y-20192924D01*
X16973006Y-20192924D02*
X16944434Y-20192924D01*
X17125387Y-20192924D02*
X17106339Y-20183400D01*
X17106339Y-20183400D02*
X17096815Y-20164352D01*
X17096815Y-20164352D02*
X17096815Y-19992924D01*
X17277768Y-20183400D02*
X17258720Y-20192924D01*
X17258720Y-20192924D02*
X17220625Y-20192924D01*
X17220625Y-20192924D02*
X17201577Y-20183400D01*
X17201577Y-20183400D02*
X17192053Y-20164352D01*
X17192053Y-20164352D02*
X17192053Y-20088162D01*
X17192053Y-20088162D02*
X17201577Y-20069114D01*
X17201577Y-20069114D02*
X17220625Y-20059590D01*
X17220625Y-20059590D02*
X17258720Y-20059590D01*
X17258720Y-20059590D02*
X17277768Y-20069114D01*
X17277768Y-20069114D02*
X17287292Y-20088162D01*
X17287292Y-20088162D02*
X17287292Y-20107210D01*
X17287292Y-20107210D02*
X17192053Y-20126257D01*
X17363482Y-20183400D02*
X17382530Y-20192924D01*
X17382530Y-20192924D02*
X17420625Y-20192924D01*
X17420625Y-20192924D02*
X17439673Y-20183400D01*
X17439673Y-20183400D02*
X17449196Y-20164352D01*
X17449196Y-20164352D02*
X17449196Y-20154829D01*
X17449196Y-20154829D02*
X17439673Y-20135781D01*
X17439673Y-20135781D02*
X17420625Y-20126257D01*
X17420625Y-20126257D02*
X17392053Y-20126257D01*
X17392053Y-20126257D02*
X17373006Y-20116733D01*
X17373006Y-20116733D02*
X17363482Y-20097686D01*
X17363482Y-20097686D02*
X17363482Y-20088162D01*
X17363482Y-20088162D02*
X17373006Y-20069114D01*
X17373006Y-20069114D02*
X17392053Y-20059590D01*
X17392053Y-20059590D02*
X17420625Y-20059590D01*
X17420625Y-20059590D02*
X17439673Y-20069114D01*
X17515863Y-20269114D02*
X17525387Y-20259590D01*
X17525387Y-20259590D02*
X17544434Y-20231019D01*
X17544434Y-20231019D02*
X17553958Y-20211971D01*
X17553958Y-20211971D02*
X17563482Y-20183400D01*
X17563482Y-20183400D02*
X17573006Y-20135781D01*
X17573006Y-20135781D02*
X17573006Y-20097686D01*
X17573006Y-20097686D02*
X17563482Y-20050067D01*
X17563482Y-20050067D02*
X17553958Y-20021495D01*
X17553958Y-20021495D02*
X17544434Y-20002448D01*
X17544434Y-20002448D02*
X17525387Y-19973876D01*
X17525387Y-19973876D02*
X17515863Y-19964352D01*
X17877768Y-20269114D02*
X17868244Y-20259590D01*
X17868244Y-20259590D02*
X17849196Y-20231019D01*
X17849196Y-20231019D02*
X17839673Y-20211971D01*
X17839673Y-20211971D02*
X17830149Y-20183400D01*
X17830149Y-20183400D02*
X17820625Y-20135781D01*
X17820625Y-20135781D02*
X17820625Y-20097686D01*
X17820625Y-20097686D02*
X17830149Y-20050067D01*
X17830149Y-20050067D02*
X17839673Y-20021495D01*
X17839673Y-20021495D02*
X17849196Y-20002448D01*
X17849196Y-20002448D02*
X17868244Y-19973876D01*
X17868244Y-19973876D02*
X17877768Y-19964352D01*
X17953958Y-20059590D02*
X17953958Y-20192924D01*
X17953958Y-20078638D02*
X17963482Y-20069114D01*
X17963482Y-20069114D02*
X17982530Y-20059590D01*
X17982530Y-20059590D02*
X18011101Y-20059590D01*
X18011101Y-20059590D02*
X18030149Y-20069114D01*
X18030149Y-20069114D02*
X18039673Y-20088162D01*
X18039673Y-20088162D02*
X18039673Y-20192924D01*
X18163482Y-20192924D02*
X18144434Y-20183400D01*
X18144434Y-20183400D02*
X18134911Y-20173876D01*
X18134911Y-20173876D02*
X18125387Y-20154829D01*
X18125387Y-20154829D02*
X18125387Y-20097686D01*
X18125387Y-20097686D02*
X18134911Y-20078638D01*
X18134911Y-20078638D02*
X18144434Y-20069114D01*
X18144434Y-20069114D02*
X18163482Y-20059590D01*
X18163482Y-20059590D02*
X18192054Y-20059590D01*
X18192054Y-20059590D02*
X18211101Y-20069114D01*
X18211101Y-20069114D02*
X18220625Y-20078638D01*
X18220625Y-20078638D02*
X18230149Y-20097686D01*
X18230149Y-20097686D02*
X18230149Y-20154829D01*
X18230149Y-20154829D02*
X18220625Y-20173876D01*
X18220625Y-20173876D02*
X18211101Y-20183400D01*
X18211101Y-20183400D02*
X18192054Y-20192924D01*
X18192054Y-20192924D02*
X18163482Y-20192924D01*
X18287292Y-20059590D02*
X18363482Y-20059590D01*
X18315863Y-19992924D02*
X18315863Y-20164352D01*
X18315863Y-20164352D02*
X18325387Y-20183400D01*
X18325387Y-20183400D02*
X18344434Y-20192924D01*
X18344434Y-20192924D02*
X18363482Y-20192924D01*
X18582530Y-20059590D02*
X18582530Y-20259590D01*
X18582530Y-20069114D02*
X18601577Y-20059590D01*
X18601577Y-20059590D02*
X18639673Y-20059590D01*
X18639673Y-20059590D02*
X18658720Y-20069114D01*
X18658720Y-20069114D02*
X18668244Y-20078638D01*
X18668244Y-20078638D02*
X18677768Y-20097686D01*
X18677768Y-20097686D02*
X18677768Y-20154829D01*
X18677768Y-20154829D02*
X18668244Y-20173876D01*
X18668244Y-20173876D02*
X18658720Y-20183400D01*
X18658720Y-20183400D02*
X18639673Y-20192924D01*
X18639673Y-20192924D02*
X18601577Y-20192924D01*
X18601577Y-20192924D02*
X18582530Y-20183400D01*
X18792054Y-20192924D02*
X18773006Y-20183400D01*
X18773006Y-20183400D02*
X18763482Y-20164352D01*
X18763482Y-20164352D02*
X18763482Y-19992924D01*
X18953958Y-20192924D02*
X18953958Y-20088162D01*
X18953958Y-20088162D02*
X18944435Y-20069114D01*
X18944435Y-20069114D02*
X18925387Y-20059590D01*
X18925387Y-20059590D02*
X18887292Y-20059590D01*
X18887292Y-20059590D02*
X18868244Y-20069114D01*
X18953958Y-20183400D02*
X18934911Y-20192924D01*
X18934911Y-20192924D02*
X18887292Y-20192924D01*
X18887292Y-20192924D02*
X18868244Y-20183400D01*
X18868244Y-20183400D02*
X18858720Y-20164352D01*
X18858720Y-20164352D02*
X18858720Y-20145305D01*
X18858720Y-20145305D02*
X18868244Y-20126257D01*
X18868244Y-20126257D02*
X18887292Y-20116733D01*
X18887292Y-20116733D02*
X18934911Y-20116733D01*
X18934911Y-20116733D02*
X18953958Y-20107210D01*
X19020625Y-20059590D02*
X19096815Y-20059590D01*
X19049196Y-19992924D02*
X19049196Y-20164352D01*
X19049196Y-20164352D02*
X19058720Y-20183400D01*
X19058720Y-20183400D02*
X19077768Y-20192924D01*
X19077768Y-20192924D02*
X19096815Y-20192924D01*
X19239673Y-20183400D02*
X19220625Y-20192924D01*
X19220625Y-20192924D02*
X19182530Y-20192924D01*
X19182530Y-20192924D02*
X19163482Y-20183400D01*
X19163482Y-20183400D02*
X19153958Y-20164352D01*
X19153958Y-20164352D02*
X19153958Y-20088162D01*
X19153958Y-20088162D02*
X19163482Y-20069114D01*
X19163482Y-20069114D02*
X19182530Y-20059590D01*
X19182530Y-20059590D02*
X19220625Y-20059590D01*
X19220625Y-20059590D02*
X19239673Y-20069114D01*
X19239673Y-20069114D02*
X19249196Y-20088162D01*
X19249196Y-20088162D02*
X19249196Y-20107210D01*
X19249196Y-20107210D02*
X19153958Y-20126257D01*
X19420625Y-20192924D02*
X19420625Y-19992924D01*
X19420625Y-20183400D02*
X19401577Y-20192924D01*
X19401577Y-20192924D02*
X19363482Y-20192924D01*
X19363482Y-20192924D02*
X19344435Y-20183400D01*
X19344435Y-20183400D02*
X19334911Y-20173876D01*
X19334911Y-20173876D02*
X19325387Y-20154829D01*
X19325387Y-20154829D02*
X19325387Y-20097686D01*
X19325387Y-20097686D02*
X19334911Y-20078638D01*
X19334911Y-20078638D02*
X19344435Y-20069114D01*
X19344435Y-20069114D02*
X19363482Y-20059590D01*
X19363482Y-20059590D02*
X19401577Y-20059590D01*
X19401577Y-20059590D02*
X19420625Y-20069114D01*
X19496816Y-20269114D02*
X19506339Y-20259590D01*
X19506339Y-20259590D02*
X19525387Y-20231019D01*
X19525387Y-20231019D02*
X19534911Y-20211971D01*
X19534911Y-20211971D02*
X19544435Y-20183400D01*
X19544435Y-20183400D02*
X19553958Y-20135781D01*
X19553958Y-20135781D02*
X19553958Y-20097686D01*
X19553958Y-20097686D02*
X19544435Y-20050067D01*
X19544435Y-20050067D02*
X19534911Y-20021495D01*
X19534911Y-20021495D02*
X19525387Y-20002448D01*
X19525387Y-20002448D02*
X19506339Y-19973876D01*
X19506339Y-19973876D02*
X19496816Y-19964352D01*
M02*
