G04 #@! TF.GenerationSoftware,KiCad,Pcbnew,7.0.10*
G04 #@! TF.CreationDate,2024-11-08T18:22:10-05:00*
G04 #@! TF.ProjectId,Sensify Main Board,53656e73-6966-4792-904d-61696e20426f,rev?*
G04 #@! TF.SameCoordinates,Original*
G04 #@! TF.FileFunction,Copper,L4,Bot*
G04 #@! TF.FilePolarity,Positive*
%FSLAX46Y46*%
G04 Gerber Fmt 4.6, Leading zero omitted, Abs format (unit mm)*
G04 Created by KiCad (PCBNEW 7.0.10) date 2024-11-08 18:22:10*
%MOMM*%
%LPD*%
G01*
G04 APERTURE LIST*
G04 Aperture macros list*
%AMRoundRect*
0 Rectangle with rounded corners*
0 $1 Rounding radius*
0 $2 $3 $4 $5 $6 $7 $8 $9 X,Y pos of 4 corners*
0 Add a 4 corners polygon primitive as box body*
4,1,4,$2,$3,$4,$5,$6,$7,$8,$9,$2,$3,0*
0 Add four circle primitives for the rounded corners*
1,1,$1+$1,$2,$3*
1,1,$1+$1,$4,$5*
1,1,$1+$1,$6,$7*
1,1,$1+$1,$8,$9*
0 Add four rect primitives between the rounded corners*
20,1,$1+$1,$2,$3,$4,$5,0*
20,1,$1+$1,$4,$5,$6,$7,0*
20,1,$1+$1,$6,$7,$8,$9,0*
20,1,$1+$1,$8,$9,$2,$3,0*%
G04 Aperture macros list end*
G04 #@! TA.AperFunction,ComponentPad*
%ADD10C,0.609600*%
G04 #@! TD*
G04 #@! TA.AperFunction,ComponentPad*
%ADD11C,2.025000*%
G04 #@! TD*
G04 #@! TA.AperFunction,ComponentPad*
%ADD12R,1.498000X1.498000*%
G04 #@! TD*
G04 #@! TA.AperFunction,ComponentPad*
%ADD13C,1.498000*%
G04 #@! TD*
G04 #@! TA.AperFunction,ComponentPad*
%ADD14RoundRect,0.250000X0.750000X-0.600000X0.750000X0.600000X-0.750000X0.600000X-0.750000X-0.600000X0*%
G04 #@! TD*
G04 #@! TA.AperFunction,ComponentPad*
%ADD15O,2.000000X1.700000*%
G04 #@! TD*
G04 #@! TA.AperFunction,ComponentPad*
%ADD16R,1.600200X1.600200*%
G04 #@! TD*
G04 #@! TA.AperFunction,ComponentPad*
%ADD17C,1.600200*%
G04 #@! TD*
G04 #@! TA.AperFunction,ComponentPad*
%ADD18C,1.950000*%
G04 #@! TD*
G04 #@! TA.AperFunction,ComponentPad*
%ADD19O,2.150000X1.050000*%
G04 #@! TD*
G04 #@! TA.AperFunction,ComponentPad*
%ADD20O,1.850000X1.050000*%
G04 #@! TD*
G04 #@! TA.AperFunction,SMDPad,CuDef*
%ADD21RoundRect,0.075000X-0.225000X0.540000X-0.225000X-0.540000X0.225000X-0.540000X0.225000X0.540000X0*%
G04 #@! TD*
G04 #@! TA.AperFunction,SMDPad,CuDef*
%ADD22R,1.498600X0.889000*%
G04 #@! TD*
G04 #@! TA.AperFunction,SMDPad,CuDef*
%ADD23R,0.889000X1.498600*%
G04 #@! TD*
G04 #@! TA.AperFunction,SMDPad,CuDef*
%ADD24R,0.889000X0.889000*%
G04 #@! TD*
G04 #@! TA.AperFunction,SMDPad,CuDef*
%ADD25RoundRect,0.160000X0.197500X0.160000X-0.197500X0.160000X-0.197500X-0.160000X0.197500X-0.160000X0*%
G04 #@! TD*
G04 #@! TA.AperFunction,SMDPad,CuDef*
%ADD26RoundRect,0.155000X0.212500X0.155000X-0.212500X0.155000X-0.212500X-0.155000X0.212500X-0.155000X0*%
G04 #@! TD*
G04 #@! TA.AperFunction,ViaPad*
%ADD27C,0.800000*%
G04 #@! TD*
G04 #@! TA.AperFunction,ViaPad*
%ADD28C,0.460000*%
G04 #@! TD*
G04 #@! TA.AperFunction,Conductor*
%ADD29C,0.250000*%
G04 #@! TD*
G04 #@! TA.AperFunction,Conductor*
%ADD30C,0.177800*%
G04 #@! TD*
G04 #@! TA.AperFunction,Conductor*
%ADD31C,1.000000*%
G04 #@! TD*
G04 #@! TA.AperFunction,Conductor*
%ADD32C,0.500000*%
G04 #@! TD*
G04 APERTURE END LIST*
D10*
X136741000Y-150457000D03*
X138341000Y-150457000D03*
X136741000Y-152057000D03*
X138341000Y-152057000D03*
X137541000Y-151257000D03*
D11*
X150170000Y-172092000D03*
X153670000Y-177292000D03*
D12*
X150617800Y-117345600D03*
D13*
X150617800Y-110845600D03*
X155117800Y-117345600D03*
X155117800Y-110845600D03*
D14*
X156441200Y-101326000D03*
D15*
X156441200Y-98826000D03*
D14*
X156413200Y-67625600D03*
D15*
X156413200Y-65125600D03*
D14*
X156413200Y-76222512D03*
D15*
X156413200Y-73722512D03*
D16*
X130556000Y-145923000D03*
D17*
X130556000Y-143383000D03*
X130556000Y-140843000D03*
D12*
X128814000Y-106908600D03*
D13*
X128814000Y-100408600D03*
X133314000Y-106908600D03*
X133314000Y-100408600D03*
D18*
X133660000Y-172092000D03*
X137160000Y-177292000D03*
X140660000Y-172092000D03*
D19*
X134713600Y-111990900D03*
X134713600Y-120630900D03*
D20*
X130563600Y-111990900D03*
X130563600Y-120630900D03*
D14*
X156438600Y-84847712D03*
D15*
X156438600Y-82347712D03*
D21*
X134305000Y-162091000D03*
X136205000Y-162091000D03*
X135255000Y-164211000D03*
D22*
X152031400Y-70530400D03*
X152031400Y-71800400D03*
X152031400Y-73070400D03*
X152031400Y-74340400D03*
X152031400Y-75610400D03*
X152031400Y-76880400D03*
X152031400Y-78150400D03*
X152031400Y-79420400D03*
X152031400Y-80690400D03*
X152031400Y-81960400D03*
X152031400Y-83230400D03*
X152031400Y-84500400D03*
X152031400Y-85770400D03*
X152031400Y-87040400D03*
D23*
X148996400Y-88290400D03*
X147726400Y-88290400D03*
X146456400Y-88290400D03*
X145186400Y-88290400D03*
X143916400Y-88290400D03*
X142646400Y-88290400D03*
X141376400Y-88290400D03*
X140106400Y-88290400D03*
X138836400Y-88290400D03*
X137566400Y-88290400D03*
D22*
X134531400Y-87040400D03*
X134531400Y-85770400D03*
X134531400Y-84500400D03*
X134531400Y-83230400D03*
X134531400Y-81960400D03*
X134531400Y-80690400D03*
X134531400Y-79420400D03*
X134531400Y-78150400D03*
X134531400Y-76880400D03*
X134531400Y-75610400D03*
X134531400Y-74340400D03*
X134531400Y-73070400D03*
X134531400Y-71800400D03*
X134531400Y-70530400D03*
D24*
X144781400Y-78250400D03*
X146181400Y-76850400D03*
X146181400Y-78250400D03*
X146181400Y-79650400D03*
X144781400Y-79650400D03*
X143381400Y-79650400D03*
X143381400Y-78250400D03*
X143381400Y-76850400D03*
X144781400Y-76850400D03*
D25*
X143256000Y-150533000D03*
X142061000Y-150533000D03*
D26*
X138773000Y-153200000D03*
X137638000Y-153200000D03*
D27*
X150114000Y-137972800D03*
X157353000Y-122097800D03*
X151028400Y-120167400D03*
D28*
X150876000Y-70535800D03*
D27*
X151056300Y-144526000D03*
X149504400Y-121996200D03*
X139649200Y-145846800D03*
D28*
X152044400Y-62458600D03*
D27*
X138633200Y-125831600D03*
X152806400Y-122021600D03*
D28*
X138963400Y-119735600D03*
D27*
X153619200Y-152806400D03*
X138684000Y-127101600D03*
X135001000Y-156845000D03*
D28*
X147878800Y-71932800D03*
X145186400Y-115468400D03*
D27*
X138684000Y-128397000D03*
D28*
X145491200Y-76123800D03*
X148539200Y-62458600D03*
D27*
X135331200Y-145440400D03*
X134010400Y-124714000D03*
X143129000Y-148899453D03*
X148590000Y-164084000D03*
X155244800Y-150571200D03*
D28*
X141169400Y-122047000D03*
D27*
X149377400Y-120142000D03*
D28*
X148539200Y-80721200D03*
D27*
X142290800Y-141681200D03*
D28*
X145211800Y-117094000D03*
X151790400Y-96901000D03*
D27*
X130810000Y-123494800D03*
D28*
X146735800Y-75514200D03*
X146837400Y-100558600D03*
D27*
X154686000Y-140868400D03*
X152679400Y-120167400D03*
X151130000Y-123977400D03*
X152781000Y-123977400D03*
D28*
X145135600Y-93954600D03*
D27*
X154279600Y-134569200D03*
D28*
X149021800Y-89916000D03*
X145948400Y-105587800D03*
X148590000Y-96977200D03*
D27*
X138480800Y-164592000D03*
D28*
X134975600Y-69240400D03*
D27*
X131521200Y-149453600D03*
D28*
X129844800Y-66268600D03*
X128270000Y-88747600D03*
X153187400Y-69265800D03*
X146685000Y-84251800D03*
D27*
X145923000Y-177317400D03*
X156210000Y-146253200D03*
D28*
X146685000Y-66827400D03*
X145821400Y-122072400D03*
D27*
X151155400Y-122021600D03*
X148945600Y-117297200D03*
D28*
X137566400Y-101727000D03*
X144043400Y-76098400D03*
D27*
X132181600Y-133248400D03*
X149479000Y-123952000D03*
D28*
X138226800Y-91998800D03*
D27*
X143411007Y-157588866D03*
D28*
X138226800Y-103276400D03*
D27*
X142240000Y-155194000D03*
X142900400Y-145084800D03*
X157784800Y-151282400D03*
X147828000Y-139192000D03*
X155956000Y-142113000D03*
X140043000Y-153962000D03*
X145796000Y-125171200D03*
D28*
X153873200Y-64033400D03*
X153822400Y-84790412D03*
X153847800Y-67564000D03*
X132892800Y-69291200D03*
X153873200Y-101070900D03*
X152730200Y-96875600D03*
X153466800Y-71907400D03*
X153873200Y-76057356D03*
X153390600Y-81330800D03*
D27*
X155549600Y-132029200D03*
D28*
X150785300Y-71805800D03*
X143365999Y-92964000D03*
X144500997Y-120878600D03*
D27*
X144780000Y-161239200D03*
D28*
X137947400Y-117500400D03*
X141146714Y-112845026D03*
X138938000Y-71932800D03*
X139686599Y-93005900D03*
X145618200Y-95631000D03*
X147066000Y-105587800D03*
X132892800Y-85445600D03*
X134975600Y-101346000D03*
X142328199Y-99457500D03*
D27*
X153974800Y-107950000D03*
D28*
X134594600Y-89433400D03*
D27*
X143549700Y-158726900D03*
X138938000Y-158496000D03*
X132334000Y-162179000D03*
D28*
X136474200Y-118745000D03*
X136499600Y-120624600D03*
X130403600Y-110845600D03*
X136474200Y-113919000D03*
X128905000Y-75234800D03*
X128549400Y-77190600D03*
X128981200Y-80000000D03*
X129565400Y-82321400D03*
X130274014Y-83709047D03*
X131114800Y-85140800D03*
X149214100Y-82321400D03*
X139039600Y-81915000D03*
X150770800Y-81965800D03*
X150799800Y-83261200D03*
X148767800Y-86131400D03*
X135991600Y-80670400D03*
X135915400Y-83185000D03*
X150770800Y-86893400D03*
X146863592Y-87111098D03*
X146989800Y-80619600D03*
X150770800Y-80670400D03*
X137261600Y-81940400D03*
D27*
X144272000Y-150533000D03*
D28*
X141503400Y-110972600D03*
X145415000Y-111379000D03*
X140436600Y-109855000D03*
X143535400Y-110413800D03*
D27*
X149024300Y-141478000D03*
X145341300Y-140970000D03*
D28*
X141478000Y-73863200D03*
X142657300Y-82575400D03*
X137236200Y-71907400D03*
X136169400Y-84759800D03*
D27*
X142566248Y-152399166D03*
D28*
X150266400Y-66929000D03*
X138938000Y-97942400D03*
X150251900Y-76123800D03*
X150251900Y-83769200D03*
X140639800Y-72466200D03*
X138887200Y-83134200D03*
X150368000Y-101041200D03*
X138988800Y-96215200D03*
X136575800Y-73101200D03*
X149733000Y-74523600D03*
X144119600Y-73101200D03*
D27*
X141567000Y-152438000D03*
D28*
X149733000Y-83286600D03*
X149733000Y-65000000D03*
X149402800Y-99542600D03*
X136677400Y-86715600D03*
X137464800Y-76361500D03*
X142646400Y-107619800D03*
X142824200Y-90551000D03*
X135813800Y-74345800D03*
X141630400Y-107594400D03*
X140995400Y-90043000D03*
X135813800Y-75615800D03*
X146166100Y-73837800D03*
X145618200Y-97459800D03*
X138887200Y-89865200D03*
D29*
X138480800Y-164541200D02*
X138480800Y-164592000D01*
D30*
X146181400Y-78250400D02*
X146181400Y-76850400D01*
X134531400Y-69684600D02*
X134975600Y-69240400D01*
X150876000Y-70535800D02*
X152026000Y-70535800D01*
X145491200Y-76140600D02*
X144781400Y-76850400D01*
X144781400Y-79650400D02*
X144781400Y-78250400D01*
X148996400Y-88290400D02*
X148996400Y-89890600D01*
X143381400Y-76850400D02*
X144781400Y-76850400D01*
X144781400Y-76836400D02*
X144043400Y-76098400D01*
X146181400Y-79650400D02*
X146181400Y-78250400D01*
X146181400Y-76850400D02*
X146181400Y-76814000D01*
X143381400Y-79650400D02*
X144781400Y-79650400D01*
D29*
X138480800Y-164592000D02*
X138531600Y-164592000D01*
D30*
X143381400Y-78250400D02*
X143381400Y-76850400D01*
D29*
X135255000Y-164211000D02*
X138150600Y-164211000D01*
D30*
X144781400Y-76850400D02*
X146181400Y-76850400D01*
D29*
X137638000Y-153200000D02*
X137638000Y-154208000D01*
D30*
X143381400Y-79650400D02*
X143381400Y-78250400D01*
D29*
X142061000Y-149967453D02*
X142061000Y-150533000D01*
D30*
X145491200Y-76123800D02*
X145491200Y-76140600D01*
D29*
X138531600Y-164592000D02*
X138430000Y-164490400D01*
D30*
X148996400Y-89890600D02*
X149021800Y-89916000D01*
X144043400Y-76188400D02*
X143381400Y-76850400D01*
X146181400Y-76814000D02*
X145491200Y-76123800D01*
X144781400Y-76850400D02*
X144781400Y-76836400D01*
D29*
X137638000Y-154208000D02*
X135001000Y-156845000D01*
D30*
X144043400Y-76098400D02*
X144043400Y-76188400D01*
X146181400Y-78250400D02*
X144781400Y-78250400D01*
X152026000Y-70535800D02*
X152031400Y-70530400D01*
X143381400Y-78250400D02*
X144781400Y-78250400D01*
X144781400Y-78250400D02*
X144781400Y-76850400D01*
D29*
X143129000Y-148899453D02*
X142061000Y-149967453D01*
D30*
X144781400Y-79650400D02*
X146181400Y-79650400D01*
X134531400Y-70530400D02*
X134531400Y-69684600D01*
D29*
X138150600Y-164211000D02*
X138480800Y-164541200D01*
X140766800Y-152274196D02*
X140766800Y-153720800D01*
X143411007Y-157588866D02*
X142240000Y-156417859D01*
X140766800Y-153720800D02*
X142240000Y-155194000D01*
X142240000Y-156417859D02*
X142240000Y-155194000D01*
X138226800Y-91998800D02*
X137566400Y-91338400D01*
X138226800Y-110614485D02*
X140614400Y-113002085D01*
X139693400Y-151200796D02*
X140766800Y-152274196D01*
X140614400Y-113002085D02*
X140614400Y-146166299D01*
X140614400Y-146166299D02*
X139693400Y-147087299D01*
X137566400Y-91338400D02*
X137566400Y-88290400D01*
X138226800Y-103276400D02*
X138226800Y-110614485D01*
X139693400Y-147087299D02*
X139693400Y-151200796D01*
D31*
X149707600Y-152694400D02*
X150170000Y-153156800D01*
X149707600Y-151892000D02*
X149707600Y-152694400D01*
X142900400Y-145084800D02*
X149707600Y-151892000D01*
X157784800Y-151282400D02*
X157378400Y-151688800D01*
X157378400Y-151688800D02*
X151638000Y-151688800D01*
X150170000Y-153156800D02*
X150170000Y-172092000D01*
X151638000Y-151688800D02*
X150571200Y-152755600D01*
X150571200Y-152755600D02*
X150170000Y-153156800D01*
D29*
X147828000Y-139192000D02*
X147955000Y-139192000D01*
X150876000Y-142113000D02*
X155956000Y-142113000D01*
X147955000Y-139192000D02*
X150876000Y-142113000D01*
X139535000Y-153962000D02*
X138773000Y-153200000D01*
X140043000Y-153962000D02*
X139535000Y-153962000D01*
D30*
X150790700Y-71800400D02*
X152031400Y-71800400D01*
X150785300Y-71805800D02*
X150790700Y-71800400D01*
X154519097Y-107405703D02*
X154519097Y-97394497D01*
X152222200Y-95097600D02*
X152222200Y-90703400D01*
X153974800Y-107950000D02*
X154519097Y-107405703D01*
X154519097Y-97394497D02*
X152222200Y-95097600D01*
X152958500Y-73070400D02*
X152031400Y-73070400D01*
X154519097Y-88406503D02*
X154519097Y-74630997D01*
X154519097Y-74630997D02*
X152958500Y-73070400D01*
X152222200Y-90703400D02*
X154519097Y-88406503D01*
X134531400Y-89370200D02*
X134531400Y-87040400D01*
X134594600Y-89433400D02*
X134531400Y-89370200D01*
D29*
X143549700Y-158726900D02*
X143318800Y-158496000D01*
X143318800Y-158496000D02*
X138938000Y-158496000D01*
D32*
X132334000Y-162179000D02*
X134217000Y-162179000D01*
D29*
X134217000Y-162179000D02*
X134305000Y-162091000D01*
D30*
X136474200Y-118745000D02*
X136474200Y-113919000D01*
X135269328Y-110845600D02*
X136474200Y-112050472D01*
X136474200Y-112050472D02*
X136474200Y-113919000D01*
X136499600Y-120624600D02*
X136499600Y-118770400D01*
X136499600Y-118770400D02*
X136474200Y-118745000D01*
X130403600Y-110845600D02*
X135269328Y-110845600D01*
X133604300Y-79420400D02*
X134531400Y-79420400D01*
X129418700Y-75234800D02*
X133604300Y-79420400D01*
X128905000Y-75234800D02*
X129418700Y-75234800D01*
X128549400Y-77190600D02*
X132049200Y-80690400D01*
D29*
X134531400Y-80690400D02*
X133957600Y-80690400D01*
D30*
X132049200Y-80690400D02*
X134531400Y-80690400D01*
X130941600Y-81960400D02*
X134531400Y-81960400D01*
X128981200Y-80000000D02*
X130941600Y-81960400D01*
X129565400Y-82321400D02*
X130474400Y-83230400D01*
X130474400Y-83230400D02*
X134531400Y-83230400D01*
X130274014Y-83709047D02*
X131065367Y-84500400D01*
X131065367Y-84500400D02*
X134531400Y-84500400D01*
X131938500Y-85964500D02*
X134337300Y-85964500D01*
X134337300Y-85964500D02*
X134531400Y-85770400D01*
X131114800Y-85140800D02*
X131938500Y-85964500D01*
X150776200Y-81960400D02*
X150770800Y-81965800D01*
X152031400Y-81960400D02*
X150776200Y-81960400D01*
X148807700Y-81915000D02*
X139039600Y-81915000D01*
X149214100Y-82321400D02*
X148807700Y-81915000D01*
X150830600Y-83230400D02*
X150799800Y-83261200D01*
X148691600Y-86207600D02*
X140794964Y-86207600D01*
X148767800Y-86131400D02*
X148691600Y-86207600D01*
X152031400Y-83230400D02*
X150830600Y-83230400D01*
X135991600Y-81404236D02*
X135991600Y-80670400D01*
X140794964Y-86207600D02*
X135991600Y-81404236D01*
X146863592Y-87111098D02*
X146671294Y-86918800D01*
X152031400Y-84500400D02*
X151104300Y-84500400D01*
X151104300Y-84500400D02*
X150770800Y-84833900D01*
X139649200Y-86918800D02*
X135915400Y-83185000D01*
X146671294Y-86918800D02*
X139649200Y-86918800D01*
X150770800Y-84833900D02*
X150770800Y-86893400D01*
X150790800Y-80690400D02*
X150770800Y-80670400D01*
X146989800Y-80619600D02*
X138582400Y-80619600D01*
X138582400Y-80619600D02*
X137261600Y-81940400D01*
X152031400Y-80690400D02*
X150790800Y-80690400D01*
X144272000Y-158978852D02*
X144272000Y-150533000D01*
X136205000Y-162091000D02*
X141159852Y-162091000D01*
D29*
X144272000Y-150533000D02*
X143256000Y-150533000D01*
D30*
X141159852Y-162091000D02*
X144272000Y-158978852D01*
X145415000Y-111379000D02*
X141909800Y-111379000D01*
X141909800Y-111379000D02*
X141503400Y-110972600D01*
X143535400Y-110413800D02*
X140995400Y-110413800D01*
X140995400Y-110413800D02*
X140436600Y-109855000D01*
D29*
X149024300Y-141478000D02*
X148516300Y-140970000D01*
X148516300Y-140970000D02*
X145341300Y-140970000D01*
X141514400Y-146539091D02*
X140665200Y-147388291D01*
X150368000Y-101041200D02*
X151942800Y-102616000D01*
D30*
X141478000Y-73863200D02*
X140639800Y-73025000D01*
D29*
X141867305Y-151713000D02*
X142553471Y-152399166D01*
D30*
X150251900Y-76123800D02*
X150251900Y-83769200D01*
X136158500Y-94146900D02*
X136158500Y-84770700D01*
D29*
X143945997Y-114523284D02*
X143945997Y-122804803D01*
X143945997Y-122804803D02*
X141514400Y-125236400D01*
D30*
X150266400Y-76109300D02*
X150266400Y-66929000D01*
D29*
X142553471Y-152399166D02*
X142566248Y-152399166D01*
X151942800Y-102616000D02*
X151942800Y-106526481D01*
D30*
X138887200Y-83134200D02*
X139446000Y-82575400D01*
X138938000Y-97942400D02*
X138938000Y-96926400D01*
D29*
X140665200Y-150825200D02*
X141553000Y-151713000D01*
D30*
X136158500Y-84770700D02*
X136169400Y-84759800D01*
D29*
X141514400Y-125236400D02*
X141514400Y-146539091D01*
X141553000Y-151713000D02*
X141867305Y-151713000D01*
X151942800Y-106526481D02*
X143945997Y-114523284D01*
D30*
X139446000Y-82575400D02*
X142657300Y-82575400D01*
X150251900Y-76123800D02*
X150266400Y-76109300D01*
D29*
X140665200Y-147388291D02*
X140665200Y-150825200D01*
D30*
X137236200Y-71907400D02*
X137129200Y-71800400D01*
X138938000Y-96926400D02*
X136158500Y-94146900D01*
X140639800Y-73025000D02*
X140639800Y-72466200D01*
X150368000Y-101041200D02*
X150251900Y-100925100D01*
X137129200Y-71800400D02*
X134531400Y-71800400D01*
X150251900Y-100925100D02*
X150251900Y-83769200D01*
D29*
X140182600Y-147234495D02*
X140182600Y-151053600D01*
D30*
X149733000Y-99212400D02*
X149733000Y-83286600D01*
D29*
X149381200Y-99564200D02*
X149381200Y-104228485D01*
D30*
X149733000Y-74523600D02*
X149733000Y-73101200D01*
X137047500Y-89599464D02*
X136677400Y-89229364D01*
X136545000Y-73070400D02*
X134531400Y-73070400D01*
X138988800Y-96215200D02*
X137047500Y-94273900D01*
X144119600Y-73101200D02*
X149733000Y-73101200D01*
D29*
X143459200Y-114373685D02*
X143459200Y-122655204D01*
D30*
X136677400Y-89229364D02*
X136677400Y-86715600D01*
D29*
X151492800Y-106340085D02*
X143459200Y-114373685D01*
D30*
X137047500Y-94273900D02*
X137047500Y-89599464D01*
D29*
X141064400Y-125050004D02*
X141064400Y-146352695D01*
D30*
X149402800Y-99542600D02*
X149733000Y-99212400D01*
D29*
X149381200Y-104228485D02*
X151492800Y-106340085D01*
D30*
X137464800Y-73990200D02*
X136575800Y-73101200D01*
X137464800Y-76361500D02*
X137464800Y-73990200D01*
X136575800Y-73101200D02*
X136545000Y-73070400D01*
D29*
X149402800Y-99542600D02*
X149381200Y-99564200D01*
D30*
X149733000Y-73101200D02*
X149733000Y-65000000D01*
D29*
X141064400Y-146352695D02*
X140182600Y-147234495D01*
X143459200Y-122655204D02*
X141064400Y-125050004D01*
D30*
X149733000Y-83286600D02*
X149733000Y-74523600D01*
D29*
X140182600Y-151053600D02*
X141567000Y-152438000D01*
D30*
X142847099Y-90573899D02*
X142847099Y-107419101D01*
X142847099Y-107419101D02*
X142646400Y-107619800D01*
X142824200Y-90551000D02*
X142847099Y-90573899D01*
X134531400Y-74340400D02*
X135808400Y-74340400D01*
X135808400Y-74340400D02*
X135813800Y-74345800D01*
X141630400Y-90678000D02*
X140995400Y-90043000D01*
X141630400Y-107594400D02*
X141630400Y-90678000D01*
X135808400Y-75610400D02*
X135813800Y-75615800D01*
X134531400Y-75610400D02*
X135808400Y-75610400D01*
X146166100Y-73837800D02*
X144927200Y-73837800D01*
X141884600Y-76880400D02*
X134531400Y-76880400D01*
X144927200Y-73837800D02*
X141884600Y-76880400D01*
X145618200Y-97459800D02*
X147726400Y-95351600D01*
X147726400Y-95351600D02*
X147726400Y-88290400D01*
X138887200Y-89865200D02*
X138887200Y-88341200D01*
X138887200Y-88341200D02*
X138836400Y-88290400D01*
G04 #@! TA.AperFunction,Conductor*
G36*
X127967703Y-77642432D02*
G01*
X127974181Y-77648464D01*
X127974658Y-77648941D01*
X128091059Y-77765342D01*
X128230443Y-77852922D01*
X128230445Y-77852922D01*
X128230451Y-77852926D01*
X128385812Y-77907289D01*
X128385815Y-77907289D01*
X128385820Y-77907291D01*
X128395366Y-77908366D01*
X128459781Y-77935430D01*
X128469169Y-77943906D01*
X131599362Y-81074099D01*
X131610055Y-81086292D01*
X131624727Y-81105412D01*
X131628835Y-81110765D01*
X131678176Y-81148625D01*
X131719377Y-81205052D01*
X131723532Y-81274798D01*
X131689320Y-81335719D01*
X131627602Y-81368471D01*
X131602688Y-81371000D01*
X131237100Y-81371000D01*
X131170061Y-81351315D01*
X131149419Y-81334681D01*
X129734506Y-79919769D01*
X129701021Y-79858446D01*
X129698966Y-79845965D01*
X129697891Y-79836420D01*
X129697889Y-79836415D01*
X129697889Y-79836412D01*
X129643526Y-79681051D01*
X129643522Y-79681044D01*
X129643522Y-79681043D01*
X129555942Y-79541659D01*
X129439541Y-79425258D01*
X129300157Y-79337678D01*
X129300156Y-79337677D01*
X129300155Y-79337677D01*
X129300153Y-79337676D01*
X129144774Y-79283307D01*
X128981204Y-79264878D01*
X128981196Y-79264878D01*
X128817625Y-79283307D01*
X128662246Y-79337676D01*
X128662244Y-79337677D01*
X128522858Y-79425258D01*
X128406458Y-79541658D01*
X128318877Y-79681044D01*
X128318876Y-79681046D01*
X128264507Y-79836425D01*
X128246078Y-79999996D01*
X128246078Y-80000003D01*
X128264507Y-80163574D01*
X128318876Y-80318953D01*
X128318877Y-80318955D01*
X128318878Y-80318957D01*
X128406458Y-80458341D01*
X128522859Y-80574742D01*
X128662243Y-80662322D01*
X128662245Y-80662322D01*
X128662251Y-80662326D01*
X128817612Y-80716689D01*
X128817615Y-80716689D01*
X128817620Y-80716691D01*
X128827166Y-80717766D01*
X128891581Y-80744830D01*
X128900969Y-80753306D01*
X129534801Y-81387138D01*
X129568286Y-81448461D01*
X129563302Y-81518153D01*
X129521430Y-81574086D01*
X129461005Y-81598039D01*
X129401825Y-81604707D01*
X129246446Y-81659076D01*
X129246444Y-81659077D01*
X129107058Y-81746658D01*
X128990658Y-81863058D01*
X128903077Y-82002444D01*
X128903076Y-82002446D01*
X128848707Y-82157825D01*
X128830278Y-82321396D01*
X128830278Y-82321403D01*
X128848707Y-82484974D01*
X128903076Y-82640353D01*
X128903077Y-82640355D01*
X128903078Y-82640357D01*
X128990658Y-82779741D01*
X129107059Y-82896142D01*
X129246443Y-82983722D01*
X129401820Y-83038091D01*
X129411366Y-83039166D01*
X129475780Y-83066230D01*
X129485168Y-83074706D01*
X129614645Y-83204183D01*
X129648130Y-83265506D01*
X129643146Y-83335198D01*
X129631959Y-83357834D01*
X129611692Y-83390089D01*
X129557321Y-83545472D01*
X129538892Y-83709043D01*
X129538892Y-83709050D01*
X129557321Y-83872621D01*
X129611690Y-84028000D01*
X129611691Y-84028002D01*
X129611692Y-84028004D01*
X129699272Y-84167388D01*
X129815673Y-84283789D01*
X129955057Y-84371369D01*
X130110434Y-84425738D01*
X130119980Y-84426813D01*
X130184394Y-84453877D01*
X130193782Y-84462353D01*
X130423511Y-84692081D01*
X130456996Y-84753404D01*
X130452872Y-84820716D01*
X130398107Y-84977225D01*
X130379678Y-85140796D01*
X130379678Y-85140803D01*
X130398107Y-85304374D01*
X130452476Y-85459753D01*
X130452477Y-85459755D01*
X130452478Y-85459757D01*
X130540058Y-85599141D01*
X130656459Y-85715542D01*
X130795843Y-85803122D01*
X130795845Y-85803122D01*
X130795851Y-85803126D01*
X130951212Y-85857489D01*
X130951215Y-85857489D01*
X130951220Y-85857491D01*
X130960766Y-85858566D01*
X131025181Y-85885630D01*
X131034569Y-85894106D01*
X131488662Y-86348199D01*
X131499355Y-86360392D01*
X131513667Y-86379042D01*
X131518135Y-86384865D01*
X131603486Y-86450357D01*
X131603487Y-86450357D01*
X131603487Y-86450358D01*
X131641255Y-86479339D01*
X131641257Y-86479340D01*
X131784636Y-86538730D01*
X131855225Y-86548023D01*
X131938499Y-86558986D01*
X131938500Y-86558986D01*
X131938501Y-86558986D01*
X131969074Y-86554961D01*
X131985259Y-86553900D01*
X133157600Y-86553900D01*
X133224639Y-86573585D01*
X133270394Y-86626389D01*
X133281600Y-86677900D01*
X133281600Y-87532770D01*
X133281601Y-87532776D01*
X133288008Y-87592383D01*
X133338302Y-87727228D01*
X133338306Y-87727235D01*
X133424552Y-87842444D01*
X133424555Y-87842447D01*
X133539764Y-87928693D01*
X133539771Y-87928697D01*
X133584718Y-87945461D01*
X133674617Y-87978991D01*
X133734227Y-87985400D01*
X133818001Y-87985399D01*
X133885038Y-88005083D01*
X133930794Y-88057886D01*
X133942000Y-88109399D01*
X133942000Y-89065952D01*
X133932595Y-89107176D01*
X133934578Y-89107870D01*
X133877907Y-89269825D01*
X133859478Y-89433396D01*
X133859478Y-89433403D01*
X133877907Y-89596974D01*
X133877908Y-89596979D01*
X133877909Y-89596980D01*
X133885637Y-89619065D01*
X133932276Y-89752353D01*
X133932277Y-89752355D01*
X133932278Y-89752357D01*
X134019858Y-89891741D01*
X134136259Y-90008142D01*
X134275643Y-90095722D01*
X134431020Y-90150091D01*
X134431023Y-90150091D01*
X134431025Y-90150092D01*
X134594596Y-90168522D01*
X134594600Y-90168522D01*
X134594604Y-90168522D01*
X134758174Y-90150092D01*
X134758175Y-90150091D01*
X134758180Y-90150091D01*
X134913557Y-90095722D01*
X135052941Y-90008142D01*
X135169342Y-89891741D01*
X135256922Y-89752357D01*
X135311291Y-89596980D01*
X135312649Y-89584931D01*
X135321880Y-89503005D01*
X135348946Y-89438591D01*
X135357074Y-89433008D01*
X135326123Y-89384846D01*
X135321880Y-89363794D01*
X135311292Y-89269825D01*
X135311291Y-89269823D01*
X135311291Y-89269820D01*
X135256922Y-89114443D01*
X135169342Y-88975059D01*
X135157119Y-88962836D01*
X135123634Y-88901513D01*
X135120800Y-88875155D01*
X135120800Y-88109399D01*
X135140485Y-88042360D01*
X135193289Y-87996605D01*
X135244800Y-87985399D01*
X135328571Y-87985399D01*
X135328572Y-87985399D01*
X135388183Y-87978991D01*
X135401766Y-87973924D01*
X135471455Y-87968939D01*
X135532779Y-88002423D01*
X135566266Y-88063745D01*
X135569100Y-88090106D01*
X135569100Y-89349911D01*
X135549415Y-89416950D01*
X135533196Y-89431003D01*
X135536284Y-89432856D01*
X135567240Y-89495494D01*
X135569100Y-89516888D01*
X135569100Y-94100141D01*
X135568039Y-94116326D01*
X135564014Y-94146898D01*
X135564014Y-94146900D01*
X135569100Y-94185531D01*
X135584271Y-94300763D01*
X135584272Y-94300767D01*
X135643658Y-94444140D01*
X135643659Y-94444142D01*
X135643660Y-94444143D01*
X135738135Y-94567265D01*
X135762610Y-94586045D01*
X135774797Y-94596734D01*
X138312281Y-97134218D01*
X138345766Y-97195541D01*
X138348600Y-97221899D01*
X138348600Y-97471664D01*
X138329594Y-97537634D01*
X138320507Y-97552098D01*
X138275677Y-97623444D01*
X138221307Y-97778825D01*
X138202878Y-97942396D01*
X138202878Y-97942403D01*
X138221307Y-98105974D01*
X138275676Y-98261353D01*
X138275677Y-98261355D01*
X138275678Y-98261357D01*
X138363258Y-98400741D01*
X138479659Y-98517142D01*
X138619043Y-98604722D01*
X138774420Y-98659091D01*
X138774423Y-98659091D01*
X138774425Y-98659092D01*
X138937996Y-98677522D01*
X138938000Y-98677522D01*
X138938004Y-98677522D01*
X139101574Y-98659092D01*
X139101575Y-98659091D01*
X139101580Y-98659091D01*
X139256957Y-98604722D01*
X139396341Y-98517142D01*
X139512742Y-98400741D01*
X139600322Y-98261357D01*
X139654691Y-98105980D01*
X139662740Y-98034542D01*
X139673122Y-97942403D01*
X139673122Y-97942396D01*
X139654692Y-97778825D01*
X139654691Y-97778823D01*
X139654691Y-97778820D01*
X139600322Y-97623443D01*
X139546405Y-97537634D01*
X139527400Y-97471664D01*
X139527400Y-96973158D01*
X139528461Y-96956972D01*
X139532486Y-96926399D01*
X139532486Y-96926398D01*
X139524394Y-96864938D01*
X139514664Y-96791025D01*
X139525430Y-96721992D01*
X139549922Y-96687160D01*
X139563542Y-96673541D01*
X139651122Y-96534157D01*
X139705491Y-96378780D01*
X139705492Y-96378774D01*
X139723922Y-96215203D01*
X139723922Y-96215196D01*
X139705492Y-96051625D01*
X139705491Y-96051623D01*
X139705491Y-96051620D01*
X139651122Y-95896243D01*
X139563542Y-95756859D01*
X139447141Y-95640458D01*
X139307757Y-95552878D01*
X139307756Y-95552877D01*
X139307755Y-95552877D01*
X139307753Y-95552876D01*
X139207979Y-95517964D01*
X139152380Y-95498509D01*
X139142820Y-95497431D01*
X139078409Y-95470362D01*
X139069030Y-95461893D01*
X137673219Y-94066082D01*
X137639734Y-94004759D01*
X137636900Y-93978401D01*
X137636900Y-93005903D01*
X138951477Y-93005903D01*
X138969906Y-93169474D01*
X139024275Y-93324853D01*
X139024276Y-93324855D01*
X139024277Y-93324857D01*
X139111857Y-93464241D01*
X139228258Y-93580642D01*
X139367642Y-93668222D01*
X139523019Y-93722591D01*
X139523022Y-93722591D01*
X139523024Y-93722592D01*
X139686595Y-93741022D01*
X139686599Y-93741022D01*
X139686603Y-93741022D01*
X139850173Y-93722592D01*
X139850174Y-93722591D01*
X139850179Y-93722591D01*
X140005556Y-93668222D01*
X140144940Y-93580642D01*
X140261341Y-93464241D01*
X140348921Y-93324857D01*
X140403290Y-93169480D01*
X140421721Y-93005900D01*
X140418443Y-92976810D01*
X140403291Y-92842325D01*
X140403290Y-92842323D01*
X140403290Y-92842320D01*
X140348921Y-92686943D01*
X140261341Y-92547559D01*
X140144940Y-92431158D01*
X140005556Y-92343578D01*
X140005555Y-92343577D01*
X140005554Y-92343577D01*
X140005552Y-92343576D01*
X139850173Y-92289207D01*
X139686603Y-92270778D01*
X139686595Y-92270778D01*
X139523024Y-92289207D01*
X139367645Y-92343576D01*
X139367643Y-92343577D01*
X139228257Y-92431158D01*
X139111857Y-92547558D01*
X139024276Y-92686944D01*
X139024275Y-92686946D01*
X138969906Y-92842325D01*
X138951477Y-93005896D01*
X138951477Y-93005903D01*
X137636900Y-93005903D01*
X137636900Y-92715238D01*
X137656585Y-92648199D01*
X137709389Y-92602444D01*
X137778547Y-92592500D01*
X137826868Y-92610242D01*
X137907843Y-92661122D01*
X138063220Y-92715491D01*
X138063223Y-92715491D01*
X138063225Y-92715492D01*
X138226796Y-92733922D01*
X138226800Y-92733922D01*
X138226804Y-92733922D01*
X138390374Y-92715492D01*
X138390375Y-92715491D01*
X138390380Y-92715491D01*
X138545757Y-92661122D01*
X138685141Y-92573542D01*
X138801542Y-92457141D01*
X138889122Y-92317757D01*
X138943491Y-92162380D01*
X138944630Y-92152270D01*
X138961922Y-91998803D01*
X138961922Y-91998796D01*
X138943492Y-91835225D01*
X138943491Y-91835223D01*
X138943491Y-91835220D01*
X138889122Y-91679843D01*
X138801542Y-91540459D01*
X138685141Y-91424058D01*
X138545757Y-91336478D01*
X138545755Y-91336477D01*
X138545753Y-91336476D01*
X138423736Y-91293780D01*
X138377011Y-91264421D01*
X138228217Y-91115626D01*
X138194734Y-91054305D01*
X138191900Y-91027947D01*
X138191900Y-90502345D01*
X138211585Y-90435306D01*
X138264389Y-90389551D01*
X138333547Y-90379607D01*
X138397103Y-90408632D01*
X138403581Y-90414664D01*
X138428859Y-90439942D01*
X138568243Y-90527522D01*
X138723620Y-90581891D01*
X138723623Y-90581891D01*
X138723625Y-90581892D01*
X138887196Y-90600322D01*
X138887200Y-90600322D01*
X138887204Y-90600322D01*
X139050774Y-90581892D01*
X139050775Y-90581891D01*
X139050780Y-90581891D01*
X139206157Y-90527522D01*
X139345541Y-90439942D01*
X139461942Y-90323541D01*
X139549522Y-90184157D01*
X139603891Y-90028780D01*
X139603892Y-90028774D01*
X139622322Y-89865203D01*
X139622322Y-89865196D01*
X139603892Y-89701623D01*
X139602343Y-89694838D01*
X139604578Y-89694327D01*
X139601560Y-89635396D01*
X139636278Y-89574763D01*
X139698265Y-89542525D01*
X139722159Y-89540199D01*
X140224267Y-89540199D01*
X140291306Y-89559884D01*
X140337061Y-89612688D01*
X140347005Y-89681846D01*
X140335987Y-89718000D01*
X140333079Y-89724036D01*
X140278707Y-89879425D01*
X140260278Y-90042996D01*
X140260278Y-90043003D01*
X140278707Y-90206574D01*
X140278708Y-90206579D01*
X140278709Y-90206580D01*
X140286437Y-90228665D01*
X140333076Y-90361953D01*
X140333077Y-90361955D01*
X140333078Y-90361957D01*
X140420658Y-90501341D01*
X140537059Y-90617742D01*
X140676443Y-90705322D01*
X140676445Y-90705322D01*
X140676451Y-90705326D01*
X140831812Y-90759689D01*
X140831815Y-90759689D01*
X140831820Y-90759691D01*
X140841366Y-90760766D01*
X140905781Y-90787830D01*
X140915169Y-90796306D01*
X141004681Y-90885818D01*
X141038166Y-90947141D01*
X141041000Y-90973499D01*
X141041000Y-107123664D01*
X141021994Y-107189636D01*
X140968077Y-107275444D01*
X140913707Y-107430825D01*
X140895278Y-107594396D01*
X140895278Y-107594403D01*
X140913707Y-107757974D01*
X140968076Y-107913353D01*
X140968077Y-107913355D01*
X140968078Y-107913357D01*
X141055658Y-108052741D01*
X141172059Y-108169142D01*
X141311443Y-108256722D01*
X141466820Y-108311091D01*
X141466823Y-108311091D01*
X141466825Y-108311092D01*
X141630396Y-108329522D01*
X141630400Y-108329522D01*
X141630404Y-108329522D01*
X141793974Y-108311092D01*
X141793975Y-108311091D01*
X141793980Y-108311091D01*
X141949357Y-108256722D01*
X142052216Y-108192091D01*
X142119451Y-108173091D01*
X142184159Y-108192091D01*
X142188057Y-108194540D01*
X142188059Y-108194542D01*
X142327443Y-108282122D01*
X142482820Y-108336491D01*
X142482823Y-108336491D01*
X142482825Y-108336492D01*
X142646396Y-108354922D01*
X142646400Y-108354922D01*
X142646404Y-108354922D01*
X142809974Y-108336492D01*
X142809975Y-108336491D01*
X142809980Y-108336491D01*
X142965357Y-108282122D01*
X143104741Y-108194542D01*
X143221142Y-108078141D01*
X143308722Y-107938757D01*
X143308723Y-107938751D01*
X143308726Y-107938748D01*
X143363089Y-107783387D01*
X143363090Y-107783382D01*
X143363091Y-107783380D01*
X143371936Y-107704862D01*
X143380593Y-107671305D01*
X143421328Y-107572965D01*
X143436499Y-107457732D01*
X143441585Y-107419101D01*
X143437560Y-107388527D01*
X143436499Y-107372342D01*
X143436499Y-105587803D01*
X146330878Y-105587803D01*
X146349307Y-105751374D01*
X146403676Y-105906753D01*
X146403677Y-105906755D01*
X146403678Y-105906757D01*
X146491258Y-106046141D01*
X146607659Y-106162542D01*
X146747043Y-106250122D01*
X146902420Y-106304491D01*
X146902423Y-106304491D01*
X146902425Y-106304492D01*
X147065996Y-106322922D01*
X147066000Y-106322922D01*
X147066004Y-106322922D01*
X147229574Y-106304492D01*
X147229575Y-106304491D01*
X147229580Y-106304491D01*
X147384957Y-106250122D01*
X147524341Y-106162542D01*
X147640742Y-106046141D01*
X147728322Y-105906757D01*
X147782691Y-105751380D01*
X147782692Y-105751374D01*
X147801122Y-105587803D01*
X147801122Y-105587796D01*
X147782692Y-105424225D01*
X147782691Y-105424223D01*
X147782691Y-105424220D01*
X147728322Y-105268843D01*
X147640742Y-105129459D01*
X147524341Y-105013058D01*
X147384957Y-104925478D01*
X147384956Y-104925477D01*
X147384955Y-104925477D01*
X147384953Y-104925476D01*
X147229574Y-104871107D01*
X147066004Y-104852678D01*
X147065996Y-104852678D01*
X146902425Y-104871107D01*
X146747046Y-104925476D01*
X146747044Y-104925477D01*
X146607658Y-105013058D01*
X146491258Y-105129458D01*
X146403677Y-105268844D01*
X146403676Y-105268846D01*
X146349307Y-105424225D01*
X146330878Y-105587796D01*
X146330878Y-105587803D01*
X143436499Y-105587803D01*
X143436499Y-93800823D01*
X143456184Y-93733784D01*
X143508988Y-93688029D01*
X143523097Y-93683253D01*
X143523006Y-93682992D01*
X143684947Y-93626326D01*
X143684950Y-93626323D01*
X143684956Y-93626322D01*
X143824340Y-93538742D01*
X143940741Y-93422341D01*
X144028321Y-93282957D01*
X144082690Y-93127580D01*
X144096400Y-93005900D01*
X144101121Y-92964003D01*
X144101121Y-92963996D01*
X144082691Y-92800425D01*
X144082690Y-92800423D01*
X144082690Y-92800420D01*
X144028321Y-92645043D01*
X143940741Y-92505659D01*
X143824340Y-92389258D01*
X143684956Y-92301678D01*
X143684955Y-92301677D01*
X143684954Y-92301677D01*
X143684952Y-92301676D01*
X143596649Y-92270778D01*
X143529579Y-92247309D01*
X143529576Y-92247308D01*
X143523007Y-92245010D01*
X143523730Y-92242942D01*
X143471908Y-92213939D01*
X143439065Y-92152270D01*
X143436499Y-92127177D01*
X143436499Y-90985292D01*
X143455506Y-90919319D01*
X143486521Y-90869958D01*
X143486522Y-90869957D01*
X143540891Y-90714580D01*
X143541371Y-90710319D01*
X143559322Y-90551003D01*
X143559322Y-90550996D01*
X143540892Y-90387425D01*
X143540891Y-90387423D01*
X143540891Y-90387420D01*
X143486522Y-90232043D01*
X143398942Y-90092659D01*
X143282541Y-89976258D01*
X143143157Y-89888678D01*
X143143156Y-89888677D01*
X143143155Y-89888677D01*
X143143153Y-89888676D01*
X142987774Y-89834307D01*
X142824204Y-89815878D01*
X142824196Y-89815878D01*
X142660625Y-89834307D01*
X142505246Y-89888676D01*
X142505244Y-89888677D01*
X142365858Y-89976258D01*
X142249458Y-90092658D01*
X142189077Y-90188756D01*
X142136743Y-90235047D01*
X142067689Y-90245696D01*
X142003841Y-90217321D01*
X141996402Y-90210465D01*
X141748706Y-89962769D01*
X141715221Y-89901446D01*
X141713166Y-89888965D01*
X141713134Y-89888677D01*
X141712091Y-89879420D01*
X141712089Y-89879415D01*
X141712089Y-89879412D01*
X141657725Y-89724048D01*
X141654815Y-89718007D01*
X141643459Y-89649067D01*
X141671177Y-89584931D01*
X141729170Y-89545962D01*
X141766532Y-89540199D01*
X141868771Y-89540199D01*
X141868772Y-89540199D01*
X141928383Y-89533791D01*
X141968065Y-89518989D01*
X142037756Y-89514004D01*
X142054722Y-89518985D01*
X142094417Y-89533791D01*
X142154027Y-89540200D01*
X143138772Y-89540199D01*
X143198383Y-89533791D01*
X143238065Y-89518989D01*
X143307756Y-89514004D01*
X143324722Y-89518985D01*
X143364417Y-89533791D01*
X143424027Y-89540200D01*
X144408772Y-89540199D01*
X144468383Y-89533791D01*
X144508065Y-89518989D01*
X144577756Y-89514004D01*
X144594722Y-89518985D01*
X144634417Y-89533791D01*
X144694027Y-89540200D01*
X145678772Y-89540199D01*
X145738383Y-89533791D01*
X145778065Y-89518989D01*
X145847756Y-89514004D01*
X145864722Y-89518985D01*
X145904417Y-89533791D01*
X145964027Y-89540200D01*
X146948772Y-89540199D01*
X146999747Y-89534719D01*
X147068505Y-89547125D01*
X147119642Y-89594736D01*
X147137000Y-89658009D01*
X147137000Y-95056100D01*
X147117315Y-95123139D01*
X147100681Y-95143781D01*
X146561736Y-95682725D01*
X146500413Y-95716210D01*
X146430721Y-95711226D01*
X146374788Y-95669354D01*
X146350835Y-95608927D01*
X146334892Y-95467425D01*
X146334891Y-95467423D01*
X146334891Y-95467420D01*
X146280522Y-95312043D01*
X146192942Y-95172659D01*
X146076541Y-95056258D01*
X145937157Y-94968678D01*
X145937156Y-94968677D01*
X145937155Y-94968677D01*
X145937153Y-94968676D01*
X145781774Y-94914307D01*
X145618204Y-94895878D01*
X145618196Y-94895878D01*
X145454625Y-94914307D01*
X145299246Y-94968676D01*
X145299244Y-94968677D01*
X145159858Y-95056258D01*
X145043458Y-95172658D01*
X144955877Y-95312044D01*
X144955876Y-95312046D01*
X144901507Y-95467425D01*
X144883078Y-95630996D01*
X144883078Y-95631003D01*
X144901507Y-95794574D01*
X144955876Y-95949953D01*
X144955877Y-95949955D01*
X144955878Y-95949957D01*
X145043458Y-96089341D01*
X145159859Y-96205742D01*
X145299243Y-96293322D01*
X145454620Y-96347691D01*
X145454623Y-96347691D01*
X145454625Y-96347692D01*
X145596127Y-96363635D01*
X145660541Y-96390701D01*
X145700096Y-96448296D01*
X145702234Y-96518133D01*
X145669925Y-96574536D01*
X145537968Y-96706493D01*
X145476645Y-96739978D01*
X145464178Y-96742031D01*
X145454629Y-96743107D01*
X145454619Y-96743109D01*
X145299246Y-96797476D01*
X145299244Y-96797477D01*
X145159858Y-96885058D01*
X145043458Y-97001458D01*
X144955877Y-97140844D01*
X144955876Y-97140846D01*
X144901507Y-97296225D01*
X144883078Y-97459796D01*
X144883078Y-97459803D01*
X144901507Y-97623374D01*
X144901508Y-97623379D01*
X144901509Y-97623380D01*
X144901531Y-97623443D01*
X144955876Y-97778753D01*
X144955877Y-97778755D01*
X144955878Y-97778757D01*
X145043458Y-97918141D01*
X145159859Y-98034542D01*
X145299243Y-98122122D01*
X145454620Y-98176491D01*
X145454623Y-98176491D01*
X145454625Y-98176492D01*
X145618196Y-98194922D01*
X145618200Y-98194922D01*
X145618204Y-98194922D01*
X145781774Y-98176492D01*
X145781775Y-98176491D01*
X145781780Y-98176491D01*
X145937157Y-98122122D01*
X146076541Y-98034542D01*
X146192942Y-97918141D01*
X146280522Y-97778757D01*
X146280523Y-97778751D01*
X146280526Y-97778748D01*
X146334889Y-97623387D01*
X146334891Y-97623380D01*
X146334892Y-97623374D01*
X146335966Y-97613832D01*
X146363029Y-97549419D01*
X146371496Y-97540039D01*
X148110112Y-95801424D01*
X148122289Y-95790744D01*
X148146765Y-95771965D01*
X148241240Y-95648843D01*
X148300629Y-95505464D01*
X148315800Y-95390231D01*
X148320886Y-95351600D01*
X148316861Y-95321026D01*
X148315800Y-95304841D01*
X148315800Y-89605930D01*
X148335485Y-89538891D01*
X148388289Y-89493136D01*
X148396471Y-89489747D01*
X148413231Y-89483496D01*
X148528446Y-89397246D01*
X148614696Y-89282031D01*
X148664991Y-89147183D01*
X148671400Y-89087573D01*
X148671399Y-87493228D01*
X148664991Y-87433617D01*
X148614696Y-87298769D01*
X148614695Y-87298768D01*
X148614693Y-87298764D01*
X148528447Y-87183555D01*
X148528444Y-87183552D01*
X148413235Y-87097306D01*
X148413228Y-87097302D01*
X148278382Y-87047008D01*
X148278383Y-87047008D01*
X148253086Y-87044289D01*
X148188535Y-87017551D01*
X148148687Y-86960159D01*
X148146193Y-86890334D01*
X148181845Y-86830245D01*
X148244325Y-86798970D01*
X148266341Y-86797000D01*
X148437144Y-86797000D01*
X148478098Y-86803958D01*
X148604220Y-86848091D01*
X148604223Y-86848092D01*
X148767796Y-86866522D01*
X148767800Y-86866522D01*
X148767804Y-86866522D01*
X148931376Y-86848092D01*
X148931378Y-86848091D01*
X148931380Y-86848091D01*
X148978645Y-86831551D01*
X149048424Y-86827990D01*
X149109051Y-86862718D01*
X149141279Y-86924711D01*
X149143600Y-86948593D01*
X149143600Y-98774197D01*
X149123915Y-98841236D01*
X149085572Y-98879191D01*
X148944458Y-98967858D01*
X148828058Y-99084258D01*
X148740477Y-99223644D01*
X148740476Y-99223646D01*
X148686107Y-99379025D01*
X148667678Y-99542596D01*
X148667678Y-99542603D01*
X148686107Y-99706176D01*
X148740475Y-99861549D01*
X148740478Y-99861557D01*
X148740481Y-99861562D01*
X148743420Y-99867664D01*
X148755700Y-99921467D01*
X148755700Y-104145740D01*
X148753975Y-104161357D01*
X148754261Y-104161384D01*
X148753526Y-104169150D01*
X148755639Y-104236357D01*
X148755700Y-104240252D01*
X148755700Y-104267842D01*
X148756203Y-104271820D01*
X148757118Y-104283452D01*
X148758490Y-104327109D01*
X148758491Y-104327112D01*
X148764080Y-104346352D01*
X148768024Y-104365396D01*
X148770536Y-104385277D01*
X148786614Y-104425888D01*
X148790397Y-104436937D01*
X148802581Y-104478873D01*
X148812780Y-104496119D01*
X148821338Y-104513588D01*
X148828714Y-104532217D01*
X148854381Y-104567545D01*
X148860793Y-104577306D01*
X148883028Y-104614902D01*
X148883033Y-104614909D01*
X148897190Y-104629065D01*
X148909828Y-104643861D01*
X148921605Y-104660071D01*
X148921606Y-104660072D01*
X148955257Y-104687910D01*
X148963897Y-104695772D01*
X150520529Y-106252405D01*
X150554013Y-106313726D01*
X150549029Y-106383418D01*
X150520528Y-106427765D01*
X146096369Y-110851924D01*
X146035046Y-110885409D01*
X145965354Y-110880425D01*
X145921007Y-110851924D01*
X145873341Y-110804258D01*
X145850013Y-110789600D01*
X145733957Y-110716678D01*
X145733956Y-110716677D01*
X145733955Y-110716677D01*
X145733953Y-110716676D01*
X145578574Y-110662307D01*
X145415004Y-110643878D01*
X145414996Y-110643878D01*
X145251425Y-110662307D01*
X145096044Y-110716677D01*
X145071112Y-110732343D01*
X145010234Y-110770594D01*
X144944264Y-110789600D01*
X144352593Y-110789600D01*
X144285554Y-110769915D01*
X144239799Y-110717111D01*
X144229855Y-110647953D01*
X144235552Y-110624645D01*
X144252092Y-110577376D01*
X144270522Y-110413803D01*
X144270522Y-110413796D01*
X144252092Y-110250225D01*
X144252091Y-110250223D01*
X144252091Y-110250220D01*
X144197722Y-110094843D01*
X144110142Y-109955459D01*
X143993741Y-109839058D01*
X143854357Y-109751478D01*
X143854356Y-109751477D01*
X143854355Y-109751477D01*
X143854353Y-109751476D01*
X143698974Y-109697107D01*
X143535404Y-109678678D01*
X143535396Y-109678678D01*
X143371825Y-109697107D01*
X143216444Y-109751477D01*
X143179570Y-109774646D01*
X143130634Y-109805394D01*
X143064664Y-109824400D01*
X141290899Y-109824400D01*
X141223860Y-109804715D01*
X141203218Y-109788081D01*
X141189906Y-109774769D01*
X141156421Y-109713446D01*
X141154366Y-109700965D01*
X141153291Y-109691420D01*
X141153289Y-109691415D01*
X141153289Y-109691412D01*
X141098926Y-109536051D01*
X141098922Y-109536044D01*
X141098922Y-109536043D01*
X141011342Y-109396659D01*
X140894941Y-109280258D01*
X140755557Y-109192678D01*
X140755556Y-109192677D01*
X140755555Y-109192677D01*
X140755553Y-109192676D01*
X140600174Y-109138307D01*
X140436604Y-109119878D01*
X140436596Y-109119878D01*
X140273025Y-109138307D01*
X140117646Y-109192676D01*
X140117644Y-109192677D01*
X139978258Y-109280258D01*
X139861858Y-109396658D01*
X139774277Y-109536044D01*
X139774276Y-109536046D01*
X139719907Y-109691425D01*
X139701478Y-109854996D01*
X139701478Y-109855003D01*
X139719907Y-110018574D01*
X139774276Y-110173953D01*
X139774277Y-110173955D01*
X139774278Y-110173957D01*
X139861858Y-110313341D01*
X139978259Y-110429742D01*
X140117643Y-110517322D01*
X140117645Y-110517322D01*
X140117651Y-110517326D01*
X140273012Y-110571689D01*
X140273015Y-110571689D01*
X140273020Y-110571691D01*
X140282566Y-110572766D01*
X140346981Y-110599830D01*
X140356369Y-110608306D01*
X140545562Y-110797499D01*
X140556255Y-110809692D01*
X140566419Y-110822937D01*
X140575035Y-110834165D01*
X140655986Y-110896281D01*
X140698157Y-110928640D01*
X140698932Y-110928961D01*
X140699485Y-110929407D01*
X140705199Y-110932706D01*
X140704684Y-110933596D01*
X140753337Y-110972800D01*
X140774704Y-111029640D01*
X140786707Y-111136174D01*
X140841076Y-111291553D01*
X140841077Y-111291555D01*
X140841078Y-111291557D01*
X140928658Y-111430941D01*
X141045059Y-111547342D01*
X141184443Y-111634922D01*
X141339820Y-111689291D01*
X141349366Y-111690366D01*
X141413780Y-111717431D01*
X141423166Y-111725905D01*
X141459969Y-111762707D01*
X141470665Y-111774903D01*
X141489435Y-111799365D01*
X141499751Y-111807281D01*
X141517116Y-111820605D01*
X141517147Y-111820631D01*
X141538924Y-111837340D01*
X141538925Y-111837340D01*
X141538926Y-111837341D01*
X141612557Y-111893840D01*
X141704279Y-111931832D01*
X141755935Y-111953229D01*
X141909800Y-111973486D01*
X141909801Y-111973486D01*
X141940372Y-111969461D01*
X141956558Y-111968400D01*
X144680532Y-111968400D01*
X144747571Y-111988085D01*
X144793326Y-112040889D01*
X144803270Y-112110047D01*
X144774245Y-112173603D01*
X144768213Y-112180081D01*
X143075408Y-113872884D01*
X143063151Y-113882705D01*
X143063334Y-113882926D01*
X143057322Y-113887899D01*
X143011298Y-113936908D01*
X143008591Y-113939701D01*
X142989089Y-113959202D01*
X142989075Y-113959219D01*
X142986607Y-113962400D01*
X142979043Y-113971255D01*
X142949137Y-114003103D01*
X142949136Y-114003105D01*
X142939484Y-114020661D01*
X142928810Y-114036911D01*
X142916529Y-114052746D01*
X142916524Y-114052753D01*
X142899175Y-114092843D01*
X142894038Y-114103329D01*
X142873003Y-114141591D01*
X142868022Y-114160992D01*
X142861721Y-114179395D01*
X142853762Y-114197787D01*
X142853761Y-114197790D01*
X142846928Y-114240928D01*
X142844560Y-114252359D01*
X142833701Y-114294656D01*
X142833700Y-114294667D01*
X142833700Y-114314701D01*
X142832173Y-114334100D01*
X142829040Y-114353879D01*
X142829040Y-114353880D01*
X142833150Y-114397359D01*
X142833700Y-114409028D01*
X142833700Y-122344751D01*
X142814015Y-122411790D01*
X142797381Y-122432432D01*
X141451581Y-123778232D01*
X141390258Y-123811717D01*
X141320566Y-123806733D01*
X141264633Y-123764861D01*
X141240216Y-123699397D01*
X141239900Y-123690551D01*
X141239900Y-113674332D01*
X141259585Y-113607293D01*
X141312389Y-113561538D01*
X141322941Y-113557291D01*
X141465671Y-113507348D01*
X141605055Y-113419768D01*
X141721456Y-113303367D01*
X141809036Y-113163983D01*
X141863405Y-113008606D01*
X141863406Y-113008600D01*
X141881836Y-112845029D01*
X141881836Y-112845022D01*
X141863406Y-112681451D01*
X141863405Y-112681449D01*
X141863405Y-112681446D01*
X141809036Y-112526069D01*
X141721456Y-112386685D01*
X141605055Y-112270284D01*
X141465671Y-112182704D01*
X141465670Y-112182703D01*
X141465669Y-112182703D01*
X141465667Y-112182702D01*
X141310288Y-112128333D01*
X141146718Y-112109904D01*
X141146710Y-112109904D01*
X140983139Y-112128333D01*
X140827754Y-112182704D01*
X140820503Y-112187261D01*
X140753266Y-112206260D01*
X140686432Y-112185891D01*
X140666853Y-112169947D01*
X138888619Y-110391713D01*
X138855134Y-110330390D01*
X138852300Y-110304032D01*
X138852300Y-103689683D01*
X138871307Y-103623710D01*
X138889121Y-103595358D01*
X138889122Y-103595357D01*
X138943491Y-103439980D01*
X138961922Y-103276400D01*
X138943491Y-103112820D01*
X138889122Y-102957443D01*
X138801542Y-102818059D01*
X138685141Y-102701658D01*
X138545757Y-102614078D01*
X138545756Y-102614077D01*
X138545755Y-102614077D01*
X138545753Y-102614076D01*
X138390374Y-102559707D01*
X138226804Y-102541278D01*
X138226796Y-102541278D01*
X138063225Y-102559707D01*
X137907846Y-102614076D01*
X137907844Y-102614077D01*
X137768458Y-102701658D01*
X137652058Y-102818058D01*
X137564477Y-102957444D01*
X137564476Y-102957446D01*
X137510107Y-103112825D01*
X137491678Y-103276396D01*
X137491678Y-103276403D01*
X137510107Y-103439974D01*
X137564478Y-103595358D01*
X137582293Y-103623710D01*
X137601300Y-103689683D01*
X137601300Y-110531740D01*
X137599575Y-110547357D01*
X137599861Y-110547384D01*
X137599126Y-110555150D01*
X137601239Y-110622357D01*
X137601300Y-110626252D01*
X137601300Y-110653842D01*
X137601803Y-110657820D01*
X137602718Y-110669452D01*
X137604090Y-110713109D01*
X137604091Y-110713112D01*
X137609680Y-110732352D01*
X137613624Y-110751396D01*
X137615964Y-110769915D01*
X137616136Y-110771277D01*
X137632214Y-110811888D01*
X137635997Y-110822937D01*
X137648181Y-110864873D01*
X137658380Y-110882119D01*
X137666938Y-110899588D01*
X137674314Y-110918217D01*
X137699981Y-110953545D01*
X137706393Y-110963306D01*
X137728628Y-111000902D01*
X137728633Y-111000909D01*
X137742790Y-111015065D01*
X137755427Y-111029860D01*
X137767206Y-111046072D01*
X137788147Y-111063396D01*
X137800857Y-111073910D01*
X137809498Y-111081773D01*
X139952581Y-113224856D01*
X139986066Y-113286179D01*
X139988900Y-113312537D01*
X139988900Y-145855845D01*
X139969215Y-145922884D01*
X139952581Y-145943526D01*
X139309608Y-146586498D01*
X139297351Y-146596319D01*
X139297534Y-146596540D01*
X139291522Y-146601513D01*
X139245498Y-146650522D01*
X139242791Y-146653315D01*
X139223289Y-146672816D01*
X139223275Y-146672833D01*
X139220807Y-146676014D01*
X139213243Y-146684869D01*
X139183337Y-146716717D01*
X139183336Y-146716719D01*
X139173684Y-146734275D01*
X139163010Y-146750525D01*
X139150729Y-146766360D01*
X139150724Y-146766367D01*
X139133375Y-146806457D01*
X139128238Y-146816943D01*
X139107203Y-146855205D01*
X139102222Y-146874606D01*
X139095921Y-146893009D01*
X139087962Y-146911401D01*
X139087961Y-146911404D01*
X139081128Y-146954542D01*
X139078760Y-146965973D01*
X139067901Y-147008270D01*
X139067900Y-147008281D01*
X139067900Y-147028315D01*
X139066373Y-147047714D01*
X139063240Y-147067493D01*
X139063240Y-147067494D01*
X139067350Y-147110973D01*
X139067900Y-147122642D01*
X139067900Y-151118051D01*
X139066175Y-151133668D01*
X139066461Y-151133695D01*
X139065726Y-151141461D01*
X139067839Y-151208668D01*
X139067900Y-151212563D01*
X139067900Y-151240153D01*
X139068403Y-151244131D01*
X139069318Y-151255763D01*
X139070690Y-151299420D01*
X139070691Y-151299423D01*
X139076280Y-151318663D01*
X139080224Y-151337707D01*
X139082220Y-151353500D01*
X139082736Y-151357588D01*
X139098814Y-151398199D01*
X139102597Y-151409248D01*
X139114760Y-151451113D01*
X139114782Y-151451186D01*
X139121382Y-151462347D01*
X139124980Y-151468430D01*
X139133536Y-151485896D01*
X139138019Y-151497216D01*
X139140914Y-151504528D01*
X139166581Y-151539856D01*
X139172993Y-151549617D01*
X139195228Y-151587213D01*
X139195233Y-151587220D01*
X139209390Y-151601376D01*
X139222027Y-151616171D01*
X139233806Y-151632383D01*
X139261688Y-151655449D01*
X139267457Y-151660221D01*
X139276098Y-151668084D01*
X140104981Y-152496967D01*
X140138466Y-152558290D01*
X140141300Y-152584648D01*
X140141300Y-152937500D01*
X140121615Y-153004539D01*
X140068811Y-153050294D01*
X140017300Y-153061500D01*
X139948354Y-153061500D01*
X139898701Y-153072054D01*
X139790676Y-153095015D01*
X139721008Y-153089699D01*
X139665275Y-153047562D01*
X139641170Y-152981982D01*
X139641008Y-152978912D01*
X139638076Y-152941645D01*
X139638076Y-152941642D01*
X139591870Y-152782600D01*
X139519969Y-152661023D01*
X139507565Y-152640049D01*
X139507558Y-152640040D01*
X139390459Y-152522941D01*
X139390450Y-152522934D01*
X139247898Y-152438629D01*
X139247895Y-152438628D01*
X139088862Y-152392424D01*
X139088856Y-152392423D01*
X139051703Y-152389500D01*
X138494309Y-152389500D01*
X138494284Y-152389501D01*
X138457145Y-152392423D01*
X138298099Y-152438630D01*
X138155549Y-152522934D01*
X138155540Y-152522941D01*
X138038441Y-152640040D01*
X138038434Y-152640049D01*
X137954129Y-152782601D01*
X137954128Y-152782604D01*
X137907924Y-152941637D01*
X137907923Y-152941643D01*
X137905000Y-152978789D01*
X137905000Y-153421190D01*
X137905001Y-153421215D01*
X137907923Y-153458354D01*
X137954130Y-153617400D01*
X138038434Y-153759950D01*
X138038441Y-153759959D01*
X138155540Y-153877058D01*
X138155544Y-153877061D01*
X138155546Y-153877063D01*
X138298100Y-153961370D01*
X138340041Y-153973555D01*
X138457137Y-154007575D01*
X138457140Y-154007575D01*
X138457142Y-154007576D01*
X138494297Y-154010500D01*
X138647546Y-154010499D01*
X138714586Y-154030183D01*
X138735228Y-154046818D01*
X139034194Y-154345784D01*
X139044019Y-154358048D01*
X139044240Y-154357866D01*
X139049210Y-154363874D01*
X139098239Y-154409915D01*
X139101036Y-154412626D01*
X139120530Y-154432120D01*
X139123695Y-154434575D01*
X139132571Y-154442156D01*
X139164418Y-154472062D01*
X139164422Y-154472064D01*
X139181973Y-154481713D01*
X139198231Y-154492392D01*
X139214064Y-154504674D01*
X139249410Y-154519968D01*
X139254155Y-154522022D01*
X139264635Y-154527155D01*
X139302908Y-154548197D01*
X139322312Y-154553179D01*
X139340706Y-154559476D01*
X139359105Y-154567438D01*
X139359106Y-154567438D01*
X139362621Y-154568959D01*
X139405524Y-154599788D01*
X139437128Y-154634887D01*
X139437135Y-154634893D01*
X139590265Y-154746148D01*
X139590270Y-154746151D01*
X139763192Y-154823142D01*
X139763197Y-154823144D01*
X139948354Y-154862500D01*
X139948355Y-154862500D01*
X140137644Y-154862500D01*
X140137646Y-154862500D01*
X140322803Y-154823144D01*
X140495730Y-154746151D01*
X140648582Y-154635097D01*
X140714386Y-154611619D01*
X140782440Y-154627444D01*
X140809146Y-154647736D01*
X141301038Y-155139629D01*
X141334523Y-155200952D01*
X141336678Y-155214348D01*
X141344968Y-155293227D01*
X141354326Y-155382256D01*
X141354327Y-155382259D01*
X141412818Y-155562277D01*
X141412821Y-155562284D01*
X141507467Y-155726216D01*
X141550772Y-155774310D01*
X141582650Y-155809715D01*
X141612880Y-155872706D01*
X141614500Y-155892687D01*
X141614500Y-156335114D01*
X141612775Y-156350731D01*
X141613061Y-156350758D01*
X141612326Y-156358524D01*
X141614439Y-156425731D01*
X141614500Y-156429626D01*
X141614500Y-156457216D01*
X141615003Y-156461194D01*
X141615918Y-156472826D01*
X141617290Y-156516483D01*
X141617291Y-156516486D01*
X141622880Y-156535726D01*
X141626824Y-156554770D01*
X141629108Y-156572849D01*
X141629336Y-156574651D01*
X141645414Y-156615262D01*
X141649197Y-156626311D01*
X141656674Y-156652047D01*
X141661382Y-156668249D01*
X141661637Y-156668681D01*
X141671580Y-156685493D01*
X141680138Y-156702962D01*
X141687514Y-156721591D01*
X141713181Y-156756919D01*
X141719593Y-156766680D01*
X141741828Y-156804276D01*
X141741833Y-156804283D01*
X141755990Y-156818439D01*
X141768628Y-156833235D01*
X141780405Y-156849445D01*
X141780406Y-156849446D01*
X141814057Y-156877284D01*
X141822698Y-156885147D01*
X142472045Y-157534495D01*
X142505530Y-157595818D01*
X142507685Y-157609213D01*
X142510381Y-157634857D01*
X142520752Y-157733539D01*
X142508184Y-157802267D01*
X142460452Y-157853292D01*
X142397432Y-157870500D01*
X139641748Y-157870500D01*
X139574709Y-157850815D01*
X139549600Y-157829474D01*
X139543873Y-157823114D01*
X139543869Y-157823110D01*
X139390734Y-157711851D01*
X139390729Y-157711848D01*
X139217807Y-157634857D01*
X139217802Y-157634855D01*
X139072001Y-157603865D01*
X139032646Y-157595500D01*
X138843354Y-157595500D01*
X138810897Y-157602398D01*
X138658197Y-157634855D01*
X138658192Y-157634857D01*
X138485270Y-157711848D01*
X138485265Y-157711851D01*
X138332129Y-157823111D01*
X138205466Y-157963785D01*
X138110821Y-158127715D01*
X138110818Y-158127722D01*
X138052327Y-158307740D01*
X138052326Y-158307744D01*
X138032540Y-158496000D01*
X138052326Y-158684256D01*
X138052327Y-158684259D01*
X138110818Y-158864277D01*
X138110821Y-158864284D01*
X138205467Y-159028216D01*
X138299562Y-159132719D01*
X138332129Y-159168888D01*
X138485265Y-159280148D01*
X138485270Y-159280151D01*
X138658192Y-159357142D01*
X138658197Y-159357144D01*
X138843354Y-159396500D01*
X138843355Y-159396500D01*
X139032644Y-159396500D01*
X139032646Y-159396500D01*
X139217803Y-159357144D01*
X139390730Y-159280151D01*
X139543871Y-159168888D01*
X139546788Y-159165647D01*
X139549600Y-159162526D01*
X139609087Y-159125879D01*
X139641748Y-159121500D01*
X142666123Y-159121500D01*
X142733162Y-159141185D01*
X142773510Y-159183500D01*
X142817167Y-159259116D01*
X142836107Y-159280151D01*
X142900008Y-159351121D01*
X142930238Y-159414113D01*
X142921612Y-159483448D01*
X142895539Y-159521774D01*
X140952034Y-161465281D01*
X140890711Y-161498766D01*
X140864353Y-161501600D01*
X137112707Y-161501600D01*
X137045668Y-161481915D01*
X136999913Y-161429111D01*
X136993938Y-161408306D01*
X136992790Y-161408614D01*
X136990687Y-161400769D01*
X136990687Y-161400764D01*
X136932698Y-161260767D01*
X136840451Y-161140549D01*
X136720233Y-161048302D01*
X136720229Y-161048300D01*
X136656801Y-161022027D01*
X136580236Y-160990313D01*
X136566171Y-160988461D01*
X136467727Y-160975500D01*
X136467720Y-160975500D01*
X135942280Y-160975500D01*
X135942272Y-160975500D01*
X135829764Y-160990313D01*
X135829763Y-160990313D01*
X135689770Y-161048300D01*
X135569549Y-161140549D01*
X135477300Y-161260770D01*
X135419313Y-161400763D01*
X135419313Y-161400764D01*
X135404500Y-161513272D01*
X135404500Y-162668727D01*
X135411820Y-162724323D01*
X135419313Y-162781236D01*
X135477302Y-162921233D01*
X135569549Y-163041451D01*
X135689767Y-163133698D01*
X135829764Y-163191687D01*
X135942280Y-163206500D01*
X135942287Y-163206500D01*
X136467713Y-163206500D01*
X136467720Y-163206500D01*
X136580236Y-163191687D01*
X136720233Y-163133698D01*
X136840451Y-163041451D01*
X136932698Y-162921233D01*
X136990687Y-162781236D01*
X136990687Y-162781228D01*
X136992790Y-162773386D01*
X136995953Y-162774233D01*
X137018031Y-162724323D01*
X137076353Y-162685849D01*
X137112707Y-162680400D01*
X141113094Y-162680400D01*
X141129280Y-162681461D01*
X141159851Y-162685486D01*
X141159852Y-162685486D01*
X141159853Y-162685486D01*
X141175887Y-162683374D01*
X141313716Y-162665229D01*
X141357896Y-162646929D01*
X141457095Y-162605840D01*
X141580217Y-162511365D01*
X141598999Y-162486885D01*
X141609679Y-162474708D01*
X142845187Y-161239200D01*
X143874540Y-161239200D01*
X143894326Y-161427456D01*
X143894327Y-161427459D01*
X143952818Y-161607477D01*
X143952821Y-161607484D01*
X144047467Y-161771416D01*
X144174129Y-161912088D01*
X144327265Y-162023348D01*
X144327270Y-162023351D01*
X144500192Y-162100342D01*
X144500197Y-162100344D01*
X144685354Y-162139700D01*
X144685355Y-162139700D01*
X144874644Y-162139700D01*
X144874646Y-162139700D01*
X145059803Y-162100344D01*
X145232730Y-162023351D01*
X145385871Y-161912088D01*
X145512533Y-161771416D01*
X145607179Y-161607484D01*
X145665674Y-161427456D01*
X145685460Y-161239200D01*
X145665674Y-161050944D01*
X145607179Y-160870916D01*
X145512533Y-160706984D01*
X145385871Y-160566312D01*
X145385870Y-160566311D01*
X145232734Y-160455051D01*
X145232729Y-160455048D01*
X145059807Y-160378057D01*
X145059802Y-160378055D01*
X144914001Y-160347065D01*
X144874646Y-160338700D01*
X144685354Y-160338700D01*
X144652897Y-160345598D01*
X144500197Y-160378055D01*
X144500192Y-160378057D01*
X144327270Y-160455048D01*
X144327265Y-160455051D01*
X144174129Y-160566311D01*
X144047466Y-160706985D01*
X143952821Y-160870915D01*
X143952818Y-160870922D01*
X143918839Y-160975500D01*
X143894326Y-161050944D01*
X143874540Y-161239200D01*
X142845187Y-161239200D01*
X144655708Y-159428679D01*
X144667885Y-159417999D01*
X144692365Y-159399217D01*
X144786840Y-159276095D01*
X144846229Y-159132716D01*
X144861400Y-159017483D01*
X144866486Y-158978852D01*
X144862461Y-158948278D01*
X144861400Y-158932093D01*
X144861400Y-151271779D01*
X144881085Y-151204740D01*
X144893240Y-151188818D01*
X145004533Y-151065216D01*
X145099179Y-150901284D01*
X145157674Y-150721256D01*
X145177460Y-150533000D01*
X145157674Y-150344744D01*
X145099179Y-150164716D01*
X145004533Y-150000784D01*
X144877871Y-149860112D01*
X144862917Y-149849247D01*
X144724734Y-149748851D01*
X144724729Y-149748848D01*
X144551807Y-149671857D01*
X144551802Y-149671855D01*
X144406001Y-149640865D01*
X144366646Y-149632500D01*
X144177354Y-149632500D01*
X144144897Y-149639398D01*
X143992197Y-149671855D01*
X143992192Y-149671857D01*
X143819261Y-149748852D01*
X143814204Y-149751772D01*
X143746302Y-149768237D01*
X143715327Y-149762764D01*
X143573433Y-149718548D01*
X143573431Y-149718547D01*
X143573429Y-149718547D01*
X143526835Y-149714313D01*
X143506881Y-149712500D01*
X143506878Y-149712500D01*
X143005111Y-149712500D01*
X142938573Y-149718546D01*
X142938566Y-149718548D01*
X142785433Y-149766265D01*
X142785429Y-149766267D01*
X142648170Y-149849242D01*
X142648165Y-149849246D01*
X142534746Y-149962665D01*
X142534742Y-149962670D01*
X142451767Y-150099929D01*
X142451765Y-150099933D01*
X142404048Y-150253065D01*
X142398000Y-150319621D01*
X142398000Y-150746388D01*
X142404046Y-150812926D01*
X142404048Y-150812933D01*
X142451765Y-150966066D01*
X142451767Y-150966070D01*
X142534742Y-151103329D01*
X142534746Y-151103334D01*
X142648165Y-151216753D01*
X142648170Y-151216757D01*
X142734330Y-151268842D01*
X142781518Y-151320369D01*
X142793357Y-151389229D01*
X142766089Y-151453557D01*
X142708370Y-151492932D01*
X142667393Y-151497216D01*
X142667393Y-151498666D01*
X142588924Y-151498666D01*
X142521885Y-151478981D01*
X142501243Y-151462347D01*
X142368108Y-151329212D01*
X142358285Y-151316950D01*
X142358064Y-151317134D01*
X142353091Y-151311122D01*
X142304081Y-151265099D01*
X142301282Y-151262386D01*
X142281782Y-151242885D01*
X142281776Y-151242880D01*
X142278591Y-151240409D01*
X142269739Y-151232848D01*
X142237887Y-151202938D01*
X142237885Y-151202936D01*
X142237882Y-151202935D01*
X142220334Y-151193288D01*
X142204068Y-151182604D01*
X142188237Y-151170324D01*
X142148154Y-151152978D01*
X142137668Y-151147841D01*
X142099399Y-151126803D01*
X142099397Y-151126802D01*
X142079998Y-151121822D01*
X142061586Y-151115518D01*
X142043203Y-151107562D01*
X142043197Y-151107560D01*
X142000065Y-151100729D01*
X141988627Y-151098361D01*
X141946325Y-151087500D01*
X141946324Y-151087500D01*
X141926289Y-151087500D01*
X141906891Y-151085973D01*
X141899467Y-151084797D01*
X141887110Y-151082840D01*
X141887107Y-151082839D01*
X141872399Y-151084230D01*
X141803805Y-151070940D01*
X141773051Y-151048461D01*
X141327019Y-150602428D01*
X141293534Y-150541105D01*
X141290700Y-150514747D01*
X141290700Y-147698743D01*
X141310385Y-147631704D01*
X141327019Y-147611062D01*
X141898188Y-147039892D01*
X141910442Y-147030077D01*
X141910259Y-147029855D01*
X141916268Y-147024882D01*
X141916277Y-147024877D01*
X141962349Y-146975813D01*
X141964966Y-146973114D01*
X141984520Y-146953562D01*
X141986976Y-146950394D01*
X141994556Y-146941518D01*
X142024462Y-146909673D01*
X142034113Y-146892115D01*
X142044796Y-146875852D01*
X142057073Y-146860027D01*
X142074421Y-146819935D01*
X142079551Y-146809462D01*
X142100597Y-146771183D01*
X142105580Y-146751771D01*
X142111881Y-146733371D01*
X142119837Y-146714987D01*
X142126670Y-146671839D01*
X142129033Y-146660429D01*
X142139900Y-146618110D01*
X142139900Y-146598074D01*
X142141427Y-146578673D01*
X142144560Y-146558895D01*
X142140450Y-146515415D01*
X142139900Y-146503746D01*
X142139900Y-146038583D01*
X142159585Y-145971544D01*
X142212389Y-145925789D01*
X142281547Y-145915845D01*
X142345103Y-145944870D01*
X142351581Y-145950902D01*
X148670781Y-152270102D01*
X148704266Y-152331425D01*
X148707100Y-152357783D01*
X148707100Y-152680121D01*
X148707060Y-152683261D01*
X148704843Y-152770762D01*
X148704843Y-152770771D01*
X148715248Y-152828820D01*
X148716556Y-152838148D01*
X148722525Y-152896830D01*
X148722527Y-152896844D01*
X148731633Y-152925868D01*
X148735372Y-152941101D01*
X148740742Y-152971053D01*
X148740742Y-152971055D01*
X148762620Y-153025824D01*
X148765777Y-153034692D01*
X148783441Y-153090988D01*
X148783442Y-153090989D01*
X148783444Y-153090995D01*
X148798203Y-153117585D01*
X148804936Y-153131761D01*
X148816222Y-153160014D01*
X148816227Y-153160024D01*
X148848680Y-153209266D01*
X148853562Y-153217323D01*
X148882188Y-153268898D01*
X148882189Y-153268900D01*
X148882191Y-153268902D01*
X148902010Y-153291988D01*
X148911455Y-153304515D01*
X148928199Y-153329921D01*
X148969899Y-153371620D01*
X148976304Y-153378531D01*
X149012937Y-153421202D01*
X149014734Y-153423295D01*
X149038787Y-153441913D01*
X149050568Y-153452289D01*
X149133181Y-153534902D01*
X149166666Y-153596225D01*
X149169500Y-153622583D01*
X149169500Y-170899617D01*
X149149815Y-170966656D01*
X149126033Y-170993906D01*
X149096841Y-171018839D01*
X148942170Y-171199934D01*
X148942169Y-171199935D01*
X148817738Y-171402988D01*
X148726600Y-171623016D01*
X148671006Y-171854585D01*
X148652322Y-172092000D01*
X148671006Y-172329414D01*
X148726600Y-172560983D01*
X148817738Y-172781011D01*
X148942169Y-172984064D01*
X148942170Y-172984065D01*
X148942171Y-172984067D01*
X148942173Y-172984069D01*
X149096840Y-173165160D01*
X149277931Y-173319827D01*
X149277933Y-173319828D01*
X149277934Y-173319829D01*
X149277935Y-173319830D01*
X149480988Y-173444261D01*
X149566078Y-173479506D01*
X149701012Y-173535398D01*
X149932583Y-173590993D01*
X150170000Y-173609678D01*
X150407417Y-173590993D01*
X150638988Y-173535398D01*
X150859011Y-173444261D01*
X151062069Y-173319827D01*
X151243160Y-173165160D01*
X151397827Y-172984069D01*
X151522261Y-172781011D01*
X151613398Y-172560988D01*
X151668993Y-172329417D01*
X151687678Y-172092000D01*
X151668993Y-171854583D01*
X151613398Y-171623012D01*
X151522261Y-171402989D01*
X151522261Y-171402988D01*
X151397830Y-171199935D01*
X151397829Y-171199934D01*
X151397828Y-171199933D01*
X151397827Y-171199931D01*
X151243160Y-171018840D01*
X151227625Y-171005571D01*
X151213967Y-170993906D01*
X151175775Y-170935398D01*
X151170500Y-170899617D01*
X151170500Y-153622583D01*
X151190185Y-153555544D01*
X151206819Y-153534902D01*
X151252863Y-153488858D01*
X151314540Y-153427181D01*
X151314540Y-153427180D01*
X152016101Y-152725619D01*
X152077424Y-152692134D01*
X152103782Y-152689300D01*
X157364121Y-152689300D01*
X157367263Y-152689340D01*
X157454758Y-152691557D01*
X157454758Y-152691556D01*
X157454763Y-152691557D01*
X157512825Y-152681149D01*
X157522154Y-152679841D01*
X157580838Y-152673874D01*
X157609871Y-152664764D01*
X157625100Y-152661026D01*
X157655053Y-152655658D01*
X157655057Y-152655656D01*
X157655059Y-152655656D01*
X157709823Y-152633780D01*
X157718692Y-152630621D01*
X157774988Y-152612959D01*
X157801600Y-152598187D01*
X157815762Y-152591462D01*
X157844017Y-152580177D01*
X157893279Y-152547709D01*
X157901310Y-152542843D01*
X157952902Y-152514209D01*
X157952909Y-152514202D01*
X157952912Y-152514201D01*
X157975983Y-152494394D01*
X157988525Y-152484937D01*
X158013919Y-152468202D01*
X158055637Y-152426482D01*
X158062522Y-152420101D01*
X158107295Y-152381666D01*
X158125920Y-152357602D01*
X158136280Y-152345839D01*
X158528140Y-151953981D01*
X158624498Y-151835807D01*
X158718709Y-151655449D01*
X158760284Y-151510149D01*
X158797652Y-151451113D01*
X158861005Y-151421649D01*
X158930231Y-151431114D01*
X158983350Y-151476503D01*
X159003497Y-151543405D01*
X159003500Y-151544262D01*
X159003500Y-191495900D01*
X158983815Y-191562939D01*
X158931011Y-191608694D01*
X158879500Y-191619900D01*
X127886500Y-191619900D01*
X127819461Y-191600215D01*
X127773706Y-191547411D01*
X127762500Y-191495900D01*
X127762500Y-188484963D01*
X129108187Y-188484963D01*
X129137813Y-188754213D01*
X129137815Y-188754224D01*
X129206326Y-189016282D01*
X129206328Y-189016288D01*
X129312270Y-189265590D01*
X129384398Y-189383775D01*
X129453379Y-189496805D01*
X129453386Y-189496815D01*
X129626653Y-189705019D01*
X129626659Y-189705024D01*
X129828398Y-189885782D01*
X130054310Y-190035244D01*
X130299576Y-190150220D01*
X130299583Y-190150222D01*
X130299585Y-190150223D01*
X130558957Y-190228257D01*
X130558964Y-190228258D01*
X130558969Y-190228260D01*
X130826961Y-190267700D01*
X130826966Y-190267700D01*
X131030029Y-190267700D01*
X131030031Y-190267700D01*
X131030036Y-190267699D01*
X131030048Y-190267699D01*
X131067591Y-190264950D01*
X131232556Y-190252877D01*
X131345158Y-190227793D01*
X131496946Y-190193982D01*
X131496948Y-190193981D01*
X131496953Y-190193980D01*
X131749958Y-190097214D01*
X131986177Y-189964641D01*
X132200577Y-189799088D01*
X132388586Y-189604081D01*
X132546199Y-189383779D01*
X132620187Y-189239869D01*
X132670049Y-189142890D01*
X132670051Y-189142884D01*
X132670056Y-189142875D01*
X132757518Y-188886505D01*
X132806719Y-188620133D01*
X132811659Y-188484963D01*
X153949387Y-188484963D01*
X153979013Y-188754213D01*
X153979015Y-188754224D01*
X154047526Y-189016282D01*
X154047528Y-189016288D01*
X154153470Y-189265590D01*
X154225598Y-189383775D01*
X154294579Y-189496805D01*
X154294586Y-189496815D01*
X154467853Y-189705019D01*
X154467859Y-189705024D01*
X154669598Y-189885782D01*
X154895510Y-190035244D01*
X155140776Y-190150220D01*
X155140783Y-190150222D01*
X155140785Y-190150223D01*
X155400157Y-190228257D01*
X155400164Y-190228258D01*
X155400169Y-190228260D01*
X155668161Y-190267700D01*
X155668166Y-190267700D01*
X155871229Y-190267700D01*
X155871231Y-190267700D01*
X155871236Y-190267699D01*
X155871248Y-190267699D01*
X155908791Y-190264950D01*
X156073756Y-190252877D01*
X156186358Y-190227793D01*
X156338146Y-190193982D01*
X156338148Y-190193981D01*
X156338153Y-190193980D01*
X156591158Y-190097214D01*
X156827377Y-189964641D01*
X157041777Y-189799088D01*
X157229786Y-189604081D01*
X157387399Y-189383779D01*
X157461387Y-189239869D01*
X157511249Y-189142890D01*
X157511251Y-189142884D01*
X157511256Y-189142875D01*
X157598718Y-188886505D01*
X157647919Y-188620133D01*
X157657812Y-188349435D01*
X157628186Y-188080182D01*
X157559672Y-187818112D01*
X157453730Y-187568810D01*
X157312618Y-187337590D01*
X157223347Y-187230319D01*
X157139346Y-187129380D01*
X157139340Y-187129375D01*
X156937602Y-186948618D01*
X156711692Y-186799157D01*
X156711690Y-186799156D01*
X156466424Y-186684180D01*
X156466419Y-186684178D01*
X156466414Y-186684176D01*
X156207042Y-186606142D01*
X156207028Y-186606139D01*
X156091391Y-186589121D01*
X155939039Y-186566700D01*
X155735969Y-186566700D01*
X155735951Y-186566700D01*
X155533444Y-186581523D01*
X155533431Y-186581525D01*
X155269053Y-186640417D01*
X155269046Y-186640420D01*
X155016039Y-186737187D01*
X154779826Y-186869757D01*
X154565422Y-187035312D01*
X154377422Y-187230309D01*
X154377416Y-187230316D01*
X154219802Y-187450619D01*
X154219799Y-187450624D01*
X154095950Y-187691509D01*
X154095943Y-187691527D01*
X154008484Y-187947885D01*
X154008481Y-187947899D01*
X153959281Y-188214268D01*
X153959280Y-188214275D01*
X153949387Y-188484963D01*
X132811659Y-188484963D01*
X132816612Y-188349435D01*
X132786986Y-188080182D01*
X132718472Y-187818112D01*
X132612530Y-187568810D01*
X132471418Y-187337590D01*
X132382147Y-187230319D01*
X132298146Y-187129380D01*
X132298140Y-187129375D01*
X132096402Y-186948618D01*
X131870492Y-186799157D01*
X131870490Y-186799156D01*
X131625224Y-186684180D01*
X131625219Y-186684178D01*
X131625214Y-186684176D01*
X131365842Y-186606142D01*
X131365828Y-186606139D01*
X131250191Y-186589121D01*
X131097839Y-186566700D01*
X130894769Y-186566700D01*
X130894751Y-186566700D01*
X130692244Y-186581523D01*
X130692231Y-186581525D01*
X130427853Y-186640417D01*
X130427846Y-186640420D01*
X130174839Y-186737187D01*
X129938626Y-186869757D01*
X129724222Y-187035312D01*
X129536222Y-187230309D01*
X129536216Y-187230316D01*
X129378602Y-187450619D01*
X129378599Y-187450624D01*
X129254750Y-187691509D01*
X129254743Y-187691527D01*
X129167284Y-187947885D01*
X129167281Y-187947899D01*
X129118081Y-188214268D01*
X129118080Y-188214275D01*
X129108187Y-188484963D01*
X127762500Y-188484963D01*
X127762500Y-177292005D01*
X135679443Y-177292005D01*
X135699634Y-177535683D01*
X135699636Y-177535695D01*
X135759663Y-177772734D01*
X135857888Y-177996666D01*
X135991632Y-178201378D01*
X136157242Y-178381277D01*
X136157246Y-178381281D01*
X136350212Y-178531473D01*
X136565267Y-178647855D01*
X136565270Y-178647856D01*
X136796541Y-178727251D01*
X136796543Y-178727251D01*
X136796545Y-178727252D01*
X137037737Y-178767500D01*
X137037738Y-178767500D01*
X137282262Y-178767500D01*
X137282263Y-178767500D01*
X137523455Y-178727252D01*
X137754733Y-178647855D01*
X137969788Y-178531473D01*
X138162754Y-178381281D01*
X138328368Y-178201377D01*
X138462111Y-177996667D01*
X138560336Y-177772736D01*
X138620364Y-177535692D01*
X138640557Y-177292000D01*
X138620364Y-177048308D01*
X138560336Y-176811264D01*
X138462111Y-176587333D01*
X138328368Y-176382623D01*
X138328367Y-176382621D01*
X138162757Y-176202722D01*
X138162747Y-176202713D01*
X137969791Y-176052529D01*
X137969787Y-176052526D01*
X137754734Y-175936145D01*
X137754729Y-175936143D01*
X137523458Y-175856748D01*
X137342561Y-175826562D01*
X137282263Y-175816500D01*
X137037737Y-175816500D01*
X136989498Y-175824549D01*
X136796541Y-175856748D01*
X136565270Y-175936143D01*
X136565265Y-175936145D01*
X136350212Y-176052526D01*
X136350208Y-176052529D01*
X136157252Y-176202713D01*
X136157242Y-176202722D01*
X135991632Y-176382621D01*
X135857888Y-176587333D01*
X135759663Y-176811265D01*
X135699636Y-177048304D01*
X135699634Y-177048316D01*
X135679443Y-177291994D01*
X135679443Y-177292005D01*
X127762500Y-177292005D01*
X127762500Y-172092005D01*
X132179443Y-172092005D01*
X132199634Y-172335683D01*
X132199636Y-172335695D01*
X132259663Y-172572734D01*
X132357888Y-172796666D01*
X132491632Y-173001378D01*
X132657242Y-173181277D01*
X132657246Y-173181281D01*
X132850212Y-173331473D01*
X133065267Y-173447855D01*
X133065270Y-173447856D01*
X133296541Y-173527251D01*
X133296543Y-173527251D01*
X133296545Y-173527252D01*
X133537737Y-173567500D01*
X133537738Y-173567500D01*
X133782262Y-173567500D01*
X133782263Y-173567500D01*
X134023455Y-173527252D01*
X134254733Y-173447855D01*
X134469788Y-173331473D01*
X134662754Y-173181281D01*
X134828368Y-173001377D01*
X134962111Y-172796667D01*
X135060336Y-172572736D01*
X135120364Y-172335692D01*
X135140557Y-172092000D01*
X135120364Y-171848308D01*
X135060336Y-171611264D01*
X134962111Y-171387333D01*
X134828367Y-171182621D01*
X134662757Y-171002722D01*
X134662747Y-171002713D01*
X134469791Y-170852529D01*
X134469787Y-170852526D01*
X134254734Y-170736145D01*
X134254729Y-170736143D01*
X134023458Y-170656748D01*
X133842561Y-170626562D01*
X133782263Y-170616500D01*
X133537737Y-170616500D01*
X133489498Y-170624549D01*
X133296541Y-170656748D01*
X133065270Y-170736143D01*
X133065265Y-170736145D01*
X132850212Y-170852526D01*
X132850208Y-170852529D01*
X132657252Y-171002713D01*
X132657242Y-171002722D01*
X132491632Y-171182621D01*
X132357888Y-171387333D01*
X132259663Y-171611265D01*
X132199636Y-171848304D01*
X132199634Y-171848316D01*
X132179443Y-172091994D01*
X132179443Y-172092005D01*
X127762500Y-172092005D01*
X127762500Y-162179000D01*
X131428540Y-162179000D01*
X131448326Y-162367256D01*
X131448327Y-162367259D01*
X131506818Y-162547277D01*
X131506821Y-162547284D01*
X131601467Y-162711216D01*
X131728129Y-162851888D01*
X131881265Y-162963148D01*
X131881270Y-162963151D01*
X132054192Y-163040142D01*
X132054197Y-163040144D01*
X132239354Y-163079500D01*
X132239355Y-163079500D01*
X132428644Y-163079500D01*
X132428646Y-163079500D01*
X132613803Y-163040144D01*
X132786730Y-162963151D01*
X132788776Y-162961664D01*
X132800452Y-162953182D01*
X132866258Y-162929702D01*
X132873337Y-162929500D01*
X133522496Y-162929500D01*
X133589535Y-162949185D01*
X133620869Y-162978010D01*
X133669549Y-163041451D01*
X133789767Y-163133698D01*
X133929764Y-163191687D01*
X134042280Y-163206500D01*
X134042287Y-163206500D01*
X134567713Y-163206500D01*
X134567720Y-163206500D01*
X134680236Y-163191687D01*
X134820233Y-163133698D01*
X134940451Y-163041451D01*
X135032698Y-162921233D01*
X135090687Y-162781236D01*
X135105500Y-162668720D01*
X135105500Y-161513280D01*
X135090687Y-161400764D01*
X135032698Y-161260767D01*
X134940451Y-161140549D01*
X134820233Y-161048302D01*
X134820229Y-161048300D01*
X134756801Y-161022027D01*
X134680236Y-160990313D01*
X134666171Y-160988461D01*
X134567727Y-160975500D01*
X134567720Y-160975500D01*
X134042280Y-160975500D01*
X134042272Y-160975500D01*
X133929764Y-160990313D01*
X133929763Y-160990313D01*
X133789770Y-161048300D01*
X133669549Y-161140549D01*
X133577300Y-161260770D01*
X133539531Y-161351953D01*
X133495690Y-161406356D01*
X133429396Y-161428421D01*
X133424970Y-161428500D01*
X132873337Y-161428500D01*
X132806298Y-161408815D01*
X132800452Y-161404818D01*
X132786734Y-161394851D01*
X132786729Y-161394848D01*
X132613807Y-161317857D01*
X132613802Y-161317855D01*
X132468001Y-161286865D01*
X132428646Y-161278500D01*
X132239354Y-161278500D01*
X132206897Y-161285398D01*
X132054197Y-161317855D01*
X132054192Y-161317857D01*
X131881270Y-161394848D01*
X131881265Y-161394851D01*
X131728129Y-161506111D01*
X131601466Y-161646785D01*
X131506821Y-161810715D01*
X131506818Y-161810722D01*
X131448327Y-161990740D01*
X131448326Y-161990744D01*
X131428540Y-162179000D01*
X127762500Y-162179000D01*
X127762500Y-143383000D01*
X129250432Y-143383000D01*
X129270266Y-143609705D01*
X129270268Y-143609715D01*
X129329164Y-143829523D01*
X129329166Y-143829527D01*
X129329167Y-143829531D01*
X129377256Y-143932657D01*
X129425344Y-144035783D01*
X129425345Y-144035785D01*
X129555873Y-144222198D01*
X129555877Y-144222203D01*
X129716797Y-144383123D01*
X129716799Y-144383124D01*
X129716801Y-144383126D01*
X129741175Y-144400193D01*
X129784800Y-144454770D01*
X129791994Y-144524268D01*
X129760471Y-144586623D01*
X129700241Y-144622037D01*
X129683307Y-144625058D01*
X129648416Y-144628809D01*
X129513571Y-144679102D01*
X129513564Y-144679106D01*
X129398355Y-144765352D01*
X129398352Y-144765355D01*
X129312106Y-144880564D01*
X129312102Y-144880571D01*
X129261808Y-145015417D01*
X129255401Y-145075016D01*
X129255401Y-145075023D01*
X129255400Y-145075035D01*
X129255400Y-146770970D01*
X129255401Y-146770976D01*
X129261808Y-146830583D01*
X129312102Y-146965428D01*
X129312106Y-146965435D01*
X129398352Y-147080644D01*
X129398355Y-147080647D01*
X129513564Y-147166893D01*
X129513571Y-147166897D01*
X129648417Y-147217191D01*
X129648416Y-147217191D01*
X129655344Y-147217935D01*
X129708027Y-147223600D01*
X131403972Y-147223599D01*
X131463583Y-147217191D01*
X131598431Y-147166896D01*
X131713646Y-147080646D01*
X131799896Y-146965431D01*
X131850191Y-146830583D01*
X131856600Y-146770973D01*
X131856599Y-145075028D01*
X131850191Y-145015417D01*
X131799896Y-144880569D01*
X131799895Y-144880568D01*
X131799893Y-144880564D01*
X131713647Y-144765355D01*
X131713644Y-144765352D01*
X131598435Y-144679106D01*
X131598428Y-144679102D01*
X131463583Y-144628808D01*
X131428690Y-144625057D01*
X131364140Y-144598318D01*
X131324292Y-144540926D01*
X131321799Y-144471100D01*
X131357452Y-144411012D01*
X131370818Y-144400196D01*
X131395203Y-144383123D01*
X131556123Y-144222203D01*
X131686655Y-144035784D01*
X131782833Y-143829531D01*
X131841733Y-143609710D01*
X131861568Y-143383000D01*
X131841733Y-143156290D01*
X131782833Y-142936469D01*
X131686655Y-142730216D01*
X131683832Y-142726185D01*
X131556126Y-142543801D01*
X131556121Y-142543795D01*
X131395204Y-142382878D01*
X131395198Y-142382873D01*
X131208785Y-142252345D01*
X131208783Y-142252344D01*
X131150962Y-142225382D01*
X131098523Y-142179210D01*
X131079371Y-142112016D01*
X131099587Y-142045135D01*
X131150962Y-142000618D01*
X131208784Y-141973655D01*
X131395203Y-141843123D01*
X131556123Y-141682203D01*
X131686655Y-141495784D01*
X131782833Y-141289531D01*
X131841733Y-141069710D01*
X131861568Y-140843000D01*
X131841733Y-140616290D01*
X131782833Y-140396469D01*
X131686655Y-140190216D01*
X131683597Y-140185849D01*
X131556126Y-140003801D01*
X131556121Y-140003795D01*
X131395204Y-139842878D01*
X131395198Y-139842873D01*
X131208785Y-139712345D01*
X131208783Y-139712344D01*
X131105657Y-139664256D01*
X131002531Y-139616167D01*
X131002527Y-139616166D01*
X131002523Y-139616164D01*
X130782715Y-139557268D01*
X130782705Y-139557266D01*
X130556001Y-139537432D01*
X130555999Y-139537432D01*
X130329294Y-139557266D01*
X130329284Y-139557268D01*
X130109476Y-139616164D01*
X130109467Y-139616168D01*
X129903216Y-139712344D01*
X129903214Y-139712345D01*
X129716801Y-139842873D01*
X129716795Y-139842878D01*
X129555878Y-140003795D01*
X129555873Y-140003801D01*
X129425345Y-140190214D01*
X129425344Y-140190216D01*
X129329168Y-140396467D01*
X129329164Y-140396476D01*
X129270268Y-140616284D01*
X129270266Y-140616294D01*
X129250432Y-140842999D01*
X129250432Y-140843000D01*
X129270266Y-141069705D01*
X129270268Y-141069715D01*
X129329164Y-141289523D01*
X129329166Y-141289527D01*
X129329167Y-141289531D01*
X129351898Y-141338277D01*
X129425344Y-141495783D01*
X129425345Y-141495785D01*
X129555873Y-141682198D01*
X129555878Y-141682204D01*
X129716795Y-141843121D01*
X129716801Y-141843126D01*
X129903214Y-141973654D01*
X129903216Y-141973655D01*
X129961037Y-142000618D01*
X130013476Y-142046791D01*
X130032628Y-142113984D01*
X130012412Y-142180866D01*
X129961037Y-142225382D01*
X129903216Y-142252344D01*
X129903214Y-142252345D01*
X129716801Y-142382873D01*
X129716795Y-142382878D01*
X129555878Y-142543795D01*
X129555873Y-142543801D01*
X129425345Y-142730214D01*
X129425344Y-142730216D01*
X129329168Y-142936467D01*
X129329164Y-142936476D01*
X129270268Y-143156284D01*
X129270266Y-143156294D01*
X129250432Y-143382999D01*
X129250432Y-143383000D01*
X127762500Y-143383000D01*
X127762500Y-119200901D01*
X133607918Y-119200901D01*
X133628555Y-119357660D01*
X133628556Y-119357662D01*
X133689064Y-119503741D01*
X133785318Y-119629182D01*
X133910759Y-119725436D01*
X134056838Y-119785944D01*
X134174239Y-119801400D01*
X134174246Y-119801400D01*
X134252954Y-119801400D01*
X134252961Y-119801400D01*
X134370362Y-119785944D01*
X134516441Y-119725436D01*
X134641882Y-119629182D01*
X134738136Y-119503741D01*
X134798644Y-119357662D01*
X134812402Y-119253154D01*
X134819282Y-119200901D01*
X134819282Y-119200898D01*
X134798644Y-119044139D01*
X134798644Y-119044138D01*
X134738136Y-118898059D01*
X134641882Y-118772618D01*
X134516441Y-118676364D01*
X134370362Y-118615856D01*
X134370360Y-118615855D01*
X134252970Y-118600401D01*
X134252967Y-118600400D01*
X134252961Y-118600400D01*
X134174239Y-118600400D01*
X134174233Y-118600400D01*
X134174229Y-118600401D01*
X134056839Y-118615855D01*
X134056837Y-118615856D01*
X133910760Y-118676363D01*
X133785318Y-118772618D01*
X133689063Y-118898060D01*
X133628556Y-119044137D01*
X133628555Y-119044139D01*
X133607918Y-119200898D01*
X133607918Y-119200901D01*
X127762500Y-119200901D01*
X127762500Y-113420901D01*
X133607918Y-113420901D01*
X133628555Y-113577660D01*
X133628556Y-113577662D01*
X133689064Y-113723741D01*
X133785318Y-113849182D01*
X133910759Y-113945436D01*
X134056838Y-114005944D01*
X134174239Y-114021400D01*
X134174246Y-114021400D01*
X134252954Y-114021400D01*
X134252961Y-114021400D01*
X134370362Y-114005944D01*
X134516441Y-113945436D01*
X134641882Y-113849182D01*
X134738136Y-113723741D01*
X134798644Y-113577662D01*
X134812402Y-113473154D01*
X134819282Y-113420901D01*
X134819282Y-113420898D01*
X134798644Y-113264139D01*
X134798644Y-113264138D01*
X134738136Y-113118059D01*
X134641882Y-112992618D01*
X134516441Y-112896364D01*
X134370362Y-112835856D01*
X134370360Y-112835855D01*
X134252970Y-112820401D01*
X134252967Y-112820400D01*
X134252961Y-112820400D01*
X134174239Y-112820400D01*
X134174233Y-112820400D01*
X134174229Y-112820401D01*
X134056839Y-112835855D01*
X134056837Y-112835856D01*
X133910760Y-112896363D01*
X133785318Y-112992618D01*
X133689063Y-113118060D01*
X133628556Y-113264137D01*
X133628555Y-113264139D01*
X133607918Y-113420898D01*
X133607918Y-113420901D01*
X127762500Y-113420901D01*
X127762500Y-110845603D01*
X129668478Y-110845603D01*
X129686907Y-111009174D01*
X129741276Y-111164553D01*
X129741277Y-111164555D01*
X129741278Y-111164557D01*
X129828858Y-111303941D01*
X129945259Y-111420342D01*
X130084643Y-111507922D01*
X130240020Y-111562291D01*
X130240023Y-111562291D01*
X130240025Y-111562292D01*
X130403596Y-111580722D01*
X130403600Y-111580722D01*
X130403604Y-111580722D01*
X130567174Y-111562292D01*
X130567175Y-111562291D01*
X130567180Y-111562291D01*
X130722557Y-111507922D01*
X130808365Y-111454005D01*
X130874336Y-111435000D01*
X134973829Y-111435000D01*
X135040868Y-111454685D01*
X135061510Y-111471319D01*
X135848481Y-112258290D01*
X135881966Y-112319613D01*
X135884800Y-112345971D01*
X135884800Y-113448264D01*
X135865794Y-113514236D01*
X135811877Y-113600044D01*
X135757507Y-113755425D01*
X135739078Y-113918996D01*
X135739078Y-113919003D01*
X135757507Y-114082574D01*
X135811877Y-114237956D01*
X135865794Y-114323764D01*
X135884800Y-114389736D01*
X135884800Y-118274264D01*
X135865794Y-118340236D01*
X135811877Y-118426044D01*
X135757507Y-118581425D01*
X135739078Y-118744996D01*
X135739078Y-118745003D01*
X135757507Y-118908574D01*
X135811876Y-119063953D01*
X135811877Y-119063955D01*
X135811878Y-119063957D01*
X135891194Y-119190189D01*
X135910200Y-119256160D01*
X135910200Y-120153864D01*
X135891194Y-120219836D01*
X135837277Y-120305644D01*
X135782907Y-120461025D01*
X135764478Y-120624596D01*
X135764478Y-120624603D01*
X135782907Y-120788174D01*
X135837276Y-120943553D01*
X135837277Y-120943555D01*
X135837278Y-120943557D01*
X135924858Y-121082941D01*
X136041259Y-121199342D01*
X136180643Y-121286922D01*
X136336020Y-121341291D01*
X136336023Y-121341291D01*
X136336025Y-121341292D01*
X136499596Y-121359722D01*
X136499600Y-121359722D01*
X136499604Y-121359722D01*
X136663174Y-121341292D01*
X136663175Y-121341291D01*
X136663180Y-121341291D01*
X136818557Y-121286922D01*
X136957941Y-121199342D01*
X137074342Y-121082941D01*
X137161922Y-120943557D01*
X137216291Y-120788180D01*
X137234722Y-120624600D01*
X137227403Y-120559646D01*
X137216292Y-120461025D01*
X137216291Y-120461023D01*
X137216291Y-120461020D01*
X137161922Y-120305643D01*
X137108005Y-120219834D01*
X137089000Y-120153864D01*
X137089000Y-119175312D01*
X137108006Y-119109340D01*
X137136522Y-119063957D01*
X137190891Y-118908580D01*
X137190892Y-118908574D01*
X137209322Y-118745003D01*
X137209322Y-118744996D01*
X137190892Y-118581425D01*
X137190891Y-118581423D01*
X137190891Y-118581420D01*
X137136522Y-118426043D01*
X137082605Y-118340234D01*
X137063600Y-118274264D01*
X137063600Y-117897290D01*
X137083285Y-117830251D01*
X137136089Y-117784496D01*
X137205247Y-117774552D01*
X137268803Y-117803577D01*
X137292594Y-117831319D01*
X137372655Y-117958738D01*
X137372658Y-117958741D01*
X137489059Y-118075142D01*
X137628443Y-118162722D01*
X137783820Y-118217091D01*
X137783823Y-118217091D01*
X137783825Y-118217092D01*
X137947396Y-118235522D01*
X137947400Y-118235522D01*
X137947404Y-118235522D01*
X138110974Y-118217092D01*
X138110975Y-118217091D01*
X138110980Y-118217091D01*
X138266357Y-118162722D01*
X138405741Y-118075142D01*
X138522142Y-117958741D01*
X138609722Y-117819357D01*
X138664091Y-117663980D01*
X138675423Y-117563407D01*
X138682522Y-117500403D01*
X138682522Y-117500396D01*
X138664092Y-117336825D01*
X138664091Y-117336823D01*
X138664091Y-117336820D01*
X138609722Y-117181443D01*
X138522142Y-117042059D01*
X138405741Y-116925658D01*
X138266357Y-116838078D01*
X138266356Y-116838077D01*
X138266355Y-116838077D01*
X138266353Y-116838076D01*
X138110974Y-116783707D01*
X137947404Y-116765278D01*
X137947396Y-116765278D01*
X137783825Y-116783707D01*
X137628446Y-116838076D01*
X137628444Y-116838077D01*
X137489058Y-116925658D01*
X137372658Y-117042058D01*
X137292594Y-117169481D01*
X137240259Y-117215772D01*
X137171206Y-117226420D01*
X137107357Y-117198045D01*
X137068985Y-117139656D01*
X137063600Y-117103509D01*
X137063600Y-114389736D01*
X137082606Y-114323764D01*
X137100896Y-114294656D01*
X137136522Y-114237957D01*
X137190891Y-114082580D01*
X137194252Y-114052749D01*
X137209322Y-113919003D01*
X137209322Y-113918996D01*
X137190892Y-113755425D01*
X137190891Y-113755423D01*
X137190891Y-113755420D01*
X137136522Y-113600043D01*
X137082605Y-113514234D01*
X137063600Y-113448264D01*
X137063600Y-112097230D01*
X137064661Y-112081044D01*
X137068686Y-112050472D01*
X137067424Y-112040889D01*
X137048429Y-111896607D01*
X137011429Y-111807282D01*
X136998017Y-111774903D01*
X136989041Y-111753231D01*
X136989040Y-111753230D01*
X136989040Y-111753229D01*
X136934262Y-111681841D01*
X136918285Y-111661019D01*
X136918283Y-111661017D01*
X136894565Y-111630107D01*
X136894564Y-111630106D01*
X136870095Y-111611330D01*
X136857902Y-111600636D01*
X135719162Y-110461897D01*
X135708473Y-110449710D01*
X135689693Y-110425235D01*
X135566571Y-110330760D01*
X135565678Y-110330390D01*
X135423191Y-110271370D01*
X135423192Y-110271370D01*
X135419303Y-110270859D01*
X135419299Y-110270857D01*
X135419295Y-110270858D01*
X135269329Y-110251114D01*
X135269327Y-110251114D01*
X135238756Y-110255139D01*
X135222570Y-110256200D01*
X130874336Y-110256200D01*
X130808365Y-110237194D01*
X130722557Y-110183278D01*
X130722556Y-110183277D01*
X130722555Y-110183277D01*
X130567174Y-110128907D01*
X130403604Y-110110478D01*
X130403596Y-110110478D01*
X130240025Y-110128907D01*
X130084646Y-110183276D01*
X130084644Y-110183277D01*
X129945258Y-110270858D01*
X129828858Y-110387258D01*
X129741277Y-110526644D01*
X129741276Y-110526646D01*
X129686907Y-110682025D01*
X129668478Y-110845596D01*
X129668478Y-110845603D01*
X127762500Y-110845603D01*
X127762500Y-106908601D01*
X132059727Y-106908601D01*
X132078781Y-107126396D01*
X132078783Y-107126407D01*
X132135366Y-107337579D01*
X132135368Y-107337583D01*
X132135369Y-107337587D01*
X132178847Y-107430825D01*
X132227768Y-107535737D01*
X132227770Y-107535741D01*
X132353167Y-107714826D01*
X132353172Y-107714832D01*
X132507767Y-107869427D01*
X132507773Y-107869432D01*
X132686858Y-107994829D01*
X132686860Y-107994830D01*
X132686863Y-107994832D01*
X132885013Y-108087231D01*
X133096198Y-108143818D01*
X133251770Y-108157428D01*
X133313998Y-108162873D01*
X133314000Y-108162873D01*
X133314002Y-108162873D01*
X133368450Y-108158109D01*
X133531802Y-108143818D01*
X133742987Y-108087231D01*
X133941137Y-107994832D01*
X134120231Y-107869429D01*
X134274829Y-107714831D01*
X134400232Y-107535737D01*
X134492631Y-107337587D01*
X134549218Y-107126402D01*
X134568273Y-106908600D01*
X134549218Y-106690798D01*
X134492631Y-106479613D01*
X134400232Y-106281464D01*
X134274829Y-106102369D01*
X134120231Y-105947771D01*
X134120227Y-105947768D01*
X134120226Y-105947767D01*
X133941141Y-105822370D01*
X133941137Y-105822368D01*
X133941133Y-105822366D01*
X133742987Y-105729969D01*
X133742983Y-105729968D01*
X133742979Y-105729966D01*
X133531807Y-105673383D01*
X133531803Y-105673382D01*
X133531802Y-105673382D01*
X133531801Y-105673381D01*
X133531796Y-105673381D01*
X133314002Y-105654327D01*
X133313998Y-105654327D01*
X133096203Y-105673381D01*
X133096192Y-105673383D01*
X132885020Y-105729966D01*
X132885011Y-105729970D01*
X132686866Y-105822366D01*
X132507766Y-105947772D01*
X132353172Y-106102366D01*
X132227766Y-106281466D01*
X132135370Y-106479611D01*
X132135366Y-106479620D01*
X132078783Y-106690792D01*
X132078781Y-106690803D01*
X132059727Y-106908598D01*
X132059727Y-106908601D01*
X127762500Y-106908601D01*
X127762500Y-101423522D01*
X127782185Y-101356483D01*
X127834989Y-101310728D01*
X127904147Y-101300784D01*
X127967703Y-101329809D01*
X127974181Y-101335841D01*
X128007767Y-101369427D01*
X128007773Y-101369432D01*
X128186858Y-101494829D01*
X128186860Y-101494830D01*
X128186863Y-101494832D01*
X128385013Y-101587231D01*
X128596198Y-101643818D01*
X128751770Y-101657428D01*
X128813998Y-101662873D01*
X128814000Y-101662873D01*
X128814002Y-101662873D01*
X128868450Y-101658109D01*
X129031802Y-101643818D01*
X129242987Y-101587231D01*
X129441137Y-101494832D01*
X129620231Y-101369429D01*
X129774829Y-101214831D01*
X129900232Y-101035737D01*
X129992631Y-100837587D01*
X130049218Y-100626402D01*
X130068273Y-100408601D01*
X132059727Y-100408601D01*
X132078781Y-100626396D01*
X132078783Y-100626407D01*
X132135366Y-100837579D01*
X132135368Y-100837583D01*
X132135369Y-100837587D01*
X132223714Y-101027043D01*
X132227768Y-101035737D01*
X132227770Y-101035741D01*
X132353167Y-101214826D01*
X132353172Y-101214832D01*
X132507767Y-101369427D01*
X132507773Y-101369432D01*
X132686858Y-101494829D01*
X132686860Y-101494830D01*
X132686863Y-101494832D01*
X132885013Y-101587231D01*
X133096198Y-101643818D01*
X133251770Y-101657428D01*
X133313998Y-101662873D01*
X133314000Y-101662873D01*
X133314002Y-101662873D01*
X133368450Y-101658109D01*
X133531802Y-101643818D01*
X133742987Y-101587231D01*
X133941137Y-101494832D01*
X134063156Y-101409392D01*
X134129362Y-101387065D01*
X134197129Y-101404075D01*
X134244943Y-101455023D01*
X134257500Y-101497082D01*
X134258907Y-101509574D01*
X134313276Y-101664953D01*
X134313277Y-101664955D01*
X134313278Y-101664957D01*
X134400858Y-101804341D01*
X134517259Y-101920742D01*
X134656643Y-102008322D01*
X134812020Y-102062691D01*
X134812023Y-102062691D01*
X134812025Y-102062692D01*
X134975596Y-102081122D01*
X134975600Y-102081122D01*
X134975604Y-102081122D01*
X135139174Y-102062692D01*
X135139175Y-102062691D01*
X135139180Y-102062691D01*
X135294557Y-102008322D01*
X135433941Y-101920742D01*
X135550342Y-101804341D01*
X135637922Y-101664957D01*
X135692291Y-101509580D01*
X135692292Y-101509574D01*
X135710722Y-101346003D01*
X135710722Y-101345996D01*
X135692292Y-101182425D01*
X135692291Y-101182423D01*
X135692291Y-101182420D01*
X135637922Y-101027043D01*
X135550342Y-100887659D01*
X135433941Y-100771258D01*
X135294557Y-100683678D01*
X135294556Y-100683677D01*
X135294555Y-100683677D01*
X135294553Y-100683676D01*
X135161265Y-100637037D01*
X135139180Y-100629309D01*
X135139179Y-100629308D01*
X135139174Y-100629307D01*
X134975604Y-100610878D01*
X134975596Y-100610878D01*
X134812024Y-100629307D01*
X134721870Y-100660853D01*
X134652092Y-100664414D01*
X134591465Y-100629684D01*
X134559238Y-100567691D01*
X134557389Y-100533003D01*
X134568273Y-100408600D01*
X134568273Y-100408598D01*
X134549218Y-100190803D01*
X134549218Y-100190798D01*
X134492631Y-99979613D01*
X134400232Y-99781464D01*
X134274829Y-99602369D01*
X134120231Y-99447771D01*
X134120227Y-99447768D01*
X134120226Y-99447767D01*
X133941141Y-99322370D01*
X133941137Y-99322368D01*
X133871001Y-99289663D01*
X133742987Y-99229969D01*
X133742983Y-99229968D01*
X133742979Y-99229966D01*
X133531807Y-99173383D01*
X133531803Y-99173382D01*
X133531802Y-99173382D01*
X133531801Y-99173381D01*
X133531796Y-99173381D01*
X133314002Y-99154327D01*
X133313998Y-99154327D01*
X133096203Y-99173381D01*
X133096192Y-99173383D01*
X132885020Y-99229966D01*
X132885011Y-99229970D01*
X132686866Y-99322366D01*
X132507766Y-99447772D01*
X132353172Y-99602366D01*
X132227766Y-99781466D01*
X132135370Y-99979611D01*
X132135366Y-99979620D01*
X132078783Y-100190792D01*
X132078781Y-100190803D01*
X132059727Y-100408598D01*
X132059727Y-100408601D01*
X130068273Y-100408601D01*
X130068273Y-100408600D01*
X130049218Y-100190798D01*
X129992631Y-99979613D01*
X129900232Y-99781464D01*
X129774829Y-99602369D01*
X129620231Y-99447771D01*
X129620227Y-99447768D01*
X129620226Y-99447767D01*
X129441141Y-99322370D01*
X129441137Y-99322368D01*
X129371001Y-99289663D01*
X129242987Y-99229969D01*
X129242983Y-99229968D01*
X129242979Y-99229966D01*
X129031807Y-99173383D01*
X129031803Y-99173382D01*
X129031802Y-99173382D01*
X129031801Y-99173381D01*
X129031796Y-99173381D01*
X128814002Y-99154327D01*
X128813998Y-99154327D01*
X128596203Y-99173381D01*
X128596192Y-99173383D01*
X128385020Y-99229966D01*
X128385011Y-99229970D01*
X128186866Y-99322366D01*
X128007766Y-99447772D01*
X127974181Y-99481358D01*
X127912858Y-99514843D01*
X127843166Y-99509859D01*
X127787233Y-99467987D01*
X127762816Y-99402523D01*
X127762500Y-99393677D01*
X127762500Y-91964963D01*
X129057387Y-91964963D01*
X129087013Y-92234213D01*
X129087015Y-92234224D01*
X129155526Y-92496282D01*
X129155528Y-92496288D01*
X129261470Y-92745590D01*
X129320504Y-92842320D01*
X129402579Y-92976805D01*
X129402586Y-92976815D01*
X129575853Y-93185019D01*
X129575859Y-93185024D01*
X129731918Y-93324853D01*
X129777598Y-93365782D01*
X130003510Y-93515244D01*
X130248776Y-93630220D01*
X130248783Y-93630222D01*
X130248785Y-93630223D01*
X130508157Y-93708257D01*
X130508164Y-93708258D01*
X130508169Y-93708260D01*
X130776161Y-93747700D01*
X130776166Y-93747700D01*
X130979229Y-93747700D01*
X130979231Y-93747700D01*
X130979236Y-93747699D01*
X130979248Y-93747699D01*
X131016791Y-93744950D01*
X131181756Y-93732877D01*
X131294358Y-93707793D01*
X131446146Y-93673982D01*
X131446148Y-93673981D01*
X131446153Y-93673980D01*
X131699158Y-93577214D01*
X131935377Y-93444641D01*
X132149777Y-93279088D01*
X132337786Y-93084081D01*
X132495399Y-92863779D01*
X132586316Y-92686944D01*
X132619249Y-92622890D01*
X132619251Y-92622884D01*
X132619256Y-92622875D01*
X132706718Y-92366505D01*
X132755919Y-92100133D01*
X132765812Y-91829435D01*
X132736186Y-91560182D01*
X132667672Y-91298112D01*
X132561730Y-91048810D01*
X132420618Y-90817590D01*
X132373329Y-90760766D01*
X132247346Y-90609380D01*
X132247340Y-90609375D01*
X132045602Y-90428618D01*
X131819692Y-90279157D01*
X131777361Y-90259313D01*
X131574424Y-90164180D01*
X131574419Y-90164178D01*
X131574414Y-90164176D01*
X131315042Y-90086142D01*
X131315028Y-90086139D01*
X131199391Y-90069121D01*
X131047039Y-90046700D01*
X130843969Y-90046700D01*
X130843951Y-90046700D01*
X130641444Y-90061523D01*
X130641431Y-90061525D01*
X130377053Y-90120417D01*
X130377046Y-90120420D01*
X130124039Y-90217187D01*
X129887826Y-90349757D01*
X129673422Y-90515312D01*
X129485422Y-90710309D01*
X129485416Y-90710316D01*
X129327802Y-90930619D01*
X129327799Y-90930624D01*
X129203950Y-91171509D01*
X129203943Y-91171527D01*
X129116484Y-91427885D01*
X129116481Y-91427899D01*
X129067281Y-91694268D01*
X129067280Y-91694275D01*
X129057387Y-91964963D01*
X127762500Y-91964963D01*
X127762500Y-77736145D01*
X127782185Y-77669106D01*
X127834989Y-77623351D01*
X127904147Y-77613407D01*
X127967703Y-77642432D01*
G37*
G04 #@! TD.AperFunction*
G04 #@! TA.AperFunction,Conductor*
G36*
X158946539Y-62148585D02*
G01*
X158992294Y-62201389D01*
X159003500Y-62252900D01*
X159003500Y-151008339D01*
X158983815Y-151075378D01*
X158931011Y-151121133D01*
X158861853Y-151131077D01*
X158798297Y-151102052D01*
X158762165Y-151048446D01*
X158734006Y-150966066D01*
X158698616Y-150862528D01*
X158653646Y-150786136D01*
X158595393Y-150687178D01*
X158595392Y-150687177D01*
X158595390Y-150687173D01*
X158458979Y-150536187D01*
X158413778Y-150502995D01*
X158294971Y-150415753D01*
X158294964Y-150415749D01*
X158110074Y-150330797D01*
X158110061Y-150330792D01*
X157911853Y-150284797D01*
X157708438Y-150279644D01*
X157708435Y-150279644D01*
X157508150Y-150315540D01*
X157508145Y-150315542D01*
X157319183Y-150391023D01*
X157319171Y-150391029D01*
X157149283Y-150502995D01*
X157111174Y-150541105D01*
X157000296Y-150651982D01*
X156938975Y-150685466D01*
X156912617Y-150688300D01*
X151652262Y-150688300D01*
X151649121Y-150688260D01*
X151647900Y-150688229D01*
X151561639Y-150686042D01*
X151561635Y-150686042D01*
X151503578Y-150696448D01*
X151494252Y-150697756D01*
X151435564Y-150703725D01*
X151435562Y-150703726D01*
X151406526Y-150712835D01*
X151391290Y-150716574D01*
X151361350Y-150721941D01*
X151361349Y-150721941D01*
X151306567Y-150743822D01*
X151297698Y-150746979D01*
X151241414Y-150764640D01*
X151241410Y-150764642D01*
X151214811Y-150779405D01*
X151200638Y-150786136D01*
X151172382Y-150797423D01*
X151172378Y-150797425D01*
X151123122Y-150829886D01*
X151115069Y-150834765D01*
X151063501Y-150863388D01*
X151040413Y-150883208D01*
X151027887Y-150892652D01*
X151002485Y-150909394D01*
X151002478Y-150909400D01*
X150960774Y-150951103D01*
X150953869Y-150957503D01*
X150909102Y-150995936D01*
X150890480Y-151019993D01*
X150880108Y-151031769D01*
X150658880Y-151252997D01*
X150597557Y-151286482D01*
X150527865Y-151281498D01*
X150483519Y-151252998D01*
X150445299Y-151214779D01*
X150438906Y-151207882D01*
X150400466Y-151163105D01*
X150376400Y-151144476D01*
X150364622Y-151134102D01*
X143571982Y-144341462D01*
X143494792Y-144278521D01*
X143453807Y-144245102D01*
X143273449Y-144150891D01*
X143077818Y-144094913D01*
X143077817Y-144094912D01*
X143077816Y-144094912D01*
X142874925Y-144079462D01*
X142874922Y-144079462D01*
X142673078Y-144105168D01*
X142673070Y-144105170D01*
X142480529Y-144170983D01*
X142480525Y-144170985D01*
X142326805Y-144261476D01*
X142259046Y-144278521D01*
X142192829Y-144256227D01*
X142149176Y-144201673D01*
X142139900Y-144154616D01*
X142139900Y-140970000D01*
X144435840Y-140970000D01*
X144455626Y-141158256D01*
X144455627Y-141158259D01*
X144514118Y-141338277D01*
X144514121Y-141338284D01*
X144608767Y-141502216D01*
X144710485Y-141615185D01*
X144735429Y-141642888D01*
X144888565Y-141754148D01*
X144888570Y-141754151D01*
X145061492Y-141831142D01*
X145061497Y-141831144D01*
X145246654Y-141870500D01*
X145246655Y-141870500D01*
X145435944Y-141870500D01*
X145435946Y-141870500D01*
X145621103Y-141831144D01*
X145794030Y-141754151D01*
X145947171Y-141642888D01*
X145950088Y-141639647D01*
X145952900Y-141636526D01*
X146012387Y-141599879D01*
X146045048Y-141595500D01*
X148025545Y-141595500D01*
X148092584Y-141615185D01*
X148138339Y-141667989D01*
X148143476Y-141681182D01*
X148197118Y-141846278D01*
X148197121Y-141846284D01*
X148291767Y-142010216D01*
X148418429Y-142150888D01*
X148571565Y-142262148D01*
X148571570Y-142262151D01*
X148744492Y-142339142D01*
X148744497Y-142339144D01*
X148929654Y-142378500D01*
X148929655Y-142378500D01*
X149118944Y-142378500D01*
X149118946Y-142378500D01*
X149304103Y-142339144D01*
X149477030Y-142262151D01*
X149630171Y-142150888D01*
X149731841Y-142037971D01*
X149791328Y-142001323D01*
X149861185Y-142002654D01*
X149911672Y-142033263D01*
X150375197Y-142496788D01*
X150385022Y-142509051D01*
X150385243Y-142508869D01*
X150390211Y-142514874D01*
X150439222Y-142560899D01*
X150442021Y-142563612D01*
X150461522Y-142583114D01*
X150461526Y-142583117D01*
X150461529Y-142583120D01*
X150464702Y-142585581D01*
X150473574Y-142593159D01*
X150505418Y-142623062D01*
X150522976Y-142632714D01*
X150539233Y-142643393D01*
X150555064Y-142655673D01*
X150584803Y-142668542D01*
X150595152Y-142673021D01*
X150605641Y-142678160D01*
X150629457Y-142691252D01*
X150643908Y-142699197D01*
X150656523Y-142702435D01*
X150663305Y-142704177D01*
X150681719Y-142710481D01*
X150700104Y-142718438D01*
X150743261Y-142725273D01*
X150754656Y-142727632D01*
X150796981Y-142738500D01*
X150817016Y-142738500D01*
X150836413Y-142740026D01*
X150856196Y-142743160D01*
X150899675Y-142739050D01*
X150911344Y-142738500D01*
X155252252Y-142738500D01*
X155319291Y-142758185D01*
X155344400Y-142779526D01*
X155350126Y-142785885D01*
X155350130Y-142785889D01*
X155503265Y-142897148D01*
X155503270Y-142897151D01*
X155676192Y-142974142D01*
X155676197Y-142974144D01*
X155861354Y-143013500D01*
X155861355Y-143013500D01*
X156050644Y-143013500D01*
X156050646Y-143013500D01*
X156235803Y-142974144D01*
X156408730Y-142897151D01*
X156561871Y-142785888D01*
X156688533Y-142645216D01*
X156783179Y-142481284D01*
X156841674Y-142301256D01*
X156861460Y-142113000D01*
X156841674Y-141924744D01*
X156783179Y-141744716D01*
X156688533Y-141580784D01*
X156561871Y-141440112D01*
X156561870Y-141440111D01*
X156408734Y-141328851D01*
X156408729Y-141328848D01*
X156235807Y-141251857D01*
X156235802Y-141251855D01*
X156090001Y-141220865D01*
X156050646Y-141212500D01*
X155861354Y-141212500D01*
X155828897Y-141219398D01*
X155676197Y-141251855D01*
X155676192Y-141251857D01*
X155503270Y-141328848D01*
X155503265Y-141328851D01*
X155350130Y-141440110D01*
X155350126Y-141440114D01*
X155344400Y-141446474D01*
X155284913Y-141483121D01*
X155252252Y-141487500D01*
X151186452Y-141487500D01*
X151119413Y-141467815D01*
X151098771Y-141451181D01*
X148752045Y-139104454D01*
X148718560Y-139043131D01*
X148716405Y-139029731D01*
X148713674Y-139003745D01*
X148713672Y-139003740D01*
X148655179Y-138823716D01*
X148560533Y-138659784D01*
X148433871Y-138519112D01*
X148433870Y-138519111D01*
X148280734Y-138407851D01*
X148280729Y-138407848D01*
X148107807Y-138330857D01*
X148107802Y-138330855D01*
X147962001Y-138299865D01*
X147922646Y-138291500D01*
X147733354Y-138291500D01*
X147700897Y-138298398D01*
X147548197Y-138330855D01*
X147548192Y-138330857D01*
X147375270Y-138407848D01*
X147375265Y-138407851D01*
X147222129Y-138519111D01*
X147095466Y-138659785D01*
X147000821Y-138823715D01*
X147000818Y-138823722D01*
X146942327Y-139003740D01*
X146942326Y-139003744D01*
X146922540Y-139192000D01*
X146942326Y-139380256D01*
X146942327Y-139380259D01*
X147000818Y-139560277D01*
X147000821Y-139560284D01*
X147095467Y-139724216D01*
X147202307Y-139842873D01*
X147222129Y-139864888D01*
X147375265Y-139976148D01*
X147375270Y-139976151D01*
X147548192Y-140053142D01*
X147548197Y-140053144D01*
X147733354Y-140092500D01*
X147733355Y-140092500D01*
X147919548Y-140092500D01*
X147986587Y-140112185D01*
X148007229Y-140128819D01*
X148011229Y-140132819D01*
X148044714Y-140194142D01*
X148039730Y-140263834D01*
X147997858Y-140319767D01*
X147932394Y-140344184D01*
X147923548Y-140344500D01*
X146045048Y-140344500D01*
X145978009Y-140324815D01*
X145952900Y-140303474D01*
X145947173Y-140297114D01*
X145947169Y-140297110D01*
X145794034Y-140185851D01*
X145794029Y-140185848D01*
X145621107Y-140108857D01*
X145621102Y-140108855D01*
X145475301Y-140077865D01*
X145435946Y-140069500D01*
X145246654Y-140069500D01*
X145214197Y-140076398D01*
X145061497Y-140108855D01*
X145061492Y-140108857D01*
X144888570Y-140185848D01*
X144888565Y-140185851D01*
X144735429Y-140297111D01*
X144608766Y-140437785D01*
X144514121Y-140601715D01*
X144514118Y-140601722D01*
X144455627Y-140781740D01*
X144455626Y-140781744D01*
X144435840Y-140970000D01*
X142139900Y-140970000D01*
X142139900Y-132029200D01*
X154644140Y-132029200D01*
X154663926Y-132217456D01*
X154663927Y-132217459D01*
X154722418Y-132397477D01*
X154722421Y-132397484D01*
X154817067Y-132561416D01*
X154943729Y-132702088D01*
X155096865Y-132813348D01*
X155096870Y-132813351D01*
X155269792Y-132890342D01*
X155269797Y-132890344D01*
X155454954Y-132929700D01*
X155454955Y-132929700D01*
X155644244Y-132929700D01*
X155644246Y-132929700D01*
X155829403Y-132890344D01*
X156002330Y-132813351D01*
X156155471Y-132702088D01*
X156282133Y-132561416D01*
X156376779Y-132397484D01*
X156435274Y-132217456D01*
X156455060Y-132029200D01*
X156435274Y-131840944D01*
X156376779Y-131660916D01*
X156282133Y-131496984D01*
X156155471Y-131356312D01*
X156155470Y-131356311D01*
X156002334Y-131245051D01*
X156002329Y-131245048D01*
X155829407Y-131168057D01*
X155829402Y-131168055D01*
X155683601Y-131137065D01*
X155644246Y-131128700D01*
X155454954Y-131128700D01*
X155422497Y-131135598D01*
X155269797Y-131168055D01*
X155269792Y-131168057D01*
X155096870Y-131245048D01*
X155096865Y-131245051D01*
X154943729Y-131356311D01*
X154817066Y-131496985D01*
X154722421Y-131660915D01*
X154722418Y-131660922D01*
X154663927Y-131840940D01*
X154663926Y-131840944D01*
X154644140Y-132029200D01*
X142139900Y-132029200D01*
X142139900Y-125546852D01*
X142159585Y-125479813D01*
X142176219Y-125459171D01*
X142464190Y-125171200D01*
X144890540Y-125171200D01*
X144910326Y-125359456D01*
X144910327Y-125359459D01*
X144968818Y-125539477D01*
X144968821Y-125539484D01*
X145063467Y-125703416D01*
X145190129Y-125844088D01*
X145343265Y-125955348D01*
X145343270Y-125955351D01*
X145516192Y-126032342D01*
X145516197Y-126032344D01*
X145701354Y-126071700D01*
X145701355Y-126071700D01*
X145890644Y-126071700D01*
X145890646Y-126071700D01*
X146075803Y-126032344D01*
X146248730Y-125955351D01*
X146401871Y-125844088D01*
X146528533Y-125703416D01*
X146623179Y-125539484D01*
X146681674Y-125359456D01*
X146701460Y-125171200D01*
X146681674Y-124982944D01*
X146623179Y-124802916D01*
X146528533Y-124638984D01*
X146401871Y-124498312D01*
X146401870Y-124498311D01*
X146248734Y-124387051D01*
X146248729Y-124387048D01*
X146075807Y-124310057D01*
X146075802Y-124310055D01*
X145930001Y-124279065D01*
X145890646Y-124270700D01*
X145701354Y-124270700D01*
X145668897Y-124277598D01*
X145516197Y-124310055D01*
X145516192Y-124310057D01*
X145343270Y-124387048D01*
X145343265Y-124387051D01*
X145190129Y-124498311D01*
X145063466Y-124638985D01*
X144968821Y-124802915D01*
X144968818Y-124802922D01*
X144910327Y-124982940D01*
X144910326Y-124982944D01*
X144890540Y-125171200D01*
X142464190Y-125171200D01*
X143248342Y-124387048D01*
X144329785Y-123305604D01*
X144342039Y-123295789D01*
X144341856Y-123295567D01*
X144347865Y-123290594D01*
X144347874Y-123290589D01*
X144393946Y-123241525D01*
X144396563Y-123238826D01*
X144416117Y-123219274D01*
X144418573Y-123216106D01*
X144426153Y-123207230D01*
X144456059Y-123175385D01*
X144465710Y-123157827D01*
X144476393Y-123141564D01*
X144488670Y-123125739D01*
X144506018Y-123085647D01*
X144511148Y-123075174D01*
X144532194Y-123036895D01*
X144537177Y-123017483D01*
X144543478Y-122999083D01*
X144551434Y-122980699D01*
X144558267Y-122937551D01*
X144560630Y-122926141D01*
X144571497Y-122883822D01*
X144571497Y-122863786D01*
X144573024Y-122844385D01*
X144576157Y-122824607D01*
X144572047Y-122781127D01*
X144571497Y-122769458D01*
X144571497Y-121715423D01*
X144591182Y-121648384D01*
X144643986Y-121602629D01*
X144658095Y-121597853D01*
X144658004Y-121597592D01*
X144819945Y-121540926D01*
X144819948Y-121540923D01*
X144819954Y-121540922D01*
X144959338Y-121453342D01*
X145075739Y-121336941D01*
X145163319Y-121197557D01*
X145217688Y-121042180D01*
X145228800Y-120943557D01*
X145236119Y-120878603D01*
X145236119Y-120878596D01*
X145217689Y-120715025D01*
X145217688Y-120715023D01*
X145217688Y-120715020D01*
X145163319Y-120559643D01*
X145075739Y-120420259D01*
X144959338Y-120303858D01*
X144819954Y-120216278D01*
X144819953Y-120216277D01*
X144819952Y-120216277D01*
X144819950Y-120216276D01*
X144742333Y-120189117D01*
X144664577Y-120161909D01*
X144664574Y-120161908D01*
X144658005Y-120159610D01*
X144658728Y-120157542D01*
X144606906Y-120128539D01*
X144574063Y-120066870D01*
X144571497Y-120041777D01*
X144571497Y-117345601D01*
X153863527Y-117345601D01*
X153882581Y-117563396D01*
X153882583Y-117563407D01*
X153939166Y-117774579D01*
X153939168Y-117774583D01*
X153939169Y-117774587D01*
X154025040Y-117958738D01*
X154031568Y-117972737D01*
X154031570Y-117972741D01*
X154156967Y-118151826D01*
X154156972Y-118151832D01*
X154311567Y-118306427D01*
X154311573Y-118306432D01*
X154490658Y-118431829D01*
X154490660Y-118431830D01*
X154490663Y-118431832D01*
X154688813Y-118524231D01*
X154899998Y-118580818D01*
X155055570Y-118594428D01*
X155117798Y-118599873D01*
X155117800Y-118599873D01*
X155117802Y-118599873D01*
X155172250Y-118595109D01*
X155335602Y-118580818D01*
X155546787Y-118524231D01*
X155744937Y-118431832D01*
X155924031Y-118306429D01*
X156078629Y-118151831D01*
X156204032Y-117972737D01*
X156296431Y-117774587D01*
X156353018Y-117563402D01*
X156372073Y-117345600D01*
X156353018Y-117127798D01*
X156296431Y-116916613D01*
X156204032Y-116718464D01*
X156078629Y-116539369D01*
X155924031Y-116384771D01*
X155924027Y-116384768D01*
X155924026Y-116384767D01*
X155744941Y-116259370D01*
X155744937Y-116259368D01*
X155744933Y-116259366D01*
X155546787Y-116166969D01*
X155546783Y-116166968D01*
X155546779Y-116166966D01*
X155335607Y-116110383D01*
X155335603Y-116110382D01*
X155335602Y-116110382D01*
X155335601Y-116110381D01*
X155335596Y-116110381D01*
X155117802Y-116091327D01*
X155117798Y-116091327D01*
X154900003Y-116110381D01*
X154899992Y-116110383D01*
X154688820Y-116166966D01*
X154688811Y-116166970D01*
X154490666Y-116259366D01*
X154311566Y-116384772D01*
X154156972Y-116539366D01*
X154031566Y-116718466D01*
X153939170Y-116916611D01*
X153939166Y-116916620D01*
X153882583Y-117127792D01*
X153882581Y-117127803D01*
X153863527Y-117345598D01*
X153863527Y-117345601D01*
X144571497Y-117345601D01*
X144571497Y-114833736D01*
X144591182Y-114766697D01*
X144607816Y-114746055D01*
X147007900Y-112345971D01*
X149454657Y-109899213D01*
X149515978Y-109865730D01*
X149585670Y-109870714D01*
X149641603Y-109912586D01*
X149666020Y-109978050D01*
X149651168Y-110046323D01*
X149643911Y-110058019D01*
X149531566Y-110218466D01*
X149439170Y-110416611D01*
X149439166Y-110416620D01*
X149382583Y-110627792D01*
X149382581Y-110627803D01*
X149363527Y-110845598D01*
X149363527Y-110845601D01*
X149382581Y-111063396D01*
X149382583Y-111063407D01*
X149439166Y-111274579D01*
X149439168Y-111274583D01*
X149439169Y-111274587D01*
X149452857Y-111303941D01*
X149531568Y-111472737D01*
X149531570Y-111472741D01*
X149656967Y-111651826D01*
X149656972Y-111651832D01*
X149811567Y-111806427D01*
X149811573Y-111806432D01*
X149990658Y-111931829D01*
X149990660Y-111931830D01*
X149990663Y-111931832D01*
X150188813Y-112024231D01*
X150399998Y-112080818D01*
X150555570Y-112094428D01*
X150617798Y-112099873D01*
X150617800Y-112099873D01*
X150617802Y-112099873D01*
X150672250Y-112095109D01*
X150835602Y-112080818D01*
X151046787Y-112024231D01*
X151244937Y-111931832D01*
X151424031Y-111806429D01*
X151578629Y-111651831D01*
X151704032Y-111472737D01*
X151796431Y-111274587D01*
X151853018Y-111063402D01*
X151872073Y-110845601D01*
X153863527Y-110845601D01*
X153882581Y-111063396D01*
X153882583Y-111063407D01*
X153939166Y-111274579D01*
X153939168Y-111274583D01*
X153939169Y-111274587D01*
X153952857Y-111303941D01*
X154031568Y-111472737D01*
X154031570Y-111472741D01*
X154156967Y-111651826D01*
X154156972Y-111651832D01*
X154311567Y-111806427D01*
X154311573Y-111806432D01*
X154490658Y-111931829D01*
X154490660Y-111931830D01*
X154490663Y-111931832D01*
X154688813Y-112024231D01*
X154899998Y-112080818D01*
X155055570Y-112094428D01*
X155117798Y-112099873D01*
X155117800Y-112099873D01*
X155117802Y-112099873D01*
X155172250Y-112095109D01*
X155335602Y-112080818D01*
X155546787Y-112024231D01*
X155744937Y-111931832D01*
X155924031Y-111806429D01*
X156078629Y-111651831D01*
X156204032Y-111472737D01*
X156296431Y-111274587D01*
X156353018Y-111063402D01*
X156372073Y-110845600D01*
X156368931Y-110809692D01*
X156363832Y-110751403D01*
X156353018Y-110627798D01*
X156307025Y-110456149D01*
X156296433Y-110416620D01*
X156296432Y-110416619D01*
X156296431Y-110416613D01*
X156204032Y-110218464D01*
X156078629Y-110039369D01*
X155924031Y-109884771D01*
X155924027Y-109884768D01*
X155924026Y-109884767D01*
X155744941Y-109759370D01*
X155744937Y-109759368D01*
X155728015Y-109751477D01*
X155546787Y-109666969D01*
X155546783Y-109666968D01*
X155546779Y-109666966D01*
X155335607Y-109610383D01*
X155335603Y-109610382D01*
X155335602Y-109610382D01*
X155335601Y-109610381D01*
X155335596Y-109610381D01*
X155117802Y-109591327D01*
X155117798Y-109591327D01*
X154900003Y-109610381D01*
X154899992Y-109610383D01*
X154688820Y-109666966D01*
X154688811Y-109666970D01*
X154490666Y-109759366D01*
X154311566Y-109884772D01*
X154156972Y-110039366D01*
X154031566Y-110218466D01*
X153939170Y-110416611D01*
X153939166Y-110416620D01*
X153882583Y-110627792D01*
X153882581Y-110627803D01*
X153863527Y-110845598D01*
X153863527Y-110845601D01*
X151872073Y-110845601D01*
X151872073Y-110845600D01*
X151868931Y-110809692D01*
X151863832Y-110751403D01*
X151853018Y-110627798D01*
X151807025Y-110456149D01*
X151796433Y-110416620D01*
X151796432Y-110416619D01*
X151796431Y-110416613D01*
X151704032Y-110218464D01*
X151578629Y-110039369D01*
X151424031Y-109884771D01*
X151424027Y-109884768D01*
X151424026Y-109884767D01*
X151244941Y-109759370D01*
X151244937Y-109759368D01*
X151228015Y-109751477D01*
X151046787Y-109666969D01*
X151046783Y-109666968D01*
X151046779Y-109666966D01*
X150835607Y-109610383D01*
X150835603Y-109610382D01*
X150835602Y-109610382D01*
X150835601Y-109610381D01*
X150835596Y-109610381D01*
X150617802Y-109591327D01*
X150617798Y-109591327D01*
X150400003Y-109610381D01*
X150399992Y-109610383D01*
X150188820Y-109666966D01*
X150188811Y-109666970D01*
X149990666Y-109759366D01*
X149830219Y-109871711D01*
X149764012Y-109894039D01*
X149696245Y-109877027D01*
X149648433Y-109826079D01*
X149635755Y-109757369D01*
X149662237Y-109692713D01*
X149671406Y-109682464D01*
X152326588Y-107027282D01*
X152338842Y-107017467D01*
X152338659Y-107017245D01*
X152344668Y-107012272D01*
X152344677Y-107012267D01*
X152390749Y-106963203D01*
X152393366Y-106960504D01*
X152412920Y-106940952D01*
X152415376Y-106937784D01*
X152422956Y-106928908D01*
X152452862Y-106897063D01*
X152462513Y-106879505D01*
X152473196Y-106863242D01*
X152485473Y-106847417D01*
X152502821Y-106807325D01*
X152507951Y-106796852D01*
X152528997Y-106758573D01*
X152533980Y-106739161D01*
X152540281Y-106720761D01*
X152548237Y-106702377D01*
X152555070Y-106659229D01*
X152557433Y-106647819D01*
X152568300Y-106605500D01*
X152568300Y-106585464D01*
X152569827Y-106566063D01*
X152572960Y-106546285D01*
X152568850Y-106502805D01*
X152568300Y-106491136D01*
X152568300Y-102698742D01*
X152570024Y-102683122D01*
X152569739Y-102683095D01*
X152570473Y-102675333D01*
X152568361Y-102608112D01*
X152568300Y-102604218D01*
X152568300Y-102576656D01*
X152568300Y-102576650D01*
X152567796Y-102572668D01*
X152566881Y-102561029D01*
X152566840Y-102559709D01*
X152565510Y-102517373D01*
X152559919Y-102498130D01*
X152555973Y-102479078D01*
X152553464Y-102459208D01*
X152537379Y-102418583D01*
X152533604Y-102407555D01*
X152521418Y-102365610D01*
X152511219Y-102348364D01*
X152502658Y-102330888D01*
X152495287Y-102312271D01*
X152495286Y-102312268D01*
X152469605Y-102276921D01*
X152463209Y-102267182D01*
X152440971Y-102229580D01*
X152440969Y-102229578D01*
X152440966Y-102229574D01*
X152426805Y-102215413D01*
X152414170Y-102200620D01*
X152402393Y-102184412D01*
X152368745Y-102156576D01*
X152360104Y-102148713D01*
X151102378Y-100890987D01*
X151073017Y-100844260D01*
X151070682Y-100837588D01*
X151030322Y-100722243D01*
X150942742Y-100582859D01*
X150877619Y-100517736D01*
X150844134Y-100456413D01*
X150841300Y-100430055D01*
X150841300Y-88027844D01*
X150860985Y-87960805D01*
X150913789Y-87915050D01*
X150982947Y-87905106D01*
X151031551Y-87925240D01*
X151031986Y-87924446D01*
X151039382Y-87928484D01*
X151039617Y-87928582D01*
X151039769Y-87928696D01*
X151039771Y-87928697D01*
X151174617Y-87978991D01*
X151174616Y-87978991D01*
X151181544Y-87979735D01*
X151234227Y-87985400D01*
X152828572Y-87985399D01*
X152888183Y-87978991D01*
X153023031Y-87928696D01*
X153138246Y-87842446D01*
X153224496Y-87727231D01*
X153274791Y-87592383D01*
X153281200Y-87532773D01*
X153281199Y-86548028D01*
X153274791Y-86488417D01*
X153271405Y-86479340D01*
X153259990Y-86448734D01*
X153255005Y-86379042D01*
X153259987Y-86362071D01*
X153274791Y-86322383D01*
X153281200Y-86262773D01*
X153281199Y-85537449D01*
X153300883Y-85470411D01*
X153353687Y-85424656D01*
X153422846Y-85414712D01*
X153471169Y-85432455D01*
X153503443Y-85452734D01*
X153658820Y-85507103D01*
X153658823Y-85507103D01*
X153658825Y-85507104D01*
X153759152Y-85518407D01*
X153819580Y-85525216D01*
X153883994Y-85552282D01*
X153923549Y-85609877D01*
X153929697Y-85648436D01*
X153929697Y-88111003D01*
X153910012Y-88178042D01*
X153893378Y-88198684D01*
X151838498Y-90253563D01*
X151826309Y-90264254D01*
X151801836Y-90283034D01*
X151707358Y-90406159D01*
X151653881Y-90535265D01*
X151653882Y-90535266D01*
X151647971Y-90549536D01*
X151627714Y-90703399D01*
X151627714Y-90703400D01*
X151631739Y-90733972D01*
X151632800Y-90750158D01*
X151632800Y-95050841D01*
X151631739Y-95067026D01*
X151627714Y-95097598D01*
X151627714Y-95097600D01*
X151632800Y-95136231D01*
X151647971Y-95251463D01*
X151647972Y-95251467D01*
X151707358Y-95394840D01*
X151707359Y-95394842D01*
X151707360Y-95394843D01*
X151801835Y-95517965D01*
X151826310Y-95536745D01*
X151838497Y-95547434D01*
X152358467Y-96067404D01*
X152391952Y-96128727D01*
X152386968Y-96198419D01*
X152345096Y-96254352D01*
X152336759Y-96260078D01*
X152271860Y-96300856D01*
X152155458Y-96417258D01*
X152067877Y-96556644D01*
X152067876Y-96556646D01*
X152013507Y-96712025D01*
X151995078Y-96875596D01*
X151995078Y-96875603D01*
X152013507Y-97039174D01*
X152067876Y-97194553D01*
X152067877Y-97194555D01*
X152067878Y-97194557D01*
X152155458Y-97333941D01*
X152271859Y-97450342D01*
X152411243Y-97537922D01*
X152566620Y-97592291D01*
X152566623Y-97592291D01*
X152566625Y-97592292D01*
X152730196Y-97610722D01*
X152730200Y-97610722D01*
X152730204Y-97610722D01*
X152893774Y-97592292D01*
X152893775Y-97592291D01*
X152893780Y-97592291D01*
X153049157Y-97537922D01*
X153188541Y-97450342D01*
X153304942Y-97333941D01*
X153345722Y-97269039D01*
X153398054Y-97222750D01*
X153467107Y-97212101D01*
X153530956Y-97240476D01*
X153538395Y-97247332D01*
X153893378Y-97602315D01*
X153926863Y-97663638D01*
X153929697Y-97689996D01*
X153929697Y-100218598D01*
X153910012Y-100285637D01*
X153857208Y-100331392D01*
X153819581Y-100341818D01*
X153709625Y-100354207D01*
X153554246Y-100408576D01*
X153554244Y-100408577D01*
X153414858Y-100496158D01*
X153298458Y-100612558D01*
X153210877Y-100751944D01*
X153210876Y-100751946D01*
X153156507Y-100907325D01*
X153138078Y-101070896D01*
X153138078Y-101070903D01*
X153156507Y-101234474D01*
X153210876Y-101389853D01*
X153210877Y-101389855D01*
X153210878Y-101389857D01*
X153298458Y-101529241D01*
X153414859Y-101645642D01*
X153554243Y-101733222D01*
X153709620Y-101787591D01*
X153709624Y-101787591D01*
X153709626Y-101787592D01*
X153760425Y-101793315D01*
X153819580Y-101799980D01*
X153883993Y-101827046D01*
X153923549Y-101884640D01*
X153929697Y-101923200D01*
X153929697Y-106938556D01*
X153910012Y-107005595D01*
X153857208Y-107051350D01*
X153831478Y-107059846D01*
X153694997Y-107088855D01*
X153694992Y-107088857D01*
X153522070Y-107165848D01*
X153522065Y-107165851D01*
X153368929Y-107277111D01*
X153242266Y-107417785D01*
X153147621Y-107581715D01*
X153147618Y-107581722D01*
X153090351Y-107757974D01*
X153089126Y-107761744D01*
X153069340Y-107950000D01*
X153089126Y-108138256D01*
X153089127Y-108138259D01*
X153147618Y-108318277D01*
X153147621Y-108318284D01*
X153242267Y-108482216D01*
X153368929Y-108622888D01*
X153522065Y-108734148D01*
X153522070Y-108734151D01*
X153694992Y-108811142D01*
X153694997Y-108811144D01*
X153880154Y-108850500D01*
X153880155Y-108850500D01*
X154069444Y-108850500D01*
X154069446Y-108850500D01*
X154254603Y-108811144D01*
X154427530Y-108734151D01*
X154580671Y-108622888D01*
X154707333Y-108482216D01*
X154801979Y-108318284D01*
X154860474Y-108138256D01*
X154880260Y-107950000D01*
X154880260Y-107949997D01*
X154880260Y-107949995D01*
X154879884Y-107946419D01*
X154880260Y-107944362D01*
X154880260Y-107943500D01*
X154880418Y-107943500D01*
X154892451Y-107877689D01*
X154927718Y-107835079D01*
X154939462Y-107826068D01*
X155033937Y-107702946D01*
X155093326Y-107559567D01*
X155108497Y-107444334D01*
X155113583Y-107405703D01*
X155109558Y-107375129D01*
X155108497Y-107358944D01*
X155108497Y-102670541D01*
X155128182Y-102603502D01*
X155180986Y-102557747D01*
X155250144Y-102547803D01*
X155297590Y-102565000D01*
X155371866Y-102610814D01*
X155538403Y-102665999D01*
X155641191Y-102676500D01*
X157241208Y-102676499D01*
X157252623Y-102675333D01*
X157299533Y-102670541D01*
X157343997Y-102665999D01*
X157510534Y-102610814D01*
X157659856Y-102518712D01*
X157783912Y-102394656D01*
X157876014Y-102245334D01*
X157931199Y-102078797D01*
X157941700Y-101976009D01*
X157941699Y-100675992D01*
X157931199Y-100573203D01*
X157876014Y-100406666D01*
X157783912Y-100257344D01*
X157659856Y-100133288D01*
X157578858Y-100083328D01*
X157505079Y-100037821D01*
X157458355Y-99985873D01*
X157447132Y-99916910D01*
X157474976Y-99852828D01*
X157482495Y-99844601D01*
X157545632Y-99781464D01*
X157629695Y-99697401D01*
X157765235Y-99503830D01*
X157865103Y-99289663D01*
X157926263Y-99061408D01*
X157946859Y-98826000D01*
X157926263Y-98590592D01*
X157865103Y-98362337D01*
X157765235Y-98148171D01*
X157765234Y-98148169D01*
X157629694Y-97954597D01*
X157462602Y-97787505D01*
X157269030Y-97651965D01*
X157269028Y-97651964D01*
X157141061Y-97592292D01*
X157054863Y-97552097D01*
X157054859Y-97552096D01*
X157054855Y-97552094D01*
X156826613Y-97490938D01*
X156826603Y-97490936D01*
X156650167Y-97475500D01*
X156650166Y-97475500D01*
X156232234Y-97475500D01*
X156232233Y-97475500D01*
X156055796Y-97490936D01*
X156055786Y-97490938D01*
X155827544Y-97552094D01*
X155827535Y-97552098D01*
X155613371Y-97651964D01*
X155613369Y-97651965D01*
X155419797Y-97787505D01*
X155320178Y-97887125D01*
X155258855Y-97920610D01*
X155189163Y-97915626D01*
X155133230Y-97873754D01*
X155108813Y-97808290D01*
X155108497Y-97799444D01*
X155108497Y-97441255D01*
X155109558Y-97425069D01*
X155113583Y-97394497D01*
X155113583Y-97394496D01*
X155111226Y-97376595D01*
X155093326Y-97240633D01*
X155064292Y-97170537D01*
X155033938Y-97097255D01*
X155033936Y-97097253D01*
X154989377Y-97039182D01*
X154989374Y-97039179D01*
X154989370Y-97039174D01*
X154939462Y-96974132D01*
X154939460Y-96974131D01*
X154939460Y-96974130D01*
X154914989Y-96955352D01*
X154902796Y-96944659D01*
X152847919Y-94889782D01*
X152814434Y-94828459D01*
X152811600Y-94802101D01*
X152811600Y-91964963D01*
X154050987Y-91964963D01*
X154080613Y-92234213D01*
X154080615Y-92234224D01*
X154149126Y-92496282D01*
X154149128Y-92496288D01*
X154255070Y-92745590D01*
X154314104Y-92842320D01*
X154396179Y-92976805D01*
X154396186Y-92976815D01*
X154569453Y-93185019D01*
X154569459Y-93185024D01*
X154725518Y-93324853D01*
X154771198Y-93365782D01*
X154997110Y-93515244D01*
X155242376Y-93630220D01*
X155242383Y-93630222D01*
X155242385Y-93630223D01*
X155501757Y-93708257D01*
X155501764Y-93708258D01*
X155501769Y-93708260D01*
X155769761Y-93747700D01*
X155769766Y-93747700D01*
X155972829Y-93747700D01*
X155972831Y-93747700D01*
X155972836Y-93747699D01*
X155972848Y-93747699D01*
X156010391Y-93744950D01*
X156175356Y-93732877D01*
X156287958Y-93707793D01*
X156439746Y-93673982D01*
X156439748Y-93673981D01*
X156439753Y-93673980D01*
X156692758Y-93577214D01*
X156928977Y-93444641D01*
X157143377Y-93279088D01*
X157331386Y-93084081D01*
X157488999Y-92863779D01*
X157579916Y-92686944D01*
X157612849Y-92622890D01*
X157612851Y-92622884D01*
X157612856Y-92622875D01*
X157700318Y-92366505D01*
X157749519Y-92100133D01*
X157759412Y-91829435D01*
X157729786Y-91560182D01*
X157661272Y-91298112D01*
X157555330Y-91048810D01*
X157414218Y-90817590D01*
X157366929Y-90760766D01*
X157240946Y-90609380D01*
X157240940Y-90609375D01*
X157039202Y-90428618D01*
X156813292Y-90279157D01*
X156770961Y-90259313D01*
X156568024Y-90164180D01*
X156568019Y-90164178D01*
X156568014Y-90164176D01*
X156308642Y-90086142D01*
X156308628Y-90086139D01*
X156192991Y-90069121D01*
X156040639Y-90046700D01*
X155837569Y-90046700D01*
X155837551Y-90046700D01*
X155635044Y-90061523D01*
X155635031Y-90061525D01*
X155370653Y-90120417D01*
X155370646Y-90120420D01*
X155117639Y-90217187D01*
X154881426Y-90349757D01*
X154667022Y-90515312D01*
X154479022Y-90710309D01*
X154479016Y-90710316D01*
X154321402Y-90930619D01*
X154321399Y-90930624D01*
X154197550Y-91171509D01*
X154197543Y-91171527D01*
X154110084Y-91427885D01*
X154110081Y-91427899D01*
X154060881Y-91694268D01*
X154060880Y-91694275D01*
X154050987Y-91964963D01*
X152811600Y-91964963D01*
X152811600Y-90998898D01*
X152831285Y-90931859D01*
X152847914Y-90911222D01*
X154902805Y-88856330D01*
X154914982Y-88845650D01*
X154939462Y-88826868D01*
X155033937Y-88703746D01*
X155093326Y-88560367D01*
X155108497Y-88445134D01*
X155113583Y-88406503D01*
X155109558Y-88375929D01*
X155108497Y-88359744D01*
X155108497Y-86193857D01*
X155128182Y-86126818D01*
X155180986Y-86081063D01*
X155250144Y-86071119D01*
X155297591Y-86088317D01*
X155369266Y-86132526D01*
X155535803Y-86187711D01*
X155638591Y-86198212D01*
X157238608Y-86198211D01*
X157341397Y-86187711D01*
X157507934Y-86132526D01*
X157657256Y-86040424D01*
X157781312Y-85916368D01*
X157873414Y-85767046D01*
X157928599Y-85600509D01*
X157939100Y-85497721D01*
X157939099Y-84197704D01*
X157928599Y-84094915D01*
X157873414Y-83928378D01*
X157781312Y-83779056D01*
X157657256Y-83655000D01*
X157555990Y-83592539D01*
X157502479Y-83559533D01*
X157455755Y-83507585D01*
X157444532Y-83438622D01*
X157472376Y-83374540D01*
X157479895Y-83366313D01*
X157548428Y-83297780D01*
X157627095Y-83219113D01*
X157762635Y-83025542D01*
X157862503Y-82811375D01*
X157923663Y-82583120D01*
X157944259Y-82347712D01*
X157923663Y-82112304D01*
X157862503Y-81884049D01*
X157762635Y-81669883D01*
X157762634Y-81669881D01*
X157627094Y-81476309D01*
X157460002Y-81309217D01*
X157266430Y-81173677D01*
X157266428Y-81173676D01*
X157159346Y-81123743D01*
X157052263Y-81073809D01*
X157052259Y-81073808D01*
X157052255Y-81073806D01*
X156824013Y-81012650D01*
X156824003Y-81012648D01*
X156647567Y-80997212D01*
X156647566Y-80997212D01*
X156229634Y-80997212D01*
X156229633Y-80997212D01*
X156053196Y-81012648D01*
X156053186Y-81012650D01*
X155824944Y-81073806D01*
X155824935Y-81073810D01*
X155610771Y-81173676D01*
X155610769Y-81173677D01*
X155417197Y-81309217D01*
X155320178Y-81406237D01*
X155258855Y-81439722D01*
X155189163Y-81434738D01*
X155133230Y-81392866D01*
X155108813Y-81327402D01*
X155108497Y-81318556D01*
X155108497Y-77584323D01*
X155128182Y-77517284D01*
X155180986Y-77471529D01*
X155250144Y-77461585D01*
X155297591Y-77478783D01*
X155343866Y-77507326D01*
X155510403Y-77562511D01*
X155613191Y-77573012D01*
X157213208Y-77573011D01*
X157315997Y-77562511D01*
X157482534Y-77507326D01*
X157631856Y-77415224D01*
X157755912Y-77291168D01*
X157848014Y-77141846D01*
X157903199Y-76975309D01*
X157913700Y-76872521D01*
X157913699Y-75572504D01*
X157903199Y-75469715D01*
X157848014Y-75303178D01*
X157755912Y-75153856D01*
X157631856Y-75029800D01*
X157500926Y-74949042D01*
X157477079Y-74934333D01*
X157430355Y-74882385D01*
X157419132Y-74813422D01*
X157446976Y-74749340D01*
X157454495Y-74741113D01*
X157525980Y-74669628D01*
X157601695Y-74593913D01*
X157737235Y-74400342D01*
X157837103Y-74186175D01*
X157898263Y-73957920D01*
X157918859Y-73722512D01*
X157916273Y-73692960D01*
X157910099Y-73622383D01*
X157898263Y-73487104D01*
X157837103Y-73258849D01*
X157737235Y-73044683D01*
X157737234Y-73044681D01*
X157601694Y-72851109D01*
X157434602Y-72684017D01*
X157241030Y-72548477D01*
X157241028Y-72548476D01*
X157091459Y-72478731D01*
X157026863Y-72448609D01*
X157026859Y-72448608D01*
X157026855Y-72448606D01*
X156798613Y-72387450D01*
X156798603Y-72387448D01*
X156622167Y-72372012D01*
X156622166Y-72372012D01*
X156204234Y-72372012D01*
X156204233Y-72372012D01*
X156027796Y-72387448D01*
X156027786Y-72387450D01*
X155799544Y-72448606D01*
X155799535Y-72448610D01*
X155585371Y-72548476D01*
X155585369Y-72548477D01*
X155391797Y-72684017D01*
X155224706Y-72851109D01*
X155224701Y-72851116D01*
X155089167Y-73044677D01*
X155089165Y-73044681D01*
X154989298Y-73258847D01*
X154989294Y-73258856D01*
X154928138Y-73487098D01*
X154928136Y-73487108D01*
X154907541Y-73722511D01*
X154907541Y-73722512D01*
X154922277Y-73890941D01*
X154908511Y-73959441D01*
X154859895Y-74009624D01*
X154791867Y-74025558D01*
X154726023Y-74002183D01*
X154711068Y-73989430D01*
X153556625Y-72834987D01*
X153523140Y-72773664D01*
X153528124Y-72703972D01*
X153569996Y-72648039D01*
X153623826Y-72626704D01*
X153623584Y-72625643D01*
X153630371Y-72624093D01*
X153630375Y-72624091D01*
X153630380Y-72624091D01*
X153785757Y-72569722D01*
X153925141Y-72482142D01*
X154041542Y-72365741D01*
X154129122Y-72226357D01*
X154183491Y-72070980D01*
X154200294Y-71921852D01*
X154201922Y-71907403D01*
X154201922Y-71907396D01*
X154183492Y-71743825D01*
X154183491Y-71743823D01*
X154183491Y-71743820D01*
X154129122Y-71588443D01*
X154041542Y-71449059D01*
X153925141Y-71332658D01*
X153785757Y-71245078D01*
X153785756Y-71245077D01*
X153785755Y-71245077D01*
X153785753Y-71245076D01*
X153630374Y-71190707D01*
X153466804Y-71172278D01*
X153466796Y-71172278D01*
X153351507Y-71185267D01*
X153282685Y-71173212D01*
X153231306Y-71125863D01*
X153229056Y-71121185D01*
X153228747Y-71121354D01*
X153224493Y-71113564D01*
X153138247Y-70998355D01*
X153138244Y-70998352D01*
X153023035Y-70912106D01*
X153023028Y-70912102D01*
X152888182Y-70861808D01*
X152888183Y-70861808D01*
X152828583Y-70855401D01*
X152828581Y-70855400D01*
X152828573Y-70855400D01*
X152828564Y-70855400D01*
X151234229Y-70855400D01*
X151234223Y-70855401D01*
X151174616Y-70861808D01*
X151039764Y-70912105D01*
X151039223Y-70912401D01*
X151038619Y-70912532D01*
X151031459Y-70915203D01*
X151031074Y-70914173D01*
X150970950Y-70927251D01*
X150905486Y-70902832D01*
X150863617Y-70846897D01*
X150855800Y-70803567D01*
X150855800Y-67564003D01*
X153112678Y-67564003D01*
X153131107Y-67727574D01*
X153185476Y-67882953D01*
X153185477Y-67882955D01*
X153185478Y-67882957D01*
X153273058Y-68022341D01*
X153389459Y-68138742D01*
X153528843Y-68226322D01*
X153684220Y-68280691D01*
X153684223Y-68280691D01*
X153684225Y-68280692D01*
X153847796Y-68299122D01*
X153847800Y-68299122D01*
X153847804Y-68299122D01*
X154011374Y-68280692D01*
X154011375Y-68280691D01*
X154011380Y-68280691D01*
X154166757Y-68226322D01*
X154306141Y-68138742D01*
X154422542Y-68022341D01*
X154510122Y-67882957D01*
X154564491Y-67727580D01*
X154582922Y-67564000D01*
X154564491Y-67400420D01*
X154510122Y-67245043D01*
X154422542Y-67105659D01*
X154306141Y-66989258D01*
X154166757Y-66901678D01*
X154166756Y-66901677D01*
X154166755Y-66901677D01*
X154166753Y-66901676D01*
X154011374Y-66847307D01*
X153847804Y-66828878D01*
X153847796Y-66828878D01*
X153684225Y-66847307D01*
X153528846Y-66901676D01*
X153528844Y-66901677D01*
X153389458Y-66989258D01*
X153273058Y-67105658D01*
X153185477Y-67245044D01*
X153185476Y-67245046D01*
X153131107Y-67400425D01*
X153112678Y-67563996D01*
X153112678Y-67564003D01*
X150855800Y-67564003D01*
X150855800Y-67399736D01*
X150874806Y-67333764D01*
X150928722Y-67247957D01*
X150983091Y-67092580D01*
X150996272Y-66975598D01*
X151001522Y-66929003D01*
X151001522Y-66928996D01*
X150983092Y-66765425D01*
X150983091Y-66765423D01*
X150983091Y-66765420D01*
X150928722Y-66610043D01*
X150841142Y-66470659D01*
X150724741Y-66354258D01*
X150585357Y-66266678D01*
X150585356Y-66266677D01*
X150585355Y-66266677D01*
X150585353Y-66266676D01*
X150460909Y-66223131D01*
X150429980Y-66212309D01*
X150429979Y-66212308D01*
X150429971Y-66212306D01*
X150423184Y-66210757D01*
X150423618Y-66208855D01*
X150368102Y-66185527D01*
X150328547Y-66127931D01*
X150322400Y-66089374D01*
X150322400Y-65470736D01*
X150341406Y-65404764D01*
X150395322Y-65318957D01*
X150449691Y-65163580D01*
X150449692Y-65163574D01*
X150453971Y-65125600D01*
X154907541Y-65125600D01*
X154928136Y-65361003D01*
X154928138Y-65361013D01*
X154989294Y-65589255D01*
X154989296Y-65589259D01*
X154989297Y-65589263D01*
X155039231Y-65696346D01*
X155089164Y-65803428D01*
X155089165Y-65803430D01*
X155224705Y-65997002D01*
X155371904Y-66144201D01*
X155405389Y-66205524D01*
X155400405Y-66275216D01*
X155358533Y-66331149D01*
X155349320Y-66337420D01*
X155194547Y-66432885D01*
X155194543Y-66432888D01*
X155070489Y-66556942D01*
X154978387Y-66706263D01*
X154978386Y-66706266D01*
X154923201Y-66872803D01*
X154923201Y-66872804D01*
X154923200Y-66872804D01*
X154912700Y-66975583D01*
X154912700Y-68275601D01*
X154912701Y-68275618D01*
X154923200Y-68378396D01*
X154923201Y-68378399D01*
X154978385Y-68544931D01*
X154978387Y-68544936D01*
X154996627Y-68574507D01*
X155070488Y-68694256D01*
X155194544Y-68818312D01*
X155343866Y-68910414D01*
X155510403Y-68965599D01*
X155613191Y-68976100D01*
X157213208Y-68976099D01*
X157315997Y-68965599D01*
X157482534Y-68910414D01*
X157631856Y-68818312D01*
X157755912Y-68694256D01*
X157848014Y-68544934D01*
X157903199Y-68378397D01*
X157913700Y-68275609D01*
X157913699Y-66975592D01*
X157903199Y-66872803D01*
X157848014Y-66706266D01*
X157755912Y-66556944D01*
X157631856Y-66432888D01*
X157504376Y-66354258D01*
X157477079Y-66337421D01*
X157430355Y-66285473D01*
X157419132Y-66216510D01*
X157446976Y-66152428D01*
X157454495Y-66144201D01*
X157509322Y-66089374D01*
X157601695Y-65997001D01*
X157737235Y-65803430D01*
X157837103Y-65589263D01*
X157898263Y-65361008D01*
X157918859Y-65125600D01*
X157898263Y-64890192D01*
X157837103Y-64661937D01*
X157737235Y-64447771D01*
X157737234Y-64447769D01*
X157601694Y-64254197D01*
X157434602Y-64087105D01*
X157241030Y-63951565D01*
X157241028Y-63951564D01*
X157065738Y-63869825D01*
X157026863Y-63851697D01*
X157026859Y-63851696D01*
X157026855Y-63851694D01*
X156798613Y-63790538D01*
X156798603Y-63790536D01*
X156622167Y-63775100D01*
X156622166Y-63775100D01*
X156204234Y-63775100D01*
X156204233Y-63775100D01*
X156027796Y-63790536D01*
X156027786Y-63790538D01*
X155799544Y-63851694D01*
X155799535Y-63851698D01*
X155585371Y-63951564D01*
X155585369Y-63951565D01*
X155391797Y-64087105D01*
X155224706Y-64254197D01*
X155224701Y-64254204D01*
X155089167Y-64447765D01*
X155089165Y-64447769D01*
X154989298Y-64661935D01*
X154989294Y-64661944D01*
X154928138Y-64890186D01*
X154928136Y-64890196D01*
X154907541Y-65125599D01*
X154907541Y-65125600D01*
X150453971Y-65125600D01*
X150468122Y-65000003D01*
X150468122Y-64999996D01*
X150449692Y-64836425D01*
X150449691Y-64836423D01*
X150449691Y-64836420D01*
X150395322Y-64681043D01*
X150307742Y-64541659D01*
X150191341Y-64425258D01*
X150051957Y-64337678D01*
X150051956Y-64337677D01*
X150051955Y-64337677D01*
X150051953Y-64337676D01*
X149896574Y-64283307D01*
X149733004Y-64264878D01*
X149732996Y-64264878D01*
X149569425Y-64283307D01*
X149414046Y-64337676D01*
X149414044Y-64337677D01*
X149274658Y-64425258D01*
X149158258Y-64541658D01*
X149070677Y-64681044D01*
X149070676Y-64681046D01*
X149016307Y-64836425D01*
X148997878Y-64999996D01*
X148997878Y-65000003D01*
X149016307Y-65163574D01*
X149070677Y-65318956D01*
X149124594Y-65404764D01*
X149143600Y-65470736D01*
X149143600Y-72387800D01*
X149123915Y-72454839D01*
X149071111Y-72500594D01*
X149019600Y-72511800D01*
X144590336Y-72511800D01*
X144524365Y-72492794D01*
X144438557Y-72438878D01*
X144438556Y-72438877D01*
X144438555Y-72438877D01*
X144283174Y-72384507D01*
X144119604Y-72366078D01*
X144119596Y-72366078D01*
X143956025Y-72384507D01*
X143800646Y-72438876D01*
X143800644Y-72438877D01*
X143661258Y-72526458D01*
X143544858Y-72642858D01*
X143457277Y-72782244D01*
X143457276Y-72782246D01*
X143402907Y-72937625D01*
X143384478Y-73101196D01*
X143384478Y-73101203D01*
X143402907Y-73264774D01*
X143457276Y-73420153D01*
X143457277Y-73420155D01*
X143457278Y-73420157D01*
X143544858Y-73559541D01*
X143661259Y-73675942D01*
X143800643Y-73763522D01*
X143800646Y-73763523D01*
X143800648Y-73763524D01*
X143808099Y-73766131D01*
X143886462Y-73793551D01*
X143943237Y-73834271D01*
X143968985Y-73899223D01*
X143955530Y-73967785D01*
X143933188Y-73998273D01*
X141676782Y-76254681D01*
X141615459Y-76288166D01*
X141589101Y-76291000D01*
X138301622Y-76291000D01*
X138234583Y-76271315D01*
X138188828Y-76218511D01*
X138184051Y-76204400D01*
X138183790Y-76204492D01*
X138181491Y-76197922D01*
X138181491Y-76197920D01*
X138127122Y-76042543D01*
X138073205Y-75956734D01*
X138054200Y-75890764D01*
X138054200Y-74036958D01*
X138055261Y-74020772D01*
X138059286Y-73990200D01*
X138055036Y-73957920D01*
X138039029Y-73836336D01*
X137991882Y-73722511D01*
X137979642Y-73692961D01*
X137979641Y-73692960D01*
X137979640Y-73692957D01*
X137966190Y-73675429D01*
X137885165Y-73569835D01*
X137885163Y-73569834D01*
X137885163Y-73569833D01*
X137860692Y-73551055D01*
X137848499Y-73540362D01*
X137329106Y-73020969D01*
X137295621Y-72959646D01*
X137293566Y-72947165D01*
X137292491Y-72937620D01*
X137292489Y-72937615D01*
X137292489Y-72937612D01*
X137242369Y-72794379D01*
X137238807Y-72724600D01*
X137273535Y-72663973D01*
X137335528Y-72631745D01*
X137345528Y-72630204D01*
X137399773Y-72624092D01*
X137399773Y-72624091D01*
X137399780Y-72624091D01*
X137555157Y-72569722D01*
X137694541Y-72482142D01*
X137810942Y-72365741D01*
X137898522Y-72226357D01*
X137952891Y-72070980D01*
X137960003Y-72007859D01*
X137962449Y-71986154D01*
X137989468Y-71921852D01*
X138179742Y-71921852D01*
X138207809Y-71978643D01*
X138208889Y-71986154D01*
X138221307Y-72096374D01*
X138275676Y-72251753D01*
X138275677Y-72251755D01*
X138275678Y-72251757D01*
X138363258Y-72391141D01*
X138479659Y-72507542D01*
X138619043Y-72595122D01*
X138774420Y-72649491D01*
X138774423Y-72649491D01*
X138774425Y-72649492D01*
X138937996Y-72667922D01*
X138938000Y-72667922D01*
X138938004Y-72667922D01*
X139101574Y-72649492D01*
X139101575Y-72649491D01*
X139101580Y-72649491D01*
X139256957Y-72595122D01*
X139396341Y-72507542D01*
X139437680Y-72466203D01*
X139904678Y-72466203D01*
X139923107Y-72629774D01*
X139977477Y-72785156D01*
X140031394Y-72870964D01*
X140050400Y-72936936D01*
X140050400Y-72978241D01*
X140049339Y-72994426D01*
X140045314Y-73024998D01*
X140045314Y-73025000D01*
X140050400Y-73063631D01*
X140065571Y-73178863D01*
X140065572Y-73178867D01*
X140124958Y-73322240D01*
X140124959Y-73322242D01*
X140124960Y-73322243D01*
X140219435Y-73445365D01*
X140243910Y-73464145D01*
X140256097Y-73474834D01*
X140724693Y-73943430D01*
X140758178Y-74004753D01*
X140760232Y-74017221D01*
X140761309Y-74026779D01*
X140761309Y-74026780D01*
X140815676Y-74182153D01*
X140815677Y-74182155D01*
X140815678Y-74182157D01*
X140903258Y-74321541D01*
X141019659Y-74437942D01*
X141159043Y-74525522D01*
X141314420Y-74579891D01*
X141314423Y-74579891D01*
X141314425Y-74579892D01*
X141477996Y-74598322D01*
X141478000Y-74598322D01*
X141478004Y-74598322D01*
X141641574Y-74579892D01*
X141641575Y-74579891D01*
X141641580Y-74579891D01*
X141796957Y-74525522D01*
X141936341Y-74437942D01*
X142052742Y-74321541D01*
X142140322Y-74182157D01*
X142194691Y-74026780D01*
X142197173Y-74004753D01*
X142213122Y-73863203D01*
X142213122Y-73863196D01*
X142194692Y-73699625D01*
X142194691Y-73699623D01*
X142194691Y-73699620D01*
X142140322Y-73544243D01*
X142052742Y-73404859D01*
X141936341Y-73288458D01*
X141796957Y-73200878D01*
X141796956Y-73200877D01*
X141796955Y-73200877D01*
X141796953Y-73200876D01*
X141698793Y-73166528D01*
X141641580Y-73146509D01*
X141632020Y-73145431D01*
X141567609Y-73118362D01*
X141558230Y-73109893D01*
X141339426Y-72891089D01*
X141305941Y-72829766D01*
X141310065Y-72762454D01*
X141356491Y-72629780D01*
X141356491Y-72629778D01*
X141356492Y-72629776D01*
X141374922Y-72466203D01*
X141374922Y-72466196D01*
X141356492Y-72302625D01*
X141356491Y-72302623D01*
X141356491Y-72302620D01*
X141302122Y-72147243D01*
X141214542Y-72007859D01*
X141098141Y-71891458D01*
X140958757Y-71803878D01*
X140958756Y-71803877D01*
X140958755Y-71803877D01*
X140958753Y-71803876D01*
X140803374Y-71749507D01*
X140639804Y-71731078D01*
X140639796Y-71731078D01*
X140476225Y-71749507D01*
X140320846Y-71803876D01*
X140320844Y-71803877D01*
X140181458Y-71891458D01*
X140065058Y-72007858D01*
X139977477Y-72147244D01*
X139977476Y-72147246D01*
X139923107Y-72302625D01*
X139904678Y-72466196D01*
X139904678Y-72466203D01*
X139437680Y-72466203D01*
X139512742Y-72391141D01*
X139600322Y-72251757D01*
X139654691Y-72096380D01*
X139664665Y-72007858D01*
X139673122Y-71932803D01*
X139673122Y-71932796D01*
X139654692Y-71769225D01*
X139654691Y-71769223D01*
X139654691Y-71769220D01*
X139600322Y-71613843D01*
X139512742Y-71474459D01*
X139396341Y-71358058D01*
X139256957Y-71270478D01*
X139256956Y-71270477D01*
X139256955Y-71270477D01*
X139256953Y-71270476D01*
X139101574Y-71216107D01*
X138938004Y-71197678D01*
X138937996Y-71197678D01*
X138774425Y-71216107D01*
X138619046Y-71270476D01*
X138619044Y-71270477D01*
X138479658Y-71358058D01*
X138363258Y-71474458D01*
X138275677Y-71613844D01*
X138275676Y-71613846D01*
X138221307Y-71769225D01*
X138211750Y-71854047D01*
X138184683Y-71918460D01*
X138179742Y-71921852D01*
X137989468Y-71921852D01*
X137989515Y-71921740D01*
X137994455Y-71918346D01*
X137966389Y-71861555D01*
X137965311Y-71854051D01*
X137959658Y-71803876D01*
X137952892Y-71743826D01*
X137952891Y-71743824D01*
X137952891Y-71743820D01*
X137898522Y-71588443D01*
X137810942Y-71449059D01*
X137694541Y-71332658D01*
X137555157Y-71245078D01*
X137555156Y-71245077D01*
X137555155Y-71245077D01*
X137555153Y-71245076D01*
X137399774Y-71190707D01*
X137236204Y-71172278D01*
X137236196Y-71172278D01*
X137072623Y-71190707D01*
X137034520Y-71204041D01*
X136993565Y-71211000D01*
X135846931Y-71211000D01*
X135779892Y-71191315D01*
X135734137Y-71138511D01*
X135730749Y-71130333D01*
X135724497Y-71113571D01*
X135724493Y-71113564D01*
X135638247Y-70998355D01*
X135638244Y-70998352D01*
X135523035Y-70912106D01*
X135523028Y-70912102D01*
X135388182Y-70861808D01*
X135388183Y-70861808D01*
X135328583Y-70855401D01*
X135328581Y-70855400D01*
X135328573Y-70855400D01*
X135328564Y-70855400D01*
X133734229Y-70855400D01*
X133734223Y-70855401D01*
X133674616Y-70861808D01*
X133539771Y-70912102D01*
X133539764Y-70912106D01*
X133424555Y-70998352D01*
X133424552Y-70998355D01*
X133338306Y-71113564D01*
X133338302Y-71113571D01*
X133288008Y-71248417D01*
X133281601Y-71308016D01*
X133281600Y-71308035D01*
X133281600Y-72292770D01*
X133281601Y-72292776D01*
X133288008Y-72352382D01*
X133302810Y-72392069D01*
X133307793Y-72461761D01*
X133302810Y-72478731D01*
X133288008Y-72518417D01*
X133281601Y-72578016D01*
X133281600Y-72578035D01*
X133281600Y-73562770D01*
X133281601Y-73562776D01*
X133288008Y-73622382D01*
X133302810Y-73662069D01*
X133307793Y-73731761D01*
X133302810Y-73748731D01*
X133288008Y-73788417D01*
X133281601Y-73848016D01*
X133281600Y-73848035D01*
X133281600Y-74832770D01*
X133281601Y-74832776D01*
X133288008Y-74892382D01*
X133302810Y-74932069D01*
X133307793Y-75001761D01*
X133302810Y-75018731D01*
X133288008Y-75058417D01*
X133281834Y-75115847D01*
X133281601Y-75118023D01*
X133281600Y-75118035D01*
X133281600Y-76102770D01*
X133281601Y-76102776D01*
X133288008Y-76162382D01*
X133302810Y-76202069D01*
X133307793Y-76271761D01*
X133302810Y-76288731D01*
X133288008Y-76328417D01*
X133281601Y-76388016D01*
X133281600Y-76388035D01*
X133281600Y-77372770D01*
X133281601Y-77372776D01*
X133288008Y-77432382D01*
X133302810Y-77472069D01*
X133307793Y-77541761D01*
X133302810Y-77558731D01*
X133288008Y-77598417D01*
X133282628Y-77648464D01*
X133281601Y-77658025D01*
X133281600Y-77658035D01*
X133281600Y-77964800D01*
X133261915Y-78031839D01*
X133209111Y-78077594D01*
X133139953Y-78087538D01*
X133076397Y-78058513D01*
X133069919Y-78052481D01*
X129868534Y-74851097D01*
X129857845Y-74838910D01*
X129839065Y-74814435D01*
X129715943Y-74719960D01*
X129715941Y-74719959D01*
X129572563Y-74660570D01*
X129572564Y-74660570D01*
X129568675Y-74660059D01*
X129568671Y-74660057D01*
X129568667Y-74660058D01*
X129418701Y-74640314D01*
X129418699Y-74640314D01*
X129391264Y-74643926D01*
X129322228Y-74633161D01*
X129309117Y-74625987D01*
X129223957Y-74572478D01*
X129223956Y-74572477D01*
X129223955Y-74572477D01*
X129068574Y-74518107D01*
X128905004Y-74499678D01*
X128904996Y-74499678D01*
X128741425Y-74518107D01*
X128586046Y-74572476D01*
X128586044Y-74572477D01*
X128446658Y-74660058D01*
X128330258Y-74776458D01*
X128242677Y-74915844D01*
X128242676Y-74915846D01*
X128188307Y-75071225D01*
X128169878Y-75234796D01*
X128169878Y-75234803D01*
X128188307Y-75398374D01*
X128242676Y-75553753D01*
X128242677Y-75553755D01*
X128242678Y-75553757D01*
X128330258Y-75693141D01*
X128446659Y-75809542D01*
X128586043Y-75897122D01*
X128741420Y-75951491D01*
X128741423Y-75951491D01*
X128741425Y-75951492D01*
X128904996Y-75969922D01*
X128905000Y-75969922D01*
X128905004Y-75969922D01*
X129068574Y-75951492D01*
X129068575Y-75951491D01*
X129068580Y-75951491D01*
X129167847Y-75916755D01*
X129237621Y-75913193D01*
X129296478Y-75946115D01*
X131257651Y-77907289D01*
X133154464Y-79804102D01*
X133165158Y-79816295D01*
X133183932Y-79840762D01*
X133183933Y-79840763D01*
X133183935Y-79840765D01*
X133233276Y-79878626D01*
X133274477Y-79935052D01*
X133278632Y-80004798D01*
X133244420Y-80065719D01*
X133182702Y-80098471D01*
X133157788Y-80101000D01*
X132344699Y-80101000D01*
X132277660Y-80081315D01*
X132257018Y-80064681D01*
X129302706Y-77110369D01*
X129269221Y-77049046D01*
X129267166Y-77036565D01*
X129266091Y-77027020D01*
X129266089Y-77027015D01*
X129266089Y-77027012D01*
X129211726Y-76871651D01*
X129211722Y-76871644D01*
X129211722Y-76871643D01*
X129124142Y-76732259D01*
X129007741Y-76615858D01*
X128868357Y-76528278D01*
X128868356Y-76528277D01*
X128868355Y-76528277D01*
X128868353Y-76528276D01*
X128712974Y-76473907D01*
X128549404Y-76455478D01*
X128549396Y-76455478D01*
X128385825Y-76473907D01*
X128230446Y-76528276D01*
X128230444Y-76528277D01*
X128091058Y-76615858D01*
X127974181Y-76732736D01*
X127912858Y-76766221D01*
X127843166Y-76761237D01*
X127787233Y-76719365D01*
X127762816Y-76653901D01*
X127762500Y-76645055D01*
X127762500Y-69291203D01*
X132157678Y-69291203D01*
X132176107Y-69454774D01*
X132230476Y-69610153D01*
X132230477Y-69610155D01*
X132230478Y-69610157D01*
X132318058Y-69749541D01*
X132434459Y-69865942D01*
X132573843Y-69953522D01*
X132729220Y-70007891D01*
X132729223Y-70007891D01*
X132729225Y-70007892D01*
X132892796Y-70026322D01*
X132892800Y-70026322D01*
X132892804Y-70026322D01*
X133056374Y-70007892D01*
X133056375Y-70007891D01*
X133056380Y-70007891D01*
X133211757Y-69953522D01*
X133351141Y-69865942D01*
X133467542Y-69749541D01*
X133555122Y-69610157D01*
X133609491Y-69454780D01*
X133627922Y-69291200D01*
X133609491Y-69127620D01*
X133555122Y-68972243D01*
X133467542Y-68832859D01*
X133351141Y-68716458D01*
X133211757Y-68628878D01*
X133211756Y-68628877D01*
X133211755Y-68628877D01*
X133211753Y-68628876D01*
X133056374Y-68574507D01*
X132892804Y-68556078D01*
X132892796Y-68556078D01*
X132729225Y-68574507D01*
X132573846Y-68628876D01*
X132573844Y-68628877D01*
X132434458Y-68716458D01*
X132318058Y-68832858D01*
X132230477Y-68972244D01*
X132230476Y-68972246D01*
X132176107Y-69127625D01*
X132157678Y-69291196D01*
X132157678Y-69291203D01*
X127762500Y-69291203D01*
X127762500Y-64033403D01*
X153138078Y-64033403D01*
X153156507Y-64196974D01*
X153210876Y-64352353D01*
X153210877Y-64352355D01*
X153210878Y-64352357D01*
X153298458Y-64491741D01*
X153414859Y-64608142D01*
X153554243Y-64695722D01*
X153709620Y-64750091D01*
X153709623Y-64750091D01*
X153709625Y-64750092D01*
X153873196Y-64768522D01*
X153873200Y-64768522D01*
X153873204Y-64768522D01*
X154036774Y-64750092D01*
X154036775Y-64750091D01*
X154036780Y-64750091D01*
X154192157Y-64695722D01*
X154331541Y-64608142D01*
X154447942Y-64491741D01*
X154535522Y-64352357D01*
X154589891Y-64196980D01*
X154608322Y-64033400D01*
X154599101Y-63951565D01*
X154589892Y-63869825D01*
X154589891Y-63869823D01*
X154589891Y-63869820D01*
X154535522Y-63714443D01*
X154447942Y-63575059D01*
X154331541Y-63458658D01*
X154192157Y-63371078D01*
X154192156Y-63371077D01*
X154192155Y-63371077D01*
X154192153Y-63371076D01*
X154036774Y-63316707D01*
X153873204Y-63298278D01*
X153873196Y-63298278D01*
X153709625Y-63316707D01*
X153554246Y-63371076D01*
X153554244Y-63371077D01*
X153414858Y-63458658D01*
X153298458Y-63575058D01*
X153210877Y-63714444D01*
X153210876Y-63714446D01*
X153156507Y-63869825D01*
X153138078Y-64033396D01*
X153138078Y-64033403D01*
X127762500Y-64033403D01*
X127762500Y-62252900D01*
X127782185Y-62185861D01*
X127834989Y-62140106D01*
X127886500Y-62128900D01*
X158879500Y-62128900D01*
X158946539Y-62148585D01*
G37*
G04 #@! TD.AperFunction*
G04 #@! TA.AperFunction,Conductor*
G36*
X148483261Y-82524085D02*
G01*
X148529016Y-82576889D01*
X148533263Y-82587445D01*
X148551776Y-82640353D01*
X148551778Y-82640357D01*
X148639358Y-82779741D01*
X148755759Y-82896142D01*
X148895143Y-82983722D01*
X148933473Y-82997134D01*
X148990250Y-83037855D01*
X149015998Y-83102807D01*
X149015740Y-83128059D01*
X148997878Y-83286595D01*
X148997878Y-83286603D01*
X149016307Y-83450174D01*
X149070677Y-83605556D01*
X149124594Y-83691364D01*
X149143600Y-83757336D01*
X149143600Y-85314206D01*
X149123915Y-85381245D01*
X149071111Y-85427000D01*
X149001953Y-85436944D01*
X148978647Y-85431248D01*
X148931375Y-85414707D01*
X148931376Y-85414707D01*
X148767804Y-85396278D01*
X148767796Y-85396278D01*
X148604225Y-85414707D01*
X148448846Y-85469076D01*
X148448844Y-85469077D01*
X148309458Y-85556658D01*
X148284236Y-85581881D01*
X148222913Y-85615366D01*
X148196555Y-85618200D01*
X141090463Y-85618200D01*
X141023424Y-85598515D01*
X141002782Y-85581881D01*
X139323024Y-83902123D01*
X139289539Y-83840800D01*
X139294523Y-83771108D01*
X139336395Y-83715175D01*
X139344721Y-83709457D01*
X139345541Y-83708942D01*
X139461942Y-83592541D01*
X139549522Y-83453157D01*
X139549523Y-83453151D01*
X139549526Y-83453148D01*
X139603889Y-83297787D01*
X139603889Y-83297784D01*
X139603891Y-83297780D01*
X139604966Y-83288232D01*
X139632029Y-83223819D01*
X139640499Y-83214437D01*
X139653825Y-83201112D01*
X139715151Y-83167632D01*
X139741500Y-83164800D01*
X142186564Y-83164800D01*
X142252534Y-83183805D01*
X142338343Y-83237722D01*
X142493720Y-83292091D01*
X142493723Y-83292091D01*
X142493725Y-83292092D01*
X142657296Y-83310522D01*
X142657300Y-83310522D01*
X142657304Y-83310522D01*
X142820874Y-83292092D01*
X142820875Y-83292091D01*
X142820880Y-83292091D01*
X142976257Y-83237722D01*
X143115641Y-83150142D01*
X143232042Y-83033741D01*
X143319622Y-82894357D01*
X143373991Y-82738980D01*
X143374098Y-82738029D01*
X143388015Y-82614517D01*
X143415081Y-82550103D01*
X143472676Y-82510548D01*
X143511235Y-82504400D01*
X148416222Y-82504400D01*
X148483261Y-82524085D01*
G37*
G04 #@! TD.AperFunction*
G04 #@! TA.AperFunction,Conductor*
G36*
X149086639Y-73710285D02*
G01*
X149132394Y-73763089D01*
X149143600Y-73814600D01*
X149143600Y-74052864D01*
X149124594Y-74118834D01*
X149093846Y-74167770D01*
X149070677Y-74204644D01*
X149016307Y-74360025D01*
X148997878Y-74523596D01*
X148997878Y-74523603D01*
X149016307Y-74687174D01*
X149070677Y-74842556D01*
X149124594Y-74928364D01*
X149143600Y-74994336D01*
X149143600Y-81230593D01*
X149123915Y-81297632D01*
X149071111Y-81343387D01*
X149001953Y-81353331D01*
X148972152Y-81345156D01*
X148961567Y-81340772D01*
X148961565Y-81340771D01*
X148961564Y-81340771D01*
X148885828Y-81330800D01*
X148807701Y-81320514D01*
X148807699Y-81320514D01*
X148777128Y-81324539D01*
X148760942Y-81325600D01*
X147616245Y-81325600D01*
X147549206Y-81305915D01*
X147503451Y-81253111D01*
X147493507Y-81183953D01*
X147522532Y-81120397D01*
X147528564Y-81113919D01*
X147537071Y-81105412D01*
X147564542Y-81077941D01*
X147652122Y-80938557D01*
X147706491Y-80783180D01*
X147713314Y-80722625D01*
X147724922Y-80619603D01*
X147724922Y-80619596D01*
X147706492Y-80456025D01*
X147706491Y-80456023D01*
X147706491Y-80456020D01*
X147652122Y-80300643D01*
X147564542Y-80161259D01*
X147448141Y-80044858D01*
X147308757Y-79957278D01*
X147308756Y-79957277D01*
X147308755Y-79957277D01*
X147308753Y-79957276D01*
X147153374Y-79902907D01*
X146989804Y-79884478D01*
X146989796Y-79884478D01*
X146875800Y-79897321D01*
X146875800Y-76067600D01*
X143530936Y-76067600D01*
X145135019Y-74463519D01*
X145196342Y-74430034D01*
X145222700Y-74427200D01*
X145695364Y-74427200D01*
X145761334Y-74446205D01*
X145847143Y-74500122D01*
X146002520Y-74554491D01*
X146002523Y-74554491D01*
X146002525Y-74554492D01*
X146166096Y-74572922D01*
X146166100Y-74572922D01*
X146166104Y-74572922D01*
X146329674Y-74554492D01*
X146329675Y-74554491D01*
X146329680Y-74554491D01*
X146485057Y-74500122D01*
X146624441Y-74412542D01*
X146740842Y-74296141D01*
X146828422Y-74156757D01*
X146882791Y-74001380D01*
X146884051Y-73990200D01*
X146901222Y-73837803D01*
X146901222Y-73837801D01*
X146900172Y-73828480D01*
X146912229Y-73759659D01*
X146959580Y-73708280D01*
X147023393Y-73690600D01*
X149019600Y-73690600D01*
X149086639Y-73710285D01*
G37*
G04 #@! TD.AperFunction*
G04 #@! TA.AperFunction,Conductor*
G36*
X146374439Y-76620085D02*
G01*
X146420194Y-76672889D01*
X146431400Y-76724400D01*
X146431400Y-79776400D01*
X146411715Y-79843439D01*
X146358911Y-79889194D01*
X146307400Y-79900400D01*
X143255400Y-79900400D01*
X143188361Y-79880715D01*
X143142606Y-79827911D01*
X143131400Y-79776400D01*
X143131400Y-78500400D01*
X143631400Y-78500400D01*
X143631400Y-79400400D01*
X144531400Y-79400400D01*
X144531400Y-78500400D01*
X145031400Y-78500400D01*
X145031400Y-79400400D01*
X145931400Y-79400400D01*
X145931400Y-78500400D01*
X145031400Y-78500400D01*
X144531400Y-78500400D01*
X143631400Y-78500400D01*
X143131400Y-78500400D01*
X143131400Y-77100400D01*
X143631400Y-77100400D01*
X143631400Y-78000400D01*
X144531400Y-78000400D01*
X144531400Y-77100400D01*
X145031400Y-77100400D01*
X145031400Y-78000400D01*
X145931400Y-78000400D01*
X145931400Y-77100400D01*
X145031400Y-77100400D01*
X144531400Y-77100400D01*
X143631400Y-77100400D01*
X143131400Y-77100400D01*
X143131400Y-76724400D01*
X143151085Y-76657361D01*
X143203889Y-76611606D01*
X143255400Y-76600400D01*
X146307400Y-76600400D01*
X146374439Y-76620085D01*
G37*
G04 #@! TD.AperFunction*
M02*
