G04 #@! TF.GenerationSoftware,KiCad,Pcbnew,7.0.10*
G04 #@! TF.CreationDate,2024-11-08T18:22:10-05:00*
G04 #@! TF.ProjectId,Sensify Main Board,53656e73-6966-4792-904d-61696e20426f,rev?*
G04 #@! TF.SameCoordinates,Original*
G04 #@! TF.FileFunction,Paste,Top*
G04 #@! TF.FilePolarity,Positive*
%FSLAX46Y46*%
G04 Gerber Fmt 4.6, Leading zero omitted, Abs format (unit mm)*
G04 Created by KiCad (PCBNEW 7.0.10) date 2024-11-08 18:22:10*
%MOMM*%
%LPD*%
G01*
G04 APERTURE LIST*
G04 Aperture macros list*
%AMRoundRect*
0 Rectangle with rounded corners*
0 $1 Rounding radius*
0 $2 $3 $4 $5 $6 $7 $8 $9 X,Y pos of 4 corners*
0 Add a 4 corners polygon primitive as box body*
4,1,4,$2,$3,$4,$5,$6,$7,$8,$9,$2,$3,0*
0 Add four circle primitives for the rounded corners*
1,1,$1+$1,$2,$3*
1,1,$1+$1,$4,$5*
1,1,$1+$1,$6,$7*
1,1,$1+$1,$8,$9*
0 Add four rect primitives between the rounded corners*
20,1,$1+$1,$2,$3,$4,$5,0*
20,1,$1+$1,$4,$5,$6,$7,0*
20,1,$1+$1,$6,$7,$8,$9,0*
20,1,$1+$1,$8,$9,$2,$3,0*%
G04 Aperture macros list end*
%ADD10C,0.010000*%
%ADD11RoundRect,0.135000X-0.185000X0.135000X-0.185000X-0.135000X0.185000X-0.135000X0.185000X0.135000X0*%
%ADD12RoundRect,0.140000X-0.140000X-0.170000X0.140000X-0.170000X0.140000X0.170000X-0.140000X0.170000X0*%
%ADD13RoundRect,0.160000X0.160000X-0.197500X0.160000X0.197500X-0.160000X0.197500X-0.160000X-0.197500X0*%
%ADD14RoundRect,0.155000X0.212500X0.155000X-0.212500X0.155000X-0.212500X-0.155000X0.212500X-0.155000X0*%
%ADD15RoundRect,0.015000X0.760000X0.285000X-0.760000X0.285000X-0.760000X-0.285000X0.760000X-0.285000X0*%
%ADD16RoundRect,0.193750X0.581250X-0.971250X0.581250X0.971250X-0.581250X0.971250X-0.581250X-0.971250X0*%
%ADD17RoundRect,0.140000X-0.170000X0.140000X-0.170000X-0.140000X0.170000X-0.140000X0.170000X0.140000X0*%
%ADD18RoundRect,0.135000X0.185000X-0.135000X0.185000X0.135000X-0.185000X0.135000X-0.185000X-0.135000X0*%
%ADD19R,0.300000X0.800000*%
%ADD20R,0.800000X0.300000*%
%ADD21R,2.600000X2.600000*%
%ADD22RoundRect,0.035000X-0.700000X-0.105000X0.700000X-0.105000X0.700000X0.105000X-0.700000X0.105000X0*%
%ADD23RoundRect,0.140000X0.170000X-0.140000X0.170000X0.140000X-0.170000X0.140000X-0.170000X-0.140000X0*%
%ADD24RoundRect,0.155000X-0.212500X-0.155000X0.212500X-0.155000X0.212500X0.155000X-0.212500X0.155000X0*%
%ADD25RoundRect,0.237500X-0.237500X0.300000X-0.237500X-0.300000X0.237500X-0.300000X0.237500X0.300000X0*%
%ADD26RoundRect,0.135000X-0.135000X-0.185000X0.135000X-0.185000X0.135000X0.185000X-0.135000X0.185000X0*%
%ADD27RoundRect,0.135000X0.135000X0.185000X-0.135000X0.185000X-0.135000X-0.185000X0.135000X-0.185000X0*%
%ADD28RoundRect,0.160000X-0.160000X0.197500X-0.160000X-0.197500X0.160000X-0.197500X0.160000X0.197500X0*%
%ADD29RoundRect,0.160000X-0.197500X-0.160000X0.197500X-0.160000X0.197500X0.160000X-0.197500X0.160000X0*%
%ADD30RoundRect,0.237500X-0.300000X-0.237500X0.300000X-0.237500X0.300000X0.237500X-0.300000X0.237500X0*%
%ADD31RoundRect,0.237500X-0.250000X-0.237500X0.250000X-0.237500X0.250000X0.237500X-0.250000X0.237500X0*%
%ADD32R,0.304800X0.609600*%
%ADD33R,1.193800X1.295400*%
%ADD34RoundRect,0.155000X0.155000X-0.212500X0.155000X0.212500X-0.155000X0.212500X-0.155000X-0.212500X0*%
%ADD35RoundRect,0.250000X-0.337500X-0.475000X0.337500X-0.475000X0.337500X0.475000X-0.337500X0.475000X0*%
%ADD36RoundRect,0.237500X0.300000X0.237500X-0.300000X0.237500X-0.300000X-0.237500X0.300000X-0.237500X0*%
%ADD37RoundRect,0.237500X0.287500X0.237500X-0.287500X0.237500X-0.287500X-0.237500X0.287500X-0.237500X0*%
%ADD38R,1.066800X0.254000*%
%ADD39R,0.254000X1.066800*%
%ADD40R,3.352800X3.352800*%
%ADD41R,1.600000X0.800000*%
%ADD42R,3.000000X2.100000*%
%ADD43RoundRect,0.237500X0.237500X-0.300000X0.237500X0.300000X-0.237500X0.300000X-0.237500X-0.300000X0*%
%ADD44R,1.800000X2.250000*%
%ADD45RoundRect,0.250000X0.350000X0.450000X-0.350000X0.450000X-0.350000X-0.450000X0.350000X-0.450000X0*%
%ADD46RoundRect,0.250000X-0.475000X0.337500X-0.475000X-0.337500X0.475000X-0.337500X0.475000X0.337500X0*%
%ADD47R,0.863600X1.600200*%
%ADD48R,2.250000X1.800000*%
%ADD49R,1.651000X2.489200*%
%ADD50RoundRect,0.160000X0.197500X0.160000X-0.197500X0.160000X-0.197500X-0.160000X0.197500X-0.160000X0*%
%ADD51R,0.990600X2.311400*%
%ADD52R,0.990600X0.812800*%
%ADD53R,0.500000X0.750000*%
%ADD54R,1.900000X5.100000*%
%ADD55R,1.094700X3.708400*%
%ADD56RoundRect,0.245000X0.245000X-0.955000X0.245000X0.955000X-0.245000X0.955000X-0.245000X-0.955000X0*%
%ADD57R,1.230000X1.800000*%
%ADD58RoundRect,0.147500X0.147500X-0.457500X0.147500X0.457500X-0.147500X0.457500X-0.147500X-0.457500X0*%
%ADD59R,0.351536X0.576580*%
%ADD60R,0.576580X0.351536*%
%ADD61R,0.600000X0.650000*%
%ADD62R,0.700000X0.350000*%
%ADD63R,1.140000X0.600000*%
%ADD64R,1.140000X0.300000*%
%ADD65RoundRect,0.250000X0.450000X-0.350000X0.450000X0.350000X-0.450000X0.350000X-0.450000X-0.350000X0*%
%ADD66RoundRect,0.250000X-0.450000X0.350000X-0.450000X-0.350000X0.450000X-0.350000X0.450000X0.350000X0*%
%ADD67RoundRect,0.237500X0.237500X-0.287500X0.237500X0.287500X-0.237500X0.287500X-0.237500X-0.287500X0*%
G04 APERTURE END LIST*
D10*
X140054000Y-128872000D02*
X137344000Y-128872000D01*
X137344000Y-125472000D01*
X140054000Y-125472000D01*
X140054000Y-128872000D01*
G36*
X140054000Y-128872000D02*
G01*
X137344000Y-128872000D01*
X137344000Y-125472000D01*
X140054000Y-125472000D01*
X140054000Y-128872000D01*
G37*
X152714300Y-145157000D02*
X152716300Y-145157000D01*
X152719300Y-145158000D01*
X152721300Y-145158000D01*
X152724300Y-145159000D01*
X152726300Y-145160000D01*
X152729300Y-145161000D01*
X152731300Y-145163000D01*
X152733300Y-145164000D01*
X152735300Y-145166000D01*
X152737300Y-145167000D01*
X152739300Y-145169000D01*
X152741300Y-145171000D01*
X152743300Y-145173000D01*
X152745300Y-145175000D01*
X152746300Y-145177000D01*
X152748300Y-145179000D01*
X152749300Y-145181000D01*
X152751300Y-145183000D01*
X152752300Y-145186000D01*
X152753300Y-145188000D01*
X152754300Y-145191000D01*
X152754300Y-145193000D01*
X152755300Y-145196000D01*
X152755300Y-145198000D01*
X152756300Y-145201000D01*
X152756300Y-145203000D01*
X152756300Y-145206000D01*
X152756300Y-145346000D01*
X152756300Y-145349000D01*
X152756300Y-145351000D01*
X152755300Y-145354000D01*
X152755300Y-145356000D01*
X152754300Y-145359000D01*
X152754300Y-145361000D01*
X152753300Y-145364000D01*
X152752300Y-145366000D01*
X152751300Y-145369000D01*
X152749300Y-145371000D01*
X152748300Y-145373000D01*
X152746300Y-145375000D01*
X152745300Y-145377000D01*
X152743300Y-145379000D01*
X152741300Y-145381000D01*
X152739300Y-145383000D01*
X152737300Y-145385000D01*
X152735300Y-145386000D01*
X152733300Y-145388000D01*
X152731300Y-145389000D01*
X152729300Y-145391000D01*
X152726300Y-145392000D01*
X152724300Y-145393000D01*
X152721300Y-145394000D01*
X152719300Y-145394000D01*
X152716300Y-145395000D01*
X152714300Y-145395000D01*
X152711300Y-145396000D01*
X152709300Y-145396000D01*
X152706300Y-145396000D01*
X152206300Y-145396000D01*
X152203300Y-145396000D01*
X152201300Y-145396000D01*
X152198300Y-145395000D01*
X152196300Y-145395000D01*
X152193300Y-145394000D01*
X152191300Y-145394000D01*
X152188300Y-145393000D01*
X152186300Y-145392000D01*
X152183300Y-145391000D01*
X152181300Y-145389000D01*
X152179300Y-145388000D01*
X152177300Y-145386000D01*
X152175300Y-145385000D01*
X152173300Y-145383000D01*
X152171300Y-145381000D01*
X152169300Y-145379000D01*
X152167300Y-145377000D01*
X152166300Y-145375000D01*
X152164300Y-145373000D01*
X152163300Y-145371000D01*
X152161300Y-145369000D01*
X152160300Y-145366000D01*
X152159300Y-145364000D01*
X152158300Y-145361000D01*
X152158300Y-145359000D01*
X152157300Y-145356000D01*
X152157300Y-145354000D01*
X152156300Y-145351000D01*
X152156300Y-145349000D01*
X152156300Y-145346000D01*
X152156300Y-145206000D01*
X152156300Y-145203000D01*
X152156300Y-145201000D01*
X152157300Y-145198000D01*
X152157300Y-145196000D01*
X152158300Y-145193000D01*
X152158300Y-145191000D01*
X152159300Y-145188000D01*
X152160300Y-145186000D01*
X152161300Y-145183000D01*
X152163300Y-145181000D01*
X152164300Y-145179000D01*
X152166300Y-145177000D01*
X152167300Y-145175000D01*
X152169300Y-145173000D01*
X152171300Y-145171000D01*
X152173300Y-145169000D01*
X152175300Y-145167000D01*
X152177300Y-145166000D01*
X152179300Y-145164000D01*
X152181300Y-145163000D01*
X152183300Y-145161000D01*
X152186300Y-145160000D01*
X152188300Y-145159000D01*
X152191300Y-145158000D01*
X152193300Y-145158000D01*
X152196300Y-145157000D01*
X152198300Y-145157000D01*
X152201300Y-145156000D01*
X152203300Y-145156000D01*
X152206300Y-145156000D01*
X152706300Y-145156000D01*
X152709300Y-145156000D01*
X152711300Y-145156000D01*
X152714300Y-145157000D01*
G36*
X152714300Y-145157000D02*
G01*
X152716300Y-145157000D01*
X152719300Y-145158000D01*
X152721300Y-145158000D01*
X152724300Y-145159000D01*
X152726300Y-145160000D01*
X152729300Y-145161000D01*
X152731300Y-145163000D01*
X152733300Y-145164000D01*
X152735300Y-145166000D01*
X152737300Y-145167000D01*
X152739300Y-145169000D01*
X152741300Y-145171000D01*
X152743300Y-145173000D01*
X152745300Y-145175000D01*
X152746300Y-145177000D01*
X152748300Y-145179000D01*
X152749300Y-145181000D01*
X152751300Y-145183000D01*
X152752300Y-145186000D01*
X152753300Y-145188000D01*
X152754300Y-145191000D01*
X152754300Y-145193000D01*
X152755300Y-145196000D01*
X152755300Y-145198000D01*
X152756300Y-145201000D01*
X152756300Y-145203000D01*
X152756300Y-145206000D01*
X152756300Y-145346000D01*
X152756300Y-145349000D01*
X152756300Y-145351000D01*
X152755300Y-145354000D01*
X152755300Y-145356000D01*
X152754300Y-145359000D01*
X152754300Y-145361000D01*
X152753300Y-145364000D01*
X152752300Y-145366000D01*
X152751300Y-145369000D01*
X152749300Y-145371000D01*
X152748300Y-145373000D01*
X152746300Y-145375000D01*
X152745300Y-145377000D01*
X152743300Y-145379000D01*
X152741300Y-145381000D01*
X152739300Y-145383000D01*
X152737300Y-145385000D01*
X152735300Y-145386000D01*
X152733300Y-145388000D01*
X152731300Y-145389000D01*
X152729300Y-145391000D01*
X152726300Y-145392000D01*
X152724300Y-145393000D01*
X152721300Y-145394000D01*
X152719300Y-145394000D01*
X152716300Y-145395000D01*
X152714300Y-145395000D01*
X152711300Y-145396000D01*
X152709300Y-145396000D01*
X152706300Y-145396000D01*
X152206300Y-145396000D01*
X152203300Y-145396000D01*
X152201300Y-145396000D01*
X152198300Y-145395000D01*
X152196300Y-145395000D01*
X152193300Y-145394000D01*
X152191300Y-145394000D01*
X152188300Y-145393000D01*
X152186300Y-145392000D01*
X152183300Y-145391000D01*
X152181300Y-145389000D01*
X152179300Y-145388000D01*
X152177300Y-145386000D01*
X152175300Y-145385000D01*
X152173300Y-145383000D01*
X152171300Y-145381000D01*
X152169300Y-145379000D01*
X152167300Y-145377000D01*
X152166300Y-145375000D01*
X152164300Y-145373000D01*
X152163300Y-145371000D01*
X152161300Y-145369000D01*
X152160300Y-145366000D01*
X152159300Y-145364000D01*
X152158300Y-145361000D01*
X152158300Y-145359000D01*
X152157300Y-145356000D01*
X152157300Y-145354000D01*
X152156300Y-145351000D01*
X152156300Y-145349000D01*
X152156300Y-145346000D01*
X152156300Y-145206000D01*
X152156300Y-145203000D01*
X152156300Y-145201000D01*
X152157300Y-145198000D01*
X152157300Y-145196000D01*
X152158300Y-145193000D01*
X152158300Y-145191000D01*
X152159300Y-145188000D01*
X152160300Y-145186000D01*
X152161300Y-145183000D01*
X152163300Y-145181000D01*
X152164300Y-145179000D01*
X152166300Y-145177000D01*
X152167300Y-145175000D01*
X152169300Y-145173000D01*
X152171300Y-145171000D01*
X152173300Y-145169000D01*
X152175300Y-145167000D01*
X152177300Y-145166000D01*
X152179300Y-145164000D01*
X152181300Y-145163000D01*
X152183300Y-145161000D01*
X152186300Y-145160000D01*
X152188300Y-145159000D01*
X152191300Y-145158000D01*
X152193300Y-145158000D01*
X152196300Y-145157000D01*
X152198300Y-145157000D01*
X152201300Y-145156000D01*
X152203300Y-145156000D01*
X152206300Y-145156000D01*
X152706300Y-145156000D01*
X152709300Y-145156000D01*
X152711300Y-145156000D01*
X152714300Y-145157000D01*
G37*
X152714300Y-144657000D02*
X152716300Y-144657000D01*
X152719300Y-144658000D01*
X152721300Y-144658000D01*
X152724300Y-144659000D01*
X152726300Y-144660000D01*
X152729300Y-144661000D01*
X152731300Y-144663000D01*
X152733300Y-144664000D01*
X152735300Y-144666000D01*
X152737300Y-144667000D01*
X152739300Y-144669000D01*
X152741300Y-144671000D01*
X152743300Y-144673000D01*
X152745300Y-144675000D01*
X152746300Y-144677000D01*
X152748300Y-144679000D01*
X152749300Y-144681000D01*
X152751300Y-144683000D01*
X152752300Y-144686000D01*
X152753300Y-144688000D01*
X152754300Y-144691000D01*
X152754300Y-144693000D01*
X152755300Y-144696000D01*
X152755300Y-144698000D01*
X152756300Y-144701000D01*
X152756300Y-144703000D01*
X152756300Y-144706000D01*
X152756300Y-144846000D01*
X152756300Y-144849000D01*
X152756300Y-144851000D01*
X152755300Y-144854000D01*
X152755300Y-144856000D01*
X152754300Y-144859000D01*
X152754300Y-144861000D01*
X152753300Y-144864000D01*
X152752300Y-144866000D01*
X152751300Y-144869000D01*
X152749300Y-144871000D01*
X152748300Y-144873000D01*
X152746300Y-144875000D01*
X152745300Y-144877000D01*
X152743300Y-144879000D01*
X152741300Y-144881000D01*
X152739300Y-144883000D01*
X152737300Y-144885000D01*
X152735300Y-144886000D01*
X152733300Y-144888000D01*
X152731300Y-144889000D01*
X152729300Y-144891000D01*
X152726300Y-144892000D01*
X152724300Y-144893000D01*
X152721300Y-144894000D01*
X152719300Y-144894000D01*
X152716300Y-144895000D01*
X152714300Y-144895000D01*
X152711300Y-144896000D01*
X152709300Y-144896000D01*
X152706300Y-144896000D01*
X152206300Y-144896000D01*
X152203300Y-144896000D01*
X152201300Y-144896000D01*
X152198300Y-144895000D01*
X152196300Y-144895000D01*
X152193300Y-144894000D01*
X152191300Y-144894000D01*
X152188300Y-144893000D01*
X152186300Y-144892000D01*
X152183300Y-144891000D01*
X152181300Y-144889000D01*
X152179300Y-144888000D01*
X152177300Y-144886000D01*
X152175300Y-144885000D01*
X152173300Y-144883000D01*
X152171300Y-144881000D01*
X152169300Y-144879000D01*
X152167300Y-144877000D01*
X152166300Y-144875000D01*
X152164300Y-144873000D01*
X152163300Y-144871000D01*
X152161300Y-144869000D01*
X152160300Y-144866000D01*
X152159300Y-144864000D01*
X152158300Y-144861000D01*
X152158300Y-144859000D01*
X152157300Y-144856000D01*
X152157300Y-144854000D01*
X152156300Y-144851000D01*
X152156300Y-144849000D01*
X152156300Y-144846000D01*
X152156300Y-144706000D01*
X152156300Y-144703000D01*
X152156300Y-144701000D01*
X152157300Y-144698000D01*
X152157300Y-144696000D01*
X152158300Y-144693000D01*
X152158300Y-144691000D01*
X152159300Y-144688000D01*
X152160300Y-144686000D01*
X152161300Y-144683000D01*
X152163300Y-144681000D01*
X152164300Y-144679000D01*
X152166300Y-144677000D01*
X152167300Y-144675000D01*
X152169300Y-144673000D01*
X152171300Y-144671000D01*
X152173300Y-144669000D01*
X152175300Y-144667000D01*
X152177300Y-144666000D01*
X152179300Y-144664000D01*
X152181300Y-144663000D01*
X152183300Y-144661000D01*
X152186300Y-144660000D01*
X152188300Y-144659000D01*
X152191300Y-144658000D01*
X152193300Y-144658000D01*
X152196300Y-144657000D01*
X152198300Y-144657000D01*
X152201300Y-144656000D01*
X152203300Y-144656000D01*
X152206300Y-144656000D01*
X152706300Y-144656000D01*
X152709300Y-144656000D01*
X152711300Y-144656000D01*
X152714300Y-144657000D01*
G36*
X152714300Y-144657000D02*
G01*
X152716300Y-144657000D01*
X152719300Y-144658000D01*
X152721300Y-144658000D01*
X152724300Y-144659000D01*
X152726300Y-144660000D01*
X152729300Y-144661000D01*
X152731300Y-144663000D01*
X152733300Y-144664000D01*
X152735300Y-144666000D01*
X152737300Y-144667000D01*
X152739300Y-144669000D01*
X152741300Y-144671000D01*
X152743300Y-144673000D01*
X152745300Y-144675000D01*
X152746300Y-144677000D01*
X152748300Y-144679000D01*
X152749300Y-144681000D01*
X152751300Y-144683000D01*
X152752300Y-144686000D01*
X152753300Y-144688000D01*
X152754300Y-144691000D01*
X152754300Y-144693000D01*
X152755300Y-144696000D01*
X152755300Y-144698000D01*
X152756300Y-144701000D01*
X152756300Y-144703000D01*
X152756300Y-144706000D01*
X152756300Y-144846000D01*
X152756300Y-144849000D01*
X152756300Y-144851000D01*
X152755300Y-144854000D01*
X152755300Y-144856000D01*
X152754300Y-144859000D01*
X152754300Y-144861000D01*
X152753300Y-144864000D01*
X152752300Y-144866000D01*
X152751300Y-144869000D01*
X152749300Y-144871000D01*
X152748300Y-144873000D01*
X152746300Y-144875000D01*
X152745300Y-144877000D01*
X152743300Y-144879000D01*
X152741300Y-144881000D01*
X152739300Y-144883000D01*
X152737300Y-144885000D01*
X152735300Y-144886000D01*
X152733300Y-144888000D01*
X152731300Y-144889000D01*
X152729300Y-144891000D01*
X152726300Y-144892000D01*
X152724300Y-144893000D01*
X152721300Y-144894000D01*
X152719300Y-144894000D01*
X152716300Y-144895000D01*
X152714300Y-144895000D01*
X152711300Y-144896000D01*
X152709300Y-144896000D01*
X152706300Y-144896000D01*
X152206300Y-144896000D01*
X152203300Y-144896000D01*
X152201300Y-144896000D01*
X152198300Y-144895000D01*
X152196300Y-144895000D01*
X152193300Y-144894000D01*
X152191300Y-144894000D01*
X152188300Y-144893000D01*
X152186300Y-144892000D01*
X152183300Y-144891000D01*
X152181300Y-144889000D01*
X152179300Y-144888000D01*
X152177300Y-144886000D01*
X152175300Y-144885000D01*
X152173300Y-144883000D01*
X152171300Y-144881000D01*
X152169300Y-144879000D01*
X152167300Y-144877000D01*
X152166300Y-144875000D01*
X152164300Y-144873000D01*
X152163300Y-144871000D01*
X152161300Y-144869000D01*
X152160300Y-144866000D01*
X152159300Y-144864000D01*
X152158300Y-144861000D01*
X152158300Y-144859000D01*
X152157300Y-144856000D01*
X152157300Y-144854000D01*
X152156300Y-144851000D01*
X152156300Y-144849000D01*
X152156300Y-144846000D01*
X152156300Y-144706000D01*
X152156300Y-144703000D01*
X152156300Y-144701000D01*
X152157300Y-144698000D01*
X152157300Y-144696000D01*
X152158300Y-144693000D01*
X152158300Y-144691000D01*
X152159300Y-144688000D01*
X152160300Y-144686000D01*
X152161300Y-144683000D01*
X152163300Y-144681000D01*
X152164300Y-144679000D01*
X152166300Y-144677000D01*
X152167300Y-144675000D01*
X152169300Y-144673000D01*
X152171300Y-144671000D01*
X152173300Y-144669000D01*
X152175300Y-144667000D01*
X152177300Y-144666000D01*
X152179300Y-144664000D01*
X152181300Y-144663000D01*
X152183300Y-144661000D01*
X152186300Y-144660000D01*
X152188300Y-144659000D01*
X152191300Y-144658000D01*
X152193300Y-144658000D01*
X152196300Y-144657000D01*
X152198300Y-144657000D01*
X152201300Y-144656000D01*
X152203300Y-144656000D01*
X152206300Y-144656000D01*
X152706300Y-144656000D01*
X152709300Y-144656000D01*
X152711300Y-144656000D01*
X152714300Y-144657000D01*
G37*
X152714300Y-144157000D02*
X152716300Y-144157000D01*
X152719300Y-144158000D01*
X152721300Y-144158000D01*
X152724300Y-144159000D01*
X152726300Y-144160000D01*
X152729300Y-144161000D01*
X152731300Y-144163000D01*
X152733300Y-144164000D01*
X152735300Y-144166000D01*
X152737300Y-144167000D01*
X152739300Y-144169000D01*
X152741300Y-144171000D01*
X152743300Y-144173000D01*
X152745300Y-144175000D01*
X152746300Y-144177000D01*
X152748300Y-144179000D01*
X152749300Y-144181000D01*
X152751300Y-144183000D01*
X152752300Y-144186000D01*
X152753300Y-144188000D01*
X152754300Y-144191000D01*
X152754300Y-144193000D01*
X152755300Y-144196000D01*
X152755300Y-144198000D01*
X152756300Y-144201000D01*
X152756300Y-144203000D01*
X152756300Y-144206000D01*
X152756300Y-144346000D01*
X152756300Y-144349000D01*
X152756300Y-144351000D01*
X152755300Y-144354000D01*
X152755300Y-144356000D01*
X152754300Y-144359000D01*
X152754300Y-144361000D01*
X152753300Y-144364000D01*
X152752300Y-144366000D01*
X152751300Y-144369000D01*
X152749300Y-144371000D01*
X152748300Y-144373000D01*
X152746300Y-144375000D01*
X152745300Y-144377000D01*
X152743300Y-144379000D01*
X152741300Y-144381000D01*
X152739300Y-144383000D01*
X152737300Y-144385000D01*
X152735300Y-144386000D01*
X152733300Y-144388000D01*
X152731300Y-144389000D01*
X152729300Y-144391000D01*
X152726300Y-144392000D01*
X152724300Y-144393000D01*
X152721300Y-144394000D01*
X152719300Y-144394000D01*
X152716300Y-144395000D01*
X152714300Y-144395000D01*
X152711300Y-144396000D01*
X152709300Y-144396000D01*
X152706300Y-144396000D01*
X152206300Y-144396000D01*
X152203300Y-144396000D01*
X152201300Y-144396000D01*
X152198300Y-144395000D01*
X152196300Y-144395000D01*
X152193300Y-144394000D01*
X152191300Y-144394000D01*
X152188300Y-144393000D01*
X152186300Y-144392000D01*
X152183300Y-144391000D01*
X152181300Y-144389000D01*
X152179300Y-144388000D01*
X152177300Y-144386000D01*
X152175300Y-144385000D01*
X152173300Y-144383000D01*
X152171300Y-144381000D01*
X152169300Y-144379000D01*
X152167300Y-144377000D01*
X152166300Y-144375000D01*
X152164300Y-144373000D01*
X152163300Y-144371000D01*
X152161300Y-144369000D01*
X152160300Y-144366000D01*
X152159300Y-144364000D01*
X152158300Y-144361000D01*
X152158300Y-144359000D01*
X152157300Y-144356000D01*
X152157300Y-144354000D01*
X152156300Y-144351000D01*
X152156300Y-144349000D01*
X152156300Y-144346000D01*
X152156300Y-144206000D01*
X152156300Y-144203000D01*
X152156300Y-144201000D01*
X152157300Y-144198000D01*
X152157300Y-144196000D01*
X152158300Y-144193000D01*
X152158300Y-144191000D01*
X152159300Y-144188000D01*
X152160300Y-144186000D01*
X152161300Y-144183000D01*
X152163300Y-144181000D01*
X152164300Y-144179000D01*
X152166300Y-144177000D01*
X152167300Y-144175000D01*
X152169300Y-144173000D01*
X152171300Y-144171000D01*
X152173300Y-144169000D01*
X152175300Y-144167000D01*
X152177300Y-144166000D01*
X152179300Y-144164000D01*
X152181300Y-144163000D01*
X152183300Y-144161000D01*
X152186300Y-144160000D01*
X152188300Y-144159000D01*
X152191300Y-144158000D01*
X152193300Y-144158000D01*
X152196300Y-144157000D01*
X152198300Y-144157000D01*
X152201300Y-144156000D01*
X152203300Y-144156000D01*
X152206300Y-144156000D01*
X152706300Y-144156000D01*
X152709300Y-144156000D01*
X152711300Y-144156000D01*
X152714300Y-144157000D01*
G36*
X152714300Y-144157000D02*
G01*
X152716300Y-144157000D01*
X152719300Y-144158000D01*
X152721300Y-144158000D01*
X152724300Y-144159000D01*
X152726300Y-144160000D01*
X152729300Y-144161000D01*
X152731300Y-144163000D01*
X152733300Y-144164000D01*
X152735300Y-144166000D01*
X152737300Y-144167000D01*
X152739300Y-144169000D01*
X152741300Y-144171000D01*
X152743300Y-144173000D01*
X152745300Y-144175000D01*
X152746300Y-144177000D01*
X152748300Y-144179000D01*
X152749300Y-144181000D01*
X152751300Y-144183000D01*
X152752300Y-144186000D01*
X152753300Y-144188000D01*
X152754300Y-144191000D01*
X152754300Y-144193000D01*
X152755300Y-144196000D01*
X152755300Y-144198000D01*
X152756300Y-144201000D01*
X152756300Y-144203000D01*
X152756300Y-144206000D01*
X152756300Y-144346000D01*
X152756300Y-144349000D01*
X152756300Y-144351000D01*
X152755300Y-144354000D01*
X152755300Y-144356000D01*
X152754300Y-144359000D01*
X152754300Y-144361000D01*
X152753300Y-144364000D01*
X152752300Y-144366000D01*
X152751300Y-144369000D01*
X152749300Y-144371000D01*
X152748300Y-144373000D01*
X152746300Y-144375000D01*
X152745300Y-144377000D01*
X152743300Y-144379000D01*
X152741300Y-144381000D01*
X152739300Y-144383000D01*
X152737300Y-144385000D01*
X152735300Y-144386000D01*
X152733300Y-144388000D01*
X152731300Y-144389000D01*
X152729300Y-144391000D01*
X152726300Y-144392000D01*
X152724300Y-144393000D01*
X152721300Y-144394000D01*
X152719300Y-144394000D01*
X152716300Y-144395000D01*
X152714300Y-144395000D01*
X152711300Y-144396000D01*
X152709300Y-144396000D01*
X152706300Y-144396000D01*
X152206300Y-144396000D01*
X152203300Y-144396000D01*
X152201300Y-144396000D01*
X152198300Y-144395000D01*
X152196300Y-144395000D01*
X152193300Y-144394000D01*
X152191300Y-144394000D01*
X152188300Y-144393000D01*
X152186300Y-144392000D01*
X152183300Y-144391000D01*
X152181300Y-144389000D01*
X152179300Y-144388000D01*
X152177300Y-144386000D01*
X152175300Y-144385000D01*
X152173300Y-144383000D01*
X152171300Y-144381000D01*
X152169300Y-144379000D01*
X152167300Y-144377000D01*
X152166300Y-144375000D01*
X152164300Y-144373000D01*
X152163300Y-144371000D01*
X152161300Y-144369000D01*
X152160300Y-144366000D01*
X152159300Y-144364000D01*
X152158300Y-144361000D01*
X152158300Y-144359000D01*
X152157300Y-144356000D01*
X152157300Y-144354000D01*
X152156300Y-144351000D01*
X152156300Y-144349000D01*
X152156300Y-144346000D01*
X152156300Y-144206000D01*
X152156300Y-144203000D01*
X152156300Y-144201000D01*
X152157300Y-144198000D01*
X152157300Y-144196000D01*
X152158300Y-144193000D01*
X152158300Y-144191000D01*
X152159300Y-144188000D01*
X152160300Y-144186000D01*
X152161300Y-144183000D01*
X152163300Y-144181000D01*
X152164300Y-144179000D01*
X152166300Y-144177000D01*
X152167300Y-144175000D01*
X152169300Y-144173000D01*
X152171300Y-144171000D01*
X152173300Y-144169000D01*
X152175300Y-144167000D01*
X152177300Y-144166000D01*
X152179300Y-144164000D01*
X152181300Y-144163000D01*
X152183300Y-144161000D01*
X152186300Y-144160000D01*
X152188300Y-144159000D01*
X152191300Y-144158000D01*
X152193300Y-144158000D01*
X152196300Y-144157000D01*
X152198300Y-144157000D01*
X152201300Y-144156000D01*
X152203300Y-144156000D01*
X152206300Y-144156000D01*
X152706300Y-144156000D01*
X152709300Y-144156000D01*
X152711300Y-144156000D01*
X152714300Y-144157000D01*
G37*
X152714300Y-143657000D02*
X152716300Y-143657000D01*
X152719300Y-143658000D01*
X152721300Y-143658000D01*
X152724300Y-143659000D01*
X152726300Y-143660000D01*
X152729300Y-143661000D01*
X152731300Y-143663000D01*
X152733300Y-143664000D01*
X152735300Y-143666000D01*
X152737300Y-143667000D01*
X152739300Y-143669000D01*
X152741300Y-143671000D01*
X152743300Y-143673000D01*
X152745300Y-143675000D01*
X152746300Y-143677000D01*
X152748300Y-143679000D01*
X152749300Y-143681000D01*
X152751300Y-143683000D01*
X152752300Y-143686000D01*
X152753300Y-143688000D01*
X152754300Y-143691000D01*
X152754300Y-143693000D01*
X152755300Y-143696000D01*
X152755300Y-143698000D01*
X152756300Y-143701000D01*
X152756300Y-143703000D01*
X152756300Y-143706000D01*
X152756300Y-143846000D01*
X152756300Y-143849000D01*
X152756300Y-143851000D01*
X152755300Y-143854000D01*
X152755300Y-143856000D01*
X152754300Y-143859000D01*
X152754300Y-143861000D01*
X152753300Y-143864000D01*
X152752300Y-143866000D01*
X152751300Y-143869000D01*
X152749300Y-143871000D01*
X152748300Y-143873000D01*
X152746300Y-143875000D01*
X152745300Y-143877000D01*
X152743300Y-143879000D01*
X152741300Y-143881000D01*
X152739300Y-143883000D01*
X152737300Y-143885000D01*
X152735300Y-143886000D01*
X152733300Y-143888000D01*
X152731300Y-143889000D01*
X152729300Y-143891000D01*
X152726300Y-143892000D01*
X152724300Y-143893000D01*
X152721300Y-143894000D01*
X152719300Y-143894000D01*
X152716300Y-143895000D01*
X152714300Y-143895000D01*
X152711300Y-143896000D01*
X152709300Y-143896000D01*
X152706300Y-143896000D01*
X152206300Y-143896000D01*
X152203300Y-143896000D01*
X152201300Y-143896000D01*
X152198300Y-143895000D01*
X152196300Y-143895000D01*
X152193300Y-143894000D01*
X152191300Y-143894000D01*
X152188300Y-143893000D01*
X152186300Y-143892000D01*
X152183300Y-143891000D01*
X152181300Y-143889000D01*
X152179300Y-143888000D01*
X152177300Y-143886000D01*
X152175300Y-143885000D01*
X152173300Y-143883000D01*
X152171300Y-143881000D01*
X152169300Y-143879000D01*
X152167300Y-143877000D01*
X152166300Y-143875000D01*
X152164300Y-143873000D01*
X152163300Y-143871000D01*
X152161300Y-143869000D01*
X152160300Y-143866000D01*
X152159300Y-143864000D01*
X152158300Y-143861000D01*
X152158300Y-143859000D01*
X152157300Y-143856000D01*
X152157300Y-143854000D01*
X152156300Y-143851000D01*
X152156300Y-143849000D01*
X152156300Y-143846000D01*
X152156300Y-143706000D01*
X152156300Y-143703000D01*
X152156300Y-143701000D01*
X152157300Y-143698000D01*
X152157300Y-143696000D01*
X152158300Y-143693000D01*
X152158300Y-143691000D01*
X152159300Y-143688000D01*
X152160300Y-143686000D01*
X152161300Y-143683000D01*
X152163300Y-143681000D01*
X152164300Y-143679000D01*
X152166300Y-143677000D01*
X152167300Y-143675000D01*
X152169300Y-143673000D01*
X152171300Y-143671000D01*
X152173300Y-143669000D01*
X152175300Y-143667000D01*
X152177300Y-143666000D01*
X152179300Y-143664000D01*
X152181300Y-143663000D01*
X152183300Y-143661000D01*
X152186300Y-143660000D01*
X152188300Y-143659000D01*
X152191300Y-143658000D01*
X152193300Y-143658000D01*
X152196300Y-143657000D01*
X152198300Y-143657000D01*
X152201300Y-143656000D01*
X152203300Y-143656000D01*
X152206300Y-143656000D01*
X152706300Y-143656000D01*
X152709300Y-143656000D01*
X152711300Y-143656000D01*
X152714300Y-143657000D01*
G36*
X152714300Y-143657000D02*
G01*
X152716300Y-143657000D01*
X152719300Y-143658000D01*
X152721300Y-143658000D01*
X152724300Y-143659000D01*
X152726300Y-143660000D01*
X152729300Y-143661000D01*
X152731300Y-143663000D01*
X152733300Y-143664000D01*
X152735300Y-143666000D01*
X152737300Y-143667000D01*
X152739300Y-143669000D01*
X152741300Y-143671000D01*
X152743300Y-143673000D01*
X152745300Y-143675000D01*
X152746300Y-143677000D01*
X152748300Y-143679000D01*
X152749300Y-143681000D01*
X152751300Y-143683000D01*
X152752300Y-143686000D01*
X152753300Y-143688000D01*
X152754300Y-143691000D01*
X152754300Y-143693000D01*
X152755300Y-143696000D01*
X152755300Y-143698000D01*
X152756300Y-143701000D01*
X152756300Y-143703000D01*
X152756300Y-143706000D01*
X152756300Y-143846000D01*
X152756300Y-143849000D01*
X152756300Y-143851000D01*
X152755300Y-143854000D01*
X152755300Y-143856000D01*
X152754300Y-143859000D01*
X152754300Y-143861000D01*
X152753300Y-143864000D01*
X152752300Y-143866000D01*
X152751300Y-143869000D01*
X152749300Y-143871000D01*
X152748300Y-143873000D01*
X152746300Y-143875000D01*
X152745300Y-143877000D01*
X152743300Y-143879000D01*
X152741300Y-143881000D01*
X152739300Y-143883000D01*
X152737300Y-143885000D01*
X152735300Y-143886000D01*
X152733300Y-143888000D01*
X152731300Y-143889000D01*
X152729300Y-143891000D01*
X152726300Y-143892000D01*
X152724300Y-143893000D01*
X152721300Y-143894000D01*
X152719300Y-143894000D01*
X152716300Y-143895000D01*
X152714300Y-143895000D01*
X152711300Y-143896000D01*
X152709300Y-143896000D01*
X152706300Y-143896000D01*
X152206300Y-143896000D01*
X152203300Y-143896000D01*
X152201300Y-143896000D01*
X152198300Y-143895000D01*
X152196300Y-143895000D01*
X152193300Y-143894000D01*
X152191300Y-143894000D01*
X152188300Y-143893000D01*
X152186300Y-143892000D01*
X152183300Y-143891000D01*
X152181300Y-143889000D01*
X152179300Y-143888000D01*
X152177300Y-143886000D01*
X152175300Y-143885000D01*
X152173300Y-143883000D01*
X152171300Y-143881000D01*
X152169300Y-143879000D01*
X152167300Y-143877000D01*
X152166300Y-143875000D01*
X152164300Y-143873000D01*
X152163300Y-143871000D01*
X152161300Y-143869000D01*
X152160300Y-143866000D01*
X152159300Y-143864000D01*
X152158300Y-143861000D01*
X152158300Y-143859000D01*
X152157300Y-143856000D01*
X152157300Y-143854000D01*
X152156300Y-143851000D01*
X152156300Y-143849000D01*
X152156300Y-143846000D01*
X152156300Y-143706000D01*
X152156300Y-143703000D01*
X152156300Y-143701000D01*
X152157300Y-143698000D01*
X152157300Y-143696000D01*
X152158300Y-143693000D01*
X152158300Y-143691000D01*
X152159300Y-143688000D01*
X152160300Y-143686000D01*
X152161300Y-143683000D01*
X152163300Y-143681000D01*
X152164300Y-143679000D01*
X152166300Y-143677000D01*
X152167300Y-143675000D01*
X152169300Y-143673000D01*
X152171300Y-143671000D01*
X152173300Y-143669000D01*
X152175300Y-143667000D01*
X152177300Y-143666000D01*
X152179300Y-143664000D01*
X152181300Y-143663000D01*
X152183300Y-143661000D01*
X152186300Y-143660000D01*
X152188300Y-143659000D01*
X152191300Y-143658000D01*
X152193300Y-143658000D01*
X152196300Y-143657000D01*
X152198300Y-143657000D01*
X152201300Y-143656000D01*
X152203300Y-143656000D01*
X152206300Y-143656000D01*
X152706300Y-143656000D01*
X152709300Y-143656000D01*
X152711300Y-143656000D01*
X152714300Y-143657000D01*
G37*
X151884300Y-145627000D02*
X151886300Y-145627000D01*
X151889300Y-145628000D01*
X151891300Y-145628000D01*
X151894300Y-145629000D01*
X151896300Y-145630000D01*
X151899300Y-145631000D01*
X151901300Y-145633000D01*
X151903300Y-145634000D01*
X151905300Y-145636000D01*
X151907300Y-145637000D01*
X151909300Y-145639000D01*
X151911300Y-145641000D01*
X151913300Y-145643000D01*
X151915300Y-145645000D01*
X151916300Y-145647000D01*
X151918300Y-145649000D01*
X151919300Y-145651000D01*
X151921300Y-145653000D01*
X151922300Y-145656000D01*
X151923300Y-145658000D01*
X151924300Y-145661000D01*
X151924300Y-145663000D01*
X151925300Y-145666000D01*
X151925300Y-145668000D01*
X151926300Y-145671000D01*
X151926300Y-145673000D01*
X151926300Y-145676000D01*
X151926300Y-146176000D01*
X151926300Y-146179000D01*
X151926300Y-146181000D01*
X151925300Y-146184000D01*
X151925300Y-146186000D01*
X151924300Y-146189000D01*
X151924300Y-146191000D01*
X151923300Y-146194000D01*
X151922300Y-146196000D01*
X151921300Y-146199000D01*
X151919300Y-146201000D01*
X151918300Y-146203000D01*
X151916300Y-146205000D01*
X151915300Y-146207000D01*
X151913300Y-146209000D01*
X151911300Y-146211000D01*
X151909300Y-146213000D01*
X151907300Y-146215000D01*
X151905300Y-146216000D01*
X151903300Y-146218000D01*
X151901300Y-146219000D01*
X151899300Y-146221000D01*
X151896300Y-146222000D01*
X151894300Y-146223000D01*
X151891300Y-146224000D01*
X151889300Y-146224000D01*
X151886300Y-146225000D01*
X151884300Y-146225000D01*
X151881300Y-146226000D01*
X151879300Y-146226000D01*
X151876300Y-146226000D01*
X151736300Y-146226000D01*
X151733300Y-146226000D01*
X151731300Y-146226000D01*
X151728300Y-146225000D01*
X151726300Y-146225000D01*
X151723300Y-146224000D01*
X151721300Y-146224000D01*
X151718300Y-146223000D01*
X151716300Y-146222000D01*
X151713300Y-146221000D01*
X151711300Y-146219000D01*
X151709300Y-146218000D01*
X151707300Y-146216000D01*
X151705300Y-146215000D01*
X151703300Y-146213000D01*
X151701300Y-146211000D01*
X151699300Y-146209000D01*
X151697300Y-146207000D01*
X151696300Y-146205000D01*
X151694300Y-146203000D01*
X151693300Y-146201000D01*
X151691300Y-146199000D01*
X151690300Y-146196000D01*
X151689300Y-146194000D01*
X151688300Y-146191000D01*
X151688300Y-146189000D01*
X151687300Y-146186000D01*
X151687300Y-146184000D01*
X151686300Y-146181000D01*
X151686300Y-146179000D01*
X151686300Y-146176000D01*
X151686300Y-145676000D01*
X151686300Y-145673000D01*
X151686300Y-145671000D01*
X151687300Y-145668000D01*
X151687300Y-145666000D01*
X151688300Y-145663000D01*
X151688300Y-145661000D01*
X151689300Y-145658000D01*
X151690300Y-145656000D01*
X151691300Y-145653000D01*
X151693300Y-145651000D01*
X151694300Y-145649000D01*
X151696300Y-145647000D01*
X151697300Y-145645000D01*
X151699300Y-145643000D01*
X151701300Y-145641000D01*
X151703300Y-145639000D01*
X151705300Y-145637000D01*
X151707300Y-145636000D01*
X151709300Y-145634000D01*
X151711300Y-145633000D01*
X151713300Y-145631000D01*
X151716300Y-145630000D01*
X151718300Y-145629000D01*
X151721300Y-145628000D01*
X151723300Y-145628000D01*
X151726300Y-145627000D01*
X151728300Y-145627000D01*
X151731300Y-145626000D01*
X151733300Y-145626000D01*
X151736300Y-145626000D01*
X151876300Y-145626000D01*
X151879300Y-145626000D01*
X151881300Y-145626000D01*
X151884300Y-145627000D01*
G36*
X151884300Y-145627000D02*
G01*
X151886300Y-145627000D01*
X151889300Y-145628000D01*
X151891300Y-145628000D01*
X151894300Y-145629000D01*
X151896300Y-145630000D01*
X151899300Y-145631000D01*
X151901300Y-145633000D01*
X151903300Y-145634000D01*
X151905300Y-145636000D01*
X151907300Y-145637000D01*
X151909300Y-145639000D01*
X151911300Y-145641000D01*
X151913300Y-145643000D01*
X151915300Y-145645000D01*
X151916300Y-145647000D01*
X151918300Y-145649000D01*
X151919300Y-145651000D01*
X151921300Y-145653000D01*
X151922300Y-145656000D01*
X151923300Y-145658000D01*
X151924300Y-145661000D01*
X151924300Y-145663000D01*
X151925300Y-145666000D01*
X151925300Y-145668000D01*
X151926300Y-145671000D01*
X151926300Y-145673000D01*
X151926300Y-145676000D01*
X151926300Y-146176000D01*
X151926300Y-146179000D01*
X151926300Y-146181000D01*
X151925300Y-146184000D01*
X151925300Y-146186000D01*
X151924300Y-146189000D01*
X151924300Y-146191000D01*
X151923300Y-146194000D01*
X151922300Y-146196000D01*
X151921300Y-146199000D01*
X151919300Y-146201000D01*
X151918300Y-146203000D01*
X151916300Y-146205000D01*
X151915300Y-146207000D01*
X151913300Y-146209000D01*
X151911300Y-146211000D01*
X151909300Y-146213000D01*
X151907300Y-146215000D01*
X151905300Y-146216000D01*
X151903300Y-146218000D01*
X151901300Y-146219000D01*
X151899300Y-146221000D01*
X151896300Y-146222000D01*
X151894300Y-146223000D01*
X151891300Y-146224000D01*
X151889300Y-146224000D01*
X151886300Y-146225000D01*
X151884300Y-146225000D01*
X151881300Y-146226000D01*
X151879300Y-146226000D01*
X151876300Y-146226000D01*
X151736300Y-146226000D01*
X151733300Y-146226000D01*
X151731300Y-146226000D01*
X151728300Y-146225000D01*
X151726300Y-146225000D01*
X151723300Y-146224000D01*
X151721300Y-146224000D01*
X151718300Y-146223000D01*
X151716300Y-146222000D01*
X151713300Y-146221000D01*
X151711300Y-146219000D01*
X151709300Y-146218000D01*
X151707300Y-146216000D01*
X151705300Y-146215000D01*
X151703300Y-146213000D01*
X151701300Y-146211000D01*
X151699300Y-146209000D01*
X151697300Y-146207000D01*
X151696300Y-146205000D01*
X151694300Y-146203000D01*
X151693300Y-146201000D01*
X151691300Y-146199000D01*
X151690300Y-146196000D01*
X151689300Y-146194000D01*
X151688300Y-146191000D01*
X151688300Y-146189000D01*
X151687300Y-146186000D01*
X151687300Y-146184000D01*
X151686300Y-146181000D01*
X151686300Y-146179000D01*
X151686300Y-146176000D01*
X151686300Y-145676000D01*
X151686300Y-145673000D01*
X151686300Y-145671000D01*
X151687300Y-145668000D01*
X151687300Y-145666000D01*
X151688300Y-145663000D01*
X151688300Y-145661000D01*
X151689300Y-145658000D01*
X151690300Y-145656000D01*
X151691300Y-145653000D01*
X151693300Y-145651000D01*
X151694300Y-145649000D01*
X151696300Y-145647000D01*
X151697300Y-145645000D01*
X151699300Y-145643000D01*
X151701300Y-145641000D01*
X151703300Y-145639000D01*
X151705300Y-145637000D01*
X151707300Y-145636000D01*
X151709300Y-145634000D01*
X151711300Y-145633000D01*
X151713300Y-145631000D01*
X151716300Y-145630000D01*
X151718300Y-145629000D01*
X151721300Y-145628000D01*
X151723300Y-145628000D01*
X151726300Y-145627000D01*
X151728300Y-145627000D01*
X151731300Y-145626000D01*
X151733300Y-145626000D01*
X151736300Y-145626000D01*
X151876300Y-145626000D01*
X151879300Y-145626000D01*
X151881300Y-145626000D01*
X151884300Y-145627000D01*
G37*
X151884300Y-142827000D02*
X151886300Y-142827000D01*
X151889300Y-142828000D01*
X151891300Y-142828000D01*
X151894300Y-142829000D01*
X151896300Y-142830000D01*
X151899300Y-142831000D01*
X151901300Y-142833000D01*
X151903300Y-142834000D01*
X151905300Y-142836000D01*
X151907300Y-142837000D01*
X151909300Y-142839000D01*
X151911300Y-142841000D01*
X151913300Y-142843000D01*
X151915300Y-142845000D01*
X151916300Y-142847000D01*
X151918300Y-142849000D01*
X151919300Y-142851000D01*
X151921300Y-142853000D01*
X151922300Y-142856000D01*
X151923300Y-142858000D01*
X151924300Y-142861000D01*
X151924300Y-142863000D01*
X151925300Y-142866000D01*
X151925300Y-142868000D01*
X151926300Y-142871000D01*
X151926300Y-142873000D01*
X151926300Y-142876000D01*
X151926300Y-143376000D01*
X151926300Y-143379000D01*
X151926300Y-143381000D01*
X151925300Y-143384000D01*
X151925300Y-143386000D01*
X151924300Y-143389000D01*
X151924300Y-143391000D01*
X151923300Y-143394000D01*
X151922300Y-143396000D01*
X151921300Y-143399000D01*
X151919300Y-143401000D01*
X151918300Y-143403000D01*
X151916300Y-143405000D01*
X151915300Y-143407000D01*
X151913300Y-143409000D01*
X151911300Y-143411000D01*
X151909300Y-143413000D01*
X151907300Y-143415000D01*
X151905300Y-143416000D01*
X151903300Y-143418000D01*
X151901300Y-143419000D01*
X151899300Y-143421000D01*
X151896300Y-143422000D01*
X151894300Y-143423000D01*
X151891300Y-143424000D01*
X151889300Y-143424000D01*
X151886300Y-143425000D01*
X151884300Y-143425000D01*
X151881300Y-143426000D01*
X151879300Y-143426000D01*
X151876300Y-143426000D01*
X151736300Y-143426000D01*
X151733300Y-143426000D01*
X151731300Y-143426000D01*
X151728300Y-143425000D01*
X151726300Y-143425000D01*
X151723300Y-143424000D01*
X151721300Y-143424000D01*
X151718300Y-143423000D01*
X151716300Y-143422000D01*
X151713300Y-143421000D01*
X151711300Y-143419000D01*
X151709300Y-143418000D01*
X151707300Y-143416000D01*
X151705300Y-143415000D01*
X151703300Y-143413000D01*
X151701300Y-143411000D01*
X151699300Y-143409000D01*
X151697300Y-143407000D01*
X151696300Y-143405000D01*
X151694300Y-143403000D01*
X151693300Y-143401000D01*
X151691300Y-143399000D01*
X151690300Y-143396000D01*
X151689300Y-143394000D01*
X151688300Y-143391000D01*
X151688300Y-143389000D01*
X151687300Y-143386000D01*
X151687300Y-143384000D01*
X151686300Y-143381000D01*
X151686300Y-143379000D01*
X151686300Y-143376000D01*
X151686300Y-142876000D01*
X151686300Y-142873000D01*
X151686300Y-142871000D01*
X151687300Y-142868000D01*
X151687300Y-142866000D01*
X151688300Y-142863000D01*
X151688300Y-142861000D01*
X151689300Y-142858000D01*
X151690300Y-142856000D01*
X151691300Y-142853000D01*
X151693300Y-142851000D01*
X151694300Y-142849000D01*
X151696300Y-142847000D01*
X151697300Y-142845000D01*
X151699300Y-142843000D01*
X151701300Y-142841000D01*
X151703300Y-142839000D01*
X151705300Y-142837000D01*
X151707300Y-142836000D01*
X151709300Y-142834000D01*
X151711300Y-142833000D01*
X151713300Y-142831000D01*
X151716300Y-142830000D01*
X151718300Y-142829000D01*
X151721300Y-142828000D01*
X151723300Y-142828000D01*
X151726300Y-142827000D01*
X151728300Y-142827000D01*
X151731300Y-142826000D01*
X151733300Y-142826000D01*
X151736300Y-142826000D01*
X151876300Y-142826000D01*
X151879300Y-142826000D01*
X151881300Y-142826000D01*
X151884300Y-142827000D01*
G36*
X151884300Y-142827000D02*
G01*
X151886300Y-142827000D01*
X151889300Y-142828000D01*
X151891300Y-142828000D01*
X151894300Y-142829000D01*
X151896300Y-142830000D01*
X151899300Y-142831000D01*
X151901300Y-142833000D01*
X151903300Y-142834000D01*
X151905300Y-142836000D01*
X151907300Y-142837000D01*
X151909300Y-142839000D01*
X151911300Y-142841000D01*
X151913300Y-142843000D01*
X151915300Y-142845000D01*
X151916300Y-142847000D01*
X151918300Y-142849000D01*
X151919300Y-142851000D01*
X151921300Y-142853000D01*
X151922300Y-142856000D01*
X151923300Y-142858000D01*
X151924300Y-142861000D01*
X151924300Y-142863000D01*
X151925300Y-142866000D01*
X151925300Y-142868000D01*
X151926300Y-142871000D01*
X151926300Y-142873000D01*
X151926300Y-142876000D01*
X151926300Y-143376000D01*
X151926300Y-143379000D01*
X151926300Y-143381000D01*
X151925300Y-143384000D01*
X151925300Y-143386000D01*
X151924300Y-143389000D01*
X151924300Y-143391000D01*
X151923300Y-143394000D01*
X151922300Y-143396000D01*
X151921300Y-143399000D01*
X151919300Y-143401000D01*
X151918300Y-143403000D01*
X151916300Y-143405000D01*
X151915300Y-143407000D01*
X151913300Y-143409000D01*
X151911300Y-143411000D01*
X151909300Y-143413000D01*
X151907300Y-143415000D01*
X151905300Y-143416000D01*
X151903300Y-143418000D01*
X151901300Y-143419000D01*
X151899300Y-143421000D01*
X151896300Y-143422000D01*
X151894300Y-143423000D01*
X151891300Y-143424000D01*
X151889300Y-143424000D01*
X151886300Y-143425000D01*
X151884300Y-143425000D01*
X151881300Y-143426000D01*
X151879300Y-143426000D01*
X151876300Y-143426000D01*
X151736300Y-143426000D01*
X151733300Y-143426000D01*
X151731300Y-143426000D01*
X151728300Y-143425000D01*
X151726300Y-143425000D01*
X151723300Y-143424000D01*
X151721300Y-143424000D01*
X151718300Y-143423000D01*
X151716300Y-143422000D01*
X151713300Y-143421000D01*
X151711300Y-143419000D01*
X151709300Y-143418000D01*
X151707300Y-143416000D01*
X151705300Y-143415000D01*
X151703300Y-143413000D01*
X151701300Y-143411000D01*
X151699300Y-143409000D01*
X151697300Y-143407000D01*
X151696300Y-143405000D01*
X151694300Y-143403000D01*
X151693300Y-143401000D01*
X151691300Y-143399000D01*
X151690300Y-143396000D01*
X151689300Y-143394000D01*
X151688300Y-143391000D01*
X151688300Y-143389000D01*
X151687300Y-143386000D01*
X151687300Y-143384000D01*
X151686300Y-143381000D01*
X151686300Y-143379000D01*
X151686300Y-143376000D01*
X151686300Y-142876000D01*
X151686300Y-142873000D01*
X151686300Y-142871000D01*
X151687300Y-142868000D01*
X151687300Y-142866000D01*
X151688300Y-142863000D01*
X151688300Y-142861000D01*
X151689300Y-142858000D01*
X151690300Y-142856000D01*
X151691300Y-142853000D01*
X151693300Y-142851000D01*
X151694300Y-142849000D01*
X151696300Y-142847000D01*
X151697300Y-142845000D01*
X151699300Y-142843000D01*
X151701300Y-142841000D01*
X151703300Y-142839000D01*
X151705300Y-142837000D01*
X151707300Y-142836000D01*
X151709300Y-142834000D01*
X151711300Y-142833000D01*
X151713300Y-142831000D01*
X151716300Y-142830000D01*
X151718300Y-142829000D01*
X151721300Y-142828000D01*
X151723300Y-142828000D01*
X151726300Y-142827000D01*
X151728300Y-142827000D01*
X151731300Y-142826000D01*
X151733300Y-142826000D01*
X151736300Y-142826000D01*
X151876300Y-142826000D01*
X151879300Y-142826000D01*
X151881300Y-142826000D01*
X151884300Y-142827000D01*
G37*
X151789300Y-143752000D02*
X151791300Y-143752000D01*
X151794300Y-143753000D01*
X151796300Y-143753000D01*
X151799300Y-143754000D01*
X151801300Y-143755000D01*
X151804300Y-143756000D01*
X151806300Y-143758000D01*
X151808300Y-143759000D01*
X151810300Y-143761000D01*
X151812300Y-143762000D01*
X151814300Y-143764000D01*
X151816300Y-143766000D01*
X151818300Y-143768000D01*
X151820300Y-143770000D01*
X151821300Y-143772000D01*
X151823300Y-143774000D01*
X151824300Y-143776000D01*
X151826300Y-143778000D01*
X151827300Y-143781000D01*
X151828300Y-143783000D01*
X151829300Y-143786000D01*
X151829300Y-143788000D01*
X151830300Y-143791000D01*
X151830300Y-143793000D01*
X151831300Y-143796000D01*
X151831300Y-143798000D01*
X151831300Y-143801000D01*
X151831300Y-145251000D01*
X151831300Y-145254000D01*
X151831300Y-145256000D01*
X151830300Y-145259000D01*
X151830300Y-145261000D01*
X151829300Y-145264000D01*
X151829300Y-145266000D01*
X151828300Y-145269000D01*
X151827300Y-145271000D01*
X151826300Y-145274000D01*
X151824300Y-145276000D01*
X151823300Y-145278000D01*
X151821300Y-145280000D01*
X151820300Y-145282000D01*
X151818300Y-145284000D01*
X151816300Y-145286000D01*
X151814300Y-145288000D01*
X151812300Y-145290000D01*
X151810300Y-145291000D01*
X151808300Y-145293000D01*
X151806300Y-145294000D01*
X151804300Y-145296000D01*
X151801300Y-145297000D01*
X151799300Y-145298000D01*
X151796300Y-145299000D01*
X151794300Y-145299000D01*
X151791300Y-145300000D01*
X151789300Y-145300000D01*
X151786300Y-145301000D01*
X151784300Y-145301000D01*
X151781300Y-145301000D01*
X150331300Y-145301000D01*
X150328300Y-145301000D01*
X150326300Y-145301000D01*
X150323300Y-145300000D01*
X150321300Y-145300000D01*
X150318300Y-145299000D01*
X150316300Y-145299000D01*
X150313300Y-145298000D01*
X150311300Y-145297000D01*
X150308300Y-145296000D01*
X150306300Y-145294000D01*
X150304300Y-145293000D01*
X150302300Y-145291000D01*
X150300300Y-145290000D01*
X150298300Y-145288000D01*
X150296300Y-145286000D01*
X150294300Y-145284000D01*
X150292300Y-145282000D01*
X150291300Y-145280000D01*
X150289300Y-145278000D01*
X150288300Y-145276000D01*
X150286300Y-145274000D01*
X150285300Y-145271000D01*
X150284300Y-145269000D01*
X150283300Y-145266000D01*
X150283300Y-145264000D01*
X150282300Y-145261000D01*
X150282300Y-145259000D01*
X150281300Y-145256000D01*
X150281300Y-145254000D01*
X150281300Y-145251000D01*
X150281300Y-143801000D01*
X150281300Y-143798000D01*
X150281300Y-143796000D01*
X150282300Y-143793000D01*
X150282300Y-143791000D01*
X150283300Y-143788000D01*
X150283300Y-143786000D01*
X150284300Y-143783000D01*
X150285300Y-143781000D01*
X150286300Y-143778000D01*
X150288300Y-143776000D01*
X150289300Y-143774000D01*
X150291300Y-143772000D01*
X150292300Y-143770000D01*
X150294300Y-143768000D01*
X150296300Y-143766000D01*
X150298300Y-143764000D01*
X150300300Y-143762000D01*
X150302300Y-143761000D01*
X150304300Y-143759000D01*
X150306300Y-143758000D01*
X150308300Y-143756000D01*
X150311300Y-143755000D01*
X150313300Y-143754000D01*
X150316300Y-143753000D01*
X150318300Y-143753000D01*
X150321300Y-143752000D01*
X150323300Y-143752000D01*
X150326300Y-143751000D01*
X150328300Y-143751000D01*
X150331300Y-143751000D01*
X151781300Y-143751000D01*
X151784300Y-143751000D01*
X151786300Y-143751000D01*
X151789300Y-143752000D01*
G36*
X151789300Y-143752000D02*
G01*
X151791300Y-143752000D01*
X151794300Y-143753000D01*
X151796300Y-143753000D01*
X151799300Y-143754000D01*
X151801300Y-143755000D01*
X151804300Y-143756000D01*
X151806300Y-143758000D01*
X151808300Y-143759000D01*
X151810300Y-143761000D01*
X151812300Y-143762000D01*
X151814300Y-143764000D01*
X151816300Y-143766000D01*
X151818300Y-143768000D01*
X151820300Y-143770000D01*
X151821300Y-143772000D01*
X151823300Y-143774000D01*
X151824300Y-143776000D01*
X151826300Y-143778000D01*
X151827300Y-143781000D01*
X151828300Y-143783000D01*
X151829300Y-143786000D01*
X151829300Y-143788000D01*
X151830300Y-143791000D01*
X151830300Y-143793000D01*
X151831300Y-143796000D01*
X151831300Y-143798000D01*
X151831300Y-143801000D01*
X151831300Y-145251000D01*
X151831300Y-145254000D01*
X151831300Y-145256000D01*
X151830300Y-145259000D01*
X151830300Y-145261000D01*
X151829300Y-145264000D01*
X151829300Y-145266000D01*
X151828300Y-145269000D01*
X151827300Y-145271000D01*
X151826300Y-145274000D01*
X151824300Y-145276000D01*
X151823300Y-145278000D01*
X151821300Y-145280000D01*
X151820300Y-145282000D01*
X151818300Y-145284000D01*
X151816300Y-145286000D01*
X151814300Y-145288000D01*
X151812300Y-145290000D01*
X151810300Y-145291000D01*
X151808300Y-145293000D01*
X151806300Y-145294000D01*
X151804300Y-145296000D01*
X151801300Y-145297000D01*
X151799300Y-145298000D01*
X151796300Y-145299000D01*
X151794300Y-145299000D01*
X151791300Y-145300000D01*
X151789300Y-145300000D01*
X151786300Y-145301000D01*
X151784300Y-145301000D01*
X151781300Y-145301000D01*
X150331300Y-145301000D01*
X150328300Y-145301000D01*
X150326300Y-145301000D01*
X150323300Y-145300000D01*
X150321300Y-145300000D01*
X150318300Y-145299000D01*
X150316300Y-145299000D01*
X150313300Y-145298000D01*
X150311300Y-145297000D01*
X150308300Y-145296000D01*
X150306300Y-145294000D01*
X150304300Y-145293000D01*
X150302300Y-145291000D01*
X150300300Y-145290000D01*
X150298300Y-145288000D01*
X150296300Y-145286000D01*
X150294300Y-145284000D01*
X150292300Y-145282000D01*
X150291300Y-145280000D01*
X150289300Y-145278000D01*
X150288300Y-145276000D01*
X150286300Y-145274000D01*
X150285300Y-145271000D01*
X150284300Y-145269000D01*
X150283300Y-145266000D01*
X150283300Y-145264000D01*
X150282300Y-145261000D01*
X150282300Y-145259000D01*
X150281300Y-145256000D01*
X150281300Y-145254000D01*
X150281300Y-145251000D01*
X150281300Y-143801000D01*
X150281300Y-143798000D01*
X150281300Y-143796000D01*
X150282300Y-143793000D01*
X150282300Y-143791000D01*
X150283300Y-143788000D01*
X150283300Y-143786000D01*
X150284300Y-143783000D01*
X150285300Y-143781000D01*
X150286300Y-143778000D01*
X150288300Y-143776000D01*
X150289300Y-143774000D01*
X150291300Y-143772000D01*
X150292300Y-143770000D01*
X150294300Y-143768000D01*
X150296300Y-143766000D01*
X150298300Y-143764000D01*
X150300300Y-143762000D01*
X150302300Y-143761000D01*
X150304300Y-143759000D01*
X150306300Y-143758000D01*
X150308300Y-143756000D01*
X150311300Y-143755000D01*
X150313300Y-143754000D01*
X150316300Y-143753000D01*
X150318300Y-143753000D01*
X150321300Y-143752000D01*
X150323300Y-143752000D01*
X150326300Y-143751000D01*
X150328300Y-143751000D01*
X150331300Y-143751000D01*
X151781300Y-143751000D01*
X151784300Y-143751000D01*
X151786300Y-143751000D01*
X151789300Y-143752000D01*
G37*
X151384300Y-145627000D02*
X151386300Y-145627000D01*
X151389300Y-145628000D01*
X151391300Y-145628000D01*
X151394300Y-145629000D01*
X151396300Y-145630000D01*
X151399300Y-145631000D01*
X151401300Y-145633000D01*
X151403300Y-145634000D01*
X151405300Y-145636000D01*
X151407300Y-145637000D01*
X151409300Y-145639000D01*
X151411300Y-145641000D01*
X151413300Y-145643000D01*
X151415300Y-145645000D01*
X151416300Y-145647000D01*
X151418300Y-145649000D01*
X151419300Y-145651000D01*
X151421300Y-145653000D01*
X151422300Y-145656000D01*
X151423300Y-145658000D01*
X151424300Y-145661000D01*
X151424300Y-145663000D01*
X151425300Y-145666000D01*
X151425300Y-145668000D01*
X151426300Y-145671000D01*
X151426300Y-145673000D01*
X151426300Y-145676000D01*
X151426300Y-146176000D01*
X151426300Y-146179000D01*
X151426300Y-146181000D01*
X151425300Y-146184000D01*
X151425300Y-146186000D01*
X151424300Y-146189000D01*
X151424300Y-146191000D01*
X151423300Y-146194000D01*
X151422300Y-146196000D01*
X151421300Y-146199000D01*
X151419300Y-146201000D01*
X151418300Y-146203000D01*
X151416300Y-146205000D01*
X151415300Y-146207000D01*
X151413300Y-146209000D01*
X151411300Y-146211000D01*
X151409300Y-146213000D01*
X151407300Y-146215000D01*
X151405300Y-146216000D01*
X151403300Y-146218000D01*
X151401300Y-146219000D01*
X151399300Y-146221000D01*
X151396300Y-146222000D01*
X151394300Y-146223000D01*
X151391300Y-146224000D01*
X151389300Y-146224000D01*
X151386300Y-146225000D01*
X151384300Y-146225000D01*
X151381300Y-146226000D01*
X151379300Y-146226000D01*
X151376300Y-146226000D01*
X151236300Y-146226000D01*
X151233300Y-146226000D01*
X151231300Y-146226000D01*
X151228300Y-146225000D01*
X151226300Y-146225000D01*
X151223300Y-146224000D01*
X151221300Y-146224000D01*
X151218300Y-146223000D01*
X151216300Y-146222000D01*
X151213300Y-146221000D01*
X151211300Y-146219000D01*
X151209300Y-146218000D01*
X151207300Y-146216000D01*
X151205300Y-146215000D01*
X151203300Y-146213000D01*
X151201300Y-146211000D01*
X151199300Y-146209000D01*
X151197300Y-146207000D01*
X151196300Y-146205000D01*
X151194300Y-146203000D01*
X151193300Y-146201000D01*
X151191300Y-146199000D01*
X151190300Y-146196000D01*
X151189300Y-146194000D01*
X151188300Y-146191000D01*
X151188300Y-146189000D01*
X151187300Y-146186000D01*
X151187300Y-146184000D01*
X151186300Y-146181000D01*
X151186300Y-146179000D01*
X151186300Y-146176000D01*
X151186300Y-145676000D01*
X151186300Y-145673000D01*
X151186300Y-145671000D01*
X151187300Y-145668000D01*
X151187300Y-145666000D01*
X151188300Y-145663000D01*
X151188300Y-145661000D01*
X151189300Y-145658000D01*
X151190300Y-145656000D01*
X151191300Y-145653000D01*
X151193300Y-145651000D01*
X151194300Y-145649000D01*
X151196300Y-145647000D01*
X151197300Y-145645000D01*
X151199300Y-145643000D01*
X151201300Y-145641000D01*
X151203300Y-145639000D01*
X151205300Y-145637000D01*
X151207300Y-145636000D01*
X151209300Y-145634000D01*
X151211300Y-145633000D01*
X151213300Y-145631000D01*
X151216300Y-145630000D01*
X151218300Y-145629000D01*
X151221300Y-145628000D01*
X151223300Y-145628000D01*
X151226300Y-145627000D01*
X151228300Y-145627000D01*
X151231300Y-145626000D01*
X151233300Y-145626000D01*
X151236300Y-145626000D01*
X151376300Y-145626000D01*
X151379300Y-145626000D01*
X151381300Y-145626000D01*
X151384300Y-145627000D01*
G36*
X151384300Y-145627000D02*
G01*
X151386300Y-145627000D01*
X151389300Y-145628000D01*
X151391300Y-145628000D01*
X151394300Y-145629000D01*
X151396300Y-145630000D01*
X151399300Y-145631000D01*
X151401300Y-145633000D01*
X151403300Y-145634000D01*
X151405300Y-145636000D01*
X151407300Y-145637000D01*
X151409300Y-145639000D01*
X151411300Y-145641000D01*
X151413300Y-145643000D01*
X151415300Y-145645000D01*
X151416300Y-145647000D01*
X151418300Y-145649000D01*
X151419300Y-145651000D01*
X151421300Y-145653000D01*
X151422300Y-145656000D01*
X151423300Y-145658000D01*
X151424300Y-145661000D01*
X151424300Y-145663000D01*
X151425300Y-145666000D01*
X151425300Y-145668000D01*
X151426300Y-145671000D01*
X151426300Y-145673000D01*
X151426300Y-145676000D01*
X151426300Y-146176000D01*
X151426300Y-146179000D01*
X151426300Y-146181000D01*
X151425300Y-146184000D01*
X151425300Y-146186000D01*
X151424300Y-146189000D01*
X151424300Y-146191000D01*
X151423300Y-146194000D01*
X151422300Y-146196000D01*
X151421300Y-146199000D01*
X151419300Y-146201000D01*
X151418300Y-146203000D01*
X151416300Y-146205000D01*
X151415300Y-146207000D01*
X151413300Y-146209000D01*
X151411300Y-146211000D01*
X151409300Y-146213000D01*
X151407300Y-146215000D01*
X151405300Y-146216000D01*
X151403300Y-146218000D01*
X151401300Y-146219000D01*
X151399300Y-146221000D01*
X151396300Y-146222000D01*
X151394300Y-146223000D01*
X151391300Y-146224000D01*
X151389300Y-146224000D01*
X151386300Y-146225000D01*
X151384300Y-146225000D01*
X151381300Y-146226000D01*
X151379300Y-146226000D01*
X151376300Y-146226000D01*
X151236300Y-146226000D01*
X151233300Y-146226000D01*
X151231300Y-146226000D01*
X151228300Y-146225000D01*
X151226300Y-146225000D01*
X151223300Y-146224000D01*
X151221300Y-146224000D01*
X151218300Y-146223000D01*
X151216300Y-146222000D01*
X151213300Y-146221000D01*
X151211300Y-146219000D01*
X151209300Y-146218000D01*
X151207300Y-146216000D01*
X151205300Y-146215000D01*
X151203300Y-146213000D01*
X151201300Y-146211000D01*
X151199300Y-146209000D01*
X151197300Y-146207000D01*
X151196300Y-146205000D01*
X151194300Y-146203000D01*
X151193300Y-146201000D01*
X151191300Y-146199000D01*
X151190300Y-146196000D01*
X151189300Y-146194000D01*
X151188300Y-146191000D01*
X151188300Y-146189000D01*
X151187300Y-146186000D01*
X151187300Y-146184000D01*
X151186300Y-146181000D01*
X151186300Y-146179000D01*
X151186300Y-146176000D01*
X151186300Y-145676000D01*
X151186300Y-145673000D01*
X151186300Y-145671000D01*
X151187300Y-145668000D01*
X151187300Y-145666000D01*
X151188300Y-145663000D01*
X151188300Y-145661000D01*
X151189300Y-145658000D01*
X151190300Y-145656000D01*
X151191300Y-145653000D01*
X151193300Y-145651000D01*
X151194300Y-145649000D01*
X151196300Y-145647000D01*
X151197300Y-145645000D01*
X151199300Y-145643000D01*
X151201300Y-145641000D01*
X151203300Y-145639000D01*
X151205300Y-145637000D01*
X151207300Y-145636000D01*
X151209300Y-145634000D01*
X151211300Y-145633000D01*
X151213300Y-145631000D01*
X151216300Y-145630000D01*
X151218300Y-145629000D01*
X151221300Y-145628000D01*
X151223300Y-145628000D01*
X151226300Y-145627000D01*
X151228300Y-145627000D01*
X151231300Y-145626000D01*
X151233300Y-145626000D01*
X151236300Y-145626000D01*
X151376300Y-145626000D01*
X151379300Y-145626000D01*
X151381300Y-145626000D01*
X151384300Y-145627000D01*
G37*
X151384300Y-142827000D02*
X151386300Y-142827000D01*
X151389300Y-142828000D01*
X151391300Y-142828000D01*
X151394300Y-142829000D01*
X151396300Y-142830000D01*
X151399300Y-142831000D01*
X151401300Y-142833000D01*
X151403300Y-142834000D01*
X151405300Y-142836000D01*
X151407300Y-142837000D01*
X151409300Y-142839000D01*
X151411300Y-142841000D01*
X151413300Y-142843000D01*
X151415300Y-142845000D01*
X151416300Y-142847000D01*
X151418300Y-142849000D01*
X151419300Y-142851000D01*
X151421300Y-142853000D01*
X151422300Y-142856000D01*
X151423300Y-142858000D01*
X151424300Y-142861000D01*
X151424300Y-142863000D01*
X151425300Y-142866000D01*
X151425300Y-142868000D01*
X151426300Y-142871000D01*
X151426300Y-142873000D01*
X151426300Y-142876000D01*
X151426300Y-143376000D01*
X151426300Y-143379000D01*
X151426300Y-143381000D01*
X151425300Y-143384000D01*
X151425300Y-143386000D01*
X151424300Y-143389000D01*
X151424300Y-143391000D01*
X151423300Y-143394000D01*
X151422300Y-143396000D01*
X151421300Y-143399000D01*
X151419300Y-143401000D01*
X151418300Y-143403000D01*
X151416300Y-143405000D01*
X151415300Y-143407000D01*
X151413300Y-143409000D01*
X151411300Y-143411000D01*
X151409300Y-143413000D01*
X151407300Y-143415000D01*
X151405300Y-143416000D01*
X151403300Y-143418000D01*
X151401300Y-143419000D01*
X151399300Y-143421000D01*
X151396300Y-143422000D01*
X151394300Y-143423000D01*
X151391300Y-143424000D01*
X151389300Y-143424000D01*
X151386300Y-143425000D01*
X151384300Y-143425000D01*
X151381300Y-143426000D01*
X151379300Y-143426000D01*
X151376300Y-143426000D01*
X151236300Y-143426000D01*
X151233300Y-143426000D01*
X151231300Y-143426000D01*
X151228300Y-143425000D01*
X151226300Y-143425000D01*
X151223300Y-143424000D01*
X151221300Y-143424000D01*
X151218300Y-143423000D01*
X151216300Y-143422000D01*
X151213300Y-143421000D01*
X151211300Y-143419000D01*
X151209300Y-143418000D01*
X151207300Y-143416000D01*
X151205300Y-143415000D01*
X151203300Y-143413000D01*
X151201300Y-143411000D01*
X151199300Y-143409000D01*
X151197300Y-143407000D01*
X151196300Y-143405000D01*
X151194300Y-143403000D01*
X151193300Y-143401000D01*
X151191300Y-143399000D01*
X151190300Y-143396000D01*
X151189300Y-143394000D01*
X151188300Y-143391000D01*
X151188300Y-143389000D01*
X151187300Y-143386000D01*
X151187300Y-143384000D01*
X151186300Y-143381000D01*
X151186300Y-143379000D01*
X151186300Y-143376000D01*
X151186300Y-142876000D01*
X151186300Y-142873000D01*
X151186300Y-142871000D01*
X151187300Y-142868000D01*
X151187300Y-142866000D01*
X151188300Y-142863000D01*
X151188300Y-142861000D01*
X151189300Y-142858000D01*
X151190300Y-142856000D01*
X151191300Y-142853000D01*
X151193300Y-142851000D01*
X151194300Y-142849000D01*
X151196300Y-142847000D01*
X151197300Y-142845000D01*
X151199300Y-142843000D01*
X151201300Y-142841000D01*
X151203300Y-142839000D01*
X151205300Y-142837000D01*
X151207300Y-142836000D01*
X151209300Y-142834000D01*
X151211300Y-142833000D01*
X151213300Y-142831000D01*
X151216300Y-142830000D01*
X151218300Y-142829000D01*
X151221300Y-142828000D01*
X151223300Y-142828000D01*
X151226300Y-142827000D01*
X151228300Y-142827000D01*
X151231300Y-142826000D01*
X151233300Y-142826000D01*
X151236300Y-142826000D01*
X151376300Y-142826000D01*
X151379300Y-142826000D01*
X151381300Y-142826000D01*
X151384300Y-142827000D01*
G36*
X151384300Y-142827000D02*
G01*
X151386300Y-142827000D01*
X151389300Y-142828000D01*
X151391300Y-142828000D01*
X151394300Y-142829000D01*
X151396300Y-142830000D01*
X151399300Y-142831000D01*
X151401300Y-142833000D01*
X151403300Y-142834000D01*
X151405300Y-142836000D01*
X151407300Y-142837000D01*
X151409300Y-142839000D01*
X151411300Y-142841000D01*
X151413300Y-142843000D01*
X151415300Y-142845000D01*
X151416300Y-142847000D01*
X151418300Y-142849000D01*
X151419300Y-142851000D01*
X151421300Y-142853000D01*
X151422300Y-142856000D01*
X151423300Y-142858000D01*
X151424300Y-142861000D01*
X151424300Y-142863000D01*
X151425300Y-142866000D01*
X151425300Y-142868000D01*
X151426300Y-142871000D01*
X151426300Y-142873000D01*
X151426300Y-142876000D01*
X151426300Y-143376000D01*
X151426300Y-143379000D01*
X151426300Y-143381000D01*
X151425300Y-143384000D01*
X151425300Y-143386000D01*
X151424300Y-143389000D01*
X151424300Y-143391000D01*
X151423300Y-143394000D01*
X151422300Y-143396000D01*
X151421300Y-143399000D01*
X151419300Y-143401000D01*
X151418300Y-143403000D01*
X151416300Y-143405000D01*
X151415300Y-143407000D01*
X151413300Y-143409000D01*
X151411300Y-143411000D01*
X151409300Y-143413000D01*
X151407300Y-143415000D01*
X151405300Y-143416000D01*
X151403300Y-143418000D01*
X151401300Y-143419000D01*
X151399300Y-143421000D01*
X151396300Y-143422000D01*
X151394300Y-143423000D01*
X151391300Y-143424000D01*
X151389300Y-143424000D01*
X151386300Y-143425000D01*
X151384300Y-143425000D01*
X151381300Y-143426000D01*
X151379300Y-143426000D01*
X151376300Y-143426000D01*
X151236300Y-143426000D01*
X151233300Y-143426000D01*
X151231300Y-143426000D01*
X151228300Y-143425000D01*
X151226300Y-143425000D01*
X151223300Y-143424000D01*
X151221300Y-143424000D01*
X151218300Y-143423000D01*
X151216300Y-143422000D01*
X151213300Y-143421000D01*
X151211300Y-143419000D01*
X151209300Y-143418000D01*
X151207300Y-143416000D01*
X151205300Y-143415000D01*
X151203300Y-143413000D01*
X151201300Y-143411000D01*
X151199300Y-143409000D01*
X151197300Y-143407000D01*
X151196300Y-143405000D01*
X151194300Y-143403000D01*
X151193300Y-143401000D01*
X151191300Y-143399000D01*
X151190300Y-143396000D01*
X151189300Y-143394000D01*
X151188300Y-143391000D01*
X151188300Y-143389000D01*
X151187300Y-143386000D01*
X151187300Y-143384000D01*
X151186300Y-143381000D01*
X151186300Y-143379000D01*
X151186300Y-143376000D01*
X151186300Y-142876000D01*
X151186300Y-142873000D01*
X151186300Y-142871000D01*
X151187300Y-142868000D01*
X151187300Y-142866000D01*
X151188300Y-142863000D01*
X151188300Y-142861000D01*
X151189300Y-142858000D01*
X151190300Y-142856000D01*
X151191300Y-142853000D01*
X151193300Y-142851000D01*
X151194300Y-142849000D01*
X151196300Y-142847000D01*
X151197300Y-142845000D01*
X151199300Y-142843000D01*
X151201300Y-142841000D01*
X151203300Y-142839000D01*
X151205300Y-142837000D01*
X151207300Y-142836000D01*
X151209300Y-142834000D01*
X151211300Y-142833000D01*
X151213300Y-142831000D01*
X151216300Y-142830000D01*
X151218300Y-142829000D01*
X151221300Y-142828000D01*
X151223300Y-142828000D01*
X151226300Y-142827000D01*
X151228300Y-142827000D01*
X151231300Y-142826000D01*
X151233300Y-142826000D01*
X151236300Y-142826000D01*
X151376300Y-142826000D01*
X151379300Y-142826000D01*
X151381300Y-142826000D01*
X151384300Y-142827000D01*
G37*
X150884300Y-145627000D02*
X150886300Y-145627000D01*
X150889300Y-145628000D01*
X150891300Y-145628000D01*
X150894300Y-145629000D01*
X150896300Y-145630000D01*
X150899300Y-145631000D01*
X150901300Y-145633000D01*
X150903300Y-145634000D01*
X150905300Y-145636000D01*
X150907300Y-145637000D01*
X150909300Y-145639000D01*
X150911300Y-145641000D01*
X150913300Y-145643000D01*
X150915300Y-145645000D01*
X150916300Y-145647000D01*
X150918300Y-145649000D01*
X150919300Y-145651000D01*
X150921300Y-145653000D01*
X150922300Y-145656000D01*
X150923300Y-145658000D01*
X150924300Y-145661000D01*
X150924300Y-145663000D01*
X150925300Y-145666000D01*
X150925300Y-145668000D01*
X150926300Y-145671000D01*
X150926300Y-145673000D01*
X150926300Y-145676000D01*
X150926300Y-146176000D01*
X150926300Y-146179000D01*
X150926300Y-146181000D01*
X150925300Y-146184000D01*
X150925300Y-146186000D01*
X150924300Y-146189000D01*
X150924300Y-146191000D01*
X150923300Y-146194000D01*
X150922300Y-146196000D01*
X150921300Y-146199000D01*
X150919300Y-146201000D01*
X150918300Y-146203000D01*
X150916300Y-146205000D01*
X150915300Y-146207000D01*
X150913300Y-146209000D01*
X150911300Y-146211000D01*
X150909300Y-146213000D01*
X150907300Y-146215000D01*
X150905300Y-146216000D01*
X150903300Y-146218000D01*
X150901300Y-146219000D01*
X150899300Y-146221000D01*
X150896300Y-146222000D01*
X150894300Y-146223000D01*
X150891300Y-146224000D01*
X150889300Y-146224000D01*
X150886300Y-146225000D01*
X150884300Y-146225000D01*
X150881300Y-146226000D01*
X150879300Y-146226000D01*
X150876300Y-146226000D01*
X150736300Y-146226000D01*
X150733300Y-146226000D01*
X150731300Y-146226000D01*
X150728300Y-146225000D01*
X150726300Y-146225000D01*
X150723300Y-146224000D01*
X150721300Y-146224000D01*
X150718300Y-146223000D01*
X150716300Y-146222000D01*
X150713300Y-146221000D01*
X150711300Y-146219000D01*
X150709300Y-146218000D01*
X150707300Y-146216000D01*
X150705300Y-146215000D01*
X150703300Y-146213000D01*
X150701300Y-146211000D01*
X150699300Y-146209000D01*
X150697300Y-146207000D01*
X150696300Y-146205000D01*
X150694300Y-146203000D01*
X150693300Y-146201000D01*
X150691300Y-146199000D01*
X150690300Y-146196000D01*
X150689300Y-146194000D01*
X150688300Y-146191000D01*
X150688300Y-146189000D01*
X150687300Y-146186000D01*
X150687300Y-146184000D01*
X150686300Y-146181000D01*
X150686300Y-146179000D01*
X150686300Y-146176000D01*
X150686300Y-145676000D01*
X150686300Y-145673000D01*
X150686300Y-145671000D01*
X150687300Y-145668000D01*
X150687300Y-145666000D01*
X150688300Y-145663000D01*
X150688300Y-145661000D01*
X150689300Y-145658000D01*
X150690300Y-145656000D01*
X150691300Y-145653000D01*
X150693300Y-145651000D01*
X150694300Y-145649000D01*
X150696300Y-145647000D01*
X150697300Y-145645000D01*
X150699300Y-145643000D01*
X150701300Y-145641000D01*
X150703300Y-145639000D01*
X150705300Y-145637000D01*
X150707300Y-145636000D01*
X150709300Y-145634000D01*
X150711300Y-145633000D01*
X150713300Y-145631000D01*
X150716300Y-145630000D01*
X150718300Y-145629000D01*
X150721300Y-145628000D01*
X150723300Y-145628000D01*
X150726300Y-145627000D01*
X150728300Y-145627000D01*
X150731300Y-145626000D01*
X150733300Y-145626000D01*
X150736300Y-145626000D01*
X150876300Y-145626000D01*
X150879300Y-145626000D01*
X150881300Y-145626000D01*
X150884300Y-145627000D01*
G36*
X150884300Y-145627000D02*
G01*
X150886300Y-145627000D01*
X150889300Y-145628000D01*
X150891300Y-145628000D01*
X150894300Y-145629000D01*
X150896300Y-145630000D01*
X150899300Y-145631000D01*
X150901300Y-145633000D01*
X150903300Y-145634000D01*
X150905300Y-145636000D01*
X150907300Y-145637000D01*
X150909300Y-145639000D01*
X150911300Y-145641000D01*
X150913300Y-145643000D01*
X150915300Y-145645000D01*
X150916300Y-145647000D01*
X150918300Y-145649000D01*
X150919300Y-145651000D01*
X150921300Y-145653000D01*
X150922300Y-145656000D01*
X150923300Y-145658000D01*
X150924300Y-145661000D01*
X150924300Y-145663000D01*
X150925300Y-145666000D01*
X150925300Y-145668000D01*
X150926300Y-145671000D01*
X150926300Y-145673000D01*
X150926300Y-145676000D01*
X150926300Y-146176000D01*
X150926300Y-146179000D01*
X150926300Y-146181000D01*
X150925300Y-146184000D01*
X150925300Y-146186000D01*
X150924300Y-146189000D01*
X150924300Y-146191000D01*
X150923300Y-146194000D01*
X150922300Y-146196000D01*
X150921300Y-146199000D01*
X150919300Y-146201000D01*
X150918300Y-146203000D01*
X150916300Y-146205000D01*
X150915300Y-146207000D01*
X150913300Y-146209000D01*
X150911300Y-146211000D01*
X150909300Y-146213000D01*
X150907300Y-146215000D01*
X150905300Y-146216000D01*
X150903300Y-146218000D01*
X150901300Y-146219000D01*
X150899300Y-146221000D01*
X150896300Y-146222000D01*
X150894300Y-146223000D01*
X150891300Y-146224000D01*
X150889300Y-146224000D01*
X150886300Y-146225000D01*
X150884300Y-146225000D01*
X150881300Y-146226000D01*
X150879300Y-146226000D01*
X150876300Y-146226000D01*
X150736300Y-146226000D01*
X150733300Y-146226000D01*
X150731300Y-146226000D01*
X150728300Y-146225000D01*
X150726300Y-146225000D01*
X150723300Y-146224000D01*
X150721300Y-146224000D01*
X150718300Y-146223000D01*
X150716300Y-146222000D01*
X150713300Y-146221000D01*
X150711300Y-146219000D01*
X150709300Y-146218000D01*
X150707300Y-146216000D01*
X150705300Y-146215000D01*
X150703300Y-146213000D01*
X150701300Y-146211000D01*
X150699300Y-146209000D01*
X150697300Y-146207000D01*
X150696300Y-146205000D01*
X150694300Y-146203000D01*
X150693300Y-146201000D01*
X150691300Y-146199000D01*
X150690300Y-146196000D01*
X150689300Y-146194000D01*
X150688300Y-146191000D01*
X150688300Y-146189000D01*
X150687300Y-146186000D01*
X150687300Y-146184000D01*
X150686300Y-146181000D01*
X150686300Y-146179000D01*
X150686300Y-146176000D01*
X150686300Y-145676000D01*
X150686300Y-145673000D01*
X150686300Y-145671000D01*
X150687300Y-145668000D01*
X150687300Y-145666000D01*
X150688300Y-145663000D01*
X150688300Y-145661000D01*
X150689300Y-145658000D01*
X150690300Y-145656000D01*
X150691300Y-145653000D01*
X150693300Y-145651000D01*
X150694300Y-145649000D01*
X150696300Y-145647000D01*
X150697300Y-145645000D01*
X150699300Y-145643000D01*
X150701300Y-145641000D01*
X150703300Y-145639000D01*
X150705300Y-145637000D01*
X150707300Y-145636000D01*
X150709300Y-145634000D01*
X150711300Y-145633000D01*
X150713300Y-145631000D01*
X150716300Y-145630000D01*
X150718300Y-145629000D01*
X150721300Y-145628000D01*
X150723300Y-145628000D01*
X150726300Y-145627000D01*
X150728300Y-145627000D01*
X150731300Y-145626000D01*
X150733300Y-145626000D01*
X150736300Y-145626000D01*
X150876300Y-145626000D01*
X150879300Y-145626000D01*
X150881300Y-145626000D01*
X150884300Y-145627000D01*
G37*
X150884300Y-142827000D02*
X150886300Y-142827000D01*
X150889300Y-142828000D01*
X150891300Y-142828000D01*
X150894300Y-142829000D01*
X150896300Y-142830000D01*
X150899300Y-142831000D01*
X150901300Y-142833000D01*
X150903300Y-142834000D01*
X150905300Y-142836000D01*
X150907300Y-142837000D01*
X150909300Y-142839000D01*
X150911300Y-142841000D01*
X150913300Y-142843000D01*
X150915300Y-142845000D01*
X150916300Y-142847000D01*
X150918300Y-142849000D01*
X150919300Y-142851000D01*
X150921300Y-142853000D01*
X150922300Y-142856000D01*
X150923300Y-142858000D01*
X150924300Y-142861000D01*
X150924300Y-142863000D01*
X150925300Y-142866000D01*
X150925300Y-142868000D01*
X150926300Y-142871000D01*
X150926300Y-142873000D01*
X150926300Y-142876000D01*
X150926300Y-143376000D01*
X150926300Y-143379000D01*
X150926300Y-143381000D01*
X150925300Y-143384000D01*
X150925300Y-143386000D01*
X150924300Y-143389000D01*
X150924300Y-143391000D01*
X150923300Y-143394000D01*
X150922300Y-143396000D01*
X150921300Y-143399000D01*
X150919300Y-143401000D01*
X150918300Y-143403000D01*
X150916300Y-143405000D01*
X150915300Y-143407000D01*
X150913300Y-143409000D01*
X150911300Y-143411000D01*
X150909300Y-143413000D01*
X150907300Y-143415000D01*
X150905300Y-143416000D01*
X150903300Y-143418000D01*
X150901300Y-143419000D01*
X150899300Y-143421000D01*
X150896300Y-143422000D01*
X150894300Y-143423000D01*
X150891300Y-143424000D01*
X150889300Y-143424000D01*
X150886300Y-143425000D01*
X150884300Y-143425000D01*
X150881300Y-143426000D01*
X150879300Y-143426000D01*
X150876300Y-143426000D01*
X150736300Y-143426000D01*
X150733300Y-143426000D01*
X150731300Y-143426000D01*
X150728300Y-143425000D01*
X150726300Y-143425000D01*
X150723300Y-143424000D01*
X150721300Y-143424000D01*
X150718300Y-143423000D01*
X150716300Y-143422000D01*
X150713300Y-143421000D01*
X150711300Y-143419000D01*
X150709300Y-143418000D01*
X150707300Y-143416000D01*
X150705300Y-143415000D01*
X150703300Y-143413000D01*
X150701300Y-143411000D01*
X150699300Y-143409000D01*
X150697300Y-143407000D01*
X150696300Y-143405000D01*
X150694300Y-143403000D01*
X150693300Y-143401000D01*
X150691300Y-143399000D01*
X150690300Y-143396000D01*
X150689300Y-143394000D01*
X150688300Y-143391000D01*
X150688300Y-143389000D01*
X150687300Y-143386000D01*
X150687300Y-143384000D01*
X150686300Y-143381000D01*
X150686300Y-143379000D01*
X150686300Y-143376000D01*
X150686300Y-142876000D01*
X150686300Y-142873000D01*
X150686300Y-142871000D01*
X150687300Y-142868000D01*
X150687300Y-142866000D01*
X150688300Y-142863000D01*
X150688300Y-142861000D01*
X150689300Y-142858000D01*
X150690300Y-142856000D01*
X150691300Y-142853000D01*
X150693300Y-142851000D01*
X150694300Y-142849000D01*
X150696300Y-142847000D01*
X150697300Y-142845000D01*
X150699300Y-142843000D01*
X150701300Y-142841000D01*
X150703300Y-142839000D01*
X150705300Y-142837000D01*
X150707300Y-142836000D01*
X150709300Y-142834000D01*
X150711300Y-142833000D01*
X150713300Y-142831000D01*
X150716300Y-142830000D01*
X150718300Y-142829000D01*
X150721300Y-142828000D01*
X150723300Y-142828000D01*
X150726300Y-142827000D01*
X150728300Y-142827000D01*
X150731300Y-142826000D01*
X150733300Y-142826000D01*
X150736300Y-142826000D01*
X150876300Y-142826000D01*
X150879300Y-142826000D01*
X150881300Y-142826000D01*
X150884300Y-142827000D01*
G36*
X150884300Y-142827000D02*
G01*
X150886300Y-142827000D01*
X150889300Y-142828000D01*
X150891300Y-142828000D01*
X150894300Y-142829000D01*
X150896300Y-142830000D01*
X150899300Y-142831000D01*
X150901300Y-142833000D01*
X150903300Y-142834000D01*
X150905300Y-142836000D01*
X150907300Y-142837000D01*
X150909300Y-142839000D01*
X150911300Y-142841000D01*
X150913300Y-142843000D01*
X150915300Y-142845000D01*
X150916300Y-142847000D01*
X150918300Y-142849000D01*
X150919300Y-142851000D01*
X150921300Y-142853000D01*
X150922300Y-142856000D01*
X150923300Y-142858000D01*
X150924300Y-142861000D01*
X150924300Y-142863000D01*
X150925300Y-142866000D01*
X150925300Y-142868000D01*
X150926300Y-142871000D01*
X150926300Y-142873000D01*
X150926300Y-142876000D01*
X150926300Y-143376000D01*
X150926300Y-143379000D01*
X150926300Y-143381000D01*
X150925300Y-143384000D01*
X150925300Y-143386000D01*
X150924300Y-143389000D01*
X150924300Y-143391000D01*
X150923300Y-143394000D01*
X150922300Y-143396000D01*
X150921300Y-143399000D01*
X150919300Y-143401000D01*
X150918300Y-143403000D01*
X150916300Y-143405000D01*
X150915300Y-143407000D01*
X150913300Y-143409000D01*
X150911300Y-143411000D01*
X150909300Y-143413000D01*
X150907300Y-143415000D01*
X150905300Y-143416000D01*
X150903300Y-143418000D01*
X150901300Y-143419000D01*
X150899300Y-143421000D01*
X150896300Y-143422000D01*
X150894300Y-143423000D01*
X150891300Y-143424000D01*
X150889300Y-143424000D01*
X150886300Y-143425000D01*
X150884300Y-143425000D01*
X150881300Y-143426000D01*
X150879300Y-143426000D01*
X150876300Y-143426000D01*
X150736300Y-143426000D01*
X150733300Y-143426000D01*
X150731300Y-143426000D01*
X150728300Y-143425000D01*
X150726300Y-143425000D01*
X150723300Y-143424000D01*
X150721300Y-143424000D01*
X150718300Y-143423000D01*
X150716300Y-143422000D01*
X150713300Y-143421000D01*
X150711300Y-143419000D01*
X150709300Y-143418000D01*
X150707300Y-143416000D01*
X150705300Y-143415000D01*
X150703300Y-143413000D01*
X150701300Y-143411000D01*
X150699300Y-143409000D01*
X150697300Y-143407000D01*
X150696300Y-143405000D01*
X150694300Y-143403000D01*
X150693300Y-143401000D01*
X150691300Y-143399000D01*
X150690300Y-143396000D01*
X150689300Y-143394000D01*
X150688300Y-143391000D01*
X150688300Y-143389000D01*
X150687300Y-143386000D01*
X150687300Y-143384000D01*
X150686300Y-143381000D01*
X150686300Y-143379000D01*
X150686300Y-143376000D01*
X150686300Y-142876000D01*
X150686300Y-142873000D01*
X150686300Y-142871000D01*
X150687300Y-142868000D01*
X150687300Y-142866000D01*
X150688300Y-142863000D01*
X150688300Y-142861000D01*
X150689300Y-142858000D01*
X150690300Y-142856000D01*
X150691300Y-142853000D01*
X150693300Y-142851000D01*
X150694300Y-142849000D01*
X150696300Y-142847000D01*
X150697300Y-142845000D01*
X150699300Y-142843000D01*
X150701300Y-142841000D01*
X150703300Y-142839000D01*
X150705300Y-142837000D01*
X150707300Y-142836000D01*
X150709300Y-142834000D01*
X150711300Y-142833000D01*
X150713300Y-142831000D01*
X150716300Y-142830000D01*
X150718300Y-142829000D01*
X150721300Y-142828000D01*
X150723300Y-142828000D01*
X150726300Y-142827000D01*
X150728300Y-142827000D01*
X150731300Y-142826000D01*
X150733300Y-142826000D01*
X150736300Y-142826000D01*
X150876300Y-142826000D01*
X150879300Y-142826000D01*
X150881300Y-142826000D01*
X150884300Y-142827000D01*
G37*
X150384300Y-145627000D02*
X150386300Y-145627000D01*
X150389300Y-145628000D01*
X150391300Y-145628000D01*
X150394300Y-145629000D01*
X150396300Y-145630000D01*
X150399300Y-145631000D01*
X150401300Y-145633000D01*
X150403300Y-145634000D01*
X150405300Y-145636000D01*
X150407300Y-145637000D01*
X150409300Y-145639000D01*
X150411300Y-145641000D01*
X150413300Y-145643000D01*
X150415300Y-145645000D01*
X150416300Y-145647000D01*
X150418300Y-145649000D01*
X150419300Y-145651000D01*
X150421300Y-145653000D01*
X150422300Y-145656000D01*
X150423300Y-145658000D01*
X150424300Y-145661000D01*
X150424300Y-145663000D01*
X150425300Y-145666000D01*
X150425300Y-145668000D01*
X150426300Y-145671000D01*
X150426300Y-145673000D01*
X150426300Y-145676000D01*
X150426300Y-146176000D01*
X150426300Y-146179000D01*
X150426300Y-146181000D01*
X150425300Y-146184000D01*
X150425300Y-146186000D01*
X150424300Y-146189000D01*
X150424300Y-146191000D01*
X150423300Y-146194000D01*
X150422300Y-146196000D01*
X150421300Y-146199000D01*
X150419300Y-146201000D01*
X150418300Y-146203000D01*
X150416300Y-146205000D01*
X150415300Y-146207000D01*
X150413300Y-146209000D01*
X150411300Y-146211000D01*
X150409300Y-146213000D01*
X150407300Y-146215000D01*
X150405300Y-146216000D01*
X150403300Y-146218000D01*
X150401300Y-146219000D01*
X150399300Y-146221000D01*
X150396300Y-146222000D01*
X150394300Y-146223000D01*
X150391300Y-146224000D01*
X150389300Y-146224000D01*
X150386300Y-146225000D01*
X150384300Y-146225000D01*
X150381300Y-146226000D01*
X150379300Y-146226000D01*
X150376300Y-146226000D01*
X150236300Y-146226000D01*
X150233300Y-146226000D01*
X150231300Y-146226000D01*
X150228300Y-146225000D01*
X150226300Y-146225000D01*
X150223300Y-146224000D01*
X150221300Y-146224000D01*
X150218300Y-146223000D01*
X150216300Y-146222000D01*
X150213300Y-146221000D01*
X150211300Y-146219000D01*
X150209300Y-146218000D01*
X150207300Y-146216000D01*
X150205300Y-146215000D01*
X150203300Y-146213000D01*
X150201300Y-146211000D01*
X150199300Y-146209000D01*
X150197300Y-146207000D01*
X150196300Y-146205000D01*
X150194300Y-146203000D01*
X150193300Y-146201000D01*
X150191300Y-146199000D01*
X150190300Y-146196000D01*
X150189300Y-146194000D01*
X150188300Y-146191000D01*
X150188300Y-146189000D01*
X150187300Y-146186000D01*
X150187300Y-146184000D01*
X150186300Y-146181000D01*
X150186300Y-146179000D01*
X150186300Y-146176000D01*
X150186300Y-145676000D01*
X150186300Y-145673000D01*
X150186300Y-145671000D01*
X150187300Y-145668000D01*
X150187300Y-145666000D01*
X150188300Y-145663000D01*
X150188300Y-145661000D01*
X150189300Y-145658000D01*
X150190300Y-145656000D01*
X150191300Y-145653000D01*
X150193300Y-145651000D01*
X150194300Y-145649000D01*
X150196300Y-145647000D01*
X150197300Y-145645000D01*
X150199300Y-145643000D01*
X150201300Y-145641000D01*
X150203300Y-145639000D01*
X150205300Y-145637000D01*
X150207300Y-145636000D01*
X150209300Y-145634000D01*
X150211300Y-145633000D01*
X150213300Y-145631000D01*
X150216300Y-145630000D01*
X150218300Y-145629000D01*
X150221300Y-145628000D01*
X150223300Y-145628000D01*
X150226300Y-145627000D01*
X150228300Y-145627000D01*
X150231300Y-145626000D01*
X150233300Y-145626000D01*
X150236300Y-145626000D01*
X150376300Y-145626000D01*
X150379300Y-145626000D01*
X150381300Y-145626000D01*
X150384300Y-145627000D01*
G36*
X150384300Y-145627000D02*
G01*
X150386300Y-145627000D01*
X150389300Y-145628000D01*
X150391300Y-145628000D01*
X150394300Y-145629000D01*
X150396300Y-145630000D01*
X150399300Y-145631000D01*
X150401300Y-145633000D01*
X150403300Y-145634000D01*
X150405300Y-145636000D01*
X150407300Y-145637000D01*
X150409300Y-145639000D01*
X150411300Y-145641000D01*
X150413300Y-145643000D01*
X150415300Y-145645000D01*
X150416300Y-145647000D01*
X150418300Y-145649000D01*
X150419300Y-145651000D01*
X150421300Y-145653000D01*
X150422300Y-145656000D01*
X150423300Y-145658000D01*
X150424300Y-145661000D01*
X150424300Y-145663000D01*
X150425300Y-145666000D01*
X150425300Y-145668000D01*
X150426300Y-145671000D01*
X150426300Y-145673000D01*
X150426300Y-145676000D01*
X150426300Y-146176000D01*
X150426300Y-146179000D01*
X150426300Y-146181000D01*
X150425300Y-146184000D01*
X150425300Y-146186000D01*
X150424300Y-146189000D01*
X150424300Y-146191000D01*
X150423300Y-146194000D01*
X150422300Y-146196000D01*
X150421300Y-146199000D01*
X150419300Y-146201000D01*
X150418300Y-146203000D01*
X150416300Y-146205000D01*
X150415300Y-146207000D01*
X150413300Y-146209000D01*
X150411300Y-146211000D01*
X150409300Y-146213000D01*
X150407300Y-146215000D01*
X150405300Y-146216000D01*
X150403300Y-146218000D01*
X150401300Y-146219000D01*
X150399300Y-146221000D01*
X150396300Y-146222000D01*
X150394300Y-146223000D01*
X150391300Y-146224000D01*
X150389300Y-146224000D01*
X150386300Y-146225000D01*
X150384300Y-146225000D01*
X150381300Y-146226000D01*
X150379300Y-146226000D01*
X150376300Y-146226000D01*
X150236300Y-146226000D01*
X150233300Y-146226000D01*
X150231300Y-146226000D01*
X150228300Y-146225000D01*
X150226300Y-146225000D01*
X150223300Y-146224000D01*
X150221300Y-146224000D01*
X150218300Y-146223000D01*
X150216300Y-146222000D01*
X150213300Y-146221000D01*
X150211300Y-146219000D01*
X150209300Y-146218000D01*
X150207300Y-146216000D01*
X150205300Y-146215000D01*
X150203300Y-146213000D01*
X150201300Y-146211000D01*
X150199300Y-146209000D01*
X150197300Y-146207000D01*
X150196300Y-146205000D01*
X150194300Y-146203000D01*
X150193300Y-146201000D01*
X150191300Y-146199000D01*
X150190300Y-146196000D01*
X150189300Y-146194000D01*
X150188300Y-146191000D01*
X150188300Y-146189000D01*
X150187300Y-146186000D01*
X150187300Y-146184000D01*
X150186300Y-146181000D01*
X150186300Y-146179000D01*
X150186300Y-146176000D01*
X150186300Y-145676000D01*
X150186300Y-145673000D01*
X150186300Y-145671000D01*
X150187300Y-145668000D01*
X150187300Y-145666000D01*
X150188300Y-145663000D01*
X150188300Y-145661000D01*
X150189300Y-145658000D01*
X150190300Y-145656000D01*
X150191300Y-145653000D01*
X150193300Y-145651000D01*
X150194300Y-145649000D01*
X150196300Y-145647000D01*
X150197300Y-145645000D01*
X150199300Y-145643000D01*
X150201300Y-145641000D01*
X150203300Y-145639000D01*
X150205300Y-145637000D01*
X150207300Y-145636000D01*
X150209300Y-145634000D01*
X150211300Y-145633000D01*
X150213300Y-145631000D01*
X150216300Y-145630000D01*
X150218300Y-145629000D01*
X150221300Y-145628000D01*
X150223300Y-145628000D01*
X150226300Y-145627000D01*
X150228300Y-145627000D01*
X150231300Y-145626000D01*
X150233300Y-145626000D01*
X150236300Y-145626000D01*
X150376300Y-145626000D01*
X150379300Y-145626000D01*
X150381300Y-145626000D01*
X150384300Y-145627000D01*
G37*
X150384300Y-142827000D02*
X150386300Y-142827000D01*
X150389300Y-142828000D01*
X150391300Y-142828000D01*
X150394300Y-142829000D01*
X150396300Y-142830000D01*
X150399300Y-142831000D01*
X150401300Y-142833000D01*
X150403300Y-142834000D01*
X150405300Y-142836000D01*
X150407300Y-142837000D01*
X150409300Y-142839000D01*
X150411300Y-142841000D01*
X150413300Y-142843000D01*
X150415300Y-142845000D01*
X150416300Y-142847000D01*
X150418300Y-142849000D01*
X150419300Y-142851000D01*
X150421300Y-142853000D01*
X150422300Y-142856000D01*
X150423300Y-142858000D01*
X150424300Y-142861000D01*
X150424300Y-142863000D01*
X150425300Y-142866000D01*
X150425300Y-142868000D01*
X150426300Y-142871000D01*
X150426300Y-142873000D01*
X150426300Y-142876000D01*
X150426300Y-143376000D01*
X150426300Y-143379000D01*
X150426300Y-143381000D01*
X150425300Y-143384000D01*
X150425300Y-143386000D01*
X150424300Y-143389000D01*
X150424300Y-143391000D01*
X150423300Y-143394000D01*
X150422300Y-143396000D01*
X150421300Y-143399000D01*
X150419300Y-143401000D01*
X150418300Y-143403000D01*
X150416300Y-143405000D01*
X150415300Y-143407000D01*
X150413300Y-143409000D01*
X150411300Y-143411000D01*
X150409300Y-143413000D01*
X150407300Y-143415000D01*
X150405300Y-143416000D01*
X150403300Y-143418000D01*
X150401300Y-143419000D01*
X150399300Y-143421000D01*
X150396300Y-143422000D01*
X150394300Y-143423000D01*
X150391300Y-143424000D01*
X150389300Y-143424000D01*
X150386300Y-143425000D01*
X150384300Y-143425000D01*
X150381300Y-143426000D01*
X150379300Y-143426000D01*
X150376300Y-143426000D01*
X150236300Y-143426000D01*
X150233300Y-143426000D01*
X150231300Y-143426000D01*
X150228300Y-143425000D01*
X150226300Y-143425000D01*
X150223300Y-143424000D01*
X150221300Y-143424000D01*
X150218300Y-143423000D01*
X150216300Y-143422000D01*
X150213300Y-143421000D01*
X150211300Y-143419000D01*
X150209300Y-143418000D01*
X150207300Y-143416000D01*
X150205300Y-143415000D01*
X150203300Y-143413000D01*
X150201300Y-143411000D01*
X150199300Y-143409000D01*
X150197300Y-143407000D01*
X150196300Y-143405000D01*
X150194300Y-143403000D01*
X150193300Y-143401000D01*
X150191300Y-143399000D01*
X150190300Y-143396000D01*
X150189300Y-143394000D01*
X150188300Y-143391000D01*
X150188300Y-143389000D01*
X150187300Y-143386000D01*
X150187300Y-143384000D01*
X150186300Y-143381000D01*
X150186300Y-143379000D01*
X150186300Y-143376000D01*
X150186300Y-142876000D01*
X150186300Y-142873000D01*
X150186300Y-142871000D01*
X150187300Y-142868000D01*
X150187300Y-142866000D01*
X150188300Y-142863000D01*
X150188300Y-142861000D01*
X150189300Y-142858000D01*
X150190300Y-142856000D01*
X150191300Y-142853000D01*
X150193300Y-142851000D01*
X150194300Y-142849000D01*
X150196300Y-142847000D01*
X150197300Y-142845000D01*
X150199300Y-142843000D01*
X150201300Y-142841000D01*
X150203300Y-142839000D01*
X150205300Y-142837000D01*
X150207300Y-142836000D01*
X150209300Y-142834000D01*
X150211300Y-142833000D01*
X150213300Y-142831000D01*
X150216300Y-142830000D01*
X150218300Y-142829000D01*
X150221300Y-142828000D01*
X150223300Y-142828000D01*
X150226300Y-142827000D01*
X150228300Y-142827000D01*
X150231300Y-142826000D01*
X150233300Y-142826000D01*
X150236300Y-142826000D01*
X150376300Y-142826000D01*
X150379300Y-142826000D01*
X150381300Y-142826000D01*
X150384300Y-142827000D01*
G36*
X150384300Y-142827000D02*
G01*
X150386300Y-142827000D01*
X150389300Y-142828000D01*
X150391300Y-142828000D01*
X150394300Y-142829000D01*
X150396300Y-142830000D01*
X150399300Y-142831000D01*
X150401300Y-142833000D01*
X150403300Y-142834000D01*
X150405300Y-142836000D01*
X150407300Y-142837000D01*
X150409300Y-142839000D01*
X150411300Y-142841000D01*
X150413300Y-142843000D01*
X150415300Y-142845000D01*
X150416300Y-142847000D01*
X150418300Y-142849000D01*
X150419300Y-142851000D01*
X150421300Y-142853000D01*
X150422300Y-142856000D01*
X150423300Y-142858000D01*
X150424300Y-142861000D01*
X150424300Y-142863000D01*
X150425300Y-142866000D01*
X150425300Y-142868000D01*
X150426300Y-142871000D01*
X150426300Y-142873000D01*
X150426300Y-142876000D01*
X150426300Y-143376000D01*
X150426300Y-143379000D01*
X150426300Y-143381000D01*
X150425300Y-143384000D01*
X150425300Y-143386000D01*
X150424300Y-143389000D01*
X150424300Y-143391000D01*
X150423300Y-143394000D01*
X150422300Y-143396000D01*
X150421300Y-143399000D01*
X150419300Y-143401000D01*
X150418300Y-143403000D01*
X150416300Y-143405000D01*
X150415300Y-143407000D01*
X150413300Y-143409000D01*
X150411300Y-143411000D01*
X150409300Y-143413000D01*
X150407300Y-143415000D01*
X150405300Y-143416000D01*
X150403300Y-143418000D01*
X150401300Y-143419000D01*
X150399300Y-143421000D01*
X150396300Y-143422000D01*
X150394300Y-143423000D01*
X150391300Y-143424000D01*
X150389300Y-143424000D01*
X150386300Y-143425000D01*
X150384300Y-143425000D01*
X150381300Y-143426000D01*
X150379300Y-143426000D01*
X150376300Y-143426000D01*
X150236300Y-143426000D01*
X150233300Y-143426000D01*
X150231300Y-143426000D01*
X150228300Y-143425000D01*
X150226300Y-143425000D01*
X150223300Y-143424000D01*
X150221300Y-143424000D01*
X150218300Y-143423000D01*
X150216300Y-143422000D01*
X150213300Y-143421000D01*
X150211300Y-143419000D01*
X150209300Y-143418000D01*
X150207300Y-143416000D01*
X150205300Y-143415000D01*
X150203300Y-143413000D01*
X150201300Y-143411000D01*
X150199300Y-143409000D01*
X150197300Y-143407000D01*
X150196300Y-143405000D01*
X150194300Y-143403000D01*
X150193300Y-143401000D01*
X150191300Y-143399000D01*
X150190300Y-143396000D01*
X150189300Y-143394000D01*
X150188300Y-143391000D01*
X150188300Y-143389000D01*
X150187300Y-143386000D01*
X150187300Y-143384000D01*
X150186300Y-143381000D01*
X150186300Y-143379000D01*
X150186300Y-143376000D01*
X150186300Y-142876000D01*
X150186300Y-142873000D01*
X150186300Y-142871000D01*
X150187300Y-142868000D01*
X150187300Y-142866000D01*
X150188300Y-142863000D01*
X150188300Y-142861000D01*
X150189300Y-142858000D01*
X150190300Y-142856000D01*
X150191300Y-142853000D01*
X150193300Y-142851000D01*
X150194300Y-142849000D01*
X150196300Y-142847000D01*
X150197300Y-142845000D01*
X150199300Y-142843000D01*
X150201300Y-142841000D01*
X150203300Y-142839000D01*
X150205300Y-142837000D01*
X150207300Y-142836000D01*
X150209300Y-142834000D01*
X150211300Y-142833000D01*
X150213300Y-142831000D01*
X150216300Y-142830000D01*
X150218300Y-142829000D01*
X150221300Y-142828000D01*
X150223300Y-142828000D01*
X150226300Y-142827000D01*
X150228300Y-142827000D01*
X150231300Y-142826000D01*
X150233300Y-142826000D01*
X150236300Y-142826000D01*
X150376300Y-142826000D01*
X150379300Y-142826000D01*
X150381300Y-142826000D01*
X150384300Y-142827000D01*
G37*
X149914300Y-145157000D02*
X149916300Y-145157000D01*
X149919300Y-145158000D01*
X149921300Y-145158000D01*
X149924300Y-145159000D01*
X149926300Y-145160000D01*
X149929300Y-145161000D01*
X149931300Y-145163000D01*
X149933300Y-145164000D01*
X149935300Y-145166000D01*
X149937300Y-145167000D01*
X149939300Y-145169000D01*
X149941300Y-145171000D01*
X149943300Y-145173000D01*
X149945300Y-145175000D01*
X149946300Y-145177000D01*
X149948300Y-145179000D01*
X149949300Y-145181000D01*
X149951300Y-145183000D01*
X149952300Y-145186000D01*
X149953300Y-145188000D01*
X149954300Y-145191000D01*
X149954300Y-145193000D01*
X149955300Y-145196000D01*
X149955300Y-145198000D01*
X149956300Y-145201000D01*
X149956300Y-145203000D01*
X149956300Y-145206000D01*
X149956300Y-145346000D01*
X149956300Y-145349000D01*
X149956300Y-145351000D01*
X149955300Y-145354000D01*
X149955300Y-145356000D01*
X149954300Y-145359000D01*
X149954300Y-145361000D01*
X149953300Y-145364000D01*
X149952300Y-145366000D01*
X149951300Y-145369000D01*
X149949300Y-145371000D01*
X149948300Y-145373000D01*
X149946300Y-145375000D01*
X149945300Y-145377000D01*
X149943300Y-145379000D01*
X149941300Y-145381000D01*
X149939300Y-145383000D01*
X149937300Y-145385000D01*
X149935300Y-145386000D01*
X149933300Y-145388000D01*
X149931300Y-145389000D01*
X149929300Y-145391000D01*
X149926300Y-145392000D01*
X149924300Y-145393000D01*
X149921300Y-145394000D01*
X149919300Y-145394000D01*
X149916300Y-145395000D01*
X149914300Y-145395000D01*
X149911300Y-145396000D01*
X149909300Y-145396000D01*
X149906300Y-145396000D01*
X149406300Y-145396000D01*
X149403300Y-145396000D01*
X149401300Y-145396000D01*
X149398300Y-145395000D01*
X149396300Y-145395000D01*
X149393300Y-145394000D01*
X149391300Y-145394000D01*
X149388300Y-145393000D01*
X149386300Y-145392000D01*
X149383300Y-145391000D01*
X149381300Y-145389000D01*
X149379300Y-145388000D01*
X149377300Y-145386000D01*
X149375300Y-145385000D01*
X149373300Y-145383000D01*
X149371300Y-145381000D01*
X149369300Y-145379000D01*
X149367300Y-145377000D01*
X149366300Y-145375000D01*
X149364300Y-145373000D01*
X149363300Y-145371000D01*
X149361300Y-145369000D01*
X149360300Y-145366000D01*
X149359300Y-145364000D01*
X149358300Y-145361000D01*
X149358300Y-145359000D01*
X149357300Y-145356000D01*
X149357300Y-145354000D01*
X149356300Y-145351000D01*
X149356300Y-145349000D01*
X149356300Y-145346000D01*
X149356300Y-145206000D01*
X149356300Y-145203000D01*
X149356300Y-145201000D01*
X149357300Y-145198000D01*
X149357300Y-145196000D01*
X149358300Y-145193000D01*
X149358300Y-145191000D01*
X149359300Y-145188000D01*
X149360300Y-145186000D01*
X149361300Y-145183000D01*
X149363300Y-145181000D01*
X149364300Y-145179000D01*
X149366300Y-145177000D01*
X149367300Y-145175000D01*
X149369300Y-145173000D01*
X149371300Y-145171000D01*
X149373300Y-145169000D01*
X149375300Y-145167000D01*
X149377300Y-145166000D01*
X149379300Y-145164000D01*
X149381300Y-145163000D01*
X149383300Y-145161000D01*
X149386300Y-145160000D01*
X149388300Y-145159000D01*
X149391300Y-145158000D01*
X149393300Y-145158000D01*
X149396300Y-145157000D01*
X149398300Y-145157000D01*
X149401300Y-145156000D01*
X149403300Y-145156000D01*
X149406300Y-145156000D01*
X149906300Y-145156000D01*
X149909300Y-145156000D01*
X149911300Y-145156000D01*
X149914300Y-145157000D01*
G36*
X149914300Y-145157000D02*
G01*
X149916300Y-145157000D01*
X149919300Y-145158000D01*
X149921300Y-145158000D01*
X149924300Y-145159000D01*
X149926300Y-145160000D01*
X149929300Y-145161000D01*
X149931300Y-145163000D01*
X149933300Y-145164000D01*
X149935300Y-145166000D01*
X149937300Y-145167000D01*
X149939300Y-145169000D01*
X149941300Y-145171000D01*
X149943300Y-145173000D01*
X149945300Y-145175000D01*
X149946300Y-145177000D01*
X149948300Y-145179000D01*
X149949300Y-145181000D01*
X149951300Y-145183000D01*
X149952300Y-145186000D01*
X149953300Y-145188000D01*
X149954300Y-145191000D01*
X149954300Y-145193000D01*
X149955300Y-145196000D01*
X149955300Y-145198000D01*
X149956300Y-145201000D01*
X149956300Y-145203000D01*
X149956300Y-145206000D01*
X149956300Y-145346000D01*
X149956300Y-145349000D01*
X149956300Y-145351000D01*
X149955300Y-145354000D01*
X149955300Y-145356000D01*
X149954300Y-145359000D01*
X149954300Y-145361000D01*
X149953300Y-145364000D01*
X149952300Y-145366000D01*
X149951300Y-145369000D01*
X149949300Y-145371000D01*
X149948300Y-145373000D01*
X149946300Y-145375000D01*
X149945300Y-145377000D01*
X149943300Y-145379000D01*
X149941300Y-145381000D01*
X149939300Y-145383000D01*
X149937300Y-145385000D01*
X149935300Y-145386000D01*
X149933300Y-145388000D01*
X149931300Y-145389000D01*
X149929300Y-145391000D01*
X149926300Y-145392000D01*
X149924300Y-145393000D01*
X149921300Y-145394000D01*
X149919300Y-145394000D01*
X149916300Y-145395000D01*
X149914300Y-145395000D01*
X149911300Y-145396000D01*
X149909300Y-145396000D01*
X149906300Y-145396000D01*
X149406300Y-145396000D01*
X149403300Y-145396000D01*
X149401300Y-145396000D01*
X149398300Y-145395000D01*
X149396300Y-145395000D01*
X149393300Y-145394000D01*
X149391300Y-145394000D01*
X149388300Y-145393000D01*
X149386300Y-145392000D01*
X149383300Y-145391000D01*
X149381300Y-145389000D01*
X149379300Y-145388000D01*
X149377300Y-145386000D01*
X149375300Y-145385000D01*
X149373300Y-145383000D01*
X149371300Y-145381000D01*
X149369300Y-145379000D01*
X149367300Y-145377000D01*
X149366300Y-145375000D01*
X149364300Y-145373000D01*
X149363300Y-145371000D01*
X149361300Y-145369000D01*
X149360300Y-145366000D01*
X149359300Y-145364000D01*
X149358300Y-145361000D01*
X149358300Y-145359000D01*
X149357300Y-145356000D01*
X149357300Y-145354000D01*
X149356300Y-145351000D01*
X149356300Y-145349000D01*
X149356300Y-145346000D01*
X149356300Y-145206000D01*
X149356300Y-145203000D01*
X149356300Y-145201000D01*
X149357300Y-145198000D01*
X149357300Y-145196000D01*
X149358300Y-145193000D01*
X149358300Y-145191000D01*
X149359300Y-145188000D01*
X149360300Y-145186000D01*
X149361300Y-145183000D01*
X149363300Y-145181000D01*
X149364300Y-145179000D01*
X149366300Y-145177000D01*
X149367300Y-145175000D01*
X149369300Y-145173000D01*
X149371300Y-145171000D01*
X149373300Y-145169000D01*
X149375300Y-145167000D01*
X149377300Y-145166000D01*
X149379300Y-145164000D01*
X149381300Y-145163000D01*
X149383300Y-145161000D01*
X149386300Y-145160000D01*
X149388300Y-145159000D01*
X149391300Y-145158000D01*
X149393300Y-145158000D01*
X149396300Y-145157000D01*
X149398300Y-145157000D01*
X149401300Y-145156000D01*
X149403300Y-145156000D01*
X149406300Y-145156000D01*
X149906300Y-145156000D01*
X149909300Y-145156000D01*
X149911300Y-145156000D01*
X149914300Y-145157000D01*
G37*
X149914300Y-144657000D02*
X149916300Y-144657000D01*
X149919300Y-144658000D01*
X149921300Y-144658000D01*
X149924300Y-144659000D01*
X149926300Y-144660000D01*
X149929300Y-144661000D01*
X149931300Y-144663000D01*
X149933300Y-144664000D01*
X149935300Y-144666000D01*
X149937300Y-144667000D01*
X149939300Y-144669000D01*
X149941300Y-144671000D01*
X149943300Y-144673000D01*
X149945300Y-144675000D01*
X149946300Y-144677000D01*
X149948300Y-144679000D01*
X149949300Y-144681000D01*
X149951300Y-144683000D01*
X149952300Y-144686000D01*
X149953300Y-144688000D01*
X149954300Y-144691000D01*
X149954300Y-144693000D01*
X149955300Y-144696000D01*
X149955300Y-144698000D01*
X149956300Y-144701000D01*
X149956300Y-144703000D01*
X149956300Y-144706000D01*
X149956300Y-144846000D01*
X149956300Y-144849000D01*
X149956300Y-144851000D01*
X149955300Y-144854000D01*
X149955300Y-144856000D01*
X149954300Y-144859000D01*
X149954300Y-144861000D01*
X149953300Y-144864000D01*
X149952300Y-144866000D01*
X149951300Y-144869000D01*
X149949300Y-144871000D01*
X149948300Y-144873000D01*
X149946300Y-144875000D01*
X149945300Y-144877000D01*
X149943300Y-144879000D01*
X149941300Y-144881000D01*
X149939300Y-144883000D01*
X149937300Y-144885000D01*
X149935300Y-144886000D01*
X149933300Y-144888000D01*
X149931300Y-144889000D01*
X149929300Y-144891000D01*
X149926300Y-144892000D01*
X149924300Y-144893000D01*
X149921300Y-144894000D01*
X149919300Y-144894000D01*
X149916300Y-144895000D01*
X149914300Y-144895000D01*
X149911300Y-144896000D01*
X149909300Y-144896000D01*
X149906300Y-144896000D01*
X149406300Y-144896000D01*
X149403300Y-144896000D01*
X149401300Y-144896000D01*
X149398300Y-144895000D01*
X149396300Y-144895000D01*
X149393300Y-144894000D01*
X149391300Y-144894000D01*
X149388300Y-144893000D01*
X149386300Y-144892000D01*
X149383300Y-144891000D01*
X149381300Y-144889000D01*
X149379300Y-144888000D01*
X149377300Y-144886000D01*
X149375300Y-144885000D01*
X149373300Y-144883000D01*
X149371300Y-144881000D01*
X149369300Y-144879000D01*
X149367300Y-144877000D01*
X149366300Y-144875000D01*
X149364300Y-144873000D01*
X149363300Y-144871000D01*
X149361300Y-144869000D01*
X149360300Y-144866000D01*
X149359300Y-144864000D01*
X149358300Y-144861000D01*
X149358300Y-144859000D01*
X149357300Y-144856000D01*
X149357300Y-144854000D01*
X149356300Y-144851000D01*
X149356300Y-144849000D01*
X149356300Y-144846000D01*
X149356300Y-144706000D01*
X149356300Y-144703000D01*
X149356300Y-144701000D01*
X149357300Y-144698000D01*
X149357300Y-144696000D01*
X149358300Y-144693000D01*
X149358300Y-144691000D01*
X149359300Y-144688000D01*
X149360300Y-144686000D01*
X149361300Y-144683000D01*
X149363300Y-144681000D01*
X149364300Y-144679000D01*
X149366300Y-144677000D01*
X149367300Y-144675000D01*
X149369300Y-144673000D01*
X149371300Y-144671000D01*
X149373300Y-144669000D01*
X149375300Y-144667000D01*
X149377300Y-144666000D01*
X149379300Y-144664000D01*
X149381300Y-144663000D01*
X149383300Y-144661000D01*
X149386300Y-144660000D01*
X149388300Y-144659000D01*
X149391300Y-144658000D01*
X149393300Y-144658000D01*
X149396300Y-144657000D01*
X149398300Y-144657000D01*
X149401300Y-144656000D01*
X149403300Y-144656000D01*
X149406300Y-144656000D01*
X149906300Y-144656000D01*
X149909300Y-144656000D01*
X149911300Y-144656000D01*
X149914300Y-144657000D01*
G36*
X149914300Y-144657000D02*
G01*
X149916300Y-144657000D01*
X149919300Y-144658000D01*
X149921300Y-144658000D01*
X149924300Y-144659000D01*
X149926300Y-144660000D01*
X149929300Y-144661000D01*
X149931300Y-144663000D01*
X149933300Y-144664000D01*
X149935300Y-144666000D01*
X149937300Y-144667000D01*
X149939300Y-144669000D01*
X149941300Y-144671000D01*
X149943300Y-144673000D01*
X149945300Y-144675000D01*
X149946300Y-144677000D01*
X149948300Y-144679000D01*
X149949300Y-144681000D01*
X149951300Y-144683000D01*
X149952300Y-144686000D01*
X149953300Y-144688000D01*
X149954300Y-144691000D01*
X149954300Y-144693000D01*
X149955300Y-144696000D01*
X149955300Y-144698000D01*
X149956300Y-144701000D01*
X149956300Y-144703000D01*
X149956300Y-144706000D01*
X149956300Y-144846000D01*
X149956300Y-144849000D01*
X149956300Y-144851000D01*
X149955300Y-144854000D01*
X149955300Y-144856000D01*
X149954300Y-144859000D01*
X149954300Y-144861000D01*
X149953300Y-144864000D01*
X149952300Y-144866000D01*
X149951300Y-144869000D01*
X149949300Y-144871000D01*
X149948300Y-144873000D01*
X149946300Y-144875000D01*
X149945300Y-144877000D01*
X149943300Y-144879000D01*
X149941300Y-144881000D01*
X149939300Y-144883000D01*
X149937300Y-144885000D01*
X149935300Y-144886000D01*
X149933300Y-144888000D01*
X149931300Y-144889000D01*
X149929300Y-144891000D01*
X149926300Y-144892000D01*
X149924300Y-144893000D01*
X149921300Y-144894000D01*
X149919300Y-144894000D01*
X149916300Y-144895000D01*
X149914300Y-144895000D01*
X149911300Y-144896000D01*
X149909300Y-144896000D01*
X149906300Y-144896000D01*
X149406300Y-144896000D01*
X149403300Y-144896000D01*
X149401300Y-144896000D01*
X149398300Y-144895000D01*
X149396300Y-144895000D01*
X149393300Y-144894000D01*
X149391300Y-144894000D01*
X149388300Y-144893000D01*
X149386300Y-144892000D01*
X149383300Y-144891000D01*
X149381300Y-144889000D01*
X149379300Y-144888000D01*
X149377300Y-144886000D01*
X149375300Y-144885000D01*
X149373300Y-144883000D01*
X149371300Y-144881000D01*
X149369300Y-144879000D01*
X149367300Y-144877000D01*
X149366300Y-144875000D01*
X149364300Y-144873000D01*
X149363300Y-144871000D01*
X149361300Y-144869000D01*
X149360300Y-144866000D01*
X149359300Y-144864000D01*
X149358300Y-144861000D01*
X149358300Y-144859000D01*
X149357300Y-144856000D01*
X149357300Y-144854000D01*
X149356300Y-144851000D01*
X149356300Y-144849000D01*
X149356300Y-144846000D01*
X149356300Y-144706000D01*
X149356300Y-144703000D01*
X149356300Y-144701000D01*
X149357300Y-144698000D01*
X149357300Y-144696000D01*
X149358300Y-144693000D01*
X149358300Y-144691000D01*
X149359300Y-144688000D01*
X149360300Y-144686000D01*
X149361300Y-144683000D01*
X149363300Y-144681000D01*
X149364300Y-144679000D01*
X149366300Y-144677000D01*
X149367300Y-144675000D01*
X149369300Y-144673000D01*
X149371300Y-144671000D01*
X149373300Y-144669000D01*
X149375300Y-144667000D01*
X149377300Y-144666000D01*
X149379300Y-144664000D01*
X149381300Y-144663000D01*
X149383300Y-144661000D01*
X149386300Y-144660000D01*
X149388300Y-144659000D01*
X149391300Y-144658000D01*
X149393300Y-144658000D01*
X149396300Y-144657000D01*
X149398300Y-144657000D01*
X149401300Y-144656000D01*
X149403300Y-144656000D01*
X149406300Y-144656000D01*
X149906300Y-144656000D01*
X149909300Y-144656000D01*
X149911300Y-144656000D01*
X149914300Y-144657000D01*
G37*
X149914300Y-144157000D02*
X149916300Y-144157000D01*
X149919300Y-144158000D01*
X149921300Y-144158000D01*
X149924300Y-144159000D01*
X149926300Y-144160000D01*
X149929300Y-144161000D01*
X149931300Y-144163000D01*
X149933300Y-144164000D01*
X149935300Y-144166000D01*
X149937300Y-144167000D01*
X149939300Y-144169000D01*
X149941300Y-144171000D01*
X149943300Y-144173000D01*
X149945300Y-144175000D01*
X149946300Y-144177000D01*
X149948300Y-144179000D01*
X149949300Y-144181000D01*
X149951300Y-144183000D01*
X149952300Y-144186000D01*
X149953300Y-144188000D01*
X149954300Y-144191000D01*
X149954300Y-144193000D01*
X149955300Y-144196000D01*
X149955300Y-144198000D01*
X149956300Y-144201000D01*
X149956300Y-144203000D01*
X149956300Y-144206000D01*
X149956300Y-144346000D01*
X149956300Y-144349000D01*
X149956300Y-144351000D01*
X149955300Y-144354000D01*
X149955300Y-144356000D01*
X149954300Y-144359000D01*
X149954300Y-144361000D01*
X149953300Y-144364000D01*
X149952300Y-144366000D01*
X149951300Y-144369000D01*
X149949300Y-144371000D01*
X149948300Y-144373000D01*
X149946300Y-144375000D01*
X149945300Y-144377000D01*
X149943300Y-144379000D01*
X149941300Y-144381000D01*
X149939300Y-144383000D01*
X149937300Y-144385000D01*
X149935300Y-144386000D01*
X149933300Y-144388000D01*
X149931300Y-144389000D01*
X149929300Y-144391000D01*
X149926300Y-144392000D01*
X149924300Y-144393000D01*
X149921300Y-144394000D01*
X149919300Y-144394000D01*
X149916300Y-144395000D01*
X149914300Y-144395000D01*
X149911300Y-144396000D01*
X149909300Y-144396000D01*
X149906300Y-144396000D01*
X149406300Y-144396000D01*
X149403300Y-144396000D01*
X149401300Y-144396000D01*
X149398300Y-144395000D01*
X149396300Y-144395000D01*
X149393300Y-144394000D01*
X149391300Y-144394000D01*
X149388300Y-144393000D01*
X149386300Y-144392000D01*
X149383300Y-144391000D01*
X149381300Y-144389000D01*
X149379300Y-144388000D01*
X149377300Y-144386000D01*
X149375300Y-144385000D01*
X149373300Y-144383000D01*
X149371300Y-144381000D01*
X149369300Y-144379000D01*
X149367300Y-144377000D01*
X149366300Y-144375000D01*
X149364300Y-144373000D01*
X149363300Y-144371000D01*
X149361300Y-144369000D01*
X149360300Y-144366000D01*
X149359300Y-144364000D01*
X149358300Y-144361000D01*
X149358300Y-144359000D01*
X149357300Y-144356000D01*
X149357300Y-144354000D01*
X149356300Y-144351000D01*
X149356300Y-144349000D01*
X149356300Y-144346000D01*
X149356300Y-144206000D01*
X149356300Y-144203000D01*
X149356300Y-144201000D01*
X149357300Y-144198000D01*
X149357300Y-144196000D01*
X149358300Y-144193000D01*
X149358300Y-144191000D01*
X149359300Y-144188000D01*
X149360300Y-144186000D01*
X149361300Y-144183000D01*
X149363300Y-144181000D01*
X149364300Y-144179000D01*
X149366300Y-144177000D01*
X149367300Y-144175000D01*
X149369300Y-144173000D01*
X149371300Y-144171000D01*
X149373300Y-144169000D01*
X149375300Y-144167000D01*
X149377300Y-144166000D01*
X149379300Y-144164000D01*
X149381300Y-144163000D01*
X149383300Y-144161000D01*
X149386300Y-144160000D01*
X149388300Y-144159000D01*
X149391300Y-144158000D01*
X149393300Y-144158000D01*
X149396300Y-144157000D01*
X149398300Y-144157000D01*
X149401300Y-144156000D01*
X149403300Y-144156000D01*
X149406300Y-144156000D01*
X149906300Y-144156000D01*
X149909300Y-144156000D01*
X149911300Y-144156000D01*
X149914300Y-144157000D01*
G36*
X149914300Y-144157000D02*
G01*
X149916300Y-144157000D01*
X149919300Y-144158000D01*
X149921300Y-144158000D01*
X149924300Y-144159000D01*
X149926300Y-144160000D01*
X149929300Y-144161000D01*
X149931300Y-144163000D01*
X149933300Y-144164000D01*
X149935300Y-144166000D01*
X149937300Y-144167000D01*
X149939300Y-144169000D01*
X149941300Y-144171000D01*
X149943300Y-144173000D01*
X149945300Y-144175000D01*
X149946300Y-144177000D01*
X149948300Y-144179000D01*
X149949300Y-144181000D01*
X149951300Y-144183000D01*
X149952300Y-144186000D01*
X149953300Y-144188000D01*
X149954300Y-144191000D01*
X149954300Y-144193000D01*
X149955300Y-144196000D01*
X149955300Y-144198000D01*
X149956300Y-144201000D01*
X149956300Y-144203000D01*
X149956300Y-144206000D01*
X149956300Y-144346000D01*
X149956300Y-144349000D01*
X149956300Y-144351000D01*
X149955300Y-144354000D01*
X149955300Y-144356000D01*
X149954300Y-144359000D01*
X149954300Y-144361000D01*
X149953300Y-144364000D01*
X149952300Y-144366000D01*
X149951300Y-144369000D01*
X149949300Y-144371000D01*
X149948300Y-144373000D01*
X149946300Y-144375000D01*
X149945300Y-144377000D01*
X149943300Y-144379000D01*
X149941300Y-144381000D01*
X149939300Y-144383000D01*
X149937300Y-144385000D01*
X149935300Y-144386000D01*
X149933300Y-144388000D01*
X149931300Y-144389000D01*
X149929300Y-144391000D01*
X149926300Y-144392000D01*
X149924300Y-144393000D01*
X149921300Y-144394000D01*
X149919300Y-144394000D01*
X149916300Y-144395000D01*
X149914300Y-144395000D01*
X149911300Y-144396000D01*
X149909300Y-144396000D01*
X149906300Y-144396000D01*
X149406300Y-144396000D01*
X149403300Y-144396000D01*
X149401300Y-144396000D01*
X149398300Y-144395000D01*
X149396300Y-144395000D01*
X149393300Y-144394000D01*
X149391300Y-144394000D01*
X149388300Y-144393000D01*
X149386300Y-144392000D01*
X149383300Y-144391000D01*
X149381300Y-144389000D01*
X149379300Y-144388000D01*
X149377300Y-144386000D01*
X149375300Y-144385000D01*
X149373300Y-144383000D01*
X149371300Y-144381000D01*
X149369300Y-144379000D01*
X149367300Y-144377000D01*
X149366300Y-144375000D01*
X149364300Y-144373000D01*
X149363300Y-144371000D01*
X149361300Y-144369000D01*
X149360300Y-144366000D01*
X149359300Y-144364000D01*
X149358300Y-144361000D01*
X149358300Y-144359000D01*
X149357300Y-144356000D01*
X149357300Y-144354000D01*
X149356300Y-144351000D01*
X149356300Y-144349000D01*
X149356300Y-144346000D01*
X149356300Y-144206000D01*
X149356300Y-144203000D01*
X149356300Y-144201000D01*
X149357300Y-144198000D01*
X149357300Y-144196000D01*
X149358300Y-144193000D01*
X149358300Y-144191000D01*
X149359300Y-144188000D01*
X149360300Y-144186000D01*
X149361300Y-144183000D01*
X149363300Y-144181000D01*
X149364300Y-144179000D01*
X149366300Y-144177000D01*
X149367300Y-144175000D01*
X149369300Y-144173000D01*
X149371300Y-144171000D01*
X149373300Y-144169000D01*
X149375300Y-144167000D01*
X149377300Y-144166000D01*
X149379300Y-144164000D01*
X149381300Y-144163000D01*
X149383300Y-144161000D01*
X149386300Y-144160000D01*
X149388300Y-144159000D01*
X149391300Y-144158000D01*
X149393300Y-144158000D01*
X149396300Y-144157000D01*
X149398300Y-144157000D01*
X149401300Y-144156000D01*
X149403300Y-144156000D01*
X149406300Y-144156000D01*
X149906300Y-144156000D01*
X149909300Y-144156000D01*
X149911300Y-144156000D01*
X149914300Y-144157000D01*
G37*
X149914300Y-143657000D02*
X149916300Y-143657000D01*
X149919300Y-143658000D01*
X149921300Y-143658000D01*
X149924300Y-143659000D01*
X149926300Y-143660000D01*
X149929300Y-143661000D01*
X149931300Y-143663000D01*
X149933300Y-143664000D01*
X149935300Y-143666000D01*
X149937300Y-143667000D01*
X149939300Y-143669000D01*
X149941300Y-143671000D01*
X149943300Y-143673000D01*
X149945300Y-143675000D01*
X149946300Y-143677000D01*
X149948300Y-143679000D01*
X149949300Y-143681000D01*
X149951300Y-143683000D01*
X149952300Y-143686000D01*
X149953300Y-143688000D01*
X149954300Y-143691000D01*
X149954300Y-143693000D01*
X149955300Y-143696000D01*
X149955300Y-143698000D01*
X149956300Y-143701000D01*
X149956300Y-143703000D01*
X149956300Y-143706000D01*
X149956300Y-143846000D01*
X149956300Y-143849000D01*
X149956300Y-143851000D01*
X149955300Y-143854000D01*
X149955300Y-143856000D01*
X149954300Y-143859000D01*
X149954300Y-143861000D01*
X149953300Y-143864000D01*
X149952300Y-143866000D01*
X149951300Y-143869000D01*
X149949300Y-143871000D01*
X149948300Y-143873000D01*
X149946300Y-143875000D01*
X149945300Y-143877000D01*
X149943300Y-143879000D01*
X149941300Y-143881000D01*
X149939300Y-143883000D01*
X149937300Y-143885000D01*
X149935300Y-143886000D01*
X149933300Y-143888000D01*
X149931300Y-143889000D01*
X149929300Y-143891000D01*
X149926300Y-143892000D01*
X149924300Y-143893000D01*
X149921300Y-143894000D01*
X149919300Y-143894000D01*
X149916300Y-143895000D01*
X149914300Y-143895000D01*
X149911300Y-143896000D01*
X149909300Y-143896000D01*
X149906300Y-143896000D01*
X149406300Y-143896000D01*
X149403300Y-143896000D01*
X149401300Y-143896000D01*
X149398300Y-143895000D01*
X149396300Y-143895000D01*
X149393300Y-143894000D01*
X149391300Y-143894000D01*
X149388300Y-143893000D01*
X149386300Y-143892000D01*
X149383300Y-143891000D01*
X149381300Y-143889000D01*
X149379300Y-143888000D01*
X149377300Y-143886000D01*
X149375300Y-143885000D01*
X149373300Y-143883000D01*
X149371300Y-143881000D01*
X149369300Y-143879000D01*
X149367300Y-143877000D01*
X149366300Y-143875000D01*
X149364300Y-143873000D01*
X149363300Y-143871000D01*
X149361300Y-143869000D01*
X149360300Y-143866000D01*
X149359300Y-143864000D01*
X149358300Y-143861000D01*
X149358300Y-143859000D01*
X149357300Y-143856000D01*
X149357300Y-143854000D01*
X149356300Y-143851000D01*
X149356300Y-143849000D01*
X149356300Y-143846000D01*
X149356300Y-143706000D01*
X149356300Y-143703000D01*
X149356300Y-143701000D01*
X149357300Y-143698000D01*
X149357300Y-143696000D01*
X149358300Y-143693000D01*
X149358300Y-143691000D01*
X149359300Y-143688000D01*
X149360300Y-143686000D01*
X149361300Y-143683000D01*
X149363300Y-143681000D01*
X149364300Y-143679000D01*
X149366300Y-143677000D01*
X149367300Y-143675000D01*
X149369300Y-143673000D01*
X149371300Y-143671000D01*
X149373300Y-143669000D01*
X149375300Y-143667000D01*
X149377300Y-143666000D01*
X149379300Y-143664000D01*
X149381300Y-143663000D01*
X149383300Y-143661000D01*
X149386300Y-143660000D01*
X149388300Y-143659000D01*
X149391300Y-143658000D01*
X149393300Y-143658000D01*
X149396300Y-143657000D01*
X149398300Y-143657000D01*
X149401300Y-143656000D01*
X149403300Y-143656000D01*
X149406300Y-143656000D01*
X149906300Y-143656000D01*
X149909300Y-143656000D01*
X149911300Y-143656000D01*
X149914300Y-143657000D01*
G36*
X149914300Y-143657000D02*
G01*
X149916300Y-143657000D01*
X149919300Y-143658000D01*
X149921300Y-143658000D01*
X149924300Y-143659000D01*
X149926300Y-143660000D01*
X149929300Y-143661000D01*
X149931300Y-143663000D01*
X149933300Y-143664000D01*
X149935300Y-143666000D01*
X149937300Y-143667000D01*
X149939300Y-143669000D01*
X149941300Y-143671000D01*
X149943300Y-143673000D01*
X149945300Y-143675000D01*
X149946300Y-143677000D01*
X149948300Y-143679000D01*
X149949300Y-143681000D01*
X149951300Y-143683000D01*
X149952300Y-143686000D01*
X149953300Y-143688000D01*
X149954300Y-143691000D01*
X149954300Y-143693000D01*
X149955300Y-143696000D01*
X149955300Y-143698000D01*
X149956300Y-143701000D01*
X149956300Y-143703000D01*
X149956300Y-143706000D01*
X149956300Y-143846000D01*
X149956300Y-143849000D01*
X149956300Y-143851000D01*
X149955300Y-143854000D01*
X149955300Y-143856000D01*
X149954300Y-143859000D01*
X149954300Y-143861000D01*
X149953300Y-143864000D01*
X149952300Y-143866000D01*
X149951300Y-143869000D01*
X149949300Y-143871000D01*
X149948300Y-143873000D01*
X149946300Y-143875000D01*
X149945300Y-143877000D01*
X149943300Y-143879000D01*
X149941300Y-143881000D01*
X149939300Y-143883000D01*
X149937300Y-143885000D01*
X149935300Y-143886000D01*
X149933300Y-143888000D01*
X149931300Y-143889000D01*
X149929300Y-143891000D01*
X149926300Y-143892000D01*
X149924300Y-143893000D01*
X149921300Y-143894000D01*
X149919300Y-143894000D01*
X149916300Y-143895000D01*
X149914300Y-143895000D01*
X149911300Y-143896000D01*
X149909300Y-143896000D01*
X149906300Y-143896000D01*
X149406300Y-143896000D01*
X149403300Y-143896000D01*
X149401300Y-143896000D01*
X149398300Y-143895000D01*
X149396300Y-143895000D01*
X149393300Y-143894000D01*
X149391300Y-143894000D01*
X149388300Y-143893000D01*
X149386300Y-143892000D01*
X149383300Y-143891000D01*
X149381300Y-143889000D01*
X149379300Y-143888000D01*
X149377300Y-143886000D01*
X149375300Y-143885000D01*
X149373300Y-143883000D01*
X149371300Y-143881000D01*
X149369300Y-143879000D01*
X149367300Y-143877000D01*
X149366300Y-143875000D01*
X149364300Y-143873000D01*
X149363300Y-143871000D01*
X149361300Y-143869000D01*
X149360300Y-143866000D01*
X149359300Y-143864000D01*
X149358300Y-143861000D01*
X149358300Y-143859000D01*
X149357300Y-143856000D01*
X149357300Y-143854000D01*
X149356300Y-143851000D01*
X149356300Y-143849000D01*
X149356300Y-143846000D01*
X149356300Y-143706000D01*
X149356300Y-143703000D01*
X149356300Y-143701000D01*
X149357300Y-143698000D01*
X149357300Y-143696000D01*
X149358300Y-143693000D01*
X149358300Y-143691000D01*
X149359300Y-143688000D01*
X149360300Y-143686000D01*
X149361300Y-143683000D01*
X149363300Y-143681000D01*
X149364300Y-143679000D01*
X149366300Y-143677000D01*
X149367300Y-143675000D01*
X149369300Y-143673000D01*
X149371300Y-143671000D01*
X149373300Y-143669000D01*
X149375300Y-143667000D01*
X149377300Y-143666000D01*
X149379300Y-143664000D01*
X149381300Y-143663000D01*
X149383300Y-143661000D01*
X149386300Y-143660000D01*
X149388300Y-143659000D01*
X149391300Y-143658000D01*
X149393300Y-143658000D01*
X149396300Y-143657000D01*
X149398300Y-143657000D01*
X149401300Y-143656000D01*
X149403300Y-143656000D01*
X149406300Y-143656000D01*
X149906300Y-143656000D01*
X149909300Y-143656000D01*
X149911300Y-143656000D01*
X149914300Y-143657000D01*
G37*
G36*
X144248200Y-116130400D02*
G01*
X142771800Y-116130400D01*
X142771800Y-114654000D01*
X144248200Y-114654000D01*
X144248200Y-116130400D01*
G37*
G36*
X144248200Y-117806800D02*
G01*
X142771800Y-117806800D01*
X142771800Y-116330400D01*
X144248200Y-116330400D01*
X144248200Y-117806800D01*
G37*
G36*
X145924600Y-116130400D02*
G01*
X144448200Y-116130400D01*
X144448200Y-114654000D01*
X145924600Y-114654000D01*
X145924600Y-116130400D01*
G37*
G36*
X145924600Y-117806800D02*
G01*
X144448200Y-117806800D01*
X144448200Y-116330400D01*
X145924600Y-116330400D01*
X145924600Y-117806800D01*
G37*
X150650800Y-124515400D02*
X148920800Y-124515400D01*
X148920800Y-122595400D01*
X150650800Y-122595400D01*
X150650800Y-124515400D01*
G36*
X150650800Y-124515400D02*
G01*
X148920800Y-124515400D01*
X148920800Y-122595400D01*
X150650800Y-122595400D01*
X150650800Y-124515400D01*
G37*
X153440800Y-124515400D02*
X151710800Y-124515400D01*
X151710800Y-122595400D01*
X153440800Y-122595400D01*
X153440800Y-124515400D01*
G36*
X153440800Y-124515400D02*
G01*
X151710800Y-124515400D01*
X151710800Y-122595400D01*
X153440800Y-122595400D01*
X153440800Y-124515400D01*
G37*
X150650800Y-121535400D02*
X148920800Y-121535400D01*
X148920800Y-119615400D01*
X150650800Y-119615400D01*
X150650800Y-121535400D01*
G36*
X150650800Y-121535400D02*
G01*
X148920800Y-121535400D01*
X148920800Y-119615400D01*
X150650800Y-119615400D01*
X150650800Y-121535400D01*
G37*
X153440800Y-121535400D02*
X151710800Y-121535400D01*
X151710800Y-119615400D01*
X153440800Y-119615400D01*
X153440800Y-121535400D01*
G36*
X153440800Y-121535400D02*
G01*
X151710800Y-121535400D01*
X151710800Y-119615400D01*
X153440800Y-119615400D01*
X153440800Y-121535400D01*
G37*
D11*
X147066000Y-106371200D03*
X147066000Y-107391200D03*
D12*
X151780100Y-97623000D03*
X152740100Y-97623000D03*
D13*
X138519000Y-156554000D03*
X138519000Y-155359000D03*
D14*
X136233000Y-154724000D03*
X135098000Y-154724000D03*
D15*
X141399000Y-129077000D03*
X141399000Y-127807000D03*
X141399000Y-126537000D03*
X141399000Y-125267000D03*
X135999000Y-125267000D03*
X135999000Y-126537000D03*
X135999000Y-127807000D03*
X135999000Y-129077000D03*
D16*
X130810000Y-129927000D03*
X130810000Y-125657000D03*
D13*
X135310798Y-142748000D03*
X135310798Y-141553000D03*
D11*
X145834100Y-120195499D03*
X145834100Y-121215499D03*
D17*
X140030200Y-113362800D03*
X140030200Y-114322800D03*
D18*
X142646400Y-109526800D03*
X142646400Y-108506800D03*
D19*
X136291000Y-153212000D03*
X136791000Y-153212000D03*
X137291000Y-153212000D03*
X137791000Y-153212000D03*
X138291000Y-153212000D03*
X138791000Y-153212000D03*
D20*
X139496000Y-152507000D03*
X139496000Y-152007000D03*
X139496000Y-151507000D03*
X139496000Y-151007000D03*
X139496000Y-150507000D03*
X139496000Y-150007000D03*
D19*
X138791000Y-149302000D03*
X138291000Y-149302000D03*
X137791000Y-149302000D03*
X137291000Y-149302000D03*
X136791000Y-149302000D03*
X136291000Y-149302000D03*
D20*
X135586000Y-150007000D03*
X135586000Y-150507000D03*
X135586000Y-151007000D03*
X135586000Y-151507000D03*
X135586000Y-152007000D03*
X135586000Y-152507000D03*
D21*
X137541000Y-151257000D03*
D22*
X148150800Y-82771512D03*
X148150800Y-83271512D03*
X148150800Y-83771512D03*
X148150800Y-84271512D03*
X148150800Y-84771512D03*
X152450800Y-84771512D03*
X152450800Y-84271512D03*
X152450800Y-83771512D03*
X152450800Y-83271512D03*
X152450800Y-82771512D03*
D23*
X148767800Y-71752400D03*
X148767800Y-70792400D03*
D18*
X141579600Y-109524800D03*
X141579600Y-108504800D03*
X143421100Y-121469499D03*
X143421100Y-120449499D03*
D24*
X155117300Y-145161000D03*
X156252300Y-145161000D03*
D25*
X147237800Y-133645400D03*
X147237800Y-135370400D03*
D26*
X140879100Y-120578499D03*
X141899100Y-120578499D03*
D27*
X137672000Y-74422000D03*
X136652000Y-74422000D03*
D12*
X152047000Y-72731912D03*
X153007000Y-72731912D03*
D13*
X150114000Y-140222500D03*
X150114000Y-139027500D03*
D28*
X150271000Y-160172400D03*
X150271000Y-161367400D03*
D13*
X145826000Y-161240400D03*
X145826000Y-160045400D03*
D29*
X146686300Y-142240000D03*
X147881300Y-142240000D03*
D26*
X138926701Y-120578499D03*
X139946701Y-120578499D03*
D14*
X133968300Y-149453600D03*
X132833300Y-149453600D03*
D25*
X155247300Y-147574000D03*
X155247300Y-149299000D03*
D30*
X147163800Y-131643400D03*
X148888800Y-131643400D03*
D31*
X138101100Y-123451500D03*
X139926100Y-123451500D03*
D32*
X138667999Y-159854900D03*
X138018000Y-159854900D03*
X137368001Y-159854900D03*
X137368001Y-161963100D03*
X138018000Y-161963100D03*
X138667999Y-161963100D03*
D33*
X138303000Y-160909000D03*
D32*
X137243000Y-160909000D03*
D34*
X136271000Y-158615000D03*
X136271000Y-157480000D03*
D29*
X156208800Y-140589000D03*
X157403800Y-140589000D03*
D28*
X148971000Y-139027500D03*
X148971000Y-140222500D03*
D23*
X145948400Y-107384000D03*
X145948400Y-106424000D03*
D35*
X145849300Y-145669000D03*
X147924300Y-145669000D03*
D12*
X147579200Y-81483200D03*
X148539200Y-81483200D03*
D36*
X139673500Y-130840000D03*
X137948500Y-130840000D03*
D27*
X137668000Y-75641200D03*
X136648000Y-75641200D03*
D37*
X157251300Y-143764000D03*
X155501300Y-143764000D03*
D24*
X135090000Y-155867000D03*
X136225000Y-155867000D03*
D38*
X141973300Y-114730400D03*
X141973300Y-115230399D03*
X141973300Y-115730401D03*
X141973300Y-116230400D03*
X141973300Y-116730399D03*
X141973300Y-117230401D03*
X141973300Y-117730400D03*
D39*
X142848200Y-118605300D03*
X143348199Y-118605300D03*
X143848201Y-118605300D03*
X144348200Y-118605300D03*
X144848199Y-118605300D03*
X145348201Y-118605300D03*
X145848200Y-118605300D03*
D38*
X146723100Y-117730400D03*
X146723100Y-117230401D03*
X146723100Y-116730399D03*
X146723100Y-116230400D03*
X146723100Y-115730401D03*
X146723100Y-115230399D03*
X146723100Y-114730400D03*
D39*
X145848200Y-113855500D03*
X145348201Y-113855500D03*
X144848199Y-113855500D03*
X144348200Y-113855500D03*
X143848201Y-113855500D03*
X143348199Y-113855500D03*
X142848200Y-113855500D03*
D40*
X144348200Y-116230400D03*
D34*
X151282400Y-148759800D03*
X151282400Y-147624800D03*
D32*
X141278001Y-161963100D03*
X141928000Y-161963100D03*
X142577999Y-161963100D03*
X142577999Y-159854900D03*
X141928000Y-159854900D03*
X141278001Y-159854900D03*
D33*
X141643000Y-160909000D03*
D32*
X142703000Y-160909000D03*
D23*
X136245600Y-104391400D03*
X136245600Y-103431400D03*
D24*
X146746300Y-143510000D03*
X147881300Y-143510000D03*
D13*
X139662000Y-156554000D03*
X139662000Y-155359000D03*
D41*
X132892800Y-70619600D03*
X132892800Y-71869600D03*
X132892800Y-73119600D03*
X132892800Y-74369600D03*
X132892800Y-75619600D03*
X132892800Y-76869600D03*
X132892800Y-78119600D03*
X132892800Y-79369600D03*
X132892800Y-80619600D03*
X132892800Y-81869600D03*
X132892800Y-83119600D03*
X132892800Y-84369600D03*
D42*
X129992800Y-68069600D03*
X129992800Y-86919600D03*
D34*
X135382000Y-148090700D03*
X135382000Y-146955700D03*
D13*
X151231600Y-140195900D03*
X151231600Y-139000900D03*
D43*
X133365000Y-127807000D03*
X133365000Y-126082000D03*
D12*
X152044400Y-64045112D03*
X153004400Y-64045112D03*
D44*
X129286000Y-135636000D03*
X132186000Y-135636000D03*
D17*
X138859300Y-117960500D03*
X138859300Y-118920500D03*
D45*
X132810000Y-151257000D03*
X130810000Y-151257000D03*
D13*
X153723300Y-142748000D03*
X153723300Y-141553000D03*
D46*
X153088300Y-147701000D03*
X153088300Y-149776000D03*
D47*
X136885598Y-142494000D03*
X138785600Y-142494000D03*
X137835599Y-140483000D03*
D48*
X144119600Y-133761000D03*
X144119600Y-136661000D03*
D49*
X136525000Y-165354000D03*
X134074998Y-165354000D03*
D23*
X149809200Y-71755000D03*
X149809200Y-70795000D03*
D50*
X147881300Y-140970000D03*
X146686300Y-140970000D03*
D13*
X137376000Y-156554000D03*
X137376000Y-155359000D03*
D11*
X136550400Y-69596000D03*
X136550400Y-70616000D03*
D51*
X138156000Y-145389600D03*
D52*
X138156000Y-147332700D03*
X136906000Y-147332700D03*
D51*
X136906000Y-145389600D03*
D53*
X148630400Y-160139200D03*
X147330400Y-160139200D03*
X147980400Y-162339200D03*
D29*
X140932000Y-149771000D03*
X142127000Y-149771000D03*
D18*
X140665200Y-111914400D03*
X140665200Y-110894400D03*
D54*
X136652000Y-135382000D03*
X140852000Y-135382000D03*
D55*
X149606000Y-149479000D03*
X146611300Y-149479000D03*
D25*
X149142800Y-133645400D03*
X149142800Y-135370400D03*
D12*
X147579200Y-64019712D03*
X148539200Y-64019712D03*
D11*
X137285400Y-118315900D03*
X137285400Y-119335900D03*
D56*
X148900800Y-128685400D03*
X153460800Y-128685400D03*
D57*
X151936800Y-132041400D03*
X151936800Y-134661400D03*
D58*
X146776400Y-111256499D03*
X148676400Y-111256499D03*
X147726400Y-108746499D03*
D27*
X142242000Y-98755200D03*
X141222000Y-98755200D03*
D18*
X139700000Y-94894400D03*
X139700000Y-93874400D03*
D59*
X141247998Y-97442000D03*
X141747999Y-97442000D03*
X142247999Y-97442000D03*
X142748000Y-97442000D03*
D60*
X142954299Y-96731699D03*
X142954299Y-96231700D03*
X142954299Y-95731701D03*
D59*
X142748000Y-95021400D03*
X142247999Y-95021400D03*
X141747999Y-95021400D03*
X141247998Y-95021400D03*
D60*
X141041699Y-95731701D03*
X141041699Y-96231700D03*
X141041699Y-96731699D03*
D58*
X136667200Y-108290600D03*
X138567200Y-108290600D03*
X137617200Y-105780600D03*
D61*
X149899000Y-157584000D03*
X149899000Y-154434000D03*
X151599000Y-157584000D03*
X151599000Y-154434000D03*
D62*
X150749000Y-157734000D03*
X150749000Y-154284000D03*
D34*
X139649200Y-148132800D03*
X139649200Y-146997800D03*
D22*
X148201600Y-99052000D03*
X148201600Y-99552000D03*
X148201600Y-100052000D03*
X148201600Y-100552000D03*
X148201600Y-101052000D03*
X152501600Y-101052000D03*
X152501600Y-100552000D03*
X152501600Y-100052000D03*
X152501600Y-99552000D03*
X152501600Y-99052000D03*
D63*
X135283600Y-113110900D03*
X135283600Y-113910900D03*
D64*
X135283600Y-115060900D03*
X135283600Y-116060900D03*
X135283600Y-116560900D03*
X135283600Y-117560900D03*
D63*
X135283600Y-119510900D03*
X135283600Y-118710900D03*
D64*
X135283600Y-118060900D03*
X135283600Y-117060900D03*
X135283600Y-115560900D03*
X135283600Y-114560900D03*
D34*
X134328000Y-152692000D03*
X134328000Y-151557000D03*
D11*
X137795000Y-69570600D03*
X137795000Y-70590600D03*
D23*
X144351299Y-96719701D03*
X144351299Y-95759701D03*
D18*
X137033000Y-112879600D03*
X137033000Y-111859600D03*
D31*
X133580500Y-123347000D03*
X135405500Y-123347000D03*
D18*
X140258800Y-142699200D03*
X140258800Y-141679200D03*
D13*
X140843000Y-156553500D03*
X140843000Y-155358500D03*
D65*
X133223000Y-157750000D03*
X133223000Y-155750000D03*
D11*
X135001000Y-103401400D03*
X135001000Y-104421400D03*
D12*
X147630000Y-97739200D03*
X148590000Y-97739200D03*
D66*
X131102000Y-155734000D03*
X131102000Y-157734000D03*
D50*
X144667000Y-151549000D03*
X143472000Y-151549000D03*
D22*
X148150800Y-65340512D03*
X148150800Y-65840512D03*
X148150800Y-66340512D03*
X148150800Y-66840512D03*
X148150800Y-67340512D03*
X152450800Y-67340512D03*
X152450800Y-66840512D03*
X152450800Y-66340512D03*
X152450800Y-65840512D03*
X152450800Y-65340512D03*
D67*
X150398000Y-164716400D03*
X150398000Y-162966400D03*
D27*
X145442400Y-110413800D03*
X144422400Y-110413800D03*
D12*
X142877600Y-93726000D03*
X143837600Y-93726000D03*
X146913600Y-72731912D03*
X147873600Y-72731912D03*
D50*
X142889000Y-153581000D03*
X141694000Y-153581000D03*
D22*
X148153044Y-74027356D03*
X148153044Y-74527356D03*
X148153044Y-75027356D03*
X148153044Y-75527356D03*
X148153044Y-76027356D03*
X152453044Y-76027356D03*
X152453044Y-75527356D03*
X152453044Y-75027356D03*
X152453044Y-74527356D03*
X152453044Y-74027356D03*
D12*
X151665800Y-81342512D03*
X152625800Y-81342512D03*
M02*
